G04*
G04 #@! TF.GenerationSoftware,Altium Limited,Altium Designer,21.0.8 (223)*
G04*
G04 Layer_Color=255*
%FSLAX25Y25*%
%MOIN*%
G70*
G04*
G04 #@! TF.SameCoordinates,9B631218-273A-463D-9665-DA23E21FF141*
G04*
G04*
G04 #@! TF.FilePolarity,Positive*
G04*
G01*
G75*
%ADD19R,0.08000X0.06000*%
%ADD24R,0.06000X0.08000*%
%ADD38R,0.01181X0.02559*%
%ADD59R,0.02362X0.02362*%
%ADD61R,0.06299X0.06299*%
%ADD62C,0.06299*%
%ADD68R,0.06299X0.06299*%
%ADD80R,0.03347X0.03347*%
%ADD81R,0.06000X0.04000*%
%ADD82R,0.04724X0.04331*%
%ADD83R,0.04331X0.04724*%
%ADD85R,0.04000X0.06000*%
%ADD86R,0.36600X0.43600*%
%ADD87R,0.03347X0.03347*%
%ADD89C,0.04724*%
%ADD94R,0.01968X0.01968*%
%ADD96R,0.01968X0.01968*%
%ADD104R,0.05906X0.05906*%
%ADD105C,0.05906*%
%ADD106C,0.06496*%
%ADD107C,0.13386*%
%ADD108R,0.07500X0.07874*%
G04:AMPARAMS|DCode=109|XSize=75mil|YSize=78.74mil|CornerRadius=37.5mil|HoleSize=0mil|Usage=FLASHONLY|Rotation=0.000|XOffset=0mil|YOffset=0mil|HoleType=Round|Shape=RoundedRectangle|*
%AMROUNDEDRECTD109*
21,1,0.07500,0.00374,0,0,0.0*
21,1,0.00000,0.07874,0,0,0.0*
1,1,0.07500,0.00000,-0.00187*
1,1,0.07500,0.00000,-0.00187*
1,1,0.07500,0.00000,0.00187*
1,1,0.07500,0.00000,0.00187*
%
%ADD109ROUNDEDRECTD109*%
%ADD110C,0.47244*%
%ADD111R,0.05906X0.05906*%
%ADD112C,0.03150*%
%ADD113C,0.07874*%
%ADD114C,0.09843*%
%ADD115C,0.07087*%
%ADD116C,0.06000*%
%ADD117C,0.15748*%
%ADD118C,0.10630*%
%ADD119R,0.10630X0.10630*%
%ADD121C,0.03937*%
%ADD123R,0.11811X0.11811*%
%ADD124O,0.02362X0.05709*%
%ADD125R,0.03937X0.02362*%
%ADD126R,0.08000X0.03937*%
%ADD127R,0.04900X0.12500*%
%ADD128R,0.10630X0.06299*%
%ADD129R,0.02362X0.02756*%
%ADD130O,0.03740X0.00984*%
%ADD131R,0.06693X0.10630*%
%ADD132O,0.00984X0.03740*%
%ADD133O,0.05315X0.01181*%
G04:AMPARAMS|DCode=134|XSize=59.06mil|YSize=39.37mil|CornerRadius=9.84mil|HoleSize=0mil|Usage=FLASHONLY|Rotation=270.000|XOffset=0mil|YOffset=0mil|HoleType=Round|Shape=RoundedRectangle|*
%AMROUNDEDRECTD134*
21,1,0.05906,0.01968,0,0,270.0*
21,1,0.03937,0.03937,0,0,270.0*
1,1,0.01968,-0.00984,-0.01968*
1,1,0.01968,-0.00984,0.01968*
1,1,0.01968,0.00984,0.01968*
1,1,0.01968,0.00984,-0.01968*
%
%ADD134ROUNDEDRECTD134*%
%ADD135R,0.06102X0.02362*%
G04:AMPARAMS|DCode=136|XSize=59.06mil|YSize=39.37mil|CornerRadius=9.84mil|HoleSize=0mil|Usage=FLASHONLY|Rotation=0.000|XOffset=0mil|YOffset=0mil|HoleType=Round|Shape=RoundedRectangle|*
%AMROUNDEDRECTD136*
21,1,0.05906,0.01968,0,0,0.0*
21,1,0.03937,0.03937,0,0,0.0*
1,1,0.01968,0.01968,-0.00984*
1,1,0.01968,-0.01968,-0.00984*
1,1,0.01968,-0.01968,0.00984*
1,1,0.01968,0.01968,0.00984*
%
%ADD136ROUNDEDRECTD136*%
%ADD137R,0.01968X0.03937*%
D19*
X634646Y196862D02*
D03*
Y207862D02*
D03*
X449711Y212562D02*
D03*
Y223562D02*
D03*
X460877Y212562D02*
D03*
Y223562D02*
D03*
X70866Y211035D02*
D03*
Y222035D02*
D03*
X81492Y211035D02*
D03*
Y222035D02*
D03*
X269685Y211035D02*
D03*
Y222035D02*
D03*
X259843Y211035D02*
D03*
Y222036D02*
D03*
D24*
X578152Y306226D02*
D03*
X567152D02*
D03*
X483484Y196850D02*
D03*
X472484D02*
D03*
X105488Y196850D02*
D03*
X94488Y196964D02*
D03*
X294339Y196850D02*
D03*
X283339D02*
D03*
D38*
X437008Y108957D02*
D03*
Y103642D02*
D03*
X485906Y108957D02*
D03*
Y103642D02*
D03*
X531496Y108957D02*
D03*
Y103642D02*
D03*
X12565Y109418D02*
D03*
Y104103D02*
D03*
X59153Y108957D02*
D03*
Y103642D02*
D03*
X107953Y108957D02*
D03*
Y103642D02*
D03*
X154213Y108957D02*
D03*
Y103642D02*
D03*
X202441Y108957D02*
D03*
Y103642D02*
D03*
X248032Y108957D02*
D03*
Y103642D02*
D03*
X296929Y108957D02*
D03*
Y103642D02*
D03*
X316930Y381046D02*
D03*
Y386361D02*
D03*
X326860Y386360D02*
D03*
Y381046D02*
D03*
X336930Y381046D02*
D03*
Y386360D02*
D03*
X391417Y108957D02*
D03*
Y103642D02*
D03*
X342520Y108957D02*
D03*
Y103642D02*
D03*
D59*
X566246Y109967D02*
D03*
Y106818D02*
D03*
X575255Y109967D02*
D03*
Y106818D02*
D03*
X194882Y111386D02*
D03*
Y108237D02*
D03*
X189862Y111386D02*
D03*
Y108237D02*
D03*
X378634Y111417D02*
D03*
Y108268D02*
D03*
X383858Y111417D02*
D03*
Y108268D02*
D03*
D61*
X112047Y391732D02*
D03*
X226220Y365073D02*
D03*
D62*
X205276Y249961D02*
D03*
Y269961D02*
D03*
Y259961D02*
D03*
Y239961D02*
D03*
Y229961D02*
D03*
X122047Y391732D02*
D03*
X205276Y309961D02*
D03*
Y319961D02*
D03*
Y339961D02*
D03*
Y359961D02*
D03*
Y349961D02*
D03*
Y329961D02*
D03*
Y299961D02*
D03*
X236221Y365073D02*
D03*
X246220D02*
D03*
X395276Y279961D02*
D03*
Y259961D02*
D03*
Y239961D02*
D03*
Y249961D02*
D03*
Y269961D02*
D03*
Y289961D02*
D03*
Y299961D02*
D03*
Y385961D02*
D03*
Y375961D02*
D03*
Y355961D02*
D03*
Y335961D02*
D03*
Y325961D02*
D03*
Y345961D02*
D03*
Y365961D02*
D03*
Y395961D02*
D03*
Y405961D02*
D03*
D68*
X205276Y279961D02*
D03*
Y369961D02*
D03*
X395276Y229961D02*
D03*
Y315961D02*
D03*
D80*
X626870Y342520D02*
D03*
X632972D02*
D03*
X384941Y260012D02*
D03*
X378839D02*
D03*
X384941Y270018D02*
D03*
X378838D02*
D03*
X441831Y263779D02*
D03*
X447933D02*
D03*
X384941Y279960D02*
D03*
X378838D02*
D03*
X384941Y289961D02*
D03*
X378838D02*
D03*
X326102Y300000D02*
D03*
X320000D02*
D03*
X441831Y272291D02*
D03*
X447933D02*
D03*
X535236Y295275D02*
D03*
X541338D02*
D03*
X563051Y157178D02*
D03*
X556949D02*
D03*
X563051Y135035D02*
D03*
X556949D02*
D03*
X185630Y145669D02*
D03*
X191732D02*
D03*
X186201Y168898D02*
D03*
X192303D02*
D03*
X306949Y300000D02*
D03*
X313051D02*
D03*
X324218Y336415D02*
D03*
X318116D02*
D03*
X324218Y343540D02*
D03*
X318116D02*
D03*
X384941Y315823D02*
D03*
X378838D02*
D03*
X384941Y355961D02*
D03*
X378838D02*
D03*
X384941Y365865D02*
D03*
X378838D02*
D03*
X378073Y168590D02*
D03*
X371971D02*
D03*
X378621Y145442D02*
D03*
X372518D02*
D03*
X268602Y336415D02*
D03*
X274705D02*
D03*
X268749Y342834D02*
D03*
X274851D02*
D03*
X255197Y341922D02*
D03*
X261300D02*
D03*
X255197Y349286D02*
D03*
X261300D02*
D03*
X274624Y349286D02*
D03*
X268522D02*
D03*
D81*
X246959Y345834D02*
D03*
Y353834D02*
D03*
X589243Y243795D02*
D03*
Y235795D02*
D03*
X573534Y243795D02*
D03*
Y235795D02*
D03*
X581232Y243795D02*
D03*
Y235795D02*
D03*
X655512Y348488D02*
D03*
Y340488D02*
D03*
X607938Y102983D02*
D03*
Y110983D02*
D03*
X607830Y130887D02*
D03*
Y122887D02*
D03*
X575255Y116826D02*
D03*
Y124826D02*
D03*
X494714Y225961D02*
D03*
Y233961D02*
D03*
X503791Y226037D02*
D03*
Y234037D02*
D03*
X607955Y175354D02*
D03*
Y183354D02*
D03*
X465341Y255929D02*
D03*
Y247929D02*
D03*
X472815Y247969D02*
D03*
Y255969D02*
D03*
X480315Y247969D02*
D03*
Y255969D02*
D03*
X488189D02*
D03*
Y247969D02*
D03*
X587289Y260622D02*
D03*
Y252622D02*
D03*
Y274514D02*
D03*
Y266514D02*
D03*
X541338Y150775D02*
D03*
Y142775D02*
D03*
X607874Y151906D02*
D03*
Y159906D02*
D03*
X446850Y108237D02*
D03*
Y116237D02*
D03*
X496063Y108237D02*
D03*
Y116237D02*
D03*
X541339Y108237D02*
D03*
Y116237D02*
D03*
X437008Y118047D02*
D03*
Y126047D02*
D03*
X485906Y118047D02*
D03*
Y126047D02*
D03*
X531496Y118047D02*
D03*
Y126047D02*
D03*
X566246Y116826D02*
D03*
Y124826D02*
D03*
X23579Y108237D02*
D03*
Y116237D02*
D03*
X12565Y118508D02*
D03*
Y126508D02*
D03*
X68996Y108237D02*
D03*
Y116237D02*
D03*
X59153Y118047D02*
D03*
Y126047D02*
D03*
X107953Y118047D02*
D03*
Y126047D02*
D03*
X86614Y255969D02*
D03*
Y247969D02*
D03*
X102362Y255969D02*
D03*
Y247969D02*
D03*
X110712Y255968D02*
D03*
Y247968D02*
D03*
X118110Y108237D02*
D03*
Y116237D02*
D03*
X163386Y108237D02*
D03*
Y116237D02*
D03*
X154213Y118047D02*
D03*
Y126047D02*
D03*
X169718Y163512D02*
D03*
Y155512D02*
D03*
X184378Y123047D02*
D03*
Y131047D02*
D03*
X192913Y123047D02*
D03*
Y131047D02*
D03*
X212598Y108237D02*
D03*
Y116237D02*
D03*
X257874Y108237D02*
D03*
Y116237D02*
D03*
X307086Y108237D02*
D03*
Y116237D02*
D03*
X202416Y118047D02*
D03*
Y126047D02*
D03*
X248032Y118047D02*
D03*
Y126047D02*
D03*
X296899Y118047D02*
D03*
Y126047D02*
D03*
X125984Y225972D02*
D03*
Y233972D02*
D03*
X117413Y225974D02*
D03*
Y233974D02*
D03*
X275590Y255968D02*
D03*
Y247969D02*
D03*
X283839D02*
D03*
Y255968D02*
D03*
X306039Y225961D02*
D03*
Y233961D02*
D03*
X315761Y225961D02*
D03*
Y233961D02*
D03*
X291338Y247969D02*
D03*
Y255968D02*
D03*
X298839Y255969D02*
D03*
Y247969D02*
D03*
X260641Y296927D02*
D03*
Y304927D02*
D03*
X357383Y163284D02*
D03*
Y155284D02*
D03*
X371308Y131953D02*
D03*
Y123953D02*
D03*
X352362Y108237D02*
D03*
Y116237D02*
D03*
X342520Y118047D02*
D03*
Y126047D02*
D03*
X379921Y123953D02*
D03*
Y131953D02*
D03*
X401575Y108237D02*
D03*
Y116237D02*
D03*
X391417Y118047D02*
D03*
Y126047D02*
D03*
X286629Y359600D02*
D03*
Y367600D02*
D03*
X306930Y359600D02*
D03*
Y367600D02*
D03*
X296877Y359600D02*
D03*
Y367600D02*
D03*
X94862Y247969D02*
D03*
Y255969D02*
D03*
X99667Y282742D02*
D03*
Y290742D02*
D03*
D82*
X339096Y324561D02*
D03*
Y316293D02*
D03*
D83*
X256605Y356724D02*
D03*
X264872D02*
D03*
D85*
X577731Y399046D02*
D03*
X569731D02*
D03*
X84620Y391173D02*
D03*
X76620D02*
D03*
X616205Y342520D02*
D03*
X608205D02*
D03*
X548547Y241472D02*
D03*
X556547D02*
D03*
X548499Y249817D02*
D03*
X556499D02*
D03*
X548547Y265197D02*
D03*
X556547D02*
D03*
X548484Y273514D02*
D03*
X556484D02*
D03*
X631133Y365779D02*
D03*
X623133D02*
D03*
X564785Y280000D02*
D03*
X572785D02*
D03*
X565089Y288124D02*
D03*
X573089D02*
D03*
X455201Y110236D02*
D03*
X463201D02*
D03*
X549319Y110108D02*
D03*
X557319D02*
D03*
X503874Y110236D02*
D03*
X511874D02*
D03*
X31973Y110236D02*
D03*
X39973D02*
D03*
X37402Y179214D02*
D03*
X45402D02*
D03*
X77201Y110236D02*
D03*
X85201D02*
D03*
X42361Y240024D02*
D03*
X50361D02*
D03*
X125921Y110236D02*
D03*
X133921D02*
D03*
X171315D02*
D03*
X179315D02*
D03*
X220409D02*
D03*
X228410D02*
D03*
X266201D02*
D03*
X274201D02*
D03*
X314898Y110236D02*
D03*
X322898D02*
D03*
X232598Y178709D02*
D03*
X240598D02*
D03*
X292000Y300000D02*
D03*
X300000D02*
D03*
X267710Y321452D02*
D03*
X275711D02*
D03*
X325421Y316560D02*
D03*
X317421D02*
D03*
X325421Y326375D02*
D03*
X317421D02*
D03*
X360445Y110236D02*
D03*
X368445D02*
D03*
X409386D02*
D03*
X417386D02*
D03*
X38736Y282372D02*
D03*
X46736D02*
D03*
D86*
X646507Y112626D02*
D03*
X646505Y165354D02*
D03*
D87*
X647638Y341437D02*
D03*
Y347539D02*
D03*
X641732Y341437D02*
D03*
Y347539D02*
D03*
X663386Y347539D02*
D03*
Y341437D02*
D03*
X600394Y346591D02*
D03*
Y340488D02*
D03*
X576100Y134541D02*
D03*
Y140644D02*
D03*
X547244Y310138D02*
D03*
Y304035D02*
D03*
X647638Y361319D02*
D03*
Y355217D02*
D03*
X576159Y153014D02*
D03*
Y146912D02*
D03*
X207842Y165551D02*
D03*
Y159449D02*
D03*
X214567Y165551D02*
D03*
Y159449D02*
D03*
X92116Y283037D02*
D03*
Y289140D02*
D03*
X286930Y380652D02*
D03*
Y386754D02*
D03*
X306930Y380652D02*
D03*
Y386754D02*
D03*
X296877Y380652D02*
D03*
Y386754D02*
D03*
X401265Y165298D02*
D03*
Y159196D02*
D03*
X331270Y337517D02*
D03*
Y343620D02*
D03*
X434447Y397693D02*
D03*
Y391591D02*
D03*
X394391Y159221D02*
D03*
Y165323D02*
D03*
X42207Y254449D02*
D03*
Y248347D02*
D03*
X50305Y254449D02*
D03*
Y248347D02*
D03*
D89*
X597638Y131102D02*
D03*
X604331Y216142D02*
D03*
X12600Y98462D02*
D03*
X107888Y98713D02*
D03*
X152699Y145669D02*
D03*
X117393Y188178D02*
D03*
X67726Y198031D02*
D03*
X135827Y248031D02*
D03*
X202521Y98393D02*
D03*
X214567Y145669D02*
D03*
X200886Y145669D02*
D03*
X177264D02*
D03*
X214567Y176476D02*
D03*
X199409Y176476D02*
D03*
X258101Y195933D02*
D03*
X296979Y98438D02*
D03*
X340470Y145379D02*
D03*
X363638Y145442D02*
D03*
X304164Y190600D02*
D03*
X326772Y240917D02*
D03*
X283464Y295339D02*
D03*
X358268Y303150D02*
D03*
X157874Y359842D02*
D03*
X391414Y98357D02*
D03*
X400153Y145379D02*
D03*
X388028Y145442D02*
D03*
X401327Y176209D02*
D03*
X386911Y176209D02*
D03*
X448819Y197835D02*
D03*
X485893Y98425D02*
D03*
X550428Y130402D02*
D03*
X545947Y180378D02*
D03*
X492899Y190403D02*
D03*
X539370Y242126D02*
D03*
X513858Y243447D02*
D03*
X533464Y262205D02*
D03*
X533858Y275590D02*
D03*
X533858Y283464D02*
D03*
X547325Y291957D02*
D03*
X569786Y135156D02*
D03*
X576100Y171309D02*
D03*
X566578Y171417D02*
D03*
X570866Y183442D02*
D03*
X564354Y233691D02*
D03*
X605905Y242520D02*
D03*
X594882Y278346D02*
D03*
X605118Y328740D02*
D03*
X616142Y272047D02*
D03*
X632494Y330709D02*
D03*
X647638Y330709D02*
D03*
X443505Y338742D02*
D03*
X463816Y338742D02*
D03*
X494252Y338986D02*
D03*
X537401Y395669D02*
D03*
X608256Y359421D02*
D03*
X526575Y395669D02*
D03*
D94*
X228450Y309412D02*
D03*
X230650Y303412D02*
D03*
X238932Y309462D02*
D03*
X241132Y303462D02*
D03*
D96*
X264941Y386494D02*
D03*
X258941Y384294D02*
D03*
Y375511D02*
D03*
X264941Y377711D02*
D03*
D104*
X410118Y193898D02*
D03*
X218819Y409685D02*
D03*
X287008D02*
D03*
D105*
X420118Y193898D02*
D03*
X430118D02*
D03*
X18260Y240832D02*
D03*
X18260Y265873D02*
D03*
Y275873D02*
D03*
X18260Y311351D02*
D03*
Y301351D02*
D03*
X185275Y319961D02*
D03*
X175276Y219961D02*
D03*
X185275Y309961D02*
D03*
Y219961D02*
D03*
Y249961D02*
D03*
X175276D02*
D03*
X185275Y259961D02*
D03*
X175276D02*
D03*
X185275Y279961D02*
D03*
X175276D02*
D03*
X185275Y329961D02*
D03*
X175276D02*
D03*
X185275Y349961D02*
D03*
X175276D02*
D03*
X185275Y369961D02*
D03*
X175276D02*
D03*
X185275Y389961D02*
D03*
X175276D02*
D03*
X185275Y399961D02*
D03*
X175276D02*
D03*
X185275Y409961D02*
D03*
X175276Y379961D02*
D03*
X185275D02*
D03*
X175276Y359961D02*
D03*
X185275D02*
D03*
X175276Y339961D02*
D03*
X185275D02*
D03*
X175276Y319961D02*
D03*
Y309961D02*
D03*
Y299961D02*
D03*
X185275D02*
D03*
X175276Y289961D02*
D03*
X185275D02*
D03*
X175276Y269961D02*
D03*
X185275D02*
D03*
X175276Y239961D02*
D03*
Y229961D02*
D03*
X185275Y239961D02*
D03*
Y229961D02*
D03*
X258819Y409685D02*
D03*
X238819Y409685D02*
D03*
X228819D02*
D03*
X248819D02*
D03*
X327008Y409685D02*
D03*
X307008D02*
D03*
X297008D02*
D03*
X317008D02*
D03*
X415276Y219961D02*
D03*
X425276D02*
D03*
Y249961D02*
D03*
X415276D02*
D03*
X425276Y259961D02*
D03*
X415276D02*
D03*
X425276Y279961D02*
D03*
X415276D02*
D03*
X425276Y329961D02*
D03*
X415276D02*
D03*
X425276Y349961D02*
D03*
X415276D02*
D03*
X425276Y369961D02*
D03*
X415276D02*
D03*
X425276Y389961D02*
D03*
X415276D02*
D03*
X425276Y399961D02*
D03*
X415276D02*
D03*
X425276Y409961D02*
D03*
X415276Y379961D02*
D03*
X425276D02*
D03*
X415276Y359961D02*
D03*
X425276D02*
D03*
X415276Y339961D02*
D03*
X425276D02*
D03*
X415276Y319961D02*
D03*
X425276D02*
D03*
X415276Y309961D02*
D03*
X425276D02*
D03*
X415276Y299961D02*
D03*
X425276D02*
D03*
X415276Y289961D02*
D03*
X425276D02*
D03*
X415276Y269961D02*
D03*
X425276D02*
D03*
X415276Y239961D02*
D03*
Y229961D02*
D03*
X425276Y239961D02*
D03*
Y229961D02*
D03*
D106*
X34449Y39370D02*
D03*
X63976D02*
D03*
X102362Y68898D02*
D03*
Y9843D02*
D03*
X217520Y34297D02*
D03*
X247047D02*
D03*
X291338Y68898D02*
D03*
Y9843D02*
D03*
X406496Y33678D02*
D03*
X436024D02*
D03*
X480315Y68898D02*
D03*
Y9843D02*
D03*
X146653Y35433D02*
D03*
X176181D02*
D03*
X335630Y33678D02*
D03*
X365158D02*
D03*
X524606Y35433D02*
D03*
X554134D02*
D03*
D107*
X11024Y11023D02*
D03*
X657480Y11811D02*
D03*
X651575Y387795D02*
D03*
X51181Y368110D02*
D03*
D108*
X23622Y98425D02*
D03*
X68898D02*
D03*
X118110D02*
D03*
X163386D02*
D03*
X212598D02*
D03*
X257874D02*
D03*
X307086D02*
D03*
X352362D02*
D03*
X446850D02*
D03*
X401575D02*
D03*
X496063D02*
D03*
X541339D02*
D03*
D109*
X33622D02*
D03*
X43622D02*
D03*
X88898D02*
D03*
X78898D02*
D03*
X128110D02*
D03*
X138110D02*
D03*
X183386D02*
D03*
X173386D02*
D03*
X222598D02*
D03*
X232598D02*
D03*
X277874D02*
D03*
X267874D02*
D03*
X317087D02*
D03*
X327086D02*
D03*
X372362D02*
D03*
X362362D02*
D03*
X466850D02*
D03*
X456850D02*
D03*
X411575D02*
D03*
X421575D02*
D03*
X506063D02*
D03*
X516063D02*
D03*
X561339D02*
D03*
X551339D02*
D03*
D110*
X102362Y157480D02*
D03*
X291338D02*
D03*
X480315D02*
D03*
D111*
X18260Y230832D02*
D03*
X18260Y255873D02*
D03*
X18260Y291351D02*
D03*
X175276Y409961D02*
D03*
X415276D02*
D03*
D112*
X102362Y220472D02*
D03*
X98425Y224410D02*
D03*
X106299D02*
D03*
Y216535D02*
D03*
X98425D02*
D03*
X287402D02*
D03*
X295276D02*
D03*
Y224410D02*
D03*
X287402D02*
D03*
X291339Y220472D02*
D03*
X480315D02*
D03*
X476378Y224410D02*
D03*
X484252D02*
D03*
Y216535D02*
D03*
X476378D02*
D03*
D113*
X588505Y362205D02*
D03*
X517794D02*
D03*
D114*
X524865Y340991D02*
D03*
X581434D02*
D03*
D115*
X560221Y390489D02*
D03*
X546078D02*
D03*
X553150Y397560D02*
D03*
X546078Y333920D02*
D03*
X560221D02*
D03*
X553150Y326849D02*
D03*
D116*
X633859Y112626D02*
D03*
Y104752D02*
D03*
Y96878D02*
D03*
X641733D02*
D03*
Y104752D02*
D03*
Y112626D02*
D03*
X649607D02*
D03*
Y104752D02*
D03*
Y96878D02*
D03*
X657481D02*
D03*
Y104752D02*
D03*
Y112626D02*
D03*
X657480Y181102D02*
D03*
Y173228D02*
D03*
Y165354D02*
D03*
Y157480D02*
D03*
Y149606D02*
D03*
X649606D02*
D03*
Y157480D02*
D03*
Y165354D02*
D03*
Y173228D02*
D03*
Y181102D02*
D03*
X641732D02*
D03*
Y173228D02*
D03*
Y165354D02*
D03*
Y157480D02*
D03*
Y149606D02*
D03*
X633858D02*
D03*
Y157480D02*
D03*
Y165354D02*
D03*
Y173228D02*
D03*
Y181102D02*
D03*
D117*
X655512Y260000D02*
D03*
X608268D02*
D03*
D118*
X467717Y382677D02*
D03*
X483307D02*
D03*
X498898D02*
D03*
D119*
X452126D02*
D03*
D121*
X112047Y361700D02*
D03*
X223228Y384646D02*
D03*
X224100Y329961D02*
D03*
X66929Y303181D02*
D03*
X82677Y303150D02*
D03*
X95550Y362205D02*
D03*
D123*
X102362Y220472D02*
D03*
X291339D02*
D03*
X480315D02*
D03*
D124*
X109862Y209744D02*
D03*
X104862D02*
D03*
X99862D02*
D03*
X94862D02*
D03*
X109862Y231201D02*
D03*
X104862D02*
D03*
X99862D02*
D03*
X94862D02*
D03*
X283839D02*
D03*
X288839D02*
D03*
X293839D02*
D03*
X298839D02*
D03*
X283839Y209744D02*
D03*
X288839D02*
D03*
X293839D02*
D03*
X298839D02*
D03*
X487815D02*
D03*
X482815D02*
D03*
X477815D02*
D03*
X472815D02*
D03*
X487815Y231201D02*
D03*
X482815D02*
D03*
X477815D02*
D03*
X472815D02*
D03*
D125*
X623081Y349900D02*
D03*
Y353641D02*
D03*
Y357381D02*
D03*
X633908D02*
D03*
Y353641D02*
D03*
Y349900D02*
D03*
D126*
X584646Y70866D02*
D03*
X568898D02*
D03*
X203126Y70866D02*
D03*
X187378D02*
D03*
X376665Y70866D02*
D03*
X392413D02*
D03*
D127*
X589322D02*
D03*
X564222D02*
D03*
X207802Y70866D02*
D03*
X182702D02*
D03*
X371989Y70866D02*
D03*
X397089D02*
D03*
D128*
X621654Y196850D02*
D03*
Y207874D02*
D03*
X626378Y305906D02*
D03*
Y294882D02*
D03*
D129*
X536220Y309432D02*
D03*
X532480Y301558D02*
D03*
X539961D02*
D03*
X542207Y172417D02*
D03*
X538467Y164543D02*
D03*
X545947D02*
D03*
X180906Y173228D02*
D03*
X173425D02*
D03*
X177165Y181102D02*
D03*
X363289Y180875D02*
D03*
X359549Y173001D02*
D03*
X367029D02*
D03*
D130*
X576398Y268482D02*
D03*
X563602Y262577D02*
D03*
X576398D02*
D03*
Y254703D02*
D03*
Y256671D02*
D03*
Y258640D02*
D03*
Y260608D02*
D03*
Y264545D02*
D03*
Y266514D02*
D03*
X563602Y268482D02*
D03*
Y266514D02*
D03*
Y264545D02*
D03*
Y260608D02*
D03*
Y258640D02*
D03*
Y256671D02*
D03*
Y254703D02*
D03*
D131*
X570000Y261593D02*
D03*
D132*
X567047Y252833D02*
D03*
X572953D02*
D03*
Y270352D02*
D03*
X567047D02*
D03*
D133*
X551240Y148872D02*
D03*
Y140998D02*
D03*
Y142967D02*
D03*
Y144935D02*
D03*
Y146904D02*
D03*
X568760Y140998D02*
D03*
Y142967D02*
D03*
Y144935D02*
D03*
Y146904D02*
D03*
Y148872D02*
D03*
X179921Y161417D02*
D03*
X197441D02*
D03*
Y159449D02*
D03*
Y157480D02*
D03*
Y155512D02*
D03*
Y153543D02*
D03*
X179921Y159449D02*
D03*
Y157480D02*
D03*
Y155512D02*
D03*
Y153543D02*
D03*
X366340Y161417D02*
D03*
X383860D02*
D03*
Y159449D02*
D03*
Y157480D02*
D03*
Y155512D02*
D03*
Y153543D02*
D03*
X366340Y159449D02*
D03*
Y157480D02*
D03*
Y155512D02*
D03*
Y153543D02*
D03*
D134*
X112047Y368393D02*
D03*
X66929Y296488D02*
D03*
X82677Y296457D02*
D03*
X95550Y368898D02*
D03*
D135*
X285370Y341375D02*
D03*
Y336375D02*
D03*
Y331375D02*
D03*
Y326375D02*
D03*
Y321375D02*
D03*
Y316375D02*
D03*
Y311375D02*
D03*
X306630D02*
D03*
Y316375D02*
D03*
Y321375D02*
D03*
Y326375D02*
D03*
Y336375D02*
D03*
Y341375D02*
D03*
Y331375D02*
D03*
D136*
X216535Y384646D02*
D03*
X217407Y329961D02*
D03*
D137*
X223733Y343026D02*
D03*
X215888D02*
D03*
M02*
