G04*
G04 #@! TF.GenerationSoftware,Altium Limited,Altium Designer,20.2.6 (244)*
G04*
G04 Layer_Color=32768*
%FSLAX24Y24*%
%MOIN*%
G70*
G04*
G04 #@! TF.SameCoordinates,10E2E559-7701-499E-A428-1A66D90B70A8*
G04*
G04*
G04 #@! TF.FilePolarity,Positive*
G04*
G01*
G75*
%ADD12C,0.0060*%
%ADD13C,0.0100*%
%ADD18C,0.0039*%
D12*
X28418Y56933D02*
X28218Y56833D01*
X28018Y56633D01*
Y56433D01*
X28118Y56333D01*
X28318D01*
X28418Y56433D01*
Y56533D01*
X28318Y56633D01*
X28018D01*
X28618Y56833D02*
X28718Y56933D01*
X28918D01*
X29018Y56833D01*
Y56433D01*
X28918Y56333D01*
X28718D01*
X28618Y56433D01*
Y56833D01*
X29218Y56333D02*
Y56433D01*
X29318D01*
Y56333D01*
X29218D01*
X29717Y56433D02*
X29817Y56333D01*
X30017D01*
X30117Y56433D01*
Y56833D01*
X30017Y56933D01*
X29817D01*
X29717Y56833D01*
Y56733D01*
X29817Y56633D01*
X30117D01*
X30717Y56933D02*
X30517Y56833D01*
X30317Y56633D01*
Y56433D01*
X30417Y56333D01*
X30617D01*
X30717Y56433D01*
Y56533D01*
X30617Y56633D01*
X30317D01*
X77132Y19500D02*
Y19700D01*
Y19600D01*
X76532D01*
X76632Y19500D01*
Y20000D02*
X76532Y20100D01*
Y20300D01*
X76632Y20400D01*
X77032D01*
X77132Y20300D01*
Y20100D01*
X77032Y20000D01*
X76632D01*
Y20600D02*
X76532Y20700D01*
Y20900D01*
X76632Y21000D01*
X76732D01*
X76832Y20900D01*
X76932Y21000D01*
X77032D01*
X77132Y20900D01*
Y20700D01*
X77032Y20600D01*
X76932D01*
X76832Y20700D01*
X76732Y20600D01*
X76632D01*
X76832Y20700D02*
Y20900D01*
X77132Y21200D02*
X77032D01*
Y21300D01*
X77132D01*
Y21200D01*
X76632Y21700D02*
X76532Y21800D01*
Y22000D01*
X76632Y22100D01*
X77032D01*
X77132Y22000D01*
Y21800D01*
X77032Y21700D01*
X76632D01*
Y22299D02*
X76532Y22399D01*
Y22599D01*
X76632Y22699D01*
X77032D01*
X77132Y22599D01*
Y22399D01*
X77032Y22299D01*
X76632D01*
X31705Y-3903D02*
X31905D01*
X31805D01*
Y-3303D01*
X31705Y-3403D01*
X32205Y-3303D02*
X32605D01*
Y-3403D01*
X32205Y-3803D01*
Y-3903D01*
X32805Y-3403D02*
X32905Y-3303D01*
X33105D01*
X33205Y-3403D01*
Y-3803D01*
X33105Y-3903D01*
X32905D01*
X32805Y-3803D01*
Y-3403D01*
X33405Y-3903D02*
Y-3803D01*
X33505D01*
Y-3903D01*
X33405D01*
X33904Y-3403D02*
X34004Y-3303D01*
X34204D01*
X34304Y-3403D01*
Y-3803D01*
X34204Y-3903D01*
X34004D01*
X33904Y-3803D01*
Y-3403D01*
X34504D02*
X34604Y-3303D01*
X34804D01*
X34904Y-3403D01*
Y-3803D01*
X34804Y-3903D01*
X34604D01*
X34504Y-3803D01*
Y-3403D01*
X-3683Y15223D02*
X-3783Y15323D01*
Y15523D01*
X-3683Y15623D01*
X-3583D01*
X-3483Y15523D01*
X-3383Y15623D01*
X-3283D01*
X-3183Y15523D01*
Y15323D01*
X-3283Y15223D01*
X-3383D01*
X-3483Y15323D01*
X-3583Y15223D01*
X-3683D01*
X-3483Y15323D02*
Y15523D01*
X-3783Y16222D02*
Y15823D01*
X-3483D01*
X-3583Y16022D01*
Y16122D01*
X-3483Y16222D01*
X-3283D01*
X-3183Y16122D01*
Y15923D01*
X-3283Y15823D01*
X-3183Y16422D02*
X-3283D01*
Y16522D01*
X-3183D01*
Y16422D01*
X-3683Y16922D02*
X-3783Y17022D01*
Y17222D01*
X-3683Y17322D01*
X-3283D01*
X-3183Y17222D01*
Y17022D01*
X-3283Y16922D01*
X-3683D01*
Y17522D02*
X-3783Y17622D01*
Y17822D01*
X-3683Y17922D01*
X-3283D01*
X-3183Y17822D01*
Y17622D01*
X-3283Y17522D01*
X-3683D01*
D13*
X0Y0D02*
Y33465D01*
X66929Y0D02*
Y40551D01*
X29528Y0D02*
Y42520D01*
X44095D02*
X46063Y40551D01*
X12992D02*
X14961Y42520D01*
X0Y33465D02*
X7087Y40551D01*
X12992D01*
X59055Y0D02*
X66929D01*
X46063Y40551D02*
X51968D01*
X66929D01*
X0Y0D02*
X59055D01*
X14961Y42520D02*
X44095D01*
X17528Y56693D02*
X18128Y56893D01*
X17528Y56693D02*
X18128Y56493D01*
X40928D02*
X41528Y56693D01*
X40928Y56893D02*
X41528Y56693D01*
X17528D02*
X27858D01*
X30877D02*
X41528D01*
X17528Y41411D02*
Y56793D01*
X41528Y41411D02*
Y56793D01*
X76772Y42520D02*
X76972Y41920D01*
X76572D02*
X76772Y42520D01*
X76572Y600D02*
X76772Y0D01*
X76972Y600D01*
X76772Y22859D02*
Y42520D01*
Y0D02*
Y19340D01*
X44244Y42520D02*
X76872D01*
X67079Y0D02*
X76872D01*
X0Y-3543D02*
X600Y-3343D01*
X0Y-3543D02*
X600Y-3743D01*
X66329D02*
X66929Y-3543D01*
X66329Y-3343D02*
X66929Y-3543D01*
X0D02*
X31545D01*
X35064D02*
X66929D01*
X0Y-3643D02*
Y-150D01*
X66929Y-3643D02*
Y-150D01*
X-3543Y33465D02*
X-3343Y32865D01*
X-3743D02*
X-3543Y33465D01*
X-3743Y600D02*
X-3543Y0D01*
X-3343Y600D01*
X-3543Y18082D02*
Y33465D01*
Y0D02*
Y15063D01*
X-3643Y33465D02*
X0D01*
X-3643Y0D02*
X0D01*
X0Y0D02*
Y33465D01*
X66929Y0D02*
Y40551D01*
X44094Y42520D02*
X46063Y40551D01*
X12992D02*
X14961Y42520D01*
X0Y33465D02*
X7087Y40551D01*
X12992D01*
X46063D02*
X66929D01*
X0Y0D02*
X66929D01*
X14961Y42520D02*
X44094D01*
X10924Y21947D02*
X11252D01*
X11317Y21882D01*
Y21750D01*
X11252Y21685D01*
X10924D01*
X11317Y21291D02*
Y21554D01*
X11055Y21291D01*
X10989D01*
X10924Y21357D01*
Y21488D01*
X10989Y21554D01*
X29821Y21947D02*
X30149D01*
X30215Y21882D01*
Y21750D01*
X30149Y21685D01*
X29821D01*
X29887Y21554D02*
X29821Y21488D01*
Y21357D01*
X29887Y21291D01*
X29953D01*
X30018Y21357D01*
Y21422D01*
Y21357D01*
X30084Y21291D01*
X30149D01*
X30215Y21357D01*
Y21488D01*
X30149Y21554D01*
X48719Y21947D02*
X49047D01*
X49113Y21882D01*
Y21750D01*
X49047Y21685D01*
X48719D01*
X49113Y21357D02*
X48719D01*
X48916Y21554D01*
Y21291D01*
D18*
X13157Y33857D02*
X12895D01*
X12842Y33804D01*
Y33699D01*
X12895Y33647D01*
X13157D01*
X12842Y33542D02*
Y33437D01*
Y33489D01*
X13157D01*
X13105Y33542D01*
Y33279D02*
X13157Y33227D01*
Y33122D01*
X13105Y33070D01*
X12895D01*
X12842Y33122D01*
Y33227D01*
X12895Y33279D01*
X13105D01*
M02*
