G04*
G04 #@! TF.GenerationSoftware,Altium Limited,Altium Designer,20.1.14 (287)*
G04*
G04 Layer_Color=65535*
%FSLAX25Y25*%
%MOIN*%
G70*
G04*
G04 #@! TF.SameCoordinates,F236638D-4B1B-45E3-9A0F-FA1DF93A8DFF*
G04*
G04*
G04 #@! TF.FilePolarity,Positive*
G04*
G01*
G75*
%ADD10C,0.00984*%
%ADD11C,0.01968*%
%ADD12C,0.01000*%
%ADD13C,0.00600*%
%ADD14C,0.00787*%
%ADD15C,0.01200*%
%ADD16C,0.00800*%
%ADD17C,0.00472*%
D10*
X37269Y185401D02*
X36531Y185827D01*
Y184975D01*
X37269Y185401D01*
X45909Y185401D02*
X45171Y185827D01*
Y184975D01*
X45909Y185401D01*
X597736Y120236D02*
X596998Y120662D01*
Y119810D01*
X597736Y120236D01*
X240556Y185728D02*
X239818Y186154D01*
Y185302D01*
X240556Y185728D01*
X420437Y185729D02*
X419699Y186155D01*
Y185302D01*
X420437Y185729D01*
X233090Y185728D02*
X232352Y186154D01*
Y185302D01*
X233090Y185728D01*
X469390Y379134D02*
X468652Y379560D01*
Y378708D01*
X469390Y379134D01*
X27087Y168283D02*
X26348Y168710D01*
Y167857D01*
X27087Y168283D01*
X597736Y171417D02*
X596998Y171844D01*
Y170991D01*
X597736Y171417D01*
X428642Y185728D02*
X427904Y186155D01*
Y185302D01*
X428642Y185728D01*
X86229Y191148D02*
X85490Y191574D01*
Y190722D01*
X86229Y191148D01*
X463091Y191043D02*
X462352Y191470D01*
Y190617D01*
X463091Y191043D01*
X274114Y191043D02*
X273376Y191470D01*
Y190617D01*
X274114Y191043D01*
D11*
X674146Y206000D02*
X673903Y206986D01*
X673230Y207746D01*
X672280Y208106D01*
X671273Y207983D01*
X670437Y207407D01*
X669965Y206508D01*
Y205492D01*
X670437Y204593D01*
X671273Y204016D01*
X672280Y203894D01*
X673230Y204254D01*
X673903Y205014D01*
X674146Y206000D01*
D12*
X581525Y78475D02*
Y222879D01*
Y78475D02*
X593071Y66929D01*
X581525Y222879D02*
Y226378D01*
X577903Y230000D02*
X581525Y226378D01*
X541205Y230000D02*
X577903D01*
X529591Y241614D02*
X541205Y230000D01*
X529591Y241614D02*
Y243762D01*
X467245Y309961D02*
X520000D01*
Y310000D01*
Y309961D02*
X529591Y300370D01*
Y241614D02*
Y300370D01*
X593071Y66929D02*
X606299D01*
X460630Y316575D02*
Y405512D01*
Y316575D02*
X467245Y309961D01*
X564286Y299828D02*
X581018D01*
X564286Y312623D02*
X581018D01*
X606299Y66929D02*
X669291D01*
X663525Y194500D02*
Y207000D01*
X612025Y194500D02*
X663525D01*
X612025D02*
Y207000D01*
Y233000D02*
Y245500D01*
X663025D01*
Y233500D02*
Y245500D01*
X123117Y188882D02*
X125117D01*
X124117D01*
Y185883D01*
X126116D02*
Y188882D01*
X127616D01*
X128116Y188382D01*
Y187382D01*
X127616Y186883D01*
X126116D01*
X129115Y185883D02*
X130115D01*
X129615D01*
Y188882D01*
X129115Y188382D01*
X133614Y185883D02*
X131614D01*
X133614Y187882D01*
Y188382D01*
X133114Y188882D01*
X132114D01*
X131614Y188382D01*
X553745Y184942D02*
X555744D01*
X554744D01*
Y181943D01*
X556744D02*
Y184942D01*
X558243D01*
X558743Y184442D01*
Y183442D01*
X558243Y182942D01*
X556744D01*
X561742Y184942D02*
X559743D01*
Y183442D01*
X560742Y183942D01*
X561242D01*
X561742Y183442D01*
Y182443D01*
X561242Y181943D01*
X560243D01*
X559743Y182443D01*
X562742Y184942D02*
X564741D01*
Y184442D01*
X562742Y182443D01*
Y181943D01*
X599299Y136500D02*
Y138499D01*
X598800Y138999D01*
X597800D01*
X597300Y138499D01*
Y136500D01*
X597800Y136000D01*
X598800D01*
X598300Y137000D02*
X599299Y136000D01*
X598800D02*
X599299Y136500D01*
X600299Y136000D02*
X601299D01*
X600799D01*
Y138999D01*
X600299Y138499D01*
X602798D02*
X603298Y138999D01*
X604298D01*
X604798Y138499D01*
Y137999D01*
X604298Y137499D01*
X603798D01*
X604298D01*
X604798Y137000D01*
Y136500D01*
X604298Y136000D01*
X603298D01*
X602798Y136500D01*
X282309Y281599D02*
X284309D01*
X283309D01*
Y278601D01*
X285308D02*
Y281599D01*
X286808D01*
X287308Y281100D01*
Y280100D01*
X286808Y279600D01*
X285308D01*
X290307Y281599D02*
X289307Y281100D01*
X288307Y280100D01*
Y279100D01*
X288807Y278601D01*
X289807D01*
X290307Y279100D01*
Y279600D01*
X289807Y280100D01*
X288307D01*
X291306Y281100D02*
X291806Y281599D01*
X292806D01*
X293306Y281100D01*
Y279100D01*
X292806Y278601D01*
X291806D01*
X291306Y279100D01*
Y281100D01*
X348894Y297651D02*
Y299651D01*
Y298651D01*
X351893D01*
Y300650D02*
X348894D01*
Y302150D01*
X349394Y302650D01*
X350394D01*
X350893Y302150D01*
Y300650D01*
X348894Y305649D02*
Y303649D01*
X350394D01*
X349894Y304649D01*
Y305149D01*
X350394Y305649D01*
X351393D01*
X351893Y305149D01*
Y304149D01*
X351393Y303649D01*
Y306648D02*
X351893Y307148D01*
Y308148D01*
X351393Y308648D01*
X349394D01*
X348894Y308148D01*
Y307148D01*
X349394Y306648D01*
X349894D01*
X350394Y307148D01*
Y308648D01*
X557220Y164837D02*
Y166837D01*
Y165837D01*
X560218D01*
Y167836D02*
X557220D01*
Y169336D01*
X557719Y169836D01*
X558719D01*
X559219Y169336D01*
Y167836D01*
X557220Y172835D02*
Y170835D01*
X558719D01*
X558219Y171835D01*
Y172335D01*
X558719Y172835D01*
X559719D01*
X560218Y172335D01*
Y171335D01*
X559719Y170835D01*
X557719Y173834D02*
X557220Y174334D01*
Y175334D01*
X557719Y175834D01*
X558219D01*
X558719Y175334D01*
X559219Y175834D01*
X559719D01*
X560218Y175334D01*
Y174334D01*
X559719Y173834D01*
X559219D01*
X558719Y174334D01*
X558219Y173834D01*
X557719D01*
X558719Y174334D02*
Y175334D01*
X514563Y150898D02*
Y152897D01*
Y151898D01*
X517562D01*
Y153897D02*
X514563D01*
Y155396D01*
X515063Y155896D01*
X516063D01*
X516563Y155396D01*
Y153897D01*
X514563Y158895D02*
Y156896D01*
X516063D01*
X515563Y157896D01*
Y158396D01*
X516063Y158895D01*
X517063D01*
X517562Y158396D01*
Y157396D01*
X517063Y156896D01*
X514563Y161894D02*
X515063Y160895D01*
X516063Y159895D01*
X517063D01*
X517562Y160395D01*
Y161395D01*
X517063Y161894D01*
X516563D01*
X516063Y161395D01*
Y159895D01*
X576641Y177573D02*
Y179572D01*
Y178572D01*
X579640D01*
Y180572D02*
X576641D01*
Y182071D01*
X577141Y182571D01*
X578140D01*
X578640Y182071D01*
Y180572D01*
X576641Y185570D02*
Y183571D01*
X578140D01*
X577641Y184570D01*
Y185070D01*
X578140Y185570D01*
X579140D01*
X579640Y185070D01*
Y184071D01*
X579140Y183571D01*
X576641Y188569D02*
Y186570D01*
X578140D01*
X577641Y187569D01*
Y188069D01*
X578140Y188569D01*
X579140D01*
X579640Y188069D01*
Y187070D01*
X579140Y186570D01*
X514502Y131500D02*
X516501D01*
X515501D01*
Y128500D01*
X517501D02*
Y131500D01*
X519000D01*
X519500Y131000D01*
Y130000D01*
X519000Y129500D01*
X517501D01*
X522499Y131500D02*
X520500D01*
Y130000D01*
X521499Y130500D01*
X521999D01*
X522499Y130000D01*
Y129000D01*
X521999Y128500D01*
X521000D01*
X520500Y129000D01*
X524998Y128500D02*
Y131500D01*
X523499Y130000D01*
X525498D01*
X539777Y174285D02*
X541777D01*
X540777D01*
Y171286D01*
X542776D02*
Y174285D01*
X544276D01*
X544776Y173785D01*
Y172785D01*
X544276Y172285D01*
X542776D01*
X547775Y174285D02*
X545775D01*
Y172785D01*
X546775Y173285D01*
X547275D01*
X547775Y172785D01*
Y171786D01*
X547275Y171286D01*
X546275D01*
X545775Y171786D01*
X548774Y173785D02*
X549274Y174285D01*
X550274D01*
X550774Y173785D01*
Y173285D01*
X550274Y172785D01*
X549774D01*
X550274D01*
X550774Y172285D01*
Y171786D01*
X550274Y171286D01*
X549274D01*
X548774Y171786D01*
X564745Y134127D02*
X562746D01*
X563745D01*
Y137126D01*
X561746D02*
Y134127D01*
X560247D01*
X559747Y134627D01*
Y135626D01*
X560247Y136126D01*
X561746D01*
X556748Y134127D02*
X558747D01*
Y135626D01*
X557747Y135126D01*
X557247D01*
X556748Y135626D01*
Y136626D01*
X557247Y137126D01*
X558247D01*
X558747Y136626D01*
X553749Y137126D02*
X555748D01*
X553749Y135126D01*
Y134627D01*
X554249Y134127D01*
X555248D01*
X555748Y134627D01*
X556377Y119817D02*
Y121817D01*
Y120817D01*
X559376D01*
Y122816D02*
X556377D01*
Y124316D01*
X556877Y124815D01*
X557877D01*
X558377Y124316D01*
Y122816D01*
X556377Y127815D02*
Y125815D01*
X557877D01*
X557377Y126815D01*
Y127315D01*
X557877Y127815D01*
X558877D01*
X559376Y127315D01*
Y126315D01*
X558877Y125815D01*
X559376Y128814D02*
Y129814D01*
Y129314D01*
X556377D01*
X556877Y128814D01*
X397657Y128297D02*
Y130296D01*
Y129297D01*
X400656D01*
Y131296D02*
X397657D01*
Y132796D01*
X398157Y133295D01*
X399157D01*
X399657Y132796D01*
Y131296D01*
X397657Y136294D02*
Y134295D01*
X399157D01*
X398657Y135295D01*
Y135795D01*
X399157Y136294D01*
X400156D01*
X400656Y135795D01*
Y134795D01*
X400156Y134295D01*
X398157Y137294D02*
X397657Y137794D01*
Y138794D01*
X398157Y139293D01*
X400156D01*
X400656Y138794D01*
Y137794D01*
X400156Y137294D01*
X398157D01*
X338970Y128360D02*
Y130359D01*
Y129360D01*
X341969D01*
Y131359D02*
X338970D01*
Y132859D01*
X339470Y133358D01*
X340470D01*
X340970Y132859D01*
Y131359D01*
X341969Y135858D02*
X338970D01*
X340470Y134358D01*
Y136357D01*
X341470Y137357D02*
X341969Y137857D01*
Y138857D01*
X341470Y139357D01*
X339470D01*
X338970Y138857D01*
Y137857D01*
X339470Y137357D01*
X339970D01*
X340470Y137857D01*
Y139357D01*
X321335Y157098D02*
Y159097D01*
Y158098D01*
X324334D01*
Y160097D02*
X321335D01*
Y161596D01*
X321835Y162096D01*
X322835D01*
X323335Y161596D01*
Y160097D01*
X324334Y164595D02*
X321335D01*
X322835Y163096D01*
Y165095D01*
X321835Y166095D02*
X321335Y166595D01*
Y167595D01*
X321835Y168094D01*
X322335D01*
X322835Y167595D01*
X323335Y168094D01*
X323834D01*
X324334Y167595D01*
Y166595D01*
X323834Y166095D01*
X323335D01*
X322835Y166595D01*
X322335Y166095D01*
X321835D01*
X322835Y166595D02*
Y167595D01*
X395828Y184570D02*
X397828D01*
X396828D01*
Y181571D01*
X398827D02*
Y184570D01*
X400327D01*
X400827Y184071D01*
Y183071D01*
X400327Y182571D01*
X398827D01*
X403326Y181571D02*
Y184570D01*
X401826Y183071D01*
X403826D01*
X404825Y184570D02*
X406825D01*
Y184071D01*
X404825Y182071D01*
Y181571D01*
X345848Y128360D02*
Y130359D01*
Y129360D01*
X348848D01*
Y131359D02*
X345848D01*
Y132859D01*
X346348Y133358D01*
X347348D01*
X347848Y132859D01*
Y131359D01*
X348848Y135858D02*
X345848D01*
X347348Y134358D01*
Y136357D01*
X345848Y139357D02*
X346348Y138357D01*
X347348Y137357D01*
X348348D01*
X348848Y137857D01*
Y138857D01*
X348348Y139357D01*
X347848D01*
X347348Y138857D01*
Y137357D01*
X381413Y184570D02*
X383412D01*
X382412D01*
Y181571D01*
X384412D02*
Y184570D01*
X385911D01*
X386411Y184071D01*
Y183071D01*
X385911Y182571D01*
X384412D01*
X388910Y181571D02*
Y184570D01*
X387411Y183071D01*
X389410D01*
X392409Y184570D02*
X390410D01*
Y183071D01*
X391409Y183571D01*
X391909D01*
X392409Y183071D01*
Y182071D01*
X391909Y181571D01*
X390910D01*
X390410Y182071D01*
X385411Y128360D02*
Y130359D01*
Y129360D01*
X388410D01*
Y131359D02*
X385411D01*
Y132859D01*
X385911Y133358D01*
X386911D01*
X387411Y132859D01*
Y131359D01*
X388410Y135858D02*
X385411D01*
X386911Y134358D01*
Y136357D01*
X388410Y138857D02*
X385411D01*
X386911Y137357D01*
Y139357D01*
X356707Y139295D02*
X358706D01*
X357706D01*
Y136296D01*
X359705D02*
Y139295D01*
X361205D01*
X361705Y138795D01*
Y137795D01*
X361205Y137295D01*
X359705D01*
X364204Y136296D02*
Y139295D01*
X362705Y137795D01*
X364704D01*
X365704Y138795D02*
X366203Y139295D01*
X367203D01*
X367703Y138795D01*
Y138295D01*
X367203Y137795D01*
X366703D01*
X367203D01*
X367703Y137295D01*
Y136796D01*
X367203Y136296D01*
X366203D01*
X365704Y136796D01*
X213067Y128360D02*
Y130359D01*
Y129360D01*
X216066D01*
Y131359D02*
X213067D01*
Y132859D01*
X213567Y133358D01*
X214567D01*
X215067Y132859D01*
Y131359D01*
X216066Y135857D02*
X213067D01*
X214567Y134358D01*
Y136357D01*
X216066Y139356D02*
Y137357D01*
X214067Y139356D01*
X213567D01*
X213067Y138856D01*
Y137857D01*
X213567Y137357D01*
X151713Y130828D02*
Y132828D01*
Y131828D01*
X154712D01*
Y133827D02*
X151713D01*
Y135327D01*
X152213Y135827D01*
X153213D01*
X153713Y135327D01*
Y133827D01*
X154712Y138326D02*
X151713D01*
X153213Y136826D01*
Y138826D01*
X154712Y139825D02*
Y140825D01*
Y140325D01*
X151713D01*
X152213Y139825D01*
X142201Y168730D02*
Y170729D01*
Y169730D01*
X145200D01*
Y171729D02*
X142201D01*
Y173229D01*
X142701Y173729D01*
X143701D01*
X144201Y173229D01*
Y171729D01*
X145200Y176228D02*
X142201D01*
X143701Y174728D01*
Y176727D01*
X142701Y177727D02*
X142201Y178227D01*
Y179227D01*
X142701Y179727D01*
X144700D01*
X145200Y179227D01*
Y178227D01*
X144700Y177727D01*
X142701D01*
X209069Y186539D02*
X211068D01*
X210068D01*
Y183540D01*
X212068D02*
Y186539D01*
X213567D01*
X214067Y186039D01*
Y185039D01*
X213567Y184539D01*
X212068D01*
X215067Y186039D02*
X215567Y186539D01*
X216566D01*
X217066Y186039D01*
Y185539D01*
X216566Y185039D01*
X216066D01*
X216566D01*
X217066Y184539D01*
Y184040D01*
X216566Y183540D01*
X215567D01*
X215067Y184040D01*
X218066D02*
X218566Y183540D01*
X219565D01*
X220065Y184040D01*
Y186039D01*
X219565Y186539D01*
X218566D01*
X218066Y186039D01*
Y185539D01*
X218566Y185039D01*
X220065D01*
X162116Y141325D02*
Y139326D01*
Y140325D01*
X159117D01*
Y138326D02*
X162116D01*
Y136826D01*
X161616Y136327D01*
X160617D01*
X160117Y136826D01*
Y138326D01*
X161616Y135327D02*
X162116Y134827D01*
Y133827D01*
X161616Y133328D01*
X161117D01*
X160617Y133827D01*
Y134327D01*
Y133827D01*
X160117Y133328D01*
X159617D01*
X159117Y133827D01*
Y134827D01*
X159617Y135327D01*
X161616Y132328D02*
X162116Y131828D01*
Y130828D01*
X161616Y130329D01*
X161117D01*
X160617Y130828D01*
X160117Y130329D01*
X159617D01*
X159117Y130828D01*
Y131828D01*
X159617Y132328D01*
X160117D01*
X160617Y131828D01*
X161117Y132328D01*
X161616D01*
X160617Y131828D02*
Y130828D01*
X193911Y186539D02*
X195910D01*
X194911D01*
Y183540D01*
X196910D02*
Y186539D01*
X198410D01*
X198909Y186039D01*
Y185039D01*
X198410Y184539D01*
X196910D01*
X199909Y186039D02*
X200409Y186539D01*
X201409D01*
X201908Y186039D01*
Y185539D01*
X201409Y185039D01*
X200909D01*
X201409D01*
X201908Y184539D01*
Y184040D01*
X201409Y183540D01*
X200409D01*
X199909Y184040D01*
X202908Y186539D02*
X204907D01*
Y186039D01*
X202908Y184040D01*
Y183540D01*
X183478Y149137D02*
X185477D01*
X184478D01*
Y146138D01*
X186477D02*
Y149137D01*
X187977D01*
X188477Y148637D01*
Y147638D01*
X187977Y147138D01*
X186477D01*
X189476Y148637D02*
X189976Y149137D01*
X190976D01*
X191476Y148637D01*
Y148138D01*
X190976Y147638D01*
X190476D01*
X190976D01*
X191476Y147138D01*
Y146638D01*
X190976Y146138D01*
X189976D01*
X189476Y146638D01*
X194475Y149137D02*
X193475Y148637D01*
X192475Y147638D01*
Y146638D01*
X192975Y146138D01*
X193975D01*
X194475Y146638D01*
Y147138D01*
X193975Y147638D01*
X192475D01*
X173776Y128360D02*
Y130359D01*
Y129360D01*
X176775D01*
Y131359D02*
X173776D01*
Y132859D01*
X174276Y133358D01*
X175276D01*
X175775Y132859D01*
Y131359D01*
X174276Y134358D02*
X173776Y134858D01*
Y135858D01*
X174276Y136357D01*
X174776D01*
X175276Y135858D01*
Y135358D01*
Y135858D01*
X175775Y136357D01*
X176275D01*
X176775Y135858D01*
Y134858D01*
X176275Y134358D01*
X173776Y139357D02*
Y137357D01*
X175276D01*
X174776Y138357D01*
Y138857D01*
X175276Y139357D01*
X176275D01*
X176775Y138857D01*
Y137857D01*
X176275Y137357D01*
X508360Y204350D02*
X510359D01*
X509360D01*
Y201351D01*
X511359D02*
Y204350D01*
X512858D01*
X513358Y203850D01*
Y202850D01*
X512858Y202351D01*
X511359D01*
X514358Y203850D02*
X514858Y204350D01*
X515857D01*
X516357Y203850D01*
Y203350D01*
X515857Y202850D01*
X515357D01*
X515857D01*
X516357Y202351D01*
Y201851D01*
X515857Y201351D01*
X514858D01*
X514358Y201851D01*
X518856Y201351D02*
Y204350D01*
X517357Y202850D01*
X519356D01*
X432447Y192071D02*
X434446D01*
X433447D01*
Y189072D01*
X435446D02*
Y192071D01*
X436945D01*
X437445Y191571D01*
Y190571D01*
X436945Y190072D01*
X435446D01*
X438445Y191571D02*
X438945Y192071D01*
X439944D01*
X440444Y191571D01*
Y191071D01*
X439944Y190571D01*
X439444D01*
X439944D01*
X440444Y190072D01*
Y189572D01*
X439944Y189072D01*
X438945D01*
X438445Y189572D01*
X441444Y191571D02*
X441944Y192071D01*
X442943D01*
X443443Y191571D01*
Y191071D01*
X442943Y190571D01*
X442444D01*
X442943D01*
X443443Y190072D01*
Y189572D01*
X442943Y189072D01*
X441944D01*
X441444Y189572D01*
X479520Y260250D02*
Y262249D01*
Y261249D01*
X482519D01*
Y263249D02*
X479520D01*
Y264748D01*
X480020Y265248D01*
X481020D01*
X481520Y264748D01*
Y263249D01*
X480020Y266248D02*
X479520Y266748D01*
Y267747D01*
X480020Y268247D01*
X480520D01*
X481020Y267747D01*
Y267248D01*
Y267747D01*
X481520Y268247D01*
X482019D01*
X482519Y267747D01*
Y266748D01*
X482019Y266248D01*
X482519Y271246D02*
Y269247D01*
X480520Y271246D01*
X480020D01*
X479520Y270746D01*
Y269747D01*
X480020Y269247D01*
X452609Y252836D02*
Y254836D01*
Y253836D01*
X455608D01*
Y255835D02*
X452609D01*
Y257335D01*
X453109Y257835D01*
X454109D01*
X454609Y257335D01*
Y255835D01*
X453109Y258834D02*
X452609Y259334D01*
Y260334D01*
X453109Y260834D01*
X453609D01*
X454109Y260334D01*
Y259834D01*
Y260334D01*
X454609Y260834D01*
X455108D01*
X455608Y260334D01*
Y259334D01*
X455108Y258834D01*
X455608Y261833D02*
Y262833D01*
Y262333D01*
X452609D01*
X453109Y261833D01*
X499366Y191400D02*
X501366D01*
X500366D01*
Y188401D01*
X502365D02*
Y191400D01*
X503865D01*
X504365Y190901D01*
Y189901D01*
X503865Y189401D01*
X502365D01*
X505364Y190901D02*
X505864Y191400D01*
X506864D01*
X507364Y190901D01*
Y190401D01*
X506864Y189901D01*
X506364D01*
X506864D01*
X507364Y189401D01*
Y188901D01*
X506864Y188401D01*
X505864D01*
X505364Y188901D01*
X508363Y190901D02*
X508863Y191400D01*
X509863D01*
X510363Y190901D01*
Y188901D01*
X509863Y188401D01*
X508863D01*
X508363Y188901D01*
Y190901D01*
X508360Y251909D02*
X510359D01*
X509360D01*
Y248910D01*
X511359D02*
Y251909D01*
X512858D01*
X513358Y251409D01*
Y250410D01*
X512858Y249910D01*
X511359D01*
X516357Y248910D02*
X514358D01*
X516357Y250909D01*
Y251409D01*
X515857Y251909D01*
X514858D01*
X514358Y251409D01*
X517357Y249410D02*
X517857Y248910D01*
X518856D01*
X519356Y249410D01*
Y251409D01*
X518856Y251909D01*
X517857D01*
X517357Y251409D01*
Y250909D01*
X517857Y250410D01*
X519356D01*
X461944Y253396D02*
Y255395D01*
Y254395D01*
X464944D01*
Y256395D02*
X461944D01*
Y257894D01*
X462444Y258394D01*
X463444D01*
X463944Y257894D01*
Y256395D01*
X464944Y261393D02*
Y259394D01*
X462944Y261393D01*
X462444D01*
X461944Y260893D01*
Y259894D01*
X462444Y259394D01*
Y262393D02*
X461944Y262893D01*
Y263892D01*
X462444Y264392D01*
X462944D01*
X463444Y263892D01*
X463944Y264392D01*
X464444D01*
X464944Y263892D01*
Y262893D01*
X464444Y262393D01*
X463944D01*
X463444Y262893D01*
X462944Y262393D01*
X462444D01*
X463444Y262893D02*
Y263892D01*
X470941Y260250D02*
Y262249D01*
Y261249D01*
X473940D01*
Y263249D02*
X470941D01*
Y264748D01*
X471441Y265248D01*
X472441D01*
X472941Y264748D01*
Y263249D01*
X473940Y268247D02*
Y266248D01*
X471941Y268247D01*
X471441D01*
X470941Y267747D01*
Y266748D01*
X471441Y266248D01*
X470941Y269247D02*
Y271246D01*
X471441D01*
X473441Y269247D01*
X473940D01*
X441352Y208000D02*
X443352D01*
X442352D01*
Y205001D01*
X444351D02*
Y208000D01*
X445851D01*
X446351Y207500D01*
Y206500D01*
X445851Y206000D01*
X444351D01*
X449350Y205001D02*
X447350D01*
X449350Y207000D01*
Y207500D01*
X448850Y208000D01*
X447850D01*
X447350Y207500D01*
X452349Y208000D02*
X451349Y207500D01*
X450349Y206500D01*
Y205501D01*
X450849Y205001D01*
X451849D01*
X452349Y205501D01*
Y206000D01*
X451849Y206500D01*
X450349D01*
X319305Y204255D02*
X321304D01*
X320305D01*
Y201256D01*
X322304D02*
Y204255D01*
X323803D01*
X324303Y203756D01*
Y202756D01*
X323803Y202256D01*
X322304D01*
X327302Y201256D02*
X325303D01*
X327302Y203256D01*
Y203756D01*
X326802Y204255D01*
X325803D01*
X325303Y203756D01*
X330301Y204255D02*
X328302D01*
Y202756D01*
X329302Y203256D01*
X329802D01*
X330301Y202756D01*
Y201756D01*
X329802Y201256D01*
X328802D01*
X328302Y201756D01*
X257374Y173011D02*
Y175010D01*
Y174010D01*
X260373D01*
Y176010D02*
X257374D01*
Y177509D01*
X257874Y178009D01*
X258874D01*
X259374Y177509D01*
Y176010D01*
X260373Y181008D02*
Y179009D01*
X258374Y181008D01*
X257874D01*
X257374Y180508D01*
Y179509D01*
X257874Y179009D01*
X260373Y183507D02*
X257374D01*
X258874Y182008D01*
Y184007D01*
X289839Y262218D02*
Y264218D01*
Y263218D01*
X292838D01*
Y265217D02*
X289839D01*
Y266717D01*
X290339Y267217D01*
X291338D01*
X291838Y266717D01*
Y265217D01*
X292838Y270216D02*
Y268216D01*
X290839Y270216D01*
X290339D01*
X289839Y269716D01*
Y268716D01*
X290339Y268216D01*
Y271216D02*
X289839Y271715D01*
Y272715D01*
X290339Y273215D01*
X290839D01*
X291338Y272715D01*
Y272215D01*
Y272715D01*
X291838Y273215D01*
X292338D01*
X292838Y272715D01*
Y271715D01*
X292338Y271216D01*
X262524Y252376D02*
Y254375D01*
Y253376D01*
X265523D01*
Y255375D02*
X262524D01*
Y256874D01*
X263024Y257374D01*
X264023D01*
X264523Y256874D01*
Y255375D01*
X265523Y260373D02*
Y258374D01*
X263524Y260373D01*
X263024D01*
X262524Y259873D01*
Y258874D01*
X263024Y258374D01*
X265523Y263372D02*
Y261373D01*
X263524Y263372D01*
X263024D01*
X262524Y262872D01*
Y261873D01*
X263024Y261373D01*
X309899Y191930D02*
X311899D01*
X310899D01*
Y188931D01*
X312898D02*
Y191930D01*
X314398D01*
X314898Y191430D01*
Y190431D01*
X314398Y189931D01*
X312898D01*
X317897Y188931D02*
X315897D01*
X317897Y190930D01*
Y191430D01*
X317397Y191930D01*
X316397D01*
X315897Y191430D01*
X318896Y188931D02*
X319896D01*
X319396D01*
Y191930D01*
X318896Y191430D01*
X321388Y254897D02*
X323387D01*
X322387D01*
Y251898D01*
X324387D02*
Y254897D01*
X325886D01*
X326386Y254397D01*
Y253397D01*
X325886Y252897D01*
X324387D01*
X329385Y251898D02*
X327386D01*
X329385Y253897D01*
Y254397D01*
X328885Y254897D01*
X327886D01*
X327386Y254397D01*
X330385D02*
X330885Y254897D01*
X331884D01*
X332384Y254397D01*
Y252397D01*
X331884Y251898D01*
X330885D01*
X330385Y252397D01*
Y254397D01*
X270449Y252626D02*
Y254625D01*
Y253625D01*
X273448D01*
Y255625D02*
X270449D01*
Y257124D01*
X270949Y257624D01*
X271949D01*
X272449Y257124D01*
Y255625D01*
X273448Y258624D02*
Y259624D01*
Y259124D01*
X270449D01*
X270949Y258624D01*
X272949Y261123D02*
X273448Y261623D01*
Y262622D01*
X272949Y263122D01*
X270949D01*
X270449Y262622D01*
Y261623D01*
X270949Y261123D01*
X271449D01*
X271949Y261623D01*
Y263122D01*
X281839Y260500D02*
Y262499D01*
Y261499D01*
X284838D01*
Y263499D02*
X281839D01*
Y264998D01*
X282339Y265498D01*
X283339D01*
X283839Y264998D01*
Y263499D01*
X284838Y266498D02*
Y267497D01*
Y266998D01*
X281839D01*
X282339Y266498D01*
Y268997D02*
X281839Y269497D01*
Y270497D01*
X282339Y270996D01*
X282839D01*
X283339Y270497D01*
X283839Y270996D01*
X284338D01*
X284838Y270497D01*
Y269497D01*
X284338Y268997D01*
X283839D01*
X283339Y269497D01*
X282839Y268997D01*
X282339D01*
X283339Y269497D02*
Y270497D01*
X252626Y206224D02*
X254625D01*
X253625D01*
Y203225D01*
X255625D02*
Y206224D01*
X257124D01*
X257624Y205724D01*
Y204724D01*
X257124Y204225D01*
X255625D01*
X258624Y203225D02*
X259624D01*
X259124D01*
Y206224D01*
X258624Y205724D01*
X261123Y206224D02*
X263122D01*
Y205724D01*
X261123Y203725D01*
Y203225D01*
X132547Y204255D02*
X134546D01*
X133547D01*
Y201256D01*
X135546D02*
Y204255D01*
X137046D01*
X137545Y203756D01*
Y202756D01*
X137046Y202256D01*
X135546D01*
X138545Y201256D02*
X139545D01*
X139045D01*
Y204255D01*
X138545Y203756D01*
X143044Y204255D02*
X142044Y203756D01*
X141044Y202756D01*
Y201756D01*
X141544Y201256D01*
X142544D01*
X143044Y201756D01*
Y202256D01*
X142544Y202756D01*
X141044D01*
X51838Y190476D02*
X53838D01*
X52838D01*
Y187477D01*
X54837D02*
Y190476D01*
X56337D01*
X56837Y189976D01*
Y188976D01*
X56337Y188476D01*
X54837D01*
X57836Y187477D02*
X58836D01*
X58336D01*
Y190476D01*
X57836Y189976D01*
X62335Y190476D02*
X60335D01*
Y188976D01*
X61335Y189476D01*
X61835D01*
X62335Y188976D01*
Y187977D01*
X61835Y187477D01*
X60835D01*
X60335Y187977D01*
X101426Y262468D02*
Y264468D01*
Y263468D01*
X104425D01*
Y265467D02*
X101426D01*
Y266967D01*
X101926Y267467D01*
X102925D01*
X103425Y266967D01*
Y265467D01*
X104425Y268466D02*
Y269466D01*
Y268966D01*
X101426D01*
X101926Y268466D01*
X104425Y272465D02*
X101426D01*
X102925Y270966D01*
Y272965D01*
X75809Y265091D02*
Y263091D01*
Y264091D01*
X72810D01*
Y262092D02*
X75809D01*
Y260592D01*
X75309Y260092D01*
X74309D01*
X73809Y260592D01*
Y262092D01*
X72810Y259093D02*
Y258093D01*
Y258593D01*
X75809D01*
X75309Y259093D01*
Y256594D02*
X75809Y256094D01*
Y255094D01*
X75309Y254594D01*
X74809D01*
X74309Y255094D01*
Y255594D01*
Y255094D01*
X73809Y254594D01*
X73309D01*
X72810Y255094D01*
Y256094D01*
X73309Y256594D01*
X131520Y255436D02*
X133520D01*
X132520D01*
Y252437D01*
X134519D02*
Y255436D01*
X136019D01*
X136519Y254937D01*
Y253937D01*
X136019Y253437D01*
X134519D01*
X137518Y252437D02*
X138518D01*
X138018D01*
Y255436D01*
X137518Y254937D01*
X140017Y252437D02*
X141017D01*
X140517D01*
Y255436D01*
X140017Y254937D01*
X84366Y265209D02*
Y263210D01*
Y264209D01*
X81367D01*
Y262210D02*
X84366D01*
Y260710D01*
X83866Y260210D01*
X82866D01*
X82366Y260710D01*
Y262210D01*
X81367Y259211D02*
Y258211D01*
Y258711D01*
X84366D01*
X83866Y259211D01*
Y256712D02*
X84366Y256212D01*
Y255212D01*
X83866Y254712D01*
X81866D01*
X81367Y255212D01*
Y256212D01*
X81866Y256712D01*
X83866D01*
X93226Y261749D02*
Y263749D01*
Y262749D01*
X96225D01*
Y264748D02*
X93226D01*
Y266248D01*
X93726Y266748D01*
X94726D01*
X95226Y266248D01*
Y264748D01*
X95725Y267747D02*
X96225Y268247D01*
Y269247D01*
X95725Y269747D01*
X93726D01*
X93226Y269247D01*
Y268247D01*
X93726Y267747D01*
X94226D01*
X94726Y268247D01*
Y269747D01*
X53245Y199334D02*
X55245D01*
X54245D01*
Y196335D01*
X56244D02*
Y199334D01*
X57744D01*
X58244Y198834D01*
Y197835D01*
X57744Y197335D01*
X56244D01*
X59244Y198834D02*
X59743Y199334D01*
X60743D01*
X61243Y198834D01*
Y198334D01*
X60743Y197835D01*
X61243Y197335D01*
Y196835D01*
X60743Y196335D01*
X59743D01*
X59244Y196835D01*
Y197335D01*
X59743Y197835D01*
X59244Y198334D01*
Y198834D01*
X59743Y197835D02*
X60743D01*
X654219Y330240D02*
X656219D01*
X655219D01*
Y327241D01*
X657218D02*
Y330240D01*
X658718D01*
X659218Y329740D01*
Y328740D01*
X658718Y328240D01*
X657218D01*
X660218Y330240D02*
X662217D01*
Y329740D01*
X660218Y327741D01*
Y327241D01*
X594184Y336490D02*
Y338489D01*
Y337489D01*
X597183D01*
Y339489D02*
X594184D01*
Y340988D01*
X594684Y341488D01*
X595683D01*
X596183Y340988D01*
Y339489D01*
X594184Y344487D02*
X594684Y343487D01*
X595683Y342488D01*
X596683D01*
X597183Y342987D01*
Y343987D01*
X596683Y344487D01*
X596183D01*
X595683Y343987D01*
Y342488D01*
X598026Y392815D02*
X600025D01*
X599026D01*
Y389816D01*
X601025D02*
Y392815D01*
X602525D01*
X603024Y392316D01*
Y391316D01*
X602525Y390816D01*
X601025D01*
X606023Y392815D02*
X604024D01*
Y391316D01*
X605024Y391816D01*
X605523D01*
X606023Y391316D01*
Y390316D01*
X605523Y389816D01*
X604524D01*
X604024Y390316D01*
X620674Y326710D02*
Y328709D01*
Y327710D01*
X623673D01*
Y329709D02*
X620674D01*
Y331208D01*
X621173Y331708D01*
X622173D01*
X622673Y331208D01*
Y329709D01*
X623673Y334208D02*
X620674D01*
X622173Y332708D01*
Y334707D01*
X630995Y336552D02*
Y338552D01*
Y337552D01*
X633993D01*
Y339551D02*
X630995D01*
Y341051D01*
X631494Y341551D01*
X632494D01*
X632994Y341051D01*
Y339551D01*
X631494Y342550D02*
X630995Y343050D01*
Y344050D01*
X631494Y344550D01*
X631994D01*
X632494Y344050D01*
Y343550D01*
Y344050D01*
X632994Y344550D01*
X633494D01*
X633993Y344050D01*
Y343050D01*
X633494Y342550D01*
X497970Y330240D02*
X499969D01*
X498970D01*
Y327241D01*
X500969D02*
Y330240D01*
X502468D01*
X502968Y329740D01*
Y328740D01*
X502468Y328240D01*
X500969D01*
X505967Y327241D02*
X503968D01*
X505967Y329240D01*
Y329740D01*
X505467Y330240D01*
X504468D01*
X503968Y329740D01*
X498470Y339639D02*
X500469D01*
X499469D01*
Y336640D01*
X501469D02*
Y339639D01*
X502968D01*
X503468Y339139D01*
Y338140D01*
X502968Y337640D01*
X501469D01*
X504468Y336640D02*
X505467D01*
X504967D01*
Y339639D01*
X504468Y339139D01*
X29830Y247871D02*
X29330Y247371D01*
Y246372D01*
X29830Y245872D01*
X30329D01*
X30829Y246372D01*
Y247371D01*
X31329Y247871D01*
X31829D01*
X32329Y247371D01*
Y246372D01*
X31829Y245872D01*
X29330Y248871D02*
X32329D01*
Y250370D01*
X31829Y250870D01*
X31329D01*
X30829Y250370D01*
Y248871D01*
Y250370D01*
X30329Y250870D01*
X29830D01*
X29330Y250370D01*
Y248871D01*
X32329Y253869D02*
Y251870D01*
X30329Y253869D01*
X29830D01*
X29330Y253369D01*
Y252370D01*
X29830Y251870D01*
X32329Y256868D02*
Y254869D01*
X30329Y256868D01*
X29830D01*
X29330Y256368D01*
Y255369D01*
X29830Y254869D01*
X56131Y249257D02*
X55631Y248758D01*
Y247758D01*
X56131Y247258D01*
X56631D01*
X57131Y247758D01*
Y248758D01*
X57630Y249257D01*
X58130D01*
X58630Y248758D01*
Y247758D01*
X58130Y247258D01*
X55631Y250257D02*
X58630D01*
Y251757D01*
X58130Y252256D01*
X57630D01*
X57131Y251757D01*
Y250257D01*
Y251757D01*
X56631Y252256D01*
X56131D01*
X55631Y251757D01*
Y250257D01*
X58630Y255256D02*
Y253256D01*
X56631Y255256D01*
X56131D01*
X55631Y254756D01*
Y253756D01*
X56131Y253256D01*
X58630Y256255D02*
Y257255D01*
Y256755D01*
X55631D01*
X56131Y256255D01*
X342187Y412027D02*
X341687Y411527D01*
Y410528D01*
X342187Y410028D01*
X342687D01*
X343187Y410528D01*
Y411527D01*
X343687Y412027D01*
X344186D01*
X344686Y411527D01*
Y410528D01*
X344186Y410028D01*
X341687Y413027D02*
X344686D01*
Y414527D01*
X344186Y415026D01*
X343687D01*
X343187Y414527D01*
Y413027D01*
Y414527D01*
X342687Y415026D01*
X342187D01*
X341687Y414527D01*
Y413027D01*
X344686Y418025D02*
Y416026D01*
X342687Y418025D01*
X342187D01*
X341687Y417526D01*
Y416526D01*
X342187Y416026D01*
Y419025D02*
X341687Y419525D01*
Y420525D01*
X342187Y421024D01*
X344186D01*
X344686Y420525D01*
Y419525D01*
X344186Y419025D01*
X342187D01*
X368112Y412329D02*
X367612Y411829D01*
Y410829D01*
X368112Y410329D01*
X368612D01*
X369111Y410829D01*
Y411829D01*
X369611Y412329D01*
X370111D01*
X370611Y411829D01*
Y410829D01*
X370111Y410329D01*
X367612Y413329D02*
X370611D01*
Y414828D01*
X370111Y415328D01*
X369611D01*
X369111Y414828D01*
Y413329D01*
Y414828D01*
X368612Y415328D01*
X368112D01*
X367612Y414828D01*
Y413329D01*
X370611Y416327D02*
Y417327D01*
Y416827D01*
X367612D01*
X368112Y416327D01*
X370111Y418827D02*
X370611Y419327D01*
Y420326D01*
X370111Y420826D01*
X368112D01*
X367612Y420326D01*
Y419327D01*
X368112Y418827D01*
X368612D01*
X369111Y419327D01*
Y420826D01*
X360131Y383042D02*
X359631Y382542D01*
Y381542D01*
X360131Y381042D01*
X360630D01*
X361130Y381542D01*
Y382542D01*
X361630Y383042D01*
X362130D01*
X362630Y382542D01*
Y381542D01*
X362130Y381042D01*
X359631Y384041D02*
X362630D01*
Y385541D01*
X362130Y386041D01*
X361630D01*
X361130Y385541D01*
Y384041D01*
Y385541D01*
X360630Y386041D01*
X360131D01*
X359631Y385541D01*
Y384041D01*
X362630Y387040D02*
Y388040D01*
Y387540D01*
X359631D01*
X360131Y387040D01*
Y389540D02*
X359631Y390039D01*
Y391039D01*
X360131Y391539D01*
X360630D01*
X361130Y391039D01*
X361630Y391539D01*
X362130D01*
X362630Y391039D01*
Y390039D01*
X362130Y389540D01*
X361630D01*
X361130Y390039D01*
X360630Y389540D01*
X360131D01*
X361130Y390039D02*
Y391039D01*
X350748Y383336D02*
X350248Y382836D01*
Y381837D01*
X350748Y381337D01*
X351248D01*
X351747Y381837D01*
Y382836D01*
X352247Y383336D01*
X352747D01*
X353247Y382836D01*
Y381837D01*
X352747Y381337D01*
X350248Y384336D02*
X353247D01*
Y385835D01*
X352747Y386335D01*
X352247D01*
X351747Y385835D01*
Y384336D01*
Y385835D01*
X351248Y386335D01*
X350748D01*
X350248Y385835D01*
Y384336D01*
X353247Y387335D02*
Y388334D01*
Y387835D01*
X350248D01*
X350748Y387335D01*
X350248Y389834D02*
Y391833D01*
X350748D01*
X352747Y389834D01*
X353247D01*
X531495Y150418D02*
X531995Y149918D01*
X532995D01*
X533495Y150418D01*
Y150917D01*
X532995Y151417D01*
X531995D01*
X531495Y151917D01*
Y152417D01*
X531995Y152917D01*
X532995D01*
X533495Y152417D01*
X530496Y149918D02*
Y152917D01*
X528996D01*
X528496Y152417D01*
Y151917D01*
X528996Y151417D01*
X530496D01*
X528996D01*
X528496Y150917D01*
Y150418D01*
X528996Y149918D01*
X530496D01*
X527497Y152417D02*
X526997Y152917D01*
X525997D01*
X525497Y152417D01*
Y150418D01*
X525997Y149918D01*
X526997D01*
X527497Y150418D01*
Y150917D01*
X526997Y151417D01*
X525497D01*
X517063Y145177D02*
X517562Y145677D01*
Y146677D01*
X517063Y147177D01*
X516563D01*
X516063Y146677D01*
Y145677D01*
X515563Y145177D01*
X515063D01*
X514563Y145677D01*
Y146677D01*
X515063Y147177D01*
X517562Y144178D02*
X514563D01*
Y142678D01*
X515063Y142178D01*
X515563D01*
X516063Y142678D01*
Y144178D01*
Y142678D01*
X516563Y142178D01*
X517063D01*
X517562Y142678D01*
Y144178D01*
X517063Y141179D02*
X517562Y140679D01*
Y139679D01*
X517063Y139180D01*
X516563D01*
X516063Y139679D01*
X515563Y139180D01*
X515063D01*
X514563Y139679D01*
Y140679D01*
X515063Y141179D01*
X515563D01*
X516063Y140679D01*
X516563Y141179D01*
X517063D01*
X516063Y140679D02*
Y139679D01*
X335645Y153574D02*
X336145Y154074D01*
Y155074D01*
X335645Y155573D01*
X335145D01*
X334646Y155074D01*
Y154074D01*
X334146Y153574D01*
X333646D01*
X333146Y154074D01*
Y155074D01*
X333646Y155573D01*
X336145Y152575D02*
X333146D01*
Y151075D01*
X333646Y150575D01*
X334146D01*
X334646Y151075D01*
Y152575D01*
Y151075D01*
X335145Y150575D01*
X335645D01*
X336145Y151075D01*
Y152575D01*
Y149575D02*
Y147576D01*
X335645D01*
X333646Y149575D01*
X333146D01*
X330824Y153574D02*
X331324Y154074D01*
Y155074D01*
X330824Y155573D01*
X330324D01*
X329824Y155074D01*
Y154074D01*
X329325Y153574D01*
X328825D01*
X328325Y154074D01*
Y155074D01*
X328825Y155573D01*
X331324Y152575D02*
X328325D01*
Y151075D01*
X328825Y150575D01*
X329325D01*
X329824Y151075D01*
Y152575D01*
Y151075D01*
X330324Y150575D01*
X330824D01*
X331324Y151075D01*
Y152575D01*
Y147576D02*
X330824Y148576D01*
X329824Y149575D01*
X328825D01*
X328325Y149076D01*
Y148076D01*
X328825Y147576D01*
X329325D01*
X329824Y148076D01*
Y149575D01*
X145913Y155543D02*
X146413Y156043D01*
Y157042D01*
X145913Y157542D01*
X145413D01*
X144913Y157042D01*
Y156043D01*
X144413Y155543D01*
X143914D01*
X143414Y156043D01*
Y157042D01*
X143914Y157542D01*
X146413Y154543D02*
X143414D01*
Y153043D01*
X143914Y152544D01*
X144413D01*
X144913Y153043D01*
Y154543D01*
Y153043D01*
X145413Y152544D01*
X145913D01*
X146413Y153043D01*
Y154543D01*
Y149545D02*
Y151544D01*
X144913D01*
X145413Y150544D01*
Y150044D01*
X144913Y149545D01*
X143914D01*
X143414Y150044D01*
Y151044D01*
X143914Y151544D01*
X140763Y155543D02*
X141263Y156043D01*
Y157042D01*
X140763Y157542D01*
X140264D01*
X139764Y157042D01*
Y156043D01*
X139264Y155543D01*
X138764D01*
X138264Y156043D01*
Y157042D01*
X138764Y157542D01*
X141263Y154543D02*
X138264D01*
Y153043D01*
X138764Y152544D01*
X139264D01*
X139764Y153043D01*
Y154543D01*
Y153043D01*
X140264Y152544D01*
X140763D01*
X141263Y153043D01*
Y154543D01*
X138264Y150044D02*
X141263D01*
X139764Y151544D01*
Y149545D01*
X441914Y176072D02*
X441414Y175572D01*
Y174572D01*
X441914Y174072D01*
X442414D01*
X442913Y174572D01*
Y175572D01*
X443413Y176072D01*
X443913D01*
X444413Y175572D01*
Y174572D01*
X443913Y174072D01*
X441414Y177071D02*
X444413D01*
Y178571D01*
X443913Y179070D01*
X443413D01*
X442913Y178571D01*
Y177071D01*
Y178571D01*
X442414Y179070D01*
X441914D01*
X441414Y178571D01*
Y177071D01*
X441914Y180070D02*
X441414Y180570D01*
Y181570D01*
X441914Y182070D01*
X442414D01*
X442913Y181570D01*
Y181070D01*
Y181570D01*
X443413Y182070D01*
X443913D01*
X444413Y181570D01*
Y180570D01*
X443913Y180070D01*
X248271Y189166D02*
X247771Y188666D01*
Y187667D01*
X248271Y187167D01*
X248771D01*
X249271Y187667D01*
Y188666D01*
X249770Y189166D01*
X250270D01*
X250770Y188666D01*
Y187667D01*
X250270Y187167D01*
X247771Y190166D02*
X250770D01*
Y191665D01*
X250270Y192165D01*
X249770D01*
X249271Y191665D01*
Y190166D01*
Y191665D01*
X248771Y192165D01*
X248271D01*
X247771Y191665D01*
Y190166D01*
X250770Y195164D02*
Y193165D01*
X248771Y195164D01*
X248271D01*
X247771Y194665D01*
Y193665D01*
X248271Y193165D01*
X63000Y178714D02*
X62501Y178214D01*
Y177215D01*
X63000Y176715D01*
X63500D01*
X64000Y177215D01*
Y178214D01*
X64500Y178714D01*
X65000D01*
X65500Y178214D01*
Y177215D01*
X65000Y176715D01*
X62501Y179714D02*
X65500D01*
Y181213D01*
X65000Y181713D01*
X64500D01*
X64000Y181213D01*
Y179714D01*
Y181213D01*
X63500Y181713D01*
X63000D01*
X62501Y181213D01*
Y179714D01*
X65500Y182713D02*
Y183712D01*
Y183213D01*
X62501D01*
X63000Y182713D01*
X492430Y254815D02*
X495429D01*
Y253316D01*
X494929Y252816D01*
X493929D01*
X493430Y253316D01*
Y254815D01*
Y253815D02*
X492430Y252816D01*
X495429Y249817D02*
Y250816D01*
Y250317D01*
X492930D01*
X492430Y250816D01*
Y251316D01*
X492930Y251816D01*
X492430Y248817D02*
Y247817D01*
Y248317D01*
X495429D01*
X494929Y248817D01*
X495429Y244319D02*
Y246318D01*
X493929D01*
X494429Y245318D01*
Y244818D01*
X493929Y244319D01*
X492930D01*
X492430Y244818D01*
Y245818D01*
X492930Y246318D01*
X486541Y254815D02*
X489540D01*
Y253316D01*
X489040Y252816D01*
X488041D01*
X487541Y253316D01*
Y254815D01*
Y253815D02*
X486541Y252816D01*
X489540Y249817D02*
Y250816D01*
Y250317D01*
X487041D01*
X486541Y250816D01*
Y251316D01*
X487041Y251816D01*
X486541Y248817D02*
Y247817D01*
Y248317D01*
X489540D01*
X489040Y248817D01*
X486541Y244818D02*
X489540D01*
X488041Y246318D01*
Y244319D01*
X308586Y244712D02*
X305587D01*
Y246212D01*
X306087Y246712D01*
X307087D01*
X307586Y246212D01*
Y244712D01*
Y245712D02*
X308586Y246712D01*
X305587Y249711D02*
Y248711D01*
Y249211D01*
X308086D01*
X308586Y248711D01*
Y248211D01*
X308086Y247711D01*
X308586Y250710D02*
Y251710D01*
Y251210D01*
X305587D01*
X306087Y250710D01*
Y253209D02*
X305587Y253709D01*
Y254709D01*
X306087Y255209D01*
X306587D01*
X307087Y254709D01*
Y254209D01*
Y254709D01*
X307586Y255209D01*
X308086D01*
X308586Y254709D01*
Y253709D01*
X308086Y253209D01*
X303384Y244752D02*
X300385D01*
Y246251D01*
X300885Y246751D01*
X301885D01*
X302385Y246251D01*
Y244752D01*
Y245751D02*
X303384Y246751D01*
X300385Y249750D02*
Y248750D01*
Y249250D01*
X302884D01*
X303384Y248750D01*
Y248251D01*
X302884Y247751D01*
X303384Y250750D02*
Y251749D01*
Y251250D01*
X300385D01*
X300885Y250750D01*
X303384Y255248D02*
Y253249D01*
X301385Y255248D01*
X300885D01*
X300385Y254749D01*
Y253749D01*
X300885Y253249D01*
X119610Y247220D02*
X116611D01*
Y248720D01*
X117111Y249219D01*
X118110D01*
X118610Y248720D01*
Y247220D01*
Y248220D02*
X119610Y249219D01*
X116611Y252218D02*
Y251219D01*
Y251719D01*
X119110D01*
X119610Y251219D01*
Y250719D01*
X119110Y250219D01*
X119610Y253218D02*
Y254218D01*
Y253718D01*
X116611D01*
X117111Y253218D01*
X119610Y255717D02*
Y256717D01*
Y256217D01*
X116611D01*
X117111Y255717D01*
X113704Y246720D02*
X110705D01*
Y248220D01*
X111205Y248720D01*
X112205D01*
X112705Y248220D01*
Y246720D01*
Y247720D02*
X113704Y248720D01*
X110705Y251719D02*
Y250719D01*
Y251219D01*
X113204D01*
X113704Y250719D01*
Y250219D01*
X113204Y249719D01*
X113704Y252718D02*
Y253718D01*
Y253218D01*
X110705D01*
X111205Y252718D01*
Y255218D02*
X110705Y255717D01*
Y256717D01*
X111205Y257217D01*
X113204D01*
X113704Y256717D01*
Y255717D01*
X113204Y255218D01*
X111205D01*
X253096Y309608D02*
Y312607D01*
X254595D01*
X255095Y312107D01*
Y311107D01*
X254595Y310607D01*
X253096D01*
X254096D02*
X255095Y309608D01*
X256095D02*
X257095D01*
X256595D01*
Y312607D01*
X256095Y312107D01*
X260593Y312607D02*
X259594Y312107D01*
X258594Y311107D01*
Y310107D01*
X259094Y309608D01*
X260093D01*
X260593Y310107D01*
Y310607D01*
X260093Y311107D01*
X258594D01*
X261593Y312607D02*
X263592D01*
Y312107D01*
X261593Y310107D01*
Y309608D01*
X281840Y309603D02*
Y312602D01*
X283339D01*
X283839Y312102D01*
Y311102D01*
X283339Y310603D01*
X281840D01*
X282839D02*
X283839Y309603D01*
X284839D02*
X285838D01*
X285338D01*
Y312602D01*
X284839Y312102D01*
X289337Y312602D02*
X288337Y312102D01*
X287338Y311102D01*
Y310103D01*
X287838Y309603D01*
X288837D01*
X289337Y310103D01*
Y310603D01*
X288837Y311102D01*
X287338D01*
X292336Y312602D02*
X290337D01*
Y311102D01*
X291336Y311602D01*
X291836D01*
X292336Y311102D01*
Y310103D01*
X291836Y309603D01*
X290837D01*
X290337Y310103D01*
X282143Y318791D02*
Y321790D01*
X283642D01*
X284142Y321290D01*
Y320290D01*
X283642Y319790D01*
X282143D01*
X283142D02*
X284142Y318791D01*
X285142D02*
X286141D01*
X285642D01*
Y321790D01*
X285142Y321290D01*
X289640Y321790D02*
X288640Y321290D01*
X287641Y320290D01*
Y319290D01*
X288141Y318791D01*
X289140D01*
X289640Y319290D01*
Y319790D01*
X289140Y320290D01*
X287641D01*
X290640Y321290D02*
X291140Y321790D01*
X292139D01*
X292639Y321290D01*
Y320790D01*
X292139Y320290D01*
X291639D01*
X292139D01*
X292639Y319790D01*
Y319290D01*
X292139Y318791D01*
X291140D01*
X290640Y319290D01*
X316484Y325332D02*
Y328331D01*
X317983D01*
X318483Y327831D01*
Y326831D01*
X317983Y326331D01*
X316484D01*
X317483D02*
X318483Y325332D01*
X319483D02*
X320482D01*
X319983D01*
Y328331D01*
X319483Y327831D01*
X323981Y328331D02*
X322982Y327831D01*
X321982Y326831D01*
Y325832D01*
X322482Y325332D01*
X323481D01*
X323981Y325832D01*
Y326331D01*
X323481Y326831D01*
X321982D01*
X324981Y325332D02*
X325980D01*
X325481D01*
Y328331D01*
X324981Y327831D01*
X253832Y317424D02*
Y320423D01*
X255331D01*
X255831Y319923D01*
Y318923D01*
X255331Y318424D01*
X253832D01*
X254831D02*
X255831Y317424D01*
X256831D02*
X257830D01*
X257330D01*
Y320423D01*
X256831Y319923D01*
X261329Y320423D02*
X259330D01*
Y318923D01*
X260330Y319423D01*
X260829D01*
X261329Y318923D01*
Y317924D01*
X260829Y317424D01*
X259830D01*
X259330Y317924D01*
X262329Y320423D02*
X264328D01*
Y319923D01*
X262329Y317924D01*
Y317424D01*
X253645Y332955D02*
Y335954D01*
X255145D01*
X255645Y335454D01*
Y334454D01*
X255145Y333955D01*
X253645D01*
X254645D02*
X255645Y332955D01*
X256644D02*
X257644D01*
X257144D01*
Y335954D01*
X256644Y335454D01*
X261143Y335954D02*
X259144D01*
Y334454D01*
X260143Y334954D01*
X260643D01*
X261143Y334454D01*
Y333455D01*
X260643Y332955D01*
X259643D01*
X259144Y333455D01*
X264142Y335954D02*
X263142Y335454D01*
X262143Y334454D01*
Y333455D01*
X262642Y332955D01*
X263642D01*
X264142Y333455D01*
Y333955D01*
X263642Y334454D01*
X262143D01*
X36362Y296715D02*
Y299714D01*
X37862D01*
X38362Y299214D01*
Y298214D01*
X37862Y297714D01*
X36362D01*
X37362D02*
X38362Y296715D01*
X39362D02*
X40361D01*
X39861D01*
Y299714D01*
X39362Y299214D01*
X43860Y299714D02*
X41861D01*
Y298214D01*
X42860Y298714D01*
X43360D01*
X43860Y298214D01*
Y297214D01*
X43360Y296715D01*
X42361D01*
X41861Y297214D01*
X44860Y299214D02*
X45360Y299714D01*
X46359D01*
X46859Y299214D01*
Y297214D01*
X46359Y296715D01*
X45360D01*
X44860Y297214D01*
Y299214D01*
X50465Y296926D02*
Y299926D01*
X51965D01*
X52465Y299426D01*
Y298426D01*
X51965Y297926D01*
X50465D01*
X51465D02*
X52465Y296926D01*
X53464D02*
X54464D01*
X53964D01*
Y299926D01*
X53464Y299426D01*
X57463Y296926D02*
Y299926D01*
X55964Y298426D01*
X57963D01*
X58963Y297426D02*
X59462Y296926D01*
X60462D01*
X60962Y297426D01*
Y299426D01*
X60462Y299926D01*
X59462D01*
X58963Y299426D01*
Y298926D01*
X59462Y298426D01*
X60962D01*
X308430Y346287D02*
X305431D01*
Y347786D01*
X305930Y348286D01*
X306930D01*
X307430Y347786D01*
Y346287D01*
Y347287D02*
X308430Y348286D01*
Y349286D02*
Y350286D01*
Y349786D01*
X305431D01*
X305930Y349286D01*
X308430Y353285D02*
X305431D01*
X306930Y351785D01*
Y353784D01*
X305431Y354784D02*
Y356783D01*
X305930D01*
X307930Y354784D01*
X308430D01*
X298230Y391814D02*
X295231D01*
Y393314D01*
X295731Y393813D01*
X296731D01*
X297231Y393314D01*
Y391814D01*
Y392814D02*
X298230Y393813D01*
Y394813D02*
Y395813D01*
Y395313D01*
X295231D01*
X295731Y394813D01*
X298230Y398812D02*
X295231D01*
X296731Y397312D01*
Y399312D01*
X295231Y402311D02*
X295731Y401311D01*
X296731Y400311D01*
X297730D01*
X298230Y400811D01*
Y401811D01*
X297730Y402311D01*
X297231D01*
X296731Y401811D01*
Y400311D01*
X288430Y346287D02*
X285431D01*
Y347786D01*
X285930Y348286D01*
X286930D01*
X287430Y347786D01*
Y346287D01*
Y347286D02*
X288430Y348286D01*
Y349286D02*
Y350286D01*
Y349786D01*
X285431D01*
X285930Y349286D01*
X288430Y353285D02*
X285431D01*
X286930Y351785D01*
Y353784D01*
X285431Y356783D02*
Y354784D01*
X286930D01*
X286430Y355784D01*
Y356283D01*
X286930Y356783D01*
X287930D01*
X288430Y356283D01*
Y355284D01*
X287930Y354784D01*
X307914Y392557D02*
X304915D01*
Y394057D01*
X305414Y394556D01*
X306414D01*
X306914Y394057D01*
Y392557D01*
Y393557D02*
X307914Y394556D01*
Y395556D02*
Y396556D01*
Y396056D01*
X304915D01*
X305414Y395556D01*
X307914Y399555D02*
X304915D01*
X306414Y398055D01*
Y400055D01*
X307914Y402554D02*
X304915D01*
X306414Y401054D01*
Y403054D01*
X298376Y346287D02*
X295377D01*
Y347786D01*
X295877Y348286D01*
X296877D01*
X297376Y347786D01*
Y346287D01*
Y347286D02*
X298376Y348286D01*
Y349286D02*
Y350286D01*
Y349786D01*
X295377D01*
X295877Y349286D01*
X298376Y353285D02*
X295377D01*
X296877Y351785D01*
Y353784D01*
X295877Y354784D02*
X295377Y355284D01*
Y356283D01*
X295877Y356783D01*
X296377D01*
X296877Y356283D01*
Y355784D01*
Y356283D01*
X297376Y356783D01*
X297876D01*
X298376Y356283D01*
Y355284D01*
X297876Y354784D01*
X288529Y392533D02*
X285530D01*
Y394033D01*
X286030Y394532D01*
X287030D01*
X287530Y394033D01*
Y392533D01*
Y393533D02*
X288529Y394532D01*
Y395532D02*
Y396532D01*
Y396032D01*
X285530D01*
X286030Y395532D01*
X288529Y399531D02*
X285530D01*
X287030Y398031D01*
Y400031D01*
X288529Y403030D02*
Y401030D01*
X286530Y403030D01*
X286030D01*
X285530Y402530D01*
Y401530D01*
X286030Y401030D01*
X229004Y214782D02*
Y217781D01*
X230503D01*
X231003Y217281D01*
Y216282D01*
X230503Y215782D01*
X229004D01*
X230003D02*
X231003Y214782D01*
X232003D02*
X233002D01*
X232503D01*
Y217781D01*
X232003Y217281D01*
X234502D02*
X235002Y217781D01*
X236001D01*
X236501Y217281D01*
Y216781D01*
X236001Y216282D01*
X235502D01*
X236001D01*
X236501Y215782D01*
Y215282D01*
X236001Y214782D01*
X235002D01*
X234502Y215282D01*
X237501Y217281D02*
X238001Y217781D01*
X239000D01*
X239500Y217281D01*
Y216781D01*
X239000Y216282D01*
X239500Y215782D01*
Y215282D01*
X239000Y214782D01*
X238001D01*
X237501Y215282D01*
Y215782D01*
X238001Y216282D01*
X237501Y216781D01*
Y217281D01*
X238001Y216282D02*
X239000D01*
X228793Y258174D02*
Y261173D01*
X230292D01*
X230792Y260673D01*
Y259673D01*
X230292Y259174D01*
X228793D01*
X229792D02*
X230792Y258174D01*
X231791D02*
X232791D01*
X232291D01*
Y261173D01*
X231791Y260673D01*
X234291D02*
X234790Y261173D01*
X235790D01*
X236290Y260673D01*
Y260173D01*
X235790Y259673D01*
X235290D01*
X235790D01*
X236290Y259174D01*
Y258674D01*
X235790Y258174D01*
X234790D01*
X234291Y258674D01*
X237290Y261173D02*
X239289D01*
Y260673D01*
X237290Y258674D01*
Y258174D01*
X363473Y306928D02*
Y309927D01*
X364972D01*
X365472Y309427D01*
Y308427D01*
X364972Y307927D01*
X363473D01*
X364472D02*
X365472Y306928D01*
X366472D02*
X367471D01*
X366971D01*
Y309927D01*
X366472Y309427D01*
X368971D02*
X369471Y309927D01*
X370470D01*
X370970Y309427D01*
Y308927D01*
X370470Y308427D01*
X369971D01*
X370470D01*
X370970Y307927D01*
Y307428D01*
X370470Y306928D01*
X369471D01*
X368971Y307428D01*
X373969Y309927D02*
X372970Y309427D01*
X371970Y308427D01*
Y307428D01*
X372470Y306928D01*
X373469D01*
X373969Y307428D01*
Y307927D01*
X373469Y308427D01*
X371970D01*
X364830Y268518D02*
Y271517D01*
X366330D01*
X366830Y271018D01*
Y270018D01*
X366330Y269518D01*
X364830D01*
X365830D02*
X366830Y268518D01*
X367829D02*
X368829D01*
X368329D01*
Y271517D01*
X367829Y271018D01*
X370329D02*
X370829Y271517D01*
X371828D01*
X372328Y271018D01*
Y270518D01*
X371828Y270018D01*
X371328D01*
X371828D01*
X372328Y269518D01*
Y269018D01*
X371828Y268518D01*
X370829D01*
X370329Y269018D01*
X375327Y271517D02*
X373328D01*
Y270018D01*
X374327Y270518D01*
X374827D01*
X375327Y270018D01*
Y269018D01*
X374827Y268518D01*
X373828D01*
X373328Y269018D01*
X364150Y278028D02*
Y281027D01*
X365649D01*
X366149Y280527D01*
Y279528D01*
X365649Y279028D01*
X364150D01*
X365149D02*
X366149Y278028D01*
X367149D02*
X368148D01*
X367649D01*
Y281027D01*
X367149Y280527D01*
X369648D02*
X370148Y281027D01*
X371148D01*
X371647Y280527D01*
Y280027D01*
X371148Y279528D01*
X370648D01*
X371148D01*
X371647Y279028D01*
Y278528D01*
X371148Y278028D01*
X370148D01*
X369648Y278528D01*
X374646Y278028D02*
X372647D01*
X374646Y280027D01*
Y280527D01*
X374147Y281027D01*
X373147D01*
X372647Y280527D01*
X365061Y389114D02*
Y392113D01*
X366561D01*
X367061Y391613D01*
Y390613D01*
X366561Y390113D01*
X365061D01*
X366061D02*
X367061Y389114D01*
X368060D02*
X369060D01*
X368560D01*
Y392113D01*
X368060Y391613D01*
X370560D02*
X371059Y392113D01*
X372059D01*
X372559Y391613D01*
Y391113D01*
X372059Y390613D01*
X371559D01*
X372059D01*
X372559Y390113D01*
Y389614D01*
X372059Y389114D01*
X371059D01*
X370560Y389614D01*
X373559Y389114D02*
X374558D01*
X374059D01*
Y392113D01*
X373559Y391613D01*
X243406Y265155D02*
Y268154D01*
X244906D01*
X245405Y267654D01*
Y266654D01*
X244906Y266155D01*
X243406D01*
X244406D02*
X245405Y265155D01*
X246405D02*
X247405D01*
X246905D01*
Y268154D01*
X246405Y267654D01*
X248904D02*
X249404Y268154D01*
X250404D01*
X250904Y267654D01*
Y267154D01*
X250404Y266654D01*
X249904D01*
X250404D01*
X250904Y266155D01*
Y265655D01*
X250404Y265155D01*
X249404D01*
X248904Y265655D01*
X251903Y267654D02*
X252403Y268154D01*
X253403D01*
X253903Y267654D01*
Y265655D01*
X253403Y265155D01*
X252403D01*
X251903Y265655D01*
Y267654D01*
X364319Y364381D02*
Y367380D01*
X365819D01*
X366319Y366880D01*
Y365880D01*
X365819Y365380D01*
X364319D01*
X365319D02*
X366319Y364381D01*
X367319D02*
X368318D01*
X367818D01*
Y367380D01*
X367319Y366880D01*
X371817Y364381D02*
X369818D01*
X371817Y366380D01*
Y366880D01*
X371317Y367380D01*
X370318D01*
X369818Y366880D01*
X372817D02*
X373317Y367380D01*
X374316D01*
X374816Y366880D01*
Y366380D01*
X374316Y365880D01*
X374816Y365380D01*
Y364880D01*
X374316Y364381D01*
X373317D01*
X372817Y364880D01*
Y365380D01*
X373317Y365880D01*
X372817Y366380D01*
Y366880D01*
X373317Y365880D02*
X374316D01*
X364825Y242595D02*
Y245594D01*
X366325D01*
X366825Y245094D01*
Y244094D01*
X366325Y243595D01*
X364825D01*
X365825D02*
X366825Y242595D01*
X367824D02*
X368824D01*
X368324D01*
Y245594D01*
X367824Y245094D01*
X372323Y242595D02*
X370324D01*
X372323Y244594D01*
Y245094D01*
X371823Y245594D01*
X370824D01*
X370324Y245094D01*
X373323Y245594D02*
X375322D01*
Y245094D01*
X373323Y243095D01*
Y242595D01*
X399516Y336920D02*
Y333921D01*
X398017D01*
X397517Y334421D01*
Y335421D01*
X398017Y335921D01*
X399516D01*
X398516D02*
X397517Y336920D01*
X396517D02*
X395517D01*
X396017D01*
Y333921D01*
X396517Y334421D01*
X392018Y336920D02*
X394018D01*
X392018Y334921D01*
Y334421D01*
X392518Y333921D01*
X393518D01*
X394018Y334421D01*
X389019Y333921D02*
X390019Y334421D01*
X391019Y335421D01*
Y336420D01*
X390519Y336920D01*
X389519D01*
X389019Y336420D01*
Y335921D01*
X389519Y335421D01*
X391019D01*
X229004Y231150D02*
Y234149D01*
X230503D01*
X231003Y233649D01*
Y232650D01*
X230503Y232150D01*
X229004D01*
X230003D02*
X231003Y231150D01*
X232003D02*
X233002D01*
X232503D01*
Y234149D01*
X232003Y233649D01*
X236501Y231150D02*
X234502D01*
X236501Y233150D01*
Y233649D01*
X236001Y234149D01*
X235002D01*
X234502Y233649D01*
X239500Y234149D02*
X237501D01*
Y232650D01*
X238501Y233150D01*
X239000D01*
X239500Y232650D01*
Y231650D01*
X239000Y231150D01*
X238001D01*
X237501Y231650D01*
X229004Y207601D02*
Y210600D01*
X230503D01*
X231003Y210100D01*
Y209101D01*
X230503Y208601D01*
X229004D01*
X230003D02*
X231003Y207601D01*
X232003D02*
X233002D01*
X232503D01*
Y210600D01*
X232003Y210100D01*
X236501Y207601D02*
X234502D01*
X236501Y209601D01*
Y210100D01*
X236001Y210600D01*
X235002D01*
X234502Y210100D01*
X239000Y207601D02*
Y210600D01*
X237501Y209101D01*
X239500D01*
X228952Y268252D02*
Y271251D01*
X230451D01*
X230951Y270751D01*
Y269752D01*
X230451Y269252D01*
X228952D01*
X229952D02*
X230951Y268252D01*
X231951D02*
X232951D01*
X232451D01*
Y271251D01*
X231951Y270751D01*
X236450Y268252D02*
X234450D01*
X236450Y270251D01*
Y270751D01*
X235950Y271251D01*
X234950D01*
X234450Y270751D01*
X237449D02*
X237949Y271251D01*
X238949D01*
X239449Y270751D01*
Y270251D01*
X238949Y269752D01*
X238449D01*
X238949D01*
X239449Y269252D01*
Y268752D01*
X238949Y268252D01*
X237949D01*
X237449Y268752D01*
X229004Y223304D02*
Y226303D01*
X230503D01*
X231003Y225803D01*
Y224803D01*
X230503Y224303D01*
X229004D01*
X230003D02*
X231003Y223304D01*
X232003D02*
X233002D01*
X232503D01*
Y226303D01*
X232003Y225803D01*
X236501Y223304D02*
X234502D01*
X236501Y225303D01*
Y225803D01*
X236001Y226303D01*
X235002D01*
X234502Y225803D01*
X239500Y223304D02*
X237501D01*
X239500Y225303D01*
Y225803D01*
X239000Y226303D01*
X238001D01*
X237501Y225803D01*
X365330Y411886D02*
Y414885D01*
X366830D01*
X367330Y414386D01*
Y413386D01*
X366830Y412886D01*
X365330D01*
X366330D02*
X367330Y411886D01*
X368329D02*
X369329D01*
X368829D01*
Y414885D01*
X368329Y414386D01*
X372828Y411886D02*
X370828D01*
X372828Y413886D01*
Y414386D01*
X372328Y414885D01*
X371328D01*
X370828Y414386D01*
X373828Y411886D02*
X374827D01*
X374327D01*
Y414885D01*
X373828Y414386D01*
X228569Y239804D02*
Y242803D01*
X230068D01*
X230568Y242303D01*
Y241303D01*
X230068Y240803D01*
X228569D01*
X229568D02*
X230568Y239804D01*
X231568D02*
X232567D01*
X232067D01*
Y242803D01*
X231568Y242303D01*
X236066Y239804D02*
X234067D01*
X236066Y241803D01*
Y242303D01*
X235566Y242803D01*
X234567D01*
X234067Y242303D01*
X237066D02*
X237566Y242803D01*
X238565D01*
X239065Y242303D01*
Y240303D01*
X238565Y239804D01*
X237566D01*
X237066Y240303D01*
Y242303D01*
X399063Y377753D02*
Y374754D01*
X397564D01*
X397064Y375254D01*
Y376253D01*
X397564Y376753D01*
X399063D01*
X398064D02*
X397064Y377753D01*
X396064D02*
X395065D01*
X395564D01*
Y374754D01*
X396064Y375254D01*
X393565Y377753D02*
X392565D01*
X393065D01*
Y374754D01*
X393565Y375254D01*
X391066Y377253D02*
X390566Y377753D01*
X389566D01*
X389067Y377253D01*
Y375254D01*
X389566Y374754D01*
X390566D01*
X391066Y375254D01*
Y375753D01*
X390566Y376253D01*
X389067D01*
X228939Y278053D02*
Y281052D01*
X230438D01*
X230938Y280552D01*
Y279553D01*
X230438Y279053D01*
X228939D01*
X229938D02*
X230938Y278053D01*
X231938D02*
X232937D01*
X232437D01*
Y281052D01*
X231938Y280552D01*
X234437Y278053D02*
X235436D01*
X234936D01*
Y281052D01*
X234437Y280552D01*
X236936D02*
X237436Y281052D01*
X238435D01*
X238935Y280552D01*
Y280052D01*
X238435Y279553D01*
X238935Y279053D01*
Y278553D01*
X238435Y278053D01*
X237436D01*
X236936Y278553D01*
Y279053D01*
X237436Y279553D01*
X236936Y280052D01*
Y280552D01*
X237436Y279553D02*
X238435D01*
X364614Y288568D02*
Y291567D01*
X366113D01*
X366613Y291067D01*
Y290068D01*
X366113Y289568D01*
X364614D01*
X365614D02*
X366613Y288568D01*
X367613D02*
X368613D01*
X368113D01*
Y291567D01*
X367613Y291067D01*
X370112Y288568D02*
X371112D01*
X370612D01*
Y291567D01*
X370112Y291067D01*
X372611Y291567D02*
X374611D01*
Y291067D01*
X372611Y289068D01*
Y288568D01*
X365080Y258461D02*
Y261460D01*
X366580D01*
X367080Y260960D01*
Y259961D01*
X366580Y259461D01*
X365080D01*
X366080D02*
X367080Y258461D01*
X368079D02*
X369079D01*
X368579D01*
Y261460D01*
X368079Y260960D01*
X370579Y258461D02*
X371578D01*
X371078D01*
Y261460D01*
X370579Y260960D01*
X375077Y261460D02*
X374077Y260960D01*
X373078Y259961D01*
Y258961D01*
X373578Y258461D01*
X374577D01*
X375077Y258961D01*
Y259461D01*
X374577Y259961D01*
X373078D01*
X215700Y340700D02*
Y343699D01*
X217199D01*
X217699Y343199D01*
Y342199D01*
X217199Y341700D01*
X215700D01*
X216700D02*
X217699Y340700D01*
X218699D02*
X219699D01*
X219199D01*
Y343699D01*
X218699Y343199D01*
X221198Y340700D02*
X222198D01*
X221698D01*
Y343699D01*
X221198Y343199D01*
X225697Y343699D02*
X223697D01*
Y342199D01*
X224697Y342699D01*
X225197D01*
X225697Y342199D01*
Y341200D01*
X225197Y340700D01*
X224197D01*
X223697Y341200D01*
X365080Y354461D02*
Y357460D01*
X366580D01*
X367080Y356960D01*
Y355960D01*
X366580Y355461D01*
X365080D01*
X366080D02*
X367080Y354461D01*
X368079D02*
X369079D01*
X368579D01*
Y357460D01*
X368079Y356960D01*
X370579Y354461D02*
X371578D01*
X371078D01*
Y357460D01*
X370579Y356960D01*
X374577Y354461D02*
Y357460D01*
X373078Y355960D01*
X375077D01*
X228744Y248507D02*
Y251507D01*
X230244D01*
X230744Y251007D01*
Y250007D01*
X230244Y249507D01*
X228744D01*
X229744D02*
X230744Y248507D01*
X231743D02*
X232743D01*
X232243D01*
Y251507D01*
X231743Y251007D01*
X234243D02*
X234742Y251507D01*
X235742D01*
X236242Y251007D01*
Y249007D01*
X235742Y248507D01*
X234742D01*
X234243Y249007D01*
Y251007D01*
X237242Y249007D02*
X237741Y248507D01*
X238741D01*
X239241Y249007D01*
Y251007D01*
X238741Y251507D01*
X237741D01*
X237242Y251007D01*
Y250507D01*
X237741Y250007D01*
X239241D01*
X364633Y344403D02*
Y347402D01*
X366133D01*
X366633Y346903D01*
Y345903D01*
X366133Y345403D01*
X364633D01*
X365633D02*
X366633Y344403D01*
X367632D02*
X368632D01*
X368132D01*
Y347402D01*
X367632Y346903D01*
X370132D02*
X370631Y347402D01*
X371631D01*
X372131Y346903D01*
Y344903D01*
X371631Y344403D01*
X370631D01*
X370132Y344903D01*
Y346903D01*
X375130Y347402D02*
X374130Y346903D01*
X373131Y345903D01*
Y344903D01*
X373630Y344403D01*
X374630D01*
X375130Y344903D01*
Y345403D01*
X374630Y345903D01*
X373131D01*
X363368Y297940D02*
Y300939D01*
X364867D01*
X365367Y300439D01*
Y299439D01*
X364867Y298939D01*
X363368D01*
X364368D02*
X365367Y297940D01*
X366367D02*
X367367D01*
X366867D01*
Y300939D01*
X366367Y300439D01*
X368866D02*
X369366Y300939D01*
X370366D01*
X370866Y300439D01*
Y298440D01*
X370366Y297940D01*
X369366D01*
X368866Y298440D01*
Y300439D01*
X373865Y300939D02*
X371865D01*
Y299439D01*
X372865Y299939D01*
X373365D01*
X373865Y299439D01*
Y298440D01*
X373365Y297940D01*
X372365D01*
X371865Y298440D01*
X534623Y158186D02*
X531624D01*
Y159686D01*
X532124Y160186D01*
X533124D01*
X533624Y159686D01*
Y158186D01*
Y159186D02*
X534623Y160186D01*
Y161185D02*
Y162185D01*
Y161685D01*
X531624D01*
X532124Y161185D01*
Y163684D02*
X531624Y164184D01*
Y165184D01*
X532124Y165684D01*
X534124D01*
X534623Y165184D01*
Y164184D01*
X534124Y163684D01*
X532124D01*
Y166683D02*
X531624Y167183D01*
Y168183D01*
X532124Y168683D01*
X532624D01*
X533124Y168183D01*
Y167683D01*
Y168183D01*
X533624Y168683D01*
X534124D01*
X534623Y168183D01*
Y167183D01*
X534124Y166683D01*
X568117Y158100D02*
Y161099D01*
X569617D01*
X570117Y160599D01*
Y159600D01*
X569617Y159100D01*
X568117D01*
X569117D02*
X570117Y158100D01*
X571116D02*
X572116D01*
X571616D01*
Y161099D01*
X571116Y160599D01*
X573616D02*
X574115Y161099D01*
X575115D01*
X575615Y160599D01*
Y158600D01*
X575115Y158100D01*
X574115D01*
X573616Y158600D01*
Y160599D01*
X578614Y158100D02*
X576615D01*
X578614Y160099D01*
Y160599D01*
X578114Y161099D01*
X577114D01*
X576615Y160599D01*
X357799Y172695D02*
X354800D01*
Y174194D01*
X355299Y174694D01*
X356299D01*
X356799Y174194D01*
Y172695D01*
Y173694D02*
X357799Y174694D01*
X357299Y175694D02*
X357799Y176194D01*
Y177193D01*
X357299Y177693D01*
X355299D01*
X354800Y177193D01*
Y176194D01*
X355299Y175694D01*
X355799D01*
X356299Y176194D01*
Y177693D01*
X357299Y178693D02*
X357799Y179193D01*
Y180192D01*
X357299Y180692D01*
X355299D01*
X354800Y180192D01*
Y179193D01*
X355299Y178693D01*
X355799D01*
X356299Y179193D01*
Y180692D01*
X389295Y156348D02*
X386296D01*
Y157847D01*
X386796Y158347D01*
X387795D01*
X388295Y157847D01*
Y156348D01*
Y157347D02*
X389295Y158347D01*
X388795Y159346D02*
X389295Y159846D01*
Y160846D01*
X388795Y161346D01*
X386796D01*
X386296Y160846D01*
Y159846D01*
X386796Y159346D01*
X387295D01*
X387795Y159846D01*
Y161346D01*
X386796Y162346D02*
X386296Y162845D01*
Y163845D01*
X386796Y164345D01*
X387295D01*
X387795Y163845D01*
X388295Y164345D01*
X388795D01*
X389295Y163845D01*
Y162845D01*
X388795Y162346D01*
X388295D01*
X387795Y162845D01*
X387295Y162346D01*
X386796D01*
X387795Y162845D02*
Y163845D01*
X162081Y183867D02*
X159081D01*
Y185367D01*
X159581Y185867D01*
X160581D01*
X161081Y185367D01*
Y183867D01*
Y184867D02*
X162081Y185867D01*
X161581Y186866D02*
X162081Y187366D01*
Y188366D01*
X161581Y188866D01*
X159581D01*
X159081Y188366D01*
Y187366D01*
X159581Y186866D01*
X160081D01*
X160581Y187366D01*
Y188866D01*
X159081Y191865D02*
Y189866D01*
X160581D01*
X160081Y190865D01*
Y191365D01*
X160581Y191865D01*
X161581D01*
X162081Y191365D01*
Y190365D01*
X161581Y189866D01*
X206342Y178084D02*
X209341D01*
Y176585D01*
X208841Y176085D01*
X207842D01*
X207342Y176585D01*
Y178084D01*
Y177085D02*
X206342Y176085D01*
X206842Y175085D02*
X206342Y174585D01*
Y173586D01*
X206842Y173086D01*
X208841D01*
X209341Y173586D01*
Y174585D01*
X208841Y175085D01*
X208342D01*
X207842Y174585D01*
Y173086D01*
X206342Y170587D02*
X209341D01*
X207842Y172086D01*
Y170087D01*
X483933Y233783D02*
Y230784D01*
X482433D01*
X481933Y231284D01*
Y232283D01*
X482433Y232783D01*
X483933D01*
X482933D02*
X481933Y233783D01*
X480934Y233283D02*
X480434Y233783D01*
X479434D01*
X478934Y233283D01*
Y231284D01*
X479434Y230784D01*
X480434D01*
X480934Y231284D01*
Y231784D01*
X480434Y232283D01*
X478934D01*
X475935Y233783D02*
X477935D01*
X475935Y231784D01*
Y231284D01*
X476435Y230784D01*
X477435D01*
X477935Y231284D01*
X466597Y243625D02*
Y240627D01*
X465098D01*
X464598Y241126D01*
Y242126D01*
X465098Y242626D01*
X466597D01*
X465597D02*
X464598Y243625D01*
X463598Y241126D02*
X463098Y240627D01*
X462099D01*
X461599Y241126D01*
Y241626D01*
X462099Y242126D01*
X461599Y242626D01*
Y243126D01*
X462099Y243625D01*
X463098D01*
X463598Y243126D01*
Y242626D01*
X463098Y242126D01*
X463598Y241626D01*
Y241126D01*
X463098Y242126D02*
X462099D01*
X460599Y243126D02*
X460099Y243625D01*
X459099D01*
X458600Y243126D01*
Y241126D01*
X459099Y240627D01*
X460099D01*
X460599Y241126D01*
Y241626D01*
X460099Y242126D01*
X458600D01*
X443320Y217454D02*
X440321D01*
Y218954D01*
X440820Y219454D01*
X441820D01*
X442320Y218954D01*
Y217454D01*
Y218454D02*
X443320Y219454D01*
X440820Y220454D02*
X440321Y220953D01*
Y221953D01*
X440820Y222453D01*
X441320D01*
X441820Y221953D01*
X442320Y222453D01*
X442820D01*
X443320Y221953D01*
Y220953D01*
X442820Y220454D01*
X442320D01*
X441820Y220953D01*
X441320Y220454D01*
X440820D01*
X441820Y220953D02*
Y221953D01*
X440820Y223452D02*
X440321Y223952D01*
Y224952D01*
X440820Y225452D01*
X441320D01*
X441820Y224952D01*
X442320Y225452D01*
X442820D01*
X443320Y224952D01*
Y223952D01*
X442820Y223452D01*
X442320D01*
X441820Y223952D01*
X441320Y223452D01*
X440820D01*
X441820Y223952D02*
Y224952D01*
X290310Y232347D02*
Y235346D01*
X291809D01*
X292309Y234846D01*
Y233846D01*
X291809Y233347D01*
X290310D01*
X291310D02*
X292309Y232347D01*
X293309Y234846D02*
X293809Y235346D01*
X294809D01*
X295308Y234846D01*
Y234346D01*
X294809Y233846D01*
X295308Y233347D01*
Y232847D01*
X294809Y232347D01*
X293809D01*
X293309Y232847D01*
Y233347D01*
X293809Y233846D01*
X293309Y234346D01*
Y234846D01*
X293809Y233846D02*
X294809D01*
X296308Y235346D02*
X298307D01*
Y234846D01*
X296308Y232847D01*
Y232347D01*
X276512Y232461D02*
Y235460D01*
X278011D01*
X278511Y234960D01*
Y233961D01*
X278011Y233461D01*
X276512D01*
X277511D02*
X278511Y232461D01*
X279511Y234960D02*
X280011Y235460D01*
X281010D01*
X281510Y234960D01*
Y234460D01*
X281010Y233961D01*
X281510Y233461D01*
Y232961D01*
X281010Y232461D01*
X280011D01*
X279511Y232961D01*
Y233461D01*
X280011Y233961D01*
X279511Y234460D01*
Y234960D01*
X280011Y233961D02*
X281010D01*
X284009Y232461D02*
Y235460D01*
X282510Y233961D01*
X284509D01*
X261342Y229962D02*
X258343D01*
Y231462D01*
X258843Y231961D01*
X259842D01*
X260342Y231462D01*
Y229962D01*
Y230962D02*
X261342Y231961D01*
X258843Y232961D02*
X258343Y233461D01*
Y234461D01*
X258843Y234960D01*
X259343D01*
X259842Y234461D01*
X260342Y234960D01*
X260842D01*
X261342Y234461D01*
Y233461D01*
X260842Y232961D01*
X260342D01*
X259842Y233461D01*
X259343Y232961D01*
X258843D01*
X259842Y233461D02*
Y234461D01*
X258843Y235960D02*
X258343Y236460D01*
Y237460D01*
X258843Y237959D01*
X259343D01*
X259842Y237460D01*
Y236960D01*
Y237460D01*
X260342Y237959D01*
X260842D01*
X261342Y237460D01*
Y236460D01*
X260842Y235960D01*
X104130Y228222D02*
X101131D01*
Y229721D01*
X101631Y230221D01*
X102631D01*
X103130Y229721D01*
Y228222D01*
Y229221D02*
X104130Y230221D01*
X101631Y231221D02*
X101131Y231720D01*
Y232720D01*
X101631Y233220D01*
X102131D01*
X102631Y232720D01*
X103130Y233220D01*
X103630D01*
X104130Y232720D01*
Y231720D01*
X103630Y231221D01*
X103130D01*
X102631Y231720D01*
X102131Y231221D01*
X101631D01*
X102631Y231720D02*
Y232720D01*
X104130Y236219D02*
Y234220D01*
X102131Y236219D01*
X101631D01*
X101131Y235719D01*
Y234720D01*
X101631Y234220D01*
X96226Y228222D02*
X93226D01*
Y229721D01*
X93726Y230221D01*
X94726D01*
X95226Y229721D01*
Y228222D01*
Y229221D02*
X96226Y230221D01*
X93226Y231221D02*
Y233220D01*
X93726D01*
X95726Y231221D01*
X96226D01*
X95726Y234220D02*
X96226Y234720D01*
Y235719D01*
X95726Y236219D01*
X93726D01*
X93226Y235719D01*
Y234720D01*
X93726Y234220D01*
X94226D01*
X94726Y234720D01*
Y236219D01*
X61493Y224471D02*
X64492D01*
Y222972D01*
X63992Y222472D01*
X62992D01*
X62492Y222972D01*
Y224471D01*
Y223471D02*
X61493Y222472D01*
X64492Y221472D02*
Y219473D01*
X63992D01*
X61993Y221472D01*
X61493D01*
X63992Y218473D02*
X64492Y217973D01*
Y216974D01*
X63992Y216474D01*
X63492D01*
X62992Y216974D01*
X62492Y216474D01*
X61993D01*
X61493Y216974D01*
Y217973D01*
X61993Y218473D01*
X62492D01*
X62992Y217973D01*
X63492Y218473D01*
X63992D01*
X62992Y217973D02*
Y216974D01*
X643232Y354269D02*
X640233D01*
Y355768D01*
X640733Y356268D01*
X641732D01*
X642232Y355768D01*
Y354269D01*
Y355269D02*
X643232Y356268D01*
X640233Y357268D02*
Y359267D01*
X640733D01*
X642732Y357268D01*
X643232D01*
X640233Y362266D02*
Y360267D01*
X641732D01*
X641232Y361267D01*
Y361767D01*
X641732Y362266D01*
X642732D01*
X643232Y361767D01*
Y360767D01*
X642732Y360267D01*
X649481Y354269D02*
X646482D01*
Y355768D01*
X646982Y356268D01*
X647982D01*
X648482Y355768D01*
Y354269D01*
Y355269D02*
X649481Y356268D01*
X646482Y357268D02*
Y359267D01*
X646982D01*
X648981Y357268D01*
X649481D01*
Y361767D02*
X646482D01*
X647982Y360267D01*
Y362266D01*
X659235Y333226D02*
Y336225D01*
X660734D01*
X661234Y335725D01*
Y334725D01*
X660734Y334226D01*
X659235D01*
X660234D02*
X661234Y333226D01*
X662234Y336225D02*
X664233D01*
Y335725D01*
X662234Y333726D01*
Y333226D01*
X667232D02*
X665233D01*
X667232Y335225D01*
Y335725D01*
X666732Y336225D01*
X665733D01*
X665233Y335725D01*
X464505Y335689D02*
Y338689D01*
X466005D01*
X466505Y338189D01*
Y337189D01*
X466005Y336689D01*
X464505D01*
X465505D02*
X466505Y335689D01*
X469504Y338689D02*
X468504Y338189D01*
X467504Y337189D01*
Y336189D01*
X468004Y335689D01*
X469004D01*
X469504Y336189D01*
Y336689D01*
X469004Y337189D01*
X467504D01*
X470503Y336189D02*
X471003Y335689D01*
X472003D01*
X472503Y336189D01*
Y338189D01*
X472003Y338689D01*
X471003D01*
X470503Y338189D01*
Y337689D01*
X471003Y337189D01*
X472503D01*
X540222Y256825D02*
Y253826D01*
X538723D01*
X538223Y254326D01*
Y255325D01*
X538723Y255825D01*
X540222D01*
X539222D02*
X538223Y256825D01*
X535224Y253826D02*
X536223Y254326D01*
X537223Y255325D01*
Y256325D01*
X536723Y256825D01*
X535724D01*
X535224Y256325D01*
Y255825D01*
X535724Y255325D01*
X537223D01*
X534224Y253826D02*
X532225D01*
Y254326D01*
X534224Y256325D01*
Y256825D01*
X540222Y274802D02*
Y271803D01*
X538723D01*
X538223Y272302D01*
Y273302D01*
X538723Y273802D01*
X540222D01*
X539222D02*
X538223Y274802D01*
X535224Y271803D02*
X536223Y272302D01*
X537223Y273302D01*
Y274302D01*
X536723Y274802D01*
X535724D01*
X535224Y274302D01*
Y273802D01*
X535724Y273302D01*
X537223D01*
X532225Y271803D02*
X534224D01*
Y273302D01*
X533224Y272802D01*
X532725D01*
X532225Y273302D01*
Y274302D01*
X532725Y274802D01*
X533724D01*
X534224Y274302D01*
X540222Y283852D02*
Y280853D01*
X538723D01*
X538223Y281353D01*
Y282352D01*
X538723Y282852D01*
X540222D01*
X539222D02*
X538223Y283852D01*
X535224Y280853D02*
X536223Y281353D01*
X537223Y282352D01*
Y283352D01*
X536723Y283852D01*
X535724D01*
X535224Y283352D01*
Y282852D01*
X535724Y282352D01*
X537223D01*
X532225Y283852D02*
X534224D01*
X532225Y281853D01*
Y281353D01*
X532725Y280853D01*
X533724D01*
X534224Y281353D01*
X571538Y243762D02*
X574537D01*
Y242263D01*
X574037Y241763D01*
X573037D01*
X572538Y242263D01*
Y243762D01*
Y242763D02*
X571538Y241763D01*
X574537Y238764D02*
X574037Y239764D01*
X573037Y240763D01*
X572038D01*
X571538Y240264D01*
Y239264D01*
X572038Y238764D01*
X572538D01*
X573037Y239264D01*
Y240763D01*
X574037Y237764D02*
X574537Y237264D01*
Y236265D01*
X574037Y235765D01*
X572038D01*
X571538Y236265D01*
Y237264D01*
X572038Y237764D01*
X574037D01*
X580555Y275678D02*
X577556D01*
Y277178D01*
X578055Y277677D01*
X579055D01*
X579555Y277178D01*
Y275678D01*
Y276678D02*
X580555Y277677D01*
X577556Y280676D02*
Y278677D01*
X579055D01*
X578555Y279677D01*
Y280176D01*
X579055Y280676D01*
X580055D01*
X580555Y280176D01*
Y279177D01*
X580055Y278677D01*
Y281676D02*
X580555Y282176D01*
Y283176D01*
X580055Y283675D01*
X578055D01*
X577556Y283176D01*
Y282176D01*
X578055Y281676D01*
X578555D01*
X579055Y282176D01*
Y283675D01*
X436946Y142201D02*
Y145200D01*
X438446D01*
X438945Y144701D01*
Y143701D01*
X438446Y143201D01*
X436946D01*
X437946D02*
X438945Y142201D01*
X441945Y145200D02*
X439945D01*
Y143701D01*
X440945Y144201D01*
X441445D01*
X441945Y143701D01*
Y142701D01*
X441445Y142201D01*
X440445D01*
X439945Y142701D01*
X442944Y144701D02*
X443444Y145200D01*
X444444D01*
X444944Y144701D01*
Y144201D01*
X444444Y143701D01*
X443944D01*
X444444D01*
X444944Y143201D01*
Y142701D01*
X444444Y142201D01*
X443444D01*
X442944Y142701D01*
X249938Y142201D02*
Y145200D01*
X251438D01*
X251938Y144701D01*
Y143701D01*
X251438Y143201D01*
X249938D01*
X250938D02*
X251938Y142201D01*
X254937Y145200D02*
X252937D01*
Y143701D01*
X253937Y144201D01*
X254437D01*
X254937Y143701D01*
Y142701D01*
X254437Y142201D01*
X253437D01*
X252937Y142701D01*
X257936Y142201D02*
X255936D01*
X257936Y144201D01*
Y144701D01*
X257436Y145200D01*
X256436D01*
X255936Y144701D01*
X63177Y149322D02*
Y146323D01*
X61677D01*
X61177Y146822D01*
Y147822D01*
X61677Y148322D01*
X63177D01*
X62177D02*
X61177Y149322D01*
X58178Y146323D02*
X60178D01*
Y147822D01*
X59178Y147322D01*
X58678D01*
X58178Y147822D01*
Y148822D01*
X58678Y149322D01*
X59678D01*
X60178Y148822D01*
X57179Y149322D02*
X56179D01*
X56679D01*
Y146323D01*
X57179Y146822D01*
X429649Y141671D02*
X426650D01*
Y143170D01*
X427150Y143670D01*
X428150D01*
X428650Y143170D01*
Y141671D01*
Y142670D02*
X429649Y143670D01*
X426650Y146669D02*
Y144670D01*
X428150D01*
X427650Y145669D01*
Y146169D01*
X428150Y146669D01*
X429149D01*
X429649Y146169D01*
Y145169D01*
X429149Y144670D01*
X427150Y147669D02*
X426650Y148169D01*
Y149168D01*
X427150Y149668D01*
X429149D01*
X429649Y149168D01*
Y148169D01*
X429149Y147669D01*
X427150D01*
X233783Y158861D02*
X230784D01*
Y160360D01*
X231284Y160860D01*
X232283D01*
X232783Y160360D01*
Y158861D01*
Y159861D02*
X233783Y160860D01*
Y163359D02*
X230784D01*
X232283Y161860D01*
Y163859D01*
X233283Y164859D02*
X233783Y165359D01*
Y166358D01*
X233283Y166858D01*
X231284D01*
X230784Y166358D01*
Y165359D01*
X231284Y164859D01*
X231784D01*
X232283Y165359D01*
Y166858D01*
X49359Y149999D02*
Y147000D01*
X47860D01*
X47360Y147500D01*
Y148499D01*
X47860Y148999D01*
X49359D01*
X48360D02*
X47360Y149999D01*
X44861D02*
Y147000D01*
X46360Y148499D01*
X44361D01*
X43361Y147500D02*
X42861Y147000D01*
X41862D01*
X41362Y147500D01*
Y147999D01*
X41862Y148499D01*
X41362Y148999D01*
Y149499D01*
X41862Y149999D01*
X42861D01*
X43361Y149499D01*
Y148999D01*
X42861Y148499D01*
X43361Y147999D01*
Y147500D01*
X42861Y148499D02*
X41862D01*
X18380Y146809D02*
X21380D01*
Y145309D01*
X20880Y144810D01*
X19880D01*
X19380Y145309D01*
Y146809D01*
Y145809D02*
X18380Y144810D01*
Y142310D02*
X21380D01*
X19880Y143810D01*
Y141811D01*
X21380Y140811D02*
Y138812D01*
X20880D01*
X18880Y140811D01*
X18380D01*
X7475Y146461D02*
X10474D01*
Y144961D01*
X9974Y144462D01*
X8974D01*
X8474Y144961D01*
Y146461D01*
Y145461D02*
X7475Y144462D01*
Y141962D02*
X10474D01*
X8974Y143462D01*
Y141463D01*
X10474Y138463D02*
X9974Y139463D01*
X8974Y140463D01*
X7975D01*
X7475Y139963D01*
Y138963D01*
X7975Y138463D01*
X8474D01*
X8974Y138963D01*
Y140463D01*
X606289Y177978D02*
Y179977D01*
X605790Y180477D01*
X604790D01*
X604290Y179977D01*
Y177978D01*
X604790Y177478D01*
X605790D01*
X605290Y178478D02*
X606289Y177478D01*
X605790D02*
X606289Y177978D01*
X607289Y177478D02*
X608289D01*
X607789D01*
Y180477D01*
X607289Y179977D01*
X611288Y177478D02*
Y180477D01*
X609788Y178977D01*
X611788D01*
X519439Y180552D02*
X516440D01*
Y178553D01*
X519439Y175554D02*
Y177553D01*
X516440D01*
Y175554D01*
X517940Y177553D02*
Y176553D01*
X519439Y174554D02*
X516440D01*
Y173054D01*
X516940Y172555D01*
X518940D01*
X519439Y173054D01*
Y174554D01*
X518940Y171555D02*
X519439Y171055D01*
Y170055D01*
X518940Y169555D01*
X518440D01*
X517940Y170055D01*
Y170555D01*
Y170055D01*
X517440Y169555D01*
X516940D01*
X516440Y170055D01*
Y171055D01*
X516940Y171555D01*
X331178Y169308D02*
X334177D01*
Y171307D01*
X331178Y174306D02*
Y172307D01*
X334177D01*
Y174306D01*
X332677Y172307D02*
Y173306D01*
X331178Y175306D02*
X334177D01*
Y176805D01*
X333677Y177305D01*
X331678D01*
X331178Y176805D01*
Y175306D01*
X334177Y180304D02*
Y178305D01*
X332177Y180304D01*
X331678D01*
X331178Y179804D01*
Y178805D01*
X331678Y178305D01*
X155711Y193992D02*
X152712D01*
Y191992D01*
X155711Y188993D02*
Y190992D01*
X152712D01*
Y188993D01*
X154212Y190992D02*
Y189993D01*
X155711Y187994D02*
X152712D01*
Y186494D01*
X153212Y185994D01*
X155211D01*
X155711Y186494D01*
Y187994D01*
X152712Y184994D02*
Y183995D01*
Y184495D01*
X155711D01*
X155211Y184994D01*
X631525Y251915D02*
Y248916D01*
X633525D01*
X634524D02*
X635524D01*
X635024D01*
Y251915D01*
X634524Y251415D01*
X404012Y302650D02*
Y301650D01*
Y302150D01*
X406511D01*
X407011Y301650D01*
Y301150D01*
X406511Y300650D01*
X404012Y305649D02*
X404512Y304649D01*
X405512Y303649D01*
X406511D01*
X407011Y304149D01*
Y305149D01*
X406511Y305649D01*
X406012D01*
X405512Y305149D01*
Y303649D01*
X204153Y291612D02*
X203154D01*
X203654D01*
Y289113D01*
X203154Y288613D01*
X202654D01*
X202154Y289113D01*
X207153Y291612D02*
X205153D01*
Y290112D01*
X206153Y290612D01*
X206653D01*
X207153Y290112D01*
Y289113D01*
X206653Y288613D01*
X205653D01*
X205153Y289113D01*
X412099Y427299D02*
X411100D01*
X411599D01*
Y424800D01*
X411100Y424300D01*
X410600D01*
X410100Y424800D01*
X414599Y424300D02*
Y427299D01*
X413099Y425800D01*
X415098D01*
X202099Y382399D02*
X201100D01*
X201600D01*
Y379900D01*
X201100Y379400D01*
X200600D01*
X200100Y379900D01*
X203099Y381899D02*
X203599Y382399D01*
X204598D01*
X205098Y381899D01*
Y381399D01*
X204598Y380900D01*
X204099D01*
X204598D01*
X205098Y380400D01*
Y379900D01*
X204598Y379400D01*
X203599D01*
X203099Y379900D01*
X162416Y417336D02*
X161416D01*
X161916D01*
Y414836D01*
X161416Y414336D01*
X160916D01*
X160417Y414836D01*
X165415Y414336D02*
X163416D01*
X165415Y416336D01*
Y416836D01*
X164915Y417336D01*
X163916D01*
X163416Y416836D01*
X386999Y418399D02*
X386000D01*
X386500D01*
Y415900D01*
X386000Y415400D01*
X385500D01*
X385000Y415900D01*
X387999Y415400D02*
X388999D01*
X388499D01*
Y418399D01*
X387999Y417899D01*
X510312Y383797D02*
X513310D01*
Y385296D01*
X512811Y385796D01*
X510811D01*
X510312Y385296D01*
Y383797D01*
X513310Y388795D02*
Y386796D01*
X511311Y388795D01*
X510811D01*
X510312Y388295D01*
Y387295D01*
X510811Y386796D01*
Y389795D02*
X510312Y390295D01*
Y391294D01*
X510811Y391794D01*
X511311D01*
X511811Y391294D01*
Y390794D01*
Y391294D01*
X512311Y391794D01*
X512811D01*
X513310Y391294D01*
Y390295D01*
X512811Y389795D01*
X465036Y222379D02*
X468035D01*
Y223879D01*
X467535Y224379D01*
X465536D01*
X465036Y223879D01*
Y222379D01*
X468035Y227378D02*
Y225378D01*
X466036Y227378D01*
X465536D01*
X465036Y226878D01*
Y225878D01*
X465536Y225378D01*
X468035Y230377D02*
Y228377D01*
X466036Y230377D01*
X465536D01*
X465036Y229877D01*
Y228877D01*
X465536Y228377D01*
X281464Y229483D02*
X278465D01*
Y227984D01*
X278965Y227484D01*
X280964D01*
X281464Y227984D01*
Y229483D01*
X278465Y224485D02*
Y226484D01*
X280464Y224485D01*
X280964D01*
X281464Y224985D01*
Y225984D01*
X280964Y226484D01*
X278465Y223485D02*
Y222485D01*
Y222985D01*
X281464D01*
X280964Y223485D01*
X75602Y209661D02*
X72603D01*
Y208162D01*
X73103Y207662D01*
X75103D01*
X75602Y208162D01*
Y209661D01*
X72603Y204663D02*
Y206662D01*
X74603Y204663D01*
X75103D01*
X75602Y205163D01*
Y206162D01*
X75103Y206662D01*
Y203663D02*
X75602Y203163D01*
Y202164D01*
X75103Y201664D01*
X73103D01*
X72603Y202164D01*
Y203163D01*
X73103Y203663D01*
X75103D01*
X428665Y196989D02*
X425666D01*
Y195489D01*
X426166Y194990D01*
X428165D01*
X428665Y195489D01*
Y196989D01*
X425666Y193990D02*
Y192990D01*
Y193490D01*
X428665D01*
X428165Y193990D01*
X426166Y191491D02*
X425666Y190991D01*
Y189991D01*
X426166Y189491D01*
X428165D01*
X428665Y189991D01*
Y190991D01*
X428165Y191491D01*
X427665D01*
X427165Y190991D01*
Y189491D01*
X420335Y171072D02*
X417336D01*
Y169572D01*
X417836Y169072D01*
X419836D01*
X420335Y169572D01*
Y171072D01*
X417336Y168072D02*
Y167073D01*
Y167573D01*
X420335D01*
X419836Y168072D01*
Y165573D02*
X420335Y165074D01*
Y164074D01*
X419836Y163574D01*
X419336D01*
X418836Y164074D01*
X418336Y163574D01*
X417836D01*
X417336Y164074D01*
Y165074D01*
X417836Y165573D01*
X418336D01*
X418836Y165074D01*
X419336Y165573D01*
X419836D01*
X418836Y165074D02*
Y164074D01*
X236409Y192099D02*
Y189100D01*
X237908D01*
X238408Y189600D01*
Y191600D01*
X237908Y192099D01*
X236409D01*
X239408Y189100D02*
X240407D01*
X239908D01*
Y192099D01*
X239408Y191600D01*
X241907Y192099D02*
X243906D01*
Y191600D01*
X241907Y189600D01*
Y189100D01*
X222910Y175760D02*
X225909D01*
Y177260D01*
X225409Y177759D01*
X223410D01*
X222910Y177260D01*
Y175760D01*
X225909Y178759D02*
Y179759D01*
Y179259D01*
X222910D01*
X223410Y178759D01*
X222910Y183258D02*
X223410Y182258D01*
X224409Y181258D01*
X225409D01*
X225909Y181758D01*
Y182758D01*
X225409Y183258D01*
X224909D01*
X224409Y182758D01*
Y181258D01*
X43917Y189688D02*
X46916D01*
Y191188D01*
X46417Y191687D01*
X44417D01*
X43917Y191188D01*
Y189688D01*
X46916Y192687D02*
Y193687D01*
Y193187D01*
X43917D01*
X44417Y192687D01*
X43917Y197186D02*
Y195186D01*
X45417D01*
X44917Y196186D01*
Y196686D01*
X45417Y197186D01*
X46417D01*
X46916Y196686D01*
Y195686D01*
X46417Y195186D01*
X35156Y189583D02*
X38155D01*
Y191083D01*
X37655Y191583D01*
X35656D01*
X35156Y191083D01*
Y189583D01*
X38155Y192582D02*
Y193582D01*
Y193082D01*
X35156D01*
X35656Y192582D01*
X38155Y196581D02*
X35156D01*
X36655Y195081D01*
Y197081D01*
X23749Y174658D02*
Y177657D01*
X22249D01*
X21749Y177157D01*
Y175158D01*
X22249Y174658D01*
X23749D01*
X20750Y177657D02*
X19750D01*
X20250D01*
Y174658D01*
X20750Y175158D01*
X18251D02*
X17751Y174658D01*
X16751D01*
X16251Y175158D01*
Y175658D01*
X16751Y176157D01*
X17251D01*
X16751D01*
X16251Y176657D01*
Y177157D01*
X16751Y177657D01*
X17751D01*
X18251Y177157D01*
X255954Y327275D02*
X255454Y327775D01*
X254455D01*
X253955Y327275D01*
Y325275D01*
X254455Y324776D01*
X255454D01*
X255954Y325275D01*
X256954Y324776D02*
X257954D01*
X257454D01*
Y327775D01*
X256954Y327275D01*
X259453Y324776D02*
X260453D01*
X259953D01*
Y327775D01*
X259453Y327275D01*
X261952D02*
X262452Y327775D01*
X263452D01*
X263952Y327275D01*
Y326775D01*
X263452Y326275D01*
X262952D01*
X263452D01*
X263952Y325775D01*
Y325275D01*
X263452Y324776D01*
X262452D01*
X261952Y325275D01*
X255456Y342139D02*
X254957Y342638D01*
X253957D01*
X253457Y342139D01*
Y340139D01*
X253957Y339639D01*
X254957D01*
X255456Y340139D01*
X256456Y339639D02*
X257456D01*
X256956D01*
Y342638D01*
X256456Y342139D01*
X258955D02*
X259455Y342638D01*
X260455D01*
X260955Y342139D01*
Y340139D01*
X260455Y339639D01*
X259455D01*
X258955Y340139D01*
Y342139D01*
X261954Y340139D02*
X262454Y339639D01*
X263454D01*
X263954Y340139D01*
Y342139D01*
X263454Y342638D01*
X262454D01*
X261954Y342139D01*
Y341639D01*
X262454Y341139D01*
X263954D01*
X562100Y142308D02*
X561600Y142808D01*
X560600D01*
X560101Y142308D01*
Y140309D01*
X560600Y139809D01*
X561600D01*
X562100Y140309D01*
X563100Y139809D02*
X564099D01*
X563599D01*
Y142808D01*
X563100Y142308D01*
X565599D02*
X566099Y142808D01*
X567098D01*
X567598Y142308D01*
Y140309D01*
X567098Y139809D01*
X566099D01*
X565599Y140309D01*
Y142308D01*
X568598D02*
X569098Y142808D01*
X570097D01*
X570597Y142308D01*
Y141808D01*
X570097Y141309D01*
X570597Y140809D01*
Y140309D01*
X570097Y139809D01*
X569098D01*
X568598Y140309D01*
Y140809D01*
X569098Y141309D01*
X568598Y141808D01*
Y142308D01*
X569098Y141309D02*
X570097D01*
X406481Y158597D02*
X405981Y158097D01*
Y157098D01*
X406481Y156598D01*
X408480D01*
X408980Y157098D01*
Y158097D01*
X408480Y158597D01*
X408980Y159597D02*
Y160597D01*
Y160097D01*
X405981D01*
X406481Y159597D01*
Y162096D02*
X405981Y162596D01*
Y163596D01*
X406481Y164095D01*
X408480D01*
X408980Y163596D01*
Y162596D01*
X408480Y162096D01*
X406481D01*
X405981Y165095D02*
Y167095D01*
X406481D01*
X408480Y165095D01*
X408980D01*
X219473Y159611D02*
X218973Y159111D01*
Y158111D01*
X219473Y157611D01*
X221472D01*
X221972Y158111D01*
Y159111D01*
X221472Y159611D01*
X221972Y160610D02*
Y161610D01*
Y161110D01*
X218973D01*
X219473Y160610D01*
Y163109D02*
X218973Y163609D01*
Y164609D01*
X219473Y165109D01*
X221472D01*
X221972Y164609D01*
Y163609D01*
X221472Y163109D01*
X219473D01*
X218973Y168108D02*
X219473Y167108D01*
X220472Y166109D01*
X221472D01*
X221972Y166608D01*
Y167608D01*
X221472Y168108D01*
X220972D01*
X220472Y167608D01*
Y166109D01*
X38099Y274788D02*
X37599Y275288D01*
X36600D01*
X36100Y274788D01*
Y272789D01*
X36600Y272289D01*
X37599D01*
X38099Y272789D01*
X39099Y272289D02*
X40099D01*
X39599D01*
Y275288D01*
X39099Y274788D01*
X41598D02*
X42098Y275288D01*
X43098D01*
X43597Y274788D01*
Y272789D01*
X43098Y272289D01*
X42098D01*
X41598Y272789D01*
Y274788D01*
X46597Y275288D02*
X44597D01*
Y273788D01*
X45597Y274288D01*
X46097D01*
X46597Y273788D01*
Y272789D01*
X46097Y272289D01*
X45097D01*
X44597Y272789D01*
X42987Y232448D02*
X42487Y232948D01*
X41487D01*
X40988Y232448D01*
Y230449D01*
X41487Y229949D01*
X42487D01*
X42987Y230449D01*
X43987Y229949D02*
X44986D01*
X44486D01*
Y232948D01*
X43987Y232448D01*
X46486D02*
X46986Y232948D01*
X47985D01*
X48485Y232448D01*
Y230449D01*
X47985Y229949D01*
X46986D01*
X46486Y230449D01*
Y232448D01*
X49485D02*
X49985Y232948D01*
X50984D01*
X51484Y232448D01*
Y231948D01*
X50984Y231448D01*
X50485D01*
X50984D01*
X51484Y230949D01*
Y230449D01*
X50984Y229949D01*
X49985D01*
X49485Y230449D01*
X62000Y277251D02*
X61500Y276751D01*
Y275751D01*
X62000Y275252D01*
X64000D01*
X64499Y275751D01*
Y276751D01*
X64000Y277251D01*
X64499Y278251D02*
Y279250D01*
Y278750D01*
X61500D01*
X62000Y278251D01*
Y280750D02*
X61500Y281250D01*
Y282249D01*
X62000Y282749D01*
X64000D01*
X64499Y282249D01*
Y281250D01*
X64000Y280750D01*
X62000D01*
X64499Y283749D02*
Y284749D01*
Y284249D01*
X61500D01*
X62000Y283749D01*
X349394Y289339D02*
X348894Y288839D01*
Y287840D01*
X349394Y287340D01*
X351393D01*
X351893Y287840D01*
Y288839D01*
X351393Y289339D01*
Y290339D02*
X351893Y290839D01*
Y291838D01*
X351393Y292338D01*
X349394D01*
X348894Y291838D01*
Y290839D01*
X349394Y290339D01*
X349894D01*
X350394Y290839D01*
Y292338D01*
X348894Y293338D02*
Y295337D01*
X349394D01*
X351393Y293338D01*
X351893D01*
X549428Y144170D02*
X548929Y143670D01*
Y142670D01*
X549428Y142171D01*
X551428D01*
X551928Y142670D01*
Y143670D01*
X551428Y144170D01*
Y145170D02*
X551928Y145669D01*
Y146669D01*
X551428Y147169D01*
X549428D01*
X548929Y146669D01*
Y145669D01*
X549428Y145170D01*
X549928D01*
X550428Y145669D01*
Y147169D01*
X548929Y150168D02*
X549428Y149168D01*
X550428Y148169D01*
X551428D01*
X551928Y148668D01*
Y149668D01*
X551428Y150168D01*
X550928D01*
X550428Y149668D01*
Y148169D01*
X367527Y159845D02*
X368027Y160345D01*
Y161345D01*
X367527Y161845D01*
X365528D01*
X365028Y161345D01*
Y160345D01*
X365528Y159845D01*
Y158846D02*
X365028Y158346D01*
Y157346D01*
X365528Y156846D01*
X367527D01*
X368027Y157346D01*
Y158346D01*
X367527Y158846D01*
X367027D01*
X366528Y158346D01*
Y156846D01*
X367527Y155847D02*
X368027Y155347D01*
Y154347D01*
X367527Y153848D01*
X367027D01*
X366528Y154347D01*
Y154847D01*
Y154347D01*
X366028Y153848D01*
X365528D01*
X365028Y154347D01*
Y155347D01*
X365528Y155847D01*
X178134Y157514D02*
X177634Y157014D01*
Y156015D01*
X178134Y155515D01*
X180133D01*
X180633Y156015D01*
Y157014D01*
X180133Y157514D01*
Y158514D02*
X180633Y159014D01*
Y160013D01*
X180133Y160513D01*
X178134D01*
X177634Y160013D01*
Y159014D01*
X178134Y158514D01*
X178634D01*
X179134Y159014D01*
Y160513D01*
X178134Y161513D02*
X177634Y162013D01*
Y163012D01*
X178134Y163512D01*
X180133D01*
X180633Y163012D01*
Y162013D01*
X180133Y161513D01*
X178134D01*
X500048Y214252D02*
X499548Y214752D01*
X498548D01*
X498049Y214252D01*
Y212253D01*
X498548Y211753D01*
X499548D01*
X500048Y212253D01*
X501048Y214252D02*
X501547Y214752D01*
X502547D01*
X503047Y214252D01*
Y213752D01*
X502547Y213252D01*
X503047Y212753D01*
Y212253D01*
X502547Y211753D01*
X501547D01*
X501048Y212253D01*
Y212753D01*
X501547Y213252D01*
X501048Y213752D01*
Y214252D01*
X501547Y213252D02*
X502547D01*
X506046Y214752D02*
X505046Y214252D01*
X504047Y213252D01*
Y212253D01*
X504546Y211753D01*
X505546D01*
X506046Y212253D01*
Y212753D01*
X505546Y213252D01*
X504047D01*
X512056Y214252D02*
X511556Y214752D01*
X510556D01*
X510056Y214252D01*
Y212253D01*
X510556Y211753D01*
X511556D01*
X512056Y212253D01*
X513055Y214252D02*
X513555Y214752D01*
X514555D01*
X515055Y214252D01*
Y213752D01*
X514555Y213252D01*
X515055Y212753D01*
Y212253D01*
X514555Y211753D01*
X513555D01*
X513055Y212253D01*
Y212753D01*
X513555Y213252D01*
X513055Y213752D01*
Y214252D01*
X513555Y213252D02*
X514555D01*
X517554Y211753D02*
Y214752D01*
X516054Y213252D01*
X518054D01*
X490900Y207528D02*
X490400Y208028D01*
X489400D01*
X488901Y207528D01*
Y205529D01*
X489400Y205029D01*
X490400D01*
X490900Y205529D01*
X491900Y207528D02*
X492400Y208028D01*
X493399D01*
X493899Y207528D01*
Y207028D01*
X493399Y206528D01*
X493899Y206029D01*
Y205529D01*
X493399Y205029D01*
X492400D01*
X491900Y205529D01*
Y206029D01*
X492400Y206528D01*
X491900Y207028D01*
Y207528D01*
X492400Y206528D02*
X493399D01*
X496898Y205029D02*
X494899D01*
X496898Y207028D01*
Y207528D01*
X496398Y208028D01*
X495399D01*
X494899Y207528D01*
X464376Y188007D02*
X463877Y188507D01*
X462877D01*
X462377Y188007D01*
Y186008D01*
X462877Y185508D01*
X463877D01*
X464376Y186008D01*
X465376Y188007D02*
X465876Y188507D01*
X466876D01*
X467376Y188007D01*
Y187508D01*
X466876Y187008D01*
X467376Y186508D01*
Y186008D01*
X466876Y185508D01*
X465876D01*
X465376Y186008D01*
Y186508D01*
X465876Y187008D01*
X465376Y187508D01*
Y188007D01*
X465876Y187008D02*
X466876D01*
X468375Y185508D02*
X469375D01*
X468875D01*
Y188507D01*
X468375Y188007D01*
X490900Y200174D02*
X490400Y200674D01*
X489400D01*
X488901Y200174D01*
Y198175D01*
X489400Y197675D01*
X490400D01*
X490900Y198175D01*
X491900Y200674D02*
X493899D01*
Y200174D01*
X491900Y198175D01*
Y197675D01*
X494899Y198175D02*
X495399Y197675D01*
X496398D01*
X496898Y198175D01*
Y200174D01*
X496398Y200674D01*
X495399D01*
X494899Y200174D01*
Y199675D01*
X495399Y199175D01*
X496898D01*
X442399Y232482D02*
X442899Y231982D01*
X443898D01*
X444398Y232482D01*
Y234481D01*
X443898Y234981D01*
X442899D01*
X442399Y234481D01*
X441399Y231982D02*
X439400D01*
Y232482D01*
X441399Y234481D01*
Y234981D01*
X438400Y231982D02*
X436401D01*
Y232482D01*
X438400Y234481D01*
Y234981D01*
X313762Y215567D02*
X313262Y216067D01*
X312262D01*
X311763Y215567D01*
Y213567D01*
X312262Y213068D01*
X313262D01*
X313762Y213567D01*
X314762Y216067D02*
X316761D01*
Y215567D01*
X314762Y213567D01*
Y213068D01*
X317761Y215567D02*
X318261Y216067D01*
X319260D01*
X319760Y215567D01*
Y215067D01*
X319260Y214567D01*
X318760D01*
X319260D01*
X319760Y214067D01*
Y213567D01*
X319260Y213068D01*
X318261D01*
X317761Y213567D01*
X325962Y215567D02*
X325462Y216066D01*
X324462D01*
X323962Y215567D01*
Y213567D01*
X324462Y213067D01*
X325462D01*
X325962Y213567D01*
X326961Y216066D02*
X328961D01*
Y215567D01*
X326961Y213567D01*
Y213067D01*
X329960D02*
X330960D01*
X330460D01*
Y216066D01*
X329960Y215567D01*
X302165Y206513D02*
X301665Y207013D01*
X300665D01*
X300165Y206513D01*
Y204513D01*
X300665Y204013D01*
X301665D01*
X302165Y204513D01*
X305164Y207013D02*
X304164Y206513D01*
X303164Y205513D01*
Y204513D01*
X303664Y204013D01*
X304664D01*
X305164Y204513D01*
Y205013D01*
X304664Y205513D01*
X303164D01*
X306163Y204513D02*
X306663Y204013D01*
X307663D01*
X308163Y204513D01*
Y206513D01*
X307663Y207013D01*
X306663D01*
X306163Y206513D01*
Y206013D01*
X306663Y205513D01*
X308163D01*
X275560Y188007D02*
X275060Y188507D01*
X274060D01*
X273560Y188007D01*
Y186008D01*
X274060Y185508D01*
X275060D01*
X275560Y186008D01*
X278559Y188507D02*
X277559Y188007D01*
X276559Y187008D01*
Y186008D01*
X277059Y185508D01*
X278059D01*
X278559Y186008D01*
Y186508D01*
X278059Y187008D01*
X276559D01*
X279558Y188007D02*
X280058Y188507D01*
X281058D01*
X281558Y188007D01*
Y187508D01*
X281058Y187008D01*
X281558Y186508D01*
Y186008D01*
X281058Y185508D01*
X280058D01*
X279558Y186008D01*
Y186508D01*
X280058Y187008D01*
X279558Y187508D01*
Y188007D01*
X280058Y187008D02*
X281058D01*
X302165Y198834D02*
X301665Y199334D01*
X300665D01*
X300165Y198834D01*
Y196835D01*
X300665Y196335D01*
X301665D01*
X302165Y196835D01*
X305164Y199334D02*
X304164Y198834D01*
X303164Y197835D01*
Y196835D01*
X303664Y196335D01*
X304664D01*
X305164Y196835D01*
Y197335D01*
X304664Y197835D01*
X303164D01*
X308163Y199334D02*
X307163Y198834D01*
X306163Y197835D01*
Y196835D01*
X306663Y196335D01*
X307663D01*
X308163Y196835D01*
Y197335D01*
X307663Y197835D01*
X306163D01*
X247969Y233283D02*
X247469Y233783D01*
X246470D01*
X245970Y233283D01*
Y231284D01*
X246470Y230784D01*
X247469D01*
X247969Y231284D01*
X250968Y233783D02*
X249969Y233283D01*
X248969Y232283D01*
Y231284D01*
X249469Y230784D01*
X250468D01*
X250968Y231284D01*
Y231784D01*
X250468Y232283D01*
X248969D01*
X253467Y230784D02*
Y233783D01*
X251968Y232283D01*
X253967D01*
X117929Y231960D02*
X118429Y232460D01*
Y233459D01*
X117929Y233959D01*
X115929D01*
X115429Y233459D01*
Y232460D01*
X115929Y231960D01*
X118429Y228961D02*
X117929Y229960D01*
X116929Y230960D01*
X115929D01*
X115429Y230460D01*
Y229461D01*
X115929Y228961D01*
X116429D01*
X116929Y229461D01*
Y230960D01*
X117929Y227961D02*
X118429Y227461D01*
Y226462D01*
X117929Y225962D01*
X115929D01*
X115429Y226462D01*
Y227461D01*
X115929Y227961D01*
X117929D01*
X145488Y230346D02*
X145988Y230846D01*
Y231845D01*
X145488Y232345D01*
X143489D01*
X142989Y231845D01*
Y230846D01*
X143489Y230346D01*
X145988Y227347D02*
Y229346D01*
X144488D01*
X144988Y228346D01*
Y227847D01*
X144488Y227347D01*
X143489D01*
X142989Y227847D01*
Y228846D01*
X143489Y229346D01*
X145488Y226347D02*
X145988Y225847D01*
Y224848D01*
X145488Y224348D01*
X144988D01*
X144488Y224848D01*
X143988Y224348D01*
X143489D01*
X142989Y224848D01*
Y225847D01*
X143489Y226347D01*
X143988D01*
X144488Y225847D01*
X144988Y226347D01*
X145488D01*
X144488Y225847D02*
Y224848D01*
X112879Y206662D02*
X112379Y207162D01*
X111379D01*
X110879Y206662D01*
Y204663D01*
X111379Y204163D01*
X112379D01*
X112879Y204663D01*
X115878Y207162D02*
X113878D01*
Y205663D01*
X114878Y206162D01*
X115378D01*
X115878Y205663D01*
Y204663D01*
X115378Y204163D01*
X114378D01*
X113878Y204663D01*
X118877Y207162D02*
X117877Y206662D01*
X116877Y205663D01*
Y204663D01*
X117377Y204163D01*
X118377D01*
X118877Y204663D01*
Y205163D01*
X118377Y205663D01*
X116877D01*
X73279Y240960D02*
X72780Y241460D01*
X71780D01*
X71280Y240960D01*
Y238961D01*
X71780Y238461D01*
X72780D01*
X73279Y238961D01*
X76278Y241460D02*
X74279D01*
Y239961D01*
X75279Y240460D01*
X75779D01*
X76278Y239961D01*
Y238961D01*
X75779Y238461D01*
X74779D01*
X74279Y238961D01*
X78778Y238461D02*
Y241460D01*
X77278Y239961D01*
X79277D01*
X113016Y198834D02*
X112517Y199334D01*
X111517D01*
X111017Y198834D01*
Y196835D01*
X111517Y196335D01*
X112517D01*
X113016Y196835D01*
X116015Y199334D02*
X114016D01*
Y197835D01*
X115016Y198334D01*
X115516D01*
X116015Y197835D01*
Y196835D01*
X115516Y196335D01*
X114516D01*
X114016Y196835D01*
X117015Y196335D02*
X118015D01*
X117515D01*
Y199334D01*
X117015Y198834D01*
X86583Y188762D02*
X86084Y189262D01*
X85084D01*
X84584Y188762D01*
Y186763D01*
X85084Y186263D01*
X86084D01*
X86583Y186763D01*
X89582Y189262D02*
X87583D01*
Y187763D01*
X88583Y188263D01*
X89082D01*
X89582Y187763D01*
Y186763D01*
X89082Y186263D01*
X88083D01*
X87583Y186763D01*
X90582Y188762D02*
X91082Y189262D01*
X92082D01*
X92581Y188762D01*
Y186763D01*
X92082Y186263D01*
X91082D01*
X90582Y186763D01*
Y188762D01*
X664233Y346487D02*
X664733Y346987D01*
Y347987D01*
X664233Y348487D01*
X662234D01*
X661734Y347987D01*
Y346987D01*
X662234Y346487D01*
X661734Y343988D02*
X664733D01*
X663233Y345488D01*
Y343489D01*
X664733Y342489D02*
Y340490D01*
X664233D01*
X662234Y342489D01*
X661734D01*
X581356Y339582D02*
X580856Y340082D01*
X579856D01*
X579357Y339582D01*
Y337583D01*
X579856Y337083D01*
X580856D01*
X581356Y337583D01*
X583855Y337083D02*
Y340082D01*
X582356Y338583D01*
X584355D01*
X587354Y340082D02*
X586354Y339582D01*
X585355Y338583D01*
Y337583D01*
X585855Y337083D01*
X586854D01*
X587354Y337583D01*
Y338083D01*
X586854Y338583D01*
X585355D01*
X518001Y346293D02*
X517501Y346793D01*
X516501D01*
X516001Y346293D01*
Y344294D01*
X516501Y343794D01*
X517501D01*
X518001Y344294D01*
X520500Y343794D02*
Y346793D01*
X519000Y345294D01*
X521000D01*
X523499Y343794D02*
Y346793D01*
X521999Y345294D01*
X523999D01*
X625953Y396669D02*
X625454Y397169D01*
X624454D01*
X623954Y396669D01*
Y394670D01*
X624454Y394170D01*
X625454D01*
X625953Y394670D01*
X628453Y394170D02*
Y397169D01*
X626953Y395669D01*
X628952D01*
X629952Y396669D02*
X630452Y397169D01*
X631452D01*
X631952Y396669D01*
Y396169D01*
X631452Y395669D01*
X630952D01*
X631452D01*
X631952Y395169D01*
Y394670D01*
X631452Y394170D01*
X630452D01*
X629952Y394670D01*
X610205Y351393D02*
X609705Y351893D01*
X608706D01*
X608206Y351393D01*
Y349394D01*
X608706Y348894D01*
X609705D01*
X610205Y349394D01*
X612705Y348894D02*
Y351893D01*
X611205Y350394D01*
X613204D01*
X614204Y351393D02*
X614704Y351893D01*
X615704D01*
X616203Y351393D01*
Y349394D01*
X615704Y348894D01*
X614704D01*
X614204Y349394D01*
Y351393D01*
X466505Y370960D02*
X466005Y371460D01*
X465005D01*
X464505Y370960D01*
Y368961D01*
X465005Y368461D01*
X466005D01*
X466505Y368961D01*
X467504Y370960D02*
X468004Y371460D01*
X469004D01*
X469504Y370960D01*
Y370460D01*
X469004Y369961D01*
X468504D01*
X469004D01*
X469504Y369461D01*
Y368961D01*
X469004Y368461D01*
X468004D01*
X467504Y368961D01*
X470503D02*
X471003Y368461D01*
X472003D01*
X472503Y368961D01*
Y370960D01*
X472003Y371460D01*
X471003D01*
X470503Y370960D01*
Y370460D01*
X471003Y369961D01*
X472503D01*
X466505Y330960D02*
X466005Y331460D01*
X465005D01*
X464505Y330960D01*
Y328961D01*
X465005Y328461D01*
X466005D01*
X466505Y328961D01*
X467504Y330960D02*
X468004Y331460D01*
X469004D01*
X469504Y330960D01*
Y330460D01*
X469004Y329960D01*
X468504D01*
X469004D01*
X469504Y329461D01*
Y328961D01*
X469004Y328461D01*
X468004D01*
X467504Y328961D01*
X470503Y330960D02*
X471003Y331460D01*
X472003D01*
X472503Y330960D01*
Y330460D01*
X472003Y329960D01*
X472503Y329461D01*
Y328961D01*
X472003Y328461D01*
X471003D01*
X470503Y328961D01*
Y329461D01*
X471003Y329960D01*
X470503Y330460D01*
Y330960D01*
X471003Y329960D02*
X472003D01*
X538223Y263675D02*
X538723Y263175D01*
X539722D01*
X540222Y263675D01*
Y265674D01*
X539722Y266174D01*
X538723D01*
X538223Y265674D01*
X537223Y263675D02*
X536723Y263175D01*
X535724D01*
X535224Y263675D01*
Y264175D01*
X535724Y264675D01*
X536223D01*
X535724D01*
X535224Y265175D01*
Y265674D01*
X535724Y266174D01*
X536723D01*
X537223Y265674D01*
X532225Y263175D02*
X533224Y263675D01*
X534224Y264675D01*
Y265674D01*
X533724Y266174D01*
X532725D01*
X532225Y265674D01*
Y265175D01*
X532725Y264675D01*
X534224D01*
X563786Y248446D02*
X563286Y248946D01*
X562286D01*
X561786Y248446D01*
Y246447D01*
X562286Y245947D01*
X563286D01*
X563786Y246447D01*
X564785Y248446D02*
X565285Y248946D01*
X566285D01*
X566785Y248446D01*
Y247947D01*
X566285Y247447D01*
X565785D01*
X566285D01*
X566785Y246947D01*
Y246447D01*
X566285Y245947D01*
X565285D01*
X564785Y246447D01*
X569784Y248946D02*
X567785D01*
Y247447D01*
X568784Y247947D01*
X569284D01*
X569784Y247447D01*
Y246447D01*
X569284Y245947D01*
X568284D01*
X567785Y246447D01*
X593344Y268276D02*
X592844Y267776D01*
Y266777D01*
X593344Y266277D01*
X595344D01*
X595843Y266777D01*
Y267776D01*
X595344Y268276D01*
X593344Y269276D02*
X592844Y269776D01*
Y270775D01*
X593344Y271275D01*
X593844D01*
X594344Y270775D01*
Y270276D01*
Y270775D01*
X594844Y271275D01*
X595344D01*
X595843Y270775D01*
Y269776D01*
X595344Y269276D01*
X595843Y273775D02*
X592844D01*
X594344Y272275D01*
Y274274D01*
X553562Y321092D02*
X553062Y321591D01*
X552062D01*
X551562Y321092D01*
Y319092D01*
X552062Y318593D01*
X553062D01*
X553562Y319092D01*
X554561Y321092D02*
X555061Y321591D01*
X556061D01*
X556561Y321092D01*
Y320592D01*
X556061Y320092D01*
X555561D01*
X556061D01*
X556561Y319592D01*
Y319092D01*
X556061Y318593D01*
X555061D01*
X554561Y319092D01*
X557560Y321092D02*
X558060Y321591D01*
X559060D01*
X559560Y321092D01*
Y319092D01*
X559060Y318593D01*
X558060D01*
X557560Y319092D01*
Y321092D01*
X553677Y307225D02*
X553177Y307725D01*
X552177D01*
X551677Y307225D01*
Y305226D01*
X552177Y304726D01*
X553177D01*
X553677Y305226D01*
X556676Y304726D02*
X554676D01*
X556676Y306726D01*
Y307225D01*
X556176Y307725D01*
X555176D01*
X554676Y307225D01*
X557675Y305226D02*
X558175Y304726D01*
X559175D01*
X559675Y305226D01*
Y307225D01*
X559175Y307725D01*
X558175D01*
X557675Y307225D01*
Y306726D01*
X558175Y306226D01*
X559675D01*
X656219Y321866D02*
X655719Y322366D01*
X654719D01*
X654219Y321866D01*
Y319866D01*
X654719Y319367D01*
X655719D01*
X656219Y319866D01*
X659218Y319367D02*
X657218D01*
X659218Y321366D01*
Y321866D01*
X658718Y322366D01*
X657718D01*
X657218Y321866D01*
X660218D02*
X660717Y322366D01*
X661717D01*
X662217Y321866D01*
Y321366D01*
X661717Y320866D01*
X662217Y320366D01*
Y319866D01*
X661717Y319367D01*
X660717D01*
X660218Y319866D01*
Y320366D01*
X660717Y320866D01*
X660218Y321366D01*
Y321866D01*
X660717Y320866D02*
X661717D01*
X616111Y321866D02*
X615611Y322366D01*
X614611D01*
X614112Y321866D01*
Y319866D01*
X614611Y319367D01*
X615611D01*
X616111Y319866D01*
X619110Y319367D02*
X617111D01*
X619110Y321366D01*
Y321866D01*
X618610Y322366D01*
X617610D01*
X617111Y321866D01*
X620110Y322366D02*
X622109D01*
Y321866D01*
X620110Y319866D01*
Y319367D01*
X597456Y242322D02*
X597956Y242822D01*
Y243822D01*
X597456Y244322D01*
X595457D01*
X594957Y243822D01*
Y242822D01*
X595457Y242322D01*
X594957Y239323D02*
Y241323D01*
X596956Y239323D01*
X597456D01*
X597956Y239823D01*
Y240823D01*
X597456Y241323D01*
X594957Y236824D02*
X597956D01*
X596457Y238324D01*
Y236324D01*
X553021Y291000D02*
X552521Y291499D01*
X551522D01*
X551022Y291000D01*
Y289000D01*
X551522Y288500D01*
X552521D01*
X553021Y289000D01*
X556020Y288500D02*
X554021D01*
X556020Y290500D01*
Y291000D01*
X555520Y291499D01*
X554521D01*
X554021Y291000D01*
X557020D02*
X557520Y291499D01*
X558520D01*
X559019Y291000D01*
Y290500D01*
X558520Y290000D01*
X558020D01*
X558520D01*
X559019Y289500D01*
Y289000D01*
X558520Y288500D01*
X557520D01*
X557020Y289000D01*
X439195Y150669D02*
X438696Y151169D01*
X437696D01*
X437196Y150669D01*
Y148670D01*
X437696Y148170D01*
X438696D01*
X439195Y148670D01*
X440195Y148170D02*
X441195D01*
X440695D01*
Y151169D01*
X440195Y150669D01*
X442694D02*
X443194Y151169D01*
X444194D01*
X444694Y150669D01*
Y150169D01*
X444194Y149669D01*
X444694Y149170D01*
Y148670D01*
X444194Y148170D01*
X443194D01*
X442694Y148670D01*
Y149170D01*
X443194Y149669D01*
X442694Y150169D01*
Y150669D01*
X443194Y149669D02*
X444194D01*
X252188Y150606D02*
X251688Y151106D01*
X250688D01*
X250188Y150606D01*
Y148607D01*
X250688Y148107D01*
X251688D01*
X252188Y148607D01*
X253187Y148107D02*
X254187D01*
X253687D01*
Y151106D01*
X253187Y150606D01*
X255686Y151106D02*
X257686D01*
Y150606D01*
X255686Y148607D01*
Y148107D01*
X69867Y165573D02*
X69367Y165074D01*
Y164074D01*
X69867Y163574D01*
X71866D01*
X72366Y164074D01*
Y165074D01*
X71866Y165573D01*
X72366Y166573D02*
Y167573D01*
Y167073D01*
X69367D01*
X69867Y166573D01*
X69367Y171072D02*
X69867Y170072D01*
X70866Y169072D01*
X71866D01*
X72366Y169572D01*
Y170572D01*
X71866Y171072D01*
X71366D01*
X70866Y170572D01*
Y169072D01*
X29875Y144626D02*
X30375Y145126D01*
Y146126D01*
X29875Y146626D01*
X27876D01*
X27376Y146126D01*
Y145126D01*
X27876Y144626D01*
X27376Y143626D02*
Y142627D01*
Y143127D01*
X30375D01*
X29875Y143626D01*
Y141127D02*
X30375Y140628D01*
Y139628D01*
X29875Y139128D01*
X29376D01*
X28876Y139628D01*
Y140128D01*
Y139628D01*
X28376Y139128D01*
X27876D01*
X27376Y139628D01*
Y140628D01*
X27876Y141127D01*
X570882Y117486D02*
X570382Y117986D01*
X569383D01*
X568883Y117486D01*
Y115487D01*
X569383Y114987D01*
X570382D01*
X570882Y115487D01*
X571882Y117486D02*
X572382Y117986D01*
X573382D01*
X573881Y117486D01*
Y116986D01*
X573382Y116486D01*
X572882D01*
X573382D01*
X573881Y115986D01*
Y115487D01*
X573382Y114987D01*
X572382D01*
X571882Y115487D01*
X375484Y125015D02*
X374985Y125515D01*
X373985D01*
X373485Y125015D01*
Y123016D01*
X373985Y122516D01*
X374985D01*
X375484Y123016D01*
X378483Y122516D02*
X376484D01*
X378483Y124516D01*
Y125015D01*
X377984Y125515D01*
X376984D01*
X376484Y125015D01*
X188739Y124685D02*
X188240Y125185D01*
X187240D01*
X186740Y124685D01*
Y122685D01*
X187240Y122186D01*
X188240D01*
X188739Y122685D01*
X189739Y122186D02*
X190739D01*
X190239D01*
Y125185D01*
X189739Y124685D01*
X529432Y95926D02*
Y97925D01*
X528932Y98425D01*
X527932D01*
X527432Y97925D01*
Y95926D01*
X527932Y95426D01*
X528932D01*
X528432Y96426D02*
X529432Y95426D01*
X528932D02*
X529432Y95926D01*
X530431Y95426D02*
X531431D01*
X530931D01*
Y98425D01*
X530431Y97925D01*
X534930Y95426D02*
X532931D01*
X534930Y97426D01*
Y97925D01*
X534430Y98425D01*
X533430D01*
X532931Y97925D01*
X482884Y95926D02*
Y97925D01*
X482384Y98425D01*
X481385D01*
X480885Y97925D01*
Y95926D01*
X481385Y95426D01*
X482384D01*
X481885Y96426D02*
X482884Y95426D01*
X482384D02*
X482884Y95926D01*
X483884Y95426D02*
X484884D01*
X484384D01*
Y98425D01*
X483884Y97925D01*
X486383Y95426D02*
X487383D01*
X486883D01*
Y98425D01*
X486383Y97925D01*
X340455Y95926D02*
Y97925D01*
X339955Y98425D01*
X338956D01*
X338456Y97925D01*
Y95926D01*
X338956Y95426D01*
X339955D01*
X339456Y96426D02*
X340455Y95426D01*
X339955D02*
X340455Y95926D01*
X341455Y95426D02*
X342455D01*
X341955D01*
Y98425D01*
X341455Y97925D01*
X343954D02*
X344454Y98425D01*
X345454D01*
X345953Y97925D01*
Y95926D01*
X345454Y95426D01*
X344454D01*
X343954Y95926D01*
Y97925D01*
X292899Y95926D02*
Y97925D01*
X292400Y98425D01*
X291400D01*
X290900Y97925D01*
Y95926D01*
X291400Y95426D01*
X292400D01*
X291900Y96426D02*
X292899Y95426D01*
X292400D02*
X292899Y95926D01*
X293899D02*
X294399Y95426D01*
X295398D01*
X295898Y95926D01*
Y97925D01*
X295398Y98425D01*
X294399D01*
X293899Y97925D01*
Y97426D01*
X294399Y96926D01*
X295898D01*
X150563Y97426D02*
Y99425D01*
X150064Y99925D01*
X149064D01*
X148564Y99425D01*
Y97426D01*
X149064Y96926D01*
X150064D01*
X149564Y97925D02*
X150563Y96926D01*
X150064D02*
X150563Y97426D01*
X151563Y99425D02*
X152063Y99925D01*
X153063D01*
X153562Y99425D01*
Y98925D01*
X153063Y98425D01*
X153562Y97925D01*
Y97426D01*
X153063Y96926D01*
X152063D01*
X151563Y97426D01*
Y97925D01*
X152063Y98425D01*
X151563Y98925D01*
Y99425D01*
X152063Y98425D02*
X153063D01*
X104303Y97426D02*
Y99425D01*
X103804Y99925D01*
X102804D01*
X102304Y99425D01*
Y97426D01*
X102804Y96926D01*
X103804D01*
X103304Y97925D02*
X104303Y96926D01*
X103804D02*
X104303Y97426D01*
X105303Y99925D02*
X107302D01*
Y99425D01*
X105303Y97426D01*
Y96926D01*
X435524Y97426D02*
Y99425D01*
X435024Y99925D01*
X434024D01*
X433524Y99425D01*
Y97426D01*
X434024Y96926D01*
X435024D01*
X434524Y97925D02*
X435524Y96926D01*
X435024D02*
X435524Y97426D01*
X438523Y99925D02*
X437523Y99425D01*
X436523Y98425D01*
Y97426D01*
X437023Y96926D01*
X438023D01*
X438523Y97426D01*
Y97925D01*
X438023Y98425D01*
X436523D01*
X387768Y95926D02*
Y97925D01*
X387268Y98425D01*
X386268D01*
X385769Y97925D01*
Y95926D01*
X386268Y95426D01*
X387268D01*
X386768Y96426D02*
X387768Y95426D01*
X387268D02*
X387768Y95926D01*
X390767Y98425D02*
X388768D01*
Y96926D01*
X389767Y97426D01*
X390267D01*
X390767Y96926D01*
Y95926D01*
X390267Y95426D01*
X389267D01*
X388768Y95926D01*
X247217Y97426D02*
Y99425D01*
X246717Y99925D01*
X245717D01*
X245217Y99425D01*
Y97426D01*
X245717Y96926D01*
X246717D01*
X246217Y97925D02*
X247217Y96926D01*
X246717D02*
X247217Y97426D01*
X249716Y96926D02*
Y99925D01*
X248216Y98425D01*
X250216D01*
X199776Y97426D02*
Y99425D01*
X199276Y99925D01*
X198276D01*
X197776Y99425D01*
Y97426D01*
X198276Y96926D01*
X199276D01*
X198776Y97925D02*
X199776Y96926D01*
X199276D02*
X199776Y97426D01*
X200775Y99425D02*
X201275Y99925D01*
X202275D01*
X202775Y99425D01*
Y98925D01*
X202275Y98425D01*
X201775D01*
X202275D01*
X202775Y97925D01*
Y97426D01*
X202275Y96926D01*
X201275D01*
X200775Y97426D01*
X53280D02*
Y99425D01*
X52780Y99925D01*
X51780D01*
X51280Y99425D01*
Y97426D01*
X51780Y96926D01*
X52780D01*
X52280Y97925D02*
X53280Y96926D01*
X52780D02*
X53280Y97426D01*
X56279Y96926D02*
X54279D01*
X56279Y98925D01*
Y99425D01*
X55779Y99925D01*
X54779D01*
X54279Y99425D01*
X6102Y97426D02*
Y99425D01*
X5602Y99925D01*
X4603D01*
X4103Y99425D01*
Y97426D01*
X4603Y96926D01*
X5602D01*
X5103Y97925D02*
X6102Y96926D01*
X5602D02*
X6102Y97426D01*
X7102Y96926D02*
X8102D01*
X7602D01*
Y99925D01*
X7102Y99425D01*
X0Y0D02*
Y334646D01*
Y0D02*
X669291D01*
Y405512D01*
X460630D02*
X669291D01*
X440945Y425197D02*
X460630Y405512D01*
X149606Y425197D02*
X440945D01*
X129921Y405512D02*
X149606Y425197D01*
X70866Y405512D02*
X129921D01*
X0Y334646D02*
X70866Y405512D01*
X495379Y241472D02*
X498659D01*
X499315Y240816D01*
Y239505D01*
X498659Y238849D01*
X495379D01*
X499315Y235569D02*
X495379D01*
X497347Y237537D01*
Y234913D01*
X306403Y241472D02*
X309683D01*
X310339Y240816D01*
Y239505D01*
X309683Y238849D01*
X306403D01*
X307059Y237537D02*
X306403Y236881D01*
Y235569D01*
X307059Y234913D01*
X307715D01*
X308371Y235569D01*
Y236225D01*
Y235569D01*
X309027Y234913D01*
X309683D01*
X310339Y235569D01*
Y236881D01*
X309683Y237537D01*
X121048Y235772D02*
X124328D01*
X124984Y235116D01*
Y233804D01*
X124328Y233148D01*
X121048D01*
X124984Y229212D02*
Y231836D01*
X122360Y229212D01*
X121704D01*
X121048Y229868D01*
Y231180D01*
X121704Y231836D01*
D13*
X377165Y368621D02*
X386614D01*
X377165Y363109D02*
X386614D01*
X377165Y393520D02*
X386614D01*
X377165Y388008D02*
X386614D01*
X377165Y310801D02*
X386614D01*
X377165Y305290D02*
X386614D01*
X377165Y348659D02*
X386614D01*
X377165Y343147D02*
X386614D01*
X215789Y277038D02*
X225238D01*
X215789Y282550D02*
X225238D01*
X215789Y235406D02*
X225238D01*
X215789Y229894D02*
X225238D01*
X309686Y360151D02*
Y369600D01*
X304174Y360151D02*
Y369600D01*
X299633Y360151D02*
Y369600D01*
X294121Y360151D02*
Y369600D01*
X284174Y360151D02*
Y369600D01*
X289686Y360151D02*
Y369600D01*
X304174Y378978D02*
Y388427D01*
X309686Y378978D02*
Y388427D01*
X299632Y378978D02*
Y388427D01*
X294121Y378978D02*
Y388427D01*
X289686Y378978D02*
Y388427D01*
X284174Y378978D02*
Y388427D01*
X377165Y262768D02*
X386614D01*
X377165Y257256D02*
X386614D01*
X377165Y292717D02*
X386614D01*
X377165Y287205D02*
X386614D01*
X215748Y337402D02*
X225197D01*
X215748Y331890D02*
X225197D01*
X271925Y339377D02*
Y342527D01*
X267220Y331547D02*
X276669D01*
X267220Y337059D02*
X276669D01*
X271945Y324800D02*
Y327950D01*
X295886Y317671D02*
X305335D01*
X295886Y323183D02*
X305335D01*
X295886Y314224D02*
X305335D01*
X295886Y308712D02*
X305335D01*
X267228Y317212D02*
X276677D01*
X267228Y322724D02*
X276677D01*
X266848Y309687D02*
X276297D01*
X266848Y315199D02*
X276297D01*
X36736Y288595D02*
X46185D01*
X36736Y294107D02*
X46185D01*
X49436Y288595D02*
X58885D01*
X49436Y294107D02*
X58885D01*
X574597Y137546D02*
X577747D01*
X573344Y145238D02*
Y154687D01*
X578856Y145238D02*
Y154687D01*
X210597Y157776D02*
Y167224D01*
X205086Y157776D02*
Y167224D01*
X535880Y171426D02*
Y180875D01*
X530368Y171426D02*
Y180875D01*
X399752Y162273D02*
X402901D01*
X391635Y157548D02*
Y166997D01*
X397147Y157548D02*
Y166997D01*
X351614Y171555D02*
Y181004D01*
X346102Y171555D02*
Y181004D01*
X480003Y204954D02*
Y208103D01*
X665989Y339843D02*
Y349292D01*
X660478Y339843D02*
Y349292D01*
X480314Y328386D02*
Y331535D01*
X475591Y339945D02*
X485039D01*
X475591Y334433D02*
X485039D01*
X638976Y339764D02*
Y349213D01*
X644488Y339764D02*
Y349213D01*
X650394Y339764D02*
Y349213D01*
X644882Y339764D02*
Y349213D01*
X215789Y210984D02*
X225238D01*
X215789Y205472D02*
X225238D01*
X215789Y219038D02*
X225238D01*
X215789Y213526D02*
X225238D01*
X215789Y227252D02*
X225238D01*
X215789Y221740D02*
X225238D01*
X215789Y242843D02*
X225238D01*
X215789Y237332D02*
X225238D01*
X215789Y252882D02*
X225238D01*
X215789Y247370D02*
X225238D01*
X215789Y262765D02*
X225238D01*
X215789Y257253D02*
X225238D01*
X215789Y272386D02*
X225238D01*
X215789Y266874D02*
X225238D01*
X243760Y262765D02*
X253209D01*
X243760Y257254D02*
X253209D01*
X377165Y297077D02*
X386614D01*
X377165Y302589D02*
X386614D01*
X377165Y242027D02*
X386614D01*
X377165Y247539D02*
X386614D01*
X377165Y277167D02*
X386614D01*
X377165Y282679D02*
X386614D01*
X377165Y267262D02*
X386614D01*
X377165Y272774D02*
X386614D01*
X377165Y333088D02*
X386614D01*
X377165Y338600D02*
X386614D01*
X377165Y353205D02*
X386614D01*
X377165Y358716D02*
X386614D01*
X377166Y373205D02*
X386615D01*
X377166Y378717D02*
X386615D01*
X377165Y410630D02*
X386614D01*
X377165Y416142D02*
X386614D01*
X291325Y204088D02*
Y207237D01*
X102362Y204088D02*
Y207237D01*
X157825Y171555D02*
Y181004D01*
X163337Y171555D02*
Y181004D01*
X212992Y162501D02*
X216141D01*
X316442Y316473D02*
X325891D01*
X316442Y321985D02*
X325891D01*
X195205Y287402D02*
X196538D01*
X195871D01*
Y291400D01*
X195205Y290734D01*
X196087Y232387D02*
X194754Y231721D01*
X193421Y230388D01*
Y229055D01*
X194087Y228388D01*
X195420D01*
X196087Y229055D01*
Y229721D01*
X195420Y230388D01*
X193421D01*
X393701Y220472D02*
Y219140D01*
Y219806D01*
X397699D01*
X397033Y220472D01*
X405512Y291943D02*
X404845Y291277D01*
X403512D01*
X402846Y291943D01*
Y292610D01*
X403512Y293276D01*
X402846Y293943D01*
Y294609D01*
X403512Y295276D01*
X404845D01*
X405512Y294609D01*
Y293943D01*
X404845Y293276D01*
X405512Y292610D01*
Y291943D01*
X404845Y293276D02*
X403512D01*
X176521Y211968D02*
X177188Y211302D01*
Y209969D01*
X176521Y209303D01*
X175855D01*
X175188Y209969D01*
Y210636D01*
Y209969D01*
X174522Y209303D01*
X173855D01*
X173189Y209969D01*
Y211302D01*
X173855Y211968D01*
Y207970D02*
X173189Y207303D01*
Y205970D01*
X173855Y205304D01*
X176521D01*
X177188Y205970D01*
Y207303D01*
X176521Y207970D01*
X175855D01*
X175188Y207303D01*
Y205304D01*
X183031Y209969D02*
X187030D01*
X185031Y211968D01*
Y209303D01*
X186364Y207970D02*
X187030Y207303D01*
Y205970D01*
X186364Y205304D01*
X183698D01*
X183031Y205970D01*
Y207303D01*
X183698Y207970D01*
X186364D01*
X183031Y418043D02*
Y420709D01*
X185697Y418043D01*
X186364D01*
X187030Y418709D01*
Y420042D01*
X186364Y420709D01*
X173189Y419134D02*
Y417801D01*
Y418467D01*
X177188D01*
X176521Y419134D01*
X465069Y356123D02*
Y360236D01*
X467126Y358179D02*
X463013D01*
X537578Y343022D02*
X533465D01*
X535521Y345079D02*
Y340965D01*
X571042Y334951D02*
X566929D01*
X568986Y337008D02*
Y332894D01*
X624518Y379745D02*
Y383858D01*
X626575Y381802D02*
X622461D01*
X604154Y324498D02*
X608268D01*
X606211Y322441D02*
Y326554D01*
X642984Y324498D02*
X647097D01*
X645041Y322441D02*
Y326554D01*
X413189Y419134D02*
Y417801D01*
Y418467D01*
X417188D01*
X416521Y419134D01*
X423032Y418043D02*
Y420709D01*
X425697Y418043D01*
X426364D01*
X427030Y418709D01*
Y420042D01*
X426364Y420709D01*
X423032Y209969D02*
X427030D01*
X425031Y211968D01*
Y209303D01*
X426364Y207970D02*
X427030Y207303D01*
Y205970D01*
X426364Y205304D01*
X423698D01*
X423032Y205970D01*
Y207303D01*
X423698Y207970D01*
X426364D01*
X416521Y211968D02*
X417188Y211302D01*
Y209969D01*
X416521Y209303D01*
X415855D01*
X415188Y209969D01*
Y210636D01*
Y209969D01*
X414522Y209303D01*
X413855D01*
X413189Y209969D01*
Y211302D01*
X413855Y211968D01*
Y207970D02*
X413189Y207303D01*
Y205970D01*
X413855Y205304D01*
X416521D01*
X417188Y205970D01*
Y207303D01*
X416521Y207970D01*
X415855D01*
X415188Y207303D01*
Y205304D01*
X211968Y370433D02*
Y369100D01*
Y369767D01*
X215967D01*
X215301Y370433D01*
Y301457D02*
X215967Y300790D01*
Y299457D01*
X215301Y298791D01*
X214634D01*
X213968Y299457D01*
X213301Y298791D01*
X212635D01*
X211968Y299457D01*
Y300790D01*
X212635Y301457D01*
X213301D01*
X213968Y300790D01*
X214634Y301457D01*
X215301D01*
X213968Y300790D02*
Y299457D01*
X388583Y403480D02*
Y404813D01*
Y404147D01*
X384584D01*
X385250Y403480D01*
Y406813D02*
X384584Y407479D01*
Y408812D01*
X385250Y409478D01*
X387916D01*
X388583Y408812D01*
Y407479D01*
X387916Y406813D01*
X385250D01*
X388583Y315488D02*
Y316821D01*
Y316155D01*
X384584D01*
X385250Y315488D01*
D14*
X199980Y224370D02*
Y285551D01*
X210571D01*
Y224370D02*
Y285551D01*
X199980Y224370D02*
X210571D01*
X400571D02*
Y305551D01*
X389980Y224370D02*
X400571D01*
X389980D02*
Y305551D01*
X400571D01*
X169980Y416437D02*
X190571D01*
X169980Y213484D02*
Y416437D01*
Y213484D02*
X190571D01*
Y416437D01*
X33627Y176247D02*
Y181365D01*
X39926Y176247D02*
Y181365D01*
X42267Y176247D02*
Y181365D01*
X48566Y176247D02*
Y181365D01*
X618799Y89232D02*
X626729D01*
X618799D02*
Y131240D01*
X626729D01*
X236914Y176575D02*
Y181693D01*
X243214Y176575D02*
Y181693D01*
X416796Y176575D02*
Y181693D01*
X423095Y176575D02*
Y181693D01*
X338683Y173985D02*
X342619D01*
Y175166D01*
X338683Y173985D02*
Y175166D01*
X229449Y176575D02*
Y181693D01*
X235748Y176575D02*
Y181693D01*
X478937Y344882D02*
X499606D01*
Y353937D01*
X472835Y350984D02*
Y353937D01*
Y350984D02*
X478937Y344882D01*
X472835Y365551D02*
X478937Y371654D01*
X472835Y362598D02*
Y365551D01*
X499606Y362598D02*
Y371654D01*
X478937D02*
X499606D01*
X472047Y375394D02*
X500394D01*
X472047Y400197D02*
X500394D01*
Y375394D02*
Y379725D01*
X472047Y375394D02*
Y379725D01*
X500394Y395866D02*
Y400197D01*
X472047Y395866D02*
Y400197D01*
X548819Y356890D02*
Y377559D01*
X539764D02*
X548819D01*
X539764Y350787D02*
X542717D01*
X548819Y356890D01*
X522047D02*
X528150Y350787D01*
X531102D01*
X522047Y377559D02*
X531102D01*
X522047Y356890D02*
Y377559D01*
X585630Y350590D02*
Y376969D01*
X578543Y343504D02*
X585630Y350590D01*
X573819Y343504D02*
X578543D01*
X559252D02*
X563976D01*
X552165Y350590D02*
X559252Y343504D01*
X552165Y350590D02*
Y376969D01*
X573819D02*
X585630D01*
X552165D02*
X563976D01*
X638386Y368504D02*
X659055D01*
Y377559D01*
X632283Y374606D02*
Y377559D01*
Y374606D02*
X638386Y368504D01*
X632283Y389173D02*
X638386Y395275D01*
X632283Y386221D02*
Y389173D01*
X659055Y386221D02*
Y395275D01*
X638386D02*
X659055D01*
X589567Y282480D02*
Y308858D01*
X596654Y315945D01*
X601378D01*
X589567Y282480D02*
X601378D01*
X611221D02*
X623032D01*
X611221Y315945D02*
X615945D01*
X623032Y308858D01*
Y282480D02*
Y308858D01*
X628397Y282480D02*
Y308858D01*
X635483Y315945D01*
X640207D01*
X628397Y282480D02*
X640207D01*
X650050D02*
X661861D01*
X650050Y315945D02*
X654774D01*
X661861Y308858D01*
Y282480D02*
Y308858D01*
X17441Y171433D02*
X22559D01*
X17441Y165134D02*
X22559D01*
X618799Y182421D02*
X626729D01*
X618799Y140413D02*
Y182421D01*
Y140413D02*
X626729D01*
X431299Y176575D02*
Y181693D01*
X425000Y176575D02*
Y181693D01*
X77981Y197801D02*
X79733D01*
X91741D02*
X93492D01*
Y215794D01*
X77981D02*
X79733D01*
X91741D02*
X93492D01*
X77981Y197801D02*
Y215794D01*
X454843Y197697D02*
X456595D01*
X468603D02*
X470354D01*
Y215689D01*
X454843D02*
X456595D01*
X468603D02*
X470354D01*
X454843Y197697D02*
Y215689D01*
X265866Y197697D02*
X267618D01*
X279626D02*
X281378D01*
Y215689D01*
X265866D02*
X267618D01*
X279626D02*
X281378D01*
X265866Y197697D02*
Y215689D01*
X523437Y173985D02*
Y175166D01*
X527374Y173985D02*
Y175166D01*
X523437Y173985D02*
X527374D01*
X150744Y173985D02*
Y175166D01*
X154681Y173985D02*
Y175166D01*
X150744Y173985D02*
X154681D01*
X430571Y213484D02*
Y416437D01*
X409980Y213484D02*
X430571D01*
X409980D02*
Y416437D01*
X430571D01*
X199980Y294370D02*
Y375551D01*
X210571D01*
Y294370D02*
Y375551D01*
X199980Y294370D02*
X210571D01*
X400571Y310370D02*
Y411551D01*
X389980Y310370D02*
X400571D01*
X389980D02*
Y411551D01*
X400571D01*
D15*
X51700Y279999D02*
X56621D01*
X41460Y279666D02*
Y284587D01*
X46362Y237563D02*
Y242484D01*
X59999Y164862D02*
Y169783D01*
X570746Y122355D02*
Y127276D01*
X584750Y270533D02*
X589671D01*
X586056Y239763D02*
X590977D01*
X375569Y129394D02*
Y134315D01*
X253999Y164862D02*
Y169783D01*
X188680Y128641D02*
Y133562D01*
X102389Y195793D02*
Y200714D01*
X102389Y188319D02*
Y193240D01*
X264033Y229823D02*
Y234744D01*
X453654Y229823D02*
Y234744D01*
X290898Y195793D02*
Y200714D01*
X479983Y196714D02*
Y201635D01*
X612143Y340059D02*
Y344980D01*
X660773Y358267D02*
X665694D01*
X27067Y156001D02*
X31988D01*
X563324Y259544D02*
X568246D01*
X552282Y262605D02*
Y267526D01*
X568818Y285716D02*
Y290637D01*
X355807Y291340D02*
X360728D01*
X440944Y164862D02*
Y169783D01*
X74802Y229823D02*
Y234744D01*
X479983Y188111D02*
Y193032D01*
X290842Y188319D02*
Y193240D01*
D16*
X4972Y162777D02*
X11972D01*
Y149777D02*
Y162777D01*
X4972Y149777D02*
X11972D01*
X4972D02*
Y162777D01*
X536838Y155758D02*
X545838D01*
Y137758D02*
Y155758D01*
X536838Y137758D02*
X545838D01*
X536838D02*
Y155758D01*
X576469Y233475D02*
Y246475D01*
Y233475D02*
X583469D01*
Y246475D01*
X576469D02*
X583469D01*
X545781Y278853D02*
X558781D01*
Y285853D01*
X545781D02*
X558781D01*
X545781Y278853D02*
Y285853D01*
X247437Y153784D02*
X260437D01*
Y160784D01*
X247437D02*
X260437D01*
X247437Y153784D02*
Y160784D01*
X434445Y153784D02*
Y160784D01*
X447445D01*
Y153784D02*
Y160784D01*
X434445Y153784D02*
X447445D01*
X423650Y171784D02*
X432650D01*
Y153784D02*
Y171784D01*
X423650Y153784D02*
X432650D01*
X423650D02*
Y171784D01*
X352883Y149940D02*
Y167940D01*
Y149940D02*
X361883D01*
Y167940D01*
X352883D02*
X361883D01*
X235564Y171784D02*
X244564D01*
Y153784D02*
Y171784D01*
X235564Y153784D02*
X244564D01*
X235564D02*
Y171784D01*
X140327Y219346D02*
Y237347D01*
X131327D02*
X140327D01*
X131327Y219346D02*
Y237347D01*
Y219346D02*
X140327D01*
X74366Y212658D02*
Y225658D01*
X67366D02*
X74366D01*
X67366Y212658D02*
Y225658D01*
Y212658D02*
X74366D01*
X130196Y219346D02*
Y237347D01*
X121196D02*
X130196D01*
X121196Y219346D02*
Y237347D01*
Y219346D02*
X130196D01*
X99131Y237531D02*
Y250531D01*
Y237531D02*
X106131D01*
Y250531D01*
X99131D02*
X106131D01*
X98226Y237531D02*
Y250531D01*
X91226D02*
X98226D01*
X91226Y237531D02*
Y250531D01*
Y237531D02*
X98226D01*
X331272Y219346D02*
Y237347D01*
X322272D02*
X331272D01*
X322272Y219346D02*
Y237347D01*
Y219346D02*
X331272D01*
X320261Y219346D02*
Y237347D01*
X311261D02*
X320261D01*
X311261Y219346D02*
Y237347D01*
Y219346D02*
X320261D01*
X286965Y237531D02*
Y250531D01*
X279965D02*
X286965D01*
X279965Y237531D02*
Y250531D01*
Y237531D02*
X286965D01*
X287839Y237531D02*
Y250532D01*
Y237531D02*
X294839D01*
Y250532D01*
X287839D02*
X294839D01*
X518358Y218032D02*
Y236032D01*
X509358D02*
X518358D01*
X509358Y218032D02*
Y236032D01*
Y218032D02*
X518358D01*
X506547D02*
Y236032D01*
X497547D02*
X506547D01*
X497547Y218032D02*
Y236032D01*
Y218032D02*
X506547D01*
X477020Y236947D02*
Y249947D01*
Y236947D02*
X484020D01*
Y249947D01*
X477020D02*
X484020D01*
X475957Y236947D02*
Y249947D01*
X468957D02*
X475957D01*
X468957Y236947D02*
Y249947D01*
Y236947D02*
X475957D01*
X563640Y315832D02*
X581640D01*
Y324832D01*
X563640D02*
X581640D01*
X563640Y315832D02*
Y324832D01*
X16706Y162500D02*
X23706D01*
Y149500D02*
Y162500D01*
X16706Y149500D02*
X23706D01*
X16706D02*
Y162500D01*
X558907Y252406D02*
Y259406D01*
X545907Y252406D02*
X558907D01*
X545907D02*
Y259406D01*
X558907D01*
X545619Y269802D02*
Y276802D01*
X558619D01*
Y269802D02*
Y276802D01*
X545619Y269802D02*
X558619D01*
X562537Y276460D02*
Y283459D01*
X575537D01*
Y276460D02*
Y283459D01*
X562537Y276460D02*
X575537D01*
X53500Y153784D02*
X66500D01*
Y160784D01*
X53500D02*
X66500D01*
X53500Y153784D02*
Y160784D01*
X40917Y153784D02*
Y171783D01*
Y153784D02*
X49917D01*
Y171783D01*
X40917D02*
X49917D01*
X446194Y213382D02*
X453194D01*
X446194D02*
Y226382D01*
X453194D01*
Y213382D02*
Y226382D01*
X256343Y212658D02*
X263342D01*
X256343D02*
Y225658D01*
X263342D01*
Y212658D02*
Y225658D01*
X165680Y150167D02*
Y168167D01*
Y150167D02*
X174680D01*
Y168167D01*
X165680D02*
X174680D01*
D17*
X516063Y83898D02*
Y93898D01*
X506063Y83898D02*
Y93898D01*
X496063Y83898D02*
Y93898D01*
X526221Y21969D02*
Y26693D01*
Y31417D02*
Y36142D01*
Y40866D02*
Y45591D01*
X485906Y21969D02*
Y26693D01*
Y31417D02*
Y36142D01*
Y40866D02*
Y45591D01*
X523701Y21339D02*
X526221D01*
X514252D02*
X518976D01*
X504803D02*
X509527D01*
X495350D02*
X500079D01*
X485906D02*
X490630D01*
X526221Y46535D02*
Y83898D01*
X485906Y46535D02*
Y83898D01*
Y46535D02*
X526221D01*
X485906Y83898D02*
X526221D01*
X436693D02*
X477008D01*
X436693Y46535D02*
X477008D01*
X436693D02*
Y83898D01*
X477008Y46535D02*
Y83898D01*
X436693Y21339D02*
X441417D01*
X446138D02*
X450866D01*
X455590D02*
X460315D01*
X465039D02*
X469764D01*
X474488D02*
X477008D01*
X436693Y40866D02*
Y45591D01*
Y31417D02*
Y36142D01*
Y21969D02*
Y26693D01*
X477008Y40866D02*
Y45591D01*
Y31417D02*
Y36142D01*
Y21969D02*
Y26693D01*
X446850Y83898D02*
Y93898D01*
X456850Y83898D02*
Y93898D01*
X466850Y83898D02*
Y93898D01*
X421575Y83898D02*
Y93898D01*
X411575Y83898D02*
Y93898D01*
X401575Y83898D02*
Y93898D01*
X431732Y21969D02*
Y26693D01*
Y31417D02*
Y36142D01*
Y40866D02*
Y45591D01*
X391417Y21969D02*
Y26693D01*
Y31417D02*
Y36142D01*
Y40866D02*
Y45591D01*
X429213Y21339D02*
X431732D01*
X419764D02*
X424488D01*
X410315D02*
X415039D01*
X400862D02*
X405590D01*
X391417D02*
X396142D01*
X431732Y46535D02*
Y83898D01*
X391417Y46535D02*
Y83898D01*
Y46535D02*
X431732D01*
X391417Y83898D02*
X431732D01*
X342205D02*
X382520D01*
X342205Y46535D02*
X382520D01*
X342205D02*
Y83898D01*
X382520Y46535D02*
Y83898D01*
X342205Y21339D02*
X346929D01*
X351649D02*
X356378D01*
X361102D02*
X365827D01*
X370551D02*
X375276D01*
X380000D02*
X382520D01*
X342205Y40866D02*
Y45591D01*
Y31417D02*
Y36142D01*
Y21969D02*
Y26693D01*
X382520Y40866D02*
Y45591D01*
Y31417D02*
Y36142D01*
Y21969D02*
Y26693D01*
X352362Y83898D02*
Y93898D01*
X362362Y83898D02*
Y93898D01*
X372362Y83898D02*
Y93898D01*
X327086Y83898D02*
Y93898D01*
X317087Y83898D02*
Y93898D01*
X307086Y83898D02*
Y93898D01*
X337244Y21969D02*
Y26693D01*
Y31417D02*
Y36142D01*
Y40866D02*
Y45591D01*
X296929Y21969D02*
Y26693D01*
Y31417D02*
Y36142D01*
Y40866D02*
Y45591D01*
X334724Y21339D02*
X337244D01*
X325276D02*
X330000D01*
X315827D02*
X320551D01*
X306374D02*
X311102D01*
X296929D02*
X301654D01*
X337244Y46535D02*
Y83898D01*
X296929Y46535D02*
Y83898D01*
Y46535D02*
X337244D01*
X296929Y83898D02*
X337244D01*
X247717D02*
X288032D01*
X247717Y46535D02*
X288032D01*
X247717D02*
Y83898D01*
X288032Y46535D02*
Y83898D01*
X247717Y21339D02*
X252441D01*
X257161D02*
X261890D01*
X266614D02*
X271339D01*
X276063D02*
X280787D01*
X285512D02*
X288032D01*
X247717Y40866D02*
Y45591D01*
Y31417D02*
Y36142D01*
Y21969D02*
Y26693D01*
X288032Y40866D02*
Y45591D01*
Y31417D02*
Y36142D01*
Y21969D02*
Y26693D01*
X257874Y83898D02*
Y93898D01*
X267874Y83898D02*
Y93898D01*
X277874Y83898D02*
Y93898D01*
X232598Y83898D02*
Y93898D01*
X222598Y83898D02*
Y93898D01*
X212598Y83898D02*
Y93898D01*
X242756Y21969D02*
Y26693D01*
Y31417D02*
Y36142D01*
Y40866D02*
Y45591D01*
X202441Y21969D02*
Y26693D01*
Y31417D02*
Y36142D01*
Y40866D02*
Y45591D01*
X240236Y21339D02*
X242756D01*
X230787D02*
X235512D01*
X221339D02*
X226063D01*
X211886D02*
X216614D01*
X202441D02*
X207165D01*
X242756Y46535D02*
Y83898D01*
X202441Y46535D02*
Y83898D01*
Y46535D02*
X242756D01*
X202441Y83898D02*
X242756D01*
X531181D02*
X571496D01*
X531181Y46535D02*
X571496D01*
X531181D02*
Y83898D01*
X571496Y46535D02*
Y83898D01*
X531181Y21339D02*
X535906D01*
X540626D02*
X545354D01*
X550079D02*
X554803D01*
X559527D02*
X564252D01*
X568976D02*
X571496D01*
X531181Y40866D02*
Y45591D01*
Y31417D02*
Y36142D01*
Y21969D02*
Y26693D01*
X571496Y40866D02*
Y45591D01*
Y31417D02*
Y36142D01*
Y21969D02*
Y26693D01*
X541339Y83898D02*
Y93898D01*
X551339Y83898D02*
Y93898D01*
X561339Y83898D02*
Y93898D01*
X43622Y83898D02*
Y93898D01*
X33622Y83898D02*
Y93898D01*
X23622Y83898D02*
Y93898D01*
X53780Y21969D02*
Y26693D01*
Y31417D02*
Y36142D01*
Y40866D02*
Y45591D01*
X13465Y21969D02*
Y26693D01*
Y31417D02*
Y36142D01*
Y40866D02*
Y45591D01*
X51260Y21339D02*
X53780D01*
X41811D02*
X46535D01*
X32362D02*
X37086D01*
X22909D02*
X27638D01*
X13465D02*
X18189D01*
X53780Y46535D02*
Y83898D01*
X13465Y46535D02*
Y83898D01*
Y46535D02*
X53780D01*
X13465Y83898D02*
X53780D01*
X58740D02*
X99055D01*
X58740Y46535D02*
X99055D01*
X58740D02*
Y83898D01*
X99055Y46535D02*
Y83898D01*
X58740Y21339D02*
X63464D01*
X68185D02*
X72913D01*
X77638D02*
X82362D01*
X87086D02*
X91811D01*
X96535D02*
X99055D01*
X58740Y40866D02*
Y45591D01*
Y31417D02*
Y36142D01*
Y21969D02*
Y26693D01*
X99055Y40866D02*
Y45591D01*
Y31417D02*
Y36142D01*
Y21969D02*
Y26693D01*
X68898Y83898D02*
Y93898D01*
X78898Y83898D02*
Y93898D01*
X88898Y83898D02*
Y93898D01*
X138110Y83898D02*
Y93898D01*
X128110Y83898D02*
Y93898D01*
X118110Y83898D02*
Y93898D01*
X148268Y21969D02*
Y26693D01*
Y31417D02*
Y36142D01*
Y40866D02*
Y45591D01*
X107953Y21969D02*
Y26693D01*
Y31417D02*
Y36142D01*
Y40866D02*
Y45591D01*
X145748Y21339D02*
X148268D01*
X136299D02*
X141024D01*
X126850D02*
X131575D01*
X117398D02*
X122126D01*
X107953D02*
X112677D01*
X148268Y46535D02*
Y83898D01*
X107953Y46535D02*
Y83898D01*
Y46535D02*
X148268D01*
X107953Y83898D02*
X148268D01*
X153228D02*
X193543D01*
X153228Y46535D02*
X193543D01*
X153228D02*
Y83898D01*
X193543Y46535D02*
Y83898D01*
X153228Y21339D02*
X157953D01*
X162673D02*
X167402D01*
X172126D02*
X176850D01*
X181575D02*
X186299D01*
X191024D02*
X193543D01*
X153228Y40866D02*
Y45591D01*
Y31417D02*
Y36142D01*
Y21969D02*
Y26693D01*
X193543Y40866D02*
Y45591D01*
Y31417D02*
Y36142D01*
Y21969D02*
Y26693D01*
X163386Y83898D02*
Y93898D01*
X173386Y83898D02*
Y93898D01*
X183386Y83898D02*
Y93898D01*
M02*
