G04*
G04 #@! TF.GenerationSoftware,Altium Limited,Altium Designer,20.1.14 (287)*
G04*
G04 Layer_Color=128*
%FSLAX25Y25*%
%MOIN*%
G70*
G04*
G04 #@! TF.SameCoordinates,F236638D-4B1B-45E3-9A0F-FA1DF93A8DFF*
G04*
G04*
G04 #@! TF.FilePolarity,Positive*
G04*
G01*
G75*
%ADD12C,0.01000*%
%ADD18R,0.05347X0.05347*%
%ADD20R,0.05347X0.05347*%
%ADD22R,0.08000X0.06000*%
%ADD23R,0.06000X0.08000*%
%ADD24R,0.01181X0.02559*%
%ADD25R,0.10000X0.08000*%
%ADD29R,0.06724X0.06331*%
%ADD34R,0.08000X0.10000*%
%ADD37R,0.38600X0.45600*%
%ADD70R,0.36600X0.43600*%
%ADD108R,0.05937X0.05937*%
%ADD109R,0.06900X0.14500*%
%ADD110R,0.03969X0.03969*%
%ADD111R,0.03181X0.04559*%
G04:AMPARAMS|DCode=112|XSize=79.06mil|YSize=59.37mil|CornerRadius=19.84mil|HoleSize=0mil|Usage=FLASHONLY|Rotation=0.000|XOffset=0mil|YOffset=0mil|HoleType=Round|Shape=RoundedRectangle|*
%AMROUNDEDRECTD112*
21,1,0.07906,0.01968,0,0,0.0*
21,1,0.03937,0.05937,0,0,0.0*
1,1,0.03969,0.01968,-0.00984*
1,1,0.03969,-0.01968,-0.00984*
1,1,0.03969,-0.01968,0.00984*
1,1,0.03969,0.01968,0.00984*
%
%ADD112ROUNDEDRECTD112*%
%ADD113C,0.05937*%
%ADD114O,0.05740X0.02984*%
%ADD115O,0.02984X0.05740*%
%ADD116R,0.08693X0.12630*%
%ADD117O,0.07315X0.03181*%
%ADD118R,0.05937X0.04362*%
%ADD119R,0.12630X0.08299*%
%ADD120O,0.04362X0.07709*%
%ADD121R,0.13811X0.13811*%
G04:AMPARAMS|DCode=122|XSize=79.06mil|YSize=59.37mil|CornerRadius=19.84mil|HoleSize=0mil|Usage=FLASHONLY|Rotation=270.000|XOffset=0mil|YOffset=0mil|HoleType=Round|Shape=RoundedRectangle|*
%AMROUNDEDRECTD122*
21,1,0.07906,0.01968,0,0,270.0*
21,1,0.03937,0.05937,0,0,270.0*
1,1,0.03969,-0.00984,-0.01968*
1,1,0.03969,-0.00984,0.01968*
1,1,0.03969,0.00984,0.01968*
1,1,0.03969,0.00984,-0.01968*
%
%ADD122ROUNDEDRECTD122*%
%ADD123R,0.03969X0.05937*%
%ADD124R,0.05906X0.02165*%
%ADD125R,0.01969X0.02362*%
%ADD126R,0.01968X0.02362*%
D12*
X0Y0D02*
Y334646D01*
Y0D02*
X669291D01*
Y405512D01*
X460630D02*
X669291D01*
X440945Y425197D02*
X460630Y405512D01*
X149606Y425197D02*
X440945D01*
X129921Y405512D02*
X149606Y425197D01*
X70866Y405512D02*
X129921D01*
X0Y334646D02*
X70866Y405512D01*
X495379Y241472D02*
X498659D01*
X499315Y240816D01*
Y239505D01*
X498659Y238849D01*
X495379D01*
X499315Y235569D02*
X495379D01*
X497347Y237537D01*
Y234913D01*
X306403Y241472D02*
X309683D01*
X310339Y240816D01*
Y239505D01*
X309683Y238849D01*
X306403D01*
X307059Y237537D02*
X306403Y236881D01*
Y235569D01*
X307059Y234913D01*
X307715D01*
X308371Y235569D01*
Y236225D01*
Y235569D01*
X309027Y234913D01*
X309683D01*
X310339Y235569D01*
Y236881D01*
X309683Y237537D01*
X121048Y235772D02*
X124328D01*
X124984Y235116D01*
Y233804D01*
X124328Y233148D01*
X121048D01*
X124984Y229212D02*
Y231836D01*
X122360Y229212D01*
X121704D01*
X121048Y229868D01*
Y231180D01*
X121704Y231836D01*
D18*
X384941Y260012D02*
D03*
X378839D02*
D03*
X384941Y315823D02*
D03*
X378838D02*
D03*
X384941Y270018D02*
D03*
X378838D02*
D03*
X378838Y365865D02*
D03*
X384941D02*
D03*
X384941Y355961D02*
D03*
X378838D02*
D03*
X384941Y289961D02*
D03*
X378838D02*
D03*
X384941Y279960D02*
D03*
X378838D02*
D03*
X268749Y342834D02*
D03*
X274851D02*
D03*
X274624Y349286D02*
D03*
X268522D02*
D03*
X441831Y272291D02*
D03*
X447933D02*
D03*
X441831Y263779D02*
D03*
X447933D02*
D03*
X268602Y336415D02*
D03*
X274705D02*
D03*
X324218Y336415D02*
D03*
X318116D02*
D03*
X324218Y343540D02*
D03*
X318116D02*
D03*
X255197Y349286D02*
D03*
X261300D02*
D03*
X255197Y341922D02*
D03*
X261300D02*
D03*
X313051Y300000D02*
D03*
X306949D02*
D03*
X326102Y300000D02*
D03*
X320000D02*
D03*
X563051Y157178D02*
D03*
X556949D02*
D03*
X563051Y135035D02*
D03*
X556949D02*
D03*
X372518Y145442D02*
D03*
X378621D02*
D03*
X378073Y168590D02*
D03*
X371971D02*
D03*
X626870Y342520D02*
D03*
X632972D02*
D03*
X186201Y168898D02*
D03*
X192303D02*
D03*
X185630Y145669D02*
D03*
X191732D02*
D03*
D20*
X306930Y380652D02*
D03*
Y386754D02*
D03*
X296877Y380652D02*
D03*
Y386754D02*
D03*
X286930Y380652D02*
D03*
Y386754D02*
D03*
X331270Y337517D02*
D03*
Y343620D02*
D03*
X42207Y248347D02*
D03*
Y254449D02*
D03*
X50305D02*
D03*
Y248347D02*
D03*
X207842Y165551D02*
D03*
Y159449D02*
D03*
X576100Y134541D02*
D03*
Y140644D02*
D03*
X394391Y159221D02*
D03*
Y165323D02*
D03*
X401265Y165298D02*
D03*
Y159196D02*
D03*
X214567Y165551D02*
D03*
Y159449D02*
D03*
X647638Y355217D02*
D03*
Y361319D02*
D03*
X663386Y347539D02*
D03*
Y341437D02*
D03*
X600394Y346591D02*
D03*
Y340488D02*
D03*
X647638Y341437D02*
D03*
Y347539D02*
D03*
X641732Y341437D02*
D03*
Y347539D02*
D03*
X576159Y153014D02*
D03*
Y146912D02*
D03*
D22*
X102362Y255969D02*
D03*
Y247969D02*
D03*
X306930Y367600D02*
D03*
Y359600D02*
D03*
X296877Y367600D02*
D03*
Y359600D02*
D03*
X286629Y367600D02*
D03*
Y359600D02*
D03*
X566246Y116826D02*
D03*
Y124826D02*
D03*
X575255Y116826D02*
D03*
Y124826D02*
D03*
X588583Y243961D02*
D03*
Y235961D02*
D03*
X379921Y123953D02*
D03*
Y131953D02*
D03*
X371308D02*
D03*
Y123953D02*
D03*
X357383Y155284D02*
D03*
Y163284D02*
D03*
X184378Y123047D02*
D03*
Y131047D02*
D03*
X192913Y123047D02*
D03*
Y131047D02*
D03*
X117413Y225974D02*
D03*
Y233974D02*
D03*
X125984Y225972D02*
D03*
Y233972D02*
D03*
X86614Y255969D02*
D03*
Y247969D02*
D03*
X110712Y247968D02*
D03*
Y255968D02*
D03*
X94862Y247969D02*
D03*
Y255969D02*
D03*
X315761Y225961D02*
D03*
Y233961D02*
D03*
X306039Y225961D02*
D03*
Y233961D02*
D03*
X488189Y247969D02*
D03*
Y255969D02*
D03*
X480315Y247969D02*
D03*
Y255969D02*
D03*
X472815Y247969D02*
D03*
Y255969D02*
D03*
X465341Y255929D02*
D03*
Y247929D02*
D03*
X291338Y247969D02*
D03*
Y255968D02*
D03*
X283839Y247969D02*
D03*
Y255968D02*
D03*
X494714Y225961D02*
D03*
Y233961D02*
D03*
X501969Y225961D02*
D03*
Y233961D02*
D03*
X655512Y348488D02*
D03*
Y340488D02*
D03*
X607874Y128803D02*
D03*
Y120803D02*
D03*
X607874Y101047D02*
D03*
Y109047D02*
D03*
X541338Y142775D02*
D03*
Y150775D02*
D03*
X607874Y159906D02*
D03*
Y151906D02*
D03*
X607874Y172378D02*
D03*
Y180378D02*
D03*
X580000Y236158D02*
D03*
Y244158D02*
D03*
X587289Y266514D02*
D03*
Y274514D02*
D03*
Y260622D02*
D03*
Y252622D02*
D03*
X298839Y255969D02*
D03*
Y247969D02*
D03*
X275590Y247969D02*
D03*
Y255968D02*
D03*
X169718Y155512D02*
D03*
Y163512D02*
D03*
X541339Y108237D02*
D03*
Y116237D02*
D03*
X531496Y118047D02*
D03*
Y126047D02*
D03*
X496063Y108237D02*
D03*
Y116237D02*
D03*
X485906Y118047D02*
D03*
Y126047D02*
D03*
X446850Y108237D02*
D03*
Y116237D02*
D03*
X437008Y118047D02*
D03*
Y126047D02*
D03*
X401575Y108237D02*
D03*
Y116237D02*
D03*
X391417Y118047D02*
D03*
Y126047D02*
D03*
X352362Y108237D02*
D03*
Y116237D02*
D03*
X342520Y118047D02*
D03*
Y126047D02*
D03*
X307086Y108237D02*
D03*
Y116237D02*
D03*
X296899Y118047D02*
D03*
Y126047D02*
D03*
X257874Y108237D02*
D03*
Y116237D02*
D03*
X248032Y118047D02*
D03*
Y126047D02*
D03*
X212598Y108237D02*
D03*
Y116237D02*
D03*
X202416Y118047D02*
D03*
Y126047D02*
D03*
X163386Y108237D02*
D03*
Y116237D02*
D03*
X154213Y118047D02*
D03*
Y126047D02*
D03*
X118110Y108237D02*
D03*
Y116237D02*
D03*
X107953Y118047D02*
D03*
Y126047D02*
D03*
X68996Y108237D02*
D03*
Y116237D02*
D03*
X59153Y118047D02*
D03*
Y126047D02*
D03*
X12565Y118508D02*
D03*
Y126508D02*
D03*
X22421Y108237D02*
D03*
Y116237D02*
D03*
D23*
X275711Y321452D02*
D03*
X267710D02*
D03*
X300000Y300000D02*
D03*
X292000D02*
D03*
X325421Y316560D02*
D03*
X317421D02*
D03*
X317421Y326375D02*
D03*
X325421D02*
D03*
X45461Y282126D02*
D03*
X37461D02*
D03*
X50361Y240024D02*
D03*
X42361D02*
D03*
X45402Y179214D02*
D03*
X37402D02*
D03*
X573089Y288124D02*
D03*
X565089D02*
D03*
X572785Y280000D02*
D03*
X564785D02*
D03*
X556547Y241472D02*
D03*
X548547D02*
D03*
X623133Y365779D02*
D03*
X631133D02*
D03*
X616205Y342520D02*
D03*
X608205D02*
D03*
X548499Y249817D02*
D03*
X556499D02*
D03*
X548547Y265197D02*
D03*
X556547D02*
D03*
X548484Y273514D02*
D03*
X556484D02*
D03*
X232598Y178709D02*
D03*
X240598D02*
D03*
X549319Y110108D02*
D03*
X557319D02*
D03*
X503874Y110236D02*
D03*
X511874D02*
D03*
X455201D02*
D03*
X463201D02*
D03*
X409386D02*
D03*
X417386D02*
D03*
X360445D02*
D03*
X368445D02*
D03*
X314898Y110236D02*
D03*
X322898D02*
D03*
X266201Y110236D02*
D03*
X274201D02*
D03*
X220409D02*
D03*
X228410D02*
D03*
X171315D02*
D03*
X179315D02*
D03*
X125921D02*
D03*
X133921D02*
D03*
X77201D02*
D03*
X85201D02*
D03*
X31678Y110236D02*
D03*
X39678D02*
D03*
D24*
X531496Y108957D02*
D03*
Y103642D02*
D03*
X485906Y108957D02*
D03*
Y103642D02*
D03*
X437008Y108957D02*
D03*
Y103642D02*
D03*
X391417Y108957D02*
D03*
Y103642D02*
D03*
X342520Y108957D02*
D03*
Y103642D02*
D03*
X296929Y108957D02*
D03*
Y103642D02*
D03*
X248032Y108957D02*
D03*
Y103642D02*
D03*
X202441Y108957D02*
D03*
Y103642D02*
D03*
X154213Y108957D02*
D03*
Y103642D02*
D03*
X107953Y108957D02*
D03*
Y103642D02*
D03*
X59153Y108957D02*
D03*
Y103642D02*
D03*
X12565Y109418D02*
D03*
Y104103D02*
D03*
D25*
X269685Y211035D02*
D03*
Y222035D02*
D03*
X259843Y211035D02*
D03*
Y222036D02*
D03*
X449711Y212562D02*
D03*
Y223562D02*
D03*
X634646Y207862D02*
D03*
Y196862D02*
D03*
X70866Y222035D02*
D03*
Y211035D02*
D03*
X81492Y222035D02*
D03*
Y211035D02*
D03*
X460877Y223562D02*
D03*
Y212562D02*
D03*
D29*
X339096Y316293D02*
D03*
Y324561D02*
D03*
D34*
X578152Y306226D02*
D03*
X567152D02*
D03*
X105488Y196850D02*
D03*
X94488Y196964D02*
D03*
X294339Y196850D02*
D03*
X283339D02*
D03*
X483484Y196850D02*
D03*
X472484D02*
D03*
D37*
X646505Y110236D02*
D03*
D70*
X646505Y161417D02*
D03*
D108*
X582677Y70866D02*
D03*
X570866D02*
D03*
X189346Y70866D02*
D03*
X201157D02*
D03*
X378634Y70866D02*
D03*
X390445D02*
D03*
D109*
X589322D02*
D03*
X564222D02*
D03*
X182702Y70866D02*
D03*
X207802D02*
D03*
X371989Y70866D02*
D03*
X397089D02*
D03*
D110*
X258819Y370079D02*
D03*
X264819Y372279D02*
D03*
X258248Y380203D02*
D03*
X264248Y382403D02*
D03*
D111*
X316930Y381046D02*
D03*
Y386361D02*
D03*
X326860Y385966D02*
D03*
Y380652D02*
D03*
X336930Y380652D02*
D03*
Y385966D02*
D03*
D112*
X217407Y329961D02*
D03*
X217407Y389961D02*
D03*
D113*
X224100Y329961D02*
D03*
X95550Y363082D02*
D03*
X112047Y362205D02*
D03*
X224100Y389961D02*
D03*
D114*
X563602Y254703D02*
D03*
Y256671D02*
D03*
Y258640D02*
D03*
Y260608D02*
D03*
Y262577D02*
D03*
Y264545D02*
D03*
Y266514D02*
D03*
Y268482D02*
D03*
X576398D02*
D03*
Y266514D02*
D03*
Y264545D02*
D03*
Y262577D02*
D03*
Y260608D02*
D03*
Y258640D02*
D03*
Y256671D02*
D03*
Y254703D02*
D03*
D115*
X567047Y270353D02*
D03*
X572953D02*
D03*
Y252833D02*
D03*
X567047D02*
D03*
D116*
X570000Y261593D02*
D03*
D117*
X568760Y148872D02*
D03*
Y146904D02*
D03*
Y144935D02*
D03*
Y142966D02*
D03*
Y140998D02*
D03*
X551240Y148872D02*
D03*
Y146904D02*
D03*
Y144935D02*
D03*
Y142966D02*
D03*
Y140998D02*
D03*
X383860Y161417D02*
D03*
Y159449D02*
D03*
Y157480D02*
D03*
Y155512D02*
D03*
Y153543D02*
D03*
X366340Y161417D02*
D03*
Y153543D02*
D03*
Y155512D02*
D03*
Y157480D02*
D03*
Y159449D02*
D03*
X197441Y161417D02*
D03*
Y159449D02*
D03*
Y157480D02*
D03*
Y155512D02*
D03*
Y153543D02*
D03*
X179921Y161417D02*
D03*
Y159449D02*
D03*
Y157480D02*
D03*
Y155512D02*
D03*
Y153543D02*
D03*
D118*
X623081Y349901D02*
D03*
Y353641D02*
D03*
Y357381D02*
D03*
X633907D02*
D03*
Y353641D02*
D03*
Y349901D02*
D03*
D119*
X621654Y196850D02*
D03*
Y207874D02*
D03*
D120*
X283839Y231201D02*
D03*
X288839D02*
D03*
X293839D02*
D03*
X298838D02*
D03*
X283839Y209744D02*
D03*
X288839D02*
D03*
X293839D02*
D03*
X298838D02*
D03*
X487815D02*
D03*
X482815D02*
D03*
X477815D02*
D03*
X472815D02*
D03*
X487815Y231201D02*
D03*
X482815D02*
D03*
X477815D02*
D03*
X472815D02*
D03*
X94862D02*
D03*
X99862D02*
D03*
X104862D02*
D03*
X109862D02*
D03*
X94862Y209744D02*
D03*
X99862D02*
D03*
X104862D02*
D03*
X109862D02*
D03*
D121*
X291338Y220472D02*
D03*
X480315D02*
D03*
X102362D02*
D03*
D122*
X95550Y369774D02*
D03*
X112047Y368898D02*
D03*
D123*
X216328Y343540D02*
D03*
X224173D02*
D03*
D124*
X285370Y341375D02*
D03*
Y336375D02*
D03*
Y331375D02*
D03*
Y326375D02*
D03*
Y321375D02*
D03*
Y316375D02*
D03*
Y311375D02*
D03*
X306630Y311375D02*
D03*
Y316375D02*
D03*
Y321375D02*
D03*
Y326375D02*
D03*
Y331375D02*
D03*
Y336375D02*
D03*
Y341375D02*
D03*
D125*
X542207Y172418D02*
D03*
D126*
X538467Y164543D02*
D03*
X545947D02*
D03*
X363289Y180875D02*
D03*
X359549Y173001D02*
D03*
X367029D02*
D03*
X180906Y173228D02*
D03*
X173425D02*
D03*
X177166Y181102D02*
D03*
M02*
