M48
;Layer_Color=9474304
;FILE_FORMAT=2:5
INCH,TZ
;TYPE=PLATED
T1F00S00C0.01181
T2F00S00C0.03000
T3F00S00C0.03150
T4F00S00C0.03937
T5F00S00C0.04016
T6F00S00C0.04331
T7F00S00C0.04724
T8F00S00C0.07874
T9F00S00C0.19685
%
T01
X517379Y136040
Y147851
X523406Y145928
X531496
X541338Y142775
X541001Y136040
X541338Y150775
X541001Y159662
X552812
X556949Y157178
X552812Y171473
X533124Y173099
X517379Y171473
Y159662
X588245
X594151
Y165568
Y171473
Y177378
X588245
Y171473
Y165568
Y153756
X594151
Y147851
Y141945
X588245
Y147851
Y136040
Y130134
Y124229
Y118323
Y112418
Y106512
Y100607
Y94701
X607874Y101047
X607874Y120803
X607874Y151575
Y172047
X576151Y146904
X576100Y134541
X574747Y124815
X566747
X446513Y136040
X434702Y147851
X422891
X411080
Y159662
Y171473
X401327Y165324
X394163Y159449
X387458Y171473
X371971Y168590
X363836Y171473
X357383Y163284
Y155284
X352025Y147851
Y136040
X363836
X371308Y131953
X375647Y136040
X379921Y131953
X387458Y136040
X399269
X411080
Y124229
X399269Y112418
X387458
X375647Y159662
X348348Y162596
X348858Y172744
X340651Y162596
X328403Y171473
Y147851
Y136040
X340214
X257537
Y147851
X245726
X233915
X222104
Y159662
Y171473
X210293
X214567Y165551
X207906Y159449
X198482Y171473
Y136040
X192913Y131047
X210293Y136040
X222104Y124229
X210293Y112418
X198482
X250000Y167323
X186201Y168898
X169718Y163321
Y155512
X160617Y162824
X152699Y162859
X139426Y159662
Y171473
X160581Y173228
X163049Y136040
X174859
X184378Y131219
X186670Y112418
X139426Y136040
Y147851
X68560
Y136040
X56749
Y147851
X44938
Y136040
X56000Y167323
X68560Y171473
X33127
X21316
X9505
X21316Y147851
X33127
Y136040
Y124229
X21316Y136040
Y112418
Y183284
X33127
Y195095
Y206906
Y218717
Y230528
Y242339
Y254150
Y265961
Y277772
X9505
Y265961
Y254150
Y242339
Y230528
Y218717
X21316
Y206906
Y195095
X9505
Y206906
Y183284
X44938Y195095
Y206906
Y218717
X70866Y222877
X82116Y223158
X92182Y218717
X98032Y220472
Y216142
X102362
Y220472
Y224803
X98032
X106693
Y220472
Y216142
X115804Y195095
X127615
X127953Y202756
X139426Y206906
Y195095
X151237
Y183284
X163049
X186670
Y206906
X174859
X163049
Y218717
X159112Y242340
X166986
Y258088
Y265962
Y273836
Y281710
Y289584
X159112
Y281710
Y273836
Y265962
Y258088
X143364
Y265962
Y273836
Y281710
Y289584
X135490
Y281710
Y273836
Y265962
Y258088
X127616
Y265962
Y273836
Y281710
Y289584
X111868
X103994
Y281710
X96120
Y289584
X88246
Y281710
Y273836
X96120
X88246Y265962
X80372
Y273836
Y281710
X72498Y289584
X64624
Y281710
X72498Y273836
Y265962
Y258088
X80372
X64624
Y265962
Y250214
X72498Y242340
X94726Y248031
Y255906
X102631Y255906
X102631Y248031
X119742Y258088
Y265962
Y273836
X111868Y265962
X127616Y242340
X125984Y233972
X143364Y242340
X190608
Y265962
Y273836
Y289584
X48876Y273836
Y265962
Y258088
X41002
Y265962
Y273836
X67726Y188976
X68560Y183284
X83788Y198031
X85770
X87725
X91922Y198031
X91898Y195798
X91922Y200304
X139426Y183284
X198482
X210293
X222104
X223565Y208228
X210293Y206906
Y218717
X198482Y206906
X198482Y242340
Y265962
Y273836
X214230
X222104
X223565Y279794
X229978Y281710
X237852
X245726
X253601
X261474
Y289584
X253601
X245726
X237852
X229978
X222104
X214230
X206356
X198482
X214230Y265962
X222104
X229978
X245726
X253601
Y273836
X261474
X277223
X285097
X289352Y279790
X292971Y281710
X300845Y289584
X308719
X316593
X324467
X332341
X321232Y280237
X324467Y265962
X332341
X340215
Y258088
X332341
X324467
X316593
Y265962
X308719
Y258088
X300845Y265962
X292971
X291338Y255906
X283465
Y248031
X291338
Y224803
X287008
Y220472
Y216142
X291338
Y220472
X295669
Y216142
Y224803
X281159Y218717
X269685Y223158
X259842
X245726Y218717
X244094Y228346
X245726Y206906
X258874Y188976
X257537Y183284
X271654Y198031
X273622Y198031
X275465Y198031
X280885
X280861Y195798
X280885Y200304
X313976Y202756
X316592Y206906
X328403
X340214
Y218717
Y195095
Y183284
X328403
Y195095
X316592
X315761Y233961
X316593Y242340
X332341
X340215
X277223Y265962
X269349
Y258088
X261474
X245726Y273836
X237852
X285097Y289584
X268522Y312443
X347823Y303922
Y325961
Y337989
X358268Y315961
X379035Y308046
X378838Y299833
X378838Y269961
X370079Y272291
X387459Y273836
Y250214
X378838Y244712
X370079Y251231
X363837Y250214
Y258088
X355963
X347823Y268518
X348089Y242340
X352025Y218717
X363836
Y206906
X375647
Y195095
X387458
Y183284
X375647
X363836Y195095
X352025
Y206906
Y183284
X422891
Y195095
Y206906
X411080
Y195095
X399269Y206906
Y218717
X387458
X403207Y242340
X411081
X442577
X450451
Y258088
X458325
X442577
X450451Y281710
X458325
X466199
X474073
X481947
Y289584
X474073
X466199
X458325
X450451
X490572
X497695
Y281710
X490572
Y273836
X497695
Y265962
X490572
X497695Y258088
Y242340
X501619Y233961
X484646Y224803
Y220472
Y216142
X480315
Y220472
X475984
Y216142
X470135Y218717
X475984Y224803
X480315
X460557Y223882
X449711Y223562
X446513Y206906
X458324
X460630Y197835
X462599Y197835
X464441Y197835
X469862
X469837Y195601
X469862Y200107
X448819Y188237
X446513Y183284
X502047Y203267
X480315Y247929
X472815
X472457Y255906
X480315
X474073Y265962
X481947Y273836
X386014Y327458
X505569Y289584
Y281710
Y273836
Y265962
Y258088
Y242340
X520592Y248031
X529190Y230528
Y218717
X541001
X552812
X564623
Y206906
Y195095
Y183284
X552812
Y195095
Y206906
X541001
Y195095
Y183284
X529190
Y195095
Y206906
X517379
Y195095
Y183284
X505568Y195095
Y206906
X588778Y198641
Y194310
X593502
X593422Y198641
X594151Y183284
X588245
X618898Y192913
Y197244
X623541
X623622Y192913
X588583Y243961
X579969Y244033
X587289Y260622
X587210Y266269
X587289Y274514
X572953Y279832
X575939Y294301
X606299Y289370
X606299Y285433
X606299Y281496
X645290
X645291Y285433
X645290Y289370
X556547Y265197
X626870Y342520
X623081Y357381
X623133Y365779
X618110
X623133Y371165
X655512Y340488
X501968Y358354
X497244Y358268
X493004
X379035Y355961
Y375961
X324218Y358268
X314961Y349961
X306930Y367600
X296877Y367927
X286930Y367927
X286930Y380652
X296877Y380652
X306930
T02
X633858Y94488
Y102362
X641732
X649606
Y94488
X641732
X657480
Y102362
Y110236
X649606
X641732
X633858
X633858Y145669
Y153543
Y161417
Y169291
Y177165
X641732
Y169291
X649606
Y177165
X657480
Y169291
Y161417
X649606
X641732
Y153543
Y145669
X649606
Y153543
X657480
Y145669
X559055Y334646
X551984Y327575
X544913Y334646
Y391214
X551984Y398285
X559055Y391214
T03
X550428Y130402
X569786Y135156
X566578Y171417
X576100Y171309
X545947Y180378
X401327Y176209
X386911Y176249
X386911Y145442
X400153Y145379
X363289Y145442
X340470Y145379
X214567Y145669
X200886Y145669
X199409Y176476
X214567Y176476
X177264Y145669
X152699
X117393Y187763
X67726Y197835
X135827Y245169
X258874Y197835
X304164Y190600
X326772Y245759
X274953Y280100
X358268Y303150
X492126Y328740
Y338140
X492899Y190403
X448819Y197835
X513858Y243447
X570866Y183442
X596457Y330709
X614173Y330709
X632494Y330709
X647638
X600394Y383495
T04
X18260Y230832
Y240832
X18260Y255873
Y265873
Y275873
X18260Y291351
Y301351
Y311351
X218819Y409685
X228819Y409685
X238819
X248819
X258819Y409685
X287008
X297008
X307008
X317008
X327008
T05
X175276Y219961
Y229961
Y239961
Y249961
X185275
Y259961
X175276
Y269961
Y279961
X185275
Y289961
Y299961
Y309961
Y319961
Y329961
X175276
Y319961
Y309961
Y299961
Y289961
X185275Y269961
Y239961
Y229961
Y219961
X415276
X425276
Y229961
Y239961
X415276
Y229961
Y249961
Y259961
Y269961
X425276
Y279961
Y289961
X415276
Y299961
X425276
Y309961
X415276
Y319961
X425276
Y329961
X415276
Y279961
X425276Y259961
Y249961
Y339961
X415276
Y349961
Y359961
X425276
Y369961
Y379961
X415276
Y389961
Y399961
Y409961
X425276
Y399961
Y389961
X415276Y369961
X425276Y349961
X185275
X175276
Y359961
Y369961
X185275
Y379961
Y389961
X175276
Y399961
X185275
Y409961
X175276
Y379961
X185275Y359961
Y339961
X175276
T06
X102362Y9843
X291338
X480315
X524606Y35433
X554134
X551339Y98425
X561339
X541339
X516063
X506063
X496063
X466850
X456850
X446850
X421575
X411575
X401575
X372362
X362362
X352362
X365158Y33678
X406496
X436024
X480315Y68898
X335630Y33678
X327086Y98425
X317087
X307086
X277874
X267874
X257874
X232598
X222598
X212598
X217520Y34297
X247047
X291338Y68898
X183386Y98425
X173386
X163386
X138110
X128110
X118110
X88898
X78898
X68898
X43622
X54134Y35433
X102362Y68898
X146653Y35433
X176181
X24606
X23622Y98425
X33622
X205276Y229961
Y239961
Y249961
Y259961
Y269961
Y279961
Y299961
Y309961
Y319961
Y329961
X395276Y325961
Y315961
Y299961
Y289961
Y279961
Y269961
Y259961
Y249961
Y239961
Y229961
Y335961
Y345961
Y355961
Y365961
Y375961
Y385961
Y395961
Y405961
X246220Y365073
X236221
X226220
X205276Y369961
Y359961
Y349961
Y339961
X122047Y391732
X112047
T07
X516629Y362930
X587339
T08
X608268Y260000
X655512
T09
X480315Y157480
X291338
X102362
M30
