G04*
G04 #@! TF.GenerationSoftware,Altium Limited,Altium Designer,20.2.6 (244)*
G04*
G04 Layer_Color=32896*
%FSLAX24Y24*%
%MOIN*%
G70*
G04*
G04 #@! TF.SameCoordinates,10E2E559-7701-499E-A428-1A66D90B70A8*
G04*
G04*
G04 #@! TF.FilePolarity,Positive*
G04*
G01*
G75*
%ADD13C,0.0100*%
%ADD18C,0.0039*%
D13*
X0Y0D02*
Y33465D01*
X66929Y0D02*
Y40551D01*
X44094Y42520D02*
X46063Y40551D01*
X12992D02*
X14961Y42520D01*
X0Y33465D02*
X7087Y40551D01*
X12992D01*
X46063D02*
X66929D01*
X0Y0D02*
X66929D01*
X14961Y42520D02*
X44094D01*
X10924Y21947D02*
X11252D01*
X11317Y21882D01*
Y21750D01*
X11252Y21685D01*
X10924D01*
X11317Y21291D02*
Y21554D01*
X11055Y21291D01*
X10989D01*
X10924Y21357D01*
Y21488D01*
X10989Y21554D01*
X29821Y21947D02*
X30149D01*
X30215Y21882D01*
Y21750D01*
X30149Y21685D01*
X29821D01*
X29887Y21554D02*
X29821Y21488D01*
Y21357D01*
X29887Y21291D01*
X29953D01*
X30018Y21357D01*
Y21422D01*
Y21357D01*
X30084Y21291D01*
X30149D01*
X30215Y21357D01*
Y21488D01*
X30149Y21554D01*
X48719Y21947D02*
X49047D01*
X49113Y21882D01*
Y21750D01*
X49047Y21685D01*
X48719D01*
X49113Y21357D02*
X48719D01*
X48916Y21554D01*
Y21291D01*
D18*
X53622Y30353D02*
Y30746D01*
X53425Y30550D02*
X53819D01*
X29403Y32638D02*
X29797D01*
X29600Y32441D02*
Y32834D01*
X5719Y10630D02*
X6112D01*
X5915Y10433D02*
Y10827D01*
X10598Y10630D02*
X10992D01*
X10795Y10433D02*
Y10827D01*
X15224Y10630D02*
X15618D01*
X15421Y10433D02*
Y10827D01*
X17520Y17717D02*
X17913D01*
X17717Y17520D02*
Y17913D01*
X29496Y10630D02*
X29890D01*
X29693Y10433D02*
Y10827D01*
X31693Y38173D02*
Y38567D01*
X31496Y38370D02*
X31890D01*
X33693Y38173D02*
Y38567D01*
X33496Y38370D02*
X33890D01*
X36329Y17497D02*
Y17891D01*
X36132Y17694D02*
X36526D01*
X54221Y16651D02*
Y17045D01*
X54024Y16848D02*
X54418D01*
X1060Y10676D02*
X1453D01*
X1257Y10479D02*
Y10873D01*
X20047Y10630D02*
X20441D01*
X20244Y10433D02*
Y10827D01*
X24606Y10630D02*
X25000D01*
X24803Y10433D02*
Y10827D01*
X32489Y38370D02*
X32883D01*
X32686Y38173D02*
Y38567D01*
X34055Y10630D02*
X34449D01*
X34252Y10433D02*
Y10827D01*
X38945Y10630D02*
X39339D01*
X39142Y10433D02*
Y10827D01*
X43504Y10630D02*
X43898D01*
X43701Y10433D02*
Y10827D01*
X48394Y10630D02*
X48787D01*
X48591Y10433D02*
Y10827D01*
X52953Y10630D02*
X53346D01*
X53150Y10433D02*
Y10827D01*
X13157Y33857D02*
X12895D01*
X12842Y33804D01*
Y33699D01*
X12895Y33647D01*
X13157D01*
X12842Y33542D02*
Y33437D01*
Y33489D01*
X13157D01*
X13105Y33542D01*
Y33279D02*
X13157Y33227D01*
Y33122D01*
X13105Y33070D01*
X12895D01*
X12842Y33122D01*
Y33227D01*
X12895Y33279D01*
X13105D01*
M02*
