G04*
G04 #@! TF.GenerationSoftware,Altium Limited,Altium Designer,20.1.14 (287)*
G04*
G04 Layer_Color=16711935*
%FSLAX25Y25*%
%MOIN*%
G70*
G04*
G04 #@! TF.SameCoordinates,F236638D-4B1B-45E3-9A0F-FA1DF93A8DFF*
G04*
G04*
G04 #@! TF.FilePolarity,Positive*
G04*
G01*
G75*
%ADD12C,0.01000*%
D12*
X0Y0D02*
Y334646D01*
Y0D02*
X669291D01*
Y405512D01*
X460630D02*
X669291D01*
X440945Y425197D02*
X460630Y405512D01*
X149606Y425197D02*
X440945D01*
X129921Y405512D02*
X149606Y425197D01*
X70866Y405512D02*
X129921D01*
X0Y334646D02*
X70866Y405512D01*
X495379Y241472D02*
X498659D01*
X499315Y240816D01*
Y239505D01*
X498659Y238849D01*
X495379D01*
X499315Y235569D02*
X495379D01*
X497347Y237537D01*
Y234913D01*
X306403Y241472D02*
X309683D01*
X310339Y240816D01*
Y239505D01*
X309683Y238849D01*
X306403D01*
X307059Y237537D02*
X306403Y236881D01*
Y235569D01*
X307059Y234913D01*
X307715D01*
X308371Y235569D01*
Y236225D01*
Y235569D01*
X309027Y234913D01*
X309683D01*
X310339Y235569D01*
Y236881D01*
X309683Y237537D01*
X121048Y235772D02*
X124328D01*
X124984Y235116D01*
Y233804D01*
X124328Y233148D01*
X121048D01*
X124984Y229212D02*
Y231836D01*
X122360Y229212D01*
X121704D01*
X121048Y229868D01*
Y231180D01*
X121704Y231836D01*
X0Y0D02*
Y334646D01*
Y0D02*
X669291D01*
Y405512D01*
X460630D02*
X669291D01*
X440945Y425197D02*
X460630Y405512D01*
X149606Y425197D02*
X440945D01*
X129921Y405512D02*
X149606Y425197D01*
X70866Y405512D02*
X129921D01*
X0Y334646D02*
X70866Y405512D01*
X495379Y241472D02*
X498659D01*
X499315Y240816D01*
Y239505D01*
X498659Y238849D01*
X495379D01*
X499315Y235569D02*
X495379D01*
X497347Y237537D01*
Y234913D01*
X306403Y241472D02*
X309683D01*
X310339Y240816D01*
Y239505D01*
X309683Y238849D01*
X306403D01*
X307059Y237537D02*
X306403Y236881D01*
Y235569D01*
X307059Y234913D01*
X307715D01*
X308371Y235569D01*
Y236225D01*
Y235569D01*
X309027Y234913D01*
X309683D01*
X310339Y235569D01*
Y236881D01*
X309683Y237537D01*
X121048Y235772D02*
X124328D01*
X124984Y235116D01*
Y233804D01*
X124328Y233148D01*
X121048D01*
X124984Y229212D02*
Y231836D01*
X122360Y229212D01*
X121704D01*
X121048Y229868D01*
Y231180D01*
X121704Y231836D01*
M02*
