G04*
G04 #@! TF.GenerationSoftware,Altium Limited,Altium Designer,20.2.6 (244)*
G04*
G04 Layer_Color=8421504*
%FSLAX24Y24*%
%MOIN*%
G70*
G04*
G04 #@! TF.SameCoordinates,10E2E559-7701-499E-A428-1A66D90B70A8*
G04*
G04*
G04 #@! TF.FilePolarity,Positive*
G04*
G01*
G75*
%ADD13C,0.0100*%
%ADD18C,0.0039*%
%ADD19R,0.0535X0.0535*%
%ADD20R,0.0800X0.1000*%
%ADD21R,0.0600X0.0800*%
%ADD22R,0.0830X0.1578*%
%ADD23R,0.0906X0.0984*%
%ADD24R,0.1690X0.0630*%
%ADD25R,0.3860X0.4560*%
%ADD26R,0.0600X0.0520*%
%ADD27R,0.0948X0.1854*%
%ADD28R,0.1000X0.0800*%
%ADD29R,0.0672X0.0633*%
%ADD30C,0.0672*%
%ADD31R,0.0800X0.0600*%
%ADD32R,0.0535X0.0535*%
%ADD33R,0.1578X0.0830*%
%ADD34R,0.0256X0.0118*%
%ADD35R,0.0118X0.0256*%
%ADD36R,0.0397X0.0397*%
%ADD37R,0.1854X0.0948*%
G04:AMPARAMS|DCode=38|XSize=55.4mil|YSize=77.1mil|CornerRadius=11.9mil|HoleSize=0mil|Usage=FLASHONLY|Rotation=0.000|XOffset=0mil|YOffset=0mil|HoleType=Round|Shape=RoundedRectangle|*
%AMROUNDEDRECTD38*
21,1,0.0554,0.0532,0,0,0.0*
21,1,0.0315,0.0771,0,0,0.0*
1,1,0.0239,0.0158,-0.0266*
1,1,0.0239,-0.0158,-0.0266*
1,1,0.0239,-0.0158,0.0266*
1,1,0.0239,0.0158,0.0266*
%
%ADD38ROUNDEDRECTD38*%
G04:AMPARAMS|DCode=39|XSize=144mil|YSize=77.1mil|CornerRadius=12mil|HoleSize=0mil|Usage=FLASHONLY|Rotation=0.000|XOffset=0mil|YOffset=0mil|HoleType=Round|Shape=RoundedRectangle|*
%AMROUNDEDRECTD39*
21,1,0.1440,0.0531,0,0,0.0*
21,1,0.1200,0.0771,0,0,0.0*
1,1,0.0240,0.0600,-0.0265*
1,1,0.0240,-0.0600,-0.0265*
1,1,0.0240,-0.0600,0.0265*
1,1,0.0240,0.0600,0.0265*
%
%ADD39ROUNDEDRECTD39*%
%ADD40R,0.1775X0.2562*%
%ADD41R,0.0397X0.0397*%
G36*
X5410Y18121D02*
Y18021D01*
X5610Y17821D01*
X5810Y18021D01*
Y18121D01*
X5410D01*
D02*
G37*
G36*
X15471Y15707D02*
Y15807D01*
X15271Y16007D01*
X15071Y15807D01*
Y15707D01*
X15471D01*
D02*
G37*
G36*
X16262Y15707D02*
Y15807D01*
X16062Y16007D01*
X15862Y15807D01*
Y15707D01*
X16262D01*
D02*
G37*
G36*
X24799Y18151D02*
Y18051D01*
X24999Y17851D01*
X25199Y18051D01*
Y18151D01*
X24799D01*
D02*
G37*
G36*
X34265Y15685D02*
Y15785D01*
X34065Y15985D01*
X33865Y15785D01*
Y15685D01*
X34265D01*
D02*
G37*
G36*
X35035Y15685D02*
Y15785D01*
X34835Y15985D01*
X34635Y15785D01*
Y15685D01*
X35035D01*
D02*
G37*
G36*
X43495Y18207D02*
Y18107D01*
X43695Y17907D01*
X43895Y18107D01*
Y18207D01*
X43495D01*
D02*
G37*
G36*
X52541Y14018D02*
Y14118D01*
X52341Y14318D01*
X52141Y14118D01*
Y14018D01*
X52541D01*
D02*
G37*
G36*
X53350Y14018D02*
Y14118D01*
X53150Y14318D01*
X52950Y14118D01*
Y14018D01*
X53350D01*
D02*
G37*
D13*
X0Y0D02*
Y33465D01*
X66929Y0D02*
Y40551D01*
X44094Y42520D02*
X46063Y40551D01*
X12992D02*
X14961Y42520D01*
X0Y33465D02*
X7087Y40551D01*
X12992D01*
X46063D02*
X66929D01*
X0Y0D02*
X66929D01*
X14961Y42520D02*
X44094D01*
X10924Y21947D02*
X11252D01*
X11317Y21882D01*
Y21750D01*
X11252Y21685D01*
X10924D01*
X11317Y21291D02*
Y21554D01*
X11055Y21291D01*
X10989D01*
X10924Y21357D01*
Y21488D01*
X10989Y21554D01*
X29821Y21947D02*
X30149D01*
X30215Y21882D01*
Y21750D01*
X30149Y21685D01*
X29821D01*
X29887Y21554D02*
X29821Y21488D01*
Y21357D01*
X29887Y21291D01*
X29953D01*
X30018Y21357D01*
Y21422D01*
Y21357D01*
X30084Y21291D01*
X30149D01*
X30215Y21357D01*
Y21488D01*
X30149Y21554D01*
X48719Y21947D02*
X49047D01*
X49113Y21882D01*
Y21750D01*
X49047Y21685D01*
X48719D01*
X49113Y21357D02*
X48719D01*
X48916Y21554D01*
Y21291D01*
D18*
X13157Y33857D02*
X12895D01*
X12842Y33804D01*
Y33699D01*
X12895Y33647D01*
X13157D01*
X12842Y33542D02*
Y33437D01*
Y33489D01*
X13157D01*
X13105Y33542D01*
Y33279D02*
X13157Y33227D01*
Y33122D01*
X13105Y33070D01*
X12895D01*
X12842Y33122D01*
Y33227D01*
X12895Y33279D01*
X13105D01*
D19*
X37884Y32213D02*
D03*
X38494D02*
D03*
X37871Y39881D02*
D03*
X38481D02*
D03*
X48839Y31299D02*
D03*
X48228D02*
D03*
X44774D02*
D03*
X45384D02*
D03*
X22352Y33465D02*
D03*
X21742D02*
D03*
X31744Y31672D02*
D03*
X32354D02*
D03*
X10541Y20566D02*
D03*
X9931D02*
D03*
X26889Y32638D02*
D03*
X27500D02*
D03*
X26887Y34095D02*
D03*
X27498D02*
D03*
X29438Y20566D02*
D03*
X28827D02*
D03*
X47695Y20653D02*
D03*
X48305D02*
D03*
X47156Y31299D02*
D03*
X46545D02*
D03*
X3846Y29135D02*
D03*
X4456D02*
D03*
X4451Y29916D02*
D03*
X3841D02*
D03*
X21746Y20823D02*
D03*
X22356D02*
D03*
X21746Y21628D02*
D03*
X22356D02*
D03*
X21746Y22450D02*
D03*
X22356D02*
D03*
X21746Y23265D02*
D03*
X22356D02*
D03*
X21746Y24009D02*
D03*
X22356D02*
D03*
X21746Y25013D02*
D03*
X22356D02*
D03*
X21746Y26001D02*
D03*
X22356D02*
D03*
X21746Y26963D02*
D03*
X22356D02*
D03*
X22356Y27979D02*
D03*
X21746D02*
D03*
X24543Y26001D02*
D03*
X25154D02*
D03*
X27500Y33430D02*
D03*
X26889D02*
D03*
X30366Y31147D02*
D03*
X29756D02*
D03*
X30366Y32043D02*
D03*
X29756D02*
D03*
X38494Y24478D02*
D03*
X37884D02*
D03*
X37884Y26001D02*
D03*
X38494D02*
D03*
X38494Y27002D02*
D03*
X37884D02*
D03*
X38494Y27992D02*
D03*
X37884D02*
D03*
X37884Y28996D02*
D03*
X38494D02*
D03*
X38494Y29983D02*
D03*
X37884D02*
D03*
X37884Y30805D02*
D03*
X38494D02*
D03*
Y33584D02*
D03*
X37884D02*
D03*
X37884Y34590D02*
D03*
X38494D02*
D03*
X38494Y35596D02*
D03*
X37884D02*
D03*
Y36587D02*
D03*
X38494D02*
D03*
X38494Y37596D02*
D03*
X37884D02*
D03*
X37884Y39076D02*
D03*
X38494D02*
D03*
X38494Y41339D02*
D03*
X37884D02*
D03*
X27500Y31997D02*
D03*
X26890D02*
D03*
X27462Y31244D02*
D03*
X26852D02*
D03*
D20*
X51418Y32480D02*
D03*
X52519D02*
D03*
X48269Y33071D02*
D03*
X49369D02*
D03*
X44332D02*
D03*
X45432D02*
D03*
X47400D02*
D03*
X46300D02*
D03*
X61891Y36575D02*
D03*
X62991D02*
D03*
X56735Y30630D02*
D03*
X57835D02*
D03*
D21*
X49022Y32087D02*
D03*
X48222D02*
D03*
X44679D02*
D03*
X45479D02*
D03*
X46450D02*
D03*
X47250D02*
D03*
X6400Y15728D02*
D03*
X5600D02*
D03*
X25794Y15728D02*
D03*
X24994D02*
D03*
X43695Y15728D02*
D03*
X44495D02*
D03*
X56675Y12482D02*
D03*
X57475D02*
D03*
X4556Y28344D02*
D03*
X3756D02*
D03*
X5600Y16732D02*
D03*
X6400D02*
D03*
X7080Y23228D02*
D03*
X7880D02*
D03*
X13777Y20376D02*
D03*
X12977D02*
D03*
X18468Y13110D02*
D03*
X19268D02*
D03*
X25000Y16732D02*
D03*
X25800D02*
D03*
X26003Y23228D02*
D03*
X26803D02*
D03*
X28684Y19078D02*
D03*
X29484D02*
D03*
X28690Y19825D02*
D03*
X29490D02*
D03*
X32767Y20376D02*
D03*
X31967D02*
D03*
X37157Y13186D02*
D03*
X37957D02*
D03*
X43694Y16732D02*
D03*
X44494D02*
D03*
X44965Y23228D02*
D03*
X45765D02*
D03*
X47598Y19057D02*
D03*
X48398D02*
D03*
Y19918D02*
D03*
X47598D02*
D03*
X51595Y20376D02*
D03*
X50795D02*
D03*
X55641Y25591D02*
D03*
X54841D02*
D03*
X54812Y27330D02*
D03*
X55612D02*
D03*
X55628Y28235D02*
D03*
X54828D02*
D03*
X55628Y26507D02*
D03*
X54828D02*
D03*
X12983Y21260D02*
D03*
X13783D02*
D03*
X31950D02*
D03*
X32750D02*
D03*
X50771D02*
D03*
X51571D02*
D03*
X56625Y27988D02*
D03*
X57425D02*
D03*
X61614Y34252D02*
D03*
X60814D02*
D03*
X5036Y24002D02*
D03*
X4236D02*
D03*
X10639Y19078D02*
D03*
X9839D02*
D03*
X10639Y19825D02*
D03*
X9839D02*
D03*
D22*
X48032Y27638D02*
D03*
Y29843D02*
D03*
X50984Y27638D02*
D03*
Y29843D02*
D03*
X45079Y27638D02*
D03*
Y29843D02*
D03*
X12087Y30510D02*
D03*
Y28305D02*
D03*
X53543Y35394D02*
D03*
Y37598D02*
D03*
D23*
X48622Y36673D02*
D03*
Y34980D02*
D03*
X46850Y36673D02*
D03*
Y34980D02*
D03*
X45079Y36673D02*
D03*
Y34980D02*
D03*
X8574Y19833D02*
D03*
Y21526D02*
D03*
X27362Y19823D02*
D03*
Y21516D02*
D03*
X46260Y19823D02*
D03*
Y21516D02*
D03*
D24*
X60796Y12263D02*
D03*
Y10263D02*
D03*
X60796Y15535D02*
D03*
Y17535D02*
D03*
D25*
X64651Y11263D02*
D03*
X64651Y16535D02*
D03*
D26*
X53150Y13918D02*
D03*
Y14593D02*
D03*
X24999Y18251D02*
D03*
Y17576D02*
D03*
X34065Y16260D02*
D03*
Y15585D02*
D03*
X52341Y14593D02*
D03*
Y13918D02*
D03*
X15271Y16282D02*
D03*
Y15607D02*
D03*
X43695Y18307D02*
D03*
Y17632D02*
D03*
X34835Y15585D02*
D03*
Y16260D02*
D03*
X5610Y18221D02*
D03*
Y17546D02*
D03*
X16062Y15607D02*
D03*
Y16282D02*
D03*
D27*
X56890Y37402D02*
D03*
Y34646D02*
D03*
X60630Y28543D02*
D03*
Y31299D02*
D03*
X8477Y31200D02*
D03*
Y28444D02*
D03*
X64513Y31299D02*
D03*
Y28543D02*
D03*
D28*
X60039Y33804D02*
D03*
Y34904D02*
D03*
X4542Y16828D02*
D03*
Y15728D02*
D03*
X12470Y23385D02*
D03*
Y22285D02*
D03*
X13583Y23385D02*
D03*
Y22285D02*
D03*
X17018Y15367D02*
D03*
Y16467D02*
D03*
X24006Y15728D02*
D03*
Y16828D02*
D03*
X31576Y23385D02*
D03*
Y22285D02*
D03*
X32677Y23385D02*
D03*
Y22285D02*
D03*
X35738Y15344D02*
D03*
Y16444D02*
D03*
X42815Y15728D02*
D03*
Y16828D02*
D03*
X50205Y23253D02*
D03*
Y22153D02*
D03*
X51386Y23253D02*
D03*
Y22153D02*
D03*
X54134Y14126D02*
D03*
Y15226D02*
D03*
D29*
X53346Y30728D02*
D03*
Y29902D02*
D03*
X15271Y17871D02*
D03*
Y17044D02*
D03*
X34065Y17871D02*
D03*
Y17044D02*
D03*
X52541Y17871D02*
D03*
Y17044D02*
D03*
D30*
X13653Y19291D02*
D03*
X7431Y24803D02*
D03*
X8299Y24803D02*
D03*
X14370Y16286D02*
D03*
X28346Y25591D02*
D03*
X29134D02*
D03*
X32982Y16260D02*
D03*
X34835Y14538D02*
D03*
X52341Y15748D02*
D03*
X25887Y18898D02*
D03*
X6773Y18898D02*
D03*
X9473Y25591D02*
D03*
X16062Y14583D02*
D03*
X26378Y24803D02*
D03*
X27187D02*
D03*
X45472Y24803D02*
D03*
X46295Y24797D02*
D03*
X47246Y25591D02*
D03*
X48032D02*
D03*
X53150Y12982D02*
D03*
X10263Y25591D02*
D03*
X32582Y19060D02*
D03*
X44882Y18824D02*
D03*
X51315Y18470D02*
D03*
D31*
X10651Y32671D02*
D03*
Y33471D02*
D03*
X12992Y35820D02*
D03*
Y36620D02*
D03*
X58729Y26041D02*
D03*
Y25241D02*
D03*
Y26760D02*
D03*
Y27560D02*
D03*
X847Y16028D02*
D03*
Y15228D02*
D03*
X2021Y16000D02*
D03*
Y15200D02*
D03*
X25984Y21516D02*
D03*
Y22316D02*
D03*
X44969Y21588D02*
D03*
Y22388D02*
D03*
X7087Y22316D02*
D03*
Y21516D02*
D03*
X9473Y24803D02*
D03*
Y24003D02*
D03*
X10263Y24803D02*
D03*
Y24003D02*
D03*
X28346Y24803D02*
D03*
Y24003D02*
D03*
X29134Y24803D02*
D03*
Y24003D02*
D03*
X47246Y24745D02*
D03*
Y23945D02*
D03*
X48052Y24745D02*
D03*
Y23945D02*
D03*
X57997Y24397D02*
D03*
Y23597D02*
D03*
X2953Y16000D02*
D03*
Y15200D02*
D03*
X3012Y26778D02*
D03*
Y27578D02*
D03*
X12087Y35820D02*
D03*
Y36620D02*
D03*
X26064Y29693D02*
D03*
Y30493D02*
D03*
X35827Y28734D02*
D03*
Y29534D02*
D03*
X58852Y24376D02*
D03*
Y23576D02*
D03*
X66323Y35427D02*
D03*
Y36227D02*
D03*
X56579Y26354D02*
D03*
Y25554D02*
D03*
D32*
X40133Y16532D02*
D03*
Y15922D02*
D03*
X20784Y15945D02*
D03*
Y16555D02*
D03*
X28693Y36793D02*
D03*
Y36182D02*
D03*
X28693Y38675D02*
D03*
Y38065D02*
D03*
X29688Y36793D02*
D03*
Y36182D02*
D03*
X29688Y38675D02*
D03*
Y38065D02*
D03*
X30693Y36793D02*
D03*
Y36182D02*
D03*
X30693Y38065D02*
D03*
Y38675D02*
D03*
X39439Y15922D02*
D03*
Y16532D02*
D03*
X53312Y17920D02*
D03*
Y17310D02*
D03*
X64173Y34754D02*
D03*
Y34144D02*
D03*
X66323Y33675D02*
D03*
Y33065D02*
D03*
X16058Y17323D02*
D03*
Y17933D02*
D03*
X34886Y17933D02*
D03*
Y17323D02*
D03*
X57610Y14691D02*
D03*
Y15301D02*
D03*
X64764Y34754D02*
D03*
Y34144D02*
D03*
X21457Y16555D02*
D03*
Y15945D02*
D03*
X57617Y13450D02*
D03*
Y14060D02*
D03*
D33*
X63465Y38189D02*
D03*
X65669D02*
D03*
D34*
X2266Y16828D02*
D03*
X1734D02*
D03*
D35*
X3678Y18146D02*
D03*
Y17615D02*
D03*
X4542Y18146D02*
D03*
Y17615D02*
D03*
X23260Y18179D02*
D03*
Y17648D02*
D03*
X24006Y18179D02*
D03*
Y17648D02*
D03*
X41995Y18179D02*
D03*
Y17648D02*
D03*
X42815Y17648D02*
D03*
Y18179D02*
D03*
D36*
X5449Y32882D02*
D03*
X4849Y33102D02*
D03*
Y34477D02*
D03*
X5449Y34257D02*
D03*
D37*
X10039Y35175D02*
D03*
X7283D02*
D03*
D38*
X12992Y34417D02*
D03*
X12087D02*
D03*
X13898D02*
D03*
D39*
X12992Y31996D02*
D03*
D40*
X65878Y22000D02*
D03*
X61626D02*
D03*
D41*
X36237Y40317D02*
D03*
X36017Y39717D02*
D03*
X35237Y41912D02*
D03*
X35017Y41312D02*
D03*
X36017D02*
D03*
X36237Y41912D02*
D03*
X35017Y39717D02*
D03*
X35237Y40317D02*
D03*
M02*
