G04*
G04 #@! TF.GenerationSoftware,Altium Limited,Altium Designer,20.2.6 (244)*
G04*
G04 Layer_Color=16711935*
%FSLAX24Y24*%
%MOIN*%
G70*
G04*
G04 #@! TF.SameCoordinates,10E2E559-7701-499E-A428-1A66D90B70A8*
G04*
G04*
G04 #@! TF.FilePolarity,Positive*
G04*
G01*
G75*
%ADD13C,0.0100*%
%ADD16C,0.0079*%
%ADD18C,0.0039*%
G36*
X63293Y11262D02*
X63296D01*
X63300Y11262D01*
X63305Y11262D01*
X63309Y11261D01*
X63320Y11259D01*
X63331Y11256D01*
X63343Y11253D01*
X63355Y11248D01*
X63355Y11247D01*
X63356Y11247D01*
X63358Y11246D01*
X63360Y11245D01*
X63363Y11243D01*
X63365Y11242D01*
X63372Y11236D01*
X63380Y11231D01*
X63387Y11223D01*
X63395Y11215D01*
X63401Y11205D01*
X63402Y11204D01*
X63402Y11203D01*
X63403Y11202D01*
X63404Y11200D01*
X63405Y11197D01*
X63407Y11194D01*
X63408Y11191D01*
X63409Y11187D01*
X63411Y11182D01*
X63412Y11177D01*
X63415Y11167D01*
X63417Y11155D01*
X63417Y11149D01*
Y11139D01*
X63417Y11136D01*
Y11133D01*
X63417Y11130D01*
X63416Y11125D01*
X63415Y11121D01*
X63413Y11112D01*
X63411Y11101D01*
X63406Y11090D01*
X63404Y11085D01*
X63401Y11079D01*
X63400Y11079D01*
X63400Y11078D01*
X63399Y11077D01*
X63398Y11074D01*
X63396Y11072D01*
X63394Y11069D01*
X63389Y11063D01*
X63382Y11057D01*
X63374Y11049D01*
X63365Y11042D01*
X63354Y11037D01*
X63354D01*
X63353Y11036D01*
X63351Y11035D01*
X63349Y11034D01*
X63346Y11033D01*
X63343Y11032D01*
X63339Y11030D01*
X63334Y11029D01*
X63330Y11028D01*
X63325Y11026D01*
X63319Y11025D01*
X63313Y11024D01*
X63301Y11022D01*
X63287Y11022D01*
X63287D01*
X63286D01*
X63284D01*
X63282D01*
X63279Y11022D01*
X63276D01*
X63272Y11022D01*
X63269Y11023D01*
X63260Y11024D01*
X63250Y11026D01*
X63241Y11028D01*
X63231Y11031D01*
X63231D01*
X63230Y11032D01*
X63229Y11032D01*
X63227Y11033D01*
X63225Y11034D01*
X63222Y11035D01*
X63217Y11038D01*
X63210Y11042D01*
X63202Y11047D01*
X63195Y11053D01*
X63188Y11060D01*
Y11059D01*
X63187Y11058D01*
X63186Y11057D01*
X63185Y11056D01*
X63184Y11054D01*
X63182Y11051D01*
X63179Y11046D01*
X63175Y11039D01*
X63171Y11032D01*
X63168Y11024D01*
X63164Y11017D01*
X63142Y11027D01*
Y11027D01*
X63142Y11028D01*
X63143Y11029D01*
X63143Y11032D01*
X63144Y11034D01*
X63146Y11037D01*
X63147Y11040D01*
X63149Y11044D01*
X63154Y11052D01*
X63159Y11061D01*
X63165Y11071D01*
X63172Y11081D01*
Y11081D01*
X63172Y11082D01*
X63171Y11084D01*
X63170Y11086D01*
X63169Y11089D01*
X63167Y11092D01*
X63166Y11095D01*
X63165Y11099D01*
X63163Y11104D01*
X63162Y11108D01*
X63159Y11119D01*
X63158Y11131D01*
X63157Y11137D01*
X63157Y11143D01*
Y11146D01*
X63157Y11149D01*
Y11152D01*
X63158Y11155D01*
X63158Y11159D01*
X63159Y11164D01*
X63161Y11173D01*
X63164Y11184D01*
X63168Y11195D01*
X63170Y11200D01*
X63173Y11205D01*
X63174Y11206D01*
X63174Y11206D01*
X63175Y11208D01*
X63176Y11210D01*
X63178Y11212D01*
X63180Y11215D01*
X63185Y11221D01*
X63192Y11228D01*
X63200Y11235D01*
X63209Y11242D01*
X63219Y11248D01*
X63220D01*
X63221Y11248D01*
X63222Y11249D01*
X63225Y11250D01*
X63227Y11251D01*
X63231Y11252D01*
X63235Y11254D01*
X63239Y11255D01*
X63244Y11256D01*
X63249Y11258D01*
X63254Y11259D01*
X63261Y11260D01*
X63273Y11262D01*
X63287Y11263D01*
X63287D01*
X63289D01*
X63290D01*
X63293Y11262D01*
D02*
G37*
G36*
X63351Y10966D02*
X63352Y10965D01*
X63352Y10963D01*
X63353Y10962D01*
X63354Y10959D01*
X63356Y10957D01*
X63359Y10951D01*
X63363Y10943D01*
X63368Y10936D01*
X63374Y10928D01*
X63380Y10921D01*
X63381Y10920D01*
X63381Y10920D01*
X63382Y10919D01*
X63383Y10918D01*
X63387Y10914D01*
X63391Y10910D01*
X63396Y10906D01*
X63402Y10901D01*
X63408Y10897D01*
X63414Y10893D01*
Y10873D01*
X63161D01*
Y10904D01*
X63358D01*
X63358Y10904D01*
X63356Y10906D01*
X63354Y10908D01*
X63352Y10912D01*
X63348Y10916D01*
X63345Y10921D01*
X63341Y10927D01*
X63337Y10934D01*
Y10934D01*
X63336Y10934D01*
X63335Y10937D01*
X63333Y10940D01*
X63331Y10945D01*
X63328Y10950D01*
X63326Y10955D01*
X63323Y10961D01*
X63321Y10966D01*
X63351D01*
Y10966D01*
D02*
G37*
G36*
X63232Y10763D02*
X63231D01*
X63231Y10762D01*
X63229Y10762D01*
X63227Y10761D01*
X63225Y10761D01*
X63223Y10760D01*
X63217Y10759D01*
X63211Y10756D01*
X63205Y10753D01*
X63199Y10749D01*
X63194Y10745D01*
X63193Y10744D01*
X63192Y10742D01*
X63190Y10740D01*
X63188Y10736D01*
X63186Y10732D01*
X63184Y10726D01*
X63183Y10720D01*
X63182Y10713D01*
Y10711D01*
X63183Y10710D01*
X63183Y10706D01*
X63184Y10701D01*
X63186Y10695D01*
X63189Y10689D01*
X63192Y10682D01*
X63197Y10677D01*
X63198Y10676D01*
X63200Y10674D01*
X63203Y10672D01*
X63208Y10669D01*
X63213Y10666D01*
X63219Y10664D01*
X63227Y10662D01*
X63235Y10661D01*
X63235D01*
X63236D01*
X63237D01*
X63238Y10662D01*
X63242Y10662D01*
X63247Y10663D01*
X63253Y10665D01*
X63259Y10667D01*
X63265Y10671D01*
X63270Y10676D01*
X63271Y10676D01*
X63272Y10678D01*
X63274Y10681D01*
X63277Y10685D01*
X63280Y10690D01*
X63282Y10696D01*
X63283Y10703D01*
X63284Y10711D01*
Y10714D01*
X63284Y10717D01*
X63283Y10720D01*
X63282Y10724D01*
X63282Y10728D01*
X63281Y10733D01*
X63308Y10729D01*
Y10727D01*
X63308Y10726D01*
Y10721D01*
X63308Y10717D01*
X63309Y10712D01*
X63310Y10707D01*
X63312Y10701D01*
X63314Y10695D01*
X63318Y10689D01*
Y10688D01*
X63318Y10688D01*
X63320Y10686D01*
X63322Y10684D01*
X63325Y10681D01*
X63330Y10678D01*
X63336Y10675D01*
X63342Y10673D01*
X63345Y10673D01*
X63349D01*
X63350D01*
X63350D01*
X63352D01*
X63355Y10673D01*
X63359Y10674D01*
X63364Y10676D01*
X63368Y10677D01*
X63373Y10680D01*
X63377Y10684D01*
X63378Y10685D01*
X63379Y10686D01*
X63381Y10689D01*
X63383Y10692D01*
X63385Y10697D01*
X63387Y10702D01*
X63388Y10708D01*
X63389Y10714D01*
Y10717D01*
X63388Y10720D01*
X63387Y10725D01*
X63386Y10729D01*
X63384Y10734D01*
X63381Y10739D01*
X63377Y10744D01*
X63377Y10744D01*
X63375Y10746D01*
X63373Y10748D01*
X63369Y10751D01*
X63364Y10753D01*
X63358Y10756D01*
X63352Y10758D01*
X63344Y10759D01*
X63349Y10790D01*
X63349D01*
X63350Y10790D01*
X63352Y10789D01*
X63354Y10789D01*
X63357Y10788D01*
X63360Y10787D01*
X63367Y10785D01*
X63375Y10781D01*
X63383Y10777D01*
X63390Y10772D01*
X63397Y10765D01*
X63397Y10764D01*
X63398Y10764D01*
X63399Y10763D01*
X63400Y10761D01*
X63401Y10759D01*
X63403Y10757D01*
X63404Y10754D01*
X63406Y10751D01*
X63409Y10744D01*
X63412Y10735D01*
X63413Y10725D01*
X63414Y10720D01*
Y10711D01*
X63414Y10707D01*
X63413Y10702D01*
X63412Y10697D01*
X63410Y10690D01*
X63408Y10684D01*
X63405Y10677D01*
Y10677D01*
X63405Y10676D01*
X63404Y10674D01*
X63401Y10671D01*
X63399Y10667D01*
X63395Y10663D01*
X63391Y10658D01*
X63387Y10654D01*
X63381Y10650D01*
X63380Y10650D01*
X63379Y10649D01*
X63375Y10647D01*
X63371Y10646D01*
X63367Y10644D01*
X63361Y10642D01*
X63355Y10641D01*
X63349Y10641D01*
X63348D01*
X63346D01*
X63343Y10641D01*
X63339Y10642D01*
X63334Y10643D01*
X63329Y10645D01*
X63324Y10647D01*
X63319Y10650D01*
X63318Y10650D01*
X63317Y10652D01*
X63314Y10654D01*
X63311Y10657D01*
X63308Y10660D01*
X63304Y10665D01*
X63301Y10670D01*
X63298Y10676D01*
Y10676D01*
X63297Y10675D01*
X63297Y10674D01*
X63297Y10672D01*
X63295Y10668D01*
X63293Y10663D01*
X63290Y10657D01*
X63286Y10652D01*
X63282Y10646D01*
X63276Y10641D01*
X63276Y10641D01*
X63273Y10639D01*
X63270Y10637D01*
X63265Y10635D01*
X63259Y10633D01*
X63252Y10630D01*
X63244Y10629D01*
X63235Y10629D01*
X63235D01*
X63234D01*
X63232D01*
X63230Y10629D01*
X63227Y10629D01*
X63224Y10630D01*
X63220Y10631D01*
X63216Y10631D01*
X63207Y10634D01*
X63203Y10637D01*
X63198Y10639D01*
X63194Y10642D01*
X63189Y10645D01*
X63184Y10649D01*
X63180Y10653D01*
X63179Y10653D01*
X63179Y10654D01*
X63178Y10655D01*
X63176Y10657D01*
X63174Y10660D01*
X63172Y10662D01*
X63170Y10666D01*
X63168Y10670D01*
X63166Y10674D01*
X63164Y10678D01*
X63162Y10683D01*
X63160Y10689D01*
X63159Y10694D01*
X63158Y10701D01*
X63157Y10707D01*
X63157Y10714D01*
Y10717D01*
X63157Y10719D01*
X63158Y10722D01*
X63158Y10725D01*
X63159Y10729D01*
X63159Y10733D01*
X63162Y10742D01*
X63165Y10751D01*
X63167Y10756D01*
X63170Y10760D01*
X63173Y10764D01*
X63176Y10769D01*
X63177Y10769D01*
X63178Y10770D01*
X63179Y10771D01*
X63180Y10772D01*
X63182Y10774D01*
X63185Y10776D01*
X63187Y10778D01*
X63190Y10780D01*
X63194Y10782D01*
X63198Y10784D01*
X63206Y10788D01*
X63217Y10792D01*
X63222Y10793D01*
X63228Y10793D01*
X63232Y10763D01*
D02*
G37*
G36*
X63293Y16535D02*
X63296D01*
X63300Y16535D01*
X63305Y16534D01*
X63309Y16534D01*
X63320Y16532D01*
X63331Y16529D01*
X63343Y16526D01*
X63355Y16521D01*
X63355Y16520D01*
X63356Y16520D01*
X63358Y16519D01*
X63360Y16518D01*
X63362Y16516D01*
X63365Y16514D01*
X63372Y16509D01*
X63379Y16503D01*
X63387Y16496D01*
X63395Y16487D01*
X63401Y16478D01*
X63402Y16477D01*
X63402Y16476D01*
X63403Y16475D01*
X63404Y16472D01*
X63405Y16470D01*
X63406Y16467D01*
X63408Y16463D01*
X63409Y16459D01*
X63411Y16455D01*
X63412Y16450D01*
X63415Y16439D01*
X63417Y16428D01*
X63417Y16422D01*
Y16412D01*
X63417Y16409D01*
Y16406D01*
X63417Y16403D01*
X63416Y16398D01*
X63415Y16394D01*
X63413Y16384D01*
X63410Y16373D01*
X63406Y16363D01*
X63404Y16357D01*
X63401Y16352D01*
X63400Y16352D01*
X63400Y16351D01*
X63399Y16349D01*
X63398Y16347D01*
X63396Y16345D01*
X63394Y16342D01*
X63389Y16336D01*
X63382Y16329D01*
X63374Y16322D01*
X63365Y16315D01*
X63354Y16309D01*
X63354D01*
X63353Y16309D01*
X63351Y16308D01*
X63349Y16307D01*
X63346Y16306D01*
X63343Y16305D01*
X63339Y16303D01*
X63334Y16302D01*
X63330Y16301D01*
X63325Y16299D01*
X63319Y16298D01*
X63313Y16297D01*
X63301Y16295D01*
X63287Y16294D01*
X63287D01*
X63286D01*
X63284D01*
X63282D01*
X63279Y16295D01*
X63276D01*
X63272Y16295D01*
X63268Y16296D01*
X63260Y16297D01*
X63250Y16298D01*
X63240Y16301D01*
X63231Y16304D01*
X63231D01*
X63230Y16304D01*
X63228Y16305D01*
X63227Y16306D01*
X63225Y16307D01*
X63222Y16308D01*
X63216Y16311D01*
X63210Y16315D01*
X63202Y16320D01*
X63195Y16326D01*
X63188Y16332D01*
Y16332D01*
X63187Y16331D01*
X63186Y16330D01*
X63185Y16328D01*
X63184Y16327D01*
X63182Y16324D01*
X63179Y16318D01*
X63175Y16312D01*
X63171Y16305D01*
X63168Y16297D01*
X63164Y16290D01*
X63141Y16300D01*
Y16300D01*
X63142Y16301D01*
X63143Y16302D01*
X63143Y16304D01*
X63144Y16307D01*
X63146Y16310D01*
X63147Y16313D01*
X63149Y16317D01*
X63153Y16325D01*
X63159Y16334D01*
X63165Y16344D01*
X63172Y16354D01*
Y16354D01*
X63172Y16355D01*
X63171Y16357D01*
X63170Y16359D01*
X63169Y16361D01*
X63167Y16364D01*
X63166Y16368D01*
X63165Y16372D01*
X63163Y16376D01*
X63162Y16381D01*
X63159Y16392D01*
X63157Y16403D01*
X63157Y16409D01*
X63157Y16416D01*
Y16419D01*
X63157Y16422D01*
Y16424D01*
X63157Y16428D01*
X63158Y16432D01*
X63159Y16436D01*
X63161Y16446D01*
X63164Y16456D01*
X63168Y16467D01*
X63170Y16472D01*
X63173Y16478D01*
X63173Y16478D01*
X63174Y16479D01*
X63175Y16480D01*
X63176Y16482D01*
X63178Y16485D01*
X63180Y16487D01*
X63185Y16494D01*
X63192Y16500D01*
X63200Y16507D01*
X63209Y16514D01*
X63219Y16521D01*
X63220D01*
X63221Y16521D01*
X63222Y16522D01*
X63224Y16523D01*
X63227Y16524D01*
X63231Y16525D01*
X63235Y16527D01*
X63239Y16528D01*
X63244Y16529D01*
X63249Y16531D01*
X63254Y16532D01*
X63260Y16533D01*
X63273Y16535D01*
X63287Y16535D01*
X63287D01*
X63288D01*
X63290D01*
X63293Y16535D01*
D02*
G37*
G36*
X63351Y16238D02*
X63351Y16238D01*
X63352Y16236D01*
X63353Y16234D01*
X63354Y16232D01*
X63355Y16230D01*
X63359Y16223D01*
X63363Y16216D01*
X63368Y16209D01*
X63374Y16201D01*
X63380Y16194D01*
X63381Y16193D01*
X63381Y16193D01*
X63382Y16192D01*
X63383Y16190D01*
X63387Y16187D01*
X63391Y16183D01*
X63396Y16178D01*
X63402Y16174D01*
X63408Y16170D01*
X63414Y16166D01*
Y16146D01*
X63161D01*
Y16177D01*
X63358D01*
X63358Y16177D01*
X63356Y16179D01*
X63354Y16181D01*
X63351Y16185D01*
X63348Y16189D01*
X63345Y16194D01*
X63341Y16200D01*
X63337Y16206D01*
Y16207D01*
X63336Y16207D01*
X63335Y16209D01*
X63333Y16213D01*
X63331Y16217D01*
X63328Y16222D01*
X63326Y16228D01*
X63323Y16233D01*
X63321Y16239D01*
X63351D01*
Y16238D01*
D02*
G37*
G36*
X63413Y15962D02*
Y15937D01*
X63250D01*
Y15902D01*
X63222D01*
Y15937D01*
X63161D01*
Y15968D01*
X63222D01*
Y16077D01*
X63250D01*
X63413Y15962D01*
D02*
G37*
%LPC*%
G36*
X63287Y11228D02*
X63286D01*
X63285D01*
X63282D01*
X63279Y11228D01*
X63275Y11228D01*
X63270Y11227D01*
X63265Y11226D01*
X63259Y11226D01*
X63247Y11223D01*
X63241Y11221D01*
X63234Y11218D01*
X63228Y11216D01*
X63222Y11212D01*
X63217Y11209D01*
X63211Y11204D01*
X63211Y11204D01*
X63210Y11203D01*
X63209Y11202D01*
X63207Y11200D01*
X63205Y11198D01*
X63203Y11195D01*
X63201Y11191D01*
X63198Y11187D01*
X63196Y11183D01*
X63194Y11179D01*
X63191Y11173D01*
X63189Y11168D01*
X63188Y11162D01*
X63186Y11156D01*
X63186Y11149D01*
X63185Y11142D01*
Y11139D01*
X63186Y11136D01*
X63186Y11131D01*
X63187Y11126D01*
X63188Y11120D01*
X63190Y11114D01*
X63192Y11108D01*
X63192Y11109D01*
X63194Y11111D01*
X63195Y11114D01*
X63198Y11118D01*
X63200Y11123D01*
X63202Y11129D01*
X63205Y11135D01*
X63206Y11141D01*
X63230Y11133D01*
Y11133D01*
X63230Y11132D01*
X63230Y11130D01*
X63229Y11128D01*
X63228Y11126D01*
X63227Y11123D01*
X63225Y11116D01*
X63221Y11109D01*
X63217Y11101D01*
X63212Y11093D01*
X63206Y11085D01*
X63207Y11085D01*
X63207Y11084D01*
X63209Y11082D01*
X63211Y11081D01*
X63214Y11078D01*
X63218Y11076D01*
X63222Y11073D01*
X63226Y11070D01*
X63232Y11068D01*
X63238Y11065D01*
X63245Y11063D01*
X63251Y11061D01*
X63259Y11058D01*
X63268Y11057D01*
X63277Y11056D01*
X63287Y11056D01*
X63287D01*
X63288D01*
X63290D01*
X63292D01*
X63295Y11056D01*
X63298D01*
X63301Y11057D01*
X63305Y11057D01*
X63313Y11058D01*
X63322Y11060D01*
X63332Y11063D01*
X63340Y11066D01*
X63341D01*
X63341Y11067D01*
X63342Y11068D01*
X63344Y11068D01*
X63348Y11071D01*
X63353Y11074D01*
X63359Y11078D01*
X63365Y11084D01*
X63371Y11090D01*
X63376Y11097D01*
Y11097D01*
X63377Y11098D01*
X63377Y11099D01*
X63378Y11101D01*
X63379Y11102D01*
X63380Y11105D01*
X63383Y11110D01*
X63385Y11117D01*
X63387Y11124D01*
X63388Y11133D01*
X63389Y11142D01*
Y11146D01*
X63388Y11148D01*
X63388Y11152D01*
X63387Y11155D01*
X63387Y11159D01*
X63385Y11164D01*
X63384Y11169D01*
X63383Y11173D01*
X63380Y11179D01*
X63378Y11184D01*
X63375Y11189D01*
X63371Y11194D01*
X63368Y11199D01*
X63363Y11204D01*
X63363Y11204D01*
X63362Y11205D01*
X63360Y11206D01*
X63358Y11208D01*
X63356Y11210D01*
X63352Y11212D01*
X63348Y11214D01*
X63344Y11216D01*
X63339Y11219D01*
X63333Y11221D01*
X63327Y11223D01*
X63320Y11224D01*
X63313Y11226D01*
X63305Y11227D01*
X63296Y11228D01*
X63287Y11228D01*
D02*
G37*
G36*
X63287Y16501D02*
X63286D01*
X63284D01*
X63282D01*
X63279Y16501D01*
X63275Y16500D01*
X63270Y16500D01*
X63264Y16499D01*
X63259Y16498D01*
X63247Y16495D01*
X63240Y16494D01*
X63234Y16491D01*
X63228Y16488D01*
X63222Y16485D01*
X63216Y16482D01*
X63211Y16477D01*
X63211Y16477D01*
X63210Y16476D01*
X63209Y16475D01*
X63207Y16473D01*
X63205Y16470D01*
X63203Y16467D01*
X63201Y16464D01*
X63198Y16460D01*
X63196Y16456D01*
X63193Y16451D01*
X63191Y16446D01*
X63189Y16441D01*
X63188Y16435D01*
X63186Y16428D01*
X63185Y16422D01*
X63185Y16415D01*
Y16412D01*
X63185Y16408D01*
X63186Y16404D01*
X63187Y16399D01*
X63188Y16393D01*
X63189Y16387D01*
X63192Y16381D01*
X63192Y16382D01*
X63193Y16384D01*
X63195Y16387D01*
X63197Y16391D01*
X63200Y16396D01*
X63202Y16401D01*
X63204Y16408D01*
X63206Y16414D01*
X63230Y16406D01*
Y16405D01*
X63230Y16404D01*
X63230Y16403D01*
X63229Y16401D01*
X63228Y16399D01*
X63227Y16396D01*
X63224Y16389D01*
X63221Y16381D01*
X63217Y16373D01*
X63212Y16366D01*
X63206Y16358D01*
X63207Y16358D01*
X63207Y16357D01*
X63209Y16355D01*
X63211Y16353D01*
X63214Y16351D01*
X63218Y16349D01*
X63222Y16346D01*
X63226Y16343D01*
X63232Y16341D01*
X63238Y16338D01*
X63244Y16336D01*
X63251Y16333D01*
X63259Y16331D01*
X63268Y16330D01*
X63277Y16329D01*
X63287Y16329D01*
X63287D01*
X63288D01*
X63290D01*
X63292D01*
X63295Y16329D01*
X63298D01*
X63301Y16329D01*
X63305Y16330D01*
X63313Y16331D01*
X63322Y16333D01*
X63331Y16336D01*
X63340Y16339D01*
X63341D01*
X63341Y16340D01*
X63342Y16340D01*
X63344Y16341D01*
X63348Y16344D01*
X63353Y16347D01*
X63359Y16351D01*
X63365Y16357D01*
X63371Y16363D01*
X63376Y16370D01*
Y16370D01*
X63377Y16371D01*
X63377Y16372D01*
X63378Y16373D01*
X63379Y16375D01*
X63380Y16377D01*
X63382Y16383D01*
X63385Y16389D01*
X63387Y16397D01*
X63388Y16406D01*
X63389Y16415D01*
Y16419D01*
X63388Y16421D01*
X63388Y16424D01*
X63387Y16428D01*
X63386Y16432D01*
X63385Y16436D01*
X63384Y16442D01*
X63382Y16446D01*
X63380Y16451D01*
X63378Y16457D01*
X63375Y16462D01*
X63371Y16467D01*
X63367Y16472D01*
X63363Y16477D01*
X63362Y16477D01*
X63362Y16478D01*
X63360Y16479D01*
X63358Y16480D01*
X63355Y16483D01*
X63352Y16484D01*
X63348Y16487D01*
X63344Y16489D01*
X63339Y16491D01*
X63333Y16494D01*
X63327Y16495D01*
X63320Y16497D01*
X63313Y16499D01*
X63305Y16500D01*
X63296Y16501D01*
X63287Y16501D01*
D02*
G37*
G36*
X63250Y16047D02*
Y15968D01*
X63363D01*
X63250Y16047D01*
D02*
G37*
%LPD*%
D13*
X0Y0D02*
Y33465D01*
X66929Y0D02*
Y40551D01*
X44094Y42520D02*
X46063Y40551D01*
X12992D02*
X14961Y42520D01*
X0Y33465D02*
X7087Y40551D01*
X12992D01*
X46063D02*
X66929D01*
X0Y0D02*
X66929D01*
X14961Y42520D02*
X44094D01*
X10924Y21947D02*
X11252D01*
X11317Y21882D01*
Y21750D01*
X11252Y21685D01*
X10924D01*
X11317Y21291D02*
Y21554D01*
X11055Y21291D01*
X10989D01*
X10924Y21357D01*
Y21488D01*
X10989Y21554D01*
X29821Y21947D02*
X30149D01*
X30215Y21882D01*
Y21750D01*
X30149Y21685D01*
X29821D01*
X29887Y21554D02*
X29821Y21488D01*
Y21357D01*
X29887Y21291D01*
X29953D01*
X30018Y21357D01*
Y21422D01*
Y21357D01*
X30084Y21291D01*
X30149D01*
X30215Y21357D01*
Y21488D01*
X30149Y21554D01*
X48719Y21947D02*
X49047D01*
X49113Y21882D01*
Y21750D01*
X49047Y21685D01*
X48719D01*
X49113Y21357D02*
X48719D01*
X48916Y21554D01*
Y21291D01*
D16*
X54213Y30274D02*
Y30825D01*
X53032D02*
X54213D01*
X53032Y30274D02*
Y30825D01*
Y30274D02*
X54213D01*
X28813Y34360D02*
X30387D01*
X28813Y30915D02*
Y34360D01*
Y30915D02*
X30387D01*
Y34360D01*
X66520Y9043D02*
Y13482D01*
X59911Y9043D02*
X66520D01*
X59911D02*
Y13482D01*
X66520D01*
X59911Y18755D02*
X66520D01*
X59911Y14316D02*
Y18755D01*
Y14316D02*
X66520D01*
Y18755D01*
X5738Y10886D02*
X6093D01*
Y10374D02*
Y10886D01*
X5738Y10374D02*
X6093D01*
X5738D02*
Y10886D01*
X10618D02*
X10972D01*
Y10374D02*
Y10886D01*
X10618Y10374D02*
X10972D01*
X10618D02*
Y10886D01*
X15244D02*
X15598D01*
Y10374D02*
Y10886D01*
X15244Y10374D02*
X15598D01*
X15244D02*
Y10886D01*
X17126Y17441D02*
X18307D01*
X17126D02*
Y17992D01*
X18307D01*
Y17441D02*
Y17992D01*
X29516Y10886D02*
X29870D01*
Y10374D02*
Y10886D01*
X29516Y10374D02*
X29870D01*
X29516D02*
Y10886D01*
X31516Y38114D02*
Y38626D01*
Y38114D02*
X31870D01*
Y38626D01*
X31516D02*
X31870D01*
X33516Y38114D02*
Y38626D01*
Y38114D02*
X33870D01*
Y38626D01*
X33516D02*
X33870D01*
X36919Y17418D02*
Y17969D01*
X35738D02*
X36919D01*
X35738Y17418D02*
Y17969D01*
Y17418D02*
X36919D01*
X54811Y16572D02*
Y17124D01*
X53630D02*
X54811D01*
X53630Y16572D02*
Y17124D01*
Y16572D02*
X54811D01*
X1079Y10932D02*
X1434D01*
Y10420D02*
Y10932D01*
X1079Y10420D02*
X1434D01*
X1079D02*
Y10932D01*
X20067Y10886D02*
X20421D01*
Y10374D02*
Y10886D01*
X20067Y10374D02*
X20421D01*
X20067D02*
Y10886D01*
X24626D02*
X24980D01*
Y10374D02*
Y10886D01*
X24626Y10374D02*
X24980D01*
X24626D02*
Y10886D01*
X32509Y38626D02*
X32863D01*
Y38114D02*
Y38626D01*
X32509Y38114D02*
X32863D01*
X32509D02*
Y38626D01*
X34075Y10886D02*
X34429D01*
Y10374D02*
Y10886D01*
X34075Y10374D02*
X34429D01*
X34075D02*
Y10886D01*
X38965D02*
X39319D01*
Y10374D02*
Y10886D01*
X38965Y10374D02*
X39319D01*
X38965D02*
Y10886D01*
X43524D02*
X43878D01*
Y10374D02*
Y10886D01*
X43524Y10374D02*
X43878D01*
X43524D02*
Y10886D01*
X48413D02*
X48768D01*
Y10374D02*
Y10886D01*
X48413Y10374D02*
X48768D01*
X48413D02*
Y10886D01*
X52972D02*
X53327D01*
Y10374D02*
Y10886D01*
X52972Y10374D02*
X53327D01*
X52972D02*
Y10886D01*
D18*
X13157Y33857D02*
X12895D01*
X12842Y33804D01*
Y33699D01*
X12895Y33647D01*
X13157D01*
X12842Y33542D02*
Y33437D01*
Y33489D01*
X13157D01*
X13105Y33542D01*
Y33279D02*
X13157Y33227D01*
Y33122D01*
X13105Y33070D01*
X12895D01*
X12842Y33122D01*
Y33227D01*
X12895Y33279D01*
X13105D01*
M02*
