G04*
G04 #@! TF.GenerationSoftware,Altium Limited,Altium Designer,20.2.6 (244)*
G04*
G04 Layer_Color=255*
%FSLAX24Y24*%
%MOIN*%
G70*
G04*
G04 #@! TF.SameCoordinates,10E2E559-7701-499E-A428-1A66D90B70A8*
G04*
G04*
G04 #@! TF.FilePolarity,Positive*
G04*
G01*
G75*
%ADD13C,0.0100*%
%ADD18C,0.0039*%
%ADD21R,0.0600X0.0800*%
%ADD23R,0.0906X0.0984*%
%ADD24R,0.1690X0.0630*%
%ADD31R,0.0800X0.0600*%
%ADD34R,0.0256X0.0118*%
%ADD35R,0.0118X0.0256*%
%ADD71C,0.0630*%
%ADD72R,0.0630X0.0630*%
%ADD74R,0.0630X0.0630*%
%ADD83R,0.0335X0.0335*%
%ADD84R,0.0400X0.0600*%
%ADD85R,0.0630X0.1378*%
%ADD86R,0.3660X0.4360*%
%ADD87R,0.0400X0.0320*%
%ADD88R,0.0748X0.1654*%
%ADD89R,0.0472X0.0433*%
%ADD90C,0.0472*%
%ADD91R,0.0600X0.0400*%
%ADD92R,0.0335X0.0335*%
%ADD93R,0.1378X0.0630*%
%ADD94R,0.0197X0.0197*%
%ADD95R,0.1654X0.0748*%
G04:AMPARAMS|DCode=96|XSize=35.4mil|YSize=57.1mil|CornerRadius=1.9mil|HoleSize=0mil|Usage=FLASHONLY|Rotation=0.000|XOffset=0mil|YOffset=0mil|HoleType=Round|Shape=RoundedRectangle|*
%AMROUNDEDRECTD96*
21,1,0.0354,0.0532,0,0,0.0*
21,1,0.0315,0.0571,0,0,0.0*
1,1,0.0039,0.0158,-0.0266*
1,1,0.0039,-0.0158,-0.0266*
1,1,0.0039,-0.0158,0.0266*
1,1,0.0039,0.0158,0.0266*
%
%ADD96ROUNDEDRECTD96*%
G04:AMPARAMS|DCode=97|XSize=124mil|YSize=57.1mil|CornerRadius=2mil|HoleSize=0mil|Usage=FLASHONLY|Rotation=0.000|XOffset=0mil|YOffset=0mil|HoleType=Round|Shape=RoundedRectangle|*
%AMROUNDEDRECTD97*
21,1,0.1240,0.0531,0,0,0.0*
21,1,0.1200,0.0571,0,0,0.0*
1,1,0.0040,0.0600,-0.0265*
1,1,0.0040,-0.0600,-0.0265*
1,1,0.0040,-0.0600,0.0265*
1,1,0.0040,0.0600,0.0265*
%
%ADD97ROUNDEDRECTD97*%
%ADD98R,0.1575X0.2362*%
%ADD99R,0.0197X0.0197*%
%ADD104C,0.1575*%
%ADD105C,0.1063*%
%ADD106R,0.1063X0.1063*%
%ADD107C,0.0709*%
%ADD108C,0.0984*%
%ADD109C,0.0787*%
%ADD110C,0.0600*%
%ADD111C,0.0650*%
%ADD112C,0.0591*%
%ADD113R,0.0591X0.0591*%
%ADD114C,0.0315*%
%ADD115R,0.0591X0.0591*%
%ADD116C,0.4724*%
G04:AMPARAMS|DCode=117|XSize=75mil|YSize=78.7mil|CornerRadius=37.5mil|HoleSize=0mil|Usage=FLASHONLY|Rotation=0.000|XOffset=0mil|YOffset=0mil|HoleType=Round|Shape=RoundedRectangle|*
%AMROUNDEDRECTD117*
21,1,0.0750,0.0037,0,0,0.0*
21,1,0.0000,0.0787,0,0,0.0*
1,1,0.0750,0.0000,-0.0019*
1,1,0.0750,0.0000,-0.0019*
1,1,0.0750,0.0000,0.0019*
1,1,0.0750,0.0000,0.0019*
%
%ADD117ROUNDEDRECTD117*%
%ADD118R,0.0750X0.0787*%
D13*
X0Y0D02*
Y33465D01*
X66929Y0D02*
Y40551D01*
X44094Y42520D02*
X46063Y40551D01*
X12992D02*
X14961Y42520D01*
X0Y33465D02*
X7087Y40551D01*
X12992D01*
X46063D02*
X66929D01*
X0Y0D02*
X66929D01*
X14961Y42520D02*
X44094D01*
X10924Y21947D02*
X11252D01*
X11317Y21882D01*
Y21750D01*
X11252Y21685D01*
X10924D01*
X11317Y21291D02*
Y21554D01*
X11055Y21291D01*
X10989D01*
X10924Y21357D01*
Y21488D01*
X10989Y21554D01*
X29821Y21947D02*
X30149D01*
X30215Y21882D01*
Y21750D01*
X30149Y21685D01*
X29821D01*
X29887Y21554D02*
X29821Y21488D01*
Y21357D01*
X29887Y21291D01*
X29953D01*
X30018Y21357D01*
Y21422D01*
Y21357D01*
X30084Y21291D01*
X30149D01*
X30215Y21357D01*
Y21488D01*
X30149Y21554D01*
X48719Y21947D02*
X49047D01*
X49113Y21882D01*
Y21750D01*
X49047Y21685D01*
X48719D01*
X49113Y21357D02*
X48719D01*
X48916Y21554D01*
Y21291D01*
D18*
X13157Y33857D02*
X12895D01*
X12842Y33804D01*
Y33699D01*
X12895Y33647D01*
X13157D01*
X12842Y33542D02*
Y33437D01*
Y33489D01*
X13157D01*
X13105Y33542D01*
Y33279D02*
X13157Y33227D01*
Y33122D01*
X13105Y33070D01*
X12895D01*
X12842Y33122D01*
Y33227D01*
X12895Y33279D01*
X13105D01*
D21*
X51418Y32480D02*
D03*
X52519D02*
D03*
X48269Y33071D02*
D03*
X49369D02*
D03*
X44332D02*
D03*
X45432D02*
D03*
X47400D02*
D03*
X46300D02*
D03*
X61891Y36575D02*
D03*
X62991D02*
D03*
X56735Y30630D02*
D03*
X57835D02*
D03*
D23*
X48622Y36673D02*
D03*
Y34980D02*
D03*
X46850Y36673D02*
D03*
Y34980D02*
D03*
X45079Y36673D02*
D03*
Y34980D02*
D03*
X8574Y19833D02*
D03*
Y21526D02*
D03*
X27362Y19823D02*
D03*
Y21516D02*
D03*
X46260Y19823D02*
D03*
Y21516D02*
D03*
D24*
X60796Y12263D02*
D03*
Y10263D02*
D03*
X60796Y15535D02*
D03*
Y17535D02*
D03*
D31*
X60039Y33804D02*
D03*
Y34904D02*
D03*
X4542Y16828D02*
D03*
Y15728D02*
D03*
X12470Y23385D02*
D03*
Y22285D02*
D03*
X13583Y23385D02*
D03*
Y22285D02*
D03*
X17018Y15367D02*
D03*
Y16467D02*
D03*
X24006Y15728D02*
D03*
Y16828D02*
D03*
X31576Y23385D02*
D03*
Y22285D02*
D03*
X32677Y23385D02*
D03*
Y22285D02*
D03*
X35738Y15344D02*
D03*
Y16444D02*
D03*
X42815Y15728D02*
D03*
Y16828D02*
D03*
X50205Y23253D02*
D03*
Y22153D02*
D03*
X51386Y23253D02*
D03*
Y22153D02*
D03*
X54134Y14126D02*
D03*
Y15226D02*
D03*
D34*
X2266Y16828D02*
D03*
X1734D02*
D03*
D35*
X3678Y18146D02*
D03*
Y17615D02*
D03*
X4542Y18146D02*
D03*
Y17615D02*
D03*
X23260Y18179D02*
D03*
Y17648D02*
D03*
X24006Y18179D02*
D03*
Y17648D02*
D03*
X41995Y18179D02*
D03*
Y17648D02*
D03*
X42815Y17648D02*
D03*
Y18179D02*
D03*
D71*
X24622Y36507D02*
D03*
X23622D02*
D03*
X12205Y39173D02*
D03*
X20528Y22996D02*
D03*
Y23996D02*
D03*
Y25996D02*
D03*
Y26996D02*
D03*
Y24996D02*
D03*
Y29996D02*
D03*
Y32996D02*
D03*
Y34996D02*
D03*
Y35996D02*
D03*
Y33996D02*
D03*
Y31996D02*
D03*
Y30996D02*
D03*
X39528Y40596D02*
D03*
Y39596D02*
D03*
Y36596D02*
D03*
Y34596D02*
D03*
Y32596D02*
D03*
Y33596D02*
D03*
Y35596D02*
D03*
Y37596D02*
D03*
Y38596D02*
D03*
Y29996D02*
D03*
Y28996D02*
D03*
Y26996D02*
D03*
Y24996D02*
D03*
Y23996D02*
D03*
Y25996D02*
D03*
Y27996D02*
D03*
D72*
X20528D02*
D03*
Y36996D02*
D03*
X39528Y31596D02*
D03*
Y22996D02*
D03*
D74*
X22622Y36507D02*
D03*
X11205Y39173D02*
D03*
D83*
X37884Y32213D02*
D03*
X38494D02*
D03*
X37871Y39881D02*
D03*
X38481D02*
D03*
X48839Y31299D02*
D03*
X48228D02*
D03*
X44774D02*
D03*
X45384D02*
D03*
X22352Y33465D02*
D03*
X21742D02*
D03*
X31744Y31672D02*
D03*
X32354D02*
D03*
X10541Y20566D02*
D03*
X9931D02*
D03*
X26889Y32638D02*
D03*
X27500D02*
D03*
X26887Y34095D02*
D03*
X27498D02*
D03*
X29438Y20566D02*
D03*
X28827D02*
D03*
X47695Y20653D02*
D03*
X48305D02*
D03*
X47156Y31299D02*
D03*
X46545D02*
D03*
X3846Y29135D02*
D03*
X4456D02*
D03*
X4451Y29916D02*
D03*
X3841D02*
D03*
X21746Y20823D02*
D03*
X22356D02*
D03*
X21746Y21628D02*
D03*
X22356D02*
D03*
X21746Y22450D02*
D03*
X22356D02*
D03*
X21746Y23265D02*
D03*
X22356D02*
D03*
X21746Y24009D02*
D03*
X22356D02*
D03*
X21746Y25013D02*
D03*
X22356D02*
D03*
X21746Y26001D02*
D03*
X22356D02*
D03*
X21746Y26963D02*
D03*
X22356D02*
D03*
X22356Y27979D02*
D03*
X21746D02*
D03*
X24543Y26001D02*
D03*
X25154D02*
D03*
X27500Y33430D02*
D03*
X26889D02*
D03*
X30366Y31147D02*
D03*
X29756D02*
D03*
X30366Y32043D02*
D03*
X29756D02*
D03*
X38494Y24478D02*
D03*
X37884D02*
D03*
X37884Y26001D02*
D03*
X38494D02*
D03*
X38494Y27002D02*
D03*
X37884D02*
D03*
X38494Y27992D02*
D03*
X37884D02*
D03*
X37884Y28996D02*
D03*
X38494D02*
D03*
X38494Y29983D02*
D03*
X37884D02*
D03*
X37884Y30805D02*
D03*
X38494D02*
D03*
Y33584D02*
D03*
X37884D02*
D03*
X37884Y34590D02*
D03*
X38494D02*
D03*
X38494Y35596D02*
D03*
X37884D02*
D03*
Y36587D02*
D03*
X38494D02*
D03*
X38494Y37596D02*
D03*
X37884D02*
D03*
X37884Y39076D02*
D03*
X38494D02*
D03*
X38494Y41339D02*
D03*
X37884D02*
D03*
X27500Y31997D02*
D03*
X26890D02*
D03*
X27462Y31244D02*
D03*
X26852D02*
D03*
D84*
X49022Y32087D02*
D03*
X48222D02*
D03*
X44679D02*
D03*
X45479D02*
D03*
X46450D02*
D03*
X47250D02*
D03*
X6400Y15728D02*
D03*
X5600D02*
D03*
X25794Y15728D02*
D03*
X24994D02*
D03*
X43695Y15728D02*
D03*
X44495D02*
D03*
X56675Y12482D02*
D03*
X57475D02*
D03*
X4556Y28344D02*
D03*
X3756D02*
D03*
X5600Y16732D02*
D03*
X6400D02*
D03*
X7080Y23228D02*
D03*
X7880D02*
D03*
X13777Y20376D02*
D03*
X12977D02*
D03*
X18468Y13110D02*
D03*
X19268D02*
D03*
X25000Y16732D02*
D03*
X25800D02*
D03*
X26003Y23228D02*
D03*
X26803D02*
D03*
X28684Y19078D02*
D03*
X29484D02*
D03*
X28690Y19825D02*
D03*
X29490D02*
D03*
X32767Y20376D02*
D03*
X31967D02*
D03*
X37157Y13186D02*
D03*
X37957D02*
D03*
X43694Y16732D02*
D03*
X44494D02*
D03*
X44965Y23228D02*
D03*
X45765D02*
D03*
X47598Y19057D02*
D03*
X48398D02*
D03*
Y19918D02*
D03*
X47598D02*
D03*
X51595Y20376D02*
D03*
X50795D02*
D03*
X55641Y25591D02*
D03*
X54841D02*
D03*
X54812Y27330D02*
D03*
X55612D02*
D03*
X55628Y28235D02*
D03*
X54828D02*
D03*
X55628Y26507D02*
D03*
X54828D02*
D03*
X12983Y21260D02*
D03*
X13783D02*
D03*
X31950D02*
D03*
X32750D02*
D03*
X50771D02*
D03*
X51571D02*
D03*
X56625Y27988D02*
D03*
X57425D02*
D03*
X61614Y34252D02*
D03*
X60814D02*
D03*
X5036Y24002D02*
D03*
X4236D02*
D03*
X10639Y19078D02*
D03*
X9839D02*
D03*
X10639Y19825D02*
D03*
X9839D02*
D03*
D85*
X48032Y27638D02*
D03*
Y29843D02*
D03*
X50984Y27638D02*
D03*
Y29843D02*
D03*
X45079Y27638D02*
D03*
Y29843D02*
D03*
X12087Y30510D02*
D03*
Y28305D02*
D03*
X53543Y35394D02*
D03*
Y37598D02*
D03*
D86*
X64651Y11263D02*
D03*
X64651Y16535D02*
D03*
D87*
X53150Y13918D02*
D03*
Y14593D02*
D03*
X24999Y18251D02*
D03*
Y17576D02*
D03*
X34065Y16260D02*
D03*
Y15585D02*
D03*
X52341Y14593D02*
D03*
Y13918D02*
D03*
X15271Y16282D02*
D03*
Y15607D02*
D03*
X43695Y18307D02*
D03*
Y17632D02*
D03*
X34835Y15585D02*
D03*
Y16260D02*
D03*
X5610Y18221D02*
D03*
Y17546D02*
D03*
X16062Y15607D02*
D03*
Y16282D02*
D03*
D88*
X56890Y37402D02*
D03*
Y34646D02*
D03*
X60630Y28543D02*
D03*
Y31299D02*
D03*
X8477Y31200D02*
D03*
Y28444D02*
D03*
X64513Y31299D02*
D03*
Y28543D02*
D03*
D89*
X53346Y30728D02*
D03*
Y29902D02*
D03*
X15271Y17871D02*
D03*
Y17044D02*
D03*
X34065Y17871D02*
D03*
Y17044D02*
D03*
X52541Y17871D02*
D03*
Y17044D02*
D03*
D90*
X13653Y19291D02*
D03*
X7431Y24803D02*
D03*
X8299Y24803D02*
D03*
X14370Y16286D02*
D03*
X28346Y25591D02*
D03*
X29134D02*
D03*
X32982Y16260D02*
D03*
X34835Y14538D02*
D03*
X52341Y15748D02*
D03*
X25887Y18898D02*
D03*
X6773Y18898D02*
D03*
X9473Y25591D02*
D03*
X16062Y14583D02*
D03*
X26378Y24803D02*
D03*
X27187D02*
D03*
X45472Y24803D02*
D03*
X46295Y24797D02*
D03*
X47246Y25591D02*
D03*
X48032D02*
D03*
X53150Y12982D02*
D03*
X10263Y25591D02*
D03*
X32582Y19060D02*
D03*
X44882Y18824D02*
D03*
X51315Y18470D02*
D03*
X53740Y39567D02*
D03*
X49425Y33899D02*
D03*
X46382Y33874D02*
D03*
X44351Y33874D02*
D03*
X61220Y38346D02*
D03*
X54732Y29196D02*
D03*
X60591Y24252D02*
D03*
X1260Y9846D02*
D03*
X61614Y27205D02*
D03*
X59488Y27835D02*
D03*
X48589Y9843D02*
D03*
X29698Y9844D02*
D03*
X20252Y9839D02*
D03*
X10789Y9871D02*
D03*
X53386Y28346D02*
D03*
X56708Y23935D02*
D03*
X53346Y26220D02*
D03*
X53386Y27559D02*
D03*
X15787Y35984D02*
D03*
X39141Y9836D02*
D03*
X53937Y24213D02*
D03*
X32677Y24092D02*
D03*
X63249Y33071D02*
D03*
X60826Y35942D02*
D03*
X60512Y32874D02*
D03*
X64764Y33071D02*
D03*
X6773Y19803D02*
D03*
X13583Y24803D02*
D03*
X11739Y18818D02*
D03*
X25810Y19593D02*
D03*
X30416Y19060D02*
D03*
X44882Y19783D02*
D03*
X51386Y24345D02*
D03*
X49290Y19040D02*
D03*
X17726Y14567D02*
D03*
X20089D02*
D03*
X19941Y17648D02*
D03*
X21457Y17648D02*
D03*
X15270Y14567D02*
D03*
X21457Y14567D02*
D03*
X36364Y14544D02*
D03*
X38803D02*
D03*
X38691Y17621D02*
D03*
X40133Y17621D02*
D03*
X34047Y14538D02*
D03*
X40015Y14538D02*
D03*
X55043Y13040D02*
D03*
X56979Y13516D02*
D03*
X54595Y18038D02*
D03*
X57610Y17131D02*
D03*
X56658Y17142D02*
D03*
X35827Y30315D02*
D03*
X28346Y29534D02*
D03*
X57087Y18344D02*
D03*
D91*
X10651Y32671D02*
D03*
Y33471D02*
D03*
X12992Y35820D02*
D03*
Y36620D02*
D03*
X58729Y26041D02*
D03*
Y25241D02*
D03*
Y26760D02*
D03*
Y27560D02*
D03*
X847Y16028D02*
D03*
Y15228D02*
D03*
X2021Y16000D02*
D03*
Y15200D02*
D03*
X25984Y21516D02*
D03*
Y22316D02*
D03*
X44969Y21588D02*
D03*
Y22388D02*
D03*
X7087Y22316D02*
D03*
Y21516D02*
D03*
X9473Y24803D02*
D03*
Y24003D02*
D03*
X10263Y24803D02*
D03*
Y24003D02*
D03*
X28346Y24803D02*
D03*
Y24003D02*
D03*
X29134Y24803D02*
D03*
Y24003D02*
D03*
X47246Y24745D02*
D03*
Y23945D02*
D03*
X48052Y24745D02*
D03*
Y23945D02*
D03*
X57997Y24397D02*
D03*
Y23597D02*
D03*
X2953Y16000D02*
D03*
Y15200D02*
D03*
X3012Y26778D02*
D03*
Y27578D02*
D03*
X12087Y35820D02*
D03*
Y36620D02*
D03*
X26064Y29693D02*
D03*
Y30493D02*
D03*
X35827Y28734D02*
D03*
Y29534D02*
D03*
X58852Y24376D02*
D03*
Y23576D02*
D03*
X66323Y35427D02*
D03*
Y36227D02*
D03*
X56579Y26354D02*
D03*
Y25554D02*
D03*
D92*
X40133Y16532D02*
D03*
Y15922D02*
D03*
X20784Y15945D02*
D03*
Y16555D02*
D03*
X28693Y36793D02*
D03*
Y36182D02*
D03*
X28693Y38675D02*
D03*
Y38065D02*
D03*
X29688Y36793D02*
D03*
Y36182D02*
D03*
X29688Y38675D02*
D03*
Y38065D02*
D03*
X30693Y36793D02*
D03*
Y36182D02*
D03*
X30693Y38065D02*
D03*
Y38675D02*
D03*
X39439Y15922D02*
D03*
Y16532D02*
D03*
X53312Y17920D02*
D03*
Y17310D02*
D03*
X64173Y34754D02*
D03*
Y34144D02*
D03*
X66323Y33675D02*
D03*
Y33065D02*
D03*
X16058Y17323D02*
D03*
Y17933D02*
D03*
X34886Y17933D02*
D03*
Y17323D02*
D03*
X57610Y14691D02*
D03*
Y15301D02*
D03*
X64764Y34754D02*
D03*
Y34144D02*
D03*
X21457Y16555D02*
D03*
Y15945D02*
D03*
X57617Y13450D02*
D03*
Y14060D02*
D03*
D93*
X63465Y38189D02*
D03*
X65669D02*
D03*
D94*
X5449Y32882D02*
D03*
X4849Y33102D02*
D03*
Y34477D02*
D03*
X5449Y34257D02*
D03*
D95*
X10039Y35175D02*
D03*
X7283D02*
D03*
D96*
X12992Y34417D02*
D03*
X12087D02*
D03*
X13898D02*
D03*
D97*
X12992Y31996D02*
D03*
D98*
X65878Y22000D02*
D03*
X61626D02*
D03*
D99*
X36237Y40317D02*
D03*
X36017Y39717D02*
D03*
X35237Y41912D02*
D03*
X35017Y41312D02*
D03*
X36017D02*
D03*
X36237Y41912D02*
D03*
X35017Y39717D02*
D03*
X35237Y40317D02*
D03*
D104*
X60827Y26000D02*
D03*
X65551D02*
D03*
D105*
X49890Y38268D02*
D03*
X48331D02*
D03*
X46772D02*
D03*
D106*
X45213D02*
D03*
D107*
X55315Y32685D02*
D03*
X56022Y33392D02*
D03*
X54608D02*
D03*
X55315Y39756D02*
D03*
X54608Y39049D02*
D03*
X56022D02*
D03*
D108*
X58143Y34099D02*
D03*
X52487D02*
D03*
D109*
X51779Y36220D02*
D03*
X58850D02*
D03*
D110*
X65748Y11263D02*
D03*
Y10475D02*
D03*
Y9688D02*
D03*
X64961D02*
D03*
Y10475D02*
D03*
Y11263D02*
D03*
X64173D02*
D03*
Y10475D02*
D03*
Y9688D02*
D03*
X63386D02*
D03*
Y10475D02*
D03*
Y11263D02*
D03*
X63386Y18110D02*
D03*
Y17323D02*
D03*
Y16535D02*
D03*
Y15748D02*
D03*
Y14961D02*
D03*
X64173D02*
D03*
Y15748D02*
D03*
Y16535D02*
D03*
Y17323D02*
D03*
Y18110D02*
D03*
X64961D02*
D03*
Y17323D02*
D03*
Y16535D02*
D03*
Y15748D02*
D03*
Y14961D02*
D03*
X65748D02*
D03*
Y15748D02*
D03*
Y16535D02*
D03*
Y17323D02*
D03*
Y18110D02*
D03*
D111*
X55413Y3543D02*
D03*
X52461D02*
D03*
X36516Y3368D02*
D03*
X33563D02*
D03*
X17618Y3543D02*
D03*
X14665D02*
D03*
X21752Y3430D02*
D03*
X24705D02*
D03*
X40650Y3368D02*
D03*
X43602D02*
D03*
X10236Y6890D02*
D03*
Y984D02*
D03*
X29134Y6890D02*
D03*
Y984D02*
D03*
X48032Y6890D02*
D03*
Y984D02*
D03*
X2461Y3543D02*
D03*
X5413D02*
D03*
D112*
X1826Y24083D02*
D03*
X1826Y27587D02*
D03*
Y26587D02*
D03*
X1826Y30135D02*
D03*
Y31135D02*
D03*
X24882Y40969D02*
D03*
X22882D02*
D03*
X23882D02*
D03*
X25882Y40969D02*
D03*
X31701D02*
D03*
X29701D02*
D03*
X30701D02*
D03*
X32701D02*
D03*
X18528Y22996D02*
D03*
Y23996D02*
D03*
X17528Y22996D02*
D03*
Y23996D02*
D03*
X18528Y26996D02*
D03*
X17528D02*
D03*
X18528Y28996D02*
D03*
X17528D02*
D03*
X18528Y29996D02*
D03*
X17528D02*
D03*
Y30996D02*
D03*
Y31996D02*
D03*
X18528Y33996D02*
D03*
X17528D02*
D03*
X18528Y35996D02*
D03*
X17528D02*
D03*
X18528Y37996D02*
D03*
X17528D02*
D03*
X18528Y40996D02*
D03*
X17528Y39996D02*
D03*
X18528D02*
D03*
X17528Y38996D02*
D03*
X18528D02*
D03*
X17528Y36996D02*
D03*
X18528D02*
D03*
X17528Y34996D02*
D03*
X18528D02*
D03*
X17528Y32996D02*
D03*
X18528D02*
D03*
X17528Y27996D02*
D03*
X18528D02*
D03*
X17528Y25996D02*
D03*
X18528D02*
D03*
X17528Y24996D02*
D03*
X18528D02*
D03*
Y21996D02*
D03*
Y30996D02*
D03*
X17528Y21996D02*
D03*
X18528Y31996D02*
D03*
X42528Y22996D02*
D03*
Y23996D02*
D03*
X41528Y22996D02*
D03*
Y23996D02*
D03*
X42528Y26996D02*
D03*
X41528D02*
D03*
X42528Y28996D02*
D03*
X41528D02*
D03*
X42528Y29996D02*
D03*
X41528D02*
D03*
X42528Y30996D02*
D03*
X41528D02*
D03*
X42528Y31996D02*
D03*
X41528D02*
D03*
X42528Y33996D02*
D03*
X41528D02*
D03*
X42528Y35996D02*
D03*
X41528D02*
D03*
X42528Y37996D02*
D03*
X41528D02*
D03*
X42528Y40996D02*
D03*
X41528Y39996D02*
D03*
X42528D02*
D03*
X41528Y38996D02*
D03*
X42528D02*
D03*
X41528Y36996D02*
D03*
X42528D02*
D03*
X41528Y34996D02*
D03*
X42528D02*
D03*
X41528Y32996D02*
D03*
X42528D02*
D03*
X41528Y27996D02*
D03*
X42528D02*
D03*
X41528Y25996D02*
D03*
X42528D02*
D03*
X41528Y24996D02*
D03*
X42528D02*
D03*
Y21996D02*
D03*
X41528D02*
D03*
D113*
X1826Y23083D02*
D03*
X1826Y25587D02*
D03*
X1826Y29135D02*
D03*
X17528Y40996D02*
D03*
X41528D02*
D03*
D114*
X9843Y21654D02*
D03*
X10630D02*
D03*
Y22441D02*
D03*
X9843D02*
D03*
X10236Y22047D02*
D03*
X29134D02*
D03*
X28740Y22441D02*
D03*
X29528D02*
D03*
Y21654D02*
D03*
X28740D02*
D03*
X47638D02*
D03*
X48425D02*
D03*
Y22441D02*
D03*
X47638D02*
D03*
X48032Y22047D02*
D03*
D115*
X21882Y40969D02*
D03*
X28701D02*
D03*
D116*
X29134Y15748D02*
D03*
X48032D02*
D03*
X10236D02*
D03*
D117*
X4362Y9843D02*
D03*
X3362D02*
D03*
X7890D02*
D03*
X8890D02*
D03*
X13811D02*
D03*
X12811D02*
D03*
X17339D02*
D03*
X18339D02*
D03*
X23260D02*
D03*
X22260D02*
D03*
X26787D02*
D03*
X27787D02*
D03*
X32709D02*
D03*
X31709D02*
D03*
X36236D02*
D03*
X37236D02*
D03*
X42157D02*
D03*
X41157D02*
D03*
X45685D02*
D03*
X46685D02*
D03*
X51606D02*
D03*
X50606D02*
D03*
X55134D02*
D03*
X56134D02*
D03*
D118*
X2362D02*
D03*
X6890D02*
D03*
X11811D02*
D03*
X16339D02*
D03*
X21260D02*
D03*
X25787D02*
D03*
X30709D02*
D03*
X35236D02*
D03*
X40157D02*
D03*
X44685D02*
D03*
X49606D02*
D03*
X54134D02*
D03*
M02*
