G04*
G04 #@! TF.GenerationSoftware,Altium Limited,Altium Designer,20.2.6 (244)*
G04*
G04 Layer_Physical_Order=2*
G04 Layer_Color=36540*
%FSLAX24Y24*%
%MOIN*%
G70*
G04*
G04 #@! TF.SameCoordinates,10E2E559-7701-499E-A428-1A66D90B70A8*
G04*
G04*
G04 #@! TF.FilePolarity,Positive*
G04*
G01*
G75*
%ADD13C,0.0100*%
%ADD18C,0.0039*%
%ADD71C,0.0630*%
%ADD80C,0.0236*%
%ADD90C,0.0472*%
%ADD100C,0.0500*%
%ADD104C,0.1575*%
%ADD105C,0.1063*%
%ADD107C,0.0709*%
%ADD108C,0.0984*%
%ADD110C,0.0600*%
%ADD111C,0.0650*%
%ADD112C,0.0591*%
%ADD114C,0.0315*%
%ADD120C,0.0394*%
G36*
X46063Y40551D02*
X56845D01*
Y37579D01*
X56852Y37562D01*
X56856Y37543D01*
X56861Y37539D01*
X56864Y37533D01*
X56881Y37526D01*
X56897Y37516D01*
X56934Y37508D01*
X56971Y37483D01*
X56996Y37446D01*
X57005Y37402D01*
X56996Y37357D01*
X56995Y37356D01*
X56993Y37346D01*
X56987Y37339D01*
X56924Y37281D01*
X56902Y37271D01*
X56898Y37270D01*
X56167D01*
X56121Y37251D01*
X55943Y37073D01*
X55423D01*
X55385Y37165D01*
X55496Y37277D01*
X55496Y37277D01*
X55546Y37341D01*
X55577Y37417D01*
X55588Y37498D01*
X55588Y37498D01*
Y38172D01*
X56050Y38635D01*
X56130Y38645D01*
X56231Y38687D01*
X56318Y38753D01*
X56384Y38840D01*
X56426Y38941D01*
X56440Y39049D01*
X56426Y39157D01*
X56384Y39258D01*
X56318Y39344D01*
X56231Y39411D01*
X56130Y39453D01*
X56022Y39467D01*
X55914Y39453D01*
X55813Y39411D01*
X55727Y39344D01*
X55660Y39258D01*
X55618Y39157D01*
X55608Y39077D01*
X55054Y38523D01*
X55004Y38458D01*
X54973Y38383D01*
X54968Y38342D01*
X54962Y38302D01*
X54962Y38302D01*
Y37627D01*
X54853Y37517D01*
X53755D01*
X53755Y37517D01*
X53715Y37512D01*
X53674Y37507D01*
X53617Y37483D01*
X53470D01*
X53412Y37507D01*
X53332Y37517D01*
X53332Y37517D01*
X47382D01*
X47301Y37507D01*
X47226Y37476D01*
X47161Y37426D01*
X47161Y37426D01*
X46629Y36894D01*
X46580Y36830D01*
X46548Y36754D01*
X46538Y36673D01*
X46548Y36592D01*
X46580Y36517D01*
X46629Y36452D01*
X46694Y36402D01*
X46769Y36371D01*
X46850Y36361D01*
X46931Y36371D01*
X47007Y36402D01*
X47071Y36452D01*
X47511Y36892D01*
X48295D01*
X48335Y36828D01*
X48348Y36792D01*
X48320Y36726D01*
X48309Y36645D01*
X48320Y36564D01*
X48351Y36488D01*
X48401Y36424D01*
X48466Y36374D01*
X48541Y36343D01*
X48622Y36332D01*
X49249D01*
X49361Y36220D01*
X49323Y36128D01*
X48268D01*
X48222Y36109D01*
X47854Y35741D01*
X47812Y35733D01*
X47544Y36001D01*
X47498Y36020D01*
X46231D01*
X46151Y36071D01*
X46140Y36086D01*
Y36849D01*
X46121Y36895D01*
X45431Y37584D01*
X45470Y37676D01*
X45804D01*
Y38859D01*
X44684D01*
Y39334D01*
X45151Y39800D01*
X53420D01*
X53453Y39755D01*
X53475Y39700D01*
X53452Y39644D01*
X53441Y39567D01*
X53452Y39490D01*
X53481Y39418D01*
X53529Y39356D01*
X53591Y39308D01*
X53663Y39278D01*
X53740Y39268D01*
X53817Y39278D01*
X53890Y39308D01*
X53951Y39356D01*
X53999Y39418D01*
X54029Y39490D01*
X54032Y39512D01*
X54137Y39548D01*
X54150Y39535D01*
X54150Y39535D01*
X54215Y39485D01*
X54290Y39454D01*
X54291Y39454D01*
X54319Y39349D01*
X54312Y39344D01*
X54246Y39258D01*
X54204Y39157D01*
X54190Y39049D01*
X54204Y38941D01*
X54246Y38840D01*
X54312Y38753D01*
X54399Y38687D01*
X54500Y38645D01*
X54608Y38631D01*
X54716Y38645D01*
X54817Y38687D01*
X54903Y38753D01*
X54970Y38840D01*
X55012Y38941D01*
X55026Y39049D01*
X55012Y39157D01*
X54970Y39258D01*
X54904Y39343D01*
X54905Y39349D01*
X54939Y39443D01*
X55042D01*
X55106Y39394D01*
X55207Y39352D01*
X55315Y39338D01*
X55423Y39352D01*
X55524Y39394D01*
X55610Y39460D01*
X55677Y39547D01*
X55719Y39648D01*
X55733Y39756D01*
X55719Y39864D01*
X55677Y39965D01*
X55610Y40052D01*
X55524Y40118D01*
X55423Y40160D01*
X55315Y40174D01*
X55207Y40160D01*
X55106Y40118D01*
X55042Y40069D01*
X54501D01*
X54235Y40334D01*
X54170Y40384D01*
X54095Y40415D01*
X54054Y40420D01*
X54014Y40426D01*
X54014Y40426D01*
X45021D01*
X44940Y40415D01*
X44865Y40384D01*
X44800Y40334D01*
X44150Y39684D01*
X44100Y39619D01*
X44069Y39544D01*
X44058Y39463D01*
X44058Y39463D01*
Y38591D01*
X42773D01*
X42713Y38680D01*
X42714Y38691D01*
X42781Y38743D01*
X42838Y38817D01*
X42874Y38903D01*
X42886Y38996D01*
X42874Y39089D01*
X42838Y39175D01*
X42781Y39249D01*
X42707Y39306D01*
X42620Y39342D01*
X42528Y39354D01*
X42435Y39342D01*
X42348Y39306D01*
X42274Y39249D01*
X42217Y39175D01*
X42181Y39089D01*
X42169Y38996D01*
X42181Y38903D01*
X42217Y38817D01*
X42274Y38743D01*
X42341Y38691D01*
X42342Y38680D01*
X42283Y38591D01*
X41773D01*
X41714Y38680D01*
X41714Y38691D01*
X41781Y38743D01*
X41838Y38817D01*
X41874Y38903D01*
X41886Y38996D01*
X41874Y39089D01*
X41838Y39175D01*
X41781Y39249D01*
X41707Y39306D01*
X41620Y39342D01*
X41528Y39354D01*
X41435Y39342D01*
X41348Y39306D01*
X41274Y39249D01*
X41217Y39175D01*
X41181Y39089D01*
X41169Y38996D01*
X41181Y38903D01*
X41217Y38817D01*
X41274Y38743D01*
X41341Y38691D01*
X41342Y38680D01*
X41283Y38591D01*
X39910D01*
X39906Y38596D01*
X39893Y38694D01*
X39855Y38785D01*
X39795Y38863D01*
X39717Y38924D01*
X39625Y38961D01*
X39528Y38974D01*
X39430Y38961D01*
X39338Y38924D01*
X39260Y38863D01*
X39200Y38785D01*
X39162Y38694D01*
X39149Y38596D01*
X39145Y38591D01*
X37378D01*
X37332Y38572D01*
X34545Y35784D01*
X34540Y35783D01*
X34518Y35798D01*
X34449Y35812D01*
X34379Y35798D01*
X34320Y35758D01*
X34281Y35699D01*
X34267Y35630D01*
X34281Y35560D01*
X34296Y35539D01*
X34294Y35534D01*
X31671Y32911D01*
X31665Y32896D01*
X31655Y32884D01*
X31656Y32874D01*
X31652Y32865D01*
X31659Y32846D01*
X31660Y32835D01*
X31668Y32820D01*
X31673Y32805D01*
X31614Y32766D01*
X31574Y32707D01*
X31559Y32712D01*
X31545Y32720D01*
X31534Y32721D01*
X31514Y32727D01*
X31505Y32724D01*
X31496Y32725D01*
X31483Y32715D01*
X31469Y32708D01*
X28529Y29769D01*
X28527Y29768D01*
X28496Y29793D01*
X28424Y29822D01*
X28346Y29833D01*
X28269Y29822D01*
X28197Y29793D01*
X28135Y29745D01*
X28088Y29683D01*
X28058Y29611D01*
X28048Y29534D01*
X28058Y29457D01*
X28088Y29384D01*
X28112Y29353D01*
X28112Y29351D01*
X22302Y23541D01*
X22299Y23536D01*
X22294Y23532D01*
X22294Y23532D01*
X22290Y23513D01*
X22283Y23495D01*
X22287Y23433D01*
X22228Y23393D01*
X22189Y23334D01*
X22126Y23339D01*
X22108Y23332D01*
X22089Y23328D01*
X22089Y23328D01*
X22086Y23322D01*
X22080Y23320D01*
X21266Y22506D01*
X13731D01*
X13720Y22501D01*
X13708Y22501D01*
X13698Y22492D01*
X13685Y22487D01*
X13681Y22475D01*
X13672Y22467D01*
X13658Y22434D01*
X13658Y22428D01*
X13654Y22423D01*
X13650Y22405D01*
X13650Y22404D01*
X13650Y22404D01*
X13654Y22380D01*
X13659Y22356D01*
X13659Y22356D01*
X13659Y22355D01*
X13689Y22310D01*
X13698Y22266D01*
X13689Y22222D01*
X13664Y22184D01*
X13627Y22159D01*
X13583Y22151D01*
X13539Y22159D01*
X13501Y22184D01*
X13476Y22222D01*
X13467Y22266D01*
X13476Y22310D01*
X13506Y22355D01*
X13506Y22356D01*
X13507Y22356D01*
X13511Y22380D01*
X13516Y22404D01*
X13515Y22404D01*
X13515Y22405D01*
X13511Y22423D01*
X13508Y22428D01*
X13508Y22434D01*
X13494Y22467D01*
X13485Y22475D01*
X13480Y22487D01*
X13468Y22492D01*
X13458Y22501D01*
X13445Y22501D01*
X13434Y22506D01*
X12194D01*
X12148Y22487D01*
X12100Y22439D01*
X12008Y22477D01*
Y27664D01*
X12119Y27775D01*
X12123Y27785D01*
X12131Y27791D01*
X12132Y27807D01*
X12138Y27821D01*
X12135Y27830D01*
X12136Y27840D01*
X12119Y27895D01*
X12113Y27902D01*
X12111Y27912D01*
X12098Y27921D01*
X12088Y27933D01*
X12078Y27934D01*
X12070Y27939D01*
X12042Y27945D01*
X12005Y27970D01*
X11980Y28007D01*
X11971Y28051D01*
X11980Y28096D01*
X12005Y28133D01*
X12042Y28158D01*
X12087Y28167D01*
X12131Y28158D01*
X12168Y28133D01*
X12193Y28096D01*
X12199Y28068D01*
X12204Y28060D01*
X12205Y28050D01*
X12217Y28040D01*
X12226Y28027D01*
X12236Y28025D01*
X12243Y28019D01*
X12298Y28002D01*
X12307Y28003D01*
X12317Y28000D01*
X12331Y28006D01*
X12347Y28007D01*
X12353Y28015D01*
X12362Y28019D01*
X13275Y28931D01*
X13858D01*
X13904Y28950D01*
X13927Y28974D01*
X13946Y29020D01*
Y31299D01*
X13927Y31345D01*
X13731Y31542D01*
X13685Y31561D01*
X4724D01*
X4678Y31542D01*
X3497Y30361D01*
X3478Y30315D01*
Y13780D01*
X3497Y13734D01*
X4088Y13143D01*
X4134Y13124D01*
X6890D01*
X6936Y13143D01*
X7526Y13734D01*
X7545Y13780D01*
Y17296D01*
X7875Y17625D01*
X8344D01*
X8388Y17525D01*
X8230Y17348D01*
X8063Y17113D01*
X7924Y16861D01*
X7814Y16596D01*
X7734Y16319D01*
X7686Y16035D01*
X7670Y15748D01*
X7686Y15461D01*
X7734Y15177D01*
X7814Y14900D01*
X7924Y14635D01*
X8063Y14383D01*
X8230Y14148D01*
X8422Y13933D01*
X8636Y13742D01*
X8871Y13575D01*
X9123Y13436D01*
X9389Y13326D01*
X9665Y13246D01*
X9949Y13198D01*
X10236Y13182D01*
X10524Y13198D01*
X10807Y13246D01*
X11084Y13326D01*
X11350Y13436D01*
X11602Y13575D01*
X11836Y13742D01*
X12051Y13933D01*
X12243Y14148D01*
X12409Y14383D01*
X12548Y14635D01*
X12658Y14900D01*
X12738Y15177D01*
X12786Y15461D01*
X12802Y15748D01*
X12786Y16035D01*
X12738Y16319D01*
X12658Y16596D01*
X12548Y16861D01*
X12409Y17113D01*
X12243Y17348D01*
X12084Y17525D01*
X12129Y17625D01*
X12557D01*
X12927Y17255D01*
Y17159D01*
X12918Y17136D01*
Y13780D01*
X12937Y13734D01*
X13647Y13023D01*
X13693Y13004D01*
X18227D01*
X18230Y13005D01*
X18234Y13004D01*
X18253Y13015D01*
X18273Y13023D01*
X18309Y12993D01*
X18309Y12993D01*
X18368Y12954D01*
X18438Y12940D01*
X18507Y12954D01*
X18566Y12993D01*
X18566Y12993D01*
X18602Y13023D01*
X18623Y13015D01*
X18642Y13004D01*
X18645Y13005D01*
X18648Y13004D01*
X19080D01*
X19084Y13005D01*
X19087Y13004D01*
X19106Y13015D01*
X19126Y13023D01*
X19163Y12976D01*
X19163Y12976D01*
X19191Y12957D01*
X19222Y12937D01*
X19291Y12923D01*
X19361Y12937D01*
X19420Y12976D01*
X19420Y12976D01*
X19456Y13023D01*
X19477Y13015D01*
X19496Y13004D01*
X19499Y13005D01*
X19502Y13004D01*
X25326D01*
X25372Y13023D01*
X26030Y13681D01*
X26049Y13727D01*
Y17247D01*
X26569Y17767D01*
X27398D01*
X27436Y17667D01*
X27319Y17563D01*
X27127Y17348D01*
X26961Y17113D01*
X26822Y16861D01*
X26712Y16596D01*
X26632Y16319D01*
X26584Y16035D01*
X26568Y15748D01*
X26584Y15461D01*
X26632Y15177D01*
X26712Y14900D01*
X26822Y14635D01*
X26961Y14383D01*
X27127Y14148D01*
X27319Y13933D01*
X27534Y13742D01*
X27769Y13575D01*
X28020Y13436D01*
X28286Y13326D01*
X28563Y13246D01*
X28847Y13198D01*
X29134Y13182D01*
X29421Y13198D01*
X29705Y13246D01*
X29981Y13326D01*
X30247Y13436D01*
X30499Y13575D01*
X30734Y13742D01*
X30948Y13933D01*
X31140Y14148D01*
X31307Y14383D01*
X31446Y14635D01*
X31556Y14900D01*
X31636Y15177D01*
X31684Y15461D01*
X31700Y15748D01*
X31684Y16035D01*
X31636Y16319D01*
X31556Y16596D01*
X31446Y16861D01*
X31307Y17113D01*
X31140Y17348D01*
X30948Y17563D01*
X30831Y17667D01*
X30870Y17767D01*
X31687D01*
X32122Y17332D01*
Y13910D01*
X32141Y13864D01*
X33058Y12946D01*
X33104Y12927D01*
X37024D01*
X37039Y12933D01*
X37055Y12935D01*
X37061Y12942D01*
X37070Y12946D01*
X37075Y12958D01*
X37085Y12962D01*
X37120Y12966D01*
X37142D01*
X37177Y12962D01*
X37186Y12958D01*
X37191Y12946D01*
X37201Y12942D01*
X37207Y12935D01*
X37223Y12933D01*
X37237Y12927D01*
X37886D01*
X37900Y12933D01*
X37916Y12935D01*
X37922Y12942D01*
X37932Y12946D01*
X37937Y12958D01*
X37946Y12962D01*
X37981Y12966D01*
X38003D01*
X38038Y12962D01*
X38048Y12958D01*
X38053Y12946D01*
X38062Y12942D01*
X38068Y12935D01*
X38084Y12933D01*
X38099Y12927D01*
X43877D01*
X43923Y12946D01*
X44731Y13755D01*
X44750Y13801D01*
Y17178D01*
X45210Y17638D01*
X45670Y17652D01*
X46183D01*
X46194Y17623D01*
X46207Y17552D01*
X46025Y17348D01*
X45859Y17113D01*
X45719Y16861D01*
X45609Y16596D01*
X45530Y16319D01*
X45481Y16035D01*
X45465Y15748D01*
X45481Y15461D01*
X45530Y15177D01*
X45609Y14900D01*
X45719Y14635D01*
X45859Y14383D01*
X46025Y14148D01*
X46217Y13933D01*
X46431Y13742D01*
X46666Y13575D01*
X46918Y13436D01*
X47184Y13326D01*
X47460Y13246D01*
X47744Y13198D01*
X48032Y13182D01*
X48319Y13198D01*
X48603Y13246D01*
X48879Y13326D01*
X49145Y13436D01*
X49397Y13575D01*
X49632Y13742D01*
X49846Y13933D01*
X50038Y14148D01*
X50204Y14383D01*
X50344Y14635D01*
X50454Y14900D01*
X50533Y15177D01*
X50582Y15461D01*
X50598Y15748D01*
X50582Y16035D01*
X50533Y16319D01*
X50454Y16596D01*
X50344Y16861D01*
X50204Y17113D01*
X50038Y17348D01*
X49856Y17552D01*
X49869Y17623D01*
X49880Y17652D01*
X50710D01*
X51126Y17236D01*
Y13376D01*
X51145Y13331D01*
X51529Y12946D01*
X51575Y12927D01*
X54712D01*
X54784Y12891D01*
X54832Y12829D01*
X54893Y12781D01*
X54965Y12752D01*
X55043Y12741D01*
X55120Y12752D01*
X55192Y12781D01*
X55254Y12829D01*
X55302Y12891D01*
X55373Y12927D01*
X57128D01*
X57130Y12928D01*
X57133Y12927D01*
X57438Y12949D01*
X57458Y12959D01*
X57479Y12968D01*
X57695Y13183D01*
X57701Y13198D01*
X57711Y13211D01*
X57710Y13220D01*
X57714Y13229D01*
X57708Y13244D01*
X57707Y13260D01*
X57689Y13293D01*
X57738Y13326D01*
X57771Y13375D01*
X57804Y13358D01*
X57820Y13356D01*
X57835Y13350D01*
X57844Y13354D01*
X57854Y13353D01*
X57866Y13363D01*
X57881Y13369D01*
X57920Y13408D01*
X57939Y13454D01*
Y16906D01*
X57933Y16920D01*
X57932Y16935D01*
X57924Y16942D01*
X57920Y16952D01*
X57899Y16964D01*
X57895Y16968D01*
X57899Y17054D01*
X57909Y17131D01*
X57899Y17208D01*
X57895Y17294D01*
X57899Y17298D01*
X57920Y17310D01*
X57924Y17320D01*
X57932Y17327D01*
X57933Y17342D01*
X57939Y17356D01*
Y18593D01*
X57920Y18639D01*
X57487Y19072D01*
X57140Y19419D01*
X57094Y19438D01*
X49647D01*
X49637Y19434D01*
X49626Y19435D01*
X49615Y19425D01*
X49601Y19419D01*
X49510Y19421D01*
X49404Y19465D01*
X49290Y19480D01*
X49176Y19465D01*
X49070Y19421D01*
X48979Y19419D01*
X48965Y19425D01*
X48953Y19435D01*
X48943Y19434D01*
X48933Y19438D01*
X47196D01*
X47193Y19437D01*
X47185Y19442D01*
X47127Y19483D01*
X47117Y19496D01*
X47119Y19595D01*
X47158Y19654D01*
X47172Y19723D01*
X47158Y19793D01*
X47119Y19852D01*
X47060Y19891D01*
X46991Y19905D01*
X46921Y19891D01*
X46862Y19852D01*
X46823Y19793D01*
X46809Y19723D01*
X46823Y19654D01*
X46862Y19595D01*
X46862Y19498D01*
X46845Y19479D01*
X46781Y19438D01*
X46778Y19437D01*
X46775Y19438D01*
X46709D01*
X46686Y19455D01*
X46633Y19512D01*
X46631Y19609D01*
X46635Y19612D01*
X46674Y19671D01*
X46688Y19741D01*
X46674Y19810D01*
X46684Y19823D01*
X47658Y20797D01*
X47750Y20759D01*
Y20175D01*
X47769Y20129D01*
X47883Y20015D01*
X47883Y20015D01*
X48063Y19836D01*
X48108Y19817D01*
X51181D01*
X51214Y19830D01*
X51246Y19817D01*
X54331D01*
X54377Y19836D01*
X54701Y20160D01*
X54720Y20206D01*
Y23404D01*
X54812Y23443D01*
X55663Y22592D01*
X55709Y22573D01*
X62680D01*
X62726Y22592D01*
X63097Y22962D01*
X63189Y22924D01*
Y19449D01*
X62846Y19106D01*
X62762Y19163D01*
X62770Y19182D01*
X62784Y19291D01*
X62770Y19401D01*
X62727Y19502D01*
X62719Y19513D01*
X62719Y19514D01*
X62761Y19615D01*
X62776Y19724D01*
X62761Y19834D01*
X62719Y19935D01*
X62652Y20023D01*
X62565Y20090D01*
X62463Y20132D01*
X62354Y20146D01*
X62245Y20132D01*
X62143Y20090D01*
X62122Y20073D01*
X62101Y20090D01*
X61999Y20132D01*
X61890Y20146D01*
X61781Y20132D01*
X61679Y20090D01*
X61592Y20023D01*
X61525Y19935D01*
X61482Y19834D01*
X61468Y19724D01*
X61482Y19615D01*
X61525Y19514D01*
X61529Y19508D01*
X61525Y19502D01*
X61482Y19401D01*
X61468Y19291D01*
X61482Y19182D01*
X61525Y19080D01*
X61592Y18993D01*
X61679Y18926D01*
X61781Y18884D01*
X61890Y18870D01*
X61999Y18884D01*
X62101Y18926D01*
X62126Y18946D01*
X62151Y18926D01*
X62253Y18884D01*
X62362Y18870D01*
X62471Y18884D01*
X62491Y18892D01*
X62547Y18807D01*
X61909Y18169D01*
X61890Y18123D01*
Y14282D01*
X61778Y14170D01*
X59866D01*
X59820Y14151D01*
X59490Y13820D01*
X59471Y13775D01*
Y9114D01*
X59490Y9068D01*
X59528Y9030D01*
X59574Y9011D01*
X62435Y9011D01*
X62455Y9019D01*
X62476Y9025D01*
X62513Y9054D01*
X62515Y9058D01*
X62519Y9059D01*
X62527Y9079D01*
X62538Y9098D01*
X62536Y9102D01*
X62538Y9105D01*
Y11697D01*
X62668Y11827D01*
X63181D01*
X63201Y11727D01*
X63134Y11699D01*
X63029Y11619D01*
X62949Y11515D01*
X62899Y11393D01*
X62882Y11263D01*
X62899Y11132D01*
X62949Y11011D01*
X63004Y10939D01*
X63021Y10869D01*
X63004Y10799D01*
X62949Y10727D01*
X62899Y10606D01*
X62882Y10475D01*
X62899Y10345D01*
X62949Y10223D01*
X63004Y10151D01*
X63021Y10082D01*
X63004Y10012D01*
X62949Y9940D01*
X62899Y9818D01*
X62882Y9688D01*
X62899Y9557D01*
X62949Y9436D01*
X63029Y9331D01*
X63134Y9251D01*
X63255Y9201D01*
X63386Y9184D01*
X63516Y9201D01*
X63638Y9251D01*
X63743Y9331D01*
X63817D01*
X63921Y9251D01*
X64043Y9201D01*
X64173Y9184D01*
X64304Y9201D01*
X64426Y9251D01*
X64530Y9331D01*
X64604D01*
X64709Y9251D01*
X64830Y9201D01*
X64961Y9184D01*
X65091Y9201D01*
X65213Y9251D01*
X65317Y9331D01*
X65392D01*
X65496Y9251D01*
X65618Y9201D01*
X65748Y9184D01*
X65879Y9201D01*
X66000Y9251D01*
X66105Y9331D01*
X66185Y9436D01*
X66235Y9557D01*
X66252Y9688D01*
X66235Y9818D01*
X66185Y9940D01*
X66130Y10012D01*
X66113Y10082D01*
X66130Y10151D01*
X66185Y10223D01*
X66235Y10345D01*
X66252Y10475D01*
X66235Y10606D01*
X66185Y10727D01*
X66130Y10799D01*
X66113Y10869D01*
X66130Y10939D01*
X66185Y11011D01*
X66235Y11132D01*
X66252Y11263D01*
X66235Y11393D01*
X66185Y11515D01*
X66105Y11619D01*
X66000Y11699D01*
X65933Y11727D01*
X65953Y11827D01*
X66699D01*
X66745Y11846D01*
X66837Y11938D01*
X66929Y11899D01*
Y0D01*
X66929Y0D01*
X0D01*
Y33465D01*
X7087Y40551D01*
X12992D01*
X14961Y42520D01*
X44095D01*
X46063Y40551D01*
D02*
G37*
G36*
X44058Y37381D02*
X44058Y37381D01*
X44069Y37300D01*
X44100Y37225D01*
X44150Y37160D01*
X44858Y36452D01*
X44858Y36452D01*
X44922Y36402D01*
X44998Y36371D01*
X45079Y36361D01*
X45160Y36371D01*
X45235Y36402D01*
X45300Y36452D01*
X45350Y36517D01*
X45381Y36592D01*
X45391Y36673D01*
X45381Y36754D01*
X45350Y36830D01*
X45300Y36894D01*
X45300Y36894D01*
X44684Y37510D01*
Y37676D01*
X45247D01*
X46075Y36849D01*
Y35863D01*
Y34700D01*
X45823Y34449D01*
X39923D01*
X39892Y34488D01*
X39893Y34499D01*
X39906Y34596D01*
X39893Y34694D01*
X39855Y34785D01*
X39795Y34863D01*
X39717Y34924D01*
X39625Y34961D01*
X39528Y34974D01*
X39430Y34961D01*
X39338Y34924D01*
X39260Y34863D01*
X39200Y34785D01*
X39162Y34694D01*
X39149Y34596D01*
X39162Y34499D01*
X39163Y34488D01*
X39132Y34449D01*
X37349D01*
X37329Y34430D01*
X37329Y34430D01*
X28561Y25661D01*
X28504Y25675D01*
X28475Y25719D01*
X28416Y25758D01*
X28346Y25772D01*
X28277Y25758D01*
X28218Y25719D01*
X28179Y25660D01*
X28165Y25591D01*
X28179Y25521D01*
X28218Y25462D01*
X28262Y25433D01*
X28276Y25376D01*
X23634Y20734D01*
X22567D01*
X22530Y20784D01*
X22538Y20823D01*
X22524Y20892D01*
X22485Y20951D01*
X22426Y20991D01*
X22356Y21004D01*
X22287Y20991D01*
X22228Y20951D01*
X22189Y20892D01*
X22175Y20823D01*
X22183Y20784D01*
X22146Y20734D01*
X12008D01*
Y22255D01*
X12194Y22441D01*
X13434D01*
X13448Y22409D01*
X13452Y22391D01*
X13415Y22335D01*
X13401Y22266D01*
X13415Y22196D01*
X13454Y22138D01*
X13513Y22098D01*
X13583Y22084D01*
X13652Y22098D01*
X13711Y22138D01*
X13750Y22196D01*
X13764Y22266D01*
X13750Y22335D01*
X13713Y22391D01*
X13717Y22409D01*
X13731Y22441D01*
X21293D01*
X22126Y23274D01*
X22146Y23270D01*
X22177Y23254D01*
X22189Y23196D01*
X22228Y23137D01*
X22287Y23097D01*
X22356Y23083D01*
X22426Y23097D01*
X22485Y23137D01*
X22524Y23196D01*
X22538Y23265D01*
X22524Y23334D01*
X22485Y23393D01*
X22426Y23433D01*
X22367Y23444D01*
X22351Y23475D01*
X22347Y23495D01*
X28157Y29306D01*
X28197Y29275D01*
X28269Y29245D01*
X28346Y29235D01*
X28424Y29245D01*
X28496Y29275D01*
X28558Y29323D01*
X28605Y29384D01*
X28635Y29457D01*
X28645Y29534D01*
X28635Y29611D01*
X28605Y29683D01*
X28575Y29723D01*
X31514Y32662D01*
X31561Y32638D01*
X31560Y32638D01*
X31574Y32568D01*
X31614Y32509D01*
X31673Y32470D01*
X31742Y32456D01*
X31812Y32470D01*
X31871Y32509D01*
X31910Y32568D01*
X31924Y32638D01*
X31910Y32707D01*
X31871Y32766D01*
X31812Y32805D01*
X31742Y32819D01*
X31742Y32819D01*
X31717Y32865D01*
X34340Y35488D01*
X34379Y35462D01*
X34449Y35448D01*
X34518Y35462D01*
X34577Y35502D01*
X34617Y35560D01*
X34630Y35630D01*
X34617Y35699D01*
X34590Y35738D01*
X37378Y38526D01*
X39159D01*
X39162Y38498D01*
X39200Y38407D01*
X39260Y38329D01*
X39338Y38269D01*
X39430Y38231D01*
X39528Y38218D01*
X39625Y38231D01*
X39717Y38269D01*
X39795Y38329D01*
X39855Y38407D01*
X39893Y38498D01*
X39897Y38526D01*
X44058D01*
Y37381D01*
D02*
G37*
G36*
X61414Y36814D02*
Y32398D01*
X61103Y32087D01*
X57032D01*
X56638Y32480D01*
X56168Y32950D01*
X56180Y33009D01*
X56231Y33030D01*
X56318Y33097D01*
X56384Y33183D01*
X56426Y33284D01*
X56440Y33392D01*
X56426Y33500D01*
X56384Y33601D01*
X56318Y33688D01*
X56231Y33754D01*
X56130Y33796D01*
X56022Y33810D01*
X55914Y33796D01*
X55813Y33754D01*
X55727Y33688D01*
X55660Y33601D01*
X55618Y33500D01*
X55604Y33392D01*
X55618Y33284D01*
X55660Y33183D01*
X55727Y33097D01*
X55790Y33048D01*
X55773Y32998D01*
X55588D01*
X55524Y33047D01*
X55423Y33089D01*
X55315Y33103D01*
X55207Y33089D01*
X55106Y33047D01*
X55042Y32998D01*
X54857D01*
X54840Y33048D01*
X54903Y33097D01*
X54970Y33183D01*
X55012Y33284D01*
X55026Y33392D01*
X55012Y33500D01*
X54970Y33601D01*
X54903Y33688D01*
X54817Y33754D01*
X54716Y33796D01*
X54608Y33810D01*
X54500Y33796D01*
X54399Y33754D01*
X54312Y33688D01*
X54246Y33601D01*
X54204Y33500D01*
X54190Y33392D01*
X54204Y33284D01*
X54246Y33183D01*
X54312Y33097D01*
X54376Y33048D01*
X54359Y32998D01*
X52090D01*
X51494Y33594D01*
Y34843D01*
Y35811D01*
X51539Y35833D01*
X51551Y35824D01*
X51661Y35778D01*
X51779Y35763D01*
X51898Y35778D01*
X52008Y35824D01*
X52103Y35897D01*
X52176Y35992D01*
X52221Y36102D01*
X52237Y36220D01*
X52221Y36339D01*
X52176Y36449D01*
X52103Y36544D01*
X52008Y36617D01*
X51898Y36662D01*
X51779Y36678D01*
X51661Y36662D01*
X51551Y36617D01*
X51539Y36608D01*
X51494Y36630D01*
Y36789D01*
X51597Y36892D01*
X53228D01*
X53285Y36868D01*
X53366Y36858D01*
X53366Y36858D01*
X53721D01*
X53721Y36858D01*
X53761Y36863D01*
X53802Y36868D01*
X53859Y36892D01*
X54982D01*
X54982Y36892D01*
X55023Y36897D01*
X55063Y36903D01*
X55138Y36934D01*
X55203Y36984D01*
X55227Y37008D01*
X55970D01*
X56167Y37205D01*
X61024D01*
X61414Y36814D01*
D02*
G37*
G36*
X46036Y34119D02*
Y31075D01*
X44895Y29934D01*
X42916D01*
X42883Y29972D01*
X42886Y29996D01*
X42874Y30089D01*
X42838Y30175D01*
X42781Y30249D01*
X42707Y30306D01*
X42620Y30342D01*
X42528Y30354D01*
X42435Y30342D01*
X42348Y30306D01*
X42274Y30249D01*
X42217Y30175D01*
X42181Y30089D01*
X42169Y29996D01*
X42172Y29972D01*
X42139Y29934D01*
X41916D01*
X41883Y29972D01*
X41886Y29996D01*
X41874Y30089D01*
X41838Y30175D01*
X41781Y30249D01*
X41707Y30306D01*
X41620Y30342D01*
X41528Y30354D01*
X41435Y30342D01*
X41348Y30306D01*
X41274Y30249D01*
X41217Y30175D01*
X41181Y30089D01*
X41169Y29996D01*
X41172Y29972D01*
X41139Y29934D01*
X39936D01*
X39903Y29972D01*
X39906Y29996D01*
X39893Y30094D01*
X39855Y30185D01*
X39795Y30263D01*
X39717Y30324D01*
X39625Y30361D01*
X39528Y30374D01*
X39430Y30361D01*
X39338Y30324D01*
X39260Y30263D01*
X39200Y30185D01*
X39162Y30094D01*
X39149Y29996D01*
X39153Y29972D01*
X39120Y29934D01*
X38095D01*
X38063Y29973D01*
X38065Y29983D01*
X38052Y30053D01*
X38012Y30112D01*
X37953Y30151D01*
X37884Y30165D01*
X37814Y30151D01*
X37755Y30112D01*
X37716Y30053D01*
X37702Y29983D01*
X37716Y29914D01*
X37755Y29855D01*
X37814Y29816D01*
X37852Y29808D01*
X37869Y29754D01*
X36026Y27911D01*
X35987Y27943D01*
X35995Y27954D01*
X36008Y28024D01*
X35995Y28093D01*
X35955Y28152D01*
X35896Y28192D01*
X35827Y28205D01*
X35757Y28192D01*
X35698Y28152D01*
X35659Y28093D01*
X35645Y28024D01*
X35659Y27954D01*
X35698Y27895D01*
X35757Y27856D01*
X35827Y27842D01*
X35896Y27856D01*
X35908Y27864D01*
X35939Y27825D01*
X35007Y26892D01*
X34953Y26909D01*
X34950Y26921D01*
X34911Y26980D01*
X34852Y27020D01*
X34782Y27033D01*
X34713Y27020D01*
X34654Y26980D01*
X34615Y26921D01*
X34601Y26852D01*
X34615Y26782D01*
X34654Y26723D01*
X34713Y26684D01*
X34726Y26682D01*
X34742Y26627D01*
X34428Y26314D01*
X34369Y26353D01*
X34300Y26367D01*
X34230Y26353D01*
X34172Y26314D01*
X34132Y26255D01*
X34118Y26185D01*
X34132Y26116D01*
X34172Y26057D01*
X31665Y23551D01*
X31646Y23564D01*
X31576Y23578D01*
X31507Y23564D01*
X31448Y23524D01*
X31408Y23466D01*
X31395Y23396D01*
X31408Y23327D01*
X31422Y23307D01*
X29795Y21680D01*
X29741Y21697D01*
X29732Y21738D01*
X29684Y21810D01*
X29612Y21858D01*
X29528Y21875D01*
X29443Y21858D01*
X29371Y21810D01*
X29323Y21738D01*
X29306Y21654D01*
X29323Y21569D01*
X29371Y21497D01*
X29443Y21449D01*
X29484Y21440D01*
X29501Y21386D01*
X28098Y19983D01*
X28038Y19971D01*
X27979Y19932D01*
X27940Y19873D01*
X27928Y19813D01*
X27844Y19730D01*
X27798Y19754D01*
X27806Y19791D01*
X27792Y19861D01*
X27752Y19920D01*
X27694Y19959D01*
X27624Y19973D01*
X27555Y19959D01*
X27533Y19945D01*
X27493Y19921D01*
X27452Y19945D01*
X27431Y19959D01*
X27362Y19973D01*
X27292Y19959D01*
X27233Y19920D01*
X27194Y19861D01*
X27180Y19791D01*
X27194Y19722D01*
X27233Y19663D01*
X27292Y19624D01*
X27362Y19610D01*
X27431Y19624D01*
X27452Y19638D01*
X27493Y19661D01*
X27533Y19638D01*
X27555Y19624D01*
X27561Y19622D01*
Y19571D01*
X27560Y19571D01*
X27501Y19532D01*
X27472Y19488D01*
X26136D01*
X26102Y19538D01*
X26109Y19593D01*
X26099Y19671D01*
X26069Y19743D01*
X26021Y19805D01*
X25959Y19852D01*
X25887Y19882D01*
X25810Y19892D01*
X25733Y19882D01*
X25661Y19852D01*
X25599Y19805D01*
X25551Y19743D01*
X25521Y19671D01*
X25511Y19593D01*
X25519Y19538D01*
X25484Y19488D01*
X12087D01*
X12008Y19567D01*
Y20669D01*
X22266D01*
X22287Y20655D01*
X22356Y20641D01*
X22426Y20655D01*
X22447Y20669D01*
X23661D01*
X28414Y25422D01*
X28416Y25423D01*
X28475Y25462D01*
X28514Y25521D01*
X28515Y25523D01*
X37375Y34384D01*
X39218D01*
X39260Y34329D01*
X39338Y34269D01*
X39430Y34231D01*
X39528Y34218D01*
X39625Y34231D01*
X39717Y34269D01*
X39795Y34329D01*
X39837Y34384D01*
X41405D01*
X41415Y34334D01*
X41348Y34306D01*
X41274Y34249D01*
X41217Y34175D01*
X41181Y34089D01*
X41169Y33996D01*
X41181Y33903D01*
X41217Y33817D01*
X41274Y33743D01*
X41348Y33686D01*
X41435Y33650D01*
X41528Y33638D01*
X41620Y33650D01*
X41707Y33686D01*
X41781Y33743D01*
X41838Y33817D01*
X41874Y33903D01*
X41886Y33996D01*
X41874Y34089D01*
X41838Y34175D01*
X41781Y34249D01*
X41707Y34306D01*
X41640Y34334D01*
X41650Y34384D01*
X42405D01*
X42415Y34334D01*
X42348Y34306D01*
X42274Y34249D01*
X42217Y34175D01*
X42181Y34089D01*
X42169Y33996D01*
X42181Y33903D01*
X42217Y33817D01*
X42274Y33743D01*
X42348Y33686D01*
X42435Y33650D01*
X42528Y33638D01*
X42620Y33650D01*
X42707Y33686D01*
X42781Y33743D01*
X42838Y33817D01*
X42874Y33903D01*
X42886Y33996D01*
X42874Y34089D01*
X42838Y34175D01*
X42781Y34249D01*
X42707Y34306D01*
X42640Y34334D01*
X42650Y34384D01*
X45771D01*
X46036Y34119D01*
D02*
G37*
G36*
X47835Y35618D02*
Y33990D01*
Y33858D01*
X47638Y33661D01*
X47026D01*
X46931Y33567D01*
X46931Y33567D01*
X46867Y33502D01*
Y33475D01*
Y26683D01*
X44662Y24478D01*
X38300Y24478D01*
X34556Y20734D01*
X30906D01*
Y22496D01*
X31636Y23226D01*
X31646Y23228D01*
X31705Y23268D01*
X31744Y23327D01*
X31746Y23336D01*
X32367Y23958D01*
X32410Y23949D01*
X32420Y23940D01*
X32466Y23880D01*
X32528Y23833D01*
X32600Y23803D01*
X32677Y23793D01*
X32755Y23803D01*
X32827Y23833D01*
X32888Y23880D01*
X32936Y23942D01*
X32966Y24014D01*
X32976Y24092D01*
X32966Y24169D01*
X32936Y24241D01*
X32888Y24303D01*
X32829Y24349D01*
X32820Y24358D01*
X32811Y24402D01*
X37734Y29324D01*
X37755Y29322D01*
X37814Y29283D01*
X37884Y29269D01*
X37953Y29283D01*
X38012Y29322D01*
X38052Y29381D01*
X38065Y29451D01*
X38052Y29520D01*
X38012Y29579D01*
X37953Y29619D01*
X37905Y29628D01*
X37887Y29680D01*
X37914Y29708D01*
X37918Y29717D01*
X37926Y29723D01*
X37927Y29739D01*
X37933Y29754D01*
X39241D01*
X39260Y29729D01*
X39338Y29669D01*
X39430Y29631D01*
X39528Y29618D01*
X39625Y29631D01*
X39717Y29669D01*
X39795Y29729D01*
X39814Y29754D01*
X41266D01*
X41274Y29743D01*
X41348Y29686D01*
X41435Y29650D01*
X41528Y29638D01*
X41620Y29650D01*
X41707Y29686D01*
X41781Y29743D01*
X41789Y29754D01*
X42266D01*
X42274Y29743D01*
X42348Y29686D01*
X42435Y29650D01*
X42528Y29638D01*
X42620Y29650D01*
X42707Y29686D01*
X42781Y29743D01*
X42789Y29754D01*
X44933D01*
X46140Y30961D01*
Y31087D01*
X46140Y33573D01*
X46190Y33598D01*
X46212Y33581D01*
X46294Y33547D01*
X46382Y33535D01*
X46469Y33547D01*
X46539Y33575D01*
X46311Y33803D01*
X46382Y33874D01*
X46311Y33945D01*
X46539Y34173D01*
X46469Y34202D01*
X46382Y34213D01*
X46294Y34202D01*
X46212Y34168D01*
X46190Y34151D01*
X46140Y34175D01*
Y34673D01*
Y35863D01*
X46231Y35955D01*
X47498D01*
X47835Y35618D01*
D02*
G37*
G36*
X13881Y31299D02*
Y29020D01*
X13858Y28996D01*
X13248D01*
X12317Y28065D01*
X12262Y28081D01*
X12254Y28121D01*
X12215Y28180D01*
X12156Y28219D01*
X12087Y28233D01*
X12017Y28219D01*
X11958Y28180D01*
X11919Y28121D01*
X11905Y28051D01*
X11919Y27982D01*
X11958Y27923D01*
X12017Y27884D01*
X12057Y27876D01*
X12073Y27821D01*
X11943Y27691D01*
Y19461D01*
X12031Y19373D01*
X13438D01*
X13478Y19323D01*
X13472Y19291D01*
X13486Y19222D01*
X13525Y19163D01*
X13584Y19124D01*
X13653Y19110D01*
X13723Y19124D01*
X13782Y19163D01*
X13821Y19222D01*
X13835Y19291D01*
X13829Y19323D01*
X13868Y19373D01*
X25610D01*
X25661Y19335D01*
X25733Y19305D01*
X25810Y19295D01*
X25887Y19305D01*
X25959Y19335D01*
X26010Y19373D01*
X27454D01*
X27462Y19334D01*
X27501Y19275D01*
X27560Y19236D01*
X27630Y19222D01*
X27699Y19236D01*
X27758Y19275D01*
X27798Y19334D01*
X27805Y19373D01*
X27944D01*
X27955Y19317D01*
X27994Y19258D01*
X28053Y19219D01*
X28123Y19205D01*
X28192Y19219D01*
X28251Y19258D01*
X28291Y19317D01*
X28302Y19373D01*
X30044D01*
X30069Y19323D01*
X30035Y19280D01*
X29991Y19174D01*
X29976Y19060D01*
X29991Y18946D01*
X30035Y18840D01*
X30105Y18749D01*
X30196Y18679D01*
X30303Y18635D01*
X30416Y18620D01*
X30530Y18635D01*
X30636Y18679D01*
X30728Y18749D01*
X30797Y18840D01*
X30841Y18946D01*
X30856Y19060D01*
X30841Y19174D01*
X30797Y19280D01*
X30764Y19323D01*
X30789Y19373D01*
X46319D01*
X46332Y19357D01*
X46346Y19287D01*
X46385Y19228D01*
X46444Y19189D01*
X46514Y19175D01*
X46583Y19189D01*
X46642Y19228D01*
X46682Y19287D01*
X46695Y19357D01*
X46709Y19373D01*
X46775D01*
X46804Y19338D01*
X46818Y19268D01*
X46857Y19209D01*
X46916Y19170D01*
X46985Y19156D01*
X47055Y19170D01*
X47114Y19209D01*
X47153Y19268D01*
X47167Y19338D01*
X47196Y19373D01*
X48933D01*
X48957Y19323D01*
X48909Y19260D01*
X48865Y19154D01*
X48850Y19040D01*
X48865Y18926D01*
X48909Y18820D01*
X48979Y18729D01*
X49070Y18659D01*
X49176Y18615D01*
X49290Y18600D01*
X49404Y18615D01*
X49510Y18659D01*
X49601Y18729D01*
X49671Y18820D01*
X49715Y18926D01*
X49730Y19040D01*
X49715Y19154D01*
X49671Y19260D01*
X49623Y19323D01*
X49647Y19373D01*
X57094D01*
X57441Y19026D01*
X57874Y18593D01*
Y17356D01*
X57824Y17339D01*
X57821Y17342D01*
X57759Y17390D01*
X57687Y17419D01*
X57610Y17430D01*
X57533Y17419D01*
X57461Y17390D01*
X57399Y17342D01*
X57351Y17280D01*
X57321Y17208D01*
X57311Y17131D01*
X57321Y17054D01*
X57351Y16981D01*
X57399Y16920D01*
X57461Y16872D01*
X57533Y16842D01*
X57610Y16832D01*
X57687Y16842D01*
X57759Y16872D01*
X57821Y16920D01*
X57824Y16923D01*
X57874Y16906D01*
Y13454D01*
X57835Y13415D01*
X57789Y13440D01*
X57792Y13454D01*
X57778Y13524D01*
X57738Y13583D01*
X57679Y13622D01*
X57610Y13636D01*
X57540Y13622D01*
X57482Y13583D01*
X57442Y13524D01*
X57428Y13454D01*
X57442Y13385D01*
X57482Y13326D01*
X57540Y13286D01*
X57610Y13273D01*
X57625Y13275D01*
X57649Y13229D01*
X57433Y13013D01*
X57128Y12992D01*
X55373D01*
X55340Y13030D01*
X55342Y13040D01*
X55331Y13118D01*
X55302Y13190D01*
X55254Y13251D01*
X55192Y13299D01*
X55120Y13329D01*
X55043Y13339D01*
X54965Y13329D01*
X54893Y13299D01*
X54832Y13251D01*
X54784Y13190D01*
X54754Y13118D01*
X54744Y13040D01*
X54745Y13030D01*
X54712Y12992D01*
X51575D01*
X51191Y13376D01*
Y17263D01*
X50737Y17717D01*
X49674D01*
X49632Y17754D01*
X49397Y17921D01*
X49145Y18060D01*
X48879Y18170D01*
X48603Y18250D01*
X48319Y18298D01*
X48032Y18314D01*
X47744Y18298D01*
X47460Y18250D01*
X47184Y18170D01*
X46918Y18060D01*
X46666Y17921D01*
X46431Y17754D01*
X46389Y17717D01*
X45669D01*
X45182Y17702D01*
X44685Y17205D01*
Y13801D01*
X43877Y12992D01*
X38099D01*
X38083Y13042D01*
X38121Y13067D01*
X38160Y13126D01*
X38174Y13195D01*
X38160Y13265D01*
X38121Y13324D01*
X38062Y13363D01*
X37992Y13377D01*
X37923Y13363D01*
X37864Y13324D01*
X37824Y13265D01*
X37811Y13195D01*
X37824Y13126D01*
X37864Y13067D01*
X37901Y13042D01*
X37886Y12992D01*
X37237D01*
X37222Y13042D01*
X37259Y13067D01*
X37299Y13126D01*
X37312Y13195D01*
X37299Y13265D01*
X37259Y13324D01*
X37200Y13363D01*
X37131Y13377D01*
X37061Y13363D01*
X37002Y13324D01*
X36963Y13265D01*
X36949Y13195D01*
X36963Y13126D01*
X37002Y13067D01*
X37039Y13042D01*
X37024Y12992D01*
X33104D01*
X32187Y13910D01*
Y17359D01*
X31714Y17832D01*
X30624D01*
X30499Y17921D01*
X30247Y18060D01*
X29981Y18170D01*
X29705Y18250D01*
X29421Y18298D01*
X29134Y18314D01*
X28847Y18298D01*
X28563Y18250D01*
X28286Y18170D01*
X28020Y18060D01*
X27769Y17921D01*
X27643Y17832D01*
X26542D01*
X25984Y17274D01*
Y13727D01*
X25326Y13069D01*
X19502D01*
X19473Y13105D01*
X19459Y13174D01*
X19420Y13233D01*
X19361Y13273D01*
X19291Y13286D01*
X19222Y13273D01*
X19163Y13233D01*
X19124Y13174D01*
X19110Y13105D01*
X19080Y13069D01*
X18648D01*
X18617Y13108D01*
X18619Y13122D01*
X18606Y13191D01*
X18566Y13250D01*
X18507Y13290D01*
X18438Y13303D01*
X18368Y13290D01*
X18309Y13250D01*
X18270Y13191D01*
X18256Y13122D01*
X18259Y13108D01*
X18227Y13069D01*
X13693D01*
X12983Y13780D01*
Y17136D01*
X12992Y17146D01*
Y17282D01*
X12584Y17690D01*
X11908D01*
X11836Y17754D01*
X11602Y17921D01*
X11350Y18060D01*
X11084Y18170D01*
X10807Y18250D01*
X10524Y18298D01*
X10236Y18314D01*
X9949Y18298D01*
X9665Y18250D01*
X9389Y18170D01*
X9123Y18060D01*
X8871Y17921D01*
X8636Y17754D01*
X8564Y17690D01*
X7848D01*
X7480Y17323D01*
Y13780D01*
X6890Y13189D01*
X4134D01*
X3543Y13780D01*
Y30315D01*
X4724Y31496D01*
X13685D01*
X13881Y31299D01*
D02*
G37*
G36*
X47750Y33342D02*
Y26792D01*
Y26742D01*
X47700Y26727D01*
X47697Y26732D01*
X47638Y26772D01*
X47568Y26785D01*
X47499Y26772D01*
X47440Y26732D01*
X47401Y26673D01*
X47387Y26604D01*
X47401Y26534D01*
X47440Y26475D01*
X47499Y26436D01*
X47568Y26422D01*
X47638Y26436D01*
X47697Y26475D01*
X47700Y26481D01*
X47750Y26466D01*
Y25680D01*
Y25501D01*
Y24883D01*
Y24703D01*
Y22683D01*
X47700Y22650D01*
X47638Y22663D01*
X47553Y22646D01*
X47481Y22598D01*
X47433Y22526D01*
X47416Y22441D01*
X47433Y22356D01*
X47481Y22284D01*
X47553Y22236D01*
X47638Y22219D01*
X47700Y22232D01*
X47745Y22203D01*
X47750Y22195D01*
Y21900D01*
X47743Y21888D01*
X47735Y21881D01*
X47700Y21863D01*
X47638Y21875D01*
X47553Y21858D01*
X47481Y21810D01*
X47433Y21738D01*
X47416Y21654D01*
X47433Y21569D01*
X47481Y21497D01*
X47553Y21449D01*
X47638Y21432D01*
X47700Y21444D01*
X47750Y21412D01*
Y20981D01*
X46638Y19869D01*
X46635Y19869D01*
X46576Y19908D01*
X46506Y19922D01*
X46437Y19908D01*
X46380Y19870D01*
X46323Y19908D01*
X46253Y19922D01*
X46184Y19908D01*
X46125Y19869D01*
X46066Y19908D01*
X45996Y19922D01*
X45927Y19908D01*
X45868Y19869D01*
X45829Y19810D01*
X45815Y19741D01*
X45829Y19671D01*
X45868Y19612D01*
X45927Y19573D01*
X45996Y19559D01*
X46066Y19573D01*
X46125Y19612D01*
X46184Y19573D01*
X46235Y19563D01*
X46257Y19518D01*
X46258Y19511D01*
X46241Y19488D01*
X45066D01*
X45049Y19538D01*
X45093Y19572D01*
X45141Y19634D01*
X45170Y19706D01*
X45181Y19783D01*
X45170Y19861D01*
X45141Y19933D01*
X45093Y19995D01*
X45031Y20042D01*
X44959Y20072D01*
X44882Y20082D01*
X44805Y20072D01*
X44733Y20042D01*
X44671Y19995D01*
X44623Y19933D01*
X44593Y19861D01*
X44583Y19783D01*
X44593Y19706D01*
X44623Y19634D01*
X44671Y19572D01*
X44715Y19538D01*
X44698Y19488D01*
X30991D01*
X30906Y19574D01*
Y20669D01*
X34646D01*
X38327Y24350D01*
X39291D01*
X39308Y24300D01*
X39260Y24263D01*
X39200Y24185D01*
X39162Y24094D01*
X39149Y23996D01*
X39162Y23898D01*
X39200Y23807D01*
X39260Y23729D01*
X39338Y23669D01*
X39430Y23631D01*
X39528Y23618D01*
X39625Y23631D01*
X39717Y23669D01*
X39795Y23729D01*
X39855Y23807D01*
X39893Y23898D01*
X39906Y23996D01*
X39893Y24094D01*
X39855Y24185D01*
X39795Y24263D01*
X39747Y24300D01*
X39764Y24350D01*
X41327D01*
X41337Y24331D01*
X41341Y24300D01*
X41274Y24249D01*
X41217Y24175D01*
X41181Y24089D01*
X41169Y23996D01*
X41181Y23903D01*
X41217Y23817D01*
X41274Y23743D01*
X41348Y23686D01*
X41435Y23650D01*
X41528Y23638D01*
X41620Y23650D01*
X41707Y23686D01*
X41781Y23743D01*
X41838Y23817D01*
X41874Y23903D01*
X41886Y23996D01*
X41874Y24089D01*
X41838Y24175D01*
X41781Y24249D01*
X41715Y24300D01*
X41718Y24331D01*
X41728Y24350D01*
X42327D01*
X42337Y24331D01*
X42341Y24300D01*
X42274Y24249D01*
X42217Y24175D01*
X42181Y24089D01*
X42169Y23996D01*
X42181Y23903D01*
X42217Y23817D01*
X42274Y23743D01*
X42348Y23686D01*
X42435Y23650D01*
X42528Y23638D01*
X42620Y23650D01*
X42707Y23686D01*
X42781Y23743D01*
X42838Y23817D01*
X42874Y23903D01*
X42886Y23996D01*
X42874Y24089D01*
X42838Y24175D01*
X42781Y24249D01*
X42715Y24300D01*
X42718Y24331D01*
X42728Y24350D01*
X44626D01*
X46932Y26656D01*
Y33475D01*
X46977Y33521D01*
X47572D01*
X47750Y33342D01*
D02*
G37*
G36*
X49234Y33306D02*
X49449Y33092D01*
Y24916D01*
X49477Y24888D01*
X49477Y24887D01*
X51181Y23183D01*
Y19882D01*
X48108D01*
X47929Y20061D01*
X47815Y20175D01*
Y21528D01*
X47843Y21569D01*
X47860Y21654D01*
X47843Y21738D01*
X47815Y21779D01*
Y21889D01*
X47865Y21904D01*
X47875Y21890D01*
X47947Y21842D01*
X48032Y21826D01*
X48116Y21842D01*
X48188Y21890D01*
X48236Y21962D01*
X48253Y22047D01*
X48236Y22132D01*
X48188Y22204D01*
X48116Y22252D01*
X48032Y22269D01*
X47947Y22252D01*
X47875Y22204D01*
X47865Y22190D01*
X47841Y22192D01*
X47815Y22205D01*
Y22315D01*
X47843Y22356D01*
X47860Y22441D01*
X47843Y22526D01*
X47815Y22567D01*
Y24703D01*
X47862Y24722D01*
X47865Y24721D01*
X47903Y24665D01*
X47962Y24625D01*
X48032Y24611D01*
X48101Y24625D01*
X48160Y24665D01*
X48199Y24723D01*
X48213Y24793D01*
X48199Y24862D01*
X48160Y24921D01*
X48101Y24961D01*
X48032Y24975D01*
X47962Y24961D01*
X47903Y24921D01*
X47865Y24865D01*
X47862Y24864D01*
X47815Y24883D01*
Y25501D01*
X47862Y25519D01*
X47865Y25519D01*
X47903Y25462D01*
X47962Y25423D01*
X48032Y25409D01*
X48101Y25423D01*
X48160Y25462D01*
X48199Y25521D01*
X48213Y25591D01*
X48199Y25660D01*
X48160Y25719D01*
X48101Y25758D01*
X48032Y25772D01*
X47962Y25758D01*
X47903Y25719D01*
X47865Y25662D01*
X47862Y25662D01*
X47815Y25680D01*
Y33407D01*
X47929Y33521D01*
X49020D01*
X49234Y33306D01*
D02*
G37*
G36*
X66929Y40551D02*
X66929Y27205D01*
X63366D01*
X63189Y27028D01*
Y27001D01*
X63189Y27001D01*
Y23146D01*
X62680Y22638D01*
X55709D01*
X54720Y23627D01*
Y28572D01*
X54724Y28577D01*
Y28890D01*
X54732Y28897D01*
X54810Y28907D01*
X54882Y28937D01*
X54944Y28984D01*
X54991Y29046D01*
X55021Y29118D01*
X55031Y29196D01*
X55021Y29273D01*
X54991Y29345D01*
X54944Y29407D01*
X54882Y29455D01*
X54810Y29484D01*
X54732Y29495D01*
X54724Y29502D01*
Y31768D01*
X54978Y32022D01*
X61103D01*
X61149Y32041D01*
X61479Y32371D01*
Y36841D01*
X61051Y37270D01*
X57076D01*
X57049Y37320D01*
X57058Y37332D01*
X57071Y37402D01*
X57058Y37471D01*
X57018Y37530D01*
X56959Y37569D01*
X56910Y37579D01*
Y40551D01*
X66929Y40551D01*
D02*
G37*
G36*
X30830Y22502D02*
X30841Y22493D01*
Y20734D01*
X30854Y20702D01*
X30841Y20669D01*
Y19574D01*
X30855Y19538D01*
X30838Y19490D01*
X30808Y19438D01*
X30789D01*
X30779Y19434D01*
X30768Y19435D01*
X30757Y19425D01*
X30743Y19419D01*
X30646Y19433D01*
X30636Y19441D01*
X30530Y19485D01*
X30416Y19500D01*
X30303Y19485D01*
X30196Y19441D01*
X30186Y19433D01*
X30090Y19419D01*
X30076Y19425D01*
X30065Y19435D01*
X30054Y19434D01*
X30044Y19438D01*
X28302D01*
X28293Y19443D01*
X28291Y19456D01*
X28251Y19515D01*
X28207Y19545D01*
X28203Y19558D01*
X28199Y19607D01*
X28204Y19654D01*
X28236Y19675D01*
X28275Y19734D01*
X28289Y19804D01*
X28275Y19873D01*
X28236Y19932D01*
X28227Y20021D01*
X29547Y21340D01*
X29551Y21349D01*
X29558Y21356D01*
X29560Y21371D01*
X29566Y21386D01*
X29562Y21395D01*
X29563Y21405D01*
X29547Y21459D01*
X29540Y21467D01*
X29538Y21476D01*
X29525Y21485D01*
X29515Y21498D01*
X29505Y21499D01*
X29497Y21504D01*
X29468Y21510D01*
X29418Y21544D01*
X29384Y21594D01*
X29372Y21654D01*
X29384Y21713D01*
X29418Y21764D01*
X29468Y21797D01*
X29528Y21809D01*
X29587Y21797D01*
X29638Y21764D01*
X29671Y21713D01*
X29677Y21684D01*
X29682Y21676D01*
X29683Y21666D01*
X29696Y21656D01*
X29705Y21643D01*
X29714Y21641D01*
X29722Y21635D01*
X29776Y21618D01*
X29786Y21619D01*
X29795Y21615D01*
X29810Y21621D01*
X29826Y21623D01*
X29832Y21631D01*
X29841Y21634D01*
X30753Y22547D01*
X30830Y22502D01*
D02*
G37*
G36*
X50868Y34713D02*
Y33337D01*
X50954Y33252D01*
X50960Y33243D01*
X51740Y32464D01*
X51740Y32464D01*
X51748Y32457D01*
X54608Y29597D01*
X54655D01*
Y29484D01*
X54583Y29455D01*
X54521Y29407D01*
X54474Y29345D01*
X54444Y29273D01*
X54434Y29196D01*
X54444Y29118D01*
X54474Y29046D01*
X54521Y28984D01*
X54583Y28937D01*
X54655Y28907D01*
Y20206D01*
X54331Y19882D01*
X51246D01*
Y23210D01*
X49523Y24933D01*
Y33110D01*
X49495Y33138D01*
X49495Y33138D01*
X49066Y33567D01*
X49047Y33586D01*
X48304D01*
X47900Y33990D01*
Y35695D01*
X48268Y36063D01*
X49518D01*
X50868Y34713D01*
D02*
G37*
G36*
X66929Y12122D02*
X66699Y11892D01*
X62642D01*
X62473Y11724D01*
Y9105D01*
X62435Y9076D01*
X59574Y9076D01*
X59536Y9114D01*
Y13775D01*
X59866Y14105D01*
X61805D01*
X61955Y14255D01*
Y18123D01*
X63254Y19422D01*
Y27001D01*
X63393Y27140D01*
X66929Y27140D01*
Y12122D01*
D02*
G37*
%LPC*%
G36*
X41883Y41351D02*
X41172D01*
Y40641D01*
X41883D01*
Y41351D01*
D02*
G37*
G36*
X17883D02*
X17172D01*
Y40641D01*
X17883D01*
Y41351D01*
D02*
G37*
G36*
X42528Y41354D02*
X42435Y41342D01*
X42348Y41306D01*
X42274Y41249D01*
X42217Y41175D01*
X42181Y41089D01*
X42169Y40996D01*
X42181Y40903D01*
X42217Y40817D01*
X42274Y40743D01*
X42348Y40686D01*
X42435Y40650D01*
X42528Y40638D01*
X42620Y40650D01*
X42707Y40686D01*
X42781Y40743D01*
X42838Y40817D01*
X42874Y40903D01*
X42886Y40996D01*
X42874Y41089D01*
X42838Y41175D01*
X42781Y41249D01*
X42707Y41306D01*
X42620Y41342D01*
X42528Y41354D01*
D02*
G37*
G36*
X18528D02*
X18435Y41342D01*
X18348Y41306D01*
X18274Y41249D01*
X18217Y41175D01*
X18181Y41089D01*
X18169Y40996D01*
X18181Y40903D01*
X18217Y40817D01*
X18274Y40743D01*
X18348Y40686D01*
X18435Y40650D01*
X18528Y40638D01*
X18620Y40650D01*
X18707Y40686D01*
X18781Y40743D01*
X18838Y40817D01*
X18874Y40903D01*
X18886Y40996D01*
X18874Y41089D01*
X18838Y41175D01*
X18781Y41249D01*
X18707Y41306D01*
X18620Y41342D01*
X18528Y41354D01*
D02*
G37*
G36*
X29056Y41324D02*
X28346D01*
Y40613D01*
X29056D01*
Y41324D01*
D02*
G37*
G36*
X22237D02*
X21527D01*
Y40613D01*
X22237D01*
Y41324D01*
D02*
G37*
G36*
X31701Y41327D02*
X31608Y41315D01*
X31522Y41279D01*
X31447Y41222D01*
X31391Y41148D01*
X31355Y41061D01*
X31342Y40969D01*
X31355Y40876D01*
X31391Y40789D01*
X31447Y40715D01*
X31522Y40658D01*
X31608Y40622D01*
X31701Y40610D01*
X31794Y40622D01*
X31880Y40658D01*
X31954Y40715D01*
X32011Y40789D01*
X32047Y40876D01*
X32059Y40969D01*
X32047Y41061D01*
X32011Y41148D01*
X31954Y41222D01*
X31880Y41279D01*
X31794Y41315D01*
X31701Y41327D01*
D02*
G37*
G36*
X30701D02*
X30608Y41315D01*
X30522Y41279D01*
X30447Y41222D01*
X30391Y41148D01*
X30355Y41061D01*
X30343Y40969D01*
X30355Y40876D01*
X30391Y40789D01*
X30447Y40715D01*
X30522Y40658D01*
X30608Y40622D01*
X30701Y40610D01*
X30794Y40622D01*
X30880Y40658D01*
X30954Y40715D01*
X31011Y40789D01*
X31047Y40876D01*
X31059Y40969D01*
X31047Y41061D01*
X31011Y41148D01*
X30954Y41222D01*
X30880Y41279D01*
X30794Y41315D01*
X30701Y41327D01*
D02*
G37*
G36*
X29701D02*
X29608Y41315D01*
X29522Y41279D01*
X29447Y41222D01*
X29391Y41148D01*
X29355Y41061D01*
X29343Y40969D01*
X29355Y40876D01*
X29391Y40789D01*
X29447Y40715D01*
X29522Y40658D01*
X29608Y40622D01*
X29701Y40610D01*
X29794Y40622D01*
X29880Y40658D01*
X29954Y40715D01*
X30011Y40789D01*
X30047Y40876D01*
X30059Y40969D01*
X30047Y41061D01*
X30011Y41148D01*
X29954Y41222D01*
X29880Y41279D01*
X29794Y41315D01*
X29701Y41327D01*
D02*
G37*
G36*
X24882Y41327D02*
X24789Y41315D01*
X24703Y41279D01*
X24629Y41222D01*
X24572Y41148D01*
X24536Y41061D01*
X24524Y40969D01*
X24536Y40876D01*
X24572Y40789D01*
X24629Y40715D01*
X24703Y40658D01*
X24789Y40622D01*
X24882Y40610D01*
X24975Y40622D01*
X25061Y40658D01*
X25135Y40715D01*
X25192Y40789D01*
X25228Y40876D01*
X25240Y40969D01*
X25228Y41061D01*
X25192Y41148D01*
X25135Y41222D01*
X25061Y41279D01*
X24975Y41315D01*
X24882Y41327D01*
D02*
G37*
G36*
X23882D02*
X23789Y41315D01*
X23703Y41279D01*
X23629Y41222D01*
X23572Y41148D01*
X23536Y41061D01*
X23524Y40969D01*
X23536Y40876D01*
X23572Y40789D01*
X23629Y40715D01*
X23703Y40658D01*
X23789Y40622D01*
X23882Y40610D01*
X23975Y40622D01*
X24061Y40658D01*
X24135Y40715D01*
X24192Y40789D01*
X24228Y40876D01*
X24240Y40969D01*
X24228Y41061D01*
X24192Y41148D01*
X24135Y41222D01*
X24061Y41279D01*
X23975Y41315D01*
X23882Y41327D01*
D02*
G37*
G36*
X22882D02*
X22789Y41315D01*
X22703Y41279D01*
X22629Y41222D01*
X22572Y41148D01*
X22536Y41061D01*
X22524Y40969D01*
X22536Y40876D01*
X22572Y40789D01*
X22629Y40715D01*
X22703Y40658D01*
X22789Y40622D01*
X22882Y40610D01*
X22975Y40622D01*
X23061Y40658D01*
X23135Y40715D01*
X23192Y40789D01*
X23228Y40876D01*
X23240Y40969D01*
X23228Y41061D01*
X23192Y41148D01*
X23135Y41222D01*
X23061Y41279D01*
X22975Y41315D01*
X22882Y41327D01*
D02*
G37*
G36*
X36237Y41007D02*
X36152Y40990D01*
X36080Y40942D01*
X36032Y40870D01*
X36015Y40785D01*
X36032Y40700D01*
X36080Y40629D01*
X36152Y40580D01*
X36237Y40564D01*
X36322Y40580D01*
X36394Y40629D01*
X36442Y40700D01*
X36459Y40785D01*
X36442Y40870D01*
X36394Y40942D01*
X36322Y40990D01*
X36237Y41007D01*
D02*
G37*
G36*
X35185Y40996D02*
X35100Y40979D01*
X35028Y40931D01*
X34980Y40859D01*
X34963Y40774D01*
X34980Y40689D01*
X35028Y40617D01*
X35100Y40569D01*
X35185Y40552D01*
X35270Y40569D01*
X35342Y40617D01*
X35390Y40689D01*
X35407Y40774D01*
X35390Y40859D01*
X35342Y40931D01*
X35270Y40979D01*
X35185Y40996D01*
D02*
G37*
G36*
X39528Y40974D02*
X39430Y40961D01*
X39338Y40924D01*
X39260Y40863D01*
X39200Y40785D01*
X39162Y40694D01*
X39149Y40596D01*
X39162Y40498D01*
X39200Y40407D01*
X39260Y40329D01*
X39338Y40269D01*
X39430Y40231D01*
X39528Y40218D01*
X39625Y40231D01*
X39717Y40269D01*
X39795Y40329D01*
X39855Y40407D01*
X39893Y40498D01*
X39906Y40596D01*
X39893Y40694D01*
X39855Y40785D01*
X39795Y40863D01*
X39717Y40924D01*
X39625Y40961D01*
X39528Y40974D01*
D02*
G37*
G36*
X42528Y40354D02*
X42435Y40342D01*
X42348Y40306D01*
X42274Y40249D01*
X42217Y40175D01*
X42181Y40089D01*
X42169Y39996D01*
X42181Y39903D01*
X42217Y39817D01*
X42274Y39743D01*
X42348Y39686D01*
X42435Y39650D01*
X42528Y39638D01*
X42620Y39650D01*
X42707Y39686D01*
X42781Y39743D01*
X42838Y39817D01*
X42874Y39903D01*
X42886Y39996D01*
X42874Y40089D01*
X42838Y40175D01*
X42781Y40249D01*
X42707Y40306D01*
X42620Y40342D01*
X42528Y40354D01*
D02*
G37*
G36*
X41528D02*
X41435Y40342D01*
X41348Y40306D01*
X41274Y40249D01*
X41217Y40175D01*
X41181Y40089D01*
X41169Y39996D01*
X41181Y39903D01*
X41217Y39817D01*
X41274Y39743D01*
X41348Y39686D01*
X41435Y39650D01*
X41528Y39638D01*
X41620Y39650D01*
X41707Y39686D01*
X41781Y39743D01*
X41838Y39817D01*
X41874Y39903D01*
X41886Y39996D01*
X41874Y40089D01*
X41838Y40175D01*
X41781Y40249D01*
X41707Y40306D01*
X41620Y40342D01*
X41528Y40354D01*
D02*
G37*
G36*
X18528D02*
X18435Y40342D01*
X18348Y40306D01*
X18274Y40249D01*
X18217Y40175D01*
X18181Y40089D01*
X18169Y39996D01*
X18181Y39903D01*
X18217Y39817D01*
X18274Y39743D01*
X18348Y39686D01*
X18435Y39650D01*
X18528Y39638D01*
X18620Y39650D01*
X18707Y39686D01*
X18781Y39743D01*
X18838Y39817D01*
X18874Y39903D01*
X18886Y39996D01*
X18874Y40089D01*
X18838Y40175D01*
X18781Y40249D01*
X18707Y40306D01*
X18620Y40342D01*
X18528Y40354D01*
D02*
G37*
G36*
X17528D02*
X17435Y40342D01*
X17348Y40306D01*
X17274Y40249D01*
X17217Y40175D01*
X17181Y40089D01*
X17169Y39996D01*
X17181Y39903D01*
X17217Y39817D01*
X17274Y39743D01*
X17348Y39686D01*
X17435Y39650D01*
X17528Y39638D01*
X17620Y39650D01*
X17707Y39686D01*
X17781Y39743D01*
X17838Y39817D01*
X17874Y39903D01*
X17886Y39996D01*
X17874Y40089D01*
X17838Y40175D01*
X17781Y40249D01*
X17707Y40306D01*
X17620Y40342D01*
X17528Y40354D01*
D02*
G37*
G36*
X39528Y39974D02*
X39430Y39961D01*
X39338Y39924D01*
X39260Y39863D01*
X39200Y39785D01*
X39162Y39694D01*
X39149Y39596D01*
X39162Y39498D01*
X39200Y39407D01*
X39260Y39329D01*
X39338Y39269D01*
X39430Y39231D01*
X39528Y39218D01*
X39625Y39231D01*
X39717Y39269D01*
X39795Y39329D01*
X39855Y39407D01*
X39893Y39498D01*
X39906Y39596D01*
X39893Y39694D01*
X39855Y39785D01*
X39795Y39863D01*
X39717Y39924D01*
X39625Y39961D01*
X39528Y39974D01*
D02*
G37*
G36*
X43445Y39341D02*
X43375Y39327D01*
X43316Y39287D01*
X43277Y39229D01*
X43263Y39159D01*
X43277Y39090D01*
X43316Y39031D01*
X43375Y38991D01*
X43445Y38977D01*
X43514Y38991D01*
X43573Y39031D01*
X43612Y39090D01*
X43626Y39159D01*
X43612Y39229D01*
X43573Y39287D01*
X43514Y39327D01*
X43445Y39341D01*
D02*
G37*
G36*
X11580Y39548D02*
X10830D01*
Y38798D01*
X11580D01*
Y39548D01*
D02*
G37*
G36*
X12205Y39551D02*
X12107Y39539D01*
X12016Y39501D01*
X11937Y39441D01*
X11877Y39362D01*
X11839Y39271D01*
X11827Y39173D01*
X11839Y39075D01*
X11877Y38984D01*
X11937Y38906D01*
X12016Y38846D01*
X12107Y38808D01*
X12205Y38795D01*
X12303Y38808D01*
X12394Y38846D01*
X12472Y38906D01*
X12532Y38984D01*
X12570Y39075D01*
X12583Y39173D01*
X12570Y39271D01*
X12532Y39362D01*
X12472Y39441D01*
X12394Y39501D01*
X12303Y39539D01*
X12205Y39551D01*
D02*
G37*
G36*
X18528Y39354D02*
X18435Y39342D01*
X18348Y39306D01*
X18274Y39249D01*
X18217Y39175D01*
X18181Y39089D01*
X18169Y38996D01*
X18181Y38903D01*
X18217Y38817D01*
X18274Y38743D01*
X18348Y38686D01*
X18435Y38650D01*
X18528Y38638D01*
X18620Y38650D01*
X18707Y38686D01*
X18781Y38743D01*
X18838Y38817D01*
X18874Y38903D01*
X18886Y38996D01*
X18874Y39089D01*
X18838Y39175D01*
X18781Y39249D01*
X18707Y39306D01*
X18620Y39342D01*
X18528Y39354D01*
D02*
G37*
G36*
X17528D02*
X17435Y39342D01*
X17348Y39306D01*
X17274Y39249D01*
X17217Y39175D01*
X17181Y39089D01*
X17169Y38996D01*
X17181Y38903D01*
X17217Y38817D01*
X17274Y38743D01*
X17348Y38686D01*
X17435Y38650D01*
X17528Y38638D01*
X17620Y38650D01*
X17707Y38686D01*
X17781Y38743D01*
X17838Y38817D01*
X17874Y38903D01*
X17886Y38996D01*
X17874Y39089D01*
X17838Y39175D01*
X17781Y39249D01*
X17707Y39306D01*
X17620Y39342D01*
X17528Y39354D01*
D02*
G37*
G36*
X35012Y38778D02*
X34942Y38764D01*
X34884Y38724D01*
X34844Y38666D01*
X34830Y38596D01*
X34844Y38527D01*
X34884Y38468D01*
X34942Y38428D01*
X35012Y38414D01*
X35081Y38428D01*
X35140Y38468D01*
X35180Y38527D01*
X35194Y38596D01*
X35180Y38666D01*
X35140Y38724D01*
X35081Y38764D01*
X35012Y38778D01*
D02*
G37*
G36*
X25629Y38646D02*
X25544Y38629D01*
X25472Y38581D01*
X25424Y38509D01*
X25407Y38424D01*
X25424Y38340D01*
X25472Y38268D01*
X25544Y38220D01*
X25629Y38203D01*
X25713Y38220D01*
X25785Y38268D01*
X25833Y38340D01*
X25850Y38424D01*
X25833Y38509D01*
X25785Y38581D01*
X25713Y38629D01*
X25629Y38646D01*
D02*
G37*
G36*
X30693Y38247D02*
X30624Y38233D01*
X30565Y38194D01*
X30525Y38135D01*
X30511Y38065D01*
X30525Y37996D01*
X30565Y37937D01*
X30624Y37897D01*
X30693Y37884D01*
X30763Y37897D01*
X30821Y37937D01*
X30861Y37996D01*
X30875Y38065D01*
X30861Y38135D01*
X30821Y38194D01*
X30763Y38233D01*
X30693Y38247D01*
D02*
G37*
G36*
X29688D02*
X29618Y38233D01*
X29559Y38194D01*
X29520Y38135D01*
X29506Y38065D01*
X29520Y37996D01*
X29559Y37937D01*
X29618Y37897D01*
X29688Y37884D01*
X29757Y37897D01*
X29816Y37937D01*
X29855Y37996D01*
X29869Y38065D01*
X29855Y38135D01*
X29816Y38194D01*
X29757Y38233D01*
X29688Y38247D01*
D02*
G37*
G36*
X28693Y38247D02*
X28624Y38233D01*
X28565Y38194D01*
X28525Y38135D01*
X28511Y38065D01*
X28525Y37996D01*
X28565Y37937D01*
X28624Y37897D01*
X28693Y37884D01*
X28763Y37897D01*
X28821Y37937D01*
X28861Y37996D01*
X28875Y38065D01*
X28861Y38135D01*
X28821Y38194D01*
X28763Y38233D01*
X28693Y38247D01*
D02*
G37*
G36*
X49890Y38862D02*
X49774Y38851D01*
X49662Y38817D01*
X49560Y38762D01*
X49469Y38688D01*
X49396Y38598D01*
X49341Y38495D01*
X49307Y38384D01*
X49295Y38268D01*
X49307Y38152D01*
X49341Y38040D01*
X49396Y37938D01*
X49469Y37847D01*
X49560Y37774D01*
X49662Y37719D01*
X49774Y37685D01*
X49890Y37673D01*
X50006Y37685D01*
X50117Y37719D01*
X50220Y37774D01*
X50310Y37847D01*
X50384Y37938D01*
X50439Y38040D01*
X50473Y38152D01*
X50484Y38268D01*
X50473Y38384D01*
X50439Y38495D01*
X50384Y38598D01*
X50310Y38688D01*
X50220Y38762D01*
X50117Y38817D01*
X50006Y38851D01*
X49890Y38862D01*
D02*
G37*
G36*
X18528Y38354D02*
X18435Y38342D01*
X18348Y38306D01*
X18274Y38249D01*
X18217Y38175D01*
X18181Y38089D01*
X18169Y37996D01*
X18181Y37903D01*
X18217Y37817D01*
X18274Y37743D01*
X18348Y37686D01*
X18435Y37650D01*
X18528Y37638D01*
X18620Y37650D01*
X18707Y37686D01*
X18781Y37743D01*
X18838Y37817D01*
X18874Y37903D01*
X18886Y37996D01*
X18874Y38089D01*
X18838Y38175D01*
X18781Y38249D01*
X18707Y38306D01*
X18620Y38342D01*
X18528Y38354D01*
D02*
G37*
G36*
X17528D02*
X17435Y38342D01*
X17348Y38306D01*
X17274Y38249D01*
X17217Y38175D01*
X17181Y38089D01*
X17169Y37996D01*
X17181Y37903D01*
X17217Y37817D01*
X17274Y37743D01*
X17348Y37686D01*
X17435Y37650D01*
X17528Y37638D01*
X17620Y37650D01*
X17707Y37686D01*
X17781Y37743D01*
X17838Y37817D01*
X17874Y37903D01*
X17886Y37996D01*
X17874Y38089D01*
X17838Y38175D01*
X17781Y38249D01*
X17707Y38306D01*
X17620Y38342D01*
X17528Y38354D01*
D02*
G37*
G36*
X18528Y37354D02*
X18435Y37342D01*
X18348Y37306D01*
X18274Y37249D01*
X18217Y37175D01*
X18181Y37089D01*
X18169Y36996D01*
X18181Y36903D01*
X18217Y36817D01*
X18274Y36743D01*
X18348Y36686D01*
X18435Y36650D01*
X18528Y36638D01*
X18620Y36650D01*
X18707Y36686D01*
X18781Y36743D01*
X18838Y36817D01*
X18874Y36903D01*
X18886Y36996D01*
X18874Y37089D01*
X18838Y37175D01*
X18781Y37249D01*
X18707Y37306D01*
X18620Y37342D01*
X18528Y37354D01*
D02*
G37*
G36*
X17528D02*
X17435Y37342D01*
X17348Y37306D01*
X17274Y37249D01*
X17217Y37175D01*
X17181Y37089D01*
X17169Y36996D01*
X17181Y36903D01*
X17217Y36817D01*
X17274Y36743D01*
X17348Y36686D01*
X17435Y36650D01*
X17528Y36638D01*
X17620Y36650D01*
X17707Y36686D01*
X17781Y36743D01*
X17838Y36817D01*
X17874Y36903D01*
X17886Y36996D01*
X17874Y37089D01*
X17838Y37175D01*
X17781Y37249D01*
X17707Y37306D01*
X17620Y37342D01*
X17528Y37354D01*
D02*
G37*
G36*
X20903Y37371D02*
X20153D01*
Y36621D01*
X20903D01*
Y37371D01*
D02*
G37*
G36*
X29688Y36974D02*
X29618Y36960D01*
X29559Y36921D01*
X29520Y36862D01*
X29506Y36793D01*
X29520Y36723D01*
X29559Y36664D01*
X29618Y36625D01*
X29688Y36611D01*
X29757Y36625D01*
X29816Y36664D01*
X29855Y36723D01*
X29869Y36793D01*
X29855Y36862D01*
X29816Y36921D01*
X29757Y36960D01*
X29688Y36974D01*
D02*
G37*
G36*
X28693Y36974D02*
X28624Y36960D01*
X28565Y36921D01*
X28525Y36862D01*
X28511Y36793D01*
X28525Y36723D01*
X28565Y36664D01*
X28624Y36625D01*
X28693Y36611D01*
X28763Y36625D01*
X28821Y36664D01*
X28861Y36723D01*
X28875Y36793D01*
X28861Y36862D01*
X28821Y36921D01*
X28763Y36960D01*
X28693Y36974D01*
D02*
G37*
G36*
X30693Y36942D02*
X30624Y36928D01*
X30565Y36888D01*
X30525Y36830D01*
X30511Y36760D01*
X30525Y36691D01*
X30565Y36632D01*
X30624Y36592D01*
X30693Y36578D01*
X30763Y36592D01*
X30821Y36632D01*
X30861Y36691D01*
X30875Y36760D01*
X30861Y36830D01*
X30821Y36888D01*
X30763Y36928D01*
X30693Y36942D01*
D02*
G37*
G36*
X22997Y36882D02*
X22247D01*
Y36132D01*
X22997D01*
Y36882D01*
D02*
G37*
G36*
X23622Y36886D02*
X23524Y36873D01*
X23433Y36835D01*
X23355Y36775D01*
X23295Y36696D01*
X23257Y36605D01*
X23244Y36507D01*
X23257Y36409D01*
X23295Y36318D01*
X23355Y36240D01*
X23433Y36180D01*
X23524Y36142D01*
X23622Y36129D01*
X23720Y36142D01*
X23811Y36180D01*
X23889Y36240D01*
X23950Y36318D01*
X23987Y36409D01*
X24000Y36507D01*
X23987Y36605D01*
X23950Y36696D01*
X23889Y36775D01*
X23811Y36835D01*
X23720Y36873D01*
X23622Y36886D01*
D02*
G37*
G36*
X32252Y36178D02*
X32182Y36164D01*
X32123Y36124D01*
X32084Y36066D01*
X32070Y35996D01*
X32084Y35927D01*
X32123Y35868D01*
X32182Y35828D01*
X32252Y35814D01*
X32321Y35828D01*
X32380Y35868D01*
X32419Y35927D01*
X32433Y35996D01*
X32419Y36066D01*
X32380Y36124D01*
X32321Y36164D01*
X32252Y36178D01*
D02*
G37*
G36*
X15787Y36283D02*
X15710Y36273D01*
X15638Y36243D01*
X15576Y36196D01*
X15529Y36134D01*
X15499Y36062D01*
X15489Y35984D01*
X15499Y35907D01*
X15529Y35835D01*
X15576Y35773D01*
X15638Y35726D01*
X15710Y35696D01*
X15787Y35685D01*
X15865Y35696D01*
X15937Y35726D01*
X15999Y35773D01*
X16046Y35835D01*
X16076Y35907D01*
X16086Y35984D01*
X16076Y36062D01*
X16046Y36134D01*
X15999Y36196D01*
X15937Y36243D01*
X15865Y36273D01*
X15787Y36283D01*
D02*
G37*
G36*
X18528Y36354D02*
X18435Y36342D01*
X18348Y36306D01*
X18274Y36249D01*
X18217Y36175D01*
X18181Y36089D01*
X18169Y35996D01*
X18181Y35903D01*
X18217Y35817D01*
X18274Y35743D01*
X18348Y35686D01*
X18435Y35650D01*
X18528Y35638D01*
X18620Y35650D01*
X18707Y35686D01*
X18781Y35743D01*
X18838Y35817D01*
X18874Y35903D01*
X18886Y35996D01*
X18874Y36089D01*
X18838Y36175D01*
X18781Y36249D01*
X18707Y36306D01*
X18620Y36342D01*
X18528Y36354D01*
D02*
G37*
G36*
X17528D02*
X17435Y36342D01*
X17348Y36306D01*
X17274Y36249D01*
X17217Y36175D01*
X17181Y36089D01*
X17169Y35996D01*
X17181Y35903D01*
X17217Y35817D01*
X17274Y35743D01*
X17348Y35686D01*
X17435Y35650D01*
X17528Y35638D01*
X17620Y35650D01*
X17707Y35686D01*
X17781Y35743D01*
X17838Y35817D01*
X17874Y35903D01*
X17886Y35996D01*
X17874Y36089D01*
X17838Y36175D01*
X17781Y36249D01*
X17707Y36306D01*
X17620Y36342D01*
X17528Y36354D01*
D02*
G37*
G36*
X20528Y36374D02*
X20430Y36361D01*
X20338Y36324D01*
X20260Y36263D01*
X20200Y36185D01*
X20162Y36094D01*
X20149Y35996D01*
X20162Y35898D01*
X20200Y35807D01*
X20260Y35729D01*
X20338Y35669D01*
X20430Y35631D01*
X20528Y35618D01*
X20625Y35631D01*
X20717Y35669D01*
X20795Y35729D01*
X20855Y35807D01*
X20893Y35898D01*
X20906Y35996D01*
X20893Y36094D01*
X20855Y36185D01*
X20795Y36263D01*
X20717Y36324D01*
X20625Y36361D01*
X20528Y36374D01*
D02*
G37*
G36*
X12992Y36042D02*
X12907Y36025D01*
X12835Y35977D01*
X12787Y35905D01*
X12770Y35820D01*
X12787Y35736D01*
X12835Y35664D01*
X12907Y35616D01*
X12992Y35599D01*
X13077Y35616D01*
X13149Y35664D01*
X13197Y35736D01*
X13214Y35820D01*
X13197Y35905D01*
X13149Y35977D01*
X13077Y36025D01*
X12992Y36042D01*
D02*
G37*
G36*
X31496Y35178D02*
X31427Y35164D01*
X31368Y35124D01*
X31328Y35066D01*
X31314Y34996D01*
X31328Y34927D01*
X31368Y34868D01*
X31427Y34828D01*
X31496Y34814D01*
X31566Y34828D01*
X31624Y34868D01*
X31664Y34927D01*
X31678Y34996D01*
X31664Y35066D01*
X31624Y35124D01*
X31566Y35164D01*
X31496Y35178D01*
D02*
G37*
G36*
X18528Y35354D02*
X18435Y35342D01*
X18348Y35306D01*
X18274Y35249D01*
X18217Y35175D01*
X18181Y35089D01*
X18169Y34996D01*
X18181Y34903D01*
X18217Y34817D01*
X18274Y34743D01*
X18348Y34686D01*
X18435Y34650D01*
X18528Y34638D01*
X18620Y34650D01*
X18707Y34686D01*
X18781Y34743D01*
X18838Y34817D01*
X18874Y34903D01*
X18886Y34996D01*
X18874Y35089D01*
X18838Y35175D01*
X18781Y35249D01*
X18707Y35306D01*
X18620Y35342D01*
X18528Y35354D01*
D02*
G37*
G36*
X17528D02*
X17435Y35342D01*
X17348Y35306D01*
X17274Y35249D01*
X17217Y35175D01*
X17181Y35089D01*
X17169Y34996D01*
X17181Y34903D01*
X17217Y34817D01*
X17274Y34743D01*
X17348Y34686D01*
X17435Y34650D01*
X17528Y34638D01*
X17620Y34650D01*
X17707Y34686D01*
X17781Y34743D01*
X17838Y34817D01*
X17874Y34903D01*
X17886Y34996D01*
X17874Y35089D01*
X17838Y35175D01*
X17781Y35249D01*
X17707Y35306D01*
X17620Y35342D01*
X17528Y35354D01*
D02*
G37*
G36*
X20528Y35374D02*
X20430Y35361D01*
X20338Y35324D01*
X20260Y35263D01*
X20200Y35185D01*
X20162Y35094D01*
X20149Y34996D01*
X20162Y34898D01*
X20200Y34807D01*
X20260Y34729D01*
X20338Y34669D01*
X20430Y34631D01*
X20528Y34618D01*
X20625Y34631D01*
X20717Y34669D01*
X20795Y34729D01*
X20855Y34807D01*
X20893Y34898D01*
X20906Y34996D01*
X20893Y35094D01*
X20855Y35185D01*
X20795Y35263D01*
X20717Y35324D01*
X20625Y35361D01*
X20528Y35374D01*
D02*
G37*
G36*
X12087Y34639D02*
X12002Y34622D01*
X11930Y34574D01*
X11882Y34502D01*
X11865Y34417D01*
X11882Y34332D01*
X11930Y34261D01*
X12002Y34212D01*
X12087Y34196D01*
X12171Y34212D01*
X12243Y34261D01*
X12291Y34332D01*
X12308Y34417D01*
X12291Y34502D01*
X12243Y34574D01*
X12171Y34622D01*
X12087Y34639D01*
D02*
G37*
G36*
X11436D02*
X11351Y34622D01*
X11279Y34574D01*
X11231Y34502D01*
X11214Y34417D01*
X11231Y34332D01*
X11279Y34261D01*
X11351Y34212D01*
X11436Y34196D01*
X11521Y34212D01*
X11593Y34261D01*
X11641Y34332D01*
X11658Y34417D01*
X11641Y34502D01*
X11593Y34574D01*
X11521Y34622D01*
X11436Y34639D01*
D02*
G37*
G36*
X26130Y34374D02*
X26060Y34360D01*
X26002Y34321D01*
X25962Y34262D01*
X25948Y34192D01*
X25962Y34123D01*
X26002Y34064D01*
X26060Y34024D01*
X26130Y34011D01*
X26199Y34024D01*
X26258Y34064D01*
X26298Y34123D01*
X26312Y34192D01*
X26298Y34262D01*
X26258Y34321D01*
X26199Y34360D01*
X26130Y34374D01*
D02*
G37*
G36*
X18528Y34354D02*
X18435Y34342D01*
X18348Y34306D01*
X18274Y34249D01*
X18217Y34175D01*
X18181Y34089D01*
X18169Y33996D01*
X18181Y33903D01*
X18217Y33817D01*
X18274Y33743D01*
X18348Y33686D01*
X18435Y33650D01*
X18528Y33638D01*
X18620Y33650D01*
X18707Y33686D01*
X18781Y33743D01*
X18838Y33817D01*
X18874Y33903D01*
X18886Y33996D01*
X18874Y34089D01*
X18838Y34175D01*
X18781Y34249D01*
X18707Y34306D01*
X18620Y34342D01*
X18528Y34354D01*
D02*
G37*
G36*
X17528D02*
X17435Y34342D01*
X17348Y34306D01*
X17274Y34249D01*
X17217Y34175D01*
X17181Y34089D01*
X17169Y33996D01*
X17181Y33903D01*
X17217Y33817D01*
X17274Y33743D01*
X17348Y33686D01*
X17435Y33650D01*
X17528Y33638D01*
X17620Y33650D01*
X17707Y33686D01*
X17781Y33743D01*
X17838Y33817D01*
X17874Y33903D01*
X17886Y33996D01*
X17874Y34089D01*
X17838Y34175D01*
X17781Y34249D01*
X17707Y34306D01*
X17620Y34342D01*
X17528Y34354D01*
D02*
G37*
G36*
X20528Y34374D02*
X20430Y34361D01*
X20338Y34324D01*
X20260Y34263D01*
X20200Y34185D01*
X20162Y34094D01*
X20149Y33996D01*
X20162Y33898D01*
X20200Y33807D01*
X20260Y33729D01*
X20338Y33669D01*
X20430Y33631D01*
X20528Y33618D01*
X20625Y33631D01*
X20717Y33669D01*
X20795Y33729D01*
X20855Y33807D01*
X20893Y33898D01*
X20906Y33996D01*
X20893Y34094D01*
X20855Y34185D01*
X20795Y34263D01*
X20717Y34324D01*
X20625Y34361D01*
X20528Y34374D01*
D02*
G37*
G36*
X12202Y33653D02*
X12133Y33639D01*
X12074Y33600D01*
X12064Y33586D01*
X11949Y33585D01*
X11939Y33599D01*
X11881Y33639D01*
X11811Y33652D01*
X11742Y33639D01*
X11683Y33599D01*
X11670Y33581D01*
X11556Y33578D01*
X11546Y33594D01*
X11487Y33633D01*
X11417Y33647D01*
X11348Y33633D01*
X11289Y33594D01*
X11250Y33535D01*
X11236Y33465D01*
X11250Y33396D01*
X11289Y33337D01*
X11307Y33325D01*
Y33211D01*
X11289Y33199D01*
X11250Y33140D01*
X11236Y33071D01*
X11250Y33001D01*
X11289Y32942D01*
X11306Y32931D01*
Y32817D01*
X11289Y32806D01*
X11250Y32747D01*
X11236Y32677D01*
X11250Y32608D01*
X11289Y32549D01*
X11306Y32537D01*
Y32423D01*
X11289Y32412D01*
X11250Y32353D01*
X11236Y32283D01*
X11250Y32214D01*
X11289Y32155D01*
X11306Y32143D01*
Y32030D01*
X11289Y32018D01*
X11277Y32001D01*
X11164D01*
X11152Y32018D01*
X11093Y32058D01*
X11024Y32071D01*
X10954Y32058D01*
X10895Y32018D01*
X10882Y31998D01*
X10769Y31998D01*
X10756Y32019D01*
X10697Y32058D01*
X10627Y32072D01*
X10558Y32058D01*
X10499Y32019D01*
X10489Y32004D01*
X10374Y32004D01*
X10365Y32018D01*
X10306Y32058D01*
X10236Y32071D01*
X10167Y32058D01*
X10108Y32018D01*
X10009Y32034D01*
X9987Y32056D01*
X9971Y32155D01*
X10010Y32214D01*
X10024Y32283D01*
X10010Y32353D01*
X9971Y32412D01*
X9954Y32423D01*
Y32537D01*
X9971Y32549D01*
X10010Y32608D01*
X10024Y32677D01*
X10010Y32747D01*
X9971Y32806D01*
X9912Y32845D01*
X9843Y32859D01*
X9773Y32845D01*
X9714Y32806D01*
X9703Y32788D01*
X9589D01*
X9577Y32806D01*
X9518Y32845D01*
X9449Y32859D01*
X9379Y32845D01*
X9320Y32806D01*
X9307Y32785D01*
X9195Y32786D01*
X9181Y32806D01*
X9122Y32846D01*
X9052Y32859D01*
X8983Y32846D01*
X8924Y32806D01*
X8885Y32747D01*
X8871Y32678D01*
X8885Y32608D01*
X8924Y32549D01*
X8941Y32538D01*
Y32424D01*
X8924Y32412D01*
X8885Y32354D01*
X8871Y32284D01*
X8885Y32215D01*
X8924Y32156D01*
X8983Y32116D01*
X9052Y32102D01*
X9122Y32116D01*
X9181Y32156D01*
X9194Y32176D01*
X9307Y32176D01*
X9320Y32155D01*
X9338Y32143D01*
Y32030D01*
X9320Y32018D01*
X9281Y31959D01*
X9267Y31890D01*
X9281Y31820D01*
X9320Y31761D01*
X9379Y31722D01*
X9449Y31708D01*
X9518Y31722D01*
X9577Y31761D01*
X9589Y31779D01*
X9703D01*
X9714Y31761D01*
X9773Y31722D01*
X9843Y31708D01*
X9912Y31722D01*
X9971Y31761D01*
X9983Y31779D01*
X10096D01*
X10108Y31761D01*
X10167Y31722D01*
X10236Y31708D01*
X10306Y31722D01*
X10365Y31761D01*
X10374Y31776D01*
X10489Y31776D01*
X10499Y31762D01*
X10558Y31723D01*
X10627Y31709D01*
X10697Y31723D01*
X10756Y31762D01*
X10769Y31782D01*
X10881Y31782D01*
X10895Y31761D01*
X10954Y31722D01*
X11024Y31708D01*
X11093Y31722D01*
X11152Y31761D01*
X11164Y31779D01*
X11277D01*
X11289Y31761D01*
X11348Y31722D01*
X11417Y31708D01*
X11487Y31722D01*
X11546Y31761D01*
X11557Y31779D01*
X11671D01*
X11683Y31761D01*
X11742Y31722D01*
X11811Y31708D01*
X11881Y31722D01*
X11939Y31761D01*
X11979Y31820D01*
X11993Y31890D01*
X11979Y31959D01*
X11939Y32018D01*
X11915Y32034D01*
X11914Y32037D01*
Y32143D01*
X11915Y32146D01*
X11939Y32162D01*
X11979Y32221D01*
X11993Y32290D01*
X11979Y32360D01*
X11939Y32419D01*
X11939Y32419D01*
Y32540D01*
X11939Y32540D01*
X11949Y32554D01*
X12064Y32555D01*
X12074Y32541D01*
X12133Y32501D01*
X12202Y32488D01*
X12271Y32501D01*
X12330Y32541D01*
X12344Y32561D01*
X12456Y32561D01*
X12470Y32540D01*
X12471Y32540D01*
Y32419D01*
X12470Y32419D01*
X12431Y32360D01*
X12417Y32290D01*
X12431Y32221D01*
X12470Y32162D01*
X12494Y32146D01*
X12495Y32143D01*
Y32037D01*
X12494Y32034D01*
X12470Y32018D01*
X12431Y31959D01*
X12417Y31890D01*
X12431Y31820D01*
X12470Y31761D01*
X12529Y31722D01*
X12598Y31708D01*
X12668Y31722D01*
X12727Y31761D01*
X12738Y31779D01*
X12852D01*
X12864Y31761D01*
X12923Y31722D01*
X12992Y31708D01*
X13062Y31722D01*
X13121Y31761D01*
X13132Y31779D01*
X13246D01*
X13257Y31761D01*
X13316Y31722D01*
X13386Y31708D01*
X13455Y31722D01*
X13514Y31761D01*
X13554Y31820D01*
X13567Y31890D01*
X13554Y31959D01*
X13514Y32018D01*
X13497Y32030D01*
Y32143D01*
X13514Y32155D01*
X13554Y32214D01*
X13567Y32283D01*
X13554Y32353D01*
X13514Y32412D01*
X13506Y32417D01*
Y32535D01*
X13514Y32541D01*
X13554Y32600D01*
X13567Y32669D01*
X13554Y32739D01*
X13514Y32798D01*
X13499Y32808D01*
Y32922D01*
X13514Y32933D01*
X13554Y32992D01*
X13567Y33061D01*
X13554Y33131D01*
X13514Y33189D01*
X13455Y33229D01*
X13386Y33243D01*
X13316Y33229D01*
X13257Y33189D01*
X13246Y33172D01*
X13132D01*
X13121Y33189D01*
X13089Y33210D01*
X13085Y33226D01*
Y33306D01*
X13089Y33322D01*
X13121Y33342D01*
X13160Y33401D01*
X13174Y33471D01*
X13160Y33540D01*
X13121Y33599D01*
X13062Y33639D01*
X12992Y33652D01*
X12923Y33639D01*
X12864Y33599D01*
X12852Y33582D01*
X12738D01*
X12727Y33599D01*
X12668Y33639D01*
X12598Y33652D01*
X12529Y33639D01*
X12470Y33599D01*
X12456Y33579D01*
X12344Y33579D01*
X12330Y33600D01*
X12271Y33639D01*
X12202Y33653D01*
D02*
G37*
G36*
X25520Y33743D02*
X25435Y33726D01*
X25363Y33678D01*
X25315Y33606D01*
X25298Y33521D01*
X25315Y33436D01*
X25363Y33364D01*
X25435Y33316D01*
X25520Y33299D01*
X25605Y33316D01*
X25677Y33364D01*
X25725Y33436D01*
X25741Y33521D01*
X25725Y33606D01*
X25677Y33678D01*
X25605Y33726D01*
X25520Y33743D01*
D02*
G37*
G36*
X15748Y33218D02*
X15663Y33201D01*
X15591Y33153D01*
X15543Y33081D01*
X15526Y32996D01*
X15543Y32911D01*
X15591Y32839D01*
X15663Y32791D01*
X15748Y32774D01*
X15833Y32791D01*
X15905Y32839D01*
X15953Y32911D01*
X15970Y32996D01*
X15953Y33081D01*
X15905Y33153D01*
X15833Y33201D01*
X15748Y33218D01*
D02*
G37*
G36*
X18528Y33354D02*
X18435Y33342D01*
X18348Y33306D01*
X18274Y33249D01*
X18217Y33175D01*
X18181Y33089D01*
X18169Y32996D01*
X18181Y32903D01*
X18217Y32817D01*
X18274Y32743D01*
X18348Y32686D01*
X18435Y32650D01*
X18528Y32638D01*
X18620Y32650D01*
X18707Y32686D01*
X18781Y32743D01*
X18838Y32817D01*
X18874Y32903D01*
X18886Y32996D01*
X18874Y33089D01*
X18838Y33175D01*
X18781Y33249D01*
X18707Y33306D01*
X18620Y33342D01*
X18528Y33354D01*
D02*
G37*
G36*
X17528D02*
X17435Y33342D01*
X17348Y33306D01*
X17274Y33249D01*
X17217Y33175D01*
X17181Y33089D01*
X17169Y32996D01*
X17181Y32903D01*
X17217Y32817D01*
X17274Y32743D01*
X17348Y32686D01*
X17435Y32650D01*
X17528Y32638D01*
X17620Y32650D01*
X17707Y32686D01*
X17781Y32743D01*
X17838Y32817D01*
X17874Y32903D01*
X17886Y32996D01*
X17874Y33089D01*
X17838Y33175D01*
X17781Y33249D01*
X17707Y33306D01*
X17620Y33342D01*
X17528Y33354D01*
D02*
G37*
G36*
X20528Y33374D02*
X20430Y33361D01*
X20338Y33324D01*
X20260Y33263D01*
X20200Y33185D01*
X20162Y33094D01*
X20149Y32996D01*
X20162Y32898D01*
X20200Y32807D01*
X20260Y32729D01*
X20338Y32669D01*
X20430Y32631D01*
X20528Y32618D01*
X20625Y32631D01*
X20717Y32669D01*
X20795Y32729D01*
X20855Y32807D01*
X20893Y32898D01*
X20906Y32996D01*
X20893Y33094D01*
X20855Y33185D01*
X20795Y33263D01*
X20717Y33324D01*
X20625Y33361D01*
X20528Y33374D01*
D02*
G37*
G36*
X15354Y32733D02*
X15269Y32717D01*
X15198Y32668D01*
X15149Y32596D01*
X15133Y32512D01*
X15149Y32427D01*
X15198Y32355D01*
X15269Y32307D01*
X15354Y32290D01*
X15439Y32307D01*
X15511Y32355D01*
X15559Y32427D01*
X15576Y32512D01*
X15559Y32596D01*
X15511Y32668D01*
X15439Y32717D01*
X15354Y32733D01*
D02*
G37*
G36*
X5828Y32537D02*
X5761Y32529D01*
X5698Y32503D01*
X5645Y32461D01*
X5604Y32408D01*
X5578Y32345D01*
X5569Y32278D01*
X5578Y32211D01*
X5604Y32149D01*
X5645Y32095D01*
X5698Y32054D01*
X5761Y32028D01*
X5828Y32019D01*
X5895Y32028D01*
X5957Y32054D01*
X6011Y32095D01*
X6052Y32149D01*
X6078Y32211D01*
X6087Y32278D01*
X6078Y32345D01*
X6052Y32408D01*
X6011Y32461D01*
X5957Y32503D01*
X5895Y32529D01*
X5828Y32537D01*
D02*
G37*
G36*
X15748Y32309D02*
X15663Y32292D01*
X15591Y32244D01*
X15543Y32172D01*
X15526Y32087D01*
X15543Y32002D01*
X15591Y31930D01*
X15663Y31882D01*
X15748Y31865D01*
X15833Y31882D01*
X15905Y31930D01*
X15953Y32002D01*
X15970Y32087D01*
X15953Y32172D01*
X15905Y32244D01*
X15833Y32292D01*
X15748Y32309D01*
D02*
G37*
G36*
X29756Y32224D02*
X29686Y32210D01*
X29628Y32171D01*
X29588Y32112D01*
X29574Y32043D01*
X29588Y31973D01*
X29628Y31914D01*
X29686Y31875D01*
X29756Y31861D01*
X29825Y31875D01*
X29884Y31914D01*
X29924Y31973D01*
X29938Y32043D01*
X29924Y32112D01*
X29884Y32171D01*
X29825Y32210D01*
X29756Y32224D01*
D02*
G37*
G36*
X17528Y32354D02*
X17435Y32342D01*
X17348Y32306D01*
X17274Y32249D01*
X17217Y32175D01*
X17181Y32089D01*
X17169Y31996D01*
X17181Y31903D01*
X17217Y31817D01*
X17274Y31743D01*
X17348Y31686D01*
X17435Y31650D01*
X17528Y31638D01*
X17620Y31650D01*
X17707Y31686D01*
X17781Y31743D01*
X17838Y31817D01*
X17874Y31903D01*
X17886Y31996D01*
X17874Y32089D01*
X17838Y32175D01*
X17781Y32249D01*
X17707Y32306D01*
X17620Y32342D01*
X17528Y32354D01*
D02*
G37*
G36*
X15030Y31452D02*
X14961Y31438D01*
X14902Y31399D01*
X14862Y31340D01*
X14849Y31270D01*
X14862Y31201D01*
X14902Y31142D01*
X14961Y31102D01*
X15030Y31089D01*
X15100Y31102D01*
X15159Y31142D01*
X15198Y31201D01*
X15212Y31270D01*
X15198Y31340D01*
X15159Y31399D01*
X15100Y31438D01*
X15030Y31452D01*
D02*
G37*
G36*
X27462Y31426D02*
X27393Y31412D01*
X27334Y31373D01*
X27295Y31314D01*
X27281Y31244D01*
X27295Y31175D01*
X27334Y31116D01*
X27393Y31077D01*
X27462Y31063D01*
X27532Y31077D01*
X27591Y31116D01*
X27630Y31175D01*
X27644Y31244D01*
X27630Y31314D01*
X27591Y31373D01*
X27532Y31412D01*
X27462Y31426D01*
D02*
G37*
G36*
X26852D02*
X26783Y31412D01*
X26724Y31373D01*
X26684Y31314D01*
X26671Y31244D01*
X26684Y31175D01*
X26724Y31116D01*
X26783Y31077D01*
X26852Y31063D01*
X26922Y31077D01*
X26981Y31116D01*
X27020Y31175D01*
X27034Y31244D01*
X27020Y31314D01*
X26981Y31373D01*
X26922Y31412D01*
X26852Y31426D01*
D02*
G37*
G36*
X17528Y31354D02*
X17435Y31342D01*
X17348Y31306D01*
X17274Y31249D01*
X17217Y31175D01*
X17181Y31089D01*
X17169Y30996D01*
X17181Y30903D01*
X17217Y30817D01*
X17274Y30743D01*
X17348Y30686D01*
X17435Y30650D01*
X17528Y30638D01*
X17620Y30650D01*
X17707Y30686D01*
X17781Y30743D01*
X17838Y30817D01*
X17874Y30903D01*
X17886Y30996D01*
X17874Y31089D01*
X17838Y31175D01*
X17781Y31249D01*
X17707Y31306D01*
X17620Y31342D01*
X17528Y31354D01*
D02*
G37*
G36*
X15030Y30731D02*
X14945Y30715D01*
X14873Y30666D01*
X14825Y30595D01*
X14808Y30510D01*
X14825Y30425D01*
X14873Y30353D01*
X14945Y30305D01*
X15030Y30288D01*
X15115Y30305D01*
X15187Y30353D01*
X15235Y30425D01*
X15252Y30510D01*
X15235Y30595D01*
X15187Y30666D01*
X15115Y30715D01*
X15030Y30731D01*
D02*
G37*
G36*
X1826Y30493D02*
X1733Y30481D01*
X1647Y30445D01*
X1573Y30389D01*
X1516Y30314D01*
X1480Y30228D01*
X1468Y30135D01*
X1480Y30042D01*
X1516Y29956D01*
X1573Y29882D01*
X1647Y29825D01*
X1733Y29789D01*
X1826Y29777D01*
X1919Y29789D01*
X2005Y29825D01*
X2079Y29882D01*
X2136Y29956D01*
X2172Y30042D01*
X2184Y30135D01*
X2172Y30228D01*
X2136Y30314D01*
X2079Y30389D01*
X2005Y30445D01*
X1919Y30481D01*
X1826Y30493D01*
D02*
G37*
G36*
X18528Y30354D02*
X18435Y30342D01*
X18348Y30306D01*
X18274Y30249D01*
X18217Y30175D01*
X18181Y30089D01*
X18169Y29996D01*
X18181Y29903D01*
X18217Y29817D01*
X18274Y29743D01*
X18348Y29686D01*
X18435Y29650D01*
X18528Y29638D01*
X18620Y29650D01*
X18707Y29686D01*
X18781Y29743D01*
X18838Y29817D01*
X18874Y29903D01*
X18886Y29996D01*
X18874Y30089D01*
X18838Y30175D01*
X18781Y30249D01*
X18707Y30306D01*
X18620Y30342D01*
X18528Y30354D01*
D02*
G37*
G36*
X17528D02*
X17435Y30342D01*
X17348Y30306D01*
X17274Y30249D01*
X17217Y30175D01*
X17181Y30089D01*
X17169Y29996D01*
X17181Y29903D01*
X17217Y29817D01*
X17274Y29743D01*
X17348Y29686D01*
X17435Y29650D01*
X17528Y29638D01*
X17620Y29650D01*
X17707Y29686D01*
X17781Y29743D01*
X17838Y29817D01*
X17874Y29903D01*
X17886Y29996D01*
X17874Y30089D01*
X17838Y30175D01*
X17781Y30249D01*
X17707Y30306D01*
X17620Y30342D01*
X17528Y30354D01*
D02*
G37*
G36*
X20528Y30374D02*
X20430Y30361D01*
X20338Y30324D01*
X20260Y30263D01*
X20200Y30185D01*
X20162Y30094D01*
X20149Y29996D01*
X20162Y29898D01*
X20200Y29807D01*
X20260Y29729D01*
X20338Y29669D01*
X20430Y29631D01*
X20528Y29618D01*
X20625Y29631D01*
X20717Y29669D01*
X20795Y29729D01*
X20855Y29807D01*
X20893Y29898D01*
X20906Y29996D01*
X20893Y30094D01*
X20855Y30185D01*
X20795Y30263D01*
X20717Y30324D01*
X20625Y30361D01*
X20528Y30374D01*
D02*
G37*
G36*
X26064Y29874D02*
X25995Y29860D01*
X25936Y29821D01*
X25896Y29762D01*
X25882Y29693D01*
X25896Y29623D01*
X25936Y29564D01*
X25952Y29553D01*
Y29528D01*
X25960Y29485D01*
X25985Y29448D01*
X26021Y29424D01*
X26064Y29415D01*
X26107Y29424D01*
X26143Y29448D01*
X26168Y29485D01*
X26176Y29528D01*
Y29553D01*
X26192Y29564D01*
X26232Y29623D01*
X26246Y29693D01*
X26232Y29762D01*
X26192Y29821D01*
X26134Y29860D01*
X26064Y29874D01*
D02*
G37*
G36*
X2181Y29490D02*
X1471D01*
Y28780D01*
X2181D01*
Y29490D01*
D02*
G37*
G36*
X18528Y29354D02*
X18435Y29342D01*
X18348Y29306D01*
X18274Y29249D01*
X18217Y29175D01*
X18181Y29089D01*
X18169Y28996D01*
X18181Y28903D01*
X18217Y28817D01*
X18274Y28743D01*
X18348Y28686D01*
X18435Y28650D01*
X18528Y28638D01*
X18620Y28650D01*
X18707Y28686D01*
X18781Y28743D01*
X18838Y28817D01*
X18874Y28903D01*
X18886Y28996D01*
X18874Y29089D01*
X18838Y29175D01*
X18781Y29249D01*
X18707Y29306D01*
X18620Y29342D01*
X18528Y29354D01*
D02*
G37*
G36*
X17528D02*
X17435Y29342D01*
X17348Y29306D01*
X17274Y29249D01*
X17217Y29175D01*
X17181Y29089D01*
X17169Y28996D01*
X17181Y28903D01*
X17217Y28817D01*
X17274Y28743D01*
X17348Y28686D01*
X17435Y28650D01*
X17528Y28638D01*
X17620Y28650D01*
X17707Y28686D01*
X17781Y28743D01*
X17838Y28817D01*
X17874Y28903D01*
X17886Y28996D01*
X17874Y29089D01*
X17838Y29175D01*
X17781Y29249D01*
X17707Y29306D01*
X17620Y29342D01*
X17528Y29354D01*
D02*
G37*
G36*
X22356Y28161D02*
X22287Y28147D01*
X22228Y28108D01*
X22189Y28049D01*
X22175Y27979D01*
X22189Y27910D01*
X22228Y27851D01*
X22287Y27812D01*
X22356Y27798D01*
X22426Y27812D01*
X22485Y27851D01*
X22524Y27910D01*
X22538Y27979D01*
X22524Y28049D01*
X22485Y28108D01*
X22426Y28147D01*
X22356Y28161D01*
D02*
G37*
G36*
X18528Y28354D02*
X18435Y28342D01*
X18348Y28306D01*
X18274Y28249D01*
X18217Y28175D01*
X18181Y28089D01*
X18169Y27996D01*
X18181Y27903D01*
X18217Y27817D01*
X18274Y27743D01*
X18348Y27686D01*
X18435Y27650D01*
X18528Y27638D01*
X18620Y27650D01*
X18707Y27686D01*
X18781Y27743D01*
X18838Y27817D01*
X18874Y27903D01*
X18886Y27996D01*
X18874Y28089D01*
X18838Y28175D01*
X18781Y28249D01*
X18707Y28306D01*
X18620Y28342D01*
X18528Y28354D01*
D02*
G37*
G36*
X17528D02*
X17435Y28342D01*
X17348Y28306D01*
X17274Y28249D01*
X17217Y28175D01*
X17181Y28089D01*
X17169Y27996D01*
X17181Y27903D01*
X17217Y27817D01*
X17274Y27743D01*
X17348Y27686D01*
X17435Y27650D01*
X17528Y27638D01*
X17620Y27650D01*
X17707Y27686D01*
X17781Y27743D01*
X17838Y27817D01*
X17874Y27903D01*
X17886Y27996D01*
X17874Y28089D01*
X17838Y28175D01*
X17781Y28249D01*
X17707Y28306D01*
X17620Y28342D01*
X17528Y28354D01*
D02*
G37*
G36*
X20903Y28371D02*
X20153D01*
Y27621D01*
X20903D01*
Y28371D01*
D02*
G37*
G36*
X14567Y27778D02*
X14482Y27761D01*
X14410Y27713D01*
X14362Y27641D01*
X14345Y27556D01*
X14362Y27471D01*
X14410Y27399D01*
X14482Y27351D01*
X14567Y27334D01*
X14652Y27351D01*
X14724Y27399D01*
X14772Y27471D01*
X14789Y27556D01*
X14772Y27641D01*
X14724Y27713D01*
X14652Y27761D01*
X14567Y27778D01*
D02*
G37*
G36*
X1826Y27946D02*
X1733Y27933D01*
X1647Y27898D01*
X1573Y27841D01*
X1516Y27766D01*
X1480Y27680D01*
X1468Y27587D01*
X1480Y27495D01*
X1516Y27408D01*
X1573Y27334D01*
X1647Y27277D01*
X1733Y27241D01*
X1826Y27229D01*
X1919Y27241D01*
X2005Y27277D01*
X2079Y27334D01*
X2136Y27408D01*
X2172Y27495D01*
X2184Y27587D01*
X2172Y27680D01*
X2136Y27766D01*
X2079Y27841D01*
X2005Y27898D01*
X1919Y27933D01*
X1826Y27946D01*
D02*
G37*
G36*
X22353Y27146D02*
X22283Y27132D01*
X22224Y27092D01*
X22185Y27034D01*
X22171Y26964D01*
X22185Y26895D01*
X22224Y26836D01*
X22283Y26796D01*
X22353Y26782D01*
X22422Y26796D01*
X22481Y26836D01*
X22521Y26895D01*
X22534Y26964D01*
X22521Y27034D01*
X22481Y27092D01*
X22422Y27132D01*
X22353Y27146D01*
D02*
G37*
G36*
X18528Y27354D02*
X18435Y27342D01*
X18348Y27306D01*
X18274Y27249D01*
X18217Y27175D01*
X18181Y27089D01*
X18169Y26996D01*
X18181Y26903D01*
X18217Y26817D01*
X18274Y26743D01*
X18348Y26686D01*
X18435Y26650D01*
X18528Y26638D01*
X18620Y26650D01*
X18707Y26686D01*
X18781Y26743D01*
X18838Y26817D01*
X18874Y26903D01*
X18886Y26996D01*
X18874Y27089D01*
X18838Y27175D01*
X18781Y27249D01*
X18707Y27306D01*
X18620Y27342D01*
X18528Y27354D01*
D02*
G37*
G36*
X17528D02*
X17435Y27342D01*
X17348Y27306D01*
X17274Y27249D01*
X17217Y27175D01*
X17181Y27089D01*
X17169Y26996D01*
X17181Y26903D01*
X17217Y26817D01*
X17274Y26743D01*
X17348Y26686D01*
X17435Y26650D01*
X17528Y26638D01*
X17620Y26650D01*
X17707Y26686D01*
X17781Y26743D01*
X17838Y26817D01*
X17874Y26903D01*
X17886Y26996D01*
X17874Y27089D01*
X17838Y27175D01*
X17781Y27249D01*
X17707Y27306D01*
X17620Y27342D01*
X17528Y27354D01*
D02*
G37*
G36*
X24799Y26989D02*
X24729Y26975D01*
X24670Y26935D01*
X24631Y26876D01*
X24617Y26807D01*
X24631Y26737D01*
X24670Y26679D01*
X24729Y26639D01*
X24799Y26625D01*
X24868Y26639D01*
X24927Y26679D01*
X24967Y26737D01*
X24980Y26807D01*
X24967Y26876D01*
X24927Y26935D01*
X24868Y26975D01*
X24799Y26989D01*
D02*
G37*
G36*
X20528Y27374D02*
X20430Y27361D01*
X20338Y27324D01*
X20260Y27263D01*
X20200Y27185D01*
X20162Y27094D01*
X20149Y26996D01*
X20162Y26898D01*
X20200Y26807D01*
X20260Y26729D01*
X20338Y26669D01*
X20430Y26631D01*
X20528Y26618D01*
X20625Y26631D01*
X20717Y26669D01*
X20795Y26729D01*
X20855Y26807D01*
X20893Y26898D01*
X20906Y26996D01*
X20893Y27094D01*
X20855Y27185D01*
X20795Y27263D01*
X20717Y27324D01*
X20625Y27361D01*
X20528Y27374D01*
D02*
G37*
G36*
X3012Y26959D02*
X2942Y26946D01*
X2883Y26906D01*
X2844Y26847D01*
X2830Y26778D01*
X2844Y26708D01*
X2883Y26649D01*
X2942Y26610D01*
X3012Y26596D01*
X3081Y26610D01*
X3140Y26649D01*
X3180Y26708D01*
X3194Y26778D01*
X3180Y26847D01*
X3140Y26906D01*
X3081Y26946D01*
X3012Y26959D01*
D02*
G37*
G36*
X14961Y26607D02*
X14891Y26593D01*
X14832Y26554D01*
X14793Y26495D01*
X14779Y26426D01*
X14793Y26356D01*
X14832Y26297D01*
X14891Y26258D01*
X14961Y26244D01*
X15030Y26258D01*
X15089Y26297D01*
X15128Y26356D01*
X15142Y26426D01*
X15128Y26495D01*
X15089Y26554D01*
X15030Y26593D01*
X14961Y26607D01*
D02*
G37*
G36*
X22356Y26183D02*
X22287Y26169D01*
X22228Y26129D01*
X22189Y26070D01*
X22175Y26001D01*
X22189Y25931D01*
X22228Y25873D01*
X22287Y25833D01*
X22356Y25819D01*
X22426Y25833D01*
X22485Y25873D01*
X22524Y25931D01*
X22538Y26001D01*
X22524Y26070D01*
X22485Y26129D01*
X22426Y26169D01*
X22356Y26183D01*
D02*
G37*
G36*
X18528Y26354D02*
X18435Y26342D01*
X18348Y26306D01*
X18274Y26249D01*
X18217Y26175D01*
X18181Y26089D01*
X18169Y25996D01*
X18181Y25903D01*
X18217Y25817D01*
X18274Y25743D01*
X18348Y25686D01*
X18435Y25650D01*
X18528Y25638D01*
X18620Y25650D01*
X18707Y25686D01*
X18781Y25743D01*
X18838Y25817D01*
X18874Y25903D01*
X18886Y25996D01*
X18874Y26089D01*
X18838Y26175D01*
X18781Y26249D01*
X18707Y26306D01*
X18620Y26342D01*
X18528Y26354D01*
D02*
G37*
G36*
X17528D02*
X17435Y26342D01*
X17348Y26306D01*
X17274Y26249D01*
X17217Y26175D01*
X17181Y26089D01*
X17169Y25996D01*
X17181Y25903D01*
X17217Y25817D01*
X17274Y25743D01*
X17348Y25686D01*
X17435Y25650D01*
X17528Y25638D01*
X17620Y25650D01*
X17707Y25686D01*
X17781Y25743D01*
X17838Y25817D01*
X17874Y25903D01*
X17886Y25996D01*
X17874Y26089D01*
X17838Y26175D01*
X17781Y26249D01*
X17707Y26306D01*
X17620Y26342D01*
X17528Y26354D01*
D02*
G37*
G36*
X20528Y26374D02*
X20430Y26361D01*
X20338Y26324D01*
X20260Y26263D01*
X20200Y26185D01*
X20162Y26094D01*
X20149Y25996D01*
X20162Y25898D01*
X20200Y25807D01*
X20260Y25729D01*
X20338Y25669D01*
X20430Y25631D01*
X20528Y25618D01*
X20625Y25631D01*
X20717Y25669D01*
X20795Y25729D01*
X20855Y25807D01*
X20893Y25898D01*
X20906Y25996D01*
X20893Y26094D01*
X20855Y26185D01*
X20795Y26263D01*
X20717Y26324D01*
X20625Y26361D01*
X20528Y26374D01*
D02*
G37*
G36*
X13583Y25828D02*
X13498Y25811D01*
X13426Y25763D01*
X13378Y25691D01*
X13361Y25606D01*
X13378Y25521D01*
X13426Y25449D01*
X13498Y25401D01*
X13583Y25384D01*
X13668Y25401D01*
X13739Y25449D01*
X13788Y25521D01*
X13804Y25606D01*
X13788Y25691D01*
X13739Y25763D01*
X13668Y25811D01*
X13583Y25828D01*
D02*
G37*
G36*
X2181Y25943D02*
X1471D01*
Y25232D01*
X2181D01*
Y25943D01*
D02*
G37*
G36*
X14410Y25107D02*
X14341Y25093D01*
X14282Y25054D01*
X14242Y24995D01*
X14229Y24925D01*
X14242Y24856D01*
X14282Y24797D01*
X14341Y24757D01*
X14410Y24744D01*
X14480Y24757D01*
X14539Y24797D01*
X14578Y24856D01*
X14592Y24925D01*
X14578Y24995D01*
X14539Y25054D01*
X14480Y25093D01*
X14410Y25107D01*
D02*
G37*
G36*
X18528Y25354D02*
X18435Y25342D01*
X18348Y25306D01*
X18274Y25249D01*
X18217Y25175D01*
X18181Y25089D01*
X18169Y24996D01*
X18181Y24903D01*
X18217Y24817D01*
X18274Y24743D01*
X18348Y24686D01*
X18435Y24650D01*
X18528Y24638D01*
X18620Y24650D01*
X18707Y24686D01*
X18781Y24743D01*
X18838Y24817D01*
X18874Y24903D01*
X18886Y24996D01*
X18874Y25089D01*
X18838Y25175D01*
X18781Y25249D01*
X18707Y25306D01*
X18620Y25342D01*
X18528Y25354D01*
D02*
G37*
G36*
X17528D02*
X17435Y25342D01*
X17348Y25306D01*
X17274Y25249D01*
X17217Y25175D01*
X17181Y25089D01*
X17169Y24996D01*
X17181Y24903D01*
X17217Y24817D01*
X17274Y24743D01*
X17348Y24686D01*
X17435Y24650D01*
X17528Y24638D01*
X17620Y24650D01*
X17707Y24686D01*
X17781Y24743D01*
X17838Y24817D01*
X17874Y24903D01*
X17886Y24996D01*
X17874Y25089D01*
X17838Y25175D01*
X17781Y25249D01*
X17707Y25306D01*
X17620Y25342D01*
X17528Y25354D01*
D02*
G37*
G36*
X20528Y25374D02*
X20430Y25361D01*
X20338Y25324D01*
X20260Y25263D01*
X20200Y25185D01*
X20162Y25094D01*
X20149Y24996D01*
X20162Y24898D01*
X20200Y24807D01*
X20260Y24729D01*
X20338Y24669D01*
X20430Y24631D01*
X20528Y24618D01*
X20625Y24631D01*
X20717Y24669D01*
X20795Y24729D01*
X20855Y24807D01*
X20893Y24898D01*
X20906Y24996D01*
X20893Y25094D01*
X20855Y25185D01*
X20795Y25263D01*
X20717Y25324D01*
X20625Y25361D01*
X20528Y25374D01*
D02*
G37*
G36*
X13583Y25102D02*
X13505Y25092D01*
X13433Y25062D01*
X13371Y25014D01*
X13324Y24953D01*
X13294Y24880D01*
X13284Y24803D01*
X13294Y24726D01*
X13324Y24654D01*
X13371Y24592D01*
X13433Y24544D01*
X13505Y24515D01*
X13583Y24504D01*
X13660Y24515D01*
X13732Y24544D01*
X13794Y24592D01*
X13841Y24654D01*
X13871Y24726D01*
X13881Y24803D01*
X13871Y24880D01*
X13841Y24953D01*
X13794Y25014D01*
X13732Y25062D01*
X13660Y25092D01*
X13583Y25102D01*
D02*
G37*
G36*
X19685Y24845D02*
X19616Y24831D01*
X19557Y24791D01*
X19517Y24732D01*
X19503Y24663D01*
X19517Y24593D01*
X19557Y24535D01*
X19616Y24495D01*
X19685Y24481D01*
X19755Y24495D01*
X19813Y24535D01*
X19853Y24593D01*
X19867Y24663D01*
X19853Y24732D01*
X19813Y24791D01*
X19755Y24831D01*
X19685Y24845D01*
D02*
G37*
G36*
X22356Y24190D02*
X22287Y24177D01*
X22228Y24137D01*
X22189Y24078D01*
X22175Y24009D01*
X22189Y23939D01*
X22228Y23880D01*
X22287Y23841D01*
X22356Y23827D01*
X22426Y23841D01*
X22485Y23880D01*
X22524Y23939D01*
X22538Y24009D01*
X22524Y24078D01*
X22485Y24137D01*
X22426Y24177D01*
X22356Y24190D01*
D02*
G37*
G36*
X1826Y24442D02*
X1733Y24429D01*
X1647Y24394D01*
X1573Y24337D01*
X1516Y24262D01*
X1480Y24176D01*
X1468Y24083D01*
X1480Y23990D01*
X1516Y23904D01*
X1573Y23830D01*
X1647Y23773D01*
X1733Y23737D01*
X1826Y23725D01*
X1919Y23737D01*
X2005Y23773D01*
X2079Y23830D01*
X2136Y23904D01*
X2172Y23990D01*
X2184Y24083D01*
X2172Y24176D01*
X2136Y24262D01*
X2079Y24337D01*
X2005Y24394D01*
X1919Y24429D01*
X1826Y24442D01*
D02*
G37*
G36*
X18528Y24354D02*
X18435Y24342D01*
X18348Y24306D01*
X18274Y24249D01*
X18217Y24175D01*
X18181Y24089D01*
X18169Y23996D01*
X18181Y23903D01*
X18217Y23817D01*
X18274Y23743D01*
X18348Y23686D01*
X18435Y23650D01*
X18528Y23638D01*
X18620Y23650D01*
X18707Y23686D01*
X18781Y23743D01*
X18838Y23817D01*
X18874Y23903D01*
X18886Y23996D01*
X18874Y24089D01*
X18838Y24175D01*
X18781Y24249D01*
X18707Y24306D01*
X18620Y24342D01*
X18528Y24354D01*
D02*
G37*
G36*
X17528D02*
X17435Y24342D01*
X17348Y24306D01*
X17274Y24249D01*
X17217Y24175D01*
X17181Y24089D01*
X17169Y23996D01*
X17181Y23903D01*
X17217Y23817D01*
X17274Y23743D01*
X17348Y23686D01*
X17435Y23650D01*
X17528Y23638D01*
X17620Y23650D01*
X17707Y23686D01*
X17781Y23743D01*
X17838Y23817D01*
X17874Y23903D01*
X17886Y23996D01*
X17874Y24089D01*
X17838Y24175D01*
X17781Y24249D01*
X17707Y24306D01*
X17620Y24342D01*
X17528Y24354D01*
D02*
G37*
G36*
X20528Y24374D02*
X20430Y24361D01*
X20338Y24324D01*
X20260Y24263D01*
X20200Y24185D01*
X20162Y24094D01*
X20149Y23996D01*
X20162Y23898D01*
X20200Y23807D01*
X20260Y23729D01*
X20338Y23669D01*
X20430Y23631D01*
X20528Y23618D01*
X20625Y23631D01*
X20717Y23669D01*
X20795Y23729D01*
X20855Y23807D01*
X20893Y23898D01*
X20906Y23996D01*
X20893Y24094D01*
X20855Y24185D01*
X20795Y24263D01*
X20717Y24324D01*
X20625Y24361D01*
X20528Y24374D01*
D02*
G37*
G36*
X12598Y23579D02*
X12529Y23565D01*
X12470Y23526D01*
X12431Y23467D01*
X12417Y23397D01*
X12431Y23328D01*
X12470Y23269D01*
X12529Y23229D01*
X12598Y23216D01*
X12668Y23229D01*
X12727Y23269D01*
X12766Y23328D01*
X12780Y23397D01*
X12766Y23467D01*
X12727Y23526D01*
X12668Y23565D01*
X12598Y23579D01*
D02*
G37*
G36*
X2181Y23438D02*
X1471D01*
Y22728D01*
X2181D01*
Y23438D01*
D02*
G37*
G36*
X18528Y23354D02*
X18435Y23342D01*
X18348Y23306D01*
X18274Y23249D01*
X18217Y23175D01*
X18181Y23089D01*
X18169Y22996D01*
X18181Y22903D01*
X18217Y22817D01*
X18274Y22743D01*
X18348Y22686D01*
X18435Y22650D01*
X18528Y22638D01*
X18620Y22650D01*
X18707Y22686D01*
X18781Y22743D01*
X18838Y22817D01*
X18874Y22903D01*
X18886Y22996D01*
X18874Y23089D01*
X18838Y23175D01*
X18781Y23249D01*
X18707Y23306D01*
X18620Y23342D01*
X18528Y23354D01*
D02*
G37*
G36*
X17528D02*
X17435Y23342D01*
X17348Y23306D01*
X17274Y23249D01*
X17217Y23175D01*
X17181Y23089D01*
X17169Y22996D01*
X17181Y22903D01*
X17217Y22817D01*
X17274Y22743D01*
X17348Y22686D01*
X17435Y22650D01*
X17528Y22638D01*
X17620Y22650D01*
X17707Y22686D01*
X17781Y22743D01*
X17838Y22817D01*
X17874Y22903D01*
X17886Y22996D01*
X17874Y23089D01*
X17838Y23175D01*
X17781Y23249D01*
X17707Y23306D01*
X17620Y23342D01*
X17528Y23354D01*
D02*
G37*
G36*
X20528Y23374D02*
X20430Y23361D01*
X20338Y23324D01*
X20260Y23263D01*
X20200Y23185D01*
X20162Y23094D01*
X20149Y22996D01*
X20162Y22898D01*
X20200Y22807D01*
X20260Y22729D01*
X20338Y22669D01*
X20430Y22631D01*
X20528Y22618D01*
X20625Y22631D01*
X20717Y22669D01*
X20795Y22729D01*
X20855Y22807D01*
X20893Y22898D01*
X20906Y22996D01*
X20893Y23094D01*
X20855Y23185D01*
X20795Y23263D01*
X20717Y23324D01*
X20625Y23361D01*
X20528Y23374D01*
D02*
G37*
G36*
X59342Y20286D02*
X59233Y20271D01*
X59131Y20229D01*
X59110Y20213D01*
X59089Y20229D01*
X58987Y20271D01*
X58878Y20286D01*
X58769Y20271D01*
X58667Y20229D01*
X58580Y20162D01*
X58513Y20075D01*
X58470Y19973D01*
X58456Y19864D01*
X58470Y19755D01*
X58513Y19653D01*
X58517Y19648D01*
X58513Y19642D01*
X58470Y19540D01*
X58456Y19431D01*
X58470Y19322D01*
X58513Y19220D01*
X58580Y19133D01*
X58667Y19066D01*
X58769Y19024D01*
X58878Y19009D01*
X58987Y19024D01*
X59089Y19066D01*
X59114Y19085D01*
X59139Y19066D01*
X59241Y19024D01*
X59350Y19009D01*
X59459Y19024D01*
X59561Y19066D01*
X59648Y19133D01*
X59715Y19220D01*
X59758Y19322D01*
X59772Y19431D01*
X59758Y19540D01*
X59715Y19642D01*
X59707Y19653D01*
X59707Y19653D01*
X59750Y19755D01*
X59764Y19864D01*
X59750Y19973D01*
X59707Y20075D01*
X59640Y20162D01*
X59553Y20229D01*
X59451Y20271D01*
X59342Y20286D01*
D02*
G37*
G36*
X2266Y18686D02*
X2196Y18672D01*
X2137Y18632D01*
X2098Y18573D01*
X2084Y18504D01*
X2098Y18434D01*
X2137Y18376D01*
X2196Y18336D01*
X2266Y18322D01*
X2335Y18336D01*
X2394Y18376D01*
X2434Y18434D01*
X2447Y18504D01*
X2434Y18573D01*
X2394Y18632D01*
X2335Y18672D01*
X2266Y18686D01*
D02*
G37*
G36*
X1093D02*
X1024Y18672D01*
X965Y18632D01*
X926Y18573D01*
X912Y18504D01*
X926Y18434D01*
X965Y18376D01*
X1024Y18336D01*
X1093Y18322D01*
X1163Y18336D01*
X1222Y18376D01*
X1261Y18434D01*
X1275Y18504D01*
X1261Y18573D01*
X1222Y18632D01*
X1163Y18672D01*
X1093Y18686D01*
D02*
G37*
G36*
X60796Y17717D02*
X60726Y17703D01*
X60667Y17664D01*
X60628Y17605D01*
X60614Y17535D01*
X60628Y17466D01*
X60667Y17407D01*
X60726Y17368D01*
X60796Y17354D01*
X60865Y17368D01*
X60924Y17407D01*
X60963Y17466D01*
X60977Y17535D01*
X60963Y17605D01*
X60924Y17664D01*
X60865Y17703D01*
X60796Y17717D01*
D02*
G37*
G36*
X57475Y12663D02*
X57405Y12649D01*
X57346Y12610D01*
X57307Y12551D01*
X57293Y12482D01*
X57307Y12412D01*
X57346Y12353D01*
X57405Y12314D01*
X57475Y12300D01*
X57544Y12314D01*
X57603Y12353D01*
X57642Y12412D01*
X57656Y12482D01*
X57642Y12551D01*
X57603Y12610D01*
X57544Y12649D01*
X57475Y12663D01*
D02*
G37*
G36*
X56675D02*
X56605Y12649D01*
X56546Y12610D01*
X56507Y12551D01*
X56493Y12482D01*
X56507Y12412D01*
X56546Y12353D01*
X56605Y12314D01*
X56675Y12300D01*
X56744Y12314D01*
X56803Y12353D01*
X56842Y12412D01*
X56856Y12482D01*
X56842Y12551D01*
X56803Y12610D01*
X56744Y12649D01*
X56675Y12663D01*
D02*
G37*
G36*
X56134Y10441D02*
X55984Y10421D01*
X55844Y10363D01*
X55724Y10271D01*
X55684Y10219D01*
X55584D01*
X55544Y10271D01*
X55424Y10363D01*
X55284Y10421D01*
X55134Y10441D01*
X54984Y10421D01*
X54844Y10363D01*
X54724Y10271D01*
X54669Y10200D01*
X54569Y10234D01*
Y10296D01*
X53699D01*
Y9389D01*
X54569D01*
Y9451D01*
X54669Y9485D01*
X54724Y9414D01*
X54844Y9322D01*
X54984Y9264D01*
X55134Y9244D01*
X55284Y9264D01*
X55424Y9322D01*
X55544Y9414D01*
X55584Y9466D01*
X55684D01*
X55724Y9414D01*
X55844Y9322D01*
X55984Y9264D01*
X56134Y9244D01*
X56284Y9264D01*
X56424Y9322D01*
X56544Y9414D01*
X56636Y9534D01*
X56694Y9674D01*
X56714Y9824D01*
Y9861D01*
X56694Y10011D01*
X56636Y10151D01*
X56544Y10271D01*
X56424Y10363D01*
X56284Y10421D01*
X56134Y10441D01*
D02*
G37*
G36*
X51606D02*
X51456Y10421D01*
X51316Y10363D01*
X51196Y10271D01*
X51156Y10219D01*
X51056D01*
X51016Y10271D01*
X50896Y10363D01*
X50756Y10421D01*
X50606Y10441D01*
X50456Y10421D01*
X50316Y10363D01*
X50196Y10271D01*
X50141Y10200D01*
X50041Y10234D01*
Y10296D01*
X49171D01*
Y9389D01*
X50041D01*
Y9451D01*
X50141Y9485D01*
X50196Y9414D01*
X50316Y9322D01*
X50456Y9264D01*
X50606Y9244D01*
X50756Y9264D01*
X50896Y9322D01*
X51016Y9414D01*
X51056Y9466D01*
X51156D01*
X51196Y9414D01*
X51316Y9322D01*
X51456Y9264D01*
X51606Y9244D01*
X51756Y9264D01*
X51896Y9322D01*
X52016Y9414D01*
X52109Y9534D01*
X52167Y9674D01*
X52186Y9824D01*
Y9861D01*
X52167Y10011D01*
X52109Y10151D01*
X52016Y10271D01*
X51896Y10363D01*
X51756Y10421D01*
X51606Y10441D01*
D02*
G37*
G36*
X46685D02*
X46535Y10421D01*
X46395Y10363D01*
X46275Y10271D01*
X46235Y10219D01*
X46135D01*
X46095Y10271D01*
X45975Y10363D01*
X45835Y10421D01*
X45685Y10441D01*
X45535Y10421D01*
X45395Y10363D01*
X45275Y10271D01*
X45220Y10200D01*
X45120Y10234D01*
Y10296D01*
X44250D01*
Y9389D01*
X45120D01*
Y9451D01*
X45220Y9485D01*
X45275Y9414D01*
X45395Y9322D01*
X45535Y9264D01*
X45685Y9244D01*
X45835Y9264D01*
X45975Y9322D01*
X46095Y9414D01*
X46135Y9466D01*
X46235D01*
X46275Y9414D01*
X46395Y9322D01*
X46535Y9264D01*
X46685Y9244D01*
X46835Y9264D01*
X46975Y9322D01*
X47095Y9414D01*
X47187Y9534D01*
X47245Y9674D01*
X47265Y9824D01*
Y9861D01*
X47245Y10011D01*
X47187Y10151D01*
X47095Y10271D01*
X46975Y10363D01*
X46835Y10421D01*
X46685Y10441D01*
D02*
G37*
G36*
X42157D02*
X42007Y10421D01*
X41867Y10363D01*
X41747Y10271D01*
X41707Y10219D01*
X41607D01*
X41568Y10271D01*
X41447Y10363D01*
X41308Y10421D01*
X41157Y10441D01*
X41007Y10421D01*
X40868Y10363D01*
X40747Y10271D01*
X40692Y10200D01*
X40592Y10234D01*
Y10296D01*
X39722D01*
Y9389D01*
X40592D01*
Y9451D01*
X40692Y9485D01*
X40747Y9414D01*
X40868Y9322D01*
X41007Y9264D01*
X41157Y9244D01*
X41308Y9264D01*
X41447Y9322D01*
X41568Y9414D01*
X41607Y9466D01*
X41707D01*
X41747Y9414D01*
X41867Y9322D01*
X42007Y9264D01*
X42157Y9244D01*
X42308Y9264D01*
X42447Y9322D01*
X42568Y9414D01*
X42660Y9534D01*
X42718Y9674D01*
X42737Y9824D01*
Y9861D01*
X42718Y10011D01*
X42660Y10151D01*
X42568Y10271D01*
X42447Y10363D01*
X42308Y10421D01*
X42157Y10441D01*
D02*
G37*
G36*
X37236D02*
X37086Y10421D01*
X36946Y10363D01*
X36826Y10271D01*
X36786Y10219D01*
X36686D01*
X36646Y10271D01*
X36526Y10363D01*
X36386Y10421D01*
X36236Y10441D01*
X36086Y10421D01*
X35946Y10363D01*
X35826Y10271D01*
X35771Y10200D01*
X35671Y10234D01*
Y10296D01*
X34801D01*
Y9389D01*
X35671D01*
Y9451D01*
X35771Y9485D01*
X35826Y9414D01*
X35946Y9322D01*
X36086Y9264D01*
X36236Y9244D01*
X36386Y9264D01*
X36526Y9322D01*
X36646Y9414D01*
X36686Y9466D01*
X36786D01*
X36826Y9414D01*
X36946Y9322D01*
X37086Y9264D01*
X37236Y9244D01*
X37386Y9264D01*
X37526Y9322D01*
X37646Y9414D01*
X37738Y9534D01*
X37796Y9674D01*
X37816Y9824D01*
Y9861D01*
X37796Y10011D01*
X37738Y10151D01*
X37646Y10271D01*
X37526Y10363D01*
X37386Y10421D01*
X37236Y10441D01*
D02*
G37*
G36*
X32709D02*
X32559Y10421D01*
X32419Y10363D01*
X32299Y10271D01*
X32259Y10219D01*
X32159D01*
X32119Y10271D01*
X31999Y10363D01*
X31859Y10421D01*
X31709Y10441D01*
X31559Y10421D01*
X31419Y10363D01*
X31299Y10271D01*
X31244Y10200D01*
X31144Y10234D01*
Y10296D01*
X30274D01*
Y9389D01*
X31144D01*
Y9451D01*
X31244Y9485D01*
X31299Y9414D01*
X31419Y9322D01*
X31559Y9264D01*
X31709Y9244D01*
X31859Y9264D01*
X31999Y9322D01*
X32119Y9414D01*
X32159Y9466D01*
X32259D01*
X32299Y9414D01*
X32419Y9322D01*
X32559Y9264D01*
X32709Y9244D01*
X32859Y9264D01*
X32999Y9322D01*
X33119Y9414D01*
X33211Y9534D01*
X33269Y9674D01*
X33289Y9824D01*
Y9861D01*
X33269Y10011D01*
X33211Y10151D01*
X33119Y10271D01*
X32999Y10363D01*
X32859Y10421D01*
X32709Y10441D01*
D02*
G37*
G36*
X27787D02*
X27637Y10421D01*
X27497Y10363D01*
X27377Y10271D01*
X27337Y10219D01*
X27237D01*
X27197Y10271D01*
X27077Y10363D01*
X26938Y10421D01*
X26787Y10441D01*
X26637Y10421D01*
X26497Y10363D01*
X26377Y10271D01*
X26322Y10200D01*
X26222Y10234D01*
Y10296D01*
X25352D01*
Y9389D01*
X26222D01*
Y9451D01*
X26322Y9485D01*
X26377Y9414D01*
X26497Y9322D01*
X26637Y9264D01*
X26787Y9244D01*
X26938Y9264D01*
X27077Y9322D01*
X27197Y9414D01*
X27237Y9466D01*
X27337D01*
X27377Y9414D01*
X27497Y9322D01*
X27637Y9264D01*
X27787Y9244D01*
X27938Y9264D01*
X28077Y9322D01*
X28197Y9414D01*
X28290Y9534D01*
X28348Y9674D01*
X28367Y9824D01*
Y9861D01*
X28348Y10011D01*
X28290Y10151D01*
X28197Y10271D01*
X28077Y10363D01*
X27938Y10421D01*
X27787Y10441D01*
D02*
G37*
G36*
X23260D02*
X23110Y10421D01*
X22970Y10363D01*
X22850Y10271D01*
X22810Y10219D01*
X22710D01*
X22670Y10271D01*
X22550Y10363D01*
X22410Y10421D01*
X22260Y10441D01*
X22110Y10421D01*
X21970Y10363D01*
X21850Y10271D01*
X21795Y10200D01*
X21695Y10234D01*
Y10296D01*
X20825D01*
Y9389D01*
X21695D01*
Y9451D01*
X21795Y9485D01*
X21850Y9414D01*
X21970Y9322D01*
X22110Y9264D01*
X22260Y9244D01*
X22410Y9264D01*
X22550Y9322D01*
X22670Y9414D01*
X22710Y9466D01*
X22810D01*
X22850Y9414D01*
X22970Y9322D01*
X23110Y9264D01*
X23260Y9244D01*
X23410Y9264D01*
X23550Y9322D01*
X23670Y9414D01*
X23762Y9534D01*
X23820Y9674D01*
X23840Y9824D01*
Y9861D01*
X23820Y10011D01*
X23762Y10151D01*
X23670Y10271D01*
X23550Y10363D01*
X23410Y10421D01*
X23260Y10441D01*
D02*
G37*
G36*
X18339D02*
X18188Y10421D01*
X18049Y10363D01*
X17928Y10271D01*
X17889Y10219D01*
X17789D01*
X17749Y10271D01*
X17629Y10363D01*
X17489Y10421D01*
X17339Y10441D01*
X17188Y10421D01*
X17049Y10363D01*
X16928Y10271D01*
X16874Y10200D01*
X16774Y10234D01*
Y10296D01*
X15904D01*
Y9389D01*
X16774D01*
Y9451D01*
X16874Y9485D01*
X16928Y9414D01*
X17049Y9322D01*
X17188Y9264D01*
X17339Y9244D01*
X17489Y9264D01*
X17629Y9322D01*
X17749Y9414D01*
X17789Y9466D01*
X17889D01*
X17928Y9414D01*
X18049Y9322D01*
X18188Y9264D01*
X18339Y9244D01*
X18489Y9264D01*
X18629Y9322D01*
X18749Y9414D01*
X18841Y9534D01*
X18899Y9674D01*
X18919Y9824D01*
Y9861D01*
X18899Y10011D01*
X18841Y10151D01*
X18749Y10271D01*
X18629Y10363D01*
X18489Y10421D01*
X18339Y10441D01*
D02*
G37*
G36*
X13811D02*
X13661Y10421D01*
X13521Y10363D01*
X13401Y10271D01*
X13361Y10219D01*
X13261D01*
X13221Y10271D01*
X13101Y10363D01*
X12961Y10421D01*
X12811Y10441D01*
X12661Y10421D01*
X12521Y10363D01*
X12401Y10271D01*
X12346Y10200D01*
X12246Y10234D01*
Y10296D01*
X11376D01*
Y9389D01*
X12246D01*
Y9451D01*
X12346Y9485D01*
X12401Y9414D01*
X12521Y9322D01*
X12661Y9264D01*
X12811Y9244D01*
X12961Y9264D01*
X13101Y9322D01*
X13221Y9414D01*
X13261Y9466D01*
X13361D01*
X13401Y9414D01*
X13521Y9322D01*
X13661Y9264D01*
X13811Y9244D01*
X13961Y9264D01*
X14101Y9322D01*
X14221Y9414D01*
X14313Y9534D01*
X14371Y9674D01*
X14391Y9824D01*
Y9861D01*
X14371Y10011D01*
X14313Y10151D01*
X14221Y10271D01*
X14101Y10363D01*
X13961Y10421D01*
X13811Y10441D01*
D02*
G37*
G36*
X8890D02*
X8740Y10421D01*
X8600Y10363D01*
X8480Y10271D01*
X8440Y10219D01*
X8340D01*
X8300Y10271D01*
X8180Y10363D01*
X8040Y10421D01*
X7890Y10441D01*
X7740Y10421D01*
X7600Y10363D01*
X7480Y10271D01*
X7425Y10200D01*
X7325Y10234D01*
Y10296D01*
X6455D01*
Y9389D01*
X7325D01*
Y9451D01*
X7425Y9485D01*
X7480Y9414D01*
X7600Y9322D01*
X7740Y9264D01*
X7890Y9244D01*
X8040Y9264D01*
X8180Y9322D01*
X8300Y9414D01*
X8340Y9466D01*
X8440D01*
X8480Y9414D01*
X8600Y9322D01*
X8740Y9264D01*
X8890Y9244D01*
X9040Y9264D01*
X9180Y9322D01*
X9300Y9414D01*
X9392Y9534D01*
X9450Y9674D01*
X9470Y9824D01*
Y9861D01*
X9450Y10011D01*
X9392Y10151D01*
X9300Y10271D01*
X9180Y10363D01*
X9040Y10421D01*
X8890Y10441D01*
D02*
G37*
G36*
X4362D02*
X4212Y10421D01*
X4072Y10363D01*
X3952Y10271D01*
X3912Y10219D01*
X3812D01*
X3772Y10271D01*
X3652Y10363D01*
X3512Y10421D01*
X3362Y10441D01*
X3212Y10421D01*
X3072Y10363D01*
X2952Y10271D01*
X2897Y10200D01*
X2797Y10234D01*
Y10296D01*
X1927D01*
Y9389D01*
X2797D01*
Y9451D01*
X2897Y9485D01*
X2952Y9414D01*
X3072Y9322D01*
X3212Y9264D01*
X3362Y9244D01*
X3512Y9264D01*
X3652Y9322D01*
X3772Y9414D01*
X3812Y9466D01*
X3912D01*
X3952Y9414D01*
X4072Y9322D01*
X4212Y9264D01*
X4362Y9244D01*
X4512Y9264D01*
X4652Y9322D01*
X4772Y9414D01*
X4864Y9534D01*
X4922Y9674D01*
X4942Y9824D01*
Y9861D01*
X4922Y10011D01*
X4864Y10151D01*
X4772Y10271D01*
X4652Y10363D01*
X4512Y10421D01*
X4362Y10441D01*
D02*
G37*
G36*
X10789Y10170D02*
X10711Y10160D01*
X10639Y10130D01*
X10578Y10083D01*
X10530Y10021D01*
X10500Y9949D01*
X10490Y9871D01*
X10500Y9794D01*
X10530Y9722D01*
X10578Y9660D01*
X10639Y9613D01*
X10711Y9583D01*
X10789Y9573D01*
X10866Y9583D01*
X10938Y9613D01*
X11000Y9660D01*
X11048Y9722D01*
X11077Y9794D01*
X11088Y9871D01*
X11077Y9949D01*
X11048Y10021D01*
X11000Y10083D01*
X10938Y10130D01*
X10866Y10160D01*
X10789Y10170D01*
D02*
G37*
G36*
X1260Y10145D02*
X1183Y10135D01*
X1111Y10105D01*
X1049Y10057D01*
X1001Y9996D01*
X971Y9924D01*
X961Y9846D01*
X971Y9769D01*
X1001Y9697D01*
X1049Y9635D01*
X1111Y9587D01*
X1183Y9558D01*
X1260Y9547D01*
X1337Y9558D01*
X1409Y9587D01*
X1471Y9635D01*
X1519Y9697D01*
X1549Y9769D01*
X1559Y9846D01*
X1549Y9924D01*
X1519Y9996D01*
X1471Y10057D01*
X1409Y10105D01*
X1337Y10135D01*
X1260Y10145D01*
D02*
G37*
G36*
X29698Y10143D02*
X29621Y10132D01*
X29548Y10103D01*
X29487Y10055D01*
X29439Y9993D01*
X29409Y9921D01*
X29399Y9844D01*
X29409Y9766D01*
X29439Y9694D01*
X29487Y9632D01*
X29548Y9585D01*
X29621Y9555D01*
X29698Y9545D01*
X29775Y9555D01*
X29847Y9585D01*
X29909Y9632D01*
X29957Y9694D01*
X29986Y9766D01*
X29997Y9844D01*
X29986Y9921D01*
X29957Y9993D01*
X29909Y10055D01*
X29847Y10103D01*
X29775Y10132D01*
X29698Y10143D01*
D02*
G37*
G36*
X48589Y10141D02*
X48512Y10131D01*
X48440Y10101D01*
X48378Y10054D01*
X48331Y9992D01*
X48301Y9920D01*
X48291Y9843D01*
X48301Y9765D01*
X48331Y9693D01*
X48378Y9631D01*
X48440Y9584D01*
X48512Y9554D01*
X48589Y9544D01*
X48667Y9554D01*
X48739Y9584D01*
X48801Y9631D01*
X48848Y9693D01*
X48878Y9765D01*
X48888Y9843D01*
X48878Y9920D01*
X48848Y9992D01*
X48801Y10054D01*
X48739Y10101D01*
X48667Y10131D01*
X48589Y10141D01*
D02*
G37*
G36*
X20252Y10138D02*
X20175Y10128D01*
X20103Y10098D01*
X20041Y10051D01*
X19993Y9989D01*
X19964Y9917D01*
X19953Y9839D01*
X19964Y9762D01*
X19993Y9690D01*
X20041Y9628D01*
X20103Y9581D01*
X20175Y9551D01*
X20252Y9541D01*
X20329Y9551D01*
X20402Y9581D01*
X20463Y9628D01*
X20511Y9690D01*
X20541Y9762D01*
X20551Y9839D01*
X20541Y9917D01*
X20511Y9989D01*
X20463Y10051D01*
X20402Y10098D01*
X20329Y10128D01*
X20252Y10138D01*
D02*
G37*
G36*
X39141Y10134D02*
X39064Y10124D01*
X38992Y10094D01*
X38930Y10047D01*
X38883Y9985D01*
X38853Y9913D01*
X38843Y9836D01*
X38853Y9758D01*
X38883Y9686D01*
X38930Y9624D01*
X38992Y9577D01*
X39064Y9547D01*
X39141Y9537D01*
X39219Y9547D01*
X39291Y9577D01*
X39353Y9624D01*
X39400Y9686D01*
X39430Y9758D01*
X39440Y9836D01*
X39430Y9913D01*
X39400Y9985D01*
X39353Y10047D01*
X39291Y10094D01*
X39219Y10124D01*
X39141Y10134D01*
D02*
G37*
G36*
X48032Y7419D02*
X47895Y7401D01*
X47767Y7348D01*
X47657Y7264D01*
X47573Y7154D01*
X47520Y7027D01*
X47502Y6890D01*
X47520Y6753D01*
X47573Y6625D01*
X47657Y6515D01*
X47767Y6431D01*
X47895Y6378D01*
X48032Y6360D01*
X48169Y6378D01*
X48296Y6431D01*
X48406Y6515D01*
X48490Y6625D01*
X48543Y6753D01*
X48561Y6890D01*
X48543Y7027D01*
X48490Y7154D01*
X48406Y7264D01*
X48296Y7348D01*
X48169Y7401D01*
X48032Y7419D01*
D02*
G37*
G36*
X29134D02*
X28997Y7401D01*
X28869Y7348D01*
X28760Y7264D01*
X28675Y7154D01*
X28623Y7027D01*
X28605Y6890D01*
X28623Y6753D01*
X28675Y6625D01*
X28760Y6515D01*
X28869Y6431D01*
X28997Y6378D01*
X29134Y6360D01*
X29271Y6378D01*
X29399Y6431D01*
X29508Y6515D01*
X29592Y6625D01*
X29645Y6753D01*
X29663Y6890D01*
X29645Y7027D01*
X29592Y7154D01*
X29508Y7264D01*
X29399Y7348D01*
X29271Y7401D01*
X29134Y7419D01*
D02*
G37*
G36*
X10236D02*
X10099Y7401D01*
X9972Y7348D01*
X9862Y7264D01*
X9778Y7154D01*
X9725Y7027D01*
X9707Y6890D01*
X9725Y6753D01*
X9778Y6625D01*
X9862Y6515D01*
X9972Y6431D01*
X10099Y6378D01*
X10236Y6360D01*
X10373Y6378D01*
X10501Y6431D01*
X10611Y6515D01*
X10695Y6625D01*
X10748Y6753D01*
X10766Y6890D01*
X10748Y7027D01*
X10695Y7154D01*
X10611Y7264D01*
X10501Y7348D01*
X10373Y7401D01*
X10236Y7419D01*
D02*
G37*
G36*
X52461Y4073D02*
X52324Y4055D01*
X52196Y4002D01*
X52086Y3918D01*
X52002Y3808D01*
X51949Y3680D01*
X51931Y3543D01*
X51949Y3406D01*
X52002Y3279D01*
X52086Y3169D01*
X52196Y3085D01*
X52324Y3032D01*
X52461Y3014D01*
X52598Y3032D01*
X52725Y3085D01*
X52835Y3169D01*
X52919Y3279D01*
X52972Y3406D01*
X52990Y3543D01*
X52972Y3680D01*
X52919Y3808D01*
X52835Y3918D01*
X52725Y4002D01*
X52598Y4055D01*
X52461Y4073D01*
D02*
G37*
G36*
X14665D02*
X14528Y4055D01*
X14401Y4002D01*
X14291Y3918D01*
X14207Y3808D01*
X14154Y3680D01*
X14136Y3543D01*
X14154Y3406D01*
X14207Y3279D01*
X14291Y3169D01*
X14401Y3085D01*
X14528Y3032D01*
X14665Y3014D01*
X14802Y3032D01*
X14930Y3085D01*
X15040Y3169D01*
X15124Y3279D01*
X15177Y3406D01*
X15195Y3543D01*
X15177Y3680D01*
X15124Y3808D01*
X15040Y3918D01*
X14930Y4002D01*
X14802Y4055D01*
X14665Y4073D01*
D02*
G37*
G36*
X2461D02*
X2324Y4055D01*
X2196Y4002D01*
X2086Y3918D01*
X2002Y3808D01*
X1949Y3680D01*
X1931Y3543D01*
X1949Y3406D01*
X2002Y3279D01*
X2086Y3169D01*
X2196Y3085D01*
X2324Y3032D01*
X2461Y3014D01*
X2598Y3032D01*
X2725Y3085D01*
X2835Y3169D01*
X2919Y3279D01*
X2972Y3406D01*
X2990Y3543D01*
X2972Y3680D01*
X2919Y3808D01*
X2835Y3918D01*
X2725Y4002D01*
X2598Y4055D01*
X2461Y4073D01*
D02*
G37*
G36*
X21752Y3959D02*
X21615Y3941D01*
X21487Y3888D01*
X21378Y3804D01*
X21294Y3694D01*
X21241Y3567D01*
X21223Y3430D01*
X21241Y3293D01*
X21294Y3165D01*
X21378Y3055D01*
X21487Y2971D01*
X21615Y2918D01*
X21752Y2900D01*
X21889Y2918D01*
X22017Y2971D01*
X22126Y3055D01*
X22210Y3165D01*
X22263Y3293D01*
X22281Y3430D01*
X22263Y3567D01*
X22210Y3694D01*
X22126Y3804D01*
X22017Y3888D01*
X21889Y3941D01*
X21752Y3959D01*
D02*
G37*
G36*
X40650Y3897D02*
X40513Y3879D01*
X40385Y3826D01*
X40275Y3742D01*
X40191Y3632D01*
X40138Y3505D01*
X40120Y3368D01*
X40138Y3231D01*
X40191Y3103D01*
X40275Y2994D01*
X40385Y2909D01*
X40513Y2857D01*
X40650Y2838D01*
X40787Y2857D01*
X40914Y2909D01*
X41024Y2994D01*
X41108Y3103D01*
X41161Y3231D01*
X41179Y3368D01*
X41161Y3505D01*
X41108Y3632D01*
X41024Y3742D01*
X40914Y3826D01*
X40787Y3879D01*
X40650Y3897D01*
D02*
G37*
G36*
X33563D02*
X33426Y3879D01*
X33298Y3826D01*
X33189Y3742D01*
X33105Y3632D01*
X33052Y3505D01*
X33034Y3368D01*
X33052Y3231D01*
X33105Y3103D01*
X33189Y2994D01*
X33298Y2909D01*
X33426Y2857D01*
X33563Y2838D01*
X33700Y2857D01*
X33828Y2909D01*
X33937Y2994D01*
X34021Y3103D01*
X34074Y3231D01*
X34092Y3368D01*
X34074Y3505D01*
X34021Y3632D01*
X33937Y3742D01*
X33828Y3826D01*
X33700Y3879D01*
X33563Y3897D01*
D02*
G37*
G36*
X42528Y38354D02*
X42435Y38342D01*
X42348Y38306D01*
X42274Y38249D01*
X42217Y38175D01*
X42181Y38089D01*
X42169Y37996D01*
X42181Y37903D01*
X42217Y37817D01*
X42274Y37743D01*
X42348Y37686D01*
X42435Y37650D01*
X42528Y37638D01*
X42620Y37650D01*
X42707Y37686D01*
X42781Y37743D01*
X42838Y37817D01*
X42874Y37903D01*
X42886Y37996D01*
X42874Y38089D01*
X42838Y38175D01*
X42781Y38249D01*
X42707Y38306D01*
X42620Y38342D01*
X42528Y38354D01*
D02*
G37*
G36*
X41528D02*
X41435Y38342D01*
X41348Y38306D01*
X41274Y38249D01*
X41217Y38175D01*
X41181Y38089D01*
X41169Y37996D01*
X41181Y37903D01*
X41217Y37817D01*
X41274Y37743D01*
X41348Y37686D01*
X41435Y37650D01*
X41528Y37638D01*
X41620Y37650D01*
X41707Y37686D01*
X41781Y37743D01*
X41838Y37817D01*
X41874Y37903D01*
X41886Y37996D01*
X41874Y38089D01*
X41838Y38175D01*
X41781Y38249D01*
X41707Y38306D01*
X41620Y38342D01*
X41528Y38354D01*
D02*
G37*
G36*
X37904Y37778D02*
X37834Y37764D01*
X37775Y37724D01*
X37736Y37666D01*
X37722Y37596D01*
X37736Y37527D01*
X37775Y37468D01*
X37834Y37428D01*
X37904Y37414D01*
X37973Y37428D01*
X38032Y37468D01*
X38071Y37527D01*
X38085Y37596D01*
X38071Y37666D01*
X38032Y37724D01*
X37973Y37764D01*
X37904Y37778D01*
D02*
G37*
G36*
X39528Y37974D02*
X39430Y37961D01*
X39338Y37924D01*
X39260Y37863D01*
X39200Y37785D01*
X39162Y37694D01*
X39149Y37596D01*
X39162Y37498D01*
X39200Y37407D01*
X39260Y37329D01*
X39338Y37269D01*
X39430Y37231D01*
X39528Y37218D01*
X39625Y37231D01*
X39717Y37269D01*
X39795Y37329D01*
X39855Y37407D01*
X39893Y37498D01*
X39906Y37596D01*
X39893Y37694D01*
X39855Y37785D01*
X39795Y37863D01*
X39717Y37924D01*
X39625Y37961D01*
X39528Y37974D01*
D02*
G37*
G36*
X42528Y37354D02*
X42435Y37342D01*
X42348Y37306D01*
X42274Y37249D01*
X42217Y37175D01*
X42181Y37089D01*
X42169Y36996D01*
X42181Y36903D01*
X42217Y36817D01*
X42274Y36743D01*
X42348Y36686D01*
X42435Y36650D01*
X42528Y36638D01*
X42620Y36650D01*
X42707Y36686D01*
X42781Y36743D01*
X42838Y36817D01*
X42874Y36903D01*
X42886Y36996D01*
X42874Y37089D01*
X42838Y37175D01*
X42781Y37249D01*
X42707Y37306D01*
X42620Y37342D01*
X42528Y37354D01*
D02*
G37*
G36*
X41528D02*
X41435Y37342D01*
X41348Y37306D01*
X41274Y37249D01*
X41217Y37175D01*
X41181Y37089D01*
X41169Y36996D01*
X41181Y36903D01*
X41217Y36817D01*
X41274Y36743D01*
X41348Y36686D01*
X41435Y36650D01*
X41528Y36638D01*
X41620Y36650D01*
X41707Y36686D01*
X41781Y36743D01*
X41838Y36817D01*
X41874Y36903D01*
X41886Y36996D01*
X41874Y37089D01*
X41838Y37175D01*
X41781Y37249D01*
X41707Y37306D01*
X41620Y37342D01*
X41528Y37354D01*
D02*
G37*
G36*
X39528Y36974D02*
X39430Y36961D01*
X39338Y36924D01*
X39260Y36863D01*
X39200Y36785D01*
X39162Y36694D01*
X39149Y36596D01*
X39162Y36498D01*
X39200Y36407D01*
X39260Y36329D01*
X39338Y36269D01*
X39430Y36231D01*
X39528Y36218D01*
X39625Y36231D01*
X39717Y36269D01*
X39795Y36329D01*
X39855Y36407D01*
X39893Y36498D01*
X39906Y36596D01*
X39893Y36694D01*
X39855Y36785D01*
X39795Y36863D01*
X39717Y36924D01*
X39625Y36961D01*
X39528Y36974D01*
D02*
G37*
G36*
X42528Y36354D02*
X42435Y36342D01*
X42348Y36306D01*
X42274Y36249D01*
X42217Y36175D01*
X42181Y36089D01*
X42169Y35996D01*
X42181Y35903D01*
X42217Y35817D01*
X42274Y35743D01*
X42348Y35686D01*
X42435Y35650D01*
X42528Y35638D01*
X42620Y35650D01*
X42707Y35686D01*
X42781Y35743D01*
X42838Y35817D01*
X42874Y35903D01*
X42886Y35996D01*
X42874Y36089D01*
X42838Y36175D01*
X42781Y36249D01*
X42707Y36306D01*
X42620Y36342D01*
X42528Y36354D01*
D02*
G37*
G36*
X41528D02*
X41435Y36342D01*
X41348Y36306D01*
X41274Y36249D01*
X41217Y36175D01*
X41181Y36089D01*
X41169Y35996D01*
X41181Y35903D01*
X41217Y35817D01*
X41274Y35743D01*
X41348Y35686D01*
X41435Y35650D01*
X41528Y35638D01*
X41620Y35650D01*
X41707Y35686D01*
X41781Y35743D01*
X41838Y35817D01*
X41874Y35903D01*
X41886Y35996D01*
X41874Y36089D01*
X41838Y36175D01*
X41781Y36249D01*
X41707Y36306D01*
X41620Y36342D01*
X41528Y36354D01*
D02*
G37*
G36*
X37904Y35778D02*
X37834Y35764D01*
X37775Y35724D01*
X37736Y35666D01*
X37722Y35596D01*
X37736Y35527D01*
X37775Y35468D01*
X37834Y35428D01*
X37904Y35414D01*
X37973Y35428D01*
X38032Y35468D01*
X38071Y35527D01*
X38085Y35596D01*
X38071Y35666D01*
X38032Y35724D01*
X37973Y35764D01*
X37904Y35778D01*
D02*
G37*
G36*
X39528Y35974D02*
X39430Y35961D01*
X39338Y35924D01*
X39260Y35863D01*
X39200Y35785D01*
X39162Y35694D01*
X39149Y35596D01*
X39162Y35498D01*
X39200Y35407D01*
X39260Y35329D01*
X39338Y35269D01*
X39430Y35231D01*
X39528Y35218D01*
X39625Y35231D01*
X39717Y35269D01*
X39795Y35329D01*
X39855Y35407D01*
X39893Y35498D01*
X39906Y35596D01*
X39893Y35694D01*
X39855Y35785D01*
X39795Y35863D01*
X39717Y35924D01*
X39625Y35961D01*
X39528Y35974D01*
D02*
G37*
G36*
X42528Y35354D02*
X42435Y35342D01*
X42348Y35306D01*
X42274Y35249D01*
X42217Y35175D01*
X42181Y35089D01*
X42169Y34996D01*
X42181Y34903D01*
X42217Y34817D01*
X42274Y34743D01*
X42348Y34686D01*
X42435Y34650D01*
X42528Y34638D01*
X42620Y34650D01*
X42707Y34686D01*
X42781Y34743D01*
X42838Y34817D01*
X42874Y34903D01*
X42886Y34996D01*
X42874Y35089D01*
X42838Y35175D01*
X42781Y35249D01*
X42707Y35306D01*
X42620Y35342D01*
X42528Y35354D01*
D02*
G37*
G36*
X41528D02*
X41435Y35342D01*
X41348Y35306D01*
X41274Y35249D01*
X41217Y35175D01*
X41181Y35089D01*
X41169Y34996D01*
X41181Y34903D01*
X41217Y34817D01*
X41274Y34743D01*
X41348Y34686D01*
X41435Y34650D01*
X41528Y34638D01*
X41620Y34650D01*
X41707Y34686D01*
X41781Y34743D01*
X41838Y34817D01*
X41874Y34903D01*
X41886Y34996D01*
X41874Y35089D01*
X41838Y35175D01*
X41781Y35249D01*
X41707Y35306D01*
X41620Y35342D01*
X41528Y35354D01*
D02*
G37*
G36*
X34449Y34630D02*
X34379Y34617D01*
X34320Y34577D01*
X34281Y34518D01*
X34267Y34449D01*
X34281Y34379D01*
X34320Y34320D01*
X34379Y34281D01*
X34449Y34267D01*
X34518Y34281D01*
X34577Y34320D01*
X34617Y34379D01*
X34630Y34449D01*
X34617Y34518D01*
X34577Y34577D01*
X34518Y34617D01*
X34449Y34630D01*
D02*
G37*
G36*
X34782Y33981D02*
X34713Y33967D01*
X34654Y33927D01*
X34615Y33868D01*
X34601Y33799D01*
X34615Y33729D01*
X34654Y33671D01*
X34713Y33631D01*
X34782Y33617D01*
X34852Y33631D01*
X34911Y33671D01*
X34950Y33729D01*
X34964Y33799D01*
X34950Y33868D01*
X34911Y33927D01*
X34852Y33967D01*
X34782Y33981D01*
D02*
G37*
G36*
X34449Y33056D02*
X34379Y33042D01*
X34320Y33002D01*
X34281Y32944D01*
X34267Y32874D01*
X34281Y32805D01*
X34320Y32746D01*
X34379Y32706D01*
X34449Y32692D01*
X34518Y32706D01*
X34577Y32746D01*
X34617Y32805D01*
X34630Y32874D01*
X34617Y32944D01*
X34577Y33002D01*
X34518Y33042D01*
X34449Y33056D01*
D02*
G37*
G36*
X34782Y32778D02*
X34713Y32764D01*
X34654Y32724D01*
X34615Y32666D01*
X34601Y32596D01*
X34615Y32527D01*
X34654Y32468D01*
X34713Y32428D01*
X34782Y32414D01*
X34852Y32428D01*
X34911Y32468D01*
X34950Y32527D01*
X34964Y32596D01*
X34950Y32666D01*
X34911Y32724D01*
X34852Y32764D01*
X34782Y32778D01*
D02*
G37*
G36*
X31744Y31862D02*
X31674Y31848D01*
X31615Y31809D01*
X31576Y31750D01*
X31562Y31680D01*
X31576Y31611D01*
X31615Y31552D01*
X31674Y31512D01*
X31744Y31499D01*
X31813Y31512D01*
X31872Y31552D01*
X31911Y31611D01*
X31925Y31680D01*
X31911Y31750D01*
X31872Y31809D01*
X31813Y31848D01*
X31744Y31862D01*
D02*
G37*
G36*
X30000Y30182D02*
X29931Y30168D01*
X29872Y30128D01*
X29832Y30070D01*
X29818Y30000D01*
X29832Y29931D01*
X29872Y29872D01*
X29931Y29832D01*
X30000Y29818D01*
X30069Y29832D01*
X30128Y29872D01*
X30168Y29931D01*
X30182Y30000D01*
X30168Y30070D01*
X30128Y30128D01*
X30069Y30168D01*
X30000Y30182D01*
D02*
G37*
G36*
X29052Y28528D02*
X28982Y28514D01*
X28923Y28475D01*
X28884Y28416D01*
X28870Y28346D01*
X28884Y28277D01*
X28923Y28218D01*
X28982Y28179D01*
X29052Y28165D01*
X29121Y28179D01*
X29180Y28218D01*
X29219Y28277D01*
X29233Y28346D01*
X29219Y28416D01*
X29180Y28475D01*
X29121Y28514D01*
X29052Y28528D01*
D02*
G37*
G36*
X28740Y28134D02*
X28671Y28121D01*
X28612Y28081D01*
X28572Y28022D01*
X28559Y27953D01*
X28572Y27883D01*
X28612Y27824D01*
X28671Y27785D01*
X28740Y27771D01*
X28810Y27785D01*
X28869Y27824D01*
X28908Y27883D01*
X28922Y27953D01*
X28908Y28022D01*
X28869Y28081D01*
X28810Y28121D01*
X28740Y28134D01*
D02*
G37*
G36*
X29315Y28115D02*
X29246Y28101D01*
X29187Y28062D01*
X29148Y28003D01*
X29134Y27934D01*
X29148Y27864D01*
X29187Y27805D01*
X29246Y27766D01*
X29315Y27752D01*
X29385Y27766D01*
X29444Y27805D01*
X29483Y27864D01*
X29497Y27934D01*
X29483Y28003D01*
X29444Y28062D01*
X29385Y28101D01*
X29315Y28115D01*
D02*
G37*
G36*
X28565Y27362D02*
X28496Y27348D01*
X28437Y27308D01*
X28398Y27249D01*
X28384Y27180D01*
X28398Y27110D01*
X28437Y27052D01*
X28496Y27012D01*
X28565Y26998D01*
X28635Y27012D01*
X28694Y27052D01*
X28733Y27110D01*
X28747Y27180D01*
X28733Y27249D01*
X28694Y27308D01*
X28635Y27348D01*
X28565Y27362D01*
D02*
G37*
G36*
X26181Y25772D02*
X26112Y25758D01*
X26053Y25719D01*
X26013Y25660D01*
X26000Y25591D01*
X26013Y25521D01*
X26053Y25462D01*
X26112Y25423D01*
X26181Y25409D01*
X26251Y25423D01*
X26310Y25462D01*
X26349Y25521D01*
X26363Y25591D01*
X26349Y25660D01*
X26310Y25719D01*
X26251Y25758D01*
X26181Y25772D01*
D02*
G37*
G36*
X24341Y23016D02*
X24272Y23002D01*
X24213Y22963D01*
X24174Y22904D01*
X24160Y22835D01*
X24174Y22765D01*
X24213Y22706D01*
X24272Y22667D01*
X24341Y22653D01*
X24411Y22667D01*
X24470Y22706D01*
X24509Y22765D01*
X24523Y22835D01*
X24509Y22904D01*
X24470Y22963D01*
X24411Y23002D01*
X24341Y23016D01*
D02*
G37*
G36*
X18528Y22354D02*
X18435Y22342D01*
X18348Y22306D01*
X18274Y22249D01*
X18217Y22175D01*
X18181Y22089D01*
X18169Y21996D01*
X18181Y21903D01*
X18217Y21817D01*
X18274Y21743D01*
X18348Y21686D01*
X18435Y21650D01*
X18528Y21638D01*
X18620Y21650D01*
X18707Y21686D01*
X18781Y21743D01*
X18838Y21817D01*
X18874Y21903D01*
X18886Y21996D01*
X18874Y22089D01*
X18838Y22175D01*
X18781Y22249D01*
X18707Y22306D01*
X18620Y22342D01*
X18528Y22354D01*
D02*
G37*
G36*
X17528D02*
X17435Y22342D01*
X17348Y22306D01*
X17274Y22249D01*
X17217Y22175D01*
X17181Y22089D01*
X17169Y21996D01*
X17181Y21903D01*
X17217Y21817D01*
X17274Y21743D01*
X17348Y21686D01*
X17435Y21650D01*
X17528Y21638D01*
X17620Y21650D01*
X17707Y21686D01*
X17781Y21743D01*
X17838Y21817D01*
X17874Y21903D01*
X17886Y21996D01*
X17874Y22089D01*
X17838Y22175D01*
X17781Y22249D01*
X17707Y22306D01*
X17620Y22342D01*
X17528Y22354D01*
D02*
G37*
G36*
X22835Y21796D02*
X22765Y21782D01*
X22706Y21743D01*
X22667Y21684D01*
X22653Y21614D01*
X22667Y21545D01*
X22706Y21486D01*
X22765Y21446D01*
X22835Y21433D01*
X22904Y21446D01*
X22963Y21486D01*
X23002Y21545D01*
X23016Y21614D01*
X23002Y21684D01*
X22963Y21743D01*
X22904Y21782D01*
X22835Y21796D01*
D02*
G37*
%LPD*%
G36*
X18603Y22279D02*
X18674Y22250D01*
X18735Y22203D01*
X18781Y22142D01*
X18810Y22072D01*
X18820Y21996D01*
X18810Y21920D01*
X18781Y21850D01*
X18735Y21789D01*
X18674Y21742D01*
X18603Y21713D01*
X18528Y21703D01*
X18452Y21713D01*
X18381Y21742D01*
X18320Y21789D01*
X18274Y21850D01*
X18245Y21920D01*
X18235Y21996D01*
X18245Y22072D01*
X18274Y22142D01*
X18320Y22203D01*
X18381Y22250D01*
X18452Y22279D01*
X18528Y22289D01*
X18603Y22279D01*
D02*
G37*
G36*
X17603D02*
X17674Y22250D01*
X17735Y22203D01*
X17781Y22142D01*
X17810Y22072D01*
X17820Y21996D01*
X17810Y21920D01*
X17781Y21850D01*
X17735Y21789D01*
X17674Y21742D01*
X17603Y21713D01*
X17528Y21703D01*
X17452Y21713D01*
X17381Y21742D01*
X17320Y21789D01*
X17274Y21850D01*
X17245Y21920D01*
X17235Y21996D01*
X17245Y22072D01*
X17274Y22142D01*
X17320Y22203D01*
X17381Y22250D01*
X17452Y22279D01*
X17528Y22289D01*
X17603Y22279D01*
D02*
G37*
%LPC*%
G36*
X58850Y36678D02*
X58732Y36662D01*
X58622Y36617D01*
X58527Y36544D01*
X58454Y36449D01*
X58408Y36339D01*
X58393Y36220D01*
X58408Y36102D01*
X58454Y35992D01*
X58527Y35897D01*
X58622Y35824D01*
X58732Y35778D01*
X58850Y35763D01*
X58969Y35778D01*
X59079Y35824D01*
X59174Y35897D01*
X59247Y35992D01*
X59293Y36102D01*
X59308Y36220D01*
X59293Y36339D01*
X59247Y36449D01*
X59174Y36544D01*
X59079Y36617D01*
X58969Y36662D01*
X58850Y36678D01*
D02*
G37*
G36*
X60826Y36241D02*
X60748Y36231D01*
X60676Y36201D01*
X60614Y36153D01*
X60567Y36091D01*
X60537Y36019D01*
X60527Y35942D01*
X60537Y35865D01*
X60567Y35793D01*
X60614Y35731D01*
X60676Y35683D01*
X60748Y35654D01*
X60826Y35643D01*
X60903Y35654D01*
X60975Y35683D01*
X61037Y35731D01*
X61084Y35793D01*
X61114Y35865D01*
X61124Y35942D01*
X61114Y36019D01*
X61084Y36091D01*
X61037Y36153D01*
X60975Y36201D01*
X60903Y36231D01*
X60826Y36241D01*
D02*
G37*
G36*
X60039Y35008D02*
X59970Y34994D01*
X59911Y34955D01*
X59872Y34896D01*
X59858Y34826D01*
X59872Y34757D01*
X59911Y34698D01*
X59970Y34659D01*
X60039Y34645D01*
X60109Y34659D01*
X60168Y34698D01*
X60207Y34757D01*
X60221Y34826D01*
X60207Y34896D01*
X60168Y34955D01*
X60109Y34994D01*
X60039Y35008D01*
D02*
G37*
G36*
X52487Y34694D02*
X52370Y34683D01*
X52259Y34649D01*
X52156Y34594D01*
X52143Y34584D01*
X52487Y34241D01*
X52830Y34584D01*
X52817Y34594D01*
X52714Y34649D01*
X52603Y34683D01*
X52487Y34694D01*
D02*
G37*
G36*
X52971Y34442D02*
X52628Y34099D01*
X52971Y33756D01*
X52981Y33769D01*
X53036Y33871D01*
X53070Y33983D01*
X53082Y34099D01*
X53070Y34215D01*
X53036Y34327D01*
X52981Y34430D01*
X52971Y34442D01*
D02*
G37*
G36*
X52002Y34442D02*
X51992Y34430D01*
X51937Y34327D01*
X51903Y34215D01*
X51892Y34099D01*
X51903Y33983D01*
X51937Y33871D01*
X51992Y33769D01*
X52002Y33756D01*
X52345Y34099D01*
X52002Y34442D01*
D02*
G37*
G36*
X58143Y34656D02*
X57999Y34637D01*
X57865Y34581D01*
X57750Y34493D01*
X57661Y34378D01*
X57605Y34243D01*
X57586Y34099D01*
X57605Y33955D01*
X57661Y33821D01*
X57750Y33705D01*
X57865Y33617D01*
X57999Y33561D01*
X58143Y33542D01*
X58288Y33561D01*
X58422Y33617D01*
X58537Y33705D01*
X58626Y33821D01*
X58681Y33955D01*
X58700Y34099D01*
X58681Y34243D01*
X58626Y34378D01*
X58537Y34493D01*
X58422Y34581D01*
X58288Y34637D01*
X58143Y34656D01*
D02*
G37*
G36*
X52487Y33958D02*
X52143Y33615D01*
X52156Y33604D01*
X52259Y33549D01*
X52370Y33516D01*
X52487Y33504D01*
X52603Y33516D01*
X52714Y33549D01*
X52817Y33604D01*
X52830Y33615D01*
X52487Y33958D01*
D02*
G37*
G36*
X60512Y33213D02*
X60424Y33202D01*
X60354Y33173D01*
X60512Y33015D01*
X60669Y33173D01*
X60600Y33202D01*
X60512Y33213D01*
D02*
G37*
G36*
X60811Y33031D02*
X60653Y32874D01*
X60811Y32717D01*
X60839Y32786D01*
X60851Y32874D01*
X60839Y32962D01*
X60811Y33031D01*
D02*
G37*
G36*
X60213D02*
X60184Y32962D01*
X60173Y32874D01*
X60184Y32786D01*
X60213Y32717D01*
X60370Y32874D01*
X60213Y33031D01*
D02*
G37*
G36*
X60512Y32733D02*
X60354Y32575D01*
X60424Y32546D01*
X60512Y32535D01*
X60600Y32546D01*
X60669Y32575D01*
X60512Y32733D01*
D02*
G37*
G36*
X44351Y34173D02*
X44273Y34163D01*
X44201Y34133D01*
X44139Y34085D01*
X44092Y34024D01*
X44062Y33952D01*
X44052Y33874D01*
X44062Y33797D01*
X44092Y33725D01*
X44139Y33663D01*
X44201Y33615D01*
X44273Y33586D01*
X44351Y33575D01*
X44428Y33586D01*
X44500Y33615D01*
X44562Y33663D01*
X44609Y33725D01*
X44639Y33797D01*
X44649Y33874D01*
X44639Y33952D01*
X44609Y34024D01*
X44562Y34085D01*
X44500Y34133D01*
X44428Y34163D01*
X44351Y34173D01*
D02*
G37*
G36*
X39528Y33974D02*
X39430Y33961D01*
X39338Y33924D01*
X39260Y33863D01*
X39200Y33785D01*
X39162Y33694D01*
X39149Y33596D01*
X39162Y33498D01*
X39200Y33407D01*
X39260Y33329D01*
X39338Y33269D01*
X39430Y33231D01*
X39528Y33218D01*
X39625Y33231D01*
X39717Y33269D01*
X39795Y33329D01*
X39855Y33407D01*
X39893Y33498D01*
X39906Y33596D01*
X39893Y33694D01*
X39855Y33785D01*
X39795Y33863D01*
X39717Y33924D01*
X39625Y33961D01*
X39528Y33974D01*
D02*
G37*
G36*
X42528Y33354D02*
X42435Y33342D01*
X42348Y33306D01*
X42274Y33249D01*
X42217Y33175D01*
X42181Y33089D01*
X42169Y32996D01*
X42181Y32903D01*
X42217Y32817D01*
X42274Y32743D01*
X42348Y32686D01*
X42435Y32650D01*
X42528Y32638D01*
X42620Y32650D01*
X42707Y32686D01*
X42781Y32743D01*
X42838Y32817D01*
X42874Y32903D01*
X42886Y32996D01*
X42874Y33089D01*
X42838Y33175D01*
X42781Y33249D01*
X42707Y33306D01*
X42620Y33342D01*
X42528Y33354D01*
D02*
G37*
G36*
X41528D02*
X41435Y33342D01*
X41348Y33306D01*
X41274Y33249D01*
X41217Y33175D01*
X41181Y33089D01*
X41169Y32996D01*
X41181Y32903D01*
X41217Y32817D01*
X41274Y32743D01*
X41348Y32686D01*
X41435Y32650D01*
X41528Y32638D01*
X41620Y32650D01*
X41707Y32686D01*
X41781Y32743D01*
X41838Y32817D01*
X41874Y32903D01*
X41886Y32996D01*
X41874Y33089D01*
X41838Y33175D01*
X41781Y33249D01*
X41707Y33306D01*
X41620Y33342D01*
X41528Y33354D01*
D02*
G37*
G36*
X38601Y32927D02*
X38532Y32914D01*
X38473Y32874D01*
X38434Y32815D01*
X38420Y32746D01*
X38434Y32676D01*
X38473Y32617D01*
X38532Y32578D01*
X38601Y32564D01*
X38671Y32578D01*
X38730Y32617D01*
X38769Y32676D01*
X38783Y32746D01*
X38769Y32815D01*
X38730Y32874D01*
X38671Y32914D01*
X38601Y32927D01*
D02*
G37*
G36*
X39528Y32974D02*
X39430Y32961D01*
X39338Y32924D01*
X39260Y32863D01*
X39200Y32785D01*
X39162Y32694D01*
X39149Y32596D01*
X39162Y32498D01*
X39200Y32407D01*
X39260Y32329D01*
X39338Y32269D01*
X39430Y32231D01*
X39528Y32218D01*
X39625Y32231D01*
X39717Y32269D01*
X39795Y32329D01*
X39855Y32407D01*
X39893Y32498D01*
X39906Y32596D01*
X39893Y32694D01*
X39855Y32785D01*
X39795Y32863D01*
X39717Y32924D01*
X39625Y32961D01*
X39528Y32974D01*
D02*
G37*
G36*
X37884Y32395D02*
X37814Y32381D01*
X37755Y32342D01*
X37716Y32283D01*
X37702Y32213D01*
X37716Y32144D01*
X37755Y32085D01*
X37814Y32045D01*
X37884Y32032D01*
X37953Y32045D01*
X38012Y32085D01*
X38052Y32144D01*
X38065Y32213D01*
X38052Y32283D01*
X38012Y32342D01*
X37953Y32381D01*
X37884Y32395D01*
D02*
G37*
G36*
X35849Y32389D02*
X35779Y32375D01*
X35720Y32335D01*
X35681Y32277D01*
X35667Y32207D01*
X35681Y32138D01*
X35720Y32079D01*
X35779Y32039D01*
X35849Y32025D01*
X35918Y32039D01*
X35977Y32079D01*
X36016Y32138D01*
X36030Y32207D01*
X36016Y32277D01*
X35977Y32335D01*
X35918Y32375D01*
X35849Y32389D01*
D02*
G37*
G36*
X42528Y32354D02*
X42435Y32342D01*
X42348Y32306D01*
X42274Y32249D01*
X42217Y32175D01*
X42181Y32089D01*
X42169Y31996D01*
X42181Y31903D01*
X42217Y31817D01*
X42274Y31743D01*
X42348Y31686D01*
X42435Y31650D01*
X42528Y31638D01*
X42620Y31650D01*
X42707Y31686D01*
X42781Y31743D01*
X42838Y31817D01*
X42874Y31903D01*
X42886Y31996D01*
X42874Y32089D01*
X42838Y32175D01*
X42781Y32249D01*
X42707Y32306D01*
X42620Y32342D01*
X42528Y32354D01*
D02*
G37*
G36*
X41528D02*
X41435Y32342D01*
X41348Y32306D01*
X41274Y32249D01*
X41217Y32175D01*
X41181Y32089D01*
X41169Y31996D01*
X41181Y31903D01*
X41217Y31817D01*
X41274Y31743D01*
X41348Y31686D01*
X41435Y31650D01*
X41528Y31638D01*
X41620Y31650D01*
X41707Y31686D01*
X41781Y31743D01*
X41838Y31817D01*
X41874Y31903D01*
X41886Y31996D01*
X41874Y32089D01*
X41838Y32175D01*
X41781Y32249D01*
X41707Y32306D01*
X41620Y32342D01*
X41528Y32354D01*
D02*
G37*
G36*
X35827Y31778D02*
X35757Y31764D01*
X35698Y31724D01*
X35659Y31666D01*
X35645Y31596D01*
X35659Y31527D01*
X35698Y31468D01*
X35757Y31428D01*
X35827Y31414D01*
X35896Y31428D01*
X35955Y31468D01*
X35995Y31527D01*
X36008Y31596D01*
X35995Y31666D01*
X35955Y31724D01*
X35896Y31764D01*
X35827Y31778D01*
D02*
G37*
G36*
X38494Y31764D02*
X38425Y31750D01*
X38366Y31711D01*
X38326Y31652D01*
X38312Y31582D01*
X38326Y31513D01*
X38366Y31454D01*
X38425Y31415D01*
X38494Y31401D01*
X38564Y31415D01*
X38623Y31454D01*
X38662Y31513D01*
X38676Y31582D01*
X38662Y31652D01*
X38623Y31711D01*
X38564Y31750D01*
X38494Y31764D01*
D02*
G37*
G36*
X39903Y31971D02*
X39153D01*
Y31221D01*
X39903D01*
Y31971D01*
D02*
G37*
G36*
X34449Y31087D02*
X34379Y31073D01*
X34320Y31034D01*
X34281Y30975D01*
X34267Y30906D01*
X34281Y30836D01*
X34320Y30777D01*
X34379Y30738D01*
X34449Y30724D01*
X34518Y30738D01*
X34577Y30777D01*
X34617Y30836D01*
X34630Y30906D01*
X34617Y30975D01*
X34577Y31034D01*
X34518Y31073D01*
X34449Y31087D01*
D02*
G37*
G36*
X42528Y31354D02*
X42435Y31342D01*
X42348Y31306D01*
X42274Y31249D01*
X42217Y31175D01*
X42181Y31089D01*
X42169Y30996D01*
X42181Y30903D01*
X42217Y30817D01*
X42274Y30743D01*
X42348Y30686D01*
X42435Y30650D01*
X42528Y30638D01*
X42620Y30650D01*
X42707Y30686D01*
X42781Y30743D01*
X42838Y30817D01*
X42874Y30903D01*
X42886Y30996D01*
X42874Y31089D01*
X42838Y31175D01*
X42781Y31249D01*
X42707Y31306D01*
X42620Y31342D01*
X42528Y31354D01*
D02*
G37*
G36*
X41528D02*
X41435Y31342D01*
X41348Y31306D01*
X41274Y31249D01*
X41217Y31175D01*
X41181Y31089D01*
X41169Y30996D01*
X41181Y30903D01*
X41217Y30817D01*
X41274Y30743D01*
X41348Y30686D01*
X41435Y30650D01*
X41528Y30638D01*
X41620Y30650D01*
X41707Y30686D01*
X41781Y30743D01*
X41838Y30817D01*
X41874Y30903D01*
X41886Y30996D01*
X41874Y31089D01*
X41838Y31175D01*
X41781Y31249D01*
X41707Y31306D01*
X41620Y31342D01*
X41528Y31354D01*
D02*
G37*
G36*
X37884Y30986D02*
X37814Y30972D01*
X37755Y30933D01*
X37716Y30874D01*
X37702Y30805D01*
X37716Y30735D01*
X37755Y30676D01*
X37814Y30637D01*
X37884Y30623D01*
X37953Y30637D01*
X38012Y30676D01*
X38052Y30735D01*
X38065Y30805D01*
X38052Y30874D01*
X38012Y30933D01*
X37953Y30972D01*
X37884Y30986D01*
D02*
G37*
G36*
X34782Y30574D02*
X34713Y30560D01*
X34654Y30521D01*
X34615Y30462D01*
X34601Y30392D01*
X34615Y30323D01*
X34654Y30264D01*
X34713Y30224D01*
X34782Y30211D01*
X34852Y30224D01*
X34911Y30264D01*
X34950Y30323D01*
X34964Y30392D01*
X34950Y30462D01*
X34911Y30521D01*
X34852Y30560D01*
X34782Y30574D01*
D02*
G37*
G36*
X35827Y30614D02*
X35749Y30604D01*
X35677Y30574D01*
X35616Y30526D01*
X35568Y30464D01*
X35538Y30392D01*
X35528Y30315D01*
X35538Y30238D01*
X35568Y30166D01*
X35616Y30104D01*
X35677Y30056D01*
X35749Y30026D01*
X35827Y30016D01*
X35904Y30026D01*
X35976Y30056D01*
X36038Y30104D01*
X36086Y30166D01*
X36115Y30238D01*
X36126Y30315D01*
X36115Y30392D01*
X36086Y30464D01*
X36038Y30526D01*
X35976Y30574D01*
X35904Y30604D01*
X35827Y30614D01*
D02*
G37*
G36*
X34252Y27150D02*
X34182Y27136D01*
X34124Y27097D01*
X34084Y27038D01*
X34070Y26969D01*
X34084Y26899D01*
X34124Y26840D01*
X34182Y26801D01*
X34252Y26787D01*
X34321Y26801D01*
X34380Y26840D01*
X34420Y26899D01*
X34434Y26969D01*
X34420Y27038D01*
X34380Y27097D01*
X34321Y27136D01*
X34252Y27150D01*
D02*
G37*
G36*
X29134Y25772D02*
X29064Y25758D01*
X29005Y25719D01*
X28966Y25660D01*
X28952Y25591D01*
X28966Y25521D01*
X29005Y25462D01*
X29064Y25423D01*
X29134Y25409D01*
X29203Y25423D01*
X29262Y25462D01*
X29302Y25521D01*
X29315Y25591D01*
X29302Y25660D01*
X29262Y25719D01*
X29203Y25758D01*
X29134Y25772D01*
D02*
G37*
G36*
Y24985D02*
X29064Y24971D01*
X29005Y24932D01*
X28966Y24873D01*
X28952Y24803D01*
X28966Y24734D01*
X29005Y24675D01*
X29064Y24635D01*
X29134Y24622D01*
X29203Y24635D01*
X29262Y24675D01*
X29302Y24734D01*
X29315Y24803D01*
X29302Y24873D01*
X29262Y24932D01*
X29203Y24971D01*
X29134Y24985D01*
D02*
G37*
G36*
X28346D02*
X28277Y24971D01*
X28218Y24932D01*
X28179Y24873D01*
X28165Y24803D01*
X28179Y24734D01*
X28218Y24675D01*
X28277Y24635D01*
X28346Y24622D01*
X28416Y24635D01*
X28475Y24675D01*
X28514Y24734D01*
X28528Y24803D01*
X28514Y24873D01*
X28475Y24932D01*
X28416Y24971D01*
X28346Y24985D01*
D02*
G37*
G36*
Y24197D02*
X28277Y24184D01*
X28218Y24144D01*
X28179Y24085D01*
X28165Y24016D01*
X28179Y23946D01*
X28218Y23887D01*
X28277Y23848D01*
X28346Y23834D01*
X28416Y23848D01*
X28475Y23887D01*
X28514Y23946D01*
X28528Y24016D01*
X28514Y24085D01*
X28475Y24144D01*
X28416Y24184D01*
X28346Y24197D01*
D02*
G37*
G36*
X29528Y22663D02*
X29443Y22646D01*
X29371Y22598D01*
X29323Y22526D01*
X29306Y22441D01*
X29323Y22356D01*
X29371Y22284D01*
X29443Y22236D01*
X29528Y22219D01*
X29612Y22236D01*
X29684Y22284D01*
X29732Y22356D01*
X29749Y22441D01*
X29732Y22526D01*
X29684Y22598D01*
X29612Y22646D01*
X29528Y22663D01*
D02*
G37*
G36*
X28740D02*
X28655Y22646D01*
X28583Y22598D01*
X28535Y22526D01*
X28518Y22441D01*
X28535Y22356D01*
X28583Y22284D01*
X28655Y22236D01*
X28740Y22219D01*
X28825Y22236D01*
X28897Y22284D01*
X28945Y22356D01*
X28962Y22441D01*
X28945Y22526D01*
X28897Y22598D01*
X28825Y22646D01*
X28740Y22663D01*
D02*
G37*
G36*
X26969Y22497D02*
X26899Y22484D01*
X26840Y22444D01*
X26801Y22385D01*
X26787Y22316D01*
X26801Y22246D01*
X26840Y22187D01*
X26899Y22148D01*
X26969Y22134D01*
X27038Y22148D01*
X27097Y22187D01*
X27136Y22246D01*
X27150Y22316D01*
X27136Y22385D01*
X27097Y22444D01*
X27038Y22484D01*
X26969Y22497D01*
D02*
G37*
G36*
X25984D02*
X25915Y22484D01*
X25856Y22444D01*
X25816Y22385D01*
X25803Y22316D01*
X25816Y22246D01*
X25856Y22187D01*
X25915Y22148D01*
X25984Y22134D01*
X26054Y22148D01*
X26113Y22187D01*
X26152Y22246D01*
X26166Y22316D01*
X26152Y22385D01*
X26113Y22444D01*
X26054Y22484D01*
X25984Y22497D01*
D02*
G37*
G36*
X29134Y22269D02*
X29049Y22252D01*
X28977Y22204D01*
X28929Y22132D01*
X28912Y22047D01*
X28929Y21962D01*
X28977Y21890D01*
X29049Y21842D01*
X29134Y21826D01*
X29219Y21842D01*
X29291Y21890D01*
X29339Y21962D01*
X29356Y22047D01*
X29339Y22132D01*
X29291Y22204D01*
X29219Y22252D01*
X29134Y22269D01*
D02*
G37*
G36*
X25197Y22032D02*
X25127Y22018D01*
X25068Y21979D01*
X25029Y21920D01*
X25015Y21850D01*
X25029Y21781D01*
X25068Y21722D01*
X25127Y21683D01*
X25197Y21669D01*
X25266Y21683D01*
X25325Y21722D01*
X25365Y21781D01*
X25378Y21850D01*
X25365Y21920D01*
X25325Y21979D01*
X25266Y22018D01*
X25197Y22032D01*
D02*
G37*
G36*
X28740Y21875D02*
X28655Y21858D01*
X28583Y21810D01*
X28535Y21738D01*
X28518Y21654D01*
X28535Y21569D01*
X28583Y21497D01*
X28655Y21449D01*
X28740Y21432D01*
X28825Y21449D01*
X28897Y21497D01*
X28945Y21569D01*
X28962Y21654D01*
X28945Y21738D01*
X28897Y21810D01*
X28825Y21858D01*
X28740Y21875D01*
D02*
G37*
G36*
X17126Y20260D02*
X17056Y20247D01*
X16998Y20207D01*
X16958Y20148D01*
X16944Y20079D01*
X16958Y20009D01*
X16998Y19950D01*
X17056Y19911D01*
X17126Y19897D01*
X17195Y19911D01*
X17254Y19950D01*
X17294Y20009D01*
X17308Y20079D01*
X17294Y20148D01*
X17254Y20207D01*
X17195Y20247D01*
X17126Y20260D01*
D02*
G37*
G36*
X46680Y34032D02*
X46523Y33874D01*
X46680Y33717D01*
X46709Y33786D01*
X46721Y33874D01*
X46709Y33962D01*
X46680Y34032D01*
D02*
G37*
G36*
X43136Y29630D02*
X43066Y29617D01*
X43007Y29577D01*
X42968Y29518D01*
X42954Y29449D01*
X42968Y29379D01*
X43007Y29320D01*
X43066Y29281D01*
X43136Y29267D01*
X43205Y29281D01*
X43264Y29320D01*
X43304Y29379D01*
X43317Y29449D01*
X43304Y29518D01*
X43264Y29577D01*
X43205Y29617D01*
X43136Y29630D01*
D02*
G37*
G36*
X42528Y29354D02*
X42435Y29342D01*
X42348Y29306D01*
X42274Y29249D01*
X42217Y29175D01*
X42181Y29089D01*
X42169Y28996D01*
X42181Y28903D01*
X42217Y28817D01*
X42274Y28743D01*
X42348Y28686D01*
X42435Y28650D01*
X42528Y28638D01*
X42620Y28650D01*
X42707Y28686D01*
X42781Y28743D01*
X42838Y28817D01*
X42874Y28903D01*
X42886Y28996D01*
X42874Y29089D01*
X42838Y29175D01*
X42781Y29249D01*
X42707Y29306D01*
X42620Y29342D01*
X42528Y29354D01*
D02*
G37*
G36*
X41528D02*
X41435Y29342D01*
X41348Y29306D01*
X41274Y29249D01*
X41217Y29175D01*
X41181Y29089D01*
X41169Y28996D01*
X41181Y28903D01*
X41217Y28817D01*
X41274Y28743D01*
X41348Y28686D01*
X41435Y28650D01*
X41528Y28638D01*
X41620Y28650D01*
X41707Y28686D01*
X41781Y28743D01*
X41838Y28817D01*
X41874Y28903D01*
X41886Y28996D01*
X41874Y29089D01*
X41838Y29175D01*
X41781Y29249D01*
X41707Y29306D01*
X41620Y29342D01*
X41528Y29354D01*
D02*
G37*
G36*
X39528Y29374D02*
X39430Y29361D01*
X39338Y29324D01*
X39260Y29263D01*
X39200Y29185D01*
X39162Y29094D01*
X39149Y28996D01*
X39162Y28898D01*
X39200Y28807D01*
X39260Y28729D01*
X39338Y28669D01*
X39430Y28631D01*
X39528Y28618D01*
X39625Y28631D01*
X39717Y28669D01*
X39795Y28729D01*
X39855Y28807D01*
X39893Y28898D01*
X39906Y28996D01*
X39893Y29094D01*
X39855Y29185D01*
X39795Y29263D01*
X39717Y29324D01*
X39625Y29361D01*
X39528Y29374D01*
D02*
G37*
G36*
X42528Y28354D02*
X42435Y28342D01*
X42348Y28306D01*
X42274Y28249D01*
X42217Y28175D01*
X42181Y28089D01*
X42169Y27996D01*
X42181Y27903D01*
X42217Y27817D01*
X42274Y27743D01*
X42348Y27686D01*
X42435Y27650D01*
X42528Y27638D01*
X42620Y27650D01*
X42707Y27686D01*
X42781Y27743D01*
X42838Y27817D01*
X42874Y27903D01*
X42886Y27996D01*
X42874Y28089D01*
X42838Y28175D01*
X42781Y28249D01*
X42707Y28306D01*
X42620Y28342D01*
X42528Y28354D01*
D02*
G37*
G36*
X41528D02*
X41435Y28342D01*
X41348Y28306D01*
X41274Y28249D01*
X41217Y28175D01*
X41181Y28089D01*
X41169Y27996D01*
X41181Y27903D01*
X41217Y27817D01*
X41274Y27743D01*
X41348Y27686D01*
X41435Y27650D01*
X41528Y27638D01*
X41620Y27650D01*
X41707Y27686D01*
X41781Y27743D01*
X41838Y27817D01*
X41874Y27903D01*
X41886Y27996D01*
X41874Y28089D01*
X41838Y28175D01*
X41781Y28249D01*
X41707Y28306D01*
X41620Y28342D01*
X41528Y28354D01*
D02*
G37*
G36*
X39528Y28374D02*
X39430Y28361D01*
X39338Y28324D01*
X39260Y28263D01*
X39200Y28185D01*
X39162Y28094D01*
X39149Y27996D01*
X39162Y27898D01*
X39200Y27807D01*
X39260Y27729D01*
X39338Y27669D01*
X39430Y27631D01*
X39528Y27618D01*
X39625Y27631D01*
X39717Y27669D01*
X39795Y27729D01*
X39855Y27807D01*
X39893Y27898D01*
X39906Y27996D01*
X39893Y28094D01*
X39855Y28185D01*
X39795Y28263D01*
X39717Y28324D01*
X39625Y28361D01*
X39528Y28374D01*
D02*
G37*
G36*
X37008Y27411D02*
X36938Y27397D01*
X36879Y27357D01*
X36840Y27299D01*
X36826Y27229D01*
X36840Y27160D01*
X36879Y27101D01*
X36938Y27061D01*
X37008Y27047D01*
X37077Y27061D01*
X37136Y27101D01*
X37176Y27160D01*
X37189Y27229D01*
X37176Y27299D01*
X37136Y27357D01*
X37077Y27397D01*
X37008Y27411D01*
D02*
G37*
G36*
X37884Y27178D02*
X37814Y27164D01*
X37755Y27124D01*
X37716Y27066D01*
X37702Y26996D01*
X37716Y26927D01*
X37755Y26868D01*
X37814Y26828D01*
X37884Y26814D01*
X37953Y26828D01*
X38012Y26868D01*
X38052Y26927D01*
X38065Y26996D01*
X38052Y27066D01*
X38012Y27124D01*
X37953Y27164D01*
X37884Y27178D01*
D02*
G37*
G36*
X42528Y27354D02*
X42435Y27342D01*
X42348Y27306D01*
X42274Y27249D01*
X42217Y27175D01*
X42181Y27089D01*
X42169Y26996D01*
X42181Y26903D01*
X42217Y26817D01*
X42274Y26743D01*
X42348Y26686D01*
X42435Y26650D01*
X42528Y26638D01*
X42620Y26650D01*
X42707Y26686D01*
X42781Y26743D01*
X42838Y26817D01*
X42874Y26903D01*
X42886Y26996D01*
X42874Y27089D01*
X42838Y27175D01*
X42781Y27249D01*
X42707Y27306D01*
X42620Y27342D01*
X42528Y27354D01*
D02*
G37*
G36*
X41528D02*
X41435Y27342D01*
X41348Y27306D01*
X41274Y27249D01*
X41217Y27175D01*
X41181Y27089D01*
X41169Y26996D01*
X41181Y26903D01*
X41217Y26817D01*
X41274Y26743D01*
X41348Y26686D01*
X41435Y26650D01*
X41528Y26638D01*
X41620Y26650D01*
X41707Y26686D01*
X41781Y26743D01*
X41838Y26817D01*
X41874Y26903D01*
X41886Y26996D01*
X41874Y27089D01*
X41838Y27175D01*
X41781Y27249D01*
X41707Y27306D01*
X41620Y27342D01*
X41528Y27354D01*
D02*
G37*
G36*
X39528Y27374D02*
X39430Y27361D01*
X39338Y27324D01*
X39260Y27263D01*
X39200Y27185D01*
X39162Y27094D01*
X39149Y26996D01*
X39162Y26898D01*
X39200Y26807D01*
X39260Y26729D01*
X39338Y26669D01*
X39430Y26631D01*
X39528Y26618D01*
X39625Y26631D01*
X39717Y26669D01*
X39795Y26729D01*
X39855Y26807D01*
X39893Y26898D01*
X39906Y26996D01*
X39893Y27094D01*
X39855Y27185D01*
X39795Y27263D01*
X39717Y27324D01*
X39625Y27361D01*
X39528Y27374D01*
D02*
G37*
G36*
X42528Y26354D02*
X42435Y26342D01*
X42348Y26306D01*
X42274Y26249D01*
X42217Y26175D01*
X42181Y26089D01*
X42169Y25996D01*
X42181Y25903D01*
X42217Y25817D01*
X42274Y25743D01*
X42348Y25686D01*
X42435Y25650D01*
X42528Y25638D01*
X42620Y25650D01*
X42707Y25686D01*
X42781Y25743D01*
X42838Y25817D01*
X42874Y25903D01*
X42886Y25996D01*
X42874Y26089D01*
X42838Y26175D01*
X42781Y26249D01*
X42707Y26306D01*
X42620Y26342D01*
X42528Y26354D01*
D02*
G37*
G36*
X41528D02*
X41435Y26342D01*
X41348Y26306D01*
X41274Y26249D01*
X41217Y26175D01*
X41181Y26089D01*
X41169Y25996D01*
X41181Y25903D01*
X41217Y25817D01*
X41274Y25743D01*
X41348Y25686D01*
X41435Y25650D01*
X41528Y25638D01*
X41620Y25650D01*
X41707Y25686D01*
X41781Y25743D01*
X41838Y25817D01*
X41874Y25903D01*
X41886Y25996D01*
X41874Y26089D01*
X41838Y26175D01*
X41781Y26249D01*
X41707Y26306D01*
X41620Y26342D01*
X41528Y26354D01*
D02*
G37*
G36*
X39528Y26374D02*
X39430Y26361D01*
X39338Y26324D01*
X39260Y26263D01*
X39200Y26185D01*
X39162Y26094D01*
X39149Y25996D01*
X39162Y25898D01*
X39200Y25807D01*
X39260Y25729D01*
X39338Y25669D01*
X39430Y25631D01*
X39528Y25618D01*
X39625Y25631D01*
X39717Y25669D01*
X39795Y25729D01*
X39855Y25807D01*
X39893Y25898D01*
X39906Y25996D01*
X39893Y26094D01*
X39855Y26185D01*
X39795Y26263D01*
X39717Y26324D01*
X39625Y26361D01*
X39528Y26374D01*
D02*
G37*
G36*
X35433Y25772D02*
X35364Y25758D01*
X35305Y25719D01*
X35265Y25660D01*
X35251Y25591D01*
X35265Y25521D01*
X35305Y25462D01*
X35364Y25423D01*
X35433Y25409D01*
X35503Y25423D01*
X35561Y25462D01*
X35601Y25521D01*
X35615Y25591D01*
X35601Y25660D01*
X35561Y25719D01*
X35503Y25758D01*
X35433Y25772D01*
D02*
G37*
G36*
X37008Y25305D02*
X36938Y25291D01*
X36879Y25252D01*
X36840Y25193D01*
X36826Y25123D01*
X36840Y25054D01*
X36879Y24995D01*
X36938Y24955D01*
X37008Y24942D01*
X37077Y24955D01*
X37136Y24995D01*
X37176Y25054D01*
X37189Y25123D01*
X37176Y25193D01*
X37136Y25252D01*
X37077Y25291D01*
X37008Y25305D01*
D02*
G37*
G36*
X42528Y25354D02*
X42435Y25342D01*
X42348Y25306D01*
X42274Y25249D01*
X42217Y25175D01*
X42181Y25089D01*
X42169Y24996D01*
X42181Y24903D01*
X42217Y24817D01*
X42274Y24743D01*
X42348Y24686D01*
X42435Y24650D01*
X42528Y24638D01*
X42620Y24650D01*
X42707Y24686D01*
X42781Y24743D01*
X42838Y24817D01*
X42874Y24903D01*
X42886Y24996D01*
X42874Y25089D01*
X42838Y25175D01*
X42781Y25249D01*
X42707Y25306D01*
X42620Y25342D01*
X42528Y25354D01*
D02*
G37*
G36*
X41528D02*
X41435Y25342D01*
X41348Y25306D01*
X41274Y25249D01*
X41217Y25175D01*
X41181Y25089D01*
X41169Y24996D01*
X41181Y24903D01*
X41217Y24817D01*
X41274Y24743D01*
X41348Y24686D01*
X41435Y24650D01*
X41528Y24638D01*
X41620Y24650D01*
X41707Y24686D01*
X41781Y24743D01*
X41838Y24817D01*
X41874Y24903D01*
X41886Y24996D01*
X41874Y25089D01*
X41838Y25175D01*
X41781Y25249D01*
X41707Y25306D01*
X41620Y25342D01*
X41528Y25354D01*
D02*
G37*
G36*
X39528Y25374D02*
X39430Y25361D01*
X39338Y25324D01*
X39260Y25263D01*
X39200Y25185D01*
X39162Y25094D01*
X39149Y24996D01*
X39162Y24898D01*
X39200Y24807D01*
X39260Y24729D01*
X39338Y24669D01*
X39430Y24631D01*
X39528Y24618D01*
X39625Y24631D01*
X39717Y24669D01*
X39795Y24729D01*
X39855Y24807D01*
X39893Y24898D01*
X39906Y24996D01*
X39893Y25094D01*
X39855Y25185D01*
X39795Y25263D01*
X39717Y25324D01*
X39625Y25361D01*
X39528Y25374D01*
D02*
G37*
G36*
X37884Y24653D02*
X37814Y24639D01*
X37755Y24600D01*
X37716Y24541D01*
X37702Y24471D01*
X37716Y24402D01*
X37755Y24343D01*
X37814Y24303D01*
X37884Y24290D01*
X37953Y24303D01*
X38012Y24343D01*
X38052Y24402D01*
X38065Y24471D01*
X38052Y24541D01*
X38012Y24600D01*
X37953Y24639D01*
X37884Y24653D01*
D02*
G37*
G36*
X34087Y24623D02*
X34018Y24609D01*
X33959Y24570D01*
X33919Y24511D01*
X33906Y24442D01*
X33919Y24372D01*
X33959Y24313D01*
X34018Y24274D01*
X34087Y24260D01*
X34157Y24274D01*
X34216Y24313D01*
X34255Y24372D01*
X34269Y24442D01*
X34255Y24511D01*
X34216Y24570D01*
X34157Y24609D01*
X34087Y24623D01*
D02*
G37*
G36*
X9937Y28485D02*
X9868Y28472D01*
X9809Y28432D01*
X9769Y28373D01*
X9756Y28304D01*
X9769Y28234D01*
X9809Y28175D01*
X9868Y28136D01*
X9937Y28122D01*
X10007Y28136D01*
X10066Y28175D01*
X10105Y28234D01*
X10119Y28304D01*
X10105Y28373D01*
X10066Y28432D01*
X10007Y28472D01*
X9937Y28485D01*
D02*
G37*
G36*
X9212D02*
X9142Y28472D01*
X9083Y28432D01*
X9044Y28373D01*
X9030Y28304D01*
X9044Y28234D01*
X9083Y28175D01*
X9142Y28136D01*
X9212Y28122D01*
X9281Y28136D01*
X9340Y28175D01*
X9379Y28234D01*
X9393Y28304D01*
X9379Y28373D01*
X9340Y28432D01*
X9281Y28472D01*
X9212Y28485D01*
D02*
G37*
G36*
X8477Y28233D02*
X8408Y28219D01*
X8349Y28180D01*
X8309Y28121D01*
X8295Y28051D01*
X8309Y27982D01*
X8349Y27923D01*
X8408Y27884D01*
X8477Y27870D01*
X8547Y27884D01*
X8605Y27923D01*
X8645Y27982D01*
X8659Y28051D01*
X8645Y28121D01*
X8605Y28180D01*
X8547Y28219D01*
X8477Y28233D01*
D02*
G37*
G36*
X4221Y27411D02*
X4151Y27397D01*
X4092Y27357D01*
X4053Y27298D01*
X4039Y27229D01*
X4053Y27159D01*
X4092Y27101D01*
X4151Y27061D01*
X4221Y27047D01*
X4290Y27061D01*
X4349Y27101D01*
X4388Y27159D01*
X4402Y27229D01*
X4388Y27298D01*
X4349Y27357D01*
X4290Y27397D01*
X4221Y27411D01*
D02*
G37*
G36*
X10263Y25772D02*
X10194Y25758D01*
X10135Y25719D01*
X10095Y25660D01*
X10081Y25591D01*
X10095Y25521D01*
X10135Y25462D01*
X10194Y25423D01*
X10263Y25409D01*
X10333Y25423D01*
X10391Y25462D01*
X10431Y25521D01*
X10445Y25591D01*
X10431Y25660D01*
X10391Y25719D01*
X10333Y25758D01*
X10263Y25772D01*
D02*
G37*
G36*
X9473Y25772D02*
X9403Y25758D01*
X9344Y25719D01*
X9305Y25660D01*
X9291Y25591D01*
X9305Y25521D01*
X9344Y25462D01*
X9403Y25423D01*
X9473Y25409D01*
X9542Y25423D01*
X9601Y25462D01*
X9640Y25521D01*
X9654Y25591D01*
X9640Y25660D01*
X9601Y25719D01*
X9542Y25758D01*
X9473Y25772D01*
D02*
G37*
G36*
X11071Y25769D02*
X11002Y25755D01*
X10943Y25716D01*
X10903Y25657D01*
X10890Y25587D01*
X10903Y25518D01*
X10943Y25459D01*
X11002Y25419D01*
X11071Y25406D01*
X11141Y25419D01*
X11200Y25459D01*
X11239Y25518D01*
X11253Y25587D01*
X11239Y25657D01*
X11200Y25716D01*
X11141Y25755D01*
X11071Y25769D01*
D02*
G37*
G36*
X6385Y25139D02*
X6316Y25125D01*
X6257Y25085D01*
X6218Y25027D01*
X6204Y24957D01*
X6218Y24888D01*
X6257Y24829D01*
X6316Y24789D01*
X6385Y24775D01*
X6455Y24789D01*
X6514Y24829D01*
X6553Y24888D01*
X6567Y24957D01*
X6553Y25027D01*
X6514Y25085D01*
X6455Y25125D01*
X6385Y25139D01*
D02*
G37*
G36*
X10263Y24985D02*
X10194Y24971D01*
X10135Y24932D01*
X10095Y24873D01*
X10081Y24803D01*
X10095Y24734D01*
X10135Y24675D01*
X10194Y24635D01*
X10263Y24622D01*
X10333Y24635D01*
X10391Y24675D01*
X10431Y24734D01*
X10445Y24803D01*
X10431Y24873D01*
X10391Y24932D01*
X10333Y24971D01*
X10263Y24985D01*
D02*
G37*
G36*
X9473D02*
X9403Y24971D01*
X9344Y24932D01*
X9305Y24873D01*
X9291Y24803D01*
X9305Y24734D01*
X9344Y24675D01*
X9403Y24635D01*
X9473Y24622D01*
X9542Y24635D01*
X9601Y24675D01*
X9640Y24734D01*
X9654Y24803D01*
X9640Y24873D01*
X9601Y24932D01*
X9542Y24971D01*
X9473Y24985D01*
D02*
G37*
G36*
X4236Y24184D02*
X4167Y24170D01*
X4108Y24131D01*
X4068Y24072D01*
X4054Y24002D01*
X4068Y23933D01*
X4108Y23874D01*
X4167Y23835D01*
X4236Y23821D01*
X4306Y23835D01*
X4364Y23874D01*
X4404Y23933D01*
X4418Y24002D01*
X4404Y24072D01*
X4364Y24131D01*
X4306Y24170D01*
X4236Y24184D01*
D02*
G37*
G36*
X10630Y22663D02*
X10545Y22646D01*
X10473Y22598D01*
X10425Y22526D01*
X10408Y22441D01*
X10425Y22356D01*
X10473Y22284D01*
X10545Y22236D01*
X10630Y22219D01*
X10715Y22236D01*
X10787Y22284D01*
X10835Y22356D01*
X10852Y22441D01*
X10835Y22526D01*
X10787Y22598D01*
X10715Y22646D01*
X10630Y22663D01*
D02*
G37*
G36*
X9843D02*
X9758Y22646D01*
X9686Y22598D01*
X9638Y22526D01*
X9621Y22441D01*
X9638Y22356D01*
X9686Y22284D01*
X9758Y22236D01*
X9843Y22219D01*
X9927Y22236D01*
X9999Y22284D01*
X10047Y22356D01*
X10064Y22441D01*
X10047Y22526D01*
X9999Y22598D01*
X9927Y22646D01*
X9843Y22663D01*
D02*
G37*
G36*
X8212Y22497D02*
X8142Y22484D01*
X8083Y22444D01*
X8044Y22385D01*
X8030Y22316D01*
X8044Y22246D01*
X8083Y22187D01*
X8142Y22148D01*
X8212Y22134D01*
X8281Y22148D01*
X8340Y22187D01*
X8379Y22246D01*
X8393Y22316D01*
X8379Y22385D01*
X8340Y22444D01*
X8281Y22484D01*
X8212Y22497D01*
D02*
G37*
G36*
X7087Y22469D02*
X7017Y22455D01*
X6958Y22416D01*
X6919Y22357D01*
X6905Y22288D01*
X6919Y22218D01*
X6958Y22159D01*
X7017Y22120D01*
X7087Y22106D01*
X7156Y22120D01*
X7215Y22159D01*
X7254Y22218D01*
X7268Y22288D01*
X7254Y22357D01*
X7215Y22416D01*
X7156Y22455D01*
X7087Y22469D01*
D02*
G37*
G36*
X10236Y22269D02*
X10151Y22252D01*
X10079Y22204D01*
X10031Y22132D01*
X10014Y22047D01*
X10031Y21962D01*
X10079Y21890D01*
X10151Y21842D01*
X10236Y21826D01*
X10321Y21842D01*
X10393Y21890D01*
X10441Y21962D01*
X10458Y22047D01*
X10441Y22132D01*
X10393Y22204D01*
X10321Y22252D01*
X10236Y22269D01*
D02*
G37*
G36*
X10630Y21875D02*
X10545Y21858D01*
X10473Y21810D01*
X10425Y21738D01*
X10408Y21654D01*
X10425Y21569D01*
X10473Y21497D01*
X10545Y21449D01*
X10630Y21432D01*
X10715Y21449D01*
X10787Y21497D01*
X10835Y21569D01*
X10852Y21654D01*
X10835Y21738D01*
X10787Y21810D01*
X10715Y21858D01*
X10630Y21875D01*
D02*
G37*
G36*
X9843D02*
X9758Y21858D01*
X9686Y21810D01*
X9638Y21738D01*
X9621Y21654D01*
X9638Y21569D01*
X9686Y21497D01*
X9758Y21449D01*
X9843Y21432D01*
X9927Y21449D01*
X9999Y21497D01*
X10047Y21569D01*
X10064Y21654D01*
X10047Y21738D01*
X9999Y21810D01*
X9927Y21858D01*
X9843Y21875D01*
D02*
G37*
G36*
X8830Y19985D02*
X8760Y19971D01*
X8737Y19955D01*
X8697Y19934D01*
X8657Y19955D01*
X8633Y19971D01*
X8564Y19985D01*
X8494Y19971D01*
X8435Y19932D01*
X8426D01*
X8367Y19971D01*
X8298Y19985D01*
X8228Y19971D01*
X8170Y19932D01*
X8130Y19873D01*
X8116Y19803D01*
X8130Y19734D01*
X8170Y19675D01*
X8228Y19635D01*
X8298Y19622D01*
X8367Y19635D01*
X8391Y19651D01*
X8431Y19672D01*
X8471Y19651D01*
X8494Y19635D01*
X8564Y19622D01*
X8633Y19635D01*
X8657Y19651D01*
X8697Y19672D01*
X8737Y19651D01*
X8760Y19635D01*
X8775Y19633D01*
Y19582D01*
X8766Y19580D01*
X8707Y19541D01*
X8668Y19482D01*
X8654Y19412D01*
X8668Y19343D01*
X8707Y19284D01*
X8766Y19244D01*
X8836Y19231D01*
X8905Y19244D01*
X8964Y19284D01*
X9004Y19343D01*
X9017Y19412D01*
X9004Y19482D01*
X8964Y19541D01*
X8905Y19580D01*
X8891Y19583D01*
Y19634D01*
X8899Y19635D01*
X8958Y19675D01*
X8998Y19734D01*
X9011Y19803D01*
X8998Y19873D01*
X8958Y19932D01*
X8899Y19971D01*
X8830Y19985D01*
D02*
G37*
G36*
X9303Y19987D02*
X9234Y19973D01*
X9175Y19934D01*
X9135Y19875D01*
X9122Y19805D01*
X9135Y19736D01*
X9175Y19677D01*
X9234Y19637D01*
X9303Y19624D01*
X9373Y19637D01*
X9432Y19677D01*
X9471Y19736D01*
X9485Y19805D01*
X9471Y19875D01*
X9432Y19934D01*
X9373Y19973D01*
X9303Y19987D01*
D02*
G37*
G36*
X6773Y20102D02*
X6695Y20092D01*
X6623Y20062D01*
X6561Y20014D01*
X6514Y19953D01*
X6484Y19880D01*
X6474Y19803D01*
X6484Y19726D01*
X6514Y19654D01*
X6561Y19592D01*
X6623Y19544D01*
X6695Y19515D01*
X6773Y19504D01*
X6850Y19515D01*
X6922Y19544D01*
X6984Y19592D01*
X7031Y19654D01*
X7061Y19726D01*
X7071Y19803D01*
X7061Y19880D01*
X7031Y19953D01*
X6984Y20014D01*
X6922Y20062D01*
X6850Y20092D01*
X6773Y20102D01*
D02*
G37*
G36*
X9299Y19575D02*
X9230Y19561D01*
X9171Y19521D01*
X9131Y19463D01*
X9118Y19393D01*
X9131Y19324D01*
X9171Y19265D01*
X9230Y19225D01*
X9299Y19211D01*
X9369Y19225D01*
X9428Y19265D01*
X9467Y19324D01*
X9481Y19393D01*
X9467Y19463D01*
X9428Y19521D01*
X9369Y19561D01*
X9299Y19575D01*
D02*
G37*
G36*
X32582Y19242D02*
X32513Y19228D01*
X32454Y19188D01*
X32415Y19129D01*
X32401Y19060D01*
X32415Y18990D01*
X32454Y18932D01*
X32513Y18892D01*
X32582Y18878D01*
X32652Y18892D01*
X32711Y18932D01*
X32750Y18990D01*
X32764Y19060D01*
X32750Y19129D01*
X32711Y19188D01*
X32652Y19228D01*
X32582Y19242D01*
D02*
G37*
G36*
X25887Y19079D02*
X25818Y19065D01*
X25759Y19026D01*
X25720Y18967D01*
X25706Y18898D01*
X25720Y18828D01*
X25759Y18769D01*
X25818Y18730D01*
X25887Y18716D01*
X25957Y18730D01*
X26016Y18769D01*
X26055Y18828D01*
X26069Y18898D01*
X26055Y18967D01*
X26016Y19026D01*
X25957Y19065D01*
X25887Y19079D01*
D02*
G37*
G36*
X6773Y19079D02*
X6703Y19065D01*
X6644Y19026D01*
X6605Y18967D01*
X6591Y18898D01*
X6605Y18828D01*
X6644Y18769D01*
X6703Y18730D01*
X6773Y18716D01*
X6842Y18730D01*
X6901Y18769D01*
X6940Y18828D01*
X6954Y18898D01*
X6940Y18967D01*
X6901Y19026D01*
X6842Y19065D01*
X6773Y19079D01*
D02*
G37*
G36*
X22735Y19043D02*
X22666Y19029D01*
X22607Y18990D01*
X22567Y18931D01*
X22554Y18861D01*
X22567Y18792D01*
X22607Y18733D01*
X22666Y18693D01*
X22735Y18680D01*
X22805Y18693D01*
X22864Y18733D01*
X22903Y18792D01*
X22917Y18861D01*
X22903Y18931D01*
X22864Y18990D01*
X22805Y19029D01*
X22735Y19043D01*
D02*
G37*
G36*
X44882Y19005D02*
X44812Y18992D01*
X44753Y18952D01*
X44714Y18893D01*
X44700Y18824D01*
X44714Y18754D01*
X44753Y18695D01*
X44812Y18656D01*
X44882Y18642D01*
X44951Y18656D01*
X45010Y18695D01*
X45050Y18754D01*
X45064Y18824D01*
X45050Y18893D01*
X45010Y18952D01*
X44951Y18992D01*
X44882Y19005D01*
D02*
G37*
G36*
X23260Y18900D02*
X23190Y18886D01*
X23131Y18846D01*
X23092Y18787D01*
X23078Y18718D01*
X23092Y18648D01*
X23131Y18590D01*
X23190Y18550D01*
X23260Y18536D01*
X23329Y18550D01*
X23388Y18590D01*
X23428Y18648D01*
X23441Y18718D01*
X23428Y18787D01*
X23388Y18846D01*
X23329Y18886D01*
X23260Y18900D01*
D02*
G37*
G36*
X41995Y18898D02*
X41925Y18884D01*
X41866Y18845D01*
X41827Y18786D01*
X41813Y18716D01*
X41827Y18647D01*
X41866Y18588D01*
X41925Y18549D01*
X41995Y18535D01*
X42064Y18549D01*
X42123Y18588D01*
X42162Y18647D01*
X42176Y18716D01*
X42162Y18786D01*
X42123Y18845D01*
X42064Y18884D01*
X41995Y18898D01*
D02*
G37*
G36*
X11739Y19258D02*
X11625Y19243D01*
X11519Y19199D01*
X11428Y19129D01*
X11358Y19038D01*
X11314Y18932D01*
X11299Y18818D01*
X11314Y18704D01*
X11358Y18598D01*
X11428Y18507D01*
X11519Y18437D01*
X11625Y18393D01*
X11739Y18378D01*
X11853Y18393D01*
X11959Y18437D01*
X12050Y18507D01*
X12120Y18598D01*
X12164Y18704D01*
X12179Y18818D01*
X12164Y18932D01*
X12120Y19038D01*
X12050Y19129D01*
X11959Y19199D01*
X11853Y19243D01*
X11739Y19258D01*
D02*
G37*
G36*
X51315Y18652D02*
X51246Y18638D01*
X51187Y18599D01*
X51147Y18540D01*
X51133Y18470D01*
X51147Y18401D01*
X51187Y18342D01*
X51246Y18302D01*
X51315Y18289D01*
X51385Y18302D01*
X51444Y18342D01*
X51483Y18401D01*
X51497Y18470D01*
X51483Y18540D01*
X51444Y18599D01*
X51385Y18638D01*
X51315Y18652D01*
D02*
G37*
G36*
X57087Y18643D02*
X57009Y18633D01*
X56937Y18603D01*
X56875Y18556D01*
X56828Y18494D01*
X56798Y18422D01*
X56788Y18344D01*
X56798Y18267D01*
X56828Y18195D01*
X56875Y18133D01*
X56937Y18085D01*
X57009Y18056D01*
X57087Y18045D01*
X57164Y18056D01*
X57236Y18085D01*
X57298Y18133D01*
X57345Y18195D01*
X57375Y18267D01*
X57385Y18344D01*
X57375Y18422D01*
X57345Y18494D01*
X57298Y18556D01*
X57236Y18603D01*
X57164Y18633D01*
X57087Y18643D01*
D02*
G37*
G36*
X54595Y18337D02*
X54517Y18326D01*
X54445Y18297D01*
X54383Y18249D01*
X54336Y18187D01*
X54306Y18115D01*
X54296Y18038D01*
X54306Y17960D01*
X54336Y17888D01*
X54383Y17827D01*
X54445Y17779D01*
X54517Y17749D01*
X54595Y17739D01*
X54672Y17749D01*
X54744Y17779D01*
X54806Y17827D01*
X54853Y17888D01*
X54883Y17960D01*
X54893Y18038D01*
X54883Y18115D01*
X54853Y18187D01*
X54806Y18249D01*
X54744Y18297D01*
X54672Y18326D01*
X54595Y18337D01*
D02*
G37*
G36*
X19941Y17946D02*
X19864Y17936D01*
X19792Y17906D01*
X19730Y17859D01*
X19682Y17797D01*
X19652Y17725D01*
X19642Y17648D01*
X19652Y17570D01*
X19682Y17498D01*
X19730Y17436D01*
X19792Y17389D01*
X19864Y17359D01*
X19941Y17349D01*
X20018Y17359D01*
X20090Y17389D01*
X20152Y17436D01*
X20200Y17498D01*
X20230Y17570D01*
X20240Y17648D01*
X20230Y17725D01*
X20200Y17797D01*
X20152Y17859D01*
X20090Y17906D01*
X20018Y17936D01*
X19941Y17946D01*
D02*
G37*
G36*
X21457Y17946D02*
X21379Y17936D01*
X21307Y17906D01*
X21245Y17859D01*
X21198Y17797D01*
X21168Y17725D01*
X21158Y17648D01*
X21168Y17570D01*
X21198Y17498D01*
X21245Y17436D01*
X21307Y17389D01*
X21379Y17359D01*
X21457Y17349D01*
X21534Y17359D01*
X21606Y17389D01*
X21668Y17436D01*
X21715Y17498D01*
X21745Y17570D01*
X21755Y17648D01*
X21745Y17725D01*
X21715Y17797D01*
X21668Y17859D01*
X21606Y17906D01*
X21534Y17936D01*
X21457Y17946D01*
D02*
G37*
G36*
X38691Y17920D02*
X38614Y17910D01*
X38542Y17880D01*
X38480Y17832D01*
X38432Y17770D01*
X38403Y17698D01*
X38392Y17621D01*
X38403Y17544D01*
X38432Y17472D01*
X38480Y17410D01*
X38542Y17362D01*
X38614Y17332D01*
X38691Y17322D01*
X38768Y17332D01*
X38840Y17362D01*
X38902Y17410D01*
X38950Y17472D01*
X38980Y17544D01*
X38990Y17621D01*
X38980Y17698D01*
X38950Y17770D01*
X38902Y17832D01*
X38840Y17880D01*
X38768Y17910D01*
X38691Y17920D01*
D02*
G37*
G36*
X40133Y17920D02*
X40055Y17910D01*
X39983Y17880D01*
X39921Y17832D01*
X39874Y17770D01*
X39844Y17698D01*
X39834Y17621D01*
X39844Y17544D01*
X39874Y17472D01*
X39921Y17410D01*
X39983Y17362D01*
X40055Y17332D01*
X40133Y17322D01*
X40210Y17332D01*
X40282Y17362D01*
X40344Y17410D01*
X40391Y17472D01*
X40421Y17544D01*
X40431Y17621D01*
X40421Y17698D01*
X40391Y17770D01*
X40344Y17832D01*
X40282Y17880D01*
X40210Y17910D01*
X40133Y17920D01*
D02*
G37*
G36*
X16058Y17504D02*
X15989Y17491D01*
X15930Y17451D01*
X15890Y17392D01*
X15876Y17323D01*
X15890Y17253D01*
X15930Y17194D01*
X15989Y17155D01*
X16058Y17141D01*
X16128Y17155D01*
X16187Y17194D01*
X16226Y17253D01*
X16240Y17323D01*
X16226Y17392D01*
X16187Y17451D01*
X16128Y17491D01*
X16058Y17504D01*
D02*
G37*
G36*
X53312Y17492D02*
X53243Y17478D01*
X53184Y17438D01*
X53145Y17379D01*
X53131Y17310D01*
X53145Y17240D01*
X53184Y17182D01*
X53243Y17142D01*
X53312Y17128D01*
X53382Y17142D01*
X53441Y17182D01*
X53480Y17240D01*
X53494Y17310D01*
X53480Y17379D01*
X53441Y17438D01*
X53382Y17478D01*
X53312Y17492D01*
D02*
G37*
G36*
X34886Y17456D02*
X34816Y17442D01*
X34757Y17403D01*
X34718Y17344D01*
X34704Y17274D01*
X34718Y17205D01*
X34757Y17146D01*
X34816Y17107D01*
X34886Y17093D01*
X34955Y17107D01*
X35014Y17146D01*
X35054Y17205D01*
X35067Y17274D01*
X35054Y17344D01*
X35014Y17403D01*
X34955Y17442D01*
X34886Y17456D01*
D02*
G37*
G36*
X56658Y17441D02*
X56580Y17430D01*
X56508Y17400D01*
X56447Y17353D01*
X56399Y17291D01*
X56369Y17219D01*
X56359Y17142D01*
X56369Y17064D01*
X56399Y16992D01*
X56447Y16930D01*
X56508Y16883D01*
X56580Y16853D01*
X56658Y16843D01*
X56735Y16853D01*
X56807Y16883D01*
X56869Y16930D01*
X56917Y16992D01*
X56946Y17064D01*
X56957Y17142D01*
X56946Y17219D01*
X56917Y17291D01*
X56869Y17353D01*
X56807Y17400D01*
X56735Y17430D01*
X56658Y17441D01*
D02*
G37*
G36*
X18620Y17071D02*
X18551Y17058D01*
X18492Y17018D01*
X18452Y16959D01*
X18438Y16890D01*
X18452Y16820D01*
X18492Y16761D01*
X18551Y16722D01*
X18620Y16708D01*
X18690Y16722D01*
X18748Y16761D01*
X18788Y16820D01*
X18802Y16890D01*
X18788Y16959D01*
X18748Y17018D01*
X18690Y17058D01*
X18620Y17071D01*
D02*
G37*
G36*
X37197Y17041D02*
X37128Y17027D01*
X37069Y16987D01*
X37029Y16928D01*
X37016Y16859D01*
X37029Y16790D01*
X37069Y16731D01*
X37128Y16691D01*
X37197Y16677D01*
X37267Y16691D01*
X37326Y16731D01*
X37365Y16790D01*
X37379Y16859D01*
X37365Y16928D01*
X37326Y16987D01*
X37267Y17027D01*
X37197Y17041D01*
D02*
G37*
G36*
X25000Y16914D02*
X24931Y16900D01*
X24872Y16861D01*
X24832Y16802D01*
X24818Y16732D01*
X24832Y16663D01*
X24872Y16604D01*
X24931Y16565D01*
X25000Y16551D01*
X25069Y16565D01*
X25128Y16604D01*
X25168Y16663D01*
X25182Y16732D01*
X25168Y16802D01*
X25128Y16861D01*
X25069Y16900D01*
X25000Y16914D01*
D02*
G37*
G36*
X6400Y16914D02*
X6331Y16900D01*
X6272Y16861D01*
X6232Y16802D01*
X6218Y16732D01*
X6232Y16663D01*
X6272Y16604D01*
X6331Y16565D01*
X6400Y16551D01*
X6470Y16565D01*
X6528Y16604D01*
X6568Y16663D01*
X6582Y16732D01*
X6568Y16802D01*
X6528Y16861D01*
X6470Y16900D01*
X6400Y16914D01*
D02*
G37*
G36*
X5600D02*
X5531Y16900D01*
X5472Y16861D01*
X5432Y16802D01*
X5418Y16732D01*
X5432Y16663D01*
X5472Y16604D01*
X5531Y16565D01*
X5600Y16551D01*
X5670Y16565D01*
X5728Y16604D01*
X5768Y16663D01*
X5782Y16732D01*
X5768Y16802D01*
X5728Y16861D01*
X5670Y16900D01*
X5600Y16914D01*
D02*
G37*
G36*
X21457Y16737D02*
X21387Y16723D01*
X21328Y16684D01*
X21289Y16625D01*
X21275Y16555D01*
X21289Y16486D01*
X21328Y16427D01*
X21387Y16387D01*
X21457Y16374D01*
X21526Y16387D01*
X21585Y16427D01*
X21624Y16486D01*
X21638Y16555D01*
X21624Y16625D01*
X21585Y16684D01*
X21526Y16723D01*
X21457Y16737D01*
D02*
G37*
G36*
X40133Y16714D02*
X40063Y16700D01*
X40004Y16661D01*
X39965Y16602D01*
X39951Y16532D01*
X39965Y16463D01*
X40004Y16404D01*
X40063Y16365D01*
X40133Y16351D01*
X40202Y16365D01*
X40261Y16404D01*
X40300Y16463D01*
X40314Y16532D01*
X40300Y16602D01*
X40261Y16661D01*
X40202Y16700D01*
X40133Y16714D01*
D02*
G37*
G36*
X16972Y16514D02*
X16902Y16500D01*
X16843Y16461D01*
X16804Y16402D01*
X16790Y16332D01*
X16804Y16263D01*
X16843Y16204D01*
X16902Y16164D01*
X16972Y16151D01*
X17041Y16164D01*
X17100Y16204D01*
X17140Y16263D01*
X17153Y16332D01*
X17140Y16402D01*
X17100Y16461D01*
X17041Y16500D01*
X16972Y16514D01*
D02*
G37*
G36*
X35738Y16510D02*
X35669Y16496D01*
X35610Y16457D01*
X35571Y16398D01*
X35557Y16328D01*
X35571Y16259D01*
X35610Y16200D01*
X35669Y16161D01*
X35738Y16147D01*
X35808Y16161D01*
X35867Y16200D01*
X35906Y16259D01*
X35920Y16328D01*
X35906Y16398D01*
X35867Y16457D01*
X35808Y16496D01*
X35738Y16510D01*
D02*
G37*
G36*
X15270Y16468D02*
X15200Y16454D01*
X15142Y16414D01*
X15102Y16355D01*
X15088Y16286D01*
X15102Y16216D01*
X15142Y16158D01*
X15200Y16118D01*
X15270Y16104D01*
X15339Y16118D01*
X15398Y16158D01*
X15438Y16216D01*
X15452Y16286D01*
X15438Y16355D01*
X15398Y16414D01*
X15339Y16454D01*
X15270Y16468D01*
D02*
G37*
G36*
X16062Y16464D02*
X15992Y16450D01*
X15933Y16411D01*
X15894Y16352D01*
X15880Y16282D01*
X15894Y16213D01*
X15933Y16154D01*
X15992Y16115D01*
X16062Y16101D01*
X16131Y16115D01*
X16190Y16154D01*
X16229Y16213D01*
X16243Y16282D01*
X16229Y16352D01*
X16190Y16411D01*
X16131Y16450D01*
X16062Y16464D01*
D02*
G37*
G36*
X34835Y16441D02*
X34765Y16427D01*
X34706Y16388D01*
X34667Y16329D01*
X34653Y16260D01*
X34667Y16190D01*
X34706Y16131D01*
X34765Y16092D01*
X34835Y16078D01*
X34904Y16092D01*
X34963Y16131D01*
X35003Y16190D01*
X35016Y16260D01*
X35003Y16329D01*
X34963Y16388D01*
X34904Y16427D01*
X34835Y16441D01*
D02*
G37*
G36*
X34065Y16441D02*
X33996Y16427D01*
X33937Y16388D01*
X33897Y16329D01*
X33884Y16260D01*
X33897Y16190D01*
X33937Y16131D01*
X33996Y16092D01*
X34065Y16078D01*
X34135Y16092D01*
X34194Y16131D01*
X34233Y16190D01*
X34247Y16260D01*
X34233Y16329D01*
X34194Y16388D01*
X34135Y16427D01*
X34065Y16441D01*
D02*
G37*
G36*
X39416Y16126D02*
X39347Y16113D01*
X39288Y16073D01*
X39249Y16014D01*
X39235Y15945D01*
X39249Y15875D01*
X39288Y15816D01*
X39347Y15777D01*
X39416Y15763D01*
X39486Y15777D01*
X39545Y15816D01*
X39584Y15875D01*
X39598Y15945D01*
X39584Y16014D01*
X39545Y16073D01*
X39486Y16113D01*
X39416Y16126D01*
D02*
G37*
G36*
X20791D02*
X20721Y16113D01*
X20662Y16073D01*
X20623Y16014D01*
X20609Y15945D01*
X20623Y15875D01*
X20662Y15816D01*
X20721Y15777D01*
X20791Y15763D01*
X20860Y15777D01*
X20919Y15816D01*
X20958Y15875D01*
X20972Y15945D01*
X20958Y16014D01*
X20919Y16073D01*
X20860Y16113D01*
X20791Y16126D01*
D02*
G37*
G36*
X55695Y15899D02*
X55625Y15886D01*
X55566Y15846D01*
X55527Y15787D01*
X55513Y15718D01*
X55527Y15648D01*
X55566Y15589D01*
X55625Y15550D01*
X55695Y15536D01*
X55764Y15550D01*
X55823Y15589D01*
X55863Y15648D01*
X55876Y15718D01*
X55863Y15787D01*
X55823Y15846D01*
X55764Y15886D01*
X55695Y15899D01*
D02*
G37*
G36*
X54134Y15259D02*
X54064Y15245D01*
X54005Y15206D01*
X53966Y15147D01*
X53952Y15077D01*
X53966Y15008D01*
X54005Y14949D01*
X54064Y14910D01*
X54134Y14896D01*
X54203Y14910D01*
X54262Y14949D01*
X54302Y15008D01*
X54315Y15077D01*
X54302Y15147D01*
X54262Y15206D01*
X54203Y15245D01*
X54134Y15259D01*
D02*
G37*
G36*
X57615Y14872D02*
X57546Y14858D01*
X57487Y14819D01*
X57447Y14760D01*
X57433Y14690D01*
X57447Y14621D01*
X57487Y14562D01*
X57546Y14523D01*
X57615Y14509D01*
X57685Y14523D01*
X57743Y14562D01*
X57783Y14621D01*
X57797Y14690D01*
X57783Y14760D01*
X57743Y14819D01*
X57685Y14858D01*
X57615Y14872D01*
D02*
G37*
G36*
X53150Y14774D02*
X53080Y14761D01*
X53021Y14721D01*
X52982Y14662D01*
X52968Y14593D01*
X52982Y14523D01*
X53021Y14464D01*
X53080Y14425D01*
X53150Y14411D01*
X53219Y14425D01*
X53278Y14464D01*
X53317Y14523D01*
X53331Y14593D01*
X53317Y14662D01*
X53278Y14721D01*
X53219Y14761D01*
X53150Y14774D01*
D02*
G37*
G36*
X52341D02*
X52271Y14761D01*
X52212Y14721D01*
X52173Y14662D01*
X52159Y14593D01*
X52173Y14523D01*
X52212Y14464D01*
X52271Y14425D01*
X52341Y14411D01*
X52410Y14425D01*
X52469Y14464D01*
X52508Y14523D01*
X52522Y14593D01*
X52508Y14662D01*
X52469Y14721D01*
X52410Y14761D01*
X52341Y14774D01*
D02*
G37*
G36*
X15270Y14866D02*
X15193Y14856D01*
X15121Y14826D01*
X15059Y14778D01*
X15011Y14716D01*
X14981Y14644D01*
X14971Y14567D01*
X14981Y14490D01*
X15011Y14418D01*
X15059Y14356D01*
X15121Y14308D01*
X15193Y14278D01*
X15270Y14268D01*
X15347Y14278D01*
X15419Y14308D01*
X15481Y14356D01*
X15529Y14418D01*
X15559Y14490D01*
X15569Y14567D01*
X15559Y14644D01*
X15529Y14716D01*
X15481Y14778D01*
X15419Y14826D01*
X15347Y14856D01*
X15270Y14866D01*
D02*
G37*
G36*
X20089Y14866D02*
X20011Y14856D01*
X19939Y14826D01*
X19877Y14778D01*
X19830Y14716D01*
X19800Y14644D01*
X19790Y14567D01*
X19800Y14490D01*
X19830Y14418D01*
X19877Y14356D01*
X19939Y14308D01*
X20011Y14278D01*
X20089Y14268D01*
X20166Y14278D01*
X20238Y14308D01*
X20300Y14356D01*
X20347Y14418D01*
X20377Y14490D01*
X20387Y14567D01*
X20377Y14644D01*
X20347Y14716D01*
X20300Y14778D01*
X20238Y14826D01*
X20166Y14856D01*
X20089Y14866D01*
D02*
G37*
G36*
X17726D02*
X17649Y14856D01*
X17577Y14826D01*
X17515Y14778D01*
X17468Y14716D01*
X17438Y14644D01*
X17428Y14567D01*
X17438Y14490D01*
X17468Y14418D01*
X17515Y14356D01*
X17577Y14308D01*
X17649Y14278D01*
X17726Y14268D01*
X17804Y14278D01*
X17876Y14308D01*
X17938Y14356D01*
X17985Y14418D01*
X18015Y14490D01*
X18025Y14567D01*
X18015Y14644D01*
X17985Y14716D01*
X17938Y14778D01*
X17876Y14826D01*
X17804Y14856D01*
X17726Y14866D01*
D02*
G37*
G36*
X21457Y14866D02*
X21379Y14856D01*
X21307Y14826D01*
X21245Y14778D01*
X21198Y14716D01*
X21168Y14644D01*
X21158Y14567D01*
X21168Y14490D01*
X21198Y14418D01*
X21245Y14356D01*
X21307Y14308D01*
X21379Y14278D01*
X21457Y14268D01*
X21534Y14278D01*
X21606Y14308D01*
X21668Y14356D01*
X21715Y14418D01*
X21745Y14490D01*
X21755Y14567D01*
X21745Y14644D01*
X21715Y14716D01*
X21668Y14778D01*
X21606Y14826D01*
X21534Y14856D01*
X21457Y14866D01*
D02*
G37*
G36*
X38803Y14843D02*
X38726Y14833D01*
X38653Y14803D01*
X38592Y14755D01*
X38544Y14694D01*
X38514Y14622D01*
X38504Y14544D01*
X38514Y14467D01*
X38544Y14395D01*
X38592Y14333D01*
X38653Y14285D01*
X38726Y14256D01*
X38803Y14245D01*
X38880Y14256D01*
X38952Y14285D01*
X39014Y14333D01*
X39062Y14395D01*
X39091Y14467D01*
X39102Y14544D01*
X39091Y14622D01*
X39062Y14694D01*
X39014Y14755D01*
X38952Y14803D01*
X38880Y14833D01*
X38803Y14843D01*
D02*
G37*
G36*
X36364D02*
X36286Y14833D01*
X36214Y14803D01*
X36153Y14755D01*
X36105Y14694D01*
X36075Y14622D01*
X36065Y14544D01*
X36075Y14467D01*
X36105Y14395D01*
X36153Y14333D01*
X36214Y14285D01*
X36286Y14256D01*
X36364Y14245D01*
X36441Y14256D01*
X36513Y14285D01*
X36575Y14333D01*
X36623Y14395D01*
X36652Y14467D01*
X36663Y14544D01*
X36652Y14622D01*
X36623Y14694D01*
X36575Y14755D01*
X36513Y14803D01*
X36441Y14833D01*
X36364Y14843D01*
D02*
G37*
G36*
X34047Y14837D02*
X33970Y14826D01*
X33898Y14797D01*
X33836Y14749D01*
X33788Y14687D01*
X33758Y14615D01*
X33748Y14538D01*
X33758Y14461D01*
X33788Y14388D01*
X33836Y14327D01*
X33898Y14279D01*
X33970Y14249D01*
X34047Y14239D01*
X34124Y14249D01*
X34196Y14279D01*
X34258Y14327D01*
X34306Y14388D01*
X34336Y14461D01*
X34346Y14538D01*
X34336Y14615D01*
X34306Y14687D01*
X34258Y14749D01*
X34196Y14797D01*
X34124Y14826D01*
X34047Y14837D01*
D02*
G37*
G36*
X40015Y14837D02*
X39938Y14826D01*
X39866Y14797D01*
X39804Y14749D01*
X39757Y14687D01*
X39727Y14615D01*
X39717Y14538D01*
X39727Y14461D01*
X39757Y14388D01*
X39804Y14327D01*
X39866Y14279D01*
X39938Y14249D01*
X40015Y14239D01*
X40093Y14249D01*
X40165Y14279D01*
X40227Y14327D01*
X40274Y14388D01*
X40304Y14461D01*
X40314Y14538D01*
X40304Y14615D01*
X40274Y14687D01*
X40227Y14749D01*
X40165Y14797D01*
X40093Y14826D01*
X40015Y14837D01*
D02*
G37*
G36*
X56979Y13814D02*
X56901Y13804D01*
X56829Y13774D01*
X56767Y13727D01*
X56720Y13665D01*
X56690Y13593D01*
X56680Y13516D01*
X56690Y13438D01*
X56720Y13366D01*
X56767Y13304D01*
X56829Y13257D01*
X56901Y13227D01*
X56979Y13217D01*
X57056Y13227D01*
X57128Y13257D01*
X57190Y13304D01*
X57237Y13366D01*
X57267Y13438D01*
X57277Y13516D01*
X57267Y13593D01*
X57237Y13665D01*
X57190Y13727D01*
X57128Y13774D01*
X57056Y13804D01*
X56979Y13814D01*
D02*
G37*
G36*
X47246Y25772D02*
X47176Y25758D01*
X47117Y25719D01*
X47078Y25660D01*
X47064Y25591D01*
X47078Y25521D01*
X47117Y25462D01*
X47176Y25423D01*
X47246Y25409D01*
X47315Y25423D01*
X47374Y25462D01*
X47413Y25521D01*
X47427Y25591D01*
X47413Y25660D01*
X47374Y25719D01*
X47315Y25758D01*
X47246Y25772D01*
D02*
G37*
G36*
X47281Y24975D02*
X47212Y24961D01*
X47153Y24921D01*
X47114Y24862D01*
X47100Y24793D01*
X47114Y24723D01*
X47153Y24665D01*
X47212Y24625D01*
X47281Y24611D01*
X47351Y24625D01*
X47410Y24665D01*
X47449Y24723D01*
X47463Y24793D01*
X47449Y24862D01*
X47410Y24921D01*
X47351Y24961D01*
X47281Y24975D01*
D02*
G37*
G36*
X42528Y23354D02*
X42435Y23342D01*
X42348Y23306D01*
X42274Y23249D01*
X42217Y23175D01*
X42181Y23089D01*
X42169Y22996D01*
X42181Y22903D01*
X42217Y22817D01*
X42274Y22743D01*
X42348Y22686D01*
X42435Y22650D01*
X42528Y22638D01*
X42620Y22650D01*
X42707Y22686D01*
X42781Y22743D01*
X42838Y22817D01*
X42874Y22903D01*
X42886Y22996D01*
X42874Y23089D01*
X42838Y23175D01*
X42781Y23249D01*
X42707Y23306D01*
X42620Y23342D01*
X42528Y23354D01*
D02*
G37*
G36*
X41528D02*
X41435Y23342D01*
X41348Y23306D01*
X41274Y23249D01*
X41217Y23175D01*
X41181Y23089D01*
X41169Y22996D01*
X41181Y22903D01*
X41217Y22817D01*
X41274Y22743D01*
X41348Y22686D01*
X41435Y22650D01*
X41528Y22638D01*
X41620Y22650D01*
X41707Y22686D01*
X41781Y22743D01*
X41838Y22817D01*
X41874Y22903D01*
X41886Y22996D01*
X41874Y23089D01*
X41838Y23175D01*
X41781Y23249D01*
X41707Y23306D01*
X41620Y23342D01*
X41528Y23354D01*
D02*
G37*
G36*
X39903Y23371D02*
X39153D01*
Y22621D01*
X39903D01*
Y23371D01*
D02*
G37*
G36*
X46063Y22538D02*
X45993Y22524D01*
X45935Y22485D01*
X45895Y22426D01*
X45881Y22356D01*
X45895Y22287D01*
X45935Y22228D01*
X45993Y22188D01*
X46063Y22175D01*
X46132Y22188D01*
X46191Y22228D01*
X46231Y22287D01*
X46245Y22356D01*
X46231Y22426D01*
X46191Y22485D01*
X46132Y22524D01*
X46063Y22538D01*
D02*
G37*
G36*
X44971D02*
X44902Y22524D01*
X44843Y22485D01*
X44803Y22426D01*
X44790Y22356D01*
X44803Y22287D01*
X44843Y22228D01*
X44902Y22188D01*
X44971Y22175D01*
X45041Y22188D01*
X45100Y22228D01*
X45139Y22287D01*
X45153Y22356D01*
X45139Y22426D01*
X45100Y22485D01*
X45041Y22524D01*
X44971Y22538D01*
D02*
G37*
G36*
X42528Y22354D02*
X42435Y22342D01*
X42348Y22306D01*
X42274Y22249D01*
X42217Y22175D01*
X42181Y22089D01*
X42169Y21996D01*
X42181Y21903D01*
X42217Y21817D01*
X42274Y21743D01*
X42348Y21686D01*
X42435Y21650D01*
X42528Y21638D01*
X42620Y21650D01*
X42707Y21686D01*
X42781Y21743D01*
X42838Y21817D01*
X42874Y21903D01*
X42886Y21996D01*
X42874Y22089D01*
X42838Y22175D01*
X42781Y22249D01*
X42707Y22306D01*
X42620Y22342D01*
X42528Y22354D01*
D02*
G37*
G36*
X41528D02*
X41435Y22342D01*
X41348Y22306D01*
X41274Y22249D01*
X41217Y22175D01*
X41181Y22089D01*
X41169Y21996D01*
X41181Y21903D01*
X41217Y21817D01*
X41274Y21743D01*
X41348Y21686D01*
X41435Y21650D01*
X41528Y21638D01*
X41620Y21650D01*
X41707Y21686D01*
X41781Y21743D01*
X41838Y21817D01*
X41874Y21903D01*
X41886Y21996D01*
X41874Y22089D01*
X41838Y22175D01*
X41781Y22249D01*
X41707Y22306D01*
X41620Y22342D01*
X41528Y22354D01*
D02*
G37*
%LPD*%
G36*
X42603Y22279D02*
X42674Y22250D01*
X42735Y22203D01*
X42781Y22142D01*
X42810Y22072D01*
X42820Y21996D01*
X42810Y21920D01*
X42781Y21850D01*
X42735Y21789D01*
X42674Y21742D01*
X42603Y21713D01*
X42528Y21703D01*
X42452Y21713D01*
X42381Y21742D01*
X42320Y21789D01*
X42274Y21850D01*
X42245Y21920D01*
X42235Y21996D01*
X42245Y22072D01*
X42274Y22142D01*
X42320Y22203D01*
X42381Y22250D01*
X42452Y22279D01*
X42528Y22289D01*
X42603Y22279D01*
D02*
G37*
G36*
X41603D02*
X41674Y22250D01*
X41735Y22203D01*
X41781Y22142D01*
X41810Y22072D01*
X41820Y21996D01*
X41810Y21920D01*
X41781Y21850D01*
X41735Y21789D01*
X41674Y21742D01*
X41603Y21713D01*
X41528Y21703D01*
X41452Y21713D01*
X41381Y21742D01*
X41320Y21789D01*
X41274Y21850D01*
X41245Y21920D01*
X41235Y21996D01*
X41245Y22072D01*
X41274Y22142D01*
X41320Y22203D01*
X41381Y22250D01*
X41452Y22279D01*
X41528Y22289D01*
X41603Y22279D01*
D02*
G37*
%LPC*%
G36*
X48738Y26277D02*
X48669Y26264D01*
X48610Y26224D01*
X48571Y26165D01*
X48557Y26096D01*
X48571Y26026D01*
X48610Y25967D01*
X48669Y25928D01*
X48738Y25914D01*
X48808Y25928D01*
X48867Y25967D01*
X48906Y26026D01*
X48920Y26096D01*
X48906Y26165D01*
X48867Y26224D01*
X48808Y26264D01*
X48738Y26277D01*
D02*
G37*
G36*
X50205Y23435D02*
X50135Y23421D01*
X50076Y23382D01*
X50037Y23323D01*
X50023Y23253D01*
X50037Y23184D01*
X50076Y23125D01*
X50135Y23085D01*
X50205Y23072D01*
X50274Y23085D01*
X50333Y23125D01*
X50373Y23184D01*
X50386Y23253D01*
X50373Y23323D01*
X50333Y23382D01*
X50274Y23421D01*
X50205Y23435D01*
D02*
G37*
G36*
X48425Y22663D02*
X48340Y22646D01*
X48268Y22598D01*
X48220Y22526D01*
X48203Y22441D01*
X48220Y22356D01*
X48268Y22284D01*
X48340Y22236D01*
X48425Y22219D01*
X48510Y22236D01*
X48582Y22284D01*
X48630Y22356D01*
X48647Y22441D01*
X48630Y22526D01*
X48582Y22598D01*
X48510Y22646D01*
X48425Y22663D01*
D02*
G37*
G36*
Y21875D02*
X48340Y21858D01*
X48268Y21810D01*
X48220Y21738D01*
X48203Y21654D01*
X48220Y21569D01*
X48268Y21497D01*
X48340Y21449D01*
X48425Y21432D01*
X48510Y21449D01*
X48582Y21497D01*
X48630Y21569D01*
X48647Y21654D01*
X48630Y21738D01*
X48582Y21810D01*
X48510Y21858D01*
X48425Y21875D01*
D02*
G37*
G36*
X61220Y38686D02*
X61133Y38674D01*
X61063Y38645D01*
X61220Y38488D01*
X61378Y38645D01*
X61308Y38674D01*
X61220Y38686D01*
D02*
G37*
G36*
X66139Y38398D02*
X66057Y38381D01*
X65988Y38335D01*
X65941Y38265D01*
X65939Y38257D01*
X65889D01*
X65887Y38265D01*
X65841Y38335D01*
X65771Y38381D01*
X65689Y38398D01*
X65607Y38381D01*
X65538Y38335D01*
X65491Y38265D01*
X65491Y38265D01*
X65440D01*
X65440Y38265D01*
X65394Y38335D01*
X65324Y38381D01*
X65242Y38398D01*
X65160Y38381D01*
X65091Y38335D01*
X65044Y38265D01*
X65028Y38183D01*
X65044Y38101D01*
X65091Y38032D01*
X65160Y37986D01*
X65242Y37969D01*
X65324Y37986D01*
X65394Y38032D01*
X65440Y38101D01*
X65440Y38102D01*
X65491D01*
X65491Y38101D01*
X65538Y38032D01*
X65607Y37986D01*
X65689Y37969D01*
X65771Y37986D01*
X65841Y38032D01*
X65887Y38101D01*
X65889Y38110D01*
X65939D01*
X65941Y38101D01*
X65988Y38032D01*
X66057Y37986D01*
X66139Y37969D01*
X66221Y37986D01*
X66290Y38032D01*
X66337Y38101D01*
X66353Y38183D01*
X66337Y38265D01*
X66290Y38335D01*
X66221Y38381D01*
X66139Y38398D01*
D02*
G37*
G36*
X61519Y38504D02*
X61362Y38346D01*
X61519Y38189D01*
X61548Y38259D01*
X61560Y38346D01*
X61548Y38434D01*
X61519Y38504D01*
D02*
G37*
G36*
X60922D02*
X60893Y38434D01*
X60881Y38346D01*
X60893Y38259D01*
X60922Y38189D01*
X61079Y38346D01*
X60922Y38504D01*
D02*
G37*
G36*
X61220Y38205D02*
X61063Y38048D01*
X61133Y38019D01*
X61220Y38007D01*
X61308Y38019D01*
X61378Y38048D01*
X61220Y38205D01*
D02*
G37*
G36*
X62992Y36796D02*
X62923Y36782D01*
X62864Y36743D01*
X62824Y36684D01*
X62811Y36614D01*
X62824Y36545D01*
X62864Y36486D01*
X62923Y36446D01*
X62992Y36433D01*
X63062Y36446D01*
X63121Y36486D01*
X63160Y36545D01*
X63174Y36614D01*
X63160Y36684D01*
X63121Y36743D01*
X63062Y36782D01*
X62992Y36796D01*
D02*
G37*
G36*
X65229Y36449D02*
X65144Y36432D01*
X65072Y36384D01*
X65024Y36312D01*
X65007Y36227D01*
X65024Y36142D01*
X65072Y36070D01*
X65144Y36022D01*
X65229Y36005D01*
X65314Y36022D01*
X65386Y36070D01*
X65434Y36142D01*
X65451Y36227D01*
X65434Y36312D01*
X65386Y36384D01*
X65314Y36432D01*
X65229Y36449D01*
D02*
G37*
G36*
X63740Y36244D02*
X63658Y36228D01*
X63589Y36181D01*
X63542Y36112D01*
X63526Y36030D01*
X63542Y35948D01*
X63589Y35879D01*
X63658Y35832D01*
X63740Y35816D01*
X63822Y35832D01*
X63891Y35879D01*
X63938Y35948D01*
X63954Y36030D01*
X63938Y36112D01*
X63891Y36181D01*
X63822Y36228D01*
X63740Y36244D01*
D02*
G37*
G36*
X64173Y34956D02*
X64104Y34942D01*
X64045Y34903D01*
X64005Y34844D01*
X63992Y34775D01*
X64005Y34705D01*
X64045Y34646D01*
X64104Y34607D01*
X64173Y34593D01*
X64243Y34607D01*
X64302Y34646D01*
X64341Y34705D01*
X64355Y34775D01*
X64341Y34844D01*
X64302Y34903D01*
X64243Y34942D01*
X64173Y34956D01*
D02*
G37*
G36*
X62687Y34434D02*
X62618Y34420D01*
X62559Y34380D01*
X62519Y34321D01*
X62505Y34252D01*
X62519Y34182D01*
X62559Y34124D01*
X62618Y34084D01*
X62687Y34070D01*
X62757Y34084D01*
X62815Y34124D01*
X62855Y34182D01*
X62869Y34252D01*
X62855Y34321D01*
X62815Y34380D01*
X62757Y34420D01*
X62687Y34434D01*
D02*
G37*
G36*
X65551Y34230D02*
X65482Y34217D01*
X65423Y34177D01*
X65383Y34118D01*
X65370Y34049D01*
X65383Y33979D01*
X65423Y33920D01*
X65482Y33881D01*
X65551Y33867D01*
X65621Y33881D01*
X65680Y33920D01*
X65719Y33979D01*
X65733Y34049D01*
X65719Y34118D01*
X65680Y34177D01*
X65621Y34217D01*
X65551Y34230D01*
D02*
G37*
G36*
X63655Y33880D02*
X63574Y33864D01*
X63504Y33818D01*
X63458Y33748D01*
X63441Y33666D01*
X63458Y33584D01*
X63504Y33515D01*
X63574Y33468D01*
X63655Y33452D01*
X63737Y33468D01*
X63807Y33515D01*
X63853Y33584D01*
X63870Y33666D01*
X63853Y33748D01*
X63807Y33818D01*
X63737Y33864D01*
X63655Y33880D01*
D02*
G37*
G36*
X64764Y33370D02*
X64686Y33359D01*
X64614Y33330D01*
X64553Y33282D01*
X64505Y33220D01*
X64475Y33148D01*
X64465Y33071D01*
X64475Y32994D01*
X64505Y32921D01*
X64553Y32860D01*
X64614Y32812D01*
X64686Y32782D01*
X64764Y32772D01*
X64841Y32782D01*
X64913Y32812D01*
X64975Y32860D01*
X65023Y32921D01*
X65052Y32994D01*
X65063Y33071D01*
X65052Y33148D01*
X65023Y33220D01*
X64975Y33282D01*
X64913Y33330D01*
X64841Y33359D01*
X64764Y33370D01*
D02*
G37*
G36*
X63249Y33370D02*
X63172Y33359D01*
X63100Y33330D01*
X63038Y33282D01*
X62991Y33220D01*
X62961Y33148D01*
X62951Y33071D01*
X62961Y32994D01*
X62991Y32921D01*
X63038Y32860D01*
X63100Y32812D01*
X63172Y32782D01*
X63249Y32772D01*
X63327Y32782D01*
X63399Y32812D01*
X63461Y32860D01*
X63508Y32921D01*
X63538Y32994D01*
X63548Y33071D01*
X63538Y33148D01*
X63508Y33220D01*
X63461Y33282D01*
X63399Y33330D01*
X63327Y33359D01*
X63249Y33370D01*
D02*
G37*
G36*
X57835Y30812D02*
X57765Y30798D01*
X57706Y30758D01*
X57667Y30699D01*
X57653Y30630D01*
X57667Y30560D01*
X57706Y30502D01*
X57765Y30462D01*
X57835Y30448D01*
X57904Y30462D01*
X57963Y30502D01*
X58002Y30560D01*
X58016Y30630D01*
X58002Y30699D01*
X57963Y30758D01*
X57904Y30798D01*
X57835Y30812D01*
D02*
G37*
G36*
X56010Y30103D02*
X55940Y30089D01*
X55882Y30050D01*
X55842Y29991D01*
X55828Y29921D01*
X55842Y29852D01*
X55882Y29793D01*
X55940Y29753D01*
X56010Y29740D01*
X56079Y29753D01*
X56138Y29793D01*
X56178Y29852D01*
X56192Y29921D01*
X56178Y29991D01*
X56138Y30050D01*
X56079Y30089D01*
X56010Y30103D01*
D02*
G37*
G36*
X55649Y29709D02*
X55579Y29695D01*
X55520Y29656D01*
X55481Y29597D01*
X55467Y29528D01*
X55481Y29458D01*
X55520Y29399D01*
X55579Y29360D01*
X55649Y29346D01*
X55718Y29360D01*
X55777Y29399D01*
X55817Y29458D01*
X55830Y29528D01*
X55817Y29597D01*
X55777Y29656D01*
X55718Y29695D01*
X55649Y29709D01*
D02*
G37*
G36*
X56010Y29315D02*
X55940Y29302D01*
X55882Y29262D01*
X55842Y29203D01*
X55828Y29134D01*
X55842Y29064D01*
X55882Y29005D01*
X55940Y28966D01*
X56010Y28952D01*
X56079Y28966D01*
X56138Y29005D01*
X56178Y29064D01*
X56192Y29134D01*
X56178Y29203D01*
X56138Y29262D01*
X56079Y29302D01*
X56010Y29315D01*
D02*
G37*
G36*
X58002Y28656D02*
X57933Y28643D01*
X57874Y28603D01*
X57835Y28544D01*
X57821Y28475D01*
X57835Y28405D01*
X57874Y28346D01*
X57933Y28307D01*
X58002Y28293D01*
X58072Y28307D01*
X58131Y28346D01*
X58170Y28405D01*
X58184Y28475D01*
X58170Y28544D01*
X58131Y28603D01*
X58072Y28643D01*
X58002Y28656D01*
D02*
G37*
G36*
X64529Y29119D02*
X64460Y29105D01*
X64401Y29065D01*
X64361Y29007D01*
X64347Y28937D01*
X64361Y28868D01*
X64401Y28809D01*
X64460Y28769D01*
X64478Y28766D01*
Y28715D01*
X64460Y28711D01*
X64401Y28672D01*
X64361Y28613D01*
X64348Y28543D01*
X64361Y28474D01*
X64401Y28415D01*
X64460Y28376D01*
X64478Y28372D01*
Y28321D01*
X64460Y28317D01*
X64401Y28278D01*
X64361Y28219D01*
X64347Y28150D01*
X64361Y28080D01*
X64401Y28021D01*
X64460Y27982D01*
X64529Y27968D01*
X64599Y27982D01*
X64657Y28021D01*
X64697Y28080D01*
X64711Y28150D01*
X64697Y28219D01*
X64657Y28278D01*
X64599Y28317D01*
X64581Y28321D01*
Y28372D01*
X64599Y28376D01*
X64658Y28415D01*
X64697Y28474D01*
X64711Y28543D01*
X64697Y28613D01*
X64658Y28672D01*
X64599Y28711D01*
X64581Y28715D01*
Y28766D01*
X64599Y28769D01*
X64657Y28809D01*
X64697Y28868D01*
X64711Y28937D01*
X64697Y29007D01*
X64657Y29065D01*
X64599Y29105D01*
X64529Y29119D01*
D02*
G37*
G36*
X60630D02*
X60560Y29105D01*
X60502Y29065D01*
X60462Y29007D01*
X60448Y28937D01*
X60462Y28868D01*
X60502Y28809D01*
X60560Y28769D01*
X60578Y28766D01*
Y28715D01*
X60560Y28711D01*
X60502Y28672D01*
X60462Y28613D01*
X60448Y28543D01*
X60462Y28474D01*
X60502Y28415D01*
X60560Y28376D01*
X60578Y28372D01*
Y28321D01*
X60560Y28317D01*
X60502Y28278D01*
X60462Y28219D01*
X60448Y28150D01*
X60462Y28080D01*
X60502Y28021D01*
X60560Y27982D01*
X60630Y27968D01*
X60699Y27982D01*
X60758Y28021D01*
X60798Y28080D01*
X60812Y28150D01*
X60798Y28219D01*
X60758Y28278D01*
X60699Y28317D01*
X60681Y28321D01*
Y28372D01*
X60699Y28376D01*
X60758Y28415D01*
X60798Y28474D01*
X60812Y28543D01*
X60798Y28613D01*
X60758Y28672D01*
X60699Y28711D01*
X60681Y28715D01*
Y28766D01*
X60699Y28769D01*
X60758Y28809D01*
X60798Y28868D01*
X60812Y28937D01*
X60798Y29007D01*
X60758Y29065D01*
X60699Y29105D01*
X60630Y29119D01*
D02*
G37*
G36*
X57416Y28156D02*
X57347Y28143D01*
X57288Y28103D01*
X57248Y28044D01*
X57234Y27975D01*
X57248Y27905D01*
X57288Y27846D01*
X57347Y27807D01*
X57416Y27793D01*
X57486Y27807D01*
X57544Y27846D01*
X57584Y27905D01*
X57598Y27975D01*
X57584Y28044D01*
X57544Y28103D01*
X57486Y28143D01*
X57416Y28156D01*
D02*
G37*
G36*
X59488Y28133D02*
X59411Y28123D01*
X59339Y28093D01*
X59277Y28046D01*
X59229Y27984D01*
X59200Y27912D01*
X59189Y27835D01*
X59200Y27757D01*
X59229Y27685D01*
X59277Y27623D01*
X59339Y27576D01*
X59411Y27546D01*
X59488Y27536D01*
X59566Y27546D01*
X59638Y27576D01*
X59699Y27623D01*
X59747Y27685D01*
X59777Y27757D01*
X59787Y27835D01*
X59777Y27912D01*
X59747Y27984D01*
X59699Y28046D01*
X59638Y28093D01*
X59566Y28123D01*
X59488Y28133D01*
D02*
G37*
G36*
X58729Y27742D02*
X58659Y27728D01*
X58600Y27688D01*
X58561Y27629D01*
X58547Y27560D01*
X58561Y27490D01*
X58600Y27432D01*
X58659Y27392D01*
X58729Y27378D01*
X58798Y27392D01*
X58857Y27432D01*
X58897Y27490D01*
X58910Y27560D01*
X58897Y27629D01*
X58857Y27688D01*
X58798Y27728D01*
X58729Y27742D01*
D02*
G37*
G36*
X61614Y27503D02*
X61537Y27493D01*
X61465Y27463D01*
X61403Y27416D01*
X61355Y27354D01*
X61326Y27282D01*
X61315Y27205D01*
X61326Y27127D01*
X61355Y27055D01*
X61403Y26993D01*
X61465Y26946D01*
X61537Y26916D01*
X61614Y26906D01*
X61691Y26916D01*
X61764Y26946D01*
X61825Y26993D01*
X61873Y27055D01*
X61903Y27127D01*
X61913Y27205D01*
X61903Y27282D01*
X61873Y27354D01*
X61825Y27416D01*
X61764Y27463D01*
X61691Y27493D01*
X61614Y27503D01*
D02*
G37*
G36*
X58730Y26953D02*
X58661Y26939D01*
X58602Y26900D01*
X58562Y26841D01*
X58549Y26772D01*
X58562Y26702D01*
X58602Y26643D01*
X58661Y26604D01*
X58730Y26590D01*
X58800Y26604D01*
X58859Y26643D01*
X58898Y26702D01*
X58912Y26772D01*
X58898Y26841D01*
X58859Y26900D01*
X58800Y26939D01*
X58730Y26953D01*
D02*
G37*
G36*
X55655Y26701D02*
X55585Y26687D01*
X55526Y26648D01*
X55487Y26589D01*
X55473Y26520D01*
X55487Y26450D01*
X55526Y26391D01*
X55585Y26352D01*
X55655Y26338D01*
X55724Y26352D01*
X55783Y26391D01*
X55822Y26450D01*
X55836Y26520D01*
X55822Y26589D01*
X55783Y26648D01*
X55724Y26687D01*
X55655Y26701D01*
D02*
G37*
G36*
X60827Y26841D02*
X60663Y26825D01*
X60505Y26777D01*
X60359Y26700D01*
X60271Y26627D01*
X60827Y26071D01*
X61383Y26627D01*
X61294Y26700D01*
X61149Y26777D01*
X60991Y26825D01*
X60827Y26841D01*
D02*
G37*
G36*
X58729Y26223D02*
X58659Y26209D01*
X58600Y26169D01*
X58561Y26110D01*
X58547Y26041D01*
X58561Y25971D01*
X58600Y25913D01*
X58659Y25873D01*
X58729Y25859D01*
X58798Y25873D01*
X58857Y25913D01*
X58897Y25971D01*
X58910Y26041D01*
X58897Y26110D01*
X58857Y26169D01*
X58798Y26209D01*
X58729Y26223D01*
D02*
G37*
G36*
X61454Y26556D02*
X60897Y26000D01*
X61454Y25444D01*
X61526Y25533D01*
X61604Y25678D01*
X61652Y25836D01*
X61668Y26000D01*
X61652Y26164D01*
X61604Y26322D01*
X61526Y26467D01*
X61454Y26556D01*
D02*
G37*
G36*
X60200Y26556D02*
X60127Y26467D01*
X60049Y26322D01*
X60001Y26164D01*
X59985Y26000D01*
X60001Y25836D01*
X60049Y25678D01*
X60127Y25533D01*
X60200Y25444D01*
X60756Y26000D01*
X60200Y26556D01*
D02*
G37*
G36*
X60827Y25929D02*
X60271Y25373D01*
X60359Y25300D01*
X60505Y25223D01*
X60663Y25175D01*
X60827Y25159D01*
X60991Y25175D01*
X61149Y25223D01*
X61294Y25300D01*
X61383Y25373D01*
X60827Y25929D01*
D02*
G37*
G36*
X58729Y25423D02*
X58659Y25409D01*
X58600Y25369D01*
X58561Y25310D01*
X58547Y25241D01*
X58561Y25171D01*
X58600Y25113D01*
X58659Y25073D01*
X58729Y25059D01*
X58798Y25073D01*
X58857Y25113D01*
X58897Y25171D01*
X58910Y25241D01*
X58897Y25310D01*
X58857Y25369D01*
X58798Y25409D01*
X58729Y25423D01*
D02*
G37*
G36*
X60078Y25037D02*
X60009Y25024D01*
X59950Y24984D01*
X59911Y24925D01*
X59897Y24856D01*
X59911Y24786D01*
X59950Y24727D01*
X60009Y24688D01*
X60078Y24674D01*
X60148Y24688D01*
X60207Y24727D01*
X60246Y24786D01*
X60260Y24856D01*
X60246Y24925D01*
X60207Y24984D01*
X60148Y25024D01*
X60078Y25037D01*
D02*
G37*
G36*
X57997Y24585D02*
X57927Y24571D01*
X57869Y24532D01*
X57829Y24473D01*
X57815Y24403D01*
X57829Y24334D01*
X57869Y24275D01*
X57927Y24235D01*
X57997Y24222D01*
X58066Y24235D01*
X58125Y24275D01*
X58165Y24334D01*
X58179Y24403D01*
X58165Y24473D01*
X58125Y24532D01*
X58066Y24571D01*
X57997Y24585D01*
D02*
G37*
G36*
X58858Y24578D02*
X58789Y24564D01*
X58730Y24524D01*
X58690Y24466D01*
X58677Y24396D01*
X58690Y24327D01*
X58730Y24268D01*
X58789Y24228D01*
X58858Y24214D01*
X58928Y24228D01*
X58987Y24268D01*
X59026Y24327D01*
X59040Y24396D01*
X59026Y24466D01*
X58987Y24524D01*
X58928Y24564D01*
X58858Y24578D01*
D02*
G37*
G36*
X60591Y24551D02*
X60513Y24541D01*
X60441Y24511D01*
X60379Y24463D01*
X60332Y24401D01*
X60302Y24329D01*
X60292Y24252D01*
X60302Y24175D01*
X60332Y24103D01*
X60379Y24041D01*
X60441Y23993D01*
X60513Y23963D01*
X60591Y23953D01*
X60668Y23963D01*
X60740Y23993D01*
X60802Y24041D01*
X60849Y24103D01*
X60879Y24175D01*
X60889Y24252D01*
X60879Y24329D01*
X60849Y24401D01*
X60802Y24463D01*
X60740Y24511D01*
X60668Y24541D01*
X60591Y24551D01*
D02*
G37*
G36*
X56708Y24234D02*
X56631Y24224D01*
X56559Y24194D01*
X56497Y24147D01*
X56449Y24085D01*
X56419Y24013D01*
X56409Y23935D01*
X56419Y23858D01*
X56449Y23786D01*
X56497Y23724D01*
X56559Y23677D01*
X56631Y23647D01*
X56708Y23637D01*
X56785Y23647D01*
X56857Y23677D01*
X56919Y23724D01*
X56967Y23786D01*
X56997Y23858D01*
X57007Y23935D01*
X56997Y24013D01*
X56967Y24085D01*
X56919Y24147D01*
X56857Y24194D01*
X56785Y24224D01*
X56708Y24234D01*
D02*
G37*
G36*
X53386Y28645D02*
X53309Y28635D01*
X53236Y28605D01*
X53175Y28558D01*
X53127Y28496D01*
X53097Y28424D01*
X53087Y28346D01*
X53097Y28269D01*
X53127Y28197D01*
X53175Y28135D01*
X53236Y28088D01*
X53309Y28058D01*
X53386Y28048D01*
X53463Y28058D01*
X53535Y28088D01*
X53597Y28135D01*
X53645Y28197D01*
X53674Y28269D01*
X53685Y28346D01*
X53674Y28424D01*
X53645Y28496D01*
X53597Y28558D01*
X53535Y28605D01*
X53463Y28635D01*
X53386Y28645D01*
D02*
G37*
G36*
X53386Y27858D02*
X53309Y27848D01*
X53236Y27818D01*
X53175Y27770D01*
X53127Y27708D01*
X53097Y27636D01*
X53087Y27559D01*
X53097Y27482D01*
X53127Y27410D01*
X53175Y27348D01*
X53236Y27300D01*
X53309Y27270D01*
X53386Y27260D01*
X53463Y27270D01*
X53535Y27300D01*
X53597Y27348D01*
X53645Y27410D01*
X53674Y27482D01*
X53685Y27559D01*
X53674Y27636D01*
X53645Y27708D01*
X53597Y27770D01*
X53535Y27818D01*
X53463Y27848D01*
X53386Y27858D01*
D02*
G37*
G36*
X53346Y26519D02*
X53269Y26509D01*
X53197Y26479D01*
X53135Y26432D01*
X53088Y26370D01*
X53058Y26298D01*
X53048Y26220D01*
X53058Y26143D01*
X53088Y26071D01*
X53135Y26009D01*
X53197Y25962D01*
X53269Y25932D01*
X53346Y25922D01*
X53424Y25932D01*
X53496Y25962D01*
X53558Y26009D01*
X53605Y26071D01*
X53635Y26143D01*
X53645Y26220D01*
X53635Y26298D01*
X53605Y26370D01*
X53558Y26432D01*
X53496Y26479D01*
X53424Y26509D01*
X53346Y26519D01*
D02*
G37*
G36*
X54379Y25736D02*
X54309Y25722D01*
X54250Y25683D01*
X54211Y25624D01*
X54197Y25554D01*
X54211Y25485D01*
X54250Y25426D01*
X54309Y25387D01*
X54379Y25373D01*
X54448Y25387D01*
X54507Y25426D01*
X54547Y25485D01*
X54560Y25554D01*
X54547Y25624D01*
X54507Y25683D01*
X54448Y25722D01*
X54379Y25736D01*
D02*
G37*
G36*
X52059Y24985D02*
X51990Y24971D01*
X51931Y24932D01*
X51891Y24873D01*
X51878Y24803D01*
X51891Y24734D01*
X51931Y24675D01*
X51990Y24635D01*
X52059Y24622D01*
X52129Y24635D01*
X52188Y24675D01*
X52227Y24734D01*
X52241Y24803D01*
X52227Y24873D01*
X52188Y24932D01*
X52129Y24971D01*
X52059Y24985D01*
D02*
G37*
G36*
X51386Y24643D02*
X51308Y24633D01*
X51236Y24603D01*
X51175Y24556D01*
X51127Y24494D01*
X51097Y24422D01*
X51087Y24345D01*
X51097Y24267D01*
X51127Y24195D01*
X51175Y24133D01*
X51236Y24086D01*
X51308Y24056D01*
X51386Y24046D01*
X51463Y24056D01*
X51535Y24086D01*
X51597Y24133D01*
X51645Y24195D01*
X51674Y24267D01*
X51685Y24345D01*
X51674Y24422D01*
X51645Y24494D01*
X51597Y24556D01*
X51535Y24603D01*
X51463Y24633D01*
X51386Y24643D01*
D02*
G37*
G36*
X53937Y24511D02*
X53860Y24501D01*
X53788Y24471D01*
X53726Y24424D01*
X53678Y24362D01*
X53648Y24290D01*
X53638Y24213D01*
X53648Y24135D01*
X53678Y24063D01*
X53726Y24001D01*
X53788Y23954D01*
X53860Y23924D01*
X53937Y23914D01*
X54014Y23924D01*
X54086Y23954D01*
X54148Y24001D01*
X54196Y24063D01*
X54226Y24135D01*
X54236Y24213D01*
X54226Y24290D01*
X54196Y24362D01*
X54148Y24424D01*
X54086Y24471D01*
X54014Y24501D01*
X53937Y24511D01*
D02*
G37*
G36*
X65551Y26841D02*
X65387Y26825D01*
X65229Y26777D01*
X65084Y26700D01*
X64995Y26627D01*
X65551Y26071D01*
X66107Y26627D01*
X66019Y26700D01*
X65873Y26777D01*
X65715Y26825D01*
X65551Y26841D01*
D02*
G37*
G36*
X64924Y26556D02*
X64852Y26467D01*
X64774Y26322D01*
X64726Y26164D01*
X64710Y26000D01*
X64726Y25836D01*
X64774Y25678D01*
X64852Y25533D01*
X64924Y25444D01*
X65480Y26000D01*
X64924Y26556D01*
D02*
G37*
G36*
X66178Y26556D02*
X65622Y26000D01*
X66178Y25444D01*
X66251Y25533D01*
X66329Y25678D01*
X66376Y25836D01*
X66393Y26000D01*
X66376Y26164D01*
X66329Y26322D01*
X66251Y26467D01*
X66178Y26556D01*
D02*
G37*
G36*
X65551Y25929D02*
X64995Y25373D01*
X65084Y25300D01*
X65229Y25223D01*
X65387Y25175D01*
X65551Y25159D01*
X65715Y25175D01*
X65873Y25223D01*
X66019Y25300D01*
X66107Y25373D01*
X65551Y25929D01*
D02*
G37*
G36*
X60796Y12444D02*
X60726Y12430D01*
X60667Y12391D01*
X60628Y12332D01*
X60614Y12263D01*
X60628Y12193D01*
X60667Y12134D01*
X60726Y12095D01*
X60796Y12081D01*
X60865Y12095D01*
X60924Y12134D01*
X60963Y12193D01*
X60977Y12263D01*
X60963Y12332D01*
X60924Y12391D01*
X60865Y12430D01*
X60796Y12444D01*
D02*
G37*
%LPD*%
D13*
X28340Y24009D02*
X28346Y24016D01*
X26064Y29528D02*
Y29693D01*
X0Y0D02*
Y33465D01*
X66929Y0D02*
Y40551D01*
X44094Y42520D02*
X46063Y40551D01*
X12992D02*
X14961Y42520D01*
X0Y33465D02*
X7087Y40551D01*
X12992D01*
X46063D02*
X66929D01*
X0Y0D02*
X66929D01*
X14961Y42520D02*
X44094D01*
X10924Y21947D02*
X11252D01*
X11317Y21882D01*
Y21750D01*
X11252Y21685D01*
X10924D01*
X11317Y21291D02*
Y21554D01*
X11055Y21291D01*
X10989D01*
X10924Y21357D01*
Y21488D01*
X10989Y21554D01*
X29821Y21947D02*
X30149D01*
X30215Y21882D01*
Y21750D01*
X30149Y21685D01*
X29821D01*
X29887Y21554D02*
X29821Y21488D01*
Y21357D01*
X29887Y21291D01*
X29953D01*
X30018Y21357D01*
Y21422D01*
Y21357D01*
X30084Y21291D01*
X30149D01*
X30215Y21357D01*
Y21488D01*
X30149Y21554D01*
X48719Y21947D02*
X49047D01*
X49113Y21882D01*
Y21750D01*
X49047Y21685D01*
X48719D01*
X49113Y21357D02*
X48719D01*
X48916Y21554D01*
Y21291D01*
D18*
X13157Y33857D02*
X12895D01*
X12842Y33804D01*
Y33699D01*
X12895Y33647D01*
X13157D01*
X12842Y33542D02*
Y33437D01*
Y33489D01*
X13157D01*
X13105Y33542D01*
Y33279D02*
X13157Y33227D01*
Y33122D01*
X13105Y33070D01*
X12895D01*
X12842Y33122D01*
Y33227D01*
X12895Y33279D01*
X13105D01*
D71*
X24622Y36507D02*
D03*
X20528Y31996D02*
D03*
Y30996D02*
D03*
D80*
X56754Y34252D02*
D03*
Y34646D02*
D03*
Y35039D02*
D03*
X56754Y35433D02*
D03*
X56890Y37402D02*
D03*
X55906Y35039D02*
D03*
X55509Y35434D02*
D03*
X66262Y30309D02*
D03*
X66265Y29521D02*
D03*
Y29127D02*
D03*
Y29915D02*
D03*
X65868Y30309D02*
D03*
Y29522D02*
D03*
Y29128D02*
D03*
Y29915D02*
D03*
X66262Y31973D02*
D03*
X66265Y31185D02*
D03*
Y30791D02*
D03*
Y31579D02*
D03*
X65868Y31973D02*
D03*
Y31186D02*
D03*
Y30792D02*
D03*
Y31579D02*
D03*
X64371Y39767D02*
D03*
X63583Y39764D02*
D03*
X63189D02*
D03*
X63976D02*
D03*
X64371Y40160D02*
D03*
X63583D02*
D03*
X63190D02*
D03*
X63977D02*
D03*
X59646Y39767D02*
D03*
X58858Y39764D02*
D03*
X58465D02*
D03*
X59252D02*
D03*
X59646Y40160D02*
D03*
X58859D02*
D03*
X58465D02*
D03*
X59253D02*
D03*
X61221Y39767D02*
D03*
X60433Y39764D02*
D03*
X60039D02*
D03*
X60827D02*
D03*
X61221Y40160D02*
D03*
X60434D02*
D03*
X60040D02*
D03*
X60827D02*
D03*
X62402D02*
D03*
X61615D02*
D03*
X62008D02*
D03*
X62796D02*
D03*
X62402Y39764D02*
D03*
X61614D02*
D03*
X62008D02*
D03*
X62796Y39767D02*
D03*
X55837Y31083D02*
D03*
X55352Y30623D02*
D03*
X53934Y34646D02*
D03*
Y35040D02*
D03*
Y34253D02*
D03*
X9449Y31102D02*
D03*
X55118Y34252D02*
D03*
X54724D02*
D03*
X54331D02*
D03*
X60796Y10300D02*
D03*
X58889Y10633D02*
D03*
Y11184D02*
D03*
Y10082D02*
D03*
Y9531D02*
D03*
X59440Y15594D02*
D03*
Y15042D02*
D03*
Y14491D02*
D03*
X55512Y34252D02*
D03*
X60000Y33819D02*
D03*
X59440Y18350D02*
D03*
Y17798D02*
D03*
Y17247D02*
D03*
Y16696D02*
D03*
Y16145D02*
D03*
X58889Y18350D02*
D03*
Y17798D02*
D03*
Y17247D02*
D03*
Y16696D02*
D03*
Y16145D02*
D03*
Y15594D02*
D03*
Y15042D02*
D03*
Y14491D02*
D03*
Y13940D02*
D03*
Y13389D02*
D03*
Y12838D02*
D03*
Y12287D02*
D03*
Y11735D02*
D03*
X2953Y15200D02*
D03*
X28346Y24016D02*
D03*
X7478Y27953D02*
D03*
Y28741D02*
D03*
Y28347D02*
D03*
X9840Y30316D02*
D03*
Y29922D02*
D03*
Y31103D02*
D03*
Y30709D02*
D03*
X10630Y30315D02*
D03*
Y29921D02*
D03*
Y31102D02*
D03*
Y30709D02*
D03*
X10651Y33471D02*
D03*
X11415Y30316D02*
D03*
Y29922D02*
D03*
Y31103D02*
D03*
Y30709D02*
D03*
X12205Y30315D02*
D03*
Y29921D02*
D03*
Y31102D02*
D03*
Y30709D02*
D03*
X16972Y15551D02*
D03*
X54134Y14277D02*
D03*
X53847Y16454D02*
D03*
X54724Y35039D02*
D03*
X55509Y35040D02*
D03*
X61775Y36558D02*
D03*
X12087Y28051D02*
D03*
X13935Y34415D02*
D03*
X19230Y16890D02*
D03*
X26064Y29693D02*
D03*
Y30493D02*
D03*
X54724Y35433D02*
D03*
Y34646D02*
D03*
X55509Y34646D02*
D03*
X7087Y27953D02*
D03*
Y28740D02*
D03*
Y28346D02*
D03*
X9449Y30315D02*
D03*
X10236D02*
D03*
X11024D02*
D03*
X9449Y29921D02*
D03*
X10236D02*
D03*
X11024D02*
D03*
X10236Y31102D02*
D03*
X11024D02*
D03*
X9449Y30709D02*
D03*
X10236D02*
D03*
X11024D02*
D03*
X13583Y22266D02*
D03*
X11811Y30315D02*
D03*
Y29921D02*
D03*
Y31102D02*
D03*
Y30709D02*
D03*
X20791Y17323D02*
D03*
X35738Y15528D02*
D03*
X35955Y17300D02*
D03*
X55837Y30315D02*
D03*
X55906Y34252D02*
D03*
X55118Y35039D02*
D03*
X54331D02*
D03*
X62307Y35821D02*
D03*
X62313Y36578D02*
D03*
X62308Y37402D02*
D03*
X55118Y35433D02*
D03*
Y34646D02*
D03*
X54331Y35433D02*
D03*
Y34646D02*
D03*
X55906Y35433D02*
D03*
Y34646D02*
D03*
D90*
X49425Y33899D02*
D03*
X46382Y33874D02*
D03*
X61220Y38346D02*
D03*
X60512Y32874D02*
D03*
D100*
X47382Y37205D02*
X53332D01*
X53755D02*
X54982D01*
X53366Y37170D02*
X53721D01*
X53755Y37205D01*
X53332D02*
X53366Y37170D01*
X55275Y37498D02*
Y38302D01*
X54982Y37205D02*
X55275Y37498D01*
X49379Y36645D02*
X51181Y34843D01*
X46850Y36673D02*
X47382Y37205D01*
X48622Y36645D02*
X49379D01*
X44371Y39463D02*
X45021Y40113D01*
X54014D01*
X54371Y39756D01*
X55315D01*
X55275Y38302D02*
X56022Y39049D01*
X51181Y33465D02*
Y34843D01*
X51961Y32685D02*
X55315D01*
X51181Y33465D02*
X51961Y32685D01*
X44371Y37381D02*
Y39463D01*
Y37381D02*
X45079Y36673D01*
Y36673D02*
Y36673D01*
D104*
X60827Y26000D02*
D03*
X65551D02*
D03*
D105*
X48331Y38268D02*
D03*
X46772D02*
D03*
D107*
X55315Y32685D02*
D03*
Y39756D02*
D03*
X56022Y39049D02*
D03*
D108*
X52487Y34099D02*
D03*
D110*
X63386Y18110D02*
D03*
Y17323D02*
D03*
Y16535D02*
D03*
Y15748D02*
D03*
Y14961D02*
D03*
X64173D02*
D03*
Y15748D02*
D03*
Y16535D02*
D03*
Y17323D02*
D03*
Y18110D02*
D03*
X64961D02*
D03*
Y17323D02*
D03*
Y16535D02*
D03*
Y15748D02*
D03*
Y14961D02*
D03*
X65748D02*
D03*
Y15748D02*
D03*
Y16535D02*
D03*
Y17323D02*
D03*
Y18110D02*
D03*
D111*
X55413Y3543D02*
D03*
X36516Y3368D02*
D03*
X17618Y3543D02*
D03*
X24705Y3430D02*
D03*
X43602Y3368D02*
D03*
X10236Y984D02*
D03*
X29134D02*
D03*
X48032D02*
D03*
X5413Y3543D02*
D03*
D112*
X1826Y26587D02*
D03*
X1826Y31135D02*
D03*
X25882Y40969D02*
D03*
X32701D02*
D03*
X18528Y21996D02*
D03*
Y30996D02*
D03*
X17528Y21996D02*
D03*
X18528Y31996D02*
D03*
X42528Y21996D02*
D03*
X41528D02*
D03*
D114*
X29528Y21654D02*
D03*
X44176Y35043D02*
D03*
X47434Y32744D02*
D03*
X47441Y33268D02*
D03*
X45584Y34139D02*
D03*
X45227Y33772D02*
D03*
X45138Y35039D02*
D03*
X48227Y31301D02*
D03*
X49437Y35016D02*
D03*
X46850Y34341D02*
D03*
X46850Y35039D02*
D03*
X48622Y36645D02*
D03*
Y35021D02*
D03*
X31950Y20376D02*
D03*
X48222Y32087D02*
D03*
X46850Y36673D02*
D03*
X45079D02*
D03*
X64513Y31299D02*
D03*
X60630D02*
D03*
X12983Y20376D02*
D03*
X13782Y21260D02*
D03*
X50771Y20376D02*
D03*
X51575Y21260D02*
D03*
X32767D02*
D03*
D120*
X64173Y32351D02*
D03*
M02*
