M48
;Layer_Color=9474304
;FILE_FORMAT=2:4
INCH,TZ
;TYPE=PLATED
T1F00S00C0.0118
T2F00S00C0.0157
T3F00S00C0.0160
T4F00S00C0.0197
T5F00S00C0.0300
T6F00S00C0.0315
T7F00S00C0.0394
T8F00S00C0.0402
T9F00S00C0.0433
T10F00S00C0.0472
T11F00S00C0.0709
T12F00S00C0.0787
T13F00S00C0.1969
%
T01
X60796Y10300
Y12263
X58889Y12287
Y12838
Y13389
X57610Y13454
X57475Y12482
X56675
X58889Y11735
Y11184
Y10633
Y10082
Y9531
X37992Y13195
X37131
X19291Y13105
X18438Y13122
X9299Y19393
X9303Y19805
X8830Y19803
X8564
X8298
X8836Y19412
X6773Y18898
X6400Y16732
X5600
X2953Y15200
X2266Y18504
X1093
X4236Y24002
X6385Y24957
X9473Y24803
Y25591
X10263Y25591
X10263Y24803
X11071Y25587
X12087Y28051
X9937Y28304
X9212
X8477Y28051
X7478Y27953
X7087Y27953
Y28346
X7478Y28347
Y28741
X7087Y28740
X4221Y27229
X3012Y26778
X7087Y22288
X8212Y22316
X12598Y23397
X13583Y22266
X13653Y19291
X17126Y20079
X16058Y17323
X16062Y16282
X15270Y16286
X16972Y16332
Y15551
X18620Y16890
X19230
X20791Y17323
Y15945
X21457Y16555
X22735Y18861
X23260Y18718
X25887Y18898
X27630Y19404
X27624Y19791
X27362
X28108Y19804
X28123Y19387
X26969Y22316
X25984
X25197Y21850
X24341Y22835
X22356Y23265
X22356Y24009
X22356Y26001
X22353Y26964
X22356Y27979
X24799Y26807
X26181Y25591
X28346Y25591
X29134
Y24803
X28346
Y24016
X28565Y27180
X28740Y27953
X29052Y28346
X22835Y21614
X22356Y20823
X19685Y24663
X14410Y24925
X14961Y26426
X25000Y16732
X34065Y16260
X34835Y16260
X35738Y16328
Y15528
X35955Y17300
X34886Y17274
X37197Y16859
X39416Y15945
X40133Y16532
X41995Y18716
X32582Y19060
X31576Y23396
X34087Y24442
X34300Y26185
X34252Y26969
X34782Y26852
X35433Y25591
X37008Y25123
X37884Y24471
Y26996
X37008Y27229
X35827Y28024
X29315Y27934
X47568Y26604
X47246Y25591
X48032
X48032Y24793
X47281
X48738Y26096
X50205Y23253
X52059Y24803
X54379Y25554
X55655Y26520
X56010Y29134
X57416Y27975
X58002Y28475
X58729Y27560
X58730Y26772
X58729Y26041
Y25241
X58858Y24396
X57997Y24403
X60078Y24856
X59342Y19864
X59350Y19431
X58878
Y19864
X58889Y18350
X59440
Y17798
Y17247
Y16696
Y16145
Y15594
Y15042
Y14491
X58889
Y15042
Y15594
Y16145
Y16696
Y17247
Y17798
Y13940
X57615Y14690
X55695Y15718
X54134Y15077
Y14277
X53150Y14593
X52341
X53847Y16454
X53312Y17310
X51315Y18470
X46985Y19338
X46991Y19723
X46506Y19741
X46253
X45996
X46514Y19357
X44882Y18824
X44971Y22356
X46063
X61890Y19724
Y19291
X62362
X62354Y19724
X60796Y17535
X60630Y28150
X60630Y28543
X60630Y28937
X64529
X64529Y28543
X64529Y28150
X65868Y29128
X66265Y29127
Y29521
Y29915
X65868Y29915
Y30309
X66262Y30309
X66265Y30791
Y31185
Y31579
X65868Y31579
Y31973
X66262Y31973
X65868Y31186
Y30792
Y29522
X65551Y34049
X64173Y34775
X62687Y34252
X62307Y35821
X62313Y36578
X61775Y36558
X62992Y36614
X62308Y37402
X62402Y39764
X62008
X61614
X61221Y39767
X61221Y40160
X60827
X60434
X60433Y39764
X60827
X61615Y40160
X62008
X62402
X62796
X63190
X63583
X63977
X64371
X64371Y39767
X63976Y39764
X63583
X63189
X62796Y39767
X60039Y39764
X59646Y39767
X59646Y40160
X59253
X58859
X58465
X58465Y39764
X58858
X59252
X60040Y40160
X60039Y34826
X60000Y33819
X56754Y34252
Y34646
Y35039
X56754Y35433
X55906Y35433
Y35039
Y34646
Y34252
X55512Y34252
X55118Y34252
Y34646
X55509Y34646
Y35040
X55118Y35039
X54724
Y35433
X55118
X55509Y35434
X54331Y35433
Y35039
Y34646
Y34252
X54724
Y34646
X53934Y34646
Y34253
Y35040
X53359Y31325
X55352Y30623
X55837Y30315
X56010Y29921
X55649Y29528
X55837Y31083
X57835Y30630
X56890Y37402
X43445Y39159
X37904Y37596
Y35596
X37884Y32213
X38494Y31582
X38601Y32746
X37884Y30805
X37884Y29983
X37884Y29451
X34782Y30392
X34449Y30906
Y32874
X34782Y32596
Y33799
X34449Y34449
Y35630
X32252Y35996
X31496Y34996
X30693Y36760
X29688Y36793
X29688Y38065
X30693
X35012Y38596
X35849Y32207
X35827Y31596
X31744Y31680
X31742Y32638
X29756Y32043
X30000Y30000
X43136Y29449
X26064Y29693
Y30493
X26852Y31244
X27462
X26130Y34192
X28693Y36793
X28693Y38065
X13935Y34415
X15030Y31270
X13386Y31890
Y32283
Y32669
Y33061
X12992
Y32669
Y32290
X12598
Y32669
Y33061
X12202Y33062
X11811Y33061
Y32669
Y32290
X11417Y32283
Y32677
Y33071
Y33465
X11811Y33471
X12202Y33471
X12598Y33471
X12992
Y31890
X12598
X11811
X11417
X11024
X10627Y31890
X10236Y31890
X9843
Y32283
Y32677
X9449
Y32283
Y31890
X9449Y31102
X9840Y31103
Y30709
X9449Y30709
Y30315
X9840Y30316
Y29922
X9449Y29921
X10236
X10630
X11024
X11415Y29922
Y30316
X11024Y30315
X10630
Y30709
X11024
X11415Y30709
Y31103
X11024Y31102
X10630
X10236
Y30709
Y30315
X11811
Y30709
X12205
Y30315
Y29921
X11811
Y31102
X12205
X12202Y32669
X10651Y33471
X9052Y32678
Y32284
T02
X9843Y21654
X10630
Y22441
X9843
X10236Y22047
X12983Y20376
X13782Y21260
X13583Y25606
X14567Y27556
X28740Y22441
X29134Y22047
X28740Y21654
X29528
Y22441
X32767Y21260
X31950Y20376
X47638Y21654
X48425
Y22441
X47638
X48032Y22047
X51575Y21260
X50771Y20376
X60630Y31299
X64513
X65229Y36227
X49437Y35016
X48622Y35021
Y36645
X46850Y36673
X46850Y35039
X46850Y34341
X45584Y34139
X45227Y33772
X45138Y35039
X45079Y36673
X47441Y33268
X47434Y32744
X48222Y32087
X48227Y31301
X44176Y35043
X36237Y40785
X35185Y40774
X25629Y38424
X25520Y33521
X15748Y32996
X15354Y32512
X15748Y32087
X15030Y30510
X12087Y34417
X11436
X12992Y35820
T03
X63655Y33666
X63740Y36030
X65242Y38183
X65689
X66139
T04
X64173Y32351
X5828Y32278
T05
X63386Y9688
Y10475
X64173
X64961
Y9688
X64173
X65748
Y10475
Y11263
X64961
X64173
X63386
X63386Y14961
Y15748
Y16535
Y17323
Y18110
X64173
Y17323
X64961
Y18110
X65748
Y17323
Y16535
X64961
X64173
Y15748
Y14961
X64961
Y15748
X65748
Y14961
T06
X48589Y9843
X55043Y13040
X56979Y13516
X39141Y9836
X29698Y9844
X20252Y9839
X10789Y9871
X1260Y9846
X6773Y19803
X11739Y18818
X15270Y14567
X17726Y14567
X20089
X21457Y14567
Y17648
X19941Y17648
X25810Y19593
X13583Y24803
X32677Y24092
X30416Y19060
X34047Y14538
X36364Y14544
X38803
X40015Y14538
X40133Y17621
X38691Y17621
X44882Y19783
X49290Y19040
X54595Y18038
X57087Y18344
X56658Y17142
X57610Y17131
X56708Y23935
X53937Y24213
X53346Y26220
X53386Y27559
X53386Y28346
X54732Y29196
X59488Y27835
X51386Y24345
X60591Y24252
X61614Y27205
X60512Y32874
X63249Y33071
X64764Y33071
X60826Y35942
X61220Y38346
X56022Y39049
X55315Y39756
X54608Y39049
X53740Y39567
X54608Y33392
X55315Y32685
X56022Y33392
X49425Y33899
X46382Y33874
X44351Y33874
X35827Y30315
X28346Y29534
X15787Y35984
T07
X1826Y23083
Y24083
X1826Y25587
Y26587
Y27587
X1826Y29135
X52487Y34099
X58143
X32701Y40969
X31701
X30701
X29701
X28701
X25882
X24882Y40969
X23882
X22882
X21882Y40969
X1826Y31135
Y30135
T08
X17528Y21996
Y22996
X18528
Y23996
X17528
Y24996
Y25996
Y26996
X18528
Y27996
Y28996
X17528
Y27996
X18528Y25996
Y24996
Y21996
X41528
Y22996
X42528
Y23996
X41528
Y24996
Y25996
Y26996
X42528
Y27996
Y28996
X41528
Y27996
X42528Y25996
Y24996
Y21996
Y29996
X41528
Y30996
X42528
Y31996
X41528
Y32996
Y33996
X42528
Y34996
Y35996
X41528
Y36996
Y37996
X42528
Y38996
Y39996
Y40996
X41528
Y39996
Y38996
X42528Y36996
X41528Y34996
X42528Y32996
X18528
Y33996
X17528
Y34996
Y35996
X18528
Y36996
Y37996
X17528
Y38996
Y39996
Y40996
X18528
Y39996
Y38996
X17528Y36996
X18528Y34996
X17528Y32996
Y31996
Y30996
Y29996
X18528
Y30996
Y31996
T09
X48032Y984
Y6890
X46685Y9843
X45685
X49606
X50606
X51606
X54134
X55134
X56134
X55413Y3543
X52461
X43602Y3368
X40650
X36516
X33563
X32709Y9843
X31709
X30709
X35236
X36236
X37236
X40157
X41157
X42157
X44685
X27787
X26787
X25787
X23260
X22260
X21260
X18339
X17339
X16339
X13811
X14665Y3543
X17618
X21752Y3430
X24705
X29134Y984
Y6890
X10236
X8890Y9843
X7890
X6890
X4362
X3362
X2362
X2461Y3543
X5413
X10236Y984
X11811Y9843
X12811
X20528Y22996
Y23996
Y24996
Y25996
Y26996
Y27996
X39528
Y28996
Y26996
Y25996
Y24996
Y23996
Y22996
Y29996
Y31596
Y32596
Y33596
Y34596
Y35596
Y36596
Y37596
Y38596
Y39596
Y40596
X24622Y36507
X23622
X22622
X20528Y36996
Y35996
Y34996
Y33996
Y32996
Y31996
Y30996
Y29996
X12205Y39173
X11205
T10
X51779Y36220
X58850
T11
X45213Y38268
X46772
X48331
X49890
T12
X60827Y26000
X65551
T13
X10236Y15748
X29134
X48032
M30
