G04*
G04 #@! TF.GenerationSoftware,Altium Limited,Altium Designer,20.1.14 (287)*
G04*
G04 Layer_Color=16711935*
%FSLAX25Y25*%
%MOIN*%
G70*
G04*
G04 #@! TF.SameCoordinates,F236638D-4B1B-45E3-9A0F-FA1DF93A8DFF*
G04*
G04*
G04 #@! TF.FilePolarity,Negative*
G04*
G01*
G75*
%ADD12C,0.01000*%
%ADD18R,0.05347X0.05347*%
%ADD19C,0.06724*%
%ADD20R,0.05347X0.05347*%
%ADD22R,0.08000X0.06000*%
%ADD23R,0.06000X0.08000*%
%ADD24R,0.01181X0.02559*%
%ADD25R,0.10000X0.08000*%
%ADD29R,0.06724X0.06331*%
%ADD34R,0.08000X0.10000*%
%ADD37R,0.38600X0.45600*%
%ADD40R,0.03162X0.03162*%
%ADD41C,0.08299*%
%ADD42R,0.08299X0.08299*%
%ADD43R,0.08299X0.08299*%
%ADD44C,0.07906*%
%ADD45R,0.07906X0.07906*%
%ADD46R,0.07906X0.07906*%
%ADD47C,0.09874*%
%ADD48C,0.08000*%
%ADD49C,0.17748*%
%ADD50C,0.49244*%
%ADD51R,0.07894X0.08268*%
G04:AMPARAMS|DCode=52|XSize=78.94mil|YSize=82.68mil|CornerRadius=39.47mil|HoleSize=0mil|Usage=FLASHONLY|Rotation=0.000|XOffset=0mil|YOffset=0mil|HoleType=Round|Shape=RoundedRectangle|*
%AMROUNDEDRECTD52*
21,1,0.07894,0.00374,0,0,0.0*
21,1,0.00000,0.08268,0,0,0.0*
1,1,0.07894,0.00000,-0.00187*
1,1,0.07894,0.00000,-0.00187*
1,1,0.07894,0.00000,0.00187*
1,1,0.07894,0.00000,0.00187*
%
%ADD52ROUNDEDRECTD52*%
%ADD53C,0.08496*%
%ADD54C,0.04362*%
%ADD70R,0.36600X0.43600*%
%ADD95R,0.06102X0.02362*%
%ADD96R,0.02362X0.02756*%
%ADD108R,0.05937X0.05937*%
%ADD109R,0.06900X0.14500*%
%ADD110R,0.03969X0.03969*%
%ADD111R,0.03181X0.04559*%
G04:AMPARAMS|DCode=112|XSize=79.06mil|YSize=59.37mil|CornerRadius=19.84mil|HoleSize=0mil|Usage=FLASHONLY|Rotation=0.000|XOffset=0mil|YOffset=0mil|HoleType=Round|Shape=RoundedRectangle|*
%AMROUNDEDRECTD112*
21,1,0.07906,0.01968,0,0,0.0*
21,1,0.03937,0.05937,0,0,0.0*
1,1,0.03969,0.01968,-0.00984*
1,1,0.03969,-0.01968,-0.00984*
1,1,0.03969,-0.01968,0.00984*
1,1,0.03969,0.01968,0.00984*
%
%ADD112ROUNDEDRECTD112*%
%ADD113C,0.05937*%
%ADD114O,0.05740X0.02984*%
%ADD115O,0.02984X0.05740*%
%ADD116R,0.08693X0.12630*%
%ADD117O,0.07315X0.03181*%
%ADD118R,0.05937X0.04362*%
%ADD119R,0.12630X0.08299*%
%ADD120O,0.04362X0.07709*%
%ADD121R,0.13811X0.13811*%
G04:AMPARAMS|DCode=122|XSize=79.06mil|YSize=59.37mil|CornerRadius=19.84mil|HoleSize=0mil|Usage=FLASHONLY|Rotation=270.000|XOffset=0mil|YOffset=0mil|HoleType=Round|Shape=RoundedRectangle|*
%AMROUNDEDRECTD122*
21,1,0.07906,0.01968,0,0,270.0*
21,1,0.03937,0.05937,0,0,270.0*
1,1,0.03969,-0.00984,-0.01968*
1,1,0.03969,-0.00984,0.01968*
1,1,0.03969,0.00984,0.01968*
1,1,0.03969,0.00984,-0.01968*
%
%ADD122ROUNDEDRECTD122*%
%ADD123R,0.03969X0.05937*%
G36*
X225823Y395639D02*
X226897Y395194D01*
X227865Y394548D01*
X228687Y393725D01*
X229333Y392758D01*
X229771Y391702D01*
X229808Y391668D01*
X229867Y391604D01*
X229920Y391535D01*
X229967Y391461D01*
X230007Y391384D01*
X230041Y391303D01*
X230067Y391219D01*
X230086Y391134D01*
X230097Y391048D01*
X230101Y390961D01*
Y388961D01*
X230097Y388873D01*
X230086Y388787D01*
X230067Y388701D01*
X230041Y388618D01*
X230007Y388537D01*
X229967Y388460D01*
X229920Y388386D01*
X229867Y388317D01*
X229808Y388253D01*
X229771Y388219D01*
X229333Y387163D01*
X228687Y386196D01*
X227865Y385373D01*
X226897Y384727D01*
X225823Y384282D01*
X224682Y384055D01*
X223518D01*
X222377Y384282D01*
X221303Y384727D01*
X220335Y385373D01*
X219513Y386196D01*
X218867Y387163D01*
X218421Y388238D01*
X218195Y389379D01*
Y389961D01*
Y390542D01*
X218421Y391683D01*
X218867Y392758D01*
X219513Y393725D01*
X220335Y394548D01*
X221303Y395194D01*
X222377Y395639D01*
X223518Y395866D01*
X224682D01*
X225823Y395639D01*
D02*
G37*
G36*
X265349Y377853D02*
X257149D01*
Y384253D01*
X265349D01*
Y377853D01*
D02*
G37*
G36*
X265919Y367729D02*
X257719D01*
Y374129D01*
X265919D01*
Y367729D01*
D02*
G37*
G36*
X97272Y368760D02*
X98347Y368315D01*
X99314Y367669D01*
X100137Y366846D01*
X100783Y365879D01*
X101228Y364804D01*
X101455Y363663D01*
Y363081D01*
Y362500D01*
X101228Y361359D01*
X100783Y360284D01*
X100137Y359317D01*
X99314Y358494D01*
X98347Y357848D01*
X97291Y357411D01*
X97258Y357374D01*
X97193Y357315D01*
X97124Y357261D01*
X97050Y357215D01*
X96973Y357174D01*
X96892Y357141D01*
X96809Y357115D01*
X96724Y357096D01*
X96637Y357084D01*
X96550Y357081D01*
X94550D01*
X94462Y357084D01*
X94376Y357096D01*
X94291Y357115D01*
X94207Y357141D01*
X94127Y357174D01*
X94049Y357215D01*
X93976Y357261D01*
X93906Y357315D01*
X93842Y357374D01*
X93808Y357411D01*
X92752Y357848D01*
X91785Y358494D01*
X90963Y359317D01*
X90316Y360284D01*
X89871Y361359D01*
X89644Y362500D01*
Y363081D01*
Y363663D01*
X89871Y364804D01*
X90316Y365879D01*
X90963Y366846D01*
X91785Y367669D01*
X92752Y368315D01*
X93827Y368760D01*
X94968Y368987D01*
X96131D01*
X97272Y368760D01*
D02*
G37*
G36*
X113770Y367883D02*
X114845Y367438D01*
X115812Y366792D01*
X116634Y365969D01*
X117281Y365002D01*
X117726Y363927D01*
X117953Y362786D01*
Y362205D01*
Y361623D01*
X117726Y360482D01*
X117281Y359407D01*
X116634Y358440D01*
X115812Y357618D01*
X114845Y356971D01*
X113789Y356534D01*
X113755Y356497D01*
X113691Y356438D01*
X113621Y356385D01*
X113548Y356338D01*
X113470Y356297D01*
X113390Y356264D01*
X113306Y356238D01*
X113221Y356219D01*
X113135Y356207D01*
X113047Y356204D01*
X111047D01*
X110960Y356207D01*
X110873Y356219D01*
X110788Y356238D01*
X110705Y356264D01*
X110624Y356297D01*
X110547Y356338D01*
X110473Y356385D01*
X110404Y356438D01*
X110339Y356497D01*
X110305Y356534D01*
X109250Y356971D01*
X108283Y357618D01*
X107460Y358440D01*
X106814Y359407D01*
X106369Y360482D01*
X106142Y361623D01*
Y362205D01*
Y362786D01*
X106369Y363927D01*
X106814Y365002D01*
X107460Y365969D01*
X108283Y366792D01*
X109250Y367438D01*
X110325Y367883D01*
X111466Y368110D01*
X112629D01*
X113770Y367883D01*
D02*
G37*
G36*
X226684Y347038D02*
X226739Y347028D01*
X226793Y347013D01*
X226845Y346991D01*
X226894Y346964D01*
X226940Y346932D01*
X226982Y346894D01*
X227019Y346852D01*
X227052Y346807D01*
X227079Y346758D01*
X227101Y346706D01*
X227116Y346652D01*
X227126Y346596D01*
X227129Y346540D01*
Y340540D01*
X227126Y340484D01*
X227116Y340429D01*
X227101Y340375D01*
X227079Y340323D01*
X227052Y340274D01*
X227019Y340228D01*
X226982Y340186D01*
X226940Y340149D01*
X226894Y340116D01*
X226845Y340089D01*
X226793Y340068D01*
X226739Y340052D01*
X226684Y340043D01*
X226628Y340039D01*
X218428Y340039D01*
D01*
D01*
X218428D01*
X218372Y340042D01*
X218361Y340044D01*
X218317Y340052D01*
X218263Y340068D01*
X218211Y340089D01*
X218162Y340116D01*
X218134Y340135D01*
X218116Y340149D01*
X218074Y340186D01*
Y340186D01*
X218074D01*
X218036Y340228D01*
X218004Y340274D01*
X217979Y340318D01*
X217977Y340323D01*
Y340323D01*
X217977Y340323D01*
X217955Y340375D01*
X217940Y340429D01*
X217930Y340484D01*
X217928Y340532D01*
X217582Y340186D01*
X217540Y340149D01*
X217494Y340116D01*
X217470Y340103D01*
X217445Y340089D01*
X217393Y340068D01*
X217339Y340052D01*
X217284Y340043D01*
X217228Y340039D01*
X214828D01*
X214772Y340043D01*
X214716Y340052D01*
X214663Y340068D01*
X214611Y340089D01*
X214561Y340116D01*
X214516Y340149D01*
X214474Y340186D01*
X214436Y340228D01*
X214404Y340274D01*
X214377Y340323D01*
X214355Y340375D01*
X214340Y340429D01*
X214330Y340484D01*
X214327Y340540D01*
Y346540D01*
X214330Y346596D01*
X214340Y346652D01*
X214355Y346706D01*
X214377Y346758D01*
X214404Y346807D01*
X214436Y346852D01*
X214474Y346894D01*
X214516Y346932D01*
X214561Y346964D01*
X214611Y346991D01*
X214663Y347013D01*
X214716Y347028D01*
X214772Y347038D01*
X214828Y347041D01*
X217228D01*
X217284Y347038D01*
X217339Y347028D01*
X217393Y347013D01*
X217445Y346991D01*
X217470Y346978D01*
X217494Y346964D01*
X217540Y346932D01*
X217582Y346894D01*
X217928Y346549D01*
X217930Y346596D01*
X217940Y346652D01*
X217955Y346706D01*
X217977Y346757D01*
X217990Y346782D01*
X218004Y346807D01*
X218036Y346852D01*
X218074Y346894D01*
X218116Y346932D01*
X218162Y346964D01*
X218186Y346978D01*
X218211Y346991D01*
X218263Y347013D01*
X218317Y347028D01*
X218372Y347038D01*
X218428Y347041D01*
X226628Y347041D01*
X226684Y347038D01*
D02*
G37*
G36*
X225823Y335639D02*
X226897Y335194D01*
X227865Y334548D01*
X228687Y333725D01*
X229333Y332758D01*
X229771Y331702D01*
X229808Y331668D01*
X229867Y331604D01*
X229920Y331535D01*
X229967Y331461D01*
X230007Y331383D01*
X230041Y331303D01*
X230067Y331220D01*
X230086Y331134D01*
X230097Y331048D01*
X230101Y330960D01*
Y328960D01*
X230097Y328873D01*
X230086Y328787D01*
X230067Y328701D01*
X230041Y328618D01*
X230007Y328538D01*
X229967Y328460D01*
X229920Y328386D01*
X229867Y328317D01*
X229808Y328253D01*
X229771Y328219D01*
X229333Y327163D01*
X228687Y326196D01*
X227865Y325373D01*
X226897Y324727D01*
X225823Y324282D01*
X224682Y324055D01*
X223518D01*
X222377Y324282D01*
X221303Y324727D01*
X220335Y325373D01*
X219513Y326196D01*
X218867Y327163D01*
X218421Y328238D01*
X218195Y329379D01*
Y329960D01*
Y330542D01*
X218421Y331683D01*
X218867Y332758D01*
X219513Y333725D01*
X220335Y334548D01*
X221303Y335194D01*
X222377Y335639D01*
X223518Y335866D01*
X224682D01*
X225823Y335639D01*
D02*
G37*
G36*
X586614Y84646D02*
Y3937D01*
X3937D01*
Y78740D01*
X11811Y86614D01*
X129921D01*
X131890Y84646D01*
Y70732D01*
X133921Y68701D01*
X134118Y68898D01*
X156114D01*
X158706Y71490D01*
Y85990D01*
X158705Y85992D01*
Y86614D01*
X318898D01*
X321850Y83661D01*
Y70866D01*
X323819Y68898D01*
X345472D01*
X347165Y70591D01*
Y84478D01*
X349301Y86614D01*
X507126D01*
X509842Y83898D01*
Y71850D01*
X510827Y70866D01*
X529528Y70866D01*
X534340D01*
X536309Y72835D01*
Y84646D01*
X538277Y86614D01*
X584646D01*
X586614Y84646D01*
D02*
G37*
D12*
X0Y0D02*
Y334646D01*
Y0D02*
X669291D01*
Y405512D01*
X460630D02*
X669291D01*
X440945Y425197D02*
X460630Y405512D01*
X149606Y425197D02*
X440945D01*
X129921Y405512D02*
X149606Y425197D01*
X70866Y405512D02*
X129921D01*
X0Y334646D02*
X70866Y405512D01*
X495379Y241472D02*
X498659D01*
X499315Y240816D01*
Y239505D01*
X498659Y238849D01*
X495379D01*
X499315Y235569D02*
X495379D01*
X497347Y237537D01*
Y234913D01*
X306403Y241472D02*
X309683D01*
X310339Y240816D01*
Y239505D01*
X309683Y238849D01*
X306403D01*
X307059Y237537D02*
X306403Y236881D01*
Y235569D01*
X307059Y234913D01*
X307715D01*
X308371Y235569D01*
Y236225D01*
Y235569D01*
X309027Y234913D01*
X309683D01*
X310339Y235569D01*
Y236881D01*
X309683Y237537D01*
X121048Y235772D02*
X124328D01*
X124984Y235116D01*
Y233804D01*
X124328Y233148D01*
X121048D01*
X124984Y229212D02*
Y231836D01*
X122360Y229212D01*
X121704D01*
X121048Y229868D01*
Y231180D01*
X121704Y231836D01*
D18*
X384941Y260012D02*
D03*
X378839D02*
D03*
X384941Y315823D02*
D03*
X378838D02*
D03*
X384941Y270018D02*
D03*
X378838D02*
D03*
X378838Y365865D02*
D03*
X384941D02*
D03*
X384941Y355961D02*
D03*
X378838D02*
D03*
X384941Y289961D02*
D03*
X378838D02*
D03*
X384941Y279960D02*
D03*
X378838D02*
D03*
X268749Y342834D02*
D03*
X274851D02*
D03*
X274624Y349286D02*
D03*
X268522D02*
D03*
X441831Y272291D02*
D03*
X447933D02*
D03*
X441831Y263779D02*
D03*
X447933D02*
D03*
X268602Y336415D02*
D03*
X274705D02*
D03*
X324218Y336415D02*
D03*
X318116D02*
D03*
X324218Y343540D02*
D03*
X318116D02*
D03*
X255197Y349286D02*
D03*
X261300D02*
D03*
X255197Y341922D02*
D03*
X261300D02*
D03*
X313051Y300000D02*
D03*
X306949D02*
D03*
X326102Y300000D02*
D03*
X320000D02*
D03*
X563051Y157178D02*
D03*
X556949D02*
D03*
X563051Y135035D02*
D03*
X556949D02*
D03*
X372518Y145442D02*
D03*
X378621D02*
D03*
X378073Y168590D02*
D03*
X371971D02*
D03*
X626870Y342520D02*
D03*
X632972D02*
D03*
X186201Y168898D02*
D03*
X192303D02*
D03*
X185630Y145669D02*
D03*
X191732D02*
D03*
D19*
X117393Y187763D02*
D03*
X304164Y190600D02*
D03*
X274953Y280100D02*
D03*
X570866Y183442D02*
D03*
X363289Y145442D02*
D03*
X400153Y145379D02*
D03*
X401327Y176209D02*
D03*
X340470Y145379D02*
D03*
X386911Y176249D02*
D03*
X386911Y145442D02*
D03*
X326772Y245759D02*
D03*
X448819Y197835D02*
D03*
X492126Y338140D02*
D03*
Y328740D02*
D03*
X596457Y330709D02*
D03*
X614173Y330709D02*
D03*
X647638Y330709D02*
D03*
X632494D02*
D03*
X545947Y180378D02*
D03*
X358268Y303150D02*
D03*
X135827Y245169D02*
D03*
X513858Y243447D02*
D03*
X492899Y190403D02*
D03*
X258874Y197835D02*
D03*
X67726Y197835D02*
D03*
X569786Y135156D02*
D03*
X550428Y130402D02*
D03*
X566578Y171417D02*
D03*
X576100Y171309D02*
D03*
X199409Y176476D02*
D03*
X152699Y145669D02*
D03*
X214567Y145669D02*
D03*
Y176476D02*
D03*
X177264Y145669D02*
D03*
X200886Y145669D02*
D03*
X600394Y383495D02*
D03*
D20*
X306930Y380652D02*
D03*
Y386754D02*
D03*
X296877Y380652D02*
D03*
Y386754D02*
D03*
X286930Y380652D02*
D03*
Y386754D02*
D03*
X331270Y337517D02*
D03*
Y343620D02*
D03*
X42207Y248347D02*
D03*
Y254449D02*
D03*
X50305D02*
D03*
Y248347D02*
D03*
X207842Y165551D02*
D03*
Y159449D02*
D03*
X576100Y134541D02*
D03*
Y140644D02*
D03*
X394391Y159221D02*
D03*
Y165323D02*
D03*
X401265Y165298D02*
D03*
Y159196D02*
D03*
X214567Y165551D02*
D03*
Y159449D02*
D03*
X647638Y355217D02*
D03*
Y361319D02*
D03*
X663386Y347539D02*
D03*
Y341437D02*
D03*
X600394Y346591D02*
D03*
Y340488D02*
D03*
X647638Y341437D02*
D03*
Y347539D02*
D03*
X641732Y341437D02*
D03*
Y347539D02*
D03*
X576159Y153014D02*
D03*
Y146912D02*
D03*
D22*
X102362Y255969D02*
D03*
Y247969D02*
D03*
X306930Y367600D02*
D03*
Y359600D02*
D03*
X296877Y367600D02*
D03*
Y359600D02*
D03*
X286629Y367600D02*
D03*
Y359600D02*
D03*
X566246Y116826D02*
D03*
Y124826D02*
D03*
X575255Y116826D02*
D03*
Y124826D02*
D03*
X588583Y243961D02*
D03*
Y235961D02*
D03*
X379921Y123953D02*
D03*
Y131953D02*
D03*
X371308D02*
D03*
Y123953D02*
D03*
X357383Y155284D02*
D03*
Y163284D02*
D03*
X184378Y123047D02*
D03*
Y131047D02*
D03*
X192913Y123047D02*
D03*
Y131047D02*
D03*
X117413Y225974D02*
D03*
Y233974D02*
D03*
X125984Y225972D02*
D03*
Y233972D02*
D03*
X86614Y255969D02*
D03*
Y247969D02*
D03*
X110712Y247968D02*
D03*
Y255968D02*
D03*
X94862Y247969D02*
D03*
Y255969D02*
D03*
X315761Y225961D02*
D03*
Y233961D02*
D03*
X306039Y225961D02*
D03*
Y233961D02*
D03*
X488189Y247969D02*
D03*
Y255969D02*
D03*
X480315Y247969D02*
D03*
Y255969D02*
D03*
X472815Y247969D02*
D03*
Y255969D02*
D03*
X465341Y255929D02*
D03*
Y247929D02*
D03*
X291338Y247969D02*
D03*
Y255968D02*
D03*
X283839Y247969D02*
D03*
Y255968D02*
D03*
X494714Y225961D02*
D03*
Y233961D02*
D03*
X501969Y225961D02*
D03*
Y233961D02*
D03*
X655512Y348488D02*
D03*
Y340488D02*
D03*
X607874Y128803D02*
D03*
Y120803D02*
D03*
X607874Y101047D02*
D03*
Y109047D02*
D03*
X541338Y142775D02*
D03*
Y150775D02*
D03*
X607874Y159906D02*
D03*
Y151906D02*
D03*
X607874Y172378D02*
D03*
Y180378D02*
D03*
X580000Y236158D02*
D03*
Y244158D02*
D03*
X587289Y266514D02*
D03*
Y274514D02*
D03*
Y260622D02*
D03*
Y252622D02*
D03*
X298839Y255969D02*
D03*
Y247969D02*
D03*
X275590Y247969D02*
D03*
Y255968D02*
D03*
X169718Y155512D02*
D03*
Y163512D02*
D03*
X541339Y108237D02*
D03*
Y116237D02*
D03*
X531496Y118047D02*
D03*
Y126047D02*
D03*
X496063Y108237D02*
D03*
Y116237D02*
D03*
X485906Y118047D02*
D03*
Y126047D02*
D03*
X446850Y108237D02*
D03*
Y116237D02*
D03*
X437008Y118047D02*
D03*
Y126047D02*
D03*
X401575Y108237D02*
D03*
Y116237D02*
D03*
X391417Y118047D02*
D03*
Y126047D02*
D03*
X352362Y108237D02*
D03*
Y116237D02*
D03*
X342520Y118047D02*
D03*
Y126047D02*
D03*
X307086Y108237D02*
D03*
Y116237D02*
D03*
X296899Y118047D02*
D03*
Y126047D02*
D03*
X257874Y108237D02*
D03*
Y116237D02*
D03*
X248032Y118047D02*
D03*
Y126047D02*
D03*
X212598Y108237D02*
D03*
Y116237D02*
D03*
X202416Y118047D02*
D03*
Y126047D02*
D03*
X163386Y108237D02*
D03*
Y116237D02*
D03*
X154213Y118047D02*
D03*
Y126047D02*
D03*
X118110Y108237D02*
D03*
Y116237D02*
D03*
X107953Y118047D02*
D03*
Y126047D02*
D03*
X68996Y108237D02*
D03*
Y116237D02*
D03*
X59153Y118047D02*
D03*
Y126047D02*
D03*
X12565Y118508D02*
D03*
Y126508D02*
D03*
X22421Y108237D02*
D03*
Y116237D02*
D03*
D23*
X275711Y321452D02*
D03*
X267710D02*
D03*
X300000Y300000D02*
D03*
X292000D02*
D03*
X325421Y316560D02*
D03*
X317421D02*
D03*
X317421Y326375D02*
D03*
X325421D02*
D03*
X45461Y282126D02*
D03*
X37461D02*
D03*
X50361Y240024D02*
D03*
X42361D02*
D03*
X45402Y179214D02*
D03*
X37402D02*
D03*
X573089Y288124D02*
D03*
X565089D02*
D03*
X572785Y280000D02*
D03*
X564785D02*
D03*
X556547Y241472D02*
D03*
X548547D02*
D03*
X623133Y365779D02*
D03*
X631133D02*
D03*
X616205Y342520D02*
D03*
X608205D02*
D03*
X548499Y249817D02*
D03*
X556499D02*
D03*
X548547Y265197D02*
D03*
X556547D02*
D03*
X548484Y273514D02*
D03*
X556484D02*
D03*
X232598Y178709D02*
D03*
X240598D02*
D03*
X549319Y110108D02*
D03*
X557319D02*
D03*
X503874Y110236D02*
D03*
X511874D02*
D03*
X455201D02*
D03*
X463201D02*
D03*
X409386D02*
D03*
X417386D02*
D03*
X360445D02*
D03*
X368445D02*
D03*
X314898Y110236D02*
D03*
X322898D02*
D03*
X266201Y110236D02*
D03*
X274201D02*
D03*
X220409D02*
D03*
X228410D02*
D03*
X171315D02*
D03*
X179315D02*
D03*
X125921D02*
D03*
X133921D02*
D03*
X77201D02*
D03*
X85201D02*
D03*
X31678Y110236D02*
D03*
X39678D02*
D03*
D24*
X531496Y108957D02*
D03*
Y103642D02*
D03*
X485906Y108957D02*
D03*
Y103642D02*
D03*
X437008Y108957D02*
D03*
Y103642D02*
D03*
X391417Y108957D02*
D03*
Y103642D02*
D03*
X342520Y108957D02*
D03*
Y103642D02*
D03*
X296929Y108957D02*
D03*
Y103642D02*
D03*
X248032Y108957D02*
D03*
Y103642D02*
D03*
X202441Y108957D02*
D03*
Y103642D02*
D03*
X154213Y108957D02*
D03*
Y103642D02*
D03*
X107953Y108957D02*
D03*
Y103642D02*
D03*
X59153Y108957D02*
D03*
Y103642D02*
D03*
X12565Y109418D02*
D03*
Y104103D02*
D03*
D25*
X269685Y211035D02*
D03*
Y222035D02*
D03*
X259843Y211035D02*
D03*
Y222036D02*
D03*
X449711Y212562D02*
D03*
Y223562D02*
D03*
X634646Y207862D02*
D03*
Y196862D02*
D03*
X70866Y222035D02*
D03*
Y211035D02*
D03*
X81492Y222035D02*
D03*
Y211035D02*
D03*
X460877Y223562D02*
D03*
Y212562D02*
D03*
D29*
X339096Y316293D02*
D03*
Y324561D02*
D03*
D34*
X578152Y306226D02*
D03*
X567152D02*
D03*
X105488Y196850D02*
D03*
X94488Y196964D02*
D03*
X294339Y196850D02*
D03*
X283339D02*
D03*
X483484Y196850D02*
D03*
X472484D02*
D03*
D37*
X646505Y110236D02*
D03*
D40*
X566246Y109967D02*
D03*
Y106818D02*
D03*
X575255Y109967D02*
D03*
Y106818D02*
D03*
X383858Y111417D02*
D03*
Y108268D02*
D03*
X378634Y111417D02*
D03*
Y108268D02*
D03*
X194882Y111386D02*
D03*
Y108237D02*
D03*
X189862Y111386D02*
D03*
Y108237D02*
D03*
D41*
X246220Y365073D02*
D03*
X236221D02*
D03*
X205276Y249961D02*
D03*
Y269961D02*
D03*
Y259961D02*
D03*
Y239961D02*
D03*
Y229961D02*
D03*
X395276Y279961D02*
D03*
Y259961D02*
D03*
Y239961D02*
D03*
Y249961D02*
D03*
Y269961D02*
D03*
Y289961D02*
D03*
Y299961D02*
D03*
X122047Y391732D02*
D03*
X205276Y319961D02*
D03*
Y339961D02*
D03*
Y359961D02*
D03*
Y349961D02*
D03*
Y329961D02*
D03*
Y309961D02*
D03*
Y299961D02*
D03*
X395276Y405961D02*
D03*
Y395961D02*
D03*
Y365961D02*
D03*
Y345961D02*
D03*
Y325961D02*
D03*
Y335961D02*
D03*
Y355961D02*
D03*
Y375961D02*
D03*
Y385961D02*
D03*
D42*
X226220Y365073D02*
D03*
X112047Y391732D02*
D03*
D43*
X205276Y279961D02*
D03*
X395276Y229961D02*
D03*
X205276Y369961D02*
D03*
X395276Y315961D02*
D03*
D44*
X238819Y409685D02*
D03*
X228819D02*
D03*
X248819D02*
D03*
X258819Y409685D02*
D03*
X307008D02*
D03*
X297008D02*
D03*
X317008D02*
D03*
X327008D02*
D03*
X185275Y249961D02*
D03*
X175276D02*
D03*
X185275Y259961D02*
D03*
X175276D02*
D03*
X185275Y279961D02*
D03*
X175276D02*
D03*
X185275Y329961D02*
D03*
X175276D02*
D03*
X185275Y349961D02*
D03*
X175276D02*
D03*
X185275Y369961D02*
D03*
X175276D02*
D03*
X185275Y389961D02*
D03*
X175276D02*
D03*
X185275Y399961D02*
D03*
X175276D02*
D03*
X185275Y409961D02*
D03*
X175276Y379961D02*
D03*
X185275D02*
D03*
X175276Y359961D02*
D03*
X185275D02*
D03*
X175276Y339961D02*
D03*
X185275D02*
D03*
X175276Y319961D02*
D03*
X185275D02*
D03*
X175276Y309961D02*
D03*
X185275D02*
D03*
X175276Y299961D02*
D03*
X185275D02*
D03*
X175276Y289961D02*
D03*
X185275D02*
D03*
X175276Y269961D02*
D03*
X185275D02*
D03*
X175276Y239961D02*
D03*
Y229961D02*
D03*
Y219961D02*
D03*
X185275Y239961D02*
D03*
Y229961D02*
D03*
Y219961D02*
D03*
X18260Y265873D02*
D03*
Y275873D02*
D03*
X18260Y240832D02*
D03*
Y301351D02*
D03*
Y311351D02*
D03*
X425276Y219961D02*
D03*
Y229961D02*
D03*
Y239961D02*
D03*
X415276Y219961D02*
D03*
Y229961D02*
D03*
Y239961D02*
D03*
X425276Y269961D02*
D03*
X415276D02*
D03*
X425276Y289961D02*
D03*
X415276D02*
D03*
X425276Y299961D02*
D03*
X415276D02*
D03*
X425276Y309961D02*
D03*
X415276D02*
D03*
X425276Y319961D02*
D03*
X415276D02*
D03*
X425276Y339961D02*
D03*
X415276D02*
D03*
X425276Y359961D02*
D03*
X415276D02*
D03*
X425276Y379961D02*
D03*
X415276D02*
D03*
X425276Y409961D02*
D03*
X415276Y399961D02*
D03*
X425276D02*
D03*
X415276Y389961D02*
D03*
X425276D02*
D03*
X415276Y369961D02*
D03*
X425276D02*
D03*
X415276Y349961D02*
D03*
X425276D02*
D03*
X415276Y329961D02*
D03*
X425276D02*
D03*
X415276Y279961D02*
D03*
X425276D02*
D03*
X415276Y259961D02*
D03*
X425276D02*
D03*
X415276Y249961D02*
D03*
X425276D02*
D03*
D45*
X218819Y409685D02*
D03*
X287008D02*
D03*
D46*
X175276Y409961D02*
D03*
X18260Y255873D02*
D03*
X18260Y230832D02*
D03*
Y291351D02*
D03*
X415276Y409961D02*
D03*
D47*
X516629Y362930D02*
D03*
X587339D02*
D03*
D48*
X551984Y398285D02*
D03*
X544913Y391214D02*
D03*
X559055D02*
D03*
Y334646D02*
D03*
X551984Y327575D02*
D03*
X544913Y334646D02*
D03*
X657480Y110236D02*
D03*
Y102362D02*
D03*
Y94488D02*
D03*
X649606D02*
D03*
Y102362D02*
D03*
Y110236D02*
D03*
X641732D02*
D03*
Y102362D02*
D03*
Y94488D02*
D03*
X633858D02*
D03*
Y102362D02*
D03*
Y110236D02*
D03*
X633858Y177165D02*
D03*
Y169291D02*
D03*
Y161417D02*
D03*
Y153543D02*
D03*
Y145669D02*
D03*
X641732D02*
D03*
Y153543D02*
D03*
Y161417D02*
D03*
Y169291D02*
D03*
Y177165D02*
D03*
X649606D02*
D03*
Y169291D02*
D03*
Y161417D02*
D03*
Y153543D02*
D03*
Y145669D02*
D03*
X657480D02*
D03*
Y153543D02*
D03*
Y161417D02*
D03*
Y169291D02*
D03*
Y177165D02*
D03*
D49*
X655512Y260000D02*
D03*
X608268D02*
D03*
D50*
X480315Y157480D02*
D03*
X291338D02*
D03*
X102362D02*
D03*
D51*
X496063Y98425D02*
D03*
X446850D02*
D03*
X401575D02*
D03*
X352362D02*
D03*
X307086D02*
D03*
X257874D02*
D03*
X212598D02*
D03*
X541339D02*
D03*
X23622D02*
D03*
X68898D02*
D03*
X118110D02*
D03*
X163386D02*
D03*
D52*
X506063D02*
D03*
X516063D02*
D03*
X466850D02*
D03*
X456850D02*
D03*
X411575D02*
D03*
X421575D02*
D03*
X372362D02*
D03*
X362362D02*
D03*
X317087D02*
D03*
X327086D02*
D03*
X277874D02*
D03*
X267874D02*
D03*
X222598D02*
D03*
X232598D02*
D03*
X561339D02*
D03*
X551339D02*
D03*
X33622D02*
D03*
X43622D02*
D03*
X88898D02*
D03*
X78898D02*
D03*
X128110D02*
D03*
X138110D02*
D03*
X183386D02*
D03*
X173386D02*
D03*
D53*
X217520Y34297D02*
D03*
X247047D02*
D03*
X480315Y68898D02*
D03*
Y9843D02*
D03*
X291338Y68898D02*
D03*
Y9843D02*
D03*
X102362Y68898D02*
D03*
Y9843D02*
D03*
X146653Y35433D02*
D03*
X176181D02*
D03*
X335630Y33678D02*
D03*
X365158D02*
D03*
X406496D02*
D03*
X436024D02*
D03*
X524606Y35433D02*
D03*
X554134D02*
D03*
X24606D02*
D03*
X54134D02*
D03*
D54*
X497695Y242340D02*
D03*
Y281710D02*
D03*
Y258088D02*
D03*
Y289584D02*
D03*
Y273836D02*
D03*
Y265962D02*
D03*
X505569Y289584D02*
D03*
Y258088D02*
D03*
Y265962D02*
D03*
Y281710D02*
D03*
Y273836D02*
D03*
X490572Y265962D02*
D03*
Y273836D02*
D03*
Y281710D02*
D03*
Y289584D02*
D03*
X564623Y218717D02*
D03*
Y206906D02*
D03*
Y195095D02*
D03*
Y183284D02*
D03*
X552812Y218717D02*
D03*
Y206906D02*
D03*
Y195095D02*
D03*
Y183284D02*
D03*
Y171473D02*
D03*
Y159662D02*
D03*
X541001Y218717D02*
D03*
Y206906D02*
D03*
Y195095D02*
D03*
Y183284D02*
D03*
Y159662D02*
D03*
Y136040D02*
D03*
X529190Y230528D02*
D03*
Y218717D02*
D03*
Y206906D02*
D03*
Y195095D02*
D03*
Y183284D02*
D03*
X517379Y206906D02*
D03*
Y195095D02*
D03*
Y183284D02*
D03*
Y171473D02*
D03*
Y159662D02*
D03*
Y147851D02*
D03*
Y136040D02*
D03*
X505568Y206906D02*
D03*
Y195095D02*
D03*
X470135Y218717D02*
D03*
X458324Y206906D02*
D03*
X446513D02*
D03*
Y183284D02*
D03*
Y136040D02*
D03*
X434702Y147851D02*
D03*
X422891Y206906D02*
D03*
Y195095D02*
D03*
Y183284D02*
D03*
Y147851D02*
D03*
X411080Y206906D02*
D03*
Y195095D02*
D03*
Y171473D02*
D03*
Y159662D02*
D03*
Y147851D02*
D03*
Y136040D02*
D03*
Y124229D02*
D03*
X399269Y218717D02*
D03*
Y206906D02*
D03*
Y136040D02*
D03*
Y112418D02*
D03*
X387458Y218717D02*
D03*
Y195095D02*
D03*
Y183284D02*
D03*
Y171473D02*
D03*
Y136040D02*
D03*
Y112418D02*
D03*
X375647Y206906D02*
D03*
Y195095D02*
D03*
Y183284D02*
D03*
Y159662D02*
D03*
Y136040D02*
D03*
X363836Y218717D02*
D03*
Y206906D02*
D03*
Y195095D02*
D03*
Y171473D02*
D03*
Y136040D02*
D03*
X352025Y218717D02*
D03*
Y206906D02*
D03*
Y195095D02*
D03*
Y183284D02*
D03*
Y147851D02*
D03*
Y136040D02*
D03*
X340214Y218717D02*
D03*
Y206906D02*
D03*
Y195095D02*
D03*
Y183284D02*
D03*
Y136040D02*
D03*
X328403Y206906D02*
D03*
Y195095D02*
D03*
Y183284D02*
D03*
Y171473D02*
D03*
Y147851D02*
D03*
Y136040D02*
D03*
X316592Y206906D02*
D03*
Y195095D02*
D03*
X281159Y218717D02*
D03*
X257537Y183284D02*
D03*
Y147851D02*
D03*
Y136040D02*
D03*
X245726Y218717D02*
D03*
Y206906D02*
D03*
Y147851D02*
D03*
X233915D02*
D03*
X222104Y183284D02*
D03*
Y171473D02*
D03*
Y159662D02*
D03*
Y147851D02*
D03*
Y124229D02*
D03*
X210293Y218717D02*
D03*
Y206906D02*
D03*
Y183284D02*
D03*
Y171473D02*
D03*
Y136040D02*
D03*
Y112418D02*
D03*
X198482Y206906D02*
D03*
Y183284D02*
D03*
Y171473D02*
D03*
Y136040D02*
D03*
Y112418D02*
D03*
X186670Y206906D02*
D03*
Y183284D02*
D03*
Y112418D02*
D03*
X174859Y206906D02*
D03*
Y136040D02*
D03*
X163049Y218717D02*
D03*
Y206906D02*
D03*
Y183284D02*
D03*
Y136040D02*
D03*
X151237Y195095D02*
D03*
Y183284D02*
D03*
X139426Y206906D02*
D03*
Y195095D02*
D03*
Y183284D02*
D03*
Y171473D02*
D03*
Y159662D02*
D03*
Y147851D02*
D03*
Y136040D02*
D03*
X127615Y195095D02*
D03*
X115804D02*
D03*
X92182Y218717D02*
D03*
X68560Y183284D02*
D03*
Y171473D02*
D03*
Y147851D02*
D03*
Y136040D02*
D03*
X56749Y147851D02*
D03*
Y136040D02*
D03*
X44938Y218717D02*
D03*
Y206906D02*
D03*
Y195095D02*
D03*
Y147851D02*
D03*
Y136040D02*
D03*
X33127Y277772D02*
D03*
Y265961D02*
D03*
Y254150D02*
D03*
Y242339D02*
D03*
Y230528D02*
D03*
Y218717D02*
D03*
Y206906D02*
D03*
Y195095D02*
D03*
Y183284D02*
D03*
Y171473D02*
D03*
Y147851D02*
D03*
Y136040D02*
D03*
Y124229D02*
D03*
X21316Y218717D02*
D03*
Y206906D02*
D03*
Y195095D02*
D03*
Y183284D02*
D03*
Y171473D02*
D03*
Y147851D02*
D03*
Y136040D02*
D03*
Y112418D02*
D03*
X9505Y277772D02*
D03*
Y265961D02*
D03*
Y254150D02*
D03*
Y242339D02*
D03*
Y230528D02*
D03*
Y218717D02*
D03*
Y206906D02*
D03*
Y195095D02*
D03*
Y183284D02*
D03*
Y171473D02*
D03*
X505569Y242340D02*
D03*
X481947Y289584D02*
D03*
Y281710D02*
D03*
Y273836D02*
D03*
X474073Y289584D02*
D03*
Y281710D02*
D03*
Y265962D02*
D03*
X466199Y289584D02*
D03*
Y281710D02*
D03*
X458325Y289584D02*
D03*
Y281710D02*
D03*
Y258088D02*
D03*
X450451Y289584D02*
D03*
Y281710D02*
D03*
Y258088D02*
D03*
Y242340D02*
D03*
X442577Y258088D02*
D03*
Y242340D02*
D03*
X411081D02*
D03*
X403207D02*
D03*
X387459Y273836D02*
D03*
Y250214D02*
D03*
X363837Y258088D02*
D03*
Y250214D02*
D03*
X355963Y258088D02*
D03*
X348089Y242340D02*
D03*
X340215Y265962D02*
D03*
Y258088D02*
D03*
Y242340D02*
D03*
X332341Y289584D02*
D03*
Y265962D02*
D03*
Y258088D02*
D03*
Y242340D02*
D03*
X324467Y289584D02*
D03*
Y265962D02*
D03*
Y258088D02*
D03*
X316593Y289584D02*
D03*
Y265962D02*
D03*
Y258088D02*
D03*
Y242340D02*
D03*
X308719Y289584D02*
D03*
Y265962D02*
D03*
Y258088D02*
D03*
X300845Y289584D02*
D03*
Y265962D02*
D03*
X292971Y281710D02*
D03*
Y265962D02*
D03*
X285097Y289584D02*
D03*
Y273836D02*
D03*
X277223D02*
D03*
Y265962D02*
D03*
X269349D02*
D03*
Y258088D02*
D03*
X261474Y289584D02*
D03*
Y281710D02*
D03*
Y273836D02*
D03*
Y258088D02*
D03*
X253601Y289584D02*
D03*
Y281710D02*
D03*
Y273836D02*
D03*
Y265962D02*
D03*
X245726Y289584D02*
D03*
Y281710D02*
D03*
Y273836D02*
D03*
Y265962D02*
D03*
X237852Y289584D02*
D03*
Y281710D02*
D03*
Y273836D02*
D03*
X229978Y289584D02*
D03*
Y281710D02*
D03*
Y265962D02*
D03*
X222104Y289584D02*
D03*
Y273836D02*
D03*
Y265962D02*
D03*
X214230Y289584D02*
D03*
Y273836D02*
D03*
Y265962D02*
D03*
X206356Y289584D02*
D03*
X198482D02*
D03*
Y273836D02*
D03*
Y265962D02*
D03*
Y242340D02*
D03*
X190608Y289584D02*
D03*
Y273836D02*
D03*
Y265962D02*
D03*
Y242340D02*
D03*
X166986Y289584D02*
D03*
Y281710D02*
D03*
Y273836D02*
D03*
Y265962D02*
D03*
Y258088D02*
D03*
Y242340D02*
D03*
X159112Y289584D02*
D03*
Y281710D02*
D03*
Y273836D02*
D03*
Y265962D02*
D03*
Y258088D02*
D03*
Y242340D02*
D03*
X143364Y289584D02*
D03*
Y281710D02*
D03*
Y273836D02*
D03*
Y265962D02*
D03*
Y258088D02*
D03*
Y242340D02*
D03*
X135490Y289584D02*
D03*
Y281710D02*
D03*
Y273836D02*
D03*
Y265962D02*
D03*
Y258088D02*
D03*
X127616Y289584D02*
D03*
Y281710D02*
D03*
Y273836D02*
D03*
Y265962D02*
D03*
Y258088D02*
D03*
Y242340D02*
D03*
X119742Y273836D02*
D03*
Y265962D02*
D03*
Y258088D02*
D03*
X111868Y289584D02*
D03*
Y265962D02*
D03*
X103994Y289584D02*
D03*
Y281710D02*
D03*
X96120Y289584D02*
D03*
Y281710D02*
D03*
Y273836D02*
D03*
X88246Y289584D02*
D03*
Y281710D02*
D03*
Y273836D02*
D03*
Y265962D02*
D03*
X80372Y281710D02*
D03*
Y273836D02*
D03*
Y265962D02*
D03*
Y258088D02*
D03*
X72498Y289584D02*
D03*
Y273836D02*
D03*
Y265962D02*
D03*
Y258088D02*
D03*
Y242340D02*
D03*
X64624Y289584D02*
D03*
Y281710D02*
D03*
Y265962D02*
D03*
Y258088D02*
D03*
Y250214D02*
D03*
X48876Y273836D02*
D03*
Y265962D02*
D03*
Y258088D02*
D03*
X41002Y273836D02*
D03*
Y265962D02*
D03*
Y258088D02*
D03*
X594151Y183284D02*
D03*
Y177378D02*
D03*
Y171473D02*
D03*
Y165568D02*
D03*
Y159662D02*
D03*
Y153756D02*
D03*
Y147851D02*
D03*
Y141945D02*
D03*
X588245Y183284D02*
D03*
Y177378D02*
D03*
Y171473D02*
D03*
Y165568D02*
D03*
Y159662D02*
D03*
Y153756D02*
D03*
Y147851D02*
D03*
Y141945D02*
D03*
Y136040D02*
D03*
Y130134D02*
D03*
Y124229D02*
D03*
Y118323D02*
D03*
Y112418D02*
D03*
Y106512D02*
D03*
Y100607D02*
D03*
Y94701D02*
D03*
X82116Y223158D02*
D03*
X324218Y358268D02*
D03*
X314961Y349961D02*
D03*
X379035Y375961D02*
D03*
X347823Y337989D02*
D03*
Y303922D02*
D03*
X379035Y308046D02*
D03*
X347823Y325961D02*
D03*
Y268518D02*
D03*
X358268Y315961D02*
D03*
X378838Y269961D02*
D03*
X289352Y279790D02*
D03*
X370079Y272291D02*
D03*
X268522Y312443D02*
D03*
X321232Y280237D02*
D03*
X386014Y327458D02*
D03*
X370079Y251231D02*
D03*
X250000Y167323D02*
D03*
X244094Y228346D02*
D03*
X378838Y244712D02*
D03*
X56000Y167323D02*
D03*
X223565Y208228D02*
D03*
X520592Y248031D02*
D03*
X280885Y200304D02*
D03*
X223565Y279794D02*
D03*
X378838Y299833D02*
D03*
X379035Y355961D02*
D03*
X531496Y145928D02*
D03*
X283465Y255906D02*
D03*
X291338D02*
D03*
X102631Y248031D02*
D03*
X102631Y255906D02*
D03*
X306930Y367600D02*
D03*
X296877Y367927D02*
D03*
X286930Y367927D02*
D03*
X306930Y380652D02*
D03*
X296877D02*
D03*
X286930Y380652D02*
D03*
X556949Y157178D02*
D03*
X214567Y165551D02*
D03*
X533124Y173099D02*
D03*
X576100Y134541D02*
D03*
X576151Y146904D02*
D03*
X541338Y150775D02*
D03*
Y142775D02*
D03*
X523406Y145928D02*
D03*
X169718Y155512D02*
D03*
Y163321D02*
D03*
X357383Y155284D02*
D03*
Y163284D02*
D03*
X566747Y124815D02*
D03*
X574747D02*
D03*
X588778Y198641D02*
D03*
X593422D02*
D03*
X593502Y194310D02*
D03*
X588778D02*
D03*
X575939Y294301D02*
D03*
X587289Y260622D02*
D03*
X588583Y243961D02*
D03*
X579969Y244033D02*
D03*
X556547Y265197D02*
D03*
X572953Y279832D02*
D03*
X587210Y266269D02*
D03*
X587289Y274514D02*
D03*
X348858Y172744D02*
D03*
X340651Y162596D02*
D03*
X348348Y162596D02*
D03*
X371971Y168590D02*
D03*
X394163Y159449D02*
D03*
X401327Y165324D02*
D03*
X371308Y131953D02*
D03*
X379921D02*
D03*
X186201Y168898D02*
D03*
X160581Y173228D02*
D03*
X152699Y162859D02*
D03*
X160617Y162824D02*
D03*
X207906Y159449D02*
D03*
X192913Y131047D02*
D03*
X184378Y131219D02*
D03*
X83788Y198031D02*
D03*
X87725D02*
D03*
X67726Y188976D02*
D03*
X127953Y202756D02*
D03*
X94726Y255906D02*
D03*
X70866Y222877D02*
D03*
X85770Y198031D02*
D03*
X91922Y200304D02*
D03*
X91898Y195798D02*
D03*
X91922Y198031D02*
D03*
X125984Y233972D02*
D03*
X315761Y233961D02*
D03*
X94726Y248031D02*
D03*
X280885Y198031D02*
D03*
X280861Y195798D02*
D03*
X273622Y198031D02*
D03*
X313976Y202756D02*
D03*
X258874Y188976D02*
D03*
X271654Y198031D02*
D03*
X275465D02*
D03*
X460557Y223882D02*
D03*
X449711Y223562D02*
D03*
X269685Y223158D02*
D03*
X259842D02*
D03*
X291338Y248031D02*
D03*
X283465D02*
D03*
X480315Y247929D02*
D03*
X472815D02*
D03*
X501619Y233961D02*
D03*
X502047Y203267D02*
D03*
X448819Y188237D02*
D03*
X469862Y200107D02*
D03*
X469837Y195601D02*
D03*
X469862Y197835D02*
D03*
X464441D02*
D03*
X460630D02*
D03*
X462599Y197835D02*
D03*
X480315Y255906D02*
D03*
X472457D02*
D03*
X501968Y358354D02*
D03*
X493004Y358268D02*
D03*
X497244D02*
D03*
X645291Y285433D02*
D03*
X645290Y289370D02*
D03*
X606299Y281496D02*
D03*
Y289370D02*
D03*
X606299Y285433D02*
D03*
X645290Y281496D02*
D03*
X623081Y357381D02*
D03*
X623133Y365779D02*
D03*
X618110D02*
D03*
X623133Y371165D02*
D03*
X655512Y340488D02*
D03*
X626870Y342520D02*
D03*
X607874Y101047D02*
D03*
X607874Y120803D02*
D03*
X607874Y151575D02*
D03*
Y172047D02*
D03*
X618898Y192913D02*
D03*
X623622D02*
D03*
X623541Y197244D02*
D03*
X618898D02*
D03*
X287008Y224803D02*
D03*
Y220472D02*
D03*
Y216142D02*
D03*
X291338Y224803D02*
D03*
Y220472D02*
D03*
Y216142D02*
D03*
X295669Y224803D02*
D03*
Y220472D02*
D03*
Y216142D02*
D03*
X484646D02*
D03*
Y220472D02*
D03*
Y224803D02*
D03*
X480315Y216142D02*
D03*
Y220472D02*
D03*
Y224803D02*
D03*
X475984Y216142D02*
D03*
Y220472D02*
D03*
Y224803D02*
D03*
X98032D02*
D03*
Y220472D02*
D03*
Y216142D02*
D03*
X102362Y224803D02*
D03*
Y220472D02*
D03*
Y216142D02*
D03*
X106693Y224803D02*
D03*
Y220472D02*
D03*
Y216142D02*
D03*
D70*
X646505Y161417D02*
D03*
D95*
X285370Y341375D02*
D03*
Y336375D02*
D03*
Y331375D02*
D03*
Y326375D02*
D03*
Y321375D02*
D03*
Y316375D02*
D03*
Y311375D02*
D03*
X306630D02*
D03*
Y316375D02*
D03*
Y321375D02*
D03*
Y326375D02*
D03*
Y331375D02*
D03*
Y336375D02*
D03*
Y341375D02*
D03*
D96*
X542207Y172417D02*
D03*
X538467Y164543D02*
D03*
X545947D02*
D03*
X363289Y180875D02*
D03*
X359549Y173001D02*
D03*
X367029D02*
D03*
X180906Y173228D02*
D03*
X173425D02*
D03*
X177165Y181102D02*
D03*
D108*
X582677Y70866D02*
D03*
X570866D02*
D03*
X189346Y70866D02*
D03*
X201157D02*
D03*
X378634Y70866D02*
D03*
X390445D02*
D03*
D109*
X589322D02*
D03*
X564222D02*
D03*
X182702Y70866D02*
D03*
X207802D02*
D03*
X371989Y70866D02*
D03*
X397089D02*
D03*
D110*
X258819Y370079D02*
D03*
X264819Y372279D02*
D03*
X258248Y380203D02*
D03*
X264248Y382403D02*
D03*
D111*
X316930Y381046D02*
D03*
Y386361D02*
D03*
X326860Y385966D02*
D03*
Y380652D02*
D03*
X336930Y380652D02*
D03*
Y385966D02*
D03*
D112*
X217407Y329961D02*
D03*
X217407Y389961D02*
D03*
D113*
X224100Y329961D02*
D03*
X95550Y363082D02*
D03*
X112047Y362205D02*
D03*
X224100Y389961D02*
D03*
D114*
X563602Y254703D02*
D03*
Y256671D02*
D03*
Y258640D02*
D03*
Y260608D02*
D03*
Y262577D02*
D03*
Y264545D02*
D03*
Y266514D02*
D03*
Y268482D02*
D03*
X576398D02*
D03*
Y266514D02*
D03*
Y264545D02*
D03*
Y262577D02*
D03*
Y260608D02*
D03*
Y258640D02*
D03*
Y256671D02*
D03*
Y254703D02*
D03*
D115*
X567047Y270353D02*
D03*
X572953D02*
D03*
Y252833D02*
D03*
X567047D02*
D03*
D116*
X570000Y261593D02*
D03*
D117*
X568760Y148872D02*
D03*
Y146904D02*
D03*
Y144935D02*
D03*
Y142966D02*
D03*
Y140998D02*
D03*
X551240Y148872D02*
D03*
Y146904D02*
D03*
Y144935D02*
D03*
Y142966D02*
D03*
Y140998D02*
D03*
X383860Y161417D02*
D03*
Y159449D02*
D03*
Y157480D02*
D03*
Y155512D02*
D03*
Y153543D02*
D03*
X366340Y161417D02*
D03*
Y153543D02*
D03*
Y155512D02*
D03*
Y157480D02*
D03*
Y159449D02*
D03*
X197441Y161417D02*
D03*
Y159449D02*
D03*
Y157480D02*
D03*
Y155512D02*
D03*
Y153543D02*
D03*
X179921Y161417D02*
D03*
Y159449D02*
D03*
Y157480D02*
D03*
Y155512D02*
D03*
Y153543D02*
D03*
D118*
X623081Y349901D02*
D03*
Y353641D02*
D03*
Y357381D02*
D03*
X633907D02*
D03*
Y353641D02*
D03*
Y349901D02*
D03*
D119*
X621654Y196850D02*
D03*
Y207874D02*
D03*
D120*
X283839Y231201D02*
D03*
X288839D02*
D03*
X293839D02*
D03*
X298838D02*
D03*
X283839Y209744D02*
D03*
X288839D02*
D03*
X293839D02*
D03*
X298838D02*
D03*
X487815D02*
D03*
X482815D02*
D03*
X477815D02*
D03*
X472815D02*
D03*
X487815Y231201D02*
D03*
X482815D02*
D03*
X477815D02*
D03*
X472815D02*
D03*
X94862D02*
D03*
X99862D02*
D03*
X104862D02*
D03*
X109862D02*
D03*
X94862Y209744D02*
D03*
X99862D02*
D03*
X104862D02*
D03*
X109862D02*
D03*
D121*
X291338Y220472D02*
D03*
X480315D02*
D03*
X102362D02*
D03*
D122*
X95550Y369774D02*
D03*
X112047Y368898D02*
D03*
D123*
X216328Y343540D02*
D03*
X224173D02*
D03*
M02*
