G04*
G04 #@! TF.GenerationSoftware,Altium Limited,Altium Designer,21.0.8 (223)*
G04*
G04 Layer_Color=8388736*
%FSLAX25Y25*%
%MOIN*%
G70*
G04*
G04 #@! TF.SameCoordinates,9B631218-273A-463D-9665-DA23E21FF141*
G04*
G04*
G04 #@! TF.FilePolarity,Negative*
G04*
G01*
G75*
%ADD14C,0.01000*%
%ADD26R,0.16900X0.06300*%
%ADD35R,0.09055X0.09843*%
%ADD37R,0.02559X0.01181*%
%ADD38R,0.01181X0.02559*%
%ADD41R,0.08394X0.06394*%
%ADD42R,0.03740X0.03740*%
%ADD43R,0.06394X0.04394*%
%ADD44R,0.05118X0.04724*%
%ADD45R,0.04724X0.05118*%
%ADD46R,0.06394X0.08394*%
%ADD47R,0.16142X0.24016*%
%ADD48R,0.04394X0.06394*%
%ADD49R,0.36994X0.43994*%
%ADD50R,0.03740X0.03740*%
%ADD51R,0.04394X0.03594*%
%ADD52C,0.05118*%
G04:AMPARAMS|DCode=53|XSize=39.37mil|YSize=61.02mil|CornerRadius=3.92mil|HoleSize=0mil|Usage=FLASHONLY|Rotation=0.000|XOffset=0mil|YOffset=0mil|HoleType=Round|Shape=RoundedRectangle|*
%AMROUNDEDRECTD53*
21,1,0.03937,0.05319,0,0,0.0*
21,1,0.03154,0.06102,0,0,0.0*
1,1,0.00784,0.01577,-0.02659*
1,1,0.00784,-0.01577,-0.02659*
1,1,0.00784,-0.01577,0.02659*
1,1,0.00784,0.01577,0.02659*
%
%ADD53ROUNDEDRECTD53*%
G04:AMPARAMS|DCode=54|XSize=127.95mil|YSize=61.02mil|CornerRadius=3.97mil|HoleSize=0mil|Usage=FLASHONLY|Rotation=0.000|XOffset=0mil|YOffset=0mil|HoleType=Round|Shape=RoundedRectangle|*
%AMROUNDEDRECTD54*
21,1,0.12795,0.05309,0,0,0.0*
21,1,0.12002,0.06102,0,0,0.0*
1,1,0.00793,0.06001,-0.02655*
1,1,0.00793,-0.06001,-0.02655*
1,1,0.00793,-0.06001,0.02655*
1,1,0.00793,0.06001,0.02655*
%
%ADD54ROUNDEDRECTD54*%
%ADD55R,0.07874X0.16929*%
%ADD56R,0.06693X0.14173*%
%ADD57R,0.02362X0.02362*%
%ADD58R,0.14173X0.06693*%
%ADD59R,0.02362X0.02362*%
%ADD60R,0.16929X0.07874*%
%ADD61R,0.06299X0.06299*%
%ADD62C,0.06299*%
%ADD63C,0.06890*%
%ADD64C,0.13780*%
%ADD65R,0.07894X0.08268*%
G04:AMPARAMS|DCode=66|XSize=78.94mil|YSize=82.68mil|CornerRadius=39.47mil|HoleSize=0mil|Usage=FLASHONLY|Rotation=0.000|XOffset=0mil|YOffset=0mil|HoleType=Round|Shape=RoundedRectangle|*
%AMROUNDEDRECTD66*
21,1,0.07894,0.00374,0,0,0.0*
21,1,0.00000,0.08268,0,0,0.0*
1,1,0.07894,0.00000,-0.00187*
1,1,0.07894,0.00000,-0.00187*
1,1,0.07894,0.00000,0.00187*
1,1,0.07894,0.00000,0.00187*
%
%ADD66ROUNDEDRECTD66*%
%ADD67C,0.47638*%
%ADD68R,0.06299X0.06299*%
%ADD69C,0.03543*%
%ADD70C,0.06693*%
%ADD71R,0.06693X0.06693*%
%ADD72R,0.06693X0.06693*%
%ADD73C,0.08268*%
%ADD74C,0.10236*%
%ADD75C,0.07480*%
%ADD76C,0.06394*%
%ADD77C,0.16142*%
%ADD78C,0.11024*%
%ADD79R,0.11024X0.11024*%
G36*
X364719Y412018D02*
X358319D01*
Y420218D01*
X364719D01*
Y412018D01*
D02*
G37*
G36*
X354719D02*
X348319D01*
Y420218D01*
X354719D01*
Y412018D01*
D02*
G37*
G36*
X354719Y396068D02*
X348319D01*
Y404268D01*
X354719D01*
Y396068D01*
D02*
G37*
G36*
X364719Y396068D02*
X358319D01*
Y404268D01*
X364719D01*
Y396068D01*
D02*
G37*
G36*
X55594Y340720D02*
X47394D01*
Y347120D01*
X55594D01*
Y340720D01*
D02*
G37*
G36*
Y326970D02*
X47394D01*
Y333370D01*
X55594D01*
Y326970D01*
D02*
G37*
G36*
X553604Y212281D02*
X554003Y212263D01*
X554311Y212228D01*
X554565Y212173D01*
X554701Y212130D01*
X554966Y212031D01*
X555167Y211938D01*
X555243Y211889D01*
X555262Y211838D01*
X555160Y211863D01*
X554677Y211983D01*
X554105Y212048D01*
X553507Y212055D01*
X552948Y212004D01*
X552576Y211921D01*
X552456Y211878D01*
X552462Y211857D01*
X552609Y211853D01*
X552785Y211856D01*
X553243Y211870D01*
X553269Y211554D01*
X553265Y211334D01*
X553189Y211157D01*
X553010Y210954D01*
X553007Y210950D01*
X552803Y210770D01*
X552615Y210685D01*
X552359Y210662D01*
X552299Y210661D01*
X551989Y210686D01*
X551760Y210777D01*
X551624Y210877D01*
X551430Y211074D01*
X551387Y211231D01*
X551496Y211382D01*
X551639Y211485D01*
X551809Y211605D01*
X551839Y211653D01*
X551741Y211628D01*
X551523Y211530D01*
X551451Y211495D01*
X551164Y211371D01*
X550963Y211331D01*
X550871Y211379D01*
X550868Y211400D01*
X550933Y211555D01*
X551060Y211703D01*
X551102Y211753D01*
X551157Y211800D01*
X551333Y211952D01*
X551563Y212101D01*
X551719Y212176D01*
X551881Y212228D01*
X552083Y212260D01*
X552359Y212278D01*
X552745Y212285D01*
X553076Y212286D01*
X553604Y212281D01*
D02*
G37*
G36*
X555224Y213198D02*
X556163Y213010D01*
X557061Y212678D01*
X557101Y212660D01*
X557440Y212484D01*
X557795Y212275D01*
X558136Y212054D01*
X558432Y211841D01*
X558655Y211657D01*
X558773Y211524D01*
X558785Y211490D01*
X558762Y211427D01*
X558677Y211434D01*
X558506Y211520D01*
X558226Y211692D01*
X557731Y211973D01*
X557239Y212170D01*
X556705Y212295D01*
X556086Y212361D01*
X555576Y212377D01*
X554876Y212401D01*
X554320Y212458D01*
X553951Y212533D01*
X553356Y212634D01*
X552773Y212624D01*
X552251Y212506D01*
X552056Y212422D01*
X551779Y212293D01*
X551616Y212252D01*
X551544Y212299D01*
X551535Y212362D01*
X551609Y212453D01*
X551811Y212574D01*
X552106Y212713D01*
X552461Y212855D01*
X552842Y212986D01*
X553217Y213092D01*
X553357Y213124D01*
X554278Y213237D01*
X555224Y213198D01*
D02*
G37*
G36*
X557636Y213138D02*
X558031Y213087D01*
X558479Y213006D01*
X558952Y212902D01*
X559424Y212778D01*
X559776Y212669D01*
X560925Y212205D01*
X562060Y211595D01*
X563149Y210857D01*
X564164Y210012D01*
X564586Y209603D01*
X564985Y209188D01*
X565287Y208853D01*
X565487Y208607D01*
X565577Y208457D01*
X565558Y208411D01*
X565469Y208467D01*
X565301Y208614D01*
X565089Y208821D01*
X565073Y208837D01*
X564455Y209412D01*
X563762Y209953D01*
X563028Y210437D01*
X562290Y210842D01*
X561585Y211146D01*
X561154Y211280D01*
X560823Y211348D01*
X560406Y211411D01*
X559983Y211459D01*
X559908Y211465D01*
X559168Y211522D01*
X558604Y211995D01*
X558269Y212257D01*
X557904Y212513D01*
X557579Y212714D01*
X557537Y212737D01*
X557285Y212881D01*
X557105Y213005D01*
X557035Y213082D01*
X557035Y213083D01*
X557111Y213141D01*
X557320Y213158D01*
X557636Y213138D01*
D02*
G37*
G36*
X551106Y212190D02*
X551093Y212036D01*
X550966Y211794D01*
X550746Y211499D01*
X550467Y211137D01*
X550300Y210856D01*
X550233Y210626D01*
X550253Y210417D01*
X550282Y210335D01*
X550358Y210196D01*
X550473Y210085D01*
X550652Y209995D01*
X550922Y209913D01*
X551309Y209830D01*
X551773Y209747D01*
X552194Y209664D01*
X552593Y209568D01*
X552918Y209472D01*
X553085Y209407D01*
X553425Y209189D01*
X553657Y208930D01*
X553770Y208657D01*
X553751Y208397D01*
X553616Y208201D01*
X553542Y208141D01*
X553457Y208104D01*
X553333Y208090D01*
X553140Y208100D01*
X552847Y208134D01*
X552427Y208190D01*
X552303Y208208D01*
X551379Y208306D01*
X550447Y208348D01*
X549553Y208334D01*
X548745Y208264D01*
X548368Y208204D01*
X547995Y208135D01*
X547641Y208073D01*
X547371Y208028D01*
X547326Y208021D01*
X546993Y207973D01*
X547232Y208227D01*
X547481Y208445D01*
X547792Y208623D01*
X548183Y208766D01*
X548672Y208878D01*
X549278Y208964D01*
X550020Y209028D01*
X550618Y209062D01*
X551910Y209123D01*
X551261Y209226D01*
X550892Y209269D01*
X550429Y209304D01*
X549941Y209324D01*
X549664Y209328D01*
X548641Y209277D01*
X547746Y209125D01*
X546980Y208873D01*
X546345Y208520D01*
X545841Y208068D01*
X545470Y207518D01*
X545438Y207453D01*
X545317Y207182D01*
X545231Y206962D01*
X545201Y206849D01*
X545151Y206754D01*
X545034Y206762D01*
X544904Y206861D01*
X544856Y206932D01*
X544807Y207103D01*
X544770Y207385D01*
X544753Y207723D01*
X544752Y207786D01*
X544761Y208165D01*
X544799Y208442D01*
X544878Y208683D01*
X544967Y208870D01*
X545327Y209430D01*
X545806Y209944D01*
X546414Y210422D01*
X547166Y210874D01*
X547947Y211253D01*
X548294Y211398D01*
X548717Y211558D01*
X549183Y211723D01*
X549659Y211882D01*
X550112Y212024D01*
X550508Y212139D01*
X550816Y212216D01*
X551000Y212245D01*
X551001D01*
X551106Y212190D01*
D02*
G37*
G36*
X553757Y211896D02*
X553832Y211885D01*
X554082Y211814D01*
X554435Y211676D01*
X554853Y211487D01*
X555296Y211268D01*
X555726Y211036D01*
X556104Y210811D01*
X556212Y210741D01*
X556700Y210394D01*
X557188Y210012D01*
X557660Y209613D01*
X558097Y209213D01*
X558484Y208830D01*
X558802Y208480D01*
X559035Y208180D01*
X559165Y207947D01*
X559182Y207811D01*
X559108Y207809D01*
X558940Y207920D01*
X558694Y208133D01*
X558653Y208171D01*
X557798Y208910D01*
X556950Y209501D01*
X556078Y209960D01*
X555153Y210301D01*
X554145Y210540D01*
X553868Y210587D01*
X553558Y210642D01*
X553312Y210698D01*
X553178Y210744D01*
X553170Y210750D01*
X553164Y210854D01*
X553244Y211023D01*
X553263Y211051D01*
X553391Y211298D01*
X553482Y211584D01*
X553487Y211609D01*
X553534Y211815D01*
X553607Y211897D01*
X553757Y211896D01*
D02*
G37*
G36*
X559517Y211060D02*
X559855Y211033D01*
X560203Y210988D01*
X560524Y210928D01*
X560710Y210879D01*
X561440Y210581D01*
X562172Y210148D01*
X562865Y209608D01*
X563255Y209232D01*
X563454Y209010D01*
X563684Y208733D01*
X563920Y208433D01*
X564139Y208141D01*
X564315Y207891D01*
X564426Y207713D01*
X564451Y207649D01*
X564414Y207582D01*
X564302Y207656D01*
X564111Y207873D01*
X564023Y207987D01*
X563485Y208568D01*
X562827Y209074D01*
X562089Y209478D01*
X561346Y209745D01*
X560944Y209873D01*
X560515Y210040D01*
X560088Y210233D01*
X559692Y210436D01*
X559354Y210634D01*
X559103Y210812D01*
X558967Y210956D01*
X558951Y211006D01*
X559027Y211049D01*
X559229Y211066D01*
X559517Y211060D01*
D02*
G37*
G36*
X556240Y211401D02*
X556614Y211354D01*
X557047Y211272D01*
X557306Y211210D01*
X558405Y210858D01*
X559433Y210382D01*
X560370Y209795D01*
X561195Y209108D01*
X561738Y208524D01*
X561973Y208218D01*
X562207Y207877D01*
X562417Y207538D01*
X562583Y207237D01*
X562682Y207009D01*
X562701Y206921D01*
X562666Y206829D01*
X562562Y206887D01*
X562390Y207091D01*
X562248Y207296D01*
X561706Y207988D01*
X561066Y208600D01*
X560353Y209114D01*
X559595Y209512D01*
X558819Y209778D01*
X558201Y209885D01*
X557858Y209931D01*
X557599Y210018D01*
X557339Y210176D01*
X557243Y210246D01*
X556946Y210458D01*
X556588Y210697D01*
X556290Y210885D01*
X556027Y211055D01*
X555826Y211204D01*
X555725Y211302D01*
X555721Y211311D01*
X555767Y211381D01*
X555949Y211410D01*
X556240Y211401D01*
D02*
G37*
G36*
X554924Y208420D02*
X555765Y208236D01*
X556551Y207984D01*
X557254Y207673D01*
X557846Y207318D01*
X558302Y206929D01*
X558306Y206924D01*
X558509Y206688D01*
X558712Y206417D01*
X558895Y206148D01*
X559032Y205915D01*
X559103Y205752D01*
X559102Y205700D01*
X559028Y205732D01*
X558883Y205855D01*
X558802Y205936D01*
X558284Y206363D01*
X557617Y206735D01*
X556813Y207048D01*
X555880Y207299D01*
X554830Y207483D01*
X553962Y207577D01*
X553582Y207611D01*
X553268Y207645D01*
X553053Y207674D01*
X552974Y207694D01*
X552958Y207786D01*
X553074Y207864D01*
X553285Y207908D01*
X553377Y207911D01*
X553610Y207935D01*
X553794Y208028D01*
X553993Y208220D01*
X554276Y208529D01*
X554924Y208420D01*
D02*
G37*
G36*
X552457Y210446D02*
X552556Y210444D01*
X553161Y210423D01*
X553652Y210378D01*
X554078Y210306D01*
X554326Y210245D01*
X555383Y209908D01*
X556327Y209490D01*
X557175Y208976D01*
X557947Y208351D01*
X558662Y207602D01*
X559337Y206712D01*
X559862Y205890D01*
X559976Y205678D01*
X559992Y205592D01*
X559915Y205628D01*
X559752Y205783D01*
X559507Y206053D01*
X559367Y206218D01*
X558684Y206935D01*
X557936Y207550D01*
X557150Y208045D01*
X556350Y208401D01*
X555951Y208523D01*
X555637Y208589D01*
X555238Y208651D01*
X554836Y208699D01*
X554801Y208702D01*
X554455Y208737D01*
X554232Y208778D01*
X554089Y208840D01*
X553983Y208938D01*
X553930Y209006D01*
X553532Y209415D01*
X552985Y209768D01*
X552282Y210069D01*
X552240Y210083D01*
X551908Y210203D01*
X551646Y210307D01*
X551485Y210382D01*
X551451Y210410D01*
X551530Y210428D01*
X551744Y210441D01*
X552063Y210448D01*
X552457Y210446D01*
D02*
G37*
G36*
X558529Y209469D02*
X559049Y209346D01*
X559611Y209109D01*
X560167Y208781D01*
X560667Y208388D01*
X560682Y208374D01*
X561226Y207788D01*
X561741Y207074D01*
X562205Y206271D01*
X562594Y205417D01*
X562785Y204887D01*
X562897Y204506D01*
X562940Y204277D01*
X562918Y204199D01*
X562835Y204274D01*
X562695Y204503D01*
X562527Y204831D01*
X562077Y205634D01*
X561573Y206293D01*
X561023Y206804D01*
X560430Y207159D01*
X560078Y207291D01*
X559845Y207370D01*
X559684Y207470D01*
X559549Y207634D01*
X559390Y207904D01*
X559385Y207913D01*
X559192Y208217D01*
X558930Y208571D01*
X558650Y208906D01*
X558593Y208967D01*
X558076Y209522D01*
X558529Y209469D01*
D02*
G37*
G36*
X439349Y185068D02*
Y174324D01*
X439350Y174323D01*
X434546Y174320D01*
X434544Y174322D01*
Y185071D01*
X439346D01*
X439349Y185068D01*
D02*
G37*
G36*
X252392Y184506D02*
Y173762D01*
X252393Y173761D01*
X247589Y173758D01*
X247587Y173760D01*
Y184509D01*
X252389D01*
X252392Y184506D01*
D02*
G37*
G36*
X58506Y184211D02*
Y173467D01*
X58507Y173466D01*
X53703Y173463D01*
X53701Y173465D01*
Y184213D01*
X58504D01*
X58506Y184211D01*
D02*
G37*
G36*
X163018Y164822D02*
Y154074D01*
X158215D01*
X158213Y154076D01*
Y164820D01*
X158212Y164822D01*
X163016Y164824D01*
X163018Y164822D01*
D02*
G37*
G36*
X155113Y164822D02*
Y154074D01*
X150311D01*
X150309Y154076D01*
Y164820D01*
X150307Y164822D01*
X155112Y164824D01*
X155113Y164822D01*
D02*
G37*
G36*
X350749Y164595D02*
Y153847D01*
X345947D01*
X345944Y153849D01*
Y164593D01*
X345943Y164594D01*
X350747Y164597D01*
X350749Y164595D01*
D02*
G37*
G36*
X343052Y164595D02*
Y153847D01*
X338250D01*
X338247Y153849D01*
Y164593D01*
X338246Y164594D01*
X343050Y164597D01*
X343052Y164595D01*
D02*
G37*
G36*
X525807Y147927D02*
Y137179D01*
X521004D01*
X521002Y137181D01*
Y147925D01*
X521001Y147926D01*
X525805Y147929D01*
X525807Y147927D01*
D02*
G37*
G36*
X533897Y147927D02*
Y137179D01*
X529095D01*
X529093Y137181D01*
Y147925D01*
X529091Y147926D01*
X533895Y147929D01*
X533897Y147927D01*
D02*
G37*
G36*
X509842Y174409D02*
Y127953D01*
X513779Y124016D01*
X550862D01*
X554799Y120079D01*
X555118D01*
Y94488D01*
X553150Y92520D01*
X549021D01*
X547244Y94296D01*
Y104331D01*
X545276Y106299D01*
X511811D01*
X509842Y104331D01*
Y94488D01*
X507874Y92520D01*
X503937D01*
X501968Y94488D01*
Y104331D01*
X500000Y106299D01*
X480315D01*
X478346Y104331D01*
Y94488D01*
X476378Y92520D01*
X471457D01*
X471457Y92520D01*
X464567D01*
X463656Y93431D01*
Y105315D01*
X462672Y106299D01*
X437008D01*
X435039Y104331D01*
Y94488D01*
X433071Y92520D01*
X425569D01*
X425569Y92520D01*
X419291D01*
X418380Y93431D01*
Y119168D01*
X423228Y124016D01*
X446850D01*
X450787Y127953D01*
Y174213D01*
X459646Y183071D01*
X501181D01*
X509842Y174409D01*
D02*
G37*
G36*
X319108Y179337D02*
Y127345D01*
X322430Y124016D01*
X362205D01*
X366528Y119693D01*
Y94488D01*
X364559Y92520D01*
X359864D01*
X358268Y94116D01*
Y104331D01*
X356299Y106299D01*
X322835D01*
X320866Y104331D01*
Y94488D01*
X318898Y92520D01*
X314961D01*
X312992Y94488D01*
X312992Y104331D01*
X311024Y106299D01*
X293307D01*
X291338Y104331D01*
X291338D01*
Y96457D01*
X287402Y92520D01*
X281496D01*
X281496Y92520D01*
X275590D01*
X274679Y93431D01*
Y105242D01*
X273622Y106299D01*
X251968D01*
X250000Y104331D01*
Y96457D01*
X246063Y92520D01*
X236412D01*
X236412Y92520D01*
X230315D01*
X229404Y93431D01*
Y119168D01*
X232283Y122047D01*
X259842D01*
X263779Y125984D01*
Y179134D01*
X267717Y183071D01*
X315375D01*
X319108Y179337D01*
D02*
G37*
G36*
X133465Y178346D02*
X133464Y129108D01*
X138411Y124173D01*
X173534D01*
X177551Y120157D01*
Y93671D01*
X176399Y92520D01*
X171068D01*
X169291Y94296D01*
Y104633D01*
X167625Y106299D01*
X133858D01*
X131890Y104331D01*
Y94488D01*
X129921Y92520D01*
X125984D01*
X124016Y94488D01*
Y104633D01*
X122350Y106299D01*
X104331D01*
X102362Y104331D01*
X102362D01*
Y96457D01*
X100394Y94488D01*
X94488D01*
X94488Y94488D01*
X85703D01*
Y103576D01*
X82980Y106299D01*
X61024D01*
X59055Y104331D01*
Y96457D01*
X57087Y94488D01*
X47244D01*
X47244Y94488D01*
X40435D01*
X40433Y94494D01*
Y123110D01*
X41496Y124173D01*
X68104D01*
X72441Y128504D01*
Y177166D01*
X78321Y183046D01*
X128765D01*
X133465Y178346D01*
D02*
G37*
G36*
X668219Y268141D02*
Y140188D01*
X667234Y139204D01*
X626984D01*
X625207Y137426D01*
X625221Y137412D01*
Y91395D01*
X623932Y90106D01*
X595390D01*
X595384Y90120D01*
Y137773D01*
X598663Y141051D01*
X618051D01*
X619990Y142991D01*
Y180543D01*
X633770Y194322D01*
Y268475D01*
X635405Y270110D01*
X666250D01*
X668219Y268141D01*
D02*
G37*
G36*
X616619Y186338D02*
Y144935D01*
X615336Y143652D01*
X598393D01*
X593307Y138566D01*
Y90106D01*
X592841Y89640D01*
X583304D01*
X582677Y90267D01*
Y184702D01*
X584949Y186974D01*
X600466D01*
X600466Y186974D01*
X615983D01*
X616619Y186338D01*
D02*
G37*
G36*
X629460Y134425D02*
X668725D01*
X669291Y133858D01*
Y48228D01*
X668791Y48228D01*
X664370D01*
X622047Y5906D01*
Y0D01*
X602362Y-0D01*
X496063Y-0D01*
X45276D01*
X44291Y0D01*
X44291Y5905D01*
X5905Y44291D01*
X0D01*
X-0Y50197D01*
X0Y83661D01*
Y86614D01*
X27559D01*
X29528Y88583D01*
Y102362D01*
X37402D01*
Y88583D01*
X39370Y86614D01*
X72835D01*
X74803Y88583D01*
Y102362D01*
X82674D01*
Y88586D01*
X84341Y86918D01*
X84646Y86614D01*
X216535D01*
X218504Y88583D01*
Y102362D01*
X226378D01*
Y88583D01*
X228346Y86614D01*
X261811D01*
X263779Y88583D01*
Y102362D01*
X271654D01*
Y88583D01*
X273622Y86614D01*
X405512D01*
X407480Y88583D01*
Y102362D01*
X415354D01*
Y88583D01*
X417323Y86614D01*
X450787D01*
X452756Y88583D01*
Y102362D01*
X460630D01*
Y88583D01*
X462598Y86614D01*
X626020D01*
X628188Y88782D01*
Y133156D01*
X629458Y134426D01*
X629460Y134425D01*
D02*
G37*
%LPC*%
G36*
X552158Y211810D02*
X552146Y211800D01*
X552157Y211751D01*
X552201Y211745D01*
X552270Y211775D01*
X552257Y211800D01*
X552158Y211810D01*
D02*
G37*
G36*
X551993Y211745D02*
X551951Y211703D01*
X551993Y211661D01*
X552035Y211703D01*
X551993Y211745D01*
D02*
G37*
%LPD*%
D14*
X566929Y209161D02*
X566887Y210163D01*
X566759Y211157D01*
X566548Y212137D01*
X566254Y213096D01*
X565881Y214026D01*
X565429Y214921D01*
X564904Y215775D01*
X564307Y216581D01*
X563645Y217334D01*
X562921Y218027D01*
X562141Y218657D01*
X561311Y219219D01*
X560435Y219708D01*
X559522Y220121D01*
X558577Y220455D01*
X557606Y220707D01*
X556618Y220877D01*
X555619Y220962D01*
X554617D01*
X553618Y220877D01*
X552630Y220707D01*
X551659Y220455D01*
X550714Y220121D01*
X549801Y219708D01*
X548925Y219219D01*
X548095Y218657D01*
X547315Y218027D01*
X546591Y217334D01*
X545929Y216581D01*
X545332Y215775D01*
X544807Y214921D01*
X544355Y214026D01*
X543982Y213096D01*
X543688Y212137D01*
X543477Y211157D01*
X543350Y210163D01*
X543307Y209161D01*
X543350Y208160D01*
X543477Y207165D01*
X543688Y206185D01*
X543982Y205227D01*
X544355Y204296D01*
X544807Y203401D01*
X545332Y202547D01*
X545929Y201741D01*
X546591Y200989D01*
X547315Y200295D01*
X548095Y199665D01*
X548925Y199104D01*
X549801Y198615D01*
X550714Y198202D01*
X551660Y197868D01*
X552630Y197615D01*
X553618Y197446D01*
X554617Y197361D01*
X555619D01*
X556618Y197446D01*
X557606Y197615D01*
X558577Y197868D01*
X559522Y198202D01*
X560435Y198615D01*
X561311Y199104D01*
X562141Y199665D01*
X562921Y200295D01*
X563645Y200989D01*
X564307Y201741D01*
X564904Y202548D01*
X565429Y203401D01*
X565881Y204296D01*
X566254Y205227D01*
X566548Y206185D01*
X566759Y207165D01*
X566887Y208160D01*
X566929Y209161D01*
D26*
X607957Y102626D02*
D03*
Y122626D02*
D03*
X607956Y175354D02*
D03*
Y155354D02*
D03*
D35*
X462599Y215157D02*
D03*
Y198228D02*
D03*
X450787Y349803D02*
D03*
Y366732D02*
D03*
X486220Y349803D02*
D03*
Y366732D02*
D03*
X468504Y349803D02*
D03*
Y366732D02*
D03*
X85737Y215262D02*
D03*
Y198333D02*
D03*
X273622Y215158D02*
D03*
Y198228D02*
D03*
D37*
X17343Y168283D02*
D03*
X22658D02*
D03*
D38*
X36777Y176149D02*
D03*
Y181464D02*
D03*
X45417Y176149D02*
D03*
Y181464D02*
D03*
X240064Y176476D02*
D03*
Y181791D02*
D03*
X232598Y176476D02*
D03*
Y181791D02*
D03*
X419945Y176477D02*
D03*
Y181791D02*
D03*
X428150Y181791D02*
D03*
Y176476D02*
D03*
D41*
X326772Y222847D02*
D03*
Y233846D02*
D03*
X170180Y164667D02*
D03*
Y153667D02*
D03*
X240064Y168284D02*
D03*
Y157284D02*
D03*
X513858Y221532D02*
D03*
Y232532D02*
D03*
X502047Y221532D02*
D03*
Y232532D02*
D03*
X600394Y349039D02*
D03*
Y338039D02*
D03*
X45417Y157283D02*
D03*
Y168283D02*
D03*
X135827Y222847D02*
D03*
Y233846D02*
D03*
X124695Y222847D02*
D03*
Y233846D02*
D03*
X315761Y222847D02*
D03*
Y233846D02*
D03*
X541338Y152258D02*
D03*
Y141258D02*
D03*
X357383Y164440D02*
D03*
Y153440D02*
D03*
X428150Y168284D02*
D03*
Y157284D02*
D03*
D42*
X425098Y207677D02*
D03*
X431201D02*
D03*
X425098Y201772D02*
D03*
X431201D02*
D03*
X217421Y334646D02*
D03*
X223523D02*
D03*
X268894Y334303D02*
D03*
X274996D02*
D03*
X268902Y319968D02*
D03*
X275004D02*
D03*
X274996Y326375D02*
D03*
X268893D02*
D03*
X268522Y312443D02*
D03*
X274624D02*
D03*
X274977Y340952D02*
D03*
X268875D02*
D03*
X378839Y244783D02*
D03*
X384941D02*
D03*
X378839Y270018D02*
D03*
X384941D02*
D03*
X384941Y260012D02*
D03*
X378838D02*
D03*
X483054Y206528D02*
D03*
X476952D02*
D03*
X453838Y312992D02*
D03*
X447736D02*
D03*
X465453Y312992D02*
D03*
X471555D02*
D03*
X482283Y312992D02*
D03*
X488386D02*
D03*
X378839Y375961D02*
D03*
X384942D02*
D03*
X384941Y365865D02*
D03*
X378838D02*
D03*
Y355961D02*
D03*
X384941D02*
D03*
X378838Y299833D02*
D03*
X384941D02*
D03*
X378838Y279923D02*
D03*
X384941D02*
D03*
X384941Y289961D02*
D03*
X378838D02*
D03*
X384941Y322131D02*
D03*
X378838D02*
D03*
X384941Y308046D02*
D03*
X378838D02*
D03*
Y335844D02*
D03*
X384941D02*
D03*
Y390764D02*
D03*
X378838D02*
D03*
X384812Y398806D02*
D03*
X378709D02*
D03*
X378838Y413386D02*
D03*
X384941D02*
D03*
X384941Y345903D02*
D03*
X378838D02*
D03*
X99311Y205663D02*
D03*
X105413D02*
D03*
X38409Y299161D02*
D03*
X44512D02*
D03*
X44561Y291351D02*
D03*
X38458D02*
D03*
X223565Y216282D02*
D03*
X217462D02*
D03*
X223565Y208228D02*
D03*
X217463D02*
D03*
X223565Y224496D02*
D03*
X217462D02*
D03*
X223565Y250126D02*
D03*
X217462D02*
D03*
X223565Y240088D02*
D03*
X217462D02*
D03*
X223565Y232650D02*
D03*
X217462D02*
D03*
X223565Y260009D02*
D03*
X217462D02*
D03*
X288274Y205663D02*
D03*
X294376D02*
D03*
X217462Y279794D02*
D03*
X223565D02*
D03*
X223565Y269630D02*
D03*
X217462D02*
D03*
X297560Y320427D02*
D03*
X303662D02*
D03*
X297560Y311468D02*
D03*
X303662D02*
D03*
X323539Y316718D02*
D03*
X317436D02*
D03*
X251536Y260009D02*
D03*
X245433D02*
D03*
D43*
X146565Y391109D02*
D03*
Y399110D02*
D03*
X573534Y243795D02*
D03*
Y235795D02*
D03*
X581230D02*
D03*
Y243795D02*
D03*
X120866Y366205D02*
D03*
Y358205D02*
D03*
X129921Y366205D02*
D03*
Y358205D02*
D03*
X106508Y334709D02*
D03*
Y326709D02*
D03*
X94726Y240031D02*
D03*
Y248031D02*
D03*
X102631Y240031D02*
D03*
Y248031D02*
D03*
X260641Y304927D02*
D03*
Y296927D02*
D03*
X449694Y223882D02*
D03*
Y215882D02*
D03*
X472457Y239447D02*
D03*
Y247447D02*
D03*
X480520Y239447D02*
D03*
Y247447D02*
D03*
X587287Y252410D02*
D03*
Y260409D02*
D03*
X565785Y255543D02*
D03*
Y263543D02*
D03*
X663233Y362268D02*
D03*
Y354268D02*
D03*
X587287Y275599D02*
D03*
Y267599D02*
D03*
X358268Y295339D02*
D03*
Y287339D02*
D03*
X29528Y152000D02*
D03*
Y160000D02*
D03*
X70866Y215158D02*
D03*
Y223158D02*
D03*
X30119Y275778D02*
D03*
Y267778D02*
D03*
X259842Y223158D02*
D03*
Y215158D02*
D03*
X283465Y240031D02*
D03*
Y248031D02*
D03*
X291338Y240032D02*
D03*
Y248031D02*
D03*
X8472Y152277D02*
D03*
Y160277D02*
D03*
X20206Y152000D02*
D03*
Y160000D02*
D03*
D44*
X137707Y399243D02*
D03*
Y390976D02*
D03*
X29439Y130543D02*
D03*
Y122275D02*
D03*
X340651Y170442D02*
D03*
Y178709D02*
D03*
X533464Y299016D02*
D03*
Y307283D02*
D03*
X152712Y170442D02*
D03*
Y178709D02*
D03*
X525406Y170442D02*
D03*
Y178710D02*
D03*
D45*
X569597Y399046D02*
D03*
X577864D02*
D03*
X76486Y391173D02*
D03*
X84754D02*
D03*
D46*
X31813Y141173D02*
D03*
X42813D02*
D03*
X9581D02*
D03*
X20581D02*
D03*
X454319Y330709D02*
D03*
X443319D02*
D03*
X463004D02*
D03*
X474004D02*
D03*
X493689D02*
D03*
X482689D02*
D03*
X525185Y324803D02*
D03*
X514185D02*
D03*
X578346Y306299D02*
D03*
X567346D02*
D03*
X629909Y365748D02*
D03*
X618909D02*
D03*
D47*
X658784Y220000D02*
D03*
X616265D02*
D03*
D48*
X579376Y223653D02*
D03*
X587376D02*
D03*
X258000Y167323D02*
D03*
X250000D02*
D03*
X249937Y157284D02*
D03*
X257937D02*
D03*
X457655Y232283D02*
D03*
X449655D02*
D03*
X548281Y282352D02*
D03*
X556281D02*
D03*
X548407Y255906D02*
D03*
X556407D02*
D03*
X556119Y273302D02*
D03*
X548119D02*
D03*
X574245Y279875D02*
D03*
X566245D02*
D03*
X472504Y320866D02*
D03*
X464504D02*
D03*
X548281Y265065D02*
D03*
X556281D02*
D03*
X515708Y212598D02*
D03*
X507708D02*
D03*
X475984Y199175D02*
D03*
X483984D02*
D03*
X507953Y203756D02*
D03*
X515953D02*
D03*
X454787Y320866D02*
D03*
X446787D02*
D03*
X482220D02*
D03*
X490220D02*
D03*
X608142Y342520D02*
D03*
X616142D02*
D03*
X64000Y167323D02*
D03*
X56000D02*
D03*
X98390Y190779D02*
D03*
X106390D02*
D03*
X98390Y198253D02*
D03*
X106390D02*
D03*
X42361Y240024D02*
D03*
X50361D02*
D03*
X78803Y232283D02*
D03*
X70803D02*
D03*
X137827Y212598D02*
D03*
X129827D02*
D03*
X129771Y203757D02*
D03*
X137771D02*
D03*
X37562Y283441D02*
D03*
X45562D02*
D03*
X294843Y190779D02*
D03*
X286843D02*
D03*
X294899Y198253D02*
D03*
X286899D02*
D03*
X327496Y212598D02*
D03*
X319496D02*
D03*
X319666Y203755D02*
D03*
X327666D02*
D03*
X268034Y232283D02*
D03*
X260034D02*
D03*
X574747Y124815D02*
D03*
X566747D02*
D03*
X56000Y157284D02*
D03*
X64000D02*
D03*
X192681Y131101D02*
D03*
X184681D02*
D03*
X379569Y131855D02*
D03*
X371569D02*
D03*
X444945Y157283D02*
D03*
X436945D02*
D03*
X444945Y167323D02*
D03*
X436945D02*
D03*
X483984Y190571D02*
D03*
X475984D02*
D03*
D49*
X646507Y112626D02*
D03*
X646505Y165354D02*
D03*
D50*
X160581Y179331D02*
D03*
Y173228D02*
D03*
X214567Y159449D02*
D03*
Y165551D02*
D03*
X207842Y165551D02*
D03*
Y159449D02*
D03*
X306930Y386754D02*
D03*
Y380652D02*
D03*
X296877Y380652D02*
D03*
Y386754D02*
D03*
X296877Y361824D02*
D03*
Y367927D02*
D03*
X306930Y361824D02*
D03*
Y367927D02*
D03*
X286930Y380652D02*
D03*
Y386754D02*
D03*
X286930Y361824D02*
D03*
Y367927D02*
D03*
X348858Y173228D02*
D03*
Y179331D02*
D03*
X641732Y341437D02*
D03*
Y347539D02*
D03*
X663233Y330645D02*
D03*
Y336748D02*
D03*
X647638Y341437D02*
D03*
Y347539D02*
D03*
X533124Y173099D02*
D03*
Y179202D02*
D03*
X576172Y140597D02*
D03*
Y134495D02*
D03*
X576100Y153014D02*
D03*
Y146912D02*
D03*
X394391Y165324D02*
D03*
Y159221D02*
D03*
X401327Y159221D02*
D03*
Y165323D02*
D03*
D51*
X340651Y155846D02*
D03*
Y162596D02*
D03*
X56102Y175464D02*
D03*
Y182214D02*
D03*
X249988Y175759D02*
D03*
Y182509D02*
D03*
X523406Y139178D02*
D03*
Y145928D02*
D03*
X531496Y145928D02*
D03*
Y139178D02*
D03*
X152712Y156074D02*
D03*
Y162824D02*
D03*
X160617Y162824D02*
D03*
Y156074D02*
D03*
X348348Y162596D02*
D03*
Y155846D02*
D03*
X436945Y176321D02*
D03*
Y183071D02*
D03*
D52*
X160617Y145826D02*
D03*
X74309Y248032D02*
D03*
X82986Y248032D02*
D03*
X94726Y255906D02*
D03*
X102631Y255906D02*
D03*
X454724Y248031D02*
D03*
X462952Y247969D02*
D03*
X472457Y255906D02*
D03*
X480315D02*
D03*
X67726Y188976D02*
D03*
X143701Y162859D02*
D03*
X136534Y192913D02*
D03*
X258874Y188976D02*
D03*
X329824Y162596D02*
D03*
X263780Y248032D02*
D03*
X271865D02*
D03*
X283465Y255906D02*
D03*
X291339D02*
D03*
X523406Y157480D02*
D03*
X531496Y129817D02*
D03*
X513151Y184702D02*
D03*
X348348Y145379D02*
D03*
X325823Y190600D02*
D03*
X448819Y188237D02*
D03*
X12600Y98462D02*
D03*
X107888Y98713D02*
D03*
X152699Y145669D02*
D03*
X117393Y188178D02*
D03*
X67726Y198031D02*
D03*
X135827Y248031D02*
D03*
X202521Y98393D02*
D03*
X214567Y145669D02*
D03*
X200886Y145669D02*
D03*
X177264D02*
D03*
X214567Y176476D02*
D03*
X199409Y176476D02*
D03*
X258101Y195933D02*
D03*
X296979Y98438D02*
D03*
X340470Y145379D02*
D03*
X363638Y145442D02*
D03*
X304164Y190600D02*
D03*
X326772Y240917D02*
D03*
X283464Y295339D02*
D03*
X358268Y303150D02*
D03*
X157874Y359842D02*
D03*
X391414Y98357D02*
D03*
X400153Y145379D02*
D03*
X388028Y145442D02*
D03*
X401327Y176209D02*
D03*
X386911Y176209D02*
D03*
X448819Y197835D02*
D03*
X485893Y98425D02*
D03*
X550428Y130402D02*
D03*
X545947Y180378D02*
D03*
X492899Y190403D02*
D03*
X539370Y242126D02*
D03*
X513858Y243447D02*
D03*
X533464Y262205D02*
D03*
X533858Y275590D02*
D03*
X533858Y283464D02*
D03*
X547325Y291957D02*
D03*
X569786Y135156D02*
D03*
X576100Y171309D02*
D03*
X566578Y171417D02*
D03*
X570866Y183442D02*
D03*
X564354Y233691D02*
D03*
X605905Y242520D02*
D03*
X594882Y278346D02*
D03*
X605118Y328740D02*
D03*
X616142Y272047D02*
D03*
X632494Y330709D02*
D03*
X647638Y330709D02*
D03*
X443505Y338742D02*
D03*
X463816Y338742D02*
D03*
X494252Y338986D02*
D03*
X537401Y395669D02*
D03*
X608256Y359421D02*
D03*
X526575Y395669D02*
D03*
D53*
X138976Y344173D02*
D03*
X120866D02*
D03*
X129921D02*
D03*
D54*
Y319961D02*
D03*
D55*
X84770Y284443D02*
D03*
Y312002D02*
D03*
X606299Y312992D02*
D03*
Y285433D02*
D03*
X568898Y346457D02*
D03*
Y374016D02*
D03*
X645129Y285433D02*
D03*
Y312992D02*
D03*
D56*
X120866Y283050D02*
D03*
Y305097D02*
D03*
X450787Y298425D02*
D03*
Y276378D02*
D03*
X480315Y298425D02*
D03*
Y276378D02*
D03*
X509842Y298425D02*
D03*
Y276378D02*
D03*
X535433Y375984D02*
D03*
Y353937D02*
D03*
D57*
X350169Y413118D02*
D03*
X352369Y419118D02*
D03*
X360169Y397168D02*
D03*
X362369Y403168D02*
D03*
X362369Y419118D02*
D03*
X360169Y413118D02*
D03*
X352369Y403168D02*
D03*
X350169Y397168D02*
D03*
D58*
X598228Y388779D02*
D03*
X620275D02*
D03*
D59*
X48494Y331020D02*
D03*
X54494Y328820D02*
D03*
Y342570D02*
D03*
X48494Y344770D02*
D03*
D60*
X72835Y351752D02*
D03*
X100394D02*
D03*
D61*
X410118Y193898D02*
D03*
X218819Y409685D02*
D03*
X287008D02*
D03*
D62*
X420118Y193898D02*
D03*
X430118D02*
D03*
X18260Y240832D02*
D03*
X18260Y265873D02*
D03*
Y275873D02*
D03*
X18260Y311351D02*
D03*
Y301351D02*
D03*
X185275Y319961D02*
D03*
X175276Y219961D02*
D03*
X185275Y309961D02*
D03*
Y219961D02*
D03*
Y249961D02*
D03*
X175276D02*
D03*
X185275Y259961D02*
D03*
X175276D02*
D03*
X185275Y279961D02*
D03*
X175276D02*
D03*
X185275Y329961D02*
D03*
X175276D02*
D03*
X185275Y349961D02*
D03*
X175276D02*
D03*
X185275Y369961D02*
D03*
X175276D02*
D03*
X185275Y389961D02*
D03*
X175276D02*
D03*
X185275Y399961D02*
D03*
X175276D02*
D03*
X185275Y409961D02*
D03*
X175276Y379961D02*
D03*
X185275D02*
D03*
X175276Y359961D02*
D03*
X185275D02*
D03*
X175276Y339961D02*
D03*
X185275D02*
D03*
X175276Y319961D02*
D03*
Y309961D02*
D03*
Y299961D02*
D03*
X185275D02*
D03*
X175276Y289961D02*
D03*
X185275D02*
D03*
X175276Y269961D02*
D03*
X185275D02*
D03*
X175276Y239961D02*
D03*
Y229961D02*
D03*
X185275Y239961D02*
D03*
Y229961D02*
D03*
X258819Y409685D02*
D03*
X238819Y409685D02*
D03*
X228819D02*
D03*
X248819D02*
D03*
X327008Y409685D02*
D03*
X307008D02*
D03*
X297008D02*
D03*
X317008D02*
D03*
X415276Y219961D02*
D03*
X425276D02*
D03*
Y249961D02*
D03*
X415276D02*
D03*
X425276Y259961D02*
D03*
X415276D02*
D03*
X425276Y279961D02*
D03*
X415276D02*
D03*
X425276Y329961D02*
D03*
X415276D02*
D03*
X425276Y349961D02*
D03*
X415276D02*
D03*
X425276Y369961D02*
D03*
X415276D02*
D03*
X425276Y389961D02*
D03*
X415276D02*
D03*
X425276Y399961D02*
D03*
X415276D02*
D03*
X425276Y409961D02*
D03*
X415276Y379961D02*
D03*
X425276D02*
D03*
X415276Y359961D02*
D03*
X425276D02*
D03*
X415276Y339961D02*
D03*
X425276D02*
D03*
X415276Y319961D02*
D03*
X425276D02*
D03*
X415276Y309961D02*
D03*
X425276D02*
D03*
X415276Y299961D02*
D03*
X425276D02*
D03*
X415276Y289961D02*
D03*
X425276D02*
D03*
X415276Y269961D02*
D03*
X425276D02*
D03*
X415276Y239961D02*
D03*
Y229961D02*
D03*
X425276Y239961D02*
D03*
Y229961D02*
D03*
D63*
X34449Y39370D02*
D03*
X63976D02*
D03*
X102362Y68898D02*
D03*
Y9843D02*
D03*
X217520Y34297D02*
D03*
X247047D02*
D03*
X291338Y68898D02*
D03*
Y9843D02*
D03*
X406496Y33678D02*
D03*
X436024D02*
D03*
X480315Y68898D02*
D03*
Y9843D02*
D03*
X146653Y35433D02*
D03*
X176181D02*
D03*
X335630Y33678D02*
D03*
X365158D02*
D03*
X524606Y35433D02*
D03*
X554134D02*
D03*
D64*
X11024Y11023D02*
D03*
X657480Y11811D02*
D03*
X651575Y387795D02*
D03*
X51181Y368110D02*
D03*
D65*
X23622Y98425D02*
D03*
X68898D02*
D03*
X118110D02*
D03*
X163386D02*
D03*
X212598D02*
D03*
X257874D02*
D03*
X307086D02*
D03*
X352362D02*
D03*
X446850D02*
D03*
X401575D02*
D03*
X496063D02*
D03*
X541339D02*
D03*
D66*
X33622D02*
D03*
X43622D02*
D03*
X88898D02*
D03*
X78898D02*
D03*
X128110D02*
D03*
X138110D02*
D03*
X183386D02*
D03*
X173386D02*
D03*
X222598D02*
D03*
X232598D02*
D03*
X277874D02*
D03*
X267874D02*
D03*
X317087D02*
D03*
X327086D02*
D03*
X372362D02*
D03*
X362362D02*
D03*
X466850D02*
D03*
X456850D02*
D03*
X411575D02*
D03*
X421575D02*
D03*
X506063D02*
D03*
X516063D02*
D03*
X561339D02*
D03*
X551339D02*
D03*
D67*
X102362Y157480D02*
D03*
X291338D02*
D03*
X480315D02*
D03*
D68*
X18260Y230832D02*
D03*
X18260Y255873D02*
D03*
X18260Y291351D02*
D03*
X175276Y409961D02*
D03*
X415276D02*
D03*
D69*
X102362Y220472D02*
D03*
X98425Y224410D02*
D03*
X106299D02*
D03*
Y216535D02*
D03*
X98425D02*
D03*
X287402D02*
D03*
X295276D02*
D03*
Y224410D02*
D03*
X287402D02*
D03*
X291339Y220472D02*
D03*
X480315D02*
D03*
X476378Y224410D02*
D03*
X484252D02*
D03*
Y216535D02*
D03*
X476378D02*
D03*
D70*
X205276Y249961D02*
D03*
Y269961D02*
D03*
Y259961D02*
D03*
Y239961D02*
D03*
Y229961D02*
D03*
X122047Y391732D02*
D03*
X205276Y309961D02*
D03*
Y319961D02*
D03*
Y339961D02*
D03*
Y359961D02*
D03*
Y349961D02*
D03*
Y329961D02*
D03*
Y299961D02*
D03*
X236221Y365073D02*
D03*
X246220D02*
D03*
X395276Y279961D02*
D03*
Y259961D02*
D03*
Y239961D02*
D03*
Y249961D02*
D03*
Y269961D02*
D03*
Y289961D02*
D03*
Y299961D02*
D03*
Y385961D02*
D03*
Y375961D02*
D03*
Y355961D02*
D03*
Y335961D02*
D03*
Y325961D02*
D03*
Y345961D02*
D03*
Y365961D02*
D03*
Y395961D02*
D03*
Y405961D02*
D03*
D71*
X205276Y279961D02*
D03*
Y369961D02*
D03*
X395276Y229961D02*
D03*
Y315961D02*
D03*
D72*
X112047Y391732D02*
D03*
X226220Y365073D02*
D03*
D73*
X588505Y362205D02*
D03*
X517794D02*
D03*
D74*
X524865Y340991D02*
D03*
X581434D02*
D03*
D75*
X560221Y390489D02*
D03*
X546078D02*
D03*
X553150Y397560D02*
D03*
X546078Y333920D02*
D03*
X560221D02*
D03*
X553150Y326849D02*
D03*
D76*
X633859Y112626D02*
D03*
Y104752D02*
D03*
Y96878D02*
D03*
X641733D02*
D03*
Y104752D02*
D03*
Y112626D02*
D03*
X649607D02*
D03*
Y104752D02*
D03*
Y96878D02*
D03*
X657481D02*
D03*
Y104752D02*
D03*
Y112626D02*
D03*
X657480Y181102D02*
D03*
Y173228D02*
D03*
Y165354D02*
D03*
Y157480D02*
D03*
Y149606D02*
D03*
X649606D02*
D03*
Y157480D02*
D03*
Y165354D02*
D03*
Y173228D02*
D03*
Y181102D02*
D03*
X641732D02*
D03*
Y173228D02*
D03*
Y165354D02*
D03*
Y157480D02*
D03*
Y149606D02*
D03*
X633858D02*
D03*
Y157480D02*
D03*
Y165354D02*
D03*
Y173228D02*
D03*
Y181102D02*
D03*
D77*
X655512Y260000D02*
D03*
X608268D02*
D03*
D78*
X467717Y382677D02*
D03*
X483307D02*
D03*
X498898D02*
D03*
D79*
X452126D02*
D03*
M02*
