G04*
G04 #@! TF.GenerationSoftware,Altium Limited,Altium Designer,20.1.14 (287)*
G04*
G04 Layer_Physical_Order=2*
G04 Layer_Color=16711680*
%FSLAX25Y25*%
%MOIN*%
G70*
G04*
G04 #@! TF.SameCoordinates,F236638D-4B1B-45E3-9A0F-FA1DF93A8DFF*
G04*
G04*
G04 #@! TF.FilePolarity,Positive*
G04*
G01*
G75*
%ADD12C,0.01000*%
%ADD15C,0.01200*%
%ADD22R,0.08000X0.06000*%
%ADD23R,0.06000X0.08000*%
%ADD24R,0.01181X0.02559*%
%ADD55R,0.03347X0.03347*%
%ADD56C,0.04724*%
%ADD57R,0.03347X0.03347*%
%ADD59R,0.06000X0.04000*%
%ADD60R,0.04000X0.06000*%
%ADD63R,0.04724X0.04331*%
%ADD64R,0.02362X0.02362*%
%ADD70R,0.36600X0.43600*%
%ADD73C,0.02000*%
%ADD74C,0.00039*%
%ADD75C,0.02500*%
%ADD76C,0.06299*%
%ADD77R,0.06299X0.06299*%
%ADD78R,0.06299X0.06299*%
%ADD79C,0.05906*%
%ADD80R,0.05906X0.05906*%
%ADD81R,0.05906X0.05906*%
%ADD82C,0.07874*%
%ADD83C,0.06000*%
%ADD84C,0.15748*%
%ADD85C,0.47244*%
%ADD86R,0.07500X0.07874*%
G04:AMPARAMS|DCode=87|XSize=75mil|YSize=78.74mil|CornerRadius=37.5mil|HoleSize=0mil|Usage=FLASHONLY|Rotation=0.000|XOffset=0mil|YOffset=0mil|HoleType=Round|Shape=RoundedRectangle|*
%AMROUNDEDRECTD87*
21,1,0.07500,0.00374,0,0,0.0*
21,1,0.00000,0.07874,0,0,0.0*
1,1,0.07500,0.00000,-0.00187*
1,1,0.07500,0.00000,-0.00187*
1,1,0.07500,0.00000,0.00187*
1,1,0.07500,0.00000,0.00187*
%
%ADD87ROUNDEDRECTD87*%
%ADD88C,0.06496*%
%ADD89C,0.02362*%
%ADD90R,0.03937X0.03937*%
%ADD91R,0.04900X0.12500*%
%ADD92R,0.01968X0.01968*%
G04:AMPARAMS|DCode=93|XSize=59.06mil|YSize=39.37mil|CornerRadius=9.84mil|HoleSize=0mil|Usage=FLASHONLY|Rotation=0.000|XOffset=0mil|YOffset=0mil|HoleType=Round|Shape=RoundedRectangle|*
%AMROUNDEDRECTD93*
21,1,0.05906,0.01968,0,0,0.0*
21,1,0.03937,0.03937,0,0,0.0*
1,1,0.01968,0.01968,-0.00984*
1,1,0.01968,-0.01968,-0.00984*
1,1,0.01968,-0.01968,0.00984*
1,1,0.01968,0.01968,0.00984*
%
%ADD93ROUNDEDRECTD93*%
%ADD94C,0.03937*%
%ADD95R,0.06102X0.02362*%
%ADD96R,0.02362X0.02756*%
%ADD97O,0.03740X0.00984*%
%ADD98O,0.00984X0.03740*%
%ADD99R,0.06693X0.10630*%
%ADD100O,0.05315X0.01181*%
%ADD101R,0.03937X0.02362*%
%ADD102R,0.10630X0.06299*%
%ADD103O,0.02362X0.05709*%
%ADD104R,0.11811X0.11811*%
G04:AMPARAMS|DCode=105|XSize=59.06mil|YSize=39.37mil|CornerRadius=9.84mil|HoleSize=0mil|Usage=FLASHONLY|Rotation=270.000|XOffset=0mil|YOffset=0mil|HoleType=Round|Shape=RoundedRectangle|*
%AMROUNDEDRECTD105*
21,1,0.05906,0.01968,0,0,270.0*
21,1,0.03937,0.03937,0,0,270.0*
1,1,0.01968,-0.00984,-0.01968*
1,1,0.01968,-0.00984,0.01968*
1,1,0.01968,0.00984,0.01968*
1,1,0.01968,0.00984,-0.01968*
%
%ADD105ROUNDEDRECTD105*%
%ADD106R,0.01968X0.03937*%
%ADD107C,0.03000*%
G36*
X225291Y394785D02*
X226573Y394271D01*
X227664Y393424D01*
X228480Y392309D01*
X228718Y391661D01*
X226519Y391654D01*
X226519D01*
X226222Y392014D01*
X225478Y392572D01*
X224597Y392871D01*
X223667Y392881D01*
X222780Y392601D01*
X222024Y392060D01*
X221474Y391310D01*
X221184Y390426D01*
Y389495D01*
X221474Y388611D01*
X222024Y387861D01*
X222780Y387319D01*
X223667Y387040D01*
X224597Y387050D01*
X225478Y387349D01*
X226222Y387907D01*
X226519Y388267D01*
X228716Y388256D01*
Y388256D01*
X228477Y387608D01*
X227661Y386494D01*
X226569Y385648D01*
X225287Y385135D01*
X223913Y384995D01*
X222553Y385238D01*
X221313Y385846D01*
X220288Y386772D01*
X219558Y387944D01*
X219178Y389272D01*
X219179Y390653D01*
X219560Y391981D01*
X220291Y393153D01*
X221317Y394078D01*
X222558Y394685D01*
X223918Y394927D01*
X225291Y394785D01*
D02*
G37*
G36*
X229100Y388961D02*
X224100D01*
Y390961D01*
X229100D01*
Y388961D01*
D02*
G37*
G36*
X264248Y379653D02*
X259948D01*
Y380653D01*
X263248D01*
Y383153D01*
X258248D01*
Y384153D01*
X264248D01*
Y379653D01*
D02*
G37*
G36*
X262548Y381353D02*
X259248D01*
Y378953D01*
X264248D01*
Y377953D01*
X258248D01*
Y382453D01*
X262548D01*
Y381353D01*
D02*
G37*
G36*
X264819Y369529D02*
X260519D01*
Y370529D01*
X263819D01*
Y373029D01*
X258819D01*
Y374029D01*
X264819D01*
Y369529D01*
D02*
G37*
G36*
X263119Y371229D02*
X259819D01*
Y368829D01*
X264819D01*
Y367829D01*
X258819D01*
Y372329D01*
X263119D01*
Y371229D01*
D02*
G37*
G36*
X96243Y368002D02*
X97570Y367621D01*
X98742Y366890D01*
X99667Y365864D01*
X100274Y364624D01*
X100516Y363264D01*
X100374Y361890D01*
X99860Y360608D01*
X99013Y359517D01*
X97898Y358702D01*
X97250Y358463D01*
X97243Y360663D01*
X97603Y360960D01*
X98161Y361704D01*
X98460Y362585D01*
X98470Y363515D01*
X98191Y364402D01*
X97649Y365158D01*
X96899Y365708D01*
X96015Y365997D01*
X95085D01*
X94200Y365708D01*
X93450Y365158D01*
X92909Y364402D01*
X92629Y363515D01*
X92639Y362585D01*
X92938Y361704D01*
X93496Y360960D01*
X93856Y360663D01*
X93845Y358465D01*
X93845Y358465D01*
X93197Y358704D01*
X92083Y359521D01*
X91237Y360613D01*
X90724Y361895D01*
X90584Y363269D01*
X90827Y364628D01*
X91435Y365868D01*
X92361Y366893D01*
X93534Y367624D01*
X94862Y368003D01*
X96243Y368002D01*
D02*
G37*
G36*
X96550Y358081D02*
X94550D01*
Y363081D01*
X96550D01*
Y358081D01*
D02*
G37*
G36*
X112740Y367126D02*
X114068Y366745D01*
X115240Y366013D01*
X116165Y364988D01*
X116771Y363747D01*
X117013Y362387D01*
X116872Y361013D01*
X116358Y359731D01*
X115510Y358641D01*
X114396Y357825D01*
X113748Y357587D01*
X113741Y359786D01*
X114101Y360083D01*
X114659Y360827D01*
X114958Y361708D01*
X114968Y362638D01*
X114688Y363525D01*
X114147Y364281D01*
X113396Y364831D01*
X112512Y365121D01*
X111582D01*
X110698Y364831D01*
X109948Y364281D01*
X109406Y363525D01*
X109126Y362638D01*
X109137Y361708D01*
X109436Y360827D01*
X109994Y360083D01*
X110354Y359786D01*
X110342Y357588D01*
X110342Y357588D01*
X109695Y357827D01*
X108581Y358644D01*
X107735Y359736D01*
X107222Y361018D01*
X107081Y362392D01*
X107325Y363752D01*
X107933Y364992D01*
X108859Y366017D01*
X110031Y366747D01*
X111359Y367126D01*
X112740Y367126D01*
D02*
G37*
G36*
X113047Y357205D02*
X111047D01*
Y362205D01*
X113047D01*
Y357205D01*
D02*
G37*
G36*
X220228Y343540D02*
X217228Y340540D01*
X214828D01*
Y346540D01*
X217228D01*
X220228Y343540D01*
D02*
G37*
G36*
X226628Y340540D02*
X218428Y340540D01*
X221428Y343540D01*
X218428Y346540D01*
X226628Y346540D01*
Y340540D01*
D02*
G37*
G36*
X225291Y334785D02*
X226573Y334271D01*
X227664Y333424D01*
X228480Y332309D01*
X228718Y331661D01*
X226519Y331654D01*
X226519D01*
X226222Y332014D01*
X225478Y332572D01*
X224597Y332871D01*
X223667Y332881D01*
X222780Y332602D01*
X222024Y332060D01*
X221474Y331310D01*
X221184Y330426D01*
Y329495D01*
X221474Y328611D01*
X222024Y327861D01*
X222780Y327319D01*
X223667Y327040D01*
X224597Y327050D01*
X225478Y327349D01*
X226222Y327907D01*
X226519Y328267D01*
X228716Y328256D01*
Y328256D01*
X228477Y327608D01*
X227661Y326494D01*
X226569Y325648D01*
X225287Y325135D01*
X223913Y324994D01*
X222553Y325238D01*
X221313Y325846D01*
X220288Y326772D01*
X219558Y327944D01*
X219178Y329272D01*
X219179Y330654D01*
X219560Y331981D01*
X220291Y333153D01*
X221317Y334078D01*
X222558Y334685D01*
X223918Y334927D01*
X225291Y334785D01*
D02*
G37*
G36*
X229100Y328960D02*
X224100D01*
Y330960D01*
X229100D01*
Y328960D01*
D02*
G37*
G36*
X667323Y205478D02*
X666338Y204494D01*
X613862D01*
X612320Y202952D01*
Y200086D01*
X612205Y199971D01*
X612205Y175197D01*
X603309D01*
Y181649D01*
X603809Y181856D01*
X604274Y181392D01*
Y177778D01*
X611474D01*
Y182978D01*
X605860D01*
X605396Y183442D01*
Y238632D01*
X605396Y238632D01*
X605310Y239062D01*
X605067Y239425D01*
X598609Y245884D01*
Y268088D01*
X598523Y268517D01*
X598280Y268881D01*
X598280Y268881D01*
X596015Y271146D01*
X595651Y271389D01*
X595222Y271474D01*
X595222Y271474D01*
X584141D01*
X584141Y271474D01*
X583712Y271389D01*
X583348Y271146D01*
X579838Y267635D01*
X576398D01*
X576357Y267627D01*
X575020D01*
X574803Y267584D01*
X574593Y267543D01*
X574232Y267301D01*
X573991Y266940D01*
X573906Y266514D01*
X573991Y266088D01*
X574136Y265870D01*
X574197Y265530D01*
X574136Y265189D01*
X573991Y264971D01*
X573906Y264545D01*
X573991Y264119D01*
X574232Y263758D01*
X574593Y263516D01*
X574803Y263475D01*
X575020Y263432D01*
X576357D01*
X576398Y263424D01*
X583272D01*
X583688Y263222D01*
Y262077D01*
X583355Y261744D01*
X582926Y261659D01*
X582562Y261415D01*
X582562Y261415D01*
X580908Y259761D01*
X579125D01*
X578946Y259997D01*
X578820Y260261D01*
X578889Y260608D01*
X578804Y261034D01*
X578563Y261396D01*
X578202Y261637D01*
X577776Y261722D01*
X575020D01*
X574803Y261679D01*
X574715Y261661D01*
X574593Y261637D01*
X574232Y261396D01*
X573991Y261034D01*
X573906Y260608D01*
X573991Y260182D01*
X574136Y259964D01*
X574197Y259624D01*
X574136Y259284D01*
X573991Y259066D01*
X573906Y258640D01*
X573991Y258214D01*
X574136Y257996D01*
X574152Y257910D01*
X574197Y257656D01*
X574136Y257315D01*
X573991Y257097D01*
X573906Y256671D01*
X573991Y256245D01*
X574136Y256028D01*
X574197Y255687D01*
X574136Y255347D01*
X574110Y255307D01*
X573905Y255135D01*
X573489Y255166D01*
X573379Y255239D01*
X572953Y255324D01*
X572527Y255239D01*
X572165Y254998D01*
X571924Y254637D01*
X571839Y254211D01*
Y252873D01*
X571831Y252833D01*
Y249726D01*
X571831Y249726D01*
X571917Y249297D01*
X572160Y248933D01*
X572746Y248347D01*
X572746Y248347D01*
X573109Y248104D01*
X573539Y248019D01*
X586907D01*
X587461Y247465D01*
Y246561D01*
X584983D01*
Y241704D01*
X584975Y241652D01*
X584885Y241317D01*
X584561Y241170D01*
X584557Y241170D01*
X584460D01*
X584368Y241158D01*
X584040D01*
X583889Y241177D01*
X583701Y241424D01*
X583614Y241572D01*
X583600Y241647D01*
Y246758D01*
X576400D01*
Y245279D01*
X569856D01*
X568169Y246966D01*
Y252833D01*
X568161Y252873D01*
Y254211D01*
X568076Y254637D01*
X567835Y254998D01*
X567473Y255239D01*
X567047Y255324D01*
X566621Y255239D01*
X566511Y255166D01*
X566095Y255135D01*
D01*
X565890Y255307D01*
X565864Y255347D01*
X565803Y255687D01*
X565864Y256028D01*
X566009Y256245D01*
X566094Y256671D01*
X566009Y257097D01*
X565768Y257459D01*
Y257853D01*
X565864Y257996D01*
X566009Y258214D01*
X566094Y258640D01*
X566009Y259066D01*
X565864Y259284D01*
X565803Y259624D01*
D01*
X565864Y259964D01*
X566009Y260182D01*
X566094Y260608D01*
X566009Y261034D01*
X565768Y261396D01*
X565407Y261637D01*
X564980Y261722D01*
X563643D01*
X563602Y261730D01*
X561449D01*
X561122Y262057D01*
Y263399D01*
X561622Y263635D01*
X561798Y263516D01*
X562224Y263432D01*
X564980D01*
X565407Y263516D01*
X565768Y263758D01*
X566009Y264119D01*
X566094Y264545D01*
X566009Y264971D01*
X565864Y265189D01*
X565768Y265333D01*
Y265726D01*
X565864Y265870D01*
X566009Y266088D01*
X566094Y266514D01*
X566009Y266940D01*
X565864Y267158D01*
X565803Y267498D01*
X565864Y267839D01*
X565890Y267878D01*
X566095Y268050D01*
X566511Y268019D01*
X566621Y267946D01*
X567047Y267861D01*
X567473Y267946D01*
X567835Y268187D01*
X568076Y268548D01*
X568161Y268974D01*
Y270312D01*
X568169Y270353D01*
Y273719D01*
X569809Y275360D01*
X570052Y275723D01*
X570137Y276152D01*
X570528Y276400D01*
X571831D01*
Y270353D01*
X571839Y270312D01*
Y268974D01*
X571924Y268548D01*
X572165Y268187D01*
X572527Y267946D01*
X572953Y267861D01*
X573379Y267946D01*
X573740Y268187D01*
X573982Y268548D01*
X574066Y268974D01*
Y270312D01*
X574074Y270353D01*
Y276400D01*
X575385D01*
Y283600D01*
X570185Y283600D01*
X570137Y284080D01*
Y284170D01*
X570489Y284524D01*
X575689D01*
Y291724D01*
X570489D01*
Y289246D01*
X569602D01*
X569172Y289160D01*
X568809Y288917D01*
X568809Y288917D01*
X568223Y288331D01*
X568188Y288280D01*
X567689Y288432D01*
Y291724D01*
X566210D01*
Y293179D01*
X574547D01*
X574655Y293017D01*
X575245Y292623D01*
X575939Y292485D01*
X576634Y292623D01*
X577223Y293017D01*
X577617Y293606D01*
X577755Y294301D01*
X577617Y294996D01*
X577223Y295585D01*
X576634Y295978D01*
X575939Y296117D01*
X575245Y295978D01*
X574655Y295585D01*
X574547Y295422D01*
X565674D01*
X565245Y295337D01*
X564881Y295094D01*
X564881Y295094D01*
X564295Y294508D01*
X564052Y294144D01*
X563967Y293715D01*
X563967Y293715D01*
Y291724D01*
X562489D01*
Y284524D01*
X567689D01*
X567894Y284109D01*
D01*
D01*
Y276617D01*
X566254Y274977D01*
X566011Y274613D01*
X565926Y274184D01*
X565926Y274184D01*
Y270353D01*
X565934Y270312D01*
Y269760D01*
X565434Y269493D01*
X565407Y269511D01*
X564980Y269596D01*
X562224D01*
X561798Y269511D01*
X561622Y269393D01*
X561122Y269629D01*
Y272569D01*
X561036Y272998D01*
X560793Y273362D01*
X560793Y273362D01*
X559848Y274307D01*
X559484Y274550D01*
X559084Y274630D01*
Y277114D01*
X553884D01*
Y274635D01*
X553156D01*
X552727Y274550D01*
X552363Y274307D01*
X552363Y274307D01*
X551777Y273721D01*
X551534Y273357D01*
X551448Y272928D01*
X551448Y272928D01*
Y269172D01*
X551147Y268797D01*
X545947D01*
Y261597D01*
X551147D01*
Y264075D01*
X551984D01*
X551984Y264075D01*
X552413Y264161D01*
X552777Y264404D01*
X553363Y264990D01*
X553363Y264990D01*
X553447Y265115D01*
X553947Y264964D01*
Y261597D01*
X555425D01*
Y260000D01*
X555425Y260000D01*
X555511Y259571D01*
X555754Y259207D01*
X556983Y257978D01*
X557065Y257656D01*
X556983Y257333D01*
X555706Y256056D01*
X555463Y255692D01*
X555377Y255263D01*
X555377Y255263D01*
Y253417D01*
X553899D01*
Y246217D01*
X559099D01*
Y253417D01*
X557620D01*
Y254799D01*
X558372Y255550D01*
X560876D01*
X561054Y255315D01*
X561180Y255050D01*
X561136Y254827D01*
X561111Y254703D01*
X561196Y254277D01*
X561437Y253916D01*
X561798Y253674D01*
X562224Y253589D01*
X562481D01*
Y244554D01*
X560520Y242593D01*
X559147D01*
Y245072D01*
X553947D01*
Y237872D01*
X559147D01*
Y240350D01*
X560984D01*
X560984Y240350D01*
X561414Y240436D01*
X561777Y240679D01*
X564396Y243297D01*
X564396Y243297D01*
X564639Y243661D01*
X564724Y244090D01*
Y253589D01*
X564980D01*
X565407Y253674D01*
X565434Y253692D01*
X565934Y253425D01*
Y252873D01*
X565926Y252833D01*
Y246501D01*
X565926Y246501D01*
X566011Y246072D01*
X566254Y245708D01*
X568598Y243365D01*
X568598Y243365D01*
X568962Y243121D01*
X569391Y243036D01*
X569391Y243036D01*
X576400D01*
Y241658D01*
X576400Y241558D01*
X576159Y241158D01*
X574000D01*
Y232412D01*
Y231158D01*
X574377D01*
X574475Y230418D01*
X574777Y229688D01*
X574803Y229654D01*
Y173978D01*
X574606Y173896D01*
X573987Y173421D01*
X573512Y172802D01*
X573214Y172082D01*
X573112Y171309D01*
X573214Y170535D01*
X573512Y169815D01*
X573987Y169196D01*
X574606Y168721D01*
X574803Y168640D01*
Y155287D01*
X573885D01*
Y150741D01*
X574803D01*
Y149185D01*
X573885D01*
Y148025D01*
X572248D01*
X571972Y148525D01*
X572041Y148872D01*
X571948Y149337D01*
X571685Y149731D01*
X571291Y149994D01*
X570827Y150086D01*
X566693D01*
X566228Y149994D01*
X565835Y149731D01*
X565571Y149337D01*
X565479Y148872D01*
X565571Y148408D01*
X565835Y148014D01*
Y147762D01*
X565571Y147368D01*
X565479Y146904D01*
X565571Y146439D01*
X565835Y146045D01*
Y145793D01*
X565571Y145400D01*
X565479Y144935D01*
X565571Y144471D01*
X565835Y144077D01*
Y143825D01*
X565571Y143431D01*
X565479Y142966D01*
X565548Y142620D01*
X565271Y142120D01*
X564601D01*
X564601Y142120D01*
X564171Y142034D01*
X563807Y141791D01*
X563807Y141791D01*
X562258Y140242D01*
X562015Y139878D01*
X561930Y139449D01*
X561930Y139449D01*
Y137308D01*
X560778D01*
Y132762D01*
X561930D01*
Y130402D01*
X561930Y130402D01*
X562015Y129973D01*
X562258Y129609D01*
X563429Y128438D01*
X563429Y128438D01*
X563793Y128195D01*
X564222Y128110D01*
X564222Y128110D01*
X573625D01*
Y127426D01*
X571655D01*
Y122226D01*
X574803D01*
Y119426D01*
X571655D01*
Y114226D01*
X574133D01*
Y111749D01*
X573474D01*
Y109299D01*
X573424Y109180D01*
Y107605D01*
X573474Y107486D01*
Y106299D01*
X568027D01*
Y107486D01*
X568077Y107605D01*
Y109180D01*
X568027Y109299D01*
Y111749D01*
X567368D01*
Y114226D01*
X569846D01*
Y119426D01*
X562646D01*
Y116473D01*
X562319Y116108D01*
X552319D01*
Y113950D01*
X551919Y113708D01*
X546719D01*
Y111740D01*
X544210D01*
X543586Y111616D01*
X543057Y111262D01*
X542631Y110837D01*
X537739D01*
Y106299D01*
X519874D01*
X519557Y107064D01*
X518916Y107900D01*
X516874Y109942D01*
Y116236D01*
X506874D01*
Y114078D01*
X506474Y113836D01*
X501274D01*
Y111867D01*
X499062D01*
X498438Y111743D01*
X497909Y111390D01*
X497356Y110837D01*
X492463D01*
Y106299D01*
X470795D01*
X470747Y106662D01*
X470344Y107635D01*
X469703Y108471D01*
X469703Y108471D01*
X468201Y109973D01*
Y116236D01*
X458201D01*
Y114078D01*
X457801Y113836D01*
X452601D01*
Y111867D01*
X449850D01*
X449226Y111743D01*
X448696Y111390D01*
X448143Y110837D01*
X443250D01*
Y106299D01*
X425386D01*
X425069Y107064D01*
X424428Y107900D01*
X422386Y109942D01*
Y116236D01*
X412386D01*
Y114078D01*
X411986Y113836D01*
X406786D01*
Y111868D01*
X404574D01*
X403950Y111743D01*
X403421Y111390D01*
X402868Y110837D01*
X397975D01*
Y106299D01*
X386062D01*
X385639Y106487D01*
Y108936D01*
X385689Y109055D01*
Y110630D01*
X385639Y110749D01*
Y113198D01*
X385082D01*
Y116836D01*
X384989Y117304D01*
X384723Y117701D01*
X383542Y118882D01*
X383145Y119148D01*
X382677Y119241D01*
X381145D01*
Y121353D01*
X383521D01*
Y126553D01*
X376321D01*
Y121353D01*
X378698D01*
Y118720D01*
X378791Y118252D01*
X379056Y117855D01*
X379759Y117152D01*
X380156Y116887D01*
X380624Y116794D01*
X382170D01*
X382635Y116329D01*
Y113198D01*
X382077D01*
Y110750D01*
X382028Y110630D01*
Y109055D01*
X382077Y108936D01*
Y106487D01*
X381655Y106299D01*
X380837D01*
X380415Y106487D01*
Y108936D01*
X380464Y109055D01*
Y110630D01*
X380415Y110749D01*
Y113198D01*
X379857D01*
Y115056D01*
X379764Y115524D01*
X379499Y115921D01*
X378318Y117102D01*
X377921Y117367D01*
X377453Y117460D01*
X374276D01*
X372532Y119205D01*
Y121353D01*
X374908D01*
Y126553D01*
X367708D01*
Y121353D01*
X370085D01*
Y118698D01*
X370178Y118230D01*
X370443Y117833D01*
X371578Y116698D01*
X371387Y116236D01*
X363445D01*
Y114078D01*
X363045Y113836D01*
X357845D01*
Y111868D01*
X355362D01*
X354737Y111743D01*
X354208Y111390D01*
X353655Y110837D01*
X348762D01*
Y106299D01*
X330898D01*
X330580Y107066D01*
X329939Y107901D01*
X327898Y109943D01*
Y116236D01*
X317898D01*
Y114078D01*
X317498Y113836D01*
X312298D01*
Y111868D01*
X310086D01*
X309462Y111743D01*
X308932Y111390D01*
X308380Y110837D01*
X303486D01*
Y106299D01*
X281811D01*
X281771Y106607D01*
X281368Y107580D01*
X280727Y108416D01*
X279201Y109942D01*
Y116236D01*
X269201D01*
Y114078D01*
X268801Y113836D01*
X263601D01*
Y111867D01*
X260873D01*
X260249Y111743D01*
X259720Y111390D01*
X259167Y110837D01*
X254274D01*
Y106299D01*
X236409D01*
X236092Y107065D01*
X235451Y107900D01*
X235451Y107900D01*
X233410Y109942D01*
Y116236D01*
X223410D01*
Y114078D01*
X223009Y113836D01*
X217810D01*
Y111867D01*
X215598D01*
X214973Y111743D01*
X214444Y111390D01*
X213891Y110837D01*
X208998D01*
Y106299D01*
X197098D01*
X196663Y106456D01*
Y108905D01*
X196712Y109024D01*
Y110599D01*
X196663Y110718D01*
Y113167D01*
X196105D01*
Y116079D01*
X196012Y116547D01*
X195747Y116944D01*
X194137Y118554D01*
Y120447D01*
X196513D01*
Y125647D01*
X189313D01*
Y120447D01*
X191690D01*
Y118047D01*
X191783Y117579D01*
X192048Y117182D01*
X193658Y115572D01*
Y113167D01*
X193101D01*
Y110719D01*
X193051Y110599D01*
Y109024D01*
X193101Y108905D01*
Y106456D01*
X192666Y106299D01*
X192078D01*
X191643Y106456D01*
Y108905D01*
X191693Y109024D01*
Y110599D01*
X191643Y110718D01*
Y113167D01*
X191086D01*
Y114622D01*
X190992Y115091D01*
X190727Y115488D01*
X189546Y116669D01*
X189149Y116934D01*
X188681Y117027D01*
X186088D01*
X185601Y117514D01*
Y120447D01*
X187978D01*
Y125647D01*
X180778D01*
Y120447D01*
X183154D01*
Y117007D01*
X183208Y116736D01*
X182894Y116236D01*
X174315D01*
Y114078D01*
X173915Y113836D01*
X168715D01*
Y111867D01*
X166385D01*
X165761Y111743D01*
X165232Y111390D01*
X164679Y110837D01*
X159786D01*
Y106299D01*
X151049D01*
Y110016D01*
X151049Y110016D01*
X150946Y110800D01*
X150644Y111529D01*
X150163Y112156D01*
X143943Y118376D01*
X143316Y118857D01*
X142586Y119159D01*
X141803Y119263D01*
X134020D01*
X133769Y119230D01*
X133517Y119221D01*
X133379Y119178D01*
X133237Y119159D01*
X133003Y119063D01*
X132762Y118989D01*
X132640Y118912D01*
X132507Y118857D01*
X132306Y118703D01*
X132092Y118570D01*
X131994Y118464D01*
X131880Y118376D01*
X131726Y118176D01*
X131554Y117991D01*
X131487Y117864D01*
X131399Y117750D01*
X131302Y117516D01*
X131184Y117293D01*
X131023Y116860D01*
X130991Y116720D01*
X130936Y116587D01*
X130903Y116336D01*
X130879Y116236D01*
X128921D01*
Y114078D01*
X128521Y113836D01*
X123321D01*
Y111867D01*
X121109D01*
X120485Y111743D01*
X119956Y111390D01*
X119403Y110837D01*
X114510D01*
Y106299D01*
X92932D01*
Y109186D01*
X92795Y110230D01*
X92392Y111203D01*
X91750Y112039D01*
X91047Y112742D01*
X90212Y113383D01*
X90201Y113388D01*
Y116236D01*
X80201D01*
Y114078D01*
X79801Y113836D01*
X74601D01*
Y111867D01*
X71995D01*
X71371Y111743D01*
X70842Y111390D01*
X70289Y110837D01*
X65396D01*
Y106299D01*
X47524D01*
X47519Y106336D01*
X47116Y107309D01*
X46475Y108144D01*
X46475Y108145D01*
X44678Y109942D01*
Y116236D01*
X34678D01*
Y114078D01*
X34278Y113836D01*
X29078D01*
Y111868D01*
X25421D01*
X24796Y111743D01*
X24267Y111390D01*
X23714Y110837D01*
X18821D01*
Y106299D01*
X0D01*
Y295276D01*
X14398D01*
X14707Y294904D01*
X14707Y294776D01*
Y287798D01*
X21813D01*
Y294776D01*
X21813Y294904D01*
X22122Y295276D01*
X34784D01*
Y285726D01*
X34861Y285541D01*
Y278712D01*
X34784Y278526D01*
X34784Y228346D01*
X34974Y227887D01*
X35433Y227697D01*
X54777Y227697D01*
Y168647D01*
X54716Y168607D01*
X54322Y168018D01*
X54184Y167323D01*
X54322Y166628D01*
X54716Y166039D01*
X55305Y165645D01*
X56000Y165507D01*
X56695Y165645D01*
X57284Y166039D01*
X57678Y166628D01*
X57816Y167323D01*
X57678Y168018D01*
X57284Y168607D01*
X57223Y168647D01*
Y227697D01*
X58406D01*
Y220472D01*
X58596Y220013D01*
X62533Y216076D01*
X62992Y215886D01*
X86614D01*
X87073Y216076D01*
X91010Y220013D01*
X91201Y220472D01*
Y227697D01*
X92913D01*
X92970Y227721D01*
X93030Y227708D01*
X93193Y227813D01*
X93372Y227887D01*
X93857Y228057D01*
X94167Y227850D01*
X94862Y227712D01*
X95557Y227850D01*
X95867Y228057D01*
X96352Y227887D01*
X96532Y227813D01*
X96694Y227708D01*
X96755Y227721D01*
X96812Y227697D01*
X97913D01*
X97970Y227721D01*
X98030Y227708D01*
X98193Y227813D01*
X98372Y227887D01*
X98857Y228057D01*
X99167Y227850D01*
X99862Y227712D01*
X100557Y227850D01*
X100867Y228057D01*
X101352Y227887D01*
X101532Y227813D01*
X101695Y227708D01*
X101755Y227721D01*
X101812Y227697D01*
X108023D01*
X108163Y227755D01*
X108314Y227766D01*
X108384Y227847D01*
X108482Y227887D01*
X108540Y228027D01*
X108639Y228142D01*
X108801Y228628D01*
X108789Y228795D01*
X108821Y228959D01*
X108696Y229591D01*
Y232810D01*
X108796Y233315D01*
X109046Y233690D01*
X109421Y233940D01*
X109862Y234028D01*
X110304Y233940D01*
X110678Y233690D01*
X110928Y233315D01*
X111029Y232810D01*
Y229591D01*
X110903Y228959D01*
X110936Y228795D01*
X110924Y228628D01*
X111085Y228142D01*
X111184Y228027D01*
X111242Y227887D01*
X111341Y227847D01*
X111410Y227766D01*
X111562Y227755D01*
X111701Y227697D01*
X113813D01*
X114272Y227887D01*
X114287Y227924D01*
X120538D01*
X120553Y227887D01*
X121013Y227697D01*
X122384D01*
X122844Y227887D01*
X122858Y227923D01*
X129110D01*
X129125Y227887D01*
X129584Y227697D01*
X171649D01*
X171710Y227723D01*
X171775Y227710D01*
X171933Y227815D01*
X172108Y227887D01*
X172550Y227676D01*
X172742Y227427D01*
X173484Y226857D01*
X174348Y226499D01*
X175276Y226377D01*
X176203Y226499D01*
X177067Y226857D01*
X177809Y227427D01*
X178001Y227676D01*
X178443Y227887D01*
X178618Y227815D01*
X178776Y227710D01*
X178841Y227723D01*
X178902Y227697D01*
X181649D01*
X181710Y227723D01*
X181775Y227710D01*
X181933Y227815D01*
X182108Y227887D01*
X182550Y227676D01*
X182742Y227427D01*
X183484Y226857D01*
X184348Y226499D01*
X185275Y226377D01*
X186203Y226499D01*
X187067Y226857D01*
X187809Y227427D01*
X188379Y228169D01*
X188656Y228839D01*
X201682D01*
X202000Y228070D01*
X202601Y227286D01*
X203385Y226685D01*
X204297Y226308D01*
X205276Y226179D01*
X206254Y226308D01*
X207167Y226685D01*
X207950Y227286D01*
X208234Y227656D01*
X208656Y227887D01*
X208831Y227815D01*
X208989Y227710D01*
X209054Y227723D01*
X209116Y227697D01*
X222341D01*
Y209553D01*
X222281Y209512D01*
X221887Y208923D01*
X221749Y208228D01*
X221887Y207533D01*
X222281Y206944D01*
X222870Y206550D01*
X223565Y206412D01*
X224260Y206550D01*
X224849Y206944D01*
X225242Y207533D01*
X225381Y208228D01*
X225242Y208923D01*
X224849Y209512D01*
X224788Y209553D01*
Y227697D01*
X234997D01*
Y205231D01*
X213702Y183936D01*
X213437Y183539D01*
X213343Y183071D01*
Y179176D01*
X213073Y179064D01*
X212454Y178589D01*
X211979Y177970D01*
X211681Y177250D01*
X211579Y176476D01*
X211681Y175703D01*
X211979Y174982D01*
X212454Y174364D01*
X213073Y173889D01*
X213343Y173777D01*
Y167824D01*
X212294D01*
Y163278D01*
X216840D01*
Y167824D01*
X215790D01*
Y173777D01*
X216061Y173889D01*
X216680Y174364D01*
X217154Y174982D01*
X217453Y175703D01*
X217555Y176476D01*
X217453Y177250D01*
X217154Y177970D01*
X216680Y178589D01*
X216061Y179064D01*
X215790Y179176D01*
Y182564D01*
X237086Y203859D01*
X237351Y204256D01*
X237444Y204724D01*
Y227697D01*
X239235D01*
Y204904D01*
X239235Y204904D01*
X239320Y204474D01*
X239564Y204110D01*
X248919Y194755D01*
Y168743D01*
X248716Y168607D01*
X248322Y168018D01*
X248184Y167323D01*
X248322Y166628D01*
X248716Y166039D01*
X249305Y165645D01*
X250000Y165507D01*
X250695Y165645D01*
X251284Y166039D01*
X251678Y166628D01*
X251816Y167323D01*
X251678Y168018D01*
X251284Y168607D01*
X251163Y168688D01*
Y195219D01*
X251163Y195219D01*
X251077Y195648D01*
X250834Y196012D01*
X250834Y196012D01*
X241478Y205368D01*
Y227697D01*
X242279D01*
X242308Y227709D01*
X242417Y227652D01*
X242810Y227062D01*
X243400Y226669D01*
X244094Y226531D01*
X244789Y226669D01*
X245379Y227062D01*
X245772Y227652D01*
X245881Y227709D01*
X245911Y227697D01*
X251319D01*
Y220472D01*
X251509Y220013D01*
X255446Y216076D01*
X255906Y215886D01*
X275590D01*
X276050Y216076D01*
X279987Y220013D01*
X280177Y220472D01*
Y227697D01*
X281889D01*
X281946Y227721D01*
X282006Y227708D01*
X282169Y227813D01*
X282348Y227887D01*
X282834Y228057D01*
X283144Y227850D01*
X283839Y227712D01*
X284534Y227850D01*
X284843Y228057D01*
X285329Y227887D01*
X285508Y227813D01*
X285671Y227708D01*
X285731Y227721D01*
X285788Y227697D01*
X286889D01*
X286946Y227721D01*
X287006Y227708D01*
X287169Y227813D01*
X287348Y227887D01*
X287834Y228057D01*
X288144Y227850D01*
X288839Y227712D01*
X289533Y227850D01*
X289843Y228057D01*
X290329Y227887D01*
X290508Y227813D01*
X290671Y227708D01*
X290731Y227721D01*
X290788Y227697D01*
X296999D01*
X297139Y227755D01*
X297290Y227766D01*
X297360Y227847D01*
X297459Y227887D01*
X297516Y228027D01*
X297616Y228142D01*
X297777Y228628D01*
X297765Y228795D01*
X297798Y228959D01*
X297672Y229591D01*
Y232810D01*
X297773Y233315D01*
X298023Y233690D01*
X298397Y233940D01*
X298838Y234028D01*
X299280Y233940D01*
X299654Y233690D01*
X299905Y233315D01*
X300005Y232810D01*
Y229591D01*
X299879Y228959D01*
X299912Y228795D01*
X299900Y228628D01*
X300061Y228142D01*
X300161Y228027D01*
X300219Y227887D01*
X300317Y227847D01*
X300387Y227766D01*
X300538Y227755D01*
X300678Y227697D01*
X302439D01*
X302899Y227887D01*
X302908Y227911D01*
X309170D01*
X309180Y227887D01*
X309639Y227697D01*
X312161D01*
X312620Y227887D01*
X312630Y227911D01*
X318892D01*
X318902Y227887D01*
X319361Y227697D01*
X391526D01*
Y226211D01*
X399025D01*
Y228839D01*
X411895D01*
X412172Y228169D01*
X412742Y227427D01*
X413484Y226857D01*
X414348Y226499D01*
X415276Y226377D01*
X416203Y226499D01*
X417067Y226857D01*
X417809Y227427D01*
X418001Y227676D01*
X418443Y227887D01*
X418618Y227815D01*
X418776Y227710D01*
X418841Y227723D01*
X418902Y227697D01*
X421649D01*
X421710Y227723D01*
X421775Y227710D01*
X421933Y227815D01*
X422108Y227887D01*
X422550Y227676D01*
X422742Y227427D01*
X423484Y226857D01*
X424348Y226499D01*
X425276Y226377D01*
X426203Y226499D01*
X427067Y226857D01*
X427809Y227427D01*
X428001Y227676D01*
X428443Y227887D01*
X428618Y227815D01*
X428776Y227710D01*
X428841Y227723D01*
X428902Y227697D01*
X440295D01*
Y220472D01*
X440486Y220013D01*
X444423Y216076D01*
X444882Y215886D01*
X464567D01*
X465026Y216076D01*
X468963Y220013D01*
X469153Y220472D01*
Y227697D01*
X470865D01*
X470922Y227721D01*
X470983Y227708D01*
X471145Y227813D01*
X471325Y227887D01*
X471810Y228057D01*
X472120Y227850D01*
X472815Y227712D01*
X473510Y227850D01*
X473820Y228057D01*
X474305Y227887D01*
X474484Y227813D01*
X474647Y227708D01*
X474708Y227721D01*
X474764Y227697D01*
X475866D01*
X475922Y227721D01*
X475983Y227708D01*
X476146Y227813D01*
X476325Y227887D01*
X476810Y228057D01*
X477120Y227850D01*
X477815Y227712D01*
X478510Y227850D01*
X478820Y228057D01*
X479305Y227887D01*
X479484Y227813D01*
X479647Y227708D01*
X479707Y227721D01*
X479764Y227697D01*
X485976D01*
X486116Y227755D01*
X486267Y227766D01*
X486337Y227847D01*
X486435Y227887D01*
X486493Y228027D01*
X486592Y228142D01*
X486754Y228628D01*
X486741Y228795D01*
X486774Y228959D01*
X486648Y229591D01*
Y232810D01*
X486749Y233315D01*
X486999Y233690D01*
X487373Y233940D01*
X487815Y234028D01*
X488257Y233940D01*
X488631Y233690D01*
X488881Y233315D01*
X488981Y232810D01*
Y229591D01*
X488872Y229043D01*
X488885Y228977D01*
X488860Y228916D01*
X488932Y228741D01*
X488969Y228555D01*
X489025Y228518D01*
X489050Y228457D01*
X489619Y227887D01*
X490079Y227697D01*
X491114D01*
X491573Y227887D01*
X491583Y227911D01*
X498314D01*
X498314Y227911D01*
X498369D01*
X498369Y227911D01*
X505099D01*
X505109Y227887D01*
X505569Y227697D01*
X515748D01*
X523622Y227697D01*
X524081Y227887D01*
X524271Y228346D01*
Y295276D01*
X524929D01*
Y162918D01*
X524929Y162918D01*
X525014Y162489D01*
X525257Y162125D01*
X530998Y156385D01*
X530998Y156385D01*
X531362Y156141D01*
X531791Y156056D01*
X531791Y156056D01*
X547680D01*
X547680Y156056D01*
X547680Y156056D01*
X554675D01*
Y154904D01*
X555827D01*
Y146795D01*
X555183Y146151D01*
X554763Y146190D01*
X554466Y146628D01*
X554521Y146904D01*
X554429Y147368D01*
X554166Y147762D01*
X553772Y148025D01*
X553307Y148117D01*
X549173D01*
X548709Y148025D01*
X532582D01*
X532582Y148025D01*
X532153Y147940D01*
X531789Y147697D01*
X531780Y147688D01*
X531496Y147744D01*
X530801Y147606D01*
X530212Y147212D01*
X530103Y147050D01*
X524798D01*
X524690Y147212D01*
X524100Y147606D01*
X523406Y147744D01*
X522711Y147606D01*
X522121Y147212D01*
X521728Y146623D01*
X521590Y145928D01*
X521728Y145233D01*
X522121Y144644D01*
X522711Y144250D01*
X523406Y144112D01*
X524100Y144250D01*
X524690Y144644D01*
X524798Y144807D01*
X530103D01*
X530212Y144644D01*
X530801Y144250D01*
X531496Y144112D01*
X532191Y144250D01*
X532780Y144644D01*
X533174Y145233D01*
X533283Y145782D01*
X537515D01*
X537739Y145375D01*
Y140175D01*
X544939D01*
Y141653D01*
X547623D01*
X547990Y141153D01*
X547959Y140998D01*
X548052Y140534D01*
X548315Y140140D01*
X548709Y139877D01*
X549173Y139784D01*
X553307D01*
X553771Y139877D01*
X554533D01*
X555827Y138583D01*
Y137308D01*
X554675D01*
Y136278D01*
X551014D01*
X550585Y136192D01*
X550221Y135949D01*
X550221Y135949D01*
X549635Y135363D01*
X549392Y134999D01*
X549307Y134570D01*
X549307Y134570D01*
Y133143D01*
X548934Y132989D01*
X548315Y132515D01*
X547841Y131896D01*
X547542Y131175D01*
X547440Y130402D01*
X547542Y129629D01*
X547841Y128908D01*
X548315Y128289D01*
X548934Y127814D01*
X549655Y127516D01*
X550428Y127414D01*
X551201Y127516D01*
X551922Y127814D01*
X552541Y128289D01*
X553016Y128908D01*
X553314Y129629D01*
X553416Y130402D01*
X553314Y131175D01*
X553016Y131896D01*
X552541Y132515D01*
X551922Y132989D01*
X551550Y133143D01*
Y134035D01*
X554675D01*
Y132762D01*
X555827D01*
Y126574D01*
X555827Y126574D01*
X555913Y126144D01*
X556156Y125781D01*
X557914Y124022D01*
X557914Y124022D01*
X558278Y123779D01*
X558707Y123694D01*
X558707Y123694D01*
X562646D01*
Y122226D01*
X569846D01*
Y127426D01*
X562646D01*
Y125937D01*
X559171D01*
X558070Y127038D01*
Y132762D01*
X559222D01*
Y137308D01*
X558070D01*
Y139047D01*
X558070Y139047D01*
X557985Y139476D01*
X557742Y139840D01*
X557742Y139840D01*
X555791Y141791D01*
X555427Y142034D01*
X554998Y142120D01*
X554998Y142120D01*
X554729D01*
X554452Y142620D01*
X554521Y142966D01*
X554452Y143314D01*
X554729Y143814D01*
X555554D01*
X555554Y143814D01*
X555983Y143899D01*
X556347Y144142D01*
X557742Y145537D01*
X557742Y145537D01*
X557985Y145901D01*
X558070Y146330D01*
Y154904D01*
X559222D01*
Y159451D01*
X554675D01*
Y158299D01*
X548145D01*
X547069Y159375D01*
Y162566D01*
X547728D01*
Y166522D01*
X544166D01*
Y162566D01*
X544825D01*
Y158911D01*
X544825Y158911D01*
X544848Y158799D01*
X544477Y158299D01*
X532256D01*
X527172Y163383D01*
Y295276D01*
X527559D01*
X527172Y295663D01*
Y296784D01*
X527172Y296784D01*
X527086Y297214D01*
X526843Y297578D01*
X526843Y297578D01*
X517035Y307386D01*
X516671Y307629D01*
X516242Y307714D01*
X516242Y307714D01*
X469462D01*
X460630Y316547D01*
Y401575D01*
X462598Y403543D01*
X667323Y403543D01*
Y205478D01*
D02*
G37*
G36*
X412172Y288169D02*
X412742Y287427D01*
X413398Y286923D01*
X413343Y286578D01*
X413264Y286423D01*
X397647D01*
X397477Y286923D01*
X397950Y287286D01*
X398551Y288070D01*
X398869Y288839D01*
X411895D01*
X412172Y288169D01*
D02*
G37*
G36*
X380768Y292234D02*
X376565D01*
Y287687D01*
X376740D01*
X376932Y287225D01*
X376130Y286423D01*
X187287D01*
X187208Y286578D01*
X187153Y286923D01*
X187809Y287427D01*
X188379Y288169D01*
X188737Y289033D01*
X188859Y289961D01*
X188737Y290888D01*
X188379Y291752D01*
X187809Y292494D01*
X187120Y293023D01*
X187126Y293204D01*
X187261Y293523D01*
X376338D01*
X376806Y293616D01*
X377203Y293882D01*
X378644Y295323D01*
X380768D01*
Y292234D01*
D02*
G37*
G36*
X183425Y293204D02*
X183431Y293023D01*
X182742Y292494D01*
X182172Y291752D01*
X181814Y290888D01*
X181692Y289961D01*
X181814Y289033D01*
X182172Y288169D01*
X182742Y287427D01*
X183398Y286923D01*
X183343Y286578D01*
X183264Y286423D01*
X177287D01*
X177208Y286578D01*
X177154Y286923D01*
X177809Y287427D01*
X178379Y288169D01*
X178737Y289033D01*
X178859Y289961D01*
X178737Y290888D01*
X178379Y291752D01*
X177809Y292494D01*
X177120Y293023D01*
X177126Y293204D01*
X177261Y293523D01*
X183290D01*
X183425Y293204D01*
D02*
G37*
G36*
X414762Y283476D02*
X414348Y283422D01*
X413484Y283064D01*
X412742Y282494D01*
X412172Y281752D01*
X411895Y281082D01*
X398869D01*
X398551Y281852D01*
X397950Y282635D01*
X397166Y283236D01*
X396586Y283476D01*
X396685Y283976D01*
X414729D01*
X414762Y283476D01*
D02*
G37*
G36*
X201526Y283710D02*
X201526Y283476D01*
Y281082D01*
X188656D01*
X188379Y281752D01*
X187809Y282494D01*
X187067Y283064D01*
X186203Y283422D01*
X185789Y283476D01*
X185822Y283976D01*
X201136D01*
X201526Y283710D01*
D02*
G37*
G36*
X412172Y278169D02*
X412742Y277427D01*
X413484Y276857D01*
X413923Y276676D01*
X413823Y276175D01*
X397242D01*
X397143Y276676D01*
X397166Y276685D01*
X397950Y277286D01*
X398551Y278070D01*
X398869Y278839D01*
X411895D01*
X412172Y278169D01*
D02*
G37*
G36*
X383717Y287402D02*
X383810Y286934D01*
X384076Y286537D01*
X386278Y284335D01*
X386675Y284069D01*
X387143Y283976D01*
X393866D01*
X393965Y283476D01*
X393385Y283236D01*
X392601Y282635D01*
X392000Y281852D01*
X391622Y280939D01*
X391494Y279961D01*
X391622Y278982D01*
X392000Y278070D01*
X392601Y277286D01*
X393385Y276685D01*
X393408Y276676D01*
X393309Y276175D01*
X390456D01*
X387214Y279418D01*
Y282234D01*
X383011D01*
Y287687D01*
X383717D01*
Y287402D01*
D02*
G37*
G36*
X413881Y273229D02*
X413484Y273064D01*
X412742Y272494D01*
X412172Y271752D01*
X411895Y271082D01*
X398869D01*
X398551Y271851D01*
X397950Y272635D01*
X397176Y273229D01*
X397172Y273259D01*
X397284Y273728D01*
X413782D01*
X413881Y273229D01*
D02*
G37*
G36*
X523622Y295276D02*
Y228346D01*
X515748Y228346D01*
X505569D01*
Y228561D01*
X498369D01*
Y228561D01*
X498314D01*
Y228561D01*
X491114D01*
Y228346D01*
X490079D01*
X489509Y228916D01*
X489631Y229527D01*
Y232874D01*
X489493Y233569D01*
X489099Y234158D01*
X488510Y234552D01*
X487815Y234690D01*
X487120Y234552D01*
X486531Y234158D01*
X486137Y233569D01*
X485999Y232874D01*
Y229527D01*
X486137Y228833D01*
X485976Y228346D01*
X479764D01*
X479481Y228757D01*
X479495Y228847D01*
X479631Y229527D01*
Y232874D01*
X479493Y233569D01*
X479446Y233638D01*
Y235013D01*
X481468Y237035D01*
X481822Y237565D01*
X481946Y238189D01*
Y245369D01*
X483915D01*
Y246298D01*
X484589D01*
Y245369D01*
X491789D01*
Y250569D01*
X491789D01*
X491968Y250995D01*
X516043D01*
X518814Y248223D01*
X518776Y248031D01*
X518914Y247337D01*
X519308Y246747D01*
X519897Y246354D01*
X520592Y246216D01*
X521287Y246354D01*
X521876Y246747D01*
X522269Y247337D01*
X522408Y248031D01*
X522269Y248727D01*
X521876Y249316D01*
X521287Y249709D01*
X520592Y249848D01*
X520400Y249809D01*
X517300Y252909D01*
X516936Y253152D01*
X516507Y253238D01*
X516507Y253238D01*
X492235D01*
X491789Y253369D01*
X491789Y253738D01*
Y258569D01*
X484589D01*
X484589Y253713D01*
X484252Y253517D01*
X483915Y253713D01*
Y258569D01*
X481436D01*
Y270155D01*
X481436Y270155D01*
X481351Y270585D01*
X481108Y270948D01*
X481108Y270948D01*
X478973Y273084D01*
X478609Y273327D01*
X478180Y273412D01*
X478180Y273412D01*
X450206D01*
Y274564D01*
X445660D01*
Y270018D01*
X450206D01*
Y271169D01*
X477715D01*
X479193Y269691D01*
Y258569D01*
X476915D01*
X476415Y258569D01*
X476215Y258569D01*
X473578D01*
Y262225D01*
X473493Y262654D01*
X473250Y263018D01*
X473250Y263018D01*
X471695Y264573D01*
X471331Y264816D01*
X470902Y264901D01*
X470902Y264901D01*
X450206D01*
Y266053D01*
X445660D01*
Y261506D01*
X450206D01*
Y262658D01*
X470438D01*
X471335Y261760D01*
Y258569D01*
X469425D01*
X469215Y258569D01*
X468731Y258529D01*
X461741D01*
X461741Y253329D01*
X461279Y253238D01*
X443986D01*
X443986Y253238D01*
X443557Y253152D01*
X443193Y252909D01*
X443193Y252909D01*
X436139Y245855D01*
X396469D01*
X396370Y246355D01*
X397166Y246685D01*
X397950Y247286D01*
X398551Y248070D01*
X398869Y248839D01*
X411895D01*
X412172Y248169D01*
X412742Y247427D01*
X413484Y246857D01*
X414348Y246499D01*
X415276Y246377D01*
X416203Y246499D01*
X417067Y246857D01*
X417809Y247427D01*
X418379Y248169D01*
X418737Y249033D01*
X418859Y249961D01*
X418737Y250888D01*
X418459Y251558D01*
X420550Y253649D01*
X423591D01*
X423690Y253149D01*
X423484Y253064D01*
X422742Y252494D01*
X422172Y251752D01*
X421814Y250888D01*
X421692Y249961D01*
X421814Y249033D01*
X422172Y248169D01*
X422742Y247427D01*
X423484Y246857D01*
X424348Y246499D01*
X425276Y246377D01*
X426203Y246499D01*
X427067Y246857D01*
X427809Y247427D01*
X428379Y248169D01*
X428737Y249033D01*
X428859Y249961D01*
X428737Y250888D01*
X428379Y251752D01*
X427809Y252494D01*
X427067Y253064D01*
X426861Y253149D01*
X426960Y253649D01*
X432822D01*
X432822Y253649D01*
X433251Y253735D01*
X433615Y253978D01*
X441144Y261506D01*
X444104D01*
Y266053D01*
X439557D01*
Y263092D01*
X432357Y255892D01*
X425425D01*
X425392Y256392D01*
X425636Y256425D01*
X426203Y256499D01*
X427067Y256857D01*
X427809Y257427D01*
X428379Y258169D01*
X428737Y259033D01*
X428859Y259961D01*
X428737Y260888D01*
X428379Y261752D01*
X427809Y262494D01*
X427067Y263064D01*
X426203Y263422D01*
X425276Y263544D01*
X424348Y263422D01*
X423484Y263064D01*
X422742Y262494D01*
X422172Y261752D01*
X421814Y260888D01*
X421692Y259961D01*
X421814Y259033D01*
X422172Y258169D01*
X422742Y257427D01*
X423484Y256857D01*
X424348Y256499D01*
X424915Y256425D01*
X425159Y256392D01*
X425126Y255892D01*
X420086D01*
X420086Y255892D01*
X419657Y255807D01*
X419293Y255564D01*
X419293Y255564D01*
X416873Y253144D01*
X416203Y253422D01*
X415276Y253544D01*
X414348Y253422D01*
X413484Y253064D01*
X412742Y252494D01*
X412172Y251752D01*
X411895Y251082D01*
X398869D01*
X398551Y251852D01*
X397950Y252635D01*
X397166Y253236D01*
X396254Y253614D01*
X395276Y253743D01*
X394297Y253614D01*
X393385Y253236D01*
X392601Y252635D01*
X392000Y251852D01*
X391622Y250939D01*
X391494Y249961D01*
X391622Y248982D01*
X392000Y248070D01*
X392601Y247286D01*
X393385Y246685D01*
X394181Y246355D01*
X394082Y245855D01*
X386683D01*
X386683Y245855D01*
X386254Y245770D01*
X385890Y245527D01*
X383916Y243553D01*
X380736D01*
X380529Y243940D01*
X380523Y244053D01*
X380655Y244712D01*
X380516Y245407D01*
X380123Y245996D01*
X379533Y246390D01*
X378838Y246528D01*
X378144Y246390D01*
X377554Y245996D01*
X377203Y245470D01*
X360518D01*
X342976Y263011D01*
X342612Y263255D01*
X342183Y263340D01*
X342183Y263340D01*
X260357D01*
X260357Y263340D01*
X259928Y263255D01*
X259564Y263011D01*
X259564Y263011D01*
X250934Y254381D01*
X250934Y254381D01*
X239564Y243011D01*
X239320Y242647D01*
X239235Y242218D01*
X239235Y242218D01*
Y228346D01*
X237444D01*
Y267138D01*
X237351Y267606D01*
X237086Y268003D01*
X225366Y279722D01*
X225381Y279794D01*
X225242Y280489D01*
X224849Y281078D01*
X224260Y281471D01*
X223565Y281610D01*
X222870Y281471D01*
X222281Y281078D01*
X221887Y280489D01*
X221749Y279794D01*
X221887Y279099D01*
X222281Y278509D01*
X222870Y278116D01*
X223565Y277978D01*
X223636Y277992D01*
X234997Y266631D01*
Y228346D01*
X224788D01*
Y248876D01*
X224695Y249345D01*
X224430Y249742D01*
X218370Y255801D01*
X217973Y256067D01*
X217505Y256160D01*
X207204D01*
X207105Y256660D01*
X207167Y256685D01*
X207950Y257286D01*
X208551Y258070D01*
X208929Y258982D01*
X209057Y259961D01*
X208929Y260939D01*
X208551Y261852D01*
X207950Y262635D01*
X207167Y263236D01*
X206254Y263614D01*
X205276Y263742D01*
X204297Y263614D01*
X203385Y263236D01*
X202601Y262635D01*
X202000Y261852D01*
X201682Y261082D01*
X188656D01*
X188379Y261752D01*
X187809Y262494D01*
X187067Y263064D01*
X186203Y263422D01*
X185275Y263544D01*
X184348Y263422D01*
X183484Y263064D01*
X182742Y262494D01*
X182172Y261752D01*
X181814Y260888D01*
X181692Y259961D01*
X181814Y259033D01*
X182172Y258169D01*
X182742Y257427D01*
X183484Y256857D01*
X183960Y256660D01*
X183861Y256160D01*
X176690D01*
X176591Y256660D01*
X177067Y256857D01*
X177809Y257427D01*
X178379Y258169D01*
X178737Y259033D01*
X178859Y259961D01*
X178737Y260888D01*
X178379Y261752D01*
X177809Y262494D01*
X177067Y263064D01*
X176203Y263422D01*
X175276Y263544D01*
X174348Y263422D01*
X173484Y263064D01*
X172742Y262494D01*
X172172Y261752D01*
X171814Y260888D01*
X171692Y259961D01*
X171814Y259033D01*
X172172Y258169D01*
X172742Y257427D01*
X173484Y256857D01*
X173960Y256660D01*
X173861Y256160D01*
X168322D01*
X167854Y256067D01*
X167457Y255801D01*
X164848Y253192D01*
X114739D01*
X114312Y253368D01*
X114312Y253692D01*
Y258568D01*
X107112D01*
Y253692D01*
X107112Y253368D01*
X106685Y253192D01*
X106389D01*
X105962Y253369D01*
Y258569D01*
X103854D01*
Y263748D01*
X124082Y283976D01*
X174729D01*
X174762Y283476D01*
X174348Y283422D01*
X173484Y283064D01*
X172742Y282494D01*
X172172Y281752D01*
X171814Y280888D01*
X171692Y279961D01*
X171814Y279033D01*
X172172Y278169D01*
X172742Y277427D01*
X173484Y276857D01*
X174348Y276499D01*
X175276Y276377D01*
X176203Y276499D01*
X177067Y276857D01*
X177809Y277427D01*
X178379Y278169D01*
X178737Y279033D01*
X178859Y279961D01*
X178737Y280888D01*
X178379Y281752D01*
X177809Y282494D01*
X177067Y283064D01*
X176203Y283422D01*
X175789Y283476D01*
X175822Y283976D01*
X184729D01*
X184762Y283476D01*
X184348Y283422D01*
X183484Y283064D01*
X182742Y282494D01*
X182172Y281752D01*
X181814Y280888D01*
X181692Y279961D01*
X181814Y279033D01*
X182172Y278169D01*
X182742Y277427D01*
X183484Y276857D01*
X184348Y276499D01*
X185275Y276377D01*
X186203Y276499D01*
X187067Y276857D01*
X187809Y277427D01*
X188379Y278169D01*
X188656Y278839D01*
X201526D01*
Y276211D01*
X209025D01*
Y283476D01*
X209025Y283710D01*
X209415Y283976D01*
X376636D01*
X377105Y284069D01*
X377502Y284335D01*
X379704Y286537D01*
X379969Y286934D01*
X380062Y287402D01*
Y287687D01*
X380768D01*
Y282234D01*
X376565D01*
Y281082D01*
X322810D01*
X322516Y281521D01*
X321927Y281915D01*
X321232Y282053D01*
X320537Y281915D01*
X319948Y281521D01*
X319554Y280932D01*
X319416Y280237D01*
X319554Y279542D01*
X319948Y278953D01*
X320537Y278560D01*
X321232Y278421D01*
X321927Y278560D01*
X322345Y278839D01*
X376565D01*
Y277687D01*
X380768D01*
Y272291D01*
X376565D01*
Y267745D01*
X377717D01*
Y266496D01*
X377303Y266082D01*
X351846D01*
X349601Y268327D01*
X349639Y268518D01*
X349501Y269213D01*
X349107Y269802D01*
X348518Y270196D01*
X347823Y270334D01*
X347128Y270196D01*
X346539Y269802D01*
X346145Y269213D01*
X346007Y268518D01*
X346145Y267823D01*
X346539Y267234D01*
X347128Y266841D01*
X347823Y266702D01*
X348015Y266740D01*
X350588Y264167D01*
X350588Y264167D01*
X350952Y263924D01*
X351381Y263839D01*
X377768D01*
X377768Y263839D01*
X378197Y263924D01*
X378561Y264167D01*
X379631Y265238D01*
X379632Y265238D01*
X379875Y265602D01*
X379960Y266031D01*
X379960Y266031D01*
Y267745D01*
X380768D01*
Y263528D01*
X379526Y262285D01*
X376565D01*
Y259325D01*
X370253Y253013D01*
X370079Y253047D01*
X369384Y252909D01*
X368795Y252515D01*
X368401Y251926D01*
X368263Y251231D01*
X368401Y250536D01*
X368795Y249947D01*
X369384Y249554D01*
X370079Y249415D01*
X370774Y249554D01*
X371363Y249947D01*
X371757Y250536D01*
X371895Y251231D01*
X371853Y251441D01*
X378151Y257739D01*
X381112D01*
Y260699D01*
X382206Y261793D01*
X382668Y261602D01*
Y257739D01*
X387214D01*
Y262285D01*
X386063D01*
Y266513D01*
X386525Y266704D01*
X389124Y264104D01*
X389521Y263839D01*
X389990Y263746D01*
X393309D01*
X393408Y263246D01*
X393385Y263236D01*
X392601Y262635D01*
X392000Y261852D01*
X391622Y260939D01*
X391494Y259961D01*
X391622Y258982D01*
X392000Y258070D01*
X392601Y257286D01*
X393385Y256685D01*
X394297Y256308D01*
X395276Y256179D01*
X396254Y256308D01*
X397166Y256685D01*
X397950Y257286D01*
X398551Y258070D01*
X398869Y258839D01*
X411895D01*
X412172Y258169D01*
X412742Y257427D01*
X413484Y256857D01*
X414348Y256499D01*
X415276Y256377D01*
X416203Y256499D01*
X417067Y256857D01*
X417809Y257427D01*
X418379Y258169D01*
X418737Y259033D01*
X418859Y259961D01*
X418737Y260888D01*
X418379Y261752D01*
X417809Y262494D01*
X417067Y263064D01*
X416629Y263246D01*
X416728Y263746D01*
X420284D01*
X420752Y263839D01*
X421149Y264104D01*
X423780Y266735D01*
X424348Y266499D01*
X425276Y266377D01*
X426203Y266499D01*
X427067Y266857D01*
X427809Y267427D01*
X428379Y268169D01*
X428737Y269033D01*
X428859Y269961D01*
X428737Y270888D01*
X428379Y271752D01*
X427809Y272494D01*
X427067Y273064D01*
X426203Y273422D01*
X425276Y273544D01*
X424348Y273422D01*
X423484Y273064D01*
X422742Y272494D01*
X422172Y271752D01*
X421814Y270888D01*
X421692Y269961D01*
X421814Y269033D01*
X422050Y268465D01*
X419777Y266193D01*
X416769D01*
X416670Y266693D01*
X417067Y266857D01*
X417809Y267427D01*
X418379Y268169D01*
X418737Y269033D01*
X418859Y269961D01*
X418737Y270888D01*
X418379Y271752D01*
X417809Y272494D01*
X417067Y273064D01*
X416670Y273229D01*
X416769Y273728D01*
X420267D01*
X420735Y273822D01*
X421132Y274087D01*
X423780Y276735D01*
X424348Y276499D01*
X425276Y276377D01*
X426203Y276499D01*
X427067Y276857D01*
X427809Y277427D01*
X428379Y278169D01*
X428737Y279033D01*
X428859Y279961D01*
X428737Y280888D01*
X428379Y281752D01*
X427809Y282494D01*
X427067Y283064D01*
X426203Y283422D01*
X425276Y283544D01*
X424348Y283422D01*
X423484Y283064D01*
X422742Y282494D01*
X422172Y281752D01*
X421814Y280888D01*
X421692Y279961D01*
X421814Y279033D01*
X422050Y278465D01*
X419760Y276175D01*
X416728D01*
X416629Y276676D01*
X417067Y276857D01*
X417809Y277427D01*
X418379Y278169D01*
X418737Y279033D01*
X418859Y279961D01*
X418737Y280888D01*
X418379Y281752D01*
X417809Y282494D01*
X417067Y283064D01*
X416203Y283422D01*
X415789Y283476D01*
X415822Y283976D01*
X420086D01*
X420554Y284069D01*
X420951Y284335D01*
X423478Y286862D01*
X423484Y286857D01*
X424348Y286499D01*
X425276Y286377D01*
X426203Y286499D01*
X427067Y286857D01*
X427809Y287427D01*
X428379Y288169D01*
X428737Y289033D01*
X428859Y289961D01*
X428737Y290888D01*
X428379Y291752D01*
X427809Y292494D01*
X427067Y293064D01*
X426203Y293422D01*
X425276Y293544D01*
X424348Y293422D01*
X423484Y293064D01*
X422742Y292494D01*
X422172Y291752D01*
X421814Y290888D01*
X421692Y289961D01*
X421814Y289033D01*
X421924Y288768D01*
X419579Y286423D01*
X417287D01*
X417208Y286578D01*
X417154Y286923D01*
X417809Y287427D01*
X418379Y288169D01*
X418737Y289033D01*
X418859Y289961D01*
X418737Y290888D01*
X418379Y291752D01*
X417809Y292494D01*
X417067Y293064D01*
X416203Y293422D01*
X415276Y293544D01*
X414348Y293422D01*
X413484Y293064D01*
X412742Y292494D01*
X412172Y291752D01*
X411895Y291082D01*
X398869D01*
X398551Y291851D01*
X397950Y292635D01*
X397166Y293236D01*
X396254Y293614D01*
X395276Y293742D01*
X394297Y293614D01*
X393385Y293236D01*
X392601Y292635D01*
X392000Y291851D01*
X391622Y290939D01*
X391494Y289961D01*
X391622Y288982D01*
X392000Y288070D01*
X392601Y287286D01*
X393074Y286923D01*
X392904Y286423D01*
X387650D01*
X386848Y287225D01*
X387039Y287687D01*
X387214D01*
Y292234D01*
X383011D01*
Y295323D01*
X440709D01*
Y274564D01*
X439558D01*
Y270018D01*
X444104D01*
Y274564D01*
X442952D01*
Y295323D01*
X511811Y295323D01*
X515700Y299213D01*
X515748D01*
Y302496D01*
X516210Y302688D01*
X523622Y295276D01*
D02*
G37*
G36*
X412172Y268169D02*
X412742Y267427D01*
X413484Y266857D01*
X413881Y266693D01*
X413782Y266193D01*
X397284D01*
X397172Y266662D01*
X397176Y266693D01*
X397950Y267286D01*
X398551Y268070D01*
X398869Y268839D01*
X411895D01*
X412172Y268169D01*
D02*
G37*
G36*
X389084Y274087D02*
X389481Y273822D01*
X389949Y273728D01*
X393267D01*
X393379Y273259D01*
X393375Y273229D01*
X392601Y272635D01*
X392000Y271851D01*
X391622Y270939D01*
X391494Y269961D01*
X391622Y268982D01*
X392000Y268070D01*
X392601Y267286D01*
X393375Y266693D01*
X393379Y266662D01*
X393267Y266193D01*
X390496D01*
X387214Y269475D01*
Y272291D01*
X383011D01*
Y277687D01*
X385484D01*
X389084Y274087D01*
D02*
G37*
G36*
X413923Y263246D02*
X413484Y263064D01*
X412742Y262494D01*
X412172Y261752D01*
X411895Y261082D01*
X398869D01*
X398551Y261852D01*
X397950Y262635D01*
X397166Y263236D01*
X397143Y263246D01*
X397242Y263746D01*
X413823D01*
X413923Y263246D01*
D02*
G37*
G36*
X173425Y293204D02*
X173431Y293023D01*
X172742Y292494D01*
X172172Y291752D01*
X171814Y290888D01*
X171692Y289961D01*
X171814Y289033D01*
X172172Y288169D01*
X172742Y287427D01*
X173398Y286923D01*
X173343Y286578D01*
X173264Y286423D01*
X123575D01*
X123107Y286330D01*
X122710Y286065D01*
X101766Y265120D01*
X101500Y264723D01*
X101407Y264255D01*
Y258569D01*
X98762D01*
Y258569D01*
X98462D01*
Y258569D01*
X95950D01*
Y263748D01*
X125724Y293523D01*
X173290D01*
X173425Y293204D01*
D02*
G37*
G36*
X202000Y258070D02*
X202601Y257286D01*
X203385Y256685D01*
X203446Y256660D01*
X203347Y256160D01*
X186690D01*
X186591Y256660D01*
X187067Y256857D01*
X187809Y257427D01*
X188379Y258169D01*
X188656Y258839D01*
X201682D01*
X202000Y258070D01*
D02*
G37*
G36*
X596366Y267623D02*
Y253729D01*
X595866Y253522D01*
X591924Y257464D01*
X591560Y257708D01*
X591281Y257763D01*
X591058Y257910D01*
X590889Y258187D01*
Y263222D01*
X585591D01*
X585353Y263722D01*
X585509Y263914D01*
X590889D01*
Y269114D01*
X591340Y269231D01*
X594758D01*
X596366Y267623D01*
D02*
G37*
G36*
X301789Y253460D02*
X294938D01*
Y257457D01*
X294939Y257566D01*
X295239Y257919D01*
X301789D01*
Y253460D01*
D02*
G37*
G36*
X278541D02*
X272640D01*
Y257919D01*
X278541D01*
Y253460D01*
D02*
G37*
G36*
X491140Y253738D02*
X490694Y253238D01*
X485610D01*
X485377Y253420D01*
X485242Y253705D01*
X485238Y253738D01*
X485238Y257919D01*
X491140D01*
Y253738D01*
D02*
G37*
G36*
X468731Y257880D02*
X468943Y257799D01*
X469215Y257548D01*
Y253369D01*
X468769Y253238D01*
X462853D01*
X462390Y253738D01*
X462391Y257880D01*
X468731D01*
D02*
G37*
G36*
X113662Y253692D02*
X113252Y253212D01*
X113200Y253192D01*
X108223D01*
X108171Y253212D01*
X107761Y253692D01*
Y257919D01*
X113662D01*
Y253692D01*
D02*
G37*
G36*
X123602Y294861D02*
X93861Y265120D01*
X93596Y264723D01*
X93502Y264255D01*
Y258569D01*
X91262D01*
Y253369D01*
X90835Y253192D01*
X90641D01*
X90214Y253369D01*
X90214Y253692D01*
Y258569D01*
X83014D01*
Y253692D01*
X83014Y253369D01*
X82587Y253192D01*
X75736D01*
X75268Y253099D01*
X74871Y252834D01*
X55135Y233097D01*
X54870Y232700D01*
X54777Y232232D01*
Y228346D01*
X35433Y228346D01*
X35433Y278526D01*
X40061D01*
Y285726D01*
X35433D01*
Y295323D01*
X123410Y295323D01*
X123602Y294861D01*
D02*
G37*
G36*
X89565Y253692D02*
X89155Y253212D01*
X89103Y253192D01*
X84126D01*
X84073Y253212D01*
X83663Y253692D01*
Y257919D01*
X89565D01*
Y253692D01*
D02*
G37*
G36*
X203357Y253266D02*
X203355Y253213D01*
X202601Y252635D01*
X202000Y251852D01*
X201682Y251082D01*
X188656D01*
X188379Y251752D01*
X187809Y252494D01*
X187067Y253064D01*
X186708Y253213D01*
X186807Y253713D01*
X203106D01*
X203357Y253266D01*
D02*
G37*
G36*
X574593Y253674D02*
X575020Y253589D01*
X576357D01*
X576398Y253581D01*
X580857D01*
X582609Y251829D01*
X582609Y251829D01*
X582973Y251586D01*
X583402Y251501D01*
X583688D01*
Y250262D01*
X574074D01*
Y252833D01*
X574066Y252873D01*
Y253425D01*
X574566Y253692D01*
X574593Y253674D01*
D02*
G37*
G36*
X222341Y248370D02*
Y228346D01*
X209116D01*
X208838Y228762D01*
X208929Y228982D01*
X209057Y229961D01*
X208929Y230939D01*
X208551Y231852D01*
X207950Y232635D01*
X207167Y233236D01*
X206254Y233614D01*
X205276Y233742D01*
X204297Y233614D01*
X203385Y233236D01*
X202601Y232635D01*
X202000Y231852D01*
X201682Y231082D01*
X188656D01*
X188379Y231752D01*
X187809Y232494D01*
X187067Y233064D01*
X186203Y233422D01*
X185275Y233544D01*
X184348Y233422D01*
X183484Y233064D01*
X182742Y232494D01*
X182172Y231752D01*
X181814Y230888D01*
X181692Y229961D01*
X181814Y229033D01*
X181926Y228762D01*
X181649Y228346D01*
X178902D01*
X178625Y228762D01*
X178737Y229033D01*
X178859Y229961D01*
X178737Y230888D01*
X178379Y231752D01*
X177809Y232494D01*
X177067Y233064D01*
X176203Y233422D01*
X175276Y233544D01*
X174348Y233422D01*
X173484Y233064D01*
X172742Y232494D01*
X172172Y231752D01*
X171814Y230888D01*
X171692Y229961D01*
X171814Y229033D01*
X171926Y228762D01*
X171649Y228346D01*
X129584D01*
Y228572D01*
X122384D01*
Y228346D01*
X121013D01*
Y228573D01*
X113813D01*
Y228346D01*
X111701D01*
X111540Y228833D01*
X111678Y229527D01*
Y232874D01*
X111540Y233569D01*
X111146Y234158D01*
X110557Y234552D01*
X109862Y234690D01*
X109167Y234552D01*
X108578Y234158D01*
X108184Y233569D01*
X108046Y232874D01*
Y229527D01*
X108184Y228833D01*
X108023Y228346D01*
X101812D01*
X101529Y228757D01*
X101543Y228847D01*
X101678Y229527D01*
Y232874D01*
X101540Y233569D01*
X101494Y233638D01*
Y238950D01*
X103516Y240972D01*
X103869Y241502D01*
X103994Y242126D01*
X103994Y242126D01*
Y245369D01*
X105962D01*
Y246337D01*
X107112D01*
Y245368D01*
X114312D01*
Y250568D01*
X114739Y250745D01*
X165354D01*
X165823Y250838D01*
X166219Y251103D01*
X168829Y253713D01*
X173744D01*
X173843Y253213D01*
X173484Y253064D01*
X172742Y252494D01*
X172172Y251752D01*
X171814Y250888D01*
X171692Y249961D01*
X171814Y249033D01*
X172172Y248169D01*
X172742Y247427D01*
X173484Y246857D01*
X174348Y246499D01*
X175276Y246377D01*
X176203Y246499D01*
X177067Y246857D01*
X177809Y247427D01*
X178379Y248169D01*
X178737Y249033D01*
X178859Y249961D01*
X178737Y250888D01*
X178379Y251752D01*
X177809Y252494D01*
X177067Y253064D01*
X176708Y253213D01*
X176807Y253713D01*
X183744D01*
X183843Y253213D01*
X183484Y253064D01*
X182742Y252494D01*
X182172Y251752D01*
X181814Y250888D01*
X181692Y249961D01*
X181814Y249033D01*
X182172Y248169D01*
X182742Y247427D01*
X183484Y246857D01*
X184348Y246499D01*
X185275Y246377D01*
X186203Y246499D01*
X187067Y246857D01*
X187809Y247427D01*
X188379Y248169D01*
X188656Y248839D01*
X201682D01*
X202000Y248070D01*
X202601Y247286D01*
X203385Y246685D01*
X204297Y246307D01*
X205276Y246179D01*
X206254Y246307D01*
X207167Y246685D01*
X207950Y247286D01*
X208551Y248070D01*
X208929Y248982D01*
X209057Y249961D01*
X208929Y250939D01*
X208551Y251852D01*
X207950Y252635D01*
X207197Y253213D01*
X207194Y253266D01*
X207445Y253713D01*
X216998D01*
X222341Y248370D01*
D02*
G37*
G36*
X478684Y238865D02*
X476661Y236842D01*
X476308Y236313D01*
X476184Y235689D01*
Y233638D01*
X476137Y233569D01*
X475999Y232874D01*
Y229527D01*
X476134Y228847D01*
X476149Y228757D01*
X475866Y228346D01*
X474764D01*
X474481Y228757D01*
X474496Y228847D01*
X474631Y229527D01*
Y232874D01*
X474493Y233569D01*
X474446Y233638D01*
Y245369D01*
X476415D01*
Y245369D01*
X476715D01*
Y245369D01*
X478684D01*
Y238865D01*
D02*
G37*
G36*
X100731Y242802D02*
X98709Y240779D01*
X98355Y240250D01*
X98231Y239626D01*
Y233638D01*
X98184Y233569D01*
X98046Y232874D01*
Y229527D01*
X98182Y228847D01*
X98196Y228757D01*
X97913Y228346D01*
X96812D01*
X96529Y228757D01*
X96543Y228847D01*
X96678Y229527D01*
Y232874D01*
X96540Y233569D01*
X96494Y233638D01*
Y245369D01*
X98462D01*
Y245369D01*
X98762D01*
Y245369D01*
X100731D01*
Y242802D01*
D02*
G37*
G36*
X289707Y240636D02*
X287685Y238614D01*
X287331Y238085D01*
X287207Y237461D01*
Y233638D01*
X287161Y233569D01*
X287023Y232874D01*
Y229527D01*
X287158Y228847D01*
X287172Y228757D01*
X286889Y228346D01*
X285788D01*
X285505Y228757D01*
X285519Y228847D01*
X285654Y229527D01*
Y232874D01*
X285516Y233569D01*
X285470Y233638D01*
Y245369D01*
X287439D01*
Y245369D01*
X287739D01*
Y245369D01*
X289707D01*
Y240636D01*
D02*
G37*
G36*
X351264Y241638D02*
X351264Y241638D01*
X351628Y241395D01*
X352057Y241310D01*
X352057Y241310D01*
X384380D01*
X384380Y241310D01*
X384810Y241395D01*
X385173Y241638D01*
X387148Y243612D01*
X393054D01*
X393224Y243112D01*
X392601Y242635D01*
X392000Y241851D01*
X391622Y240939D01*
X391494Y239961D01*
X391622Y238982D01*
X392000Y238070D01*
X392601Y237286D01*
X393385Y236685D01*
X394297Y236308D01*
X395276Y236179D01*
X396254Y236308D01*
X397166Y236685D01*
X397950Y237286D01*
X398551Y238070D01*
X398692Y238411D01*
X412072D01*
X412172Y238169D01*
X412742Y237427D01*
X413484Y236857D01*
X414348Y236499D01*
X415276Y236377D01*
X416203Y236499D01*
X417067Y236857D01*
X417809Y237427D01*
X418379Y238169D01*
X418737Y239033D01*
X418859Y239961D01*
X418737Y240888D01*
X418379Y241752D01*
X417809Y242494D01*
X417067Y243064D01*
X416951Y243112D01*
X417050Y243612D01*
X423501D01*
X423601Y243112D01*
X423484Y243064D01*
X422742Y242494D01*
X422172Y241752D01*
X421814Y240888D01*
X421692Y239961D01*
X421814Y239033D01*
X422172Y238169D01*
X422742Y237427D01*
X423484Y236857D01*
X424348Y236499D01*
X425276Y236377D01*
X426203Y236499D01*
X427067Y236857D01*
X427809Y237427D01*
X428379Y238169D01*
X428737Y239033D01*
X428859Y239961D01*
X428737Y240888D01*
X428379Y241752D01*
X427809Y242494D01*
X427067Y243064D01*
X426951Y243112D01*
X427050Y243612D01*
X436604D01*
X436604Y243612D01*
X437033Y243698D01*
X437397Y243941D01*
X444451Y250995D01*
X461658D01*
X461741Y250529D01*
X461741D01*
Y245329D01*
X468731D01*
X468941Y245329D01*
Y245329D01*
X469215Y245369D01*
Y245369D01*
X471184D01*
Y233638D01*
X471137Y233569D01*
X470999Y232874D01*
Y229527D01*
X471134Y228847D01*
X471149Y228757D01*
X470865Y228346D01*
X468504D01*
Y220472D01*
X464567Y216535D01*
X444882D01*
X440945Y220472D01*
Y228346D01*
X428902D01*
X428625Y228762D01*
X428737Y229033D01*
X428859Y229961D01*
X428737Y230888D01*
X428379Y231752D01*
X427809Y232494D01*
X427067Y233064D01*
X426203Y233422D01*
X425276Y233544D01*
X424348Y233422D01*
X423484Y233064D01*
X422742Y232494D01*
X422172Y231752D01*
X421814Y230888D01*
X421692Y229961D01*
X421814Y229033D01*
X421926Y228762D01*
X421649Y228346D01*
X418902D01*
X418625Y228762D01*
X418737Y229033D01*
X418859Y229961D01*
X418737Y230888D01*
X418379Y231752D01*
X417809Y232494D01*
X417067Y233064D01*
X416203Y233422D01*
X415276Y233544D01*
X414348Y233422D01*
X413484Y233064D01*
X412742Y232494D01*
X412172Y231752D01*
X411895Y231082D01*
X399025D01*
Y233710D01*
X391526D01*
Y228346D01*
X319361D01*
Y228561D01*
X312161D01*
Y228346D01*
X309639D01*
Y228561D01*
X302439D01*
Y228346D01*
X300678D01*
X300516Y228833D01*
X300655Y229527D01*
Y232874D01*
X300516Y233569D01*
X300123Y234158D01*
X299534Y234552D01*
X298838Y234690D01*
X298144Y234552D01*
X297554Y234158D01*
X297161Y233569D01*
X297023Y232874D01*
Y229527D01*
X297161Y228833D01*
X296999Y228346D01*
X290788D01*
X290505Y228757D01*
X290519Y228847D01*
X290654Y229527D01*
Y232874D01*
X290516Y233569D01*
X290470Y233638D01*
Y236785D01*
X292492Y238807D01*
X292846Y239336D01*
X292970Y239961D01*
Y245369D01*
X294938D01*
Y245369D01*
X295239Y245369D01*
Y245369D01*
X302439D01*
Y250569D01*
X295239D01*
Y250569D01*
X294938Y250569D01*
Y250569D01*
X287739D01*
Y250569D01*
X287439D01*
Y250569D01*
X280239D01*
Y249600D01*
X279190D01*
Y250569D01*
X271990D01*
Y245369D01*
X279190D01*
Y246337D01*
X280239D01*
Y245369D01*
X282207D01*
Y233638D01*
X282161Y233569D01*
X282023Y232874D01*
Y229527D01*
X282158Y228847D01*
X282172Y228757D01*
X281889Y228346D01*
X279528D01*
Y220472D01*
X275590Y216535D01*
X255906D01*
X251969Y220472D01*
Y228346D01*
X245911D01*
X245772Y229041D01*
X245379Y229631D01*
X245216Y229739D01*
Y241083D01*
X255350Y251217D01*
X341685D01*
X351264Y241638D01*
D02*
G37*
G36*
X358763Y244053D02*
X358556Y243553D01*
X352522D01*
X342943Y253132D01*
X342579Y253375D01*
X342150Y253460D01*
X342150Y253460D01*
X302439D01*
Y258569D01*
X295239D01*
Y258569D01*
X294938Y258569D01*
Y258569D01*
X287739D01*
Y258569D01*
X287439D01*
Y258569D01*
X280239D01*
Y253460D01*
X279190D01*
Y258569D01*
X271990D01*
Y253460D01*
X254886D01*
X254886Y253460D01*
X254456Y253375D01*
X254093Y253132D01*
X254093Y253132D01*
X243301Y242340D01*
X243058Y241976D01*
X242973Y241547D01*
X242973Y241547D01*
Y229739D01*
X242810Y229631D01*
X242417Y229041D01*
X242279Y228346D01*
X241478D01*
Y241753D01*
X252520Y252795D01*
X252520Y252795D01*
X252520Y252795D01*
X260822Y261097D01*
X341719D01*
X358763Y244053D01*
D02*
G37*
G36*
X413601Y243112D02*
X413484Y243064D01*
X412742Y242494D01*
X412172Y241752D01*
X411814Y240888D01*
X411783Y240654D01*
X398966D01*
X398929Y240939D01*
X398551Y241851D01*
X397950Y242635D01*
X397328Y243112D01*
X397497Y243612D01*
X413501D01*
X413601Y243112D01*
D02*
G37*
G36*
X591303Y238178D02*
X591334Y238165D01*
X591523Y238114D01*
X591557Y238101D01*
Y232735D01*
X582097D01*
X581818Y232698D01*
X581537Y232683D01*
X581428Y232647D01*
X581314Y232632D01*
X581054Y232524D01*
X580787Y232436D01*
X580691Y232374D01*
X580584Y232330D01*
X580361Y232158D01*
X580126Y232004D01*
X580049Y231919D01*
X579958Y231849D01*
X579786Y231626D01*
X579599Y231416D01*
X579561Y231361D01*
X579518Y231276D01*
X579477Y231222D01*
X579471Y231209D01*
X579465Y231201D01*
X577398D01*
Y238189D01*
X583445D01*
X583482Y238179D01*
X583488Y238179D01*
X583494Y238177D01*
X583645Y238158D01*
X583843D01*
X584040Y238132D01*
X584368D01*
X584460Y238144D01*
X584460D01*
X584562D01*
X584666Y238158D01*
X584763D01*
X584855Y238170D01*
X584907Y238183D01*
X585013Y238189D01*
X591284D01*
X591303Y238178D01*
D02*
G37*
G36*
X594164Y252052D02*
Y243970D01*
X594164Y243970D01*
X594249Y243541D01*
X594492Y243177D01*
X601066Y236603D01*
Y175197D01*
X598509D01*
Y171849D01*
X601066Y169291D01*
Y133489D01*
X601066Y133489D01*
X601152Y133060D01*
X601395Y132696D01*
X604274Y129817D01*
Y126203D01*
X611474D01*
Y131403D01*
X605860D01*
X603309Y133954D01*
Y169291D01*
X606752D01*
Y162506D01*
X604274D01*
Y157306D01*
X611474D01*
Y162506D01*
X608996D01*
Y169291D01*
X612205D01*
X612320Y169176D01*
Y88133D01*
X612205Y88018D01*
X615387Y84836D01*
X665354D01*
Y4331D01*
X664961Y3937D01*
X3937D01*
Y57087D01*
X582772D01*
X585889Y60204D01*
Y69217D01*
X588272D01*
X588731Y69407D01*
X588921Y69866D01*
Y71866D01*
X588731Y72325D01*
X588272Y72515D01*
X585889D01*
Y74210D01*
X584147D01*
X582772Y75585D01*
Y185039D01*
X582844D01*
X584813Y187008D01*
X585960Y188155D01*
X586189Y188185D01*
X594655D01*
X594656Y188185D01*
X594656Y188185D01*
X595909D01*
X598609Y190885D01*
Y202852D01*
X596540Y204920D01*
X585906D01*
X585678Y204950D01*
X584141Y206487D01*
Y227007D01*
X582161Y228986D01*
X581943Y229272D01*
X582212Y229698D01*
X582213D01*
X582296Y229709D01*
X593331D01*
X594583Y230961D01*
Y240961D01*
X592493D01*
X592490Y240961D01*
X592461Y240973D01*
X592459Y240974D01*
X592458Y240974D01*
X592183Y241361D01*
Y246561D01*
X589704D01*
Y247929D01*
X589704Y247929D01*
X589619Y248358D01*
X589376Y248722D01*
X589376Y248722D01*
X588576Y249522D01*
X588783Y250022D01*
X590889D01*
Y254620D01*
X591389Y254827D01*
X594164Y252052D01*
D02*
G37*
G36*
X83014Y250569D02*
Y245369D01*
X90214D01*
Y246337D01*
X91262D01*
Y245369D01*
X93231D01*
Y233639D01*
X93184Y233569D01*
X93046Y232874D01*
Y229527D01*
X93182Y228847D01*
X93196Y228757D01*
X92913Y228346D01*
X90551D01*
Y220472D01*
X86614Y216535D01*
X62992D01*
X59055Y220472D01*
Y228346D01*
X57223D01*
Y231725D01*
X76243Y250745D01*
X82587D01*
X83014Y250569D01*
D02*
G37*
G36*
X585283Y201950D02*
X585511Y201920D01*
X585710D01*
X585906Y201894D01*
X595220D01*
X595583Y201598D01*
Y192139D01*
X594656Y191211D01*
X594655Y191211D01*
X586189D01*
X585992Y191185D01*
X585794D01*
X585565Y191155D01*
X585374Y191104D01*
X585177Y191078D01*
X585144Y191065D01*
X584798Y191232D01*
X584644Y191412D01*
Y201590D01*
X584696Y201681D01*
X585041Y201961D01*
X585144Y201987D01*
X585283Y201950D01*
D02*
G37*
G36*
X573827Y141331D02*
Y138371D01*
X574803D01*
Y136814D01*
X573827D01*
Y132268D01*
X574803D01*
Y130681D01*
X574303Y130325D01*
X574161Y130353D01*
X574161Y130353D01*
X564686D01*
X564173Y130866D01*
Y132762D01*
X565324D01*
Y133913D01*
X567095D01*
X567199Y133662D01*
X567674Y133043D01*
X568293Y132569D01*
X569013Y132270D01*
X569786Y132168D01*
X570560Y132270D01*
X571280Y132569D01*
X571899Y133043D01*
X572374Y133662D01*
X572672Y134383D01*
X572774Y135156D01*
X572672Y135929D01*
X572374Y136650D01*
X571899Y137269D01*
X571280Y137743D01*
X570560Y138042D01*
X569786Y138144D01*
X569013Y138042D01*
X568293Y137743D01*
X567674Y137269D01*
X567199Y136650D01*
X566995Y136156D01*
X565324D01*
Y137308D01*
X564173D01*
Y138984D01*
X565065Y139877D01*
X566229D01*
X566693Y139784D01*
X570827D01*
X571291Y139877D01*
X571685Y140140D01*
X571948Y140534D01*
X572041Y140998D01*
X571972Y141345D01*
X572248Y141845D01*
X573313D01*
X573827Y141331D01*
D02*
G37*
G36*
X385039Y109055D02*
X382677D01*
Y110630D01*
X385039D01*
Y109055D01*
D02*
G37*
G36*
X379815D02*
X377453D01*
Y110630D01*
X379815D01*
Y109055D01*
D02*
G37*
G36*
X196063Y109024D02*
X193701D01*
Y110599D01*
X196063D01*
Y109024D01*
D02*
G37*
G36*
X191043D02*
X188681D01*
Y110599D01*
X191043D01*
Y109024D01*
D02*
G37*
G36*
X576436Y107605D02*
X574074D01*
Y109180D01*
X576436D01*
Y107605D01*
D02*
G37*
G36*
X567427D02*
X565065D01*
Y109180D01*
X567427D01*
Y107605D01*
D02*
G37*
G36*
X185113Y114673D02*
X185582Y114580D01*
X188174D01*
X188639Y114116D01*
Y113167D01*
X188081D01*
Y110719D01*
X188032Y110599D01*
Y109024D01*
X188081Y108905D01*
Y106526D01*
X187644Y106304D01*
X187161Y106504D01*
X186880Y107183D01*
X186239Y108018D01*
X184315Y109942D01*
Y114708D01*
X184815Y114873D01*
X185113Y114673D01*
D02*
G37*
G36*
X647551Y190858D02*
X646457Y189764D01*
X628362D01*
X625206Y186607D01*
Y186217D01*
Y136617D01*
Y136212D01*
X627559Y133858D01*
X663779D01*
X664961Y132677D01*
Y88189D01*
X617717D01*
X615748Y90158D01*
X615748Y196063D01*
Y196257D01*
X616336Y196850D01*
X647539D01*
X647551Y190858D01*
D02*
G37*
G36*
X206752Y69866D02*
X201252D01*
Y71866D01*
X206752D01*
Y69866D01*
D02*
G37*
G36*
X189252D02*
X183752D01*
Y71866D01*
X189252D01*
Y69866D01*
D02*
G37*
G36*
X588272Y69866D02*
X582772D01*
Y71866D01*
X588272D01*
Y69866D01*
D02*
G37*
G36*
X570772D02*
X565272D01*
Y71866D01*
X570772D01*
Y69866D01*
D02*
G37*
G36*
X396039D02*
X390539D01*
Y71866D01*
X396039D01*
Y69866D01*
D02*
G37*
G36*
X378539D02*
X373039D01*
Y71866D01*
X378539D01*
Y69866D01*
D02*
G37*
G36*
X148024Y110016D02*
Y97709D01*
X153213Y92520D01*
X157636D01*
Y92488D01*
X169136D01*
Y92520D01*
X172769D01*
X173386Y92439D01*
X174002Y92520D01*
X177165D01*
X179134Y94488D01*
Y97847D01*
X179185Y98238D01*
Y98612D01*
X179134Y99003D01*
Y102362D01*
X180315Y103543D01*
Y103642D01*
X186231D01*
Y75835D01*
X184378D01*
Y74892D01*
X183752D01*
X182969Y74789D01*
X182239Y74487D01*
X181612Y74006D01*
X181131Y73379D01*
X180829Y72649D01*
X180726Y71866D01*
Y69866D01*
X180829Y69083D01*
X181131Y68353D01*
X181612Y67726D01*
X182239Y67246D01*
X182969Y66943D01*
X183752Y66840D01*
X184378D01*
Y65898D01*
X187442D01*
Y62992D01*
X185474Y61024D01*
X139827D01*
X133858Y66992D01*
Y97847D01*
X133910Y98238D01*
Y98612D01*
X133858Y99003D01*
Y115804D01*
X134020Y116237D01*
X141803D01*
X148024Y110016D01*
D02*
G37*
%LPC*%
G36*
X551984Y401916D02*
X551044Y401793D01*
X550169Y401430D01*
X549417Y400853D01*
X548840Y400101D01*
X548477Y399225D01*
X548353Y398285D01*
X548477Y397345D01*
X548840Y396470D01*
X549417Y395718D01*
X550169Y395141D01*
X551044Y394778D01*
X551984Y394654D01*
X552924Y394778D01*
X553800Y395141D01*
X554552Y395718D01*
X555129Y396470D01*
X555491Y397345D01*
X555615Y398285D01*
X555491Y399225D01*
X555129Y400101D01*
X554552Y400853D01*
X553800Y401430D01*
X552924Y401793D01*
X551984Y401916D01*
D02*
G37*
G36*
X559055Y394845D02*
X558115Y394722D01*
X557240Y394359D01*
X556488Y393782D01*
X555910Y393030D01*
X555548Y392154D01*
X555424Y391214D01*
X555548Y390275D01*
X555910Y389399D01*
X556488Y388647D01*
X557240Y388070D01*
X558115Y387707D01*
X559055Y387583D01*
X559995Y387707D01*
X560871Y388070D01*
X561623Y388647D01*
X562200Y389399D01*
X562562Y390275D01*
X562686Y391214D01*
X562562Y392154D01*
X562200Y393030D01*
X561623Y393782D01*
X560871Y394359D01*
X559995Y394722D01*
X559055Y394845D01*
D02*
G37*
G36*
X544913D02*
X543973Y394722D01*
X543097Y394359D01*
X542345Y393782D01*
X541768Y393030D01*
X541406Y392154D01*
X541282Y391214D01*
X541406Y390275D01*
X541768Y389399D01*
X542345Y388647D01*
X543097Y388070D01*
X543973Y387707D01*
X544913Y387583D01*
X545853Y387707D01*
X546728Y388070D01*
X547480Y388647D01*
X548058Y389399D01*
X548420Y390275D01*
X548544Y391214D01*
X548420Y392154D01*
X548058Y393030D01*
X547480Y393782D01*
X546728Y394359D01*
X545853Y394722D01*
X544913Y394845D01*
D02*
G37*
G36*
X600394Y386483D02*
X599620Y386381D01*
X598900Y386083D01*
X598281Y385608D01*
X597806Y384989D01*
X597508Y384268D01*
X597406Y383495D01*
X597508Y382722D01*
X597806Y382001D01*
X598281Y381382D01*
X598900Y380908D01*
X599620Y380609D01*
X600394Y380507D01*
X601167Y380609D01*
X601888Y380908D01*
X602506Y381382D01*
X602981Y382001D01*
X603280Y382722D01*
X603381Y383495D01*
X603280Y384268D01*
X602981Y384989D01*
X602506Y385608D01*
X601888Y386083D01*
X601167Y386381D01*
X600394Y386483D01*
D02*
G37*
G36*
X623133Y372981D02*
X622438Y372842D01*
X621849Y372449D01*
X621455Y371860D01*
X621317Y371165D01*
X621455Y370470D01*
X621502Y370400D01*
Y369379D01*
X620533D01*
Y367410D01*
X618875D01*
X618805Y367456D01*
X618110Y367595D01*
X617415Y367456D01*
X616826Y367063D01*
X616433Y366474D01*
X616294Y365779D01*
X616433Y365084D01*
X616826Y364495D01*
X617415Y364101D01*
X618110Y363963D01*
X618805Y364101D01*
X618875Y364147D01*
X620533D01*
Y362179D01*
X621502D01*
Y359162D01*
X620512D01*
Y355922D01*
X620512Y355600D01*
X620512Y355218D01*
X620159Y354864D01*
X618503D01*
X618034Y354771D01*
X617637Y354506D01*
X615340Y352208D01*
X615074Y351811D01*
X614981Y351343D01*
Y346120D01*
X613605D01*
Y338920D01*
X618805D01*
Y346120D01*
X617428D01*
Y350836D01*
X619009Y352417D01*
X620512D01*
Y351859D01*
X625649D01*
Y355100D01*
X625649Y355422D01*
X625649Y355922D01*
Y359162D01*
X624764D01*
Y362179D01*
X625733D01*
Y369379D01*
X624764D01*
Y370400D01*
X624811Y370470D01*
X624949Y371165D01*
X624811Y371860D01*
X624417Y372449D01*
X623828Y372842D01*
X623133Y372981D01*
D02*
G37*
G36*
X587339Y367506D02*
X586155Y367350D01*
X585051Y366893D01*
X584103Y366166D01*
X583376Y365218D01*
X582919Y364114D01*
X582763Y362930D01*
X582919Y361746D01*
X583376Y360642D01*
X584103Y359694D01*
X585051Y358967D01*
X586155Y358510D01*
X587339Y358354D01*
X588524Y358510D01*
X589627Y358967D01*
X590575Y359694D01*
X591302Y360642D01*
X591760Y361746D01*
X591916Y362930D01*
X591760Y364114D01*
X591302Y365218D01*
X590575Y366166D01*
X589627Y366893D01*
X588524Y367350D01*
X587339Y367506D01*
D02*
G37*
G36*
X516629D02*
X515444Y367350D01*
X514341Y366893D01*
X513393Y366166D01*
X512666Y365218D01*
X512209Y364114D01*
X512053Y362930D01*
X512209Y361746D01*
X512666Y360642D01*
X513393Y359694D01*
X514341Y358967D01*
X515444Y358510D01*
X516629Y358354D01*
X517813Y358510D01*
X518917Y358967D01*
X519865Y359694D01*
X520592Y360642D01*
X521049Y361746D01*
X521205Y362930D01*
X521049Y364114D01*
X520592Y365218D01*
X519865Y366166D01*
X518917Y366893D01*
X517813Y367350D01*
X516629Y367506D01*
D02*
G37*
G36*
X501968Y360170D02*
X501273Y360032D01*
X500684Y359638D01*
X500291Y359049D01*
X500152Y358354D01*
X500291Y357659D01*
X500684Y357070D01*
X501273Y356676D01*
X501968Y356538D01*
X502664Y356676D01*
X503253Y357070D01*
X503646Y357659D01*
X503785Y358354D01*
X503646Y359049D01*
X503253Y359638D01*
X502664Y360032D01*
X501968Y360170D01*
D02*
G37*
G36*
X497244Y360084D02*
X496549Y359946D01*
X495960Y359552D01*
X495566Y358963D01*
X495428Y358268D01*
X495566Y357573D01*
X495960Y356984D01*
X496549Y356590D01*
X497244Y356452D01*
X497939Y356590D01*
X498528Y356984D01*
X498922Y357573D01*
X499060Y358268D01*
X498922Y358963D01*
X498528Y359552D01*
X497939Y359946D01*
X497244Y360084D01*
D02*
G37*
G36*
X493004D02*
X492309Y359946D01*
X491720Y359552D01*
X491326Y358963D01*
X491188Y358268D01*
X491326Y357573D01*
X491720Y356984D01*
X492309Y356590D01*
X493004Y356452D01*
X493699Y356590D01*
X494288Y356984D01*
X494682Y357573D01*
X494820Y358268D01*
X494682Y358963D01*
X494288Y359552D01*
X493699Y359946D01*
X493004Y360084D01*
D02*
G37*
G36*
X636476Y359162D02*
X631339D01*
Y355922D01*
X631339Y355600D01*
X631339Y355100D01*
Y352182D01*
X631339Y351859D01*
X631339Y351359D01*
Y348119D01*
X632684D01*
Y344793D01*
X630699D01*
Y340246D01*
X635246D01*
Y344793D01*
X635131D01*
Y348119D01*
X636476D01*
Y351359D01*
X636476Y351682D01*
X636476Y352063D01*
X636829Y352417D01*
X637979D01*
X640083Y350313D01*
X639876Y349813D01*
X639459D01*
Y345266D01*
X644006D01*
Y349813D01*
X642956D01*
Y350394D01*
X642863Y350862D01*
X642597Y351259D01*
X640548Y353309D01*
X640794Y353769D01*
X641060Y353717D01*
X645365D01*
Y352943D01*
X646229D01*
Y349813D01*
X645365D01*
Y345266D01*
X649911D01*
Y349813D01*
X648675D01*
Y352943D01*
X649911D01*
Y353902D01*
X653036D01*
X654288Y352651D01*
Y351088D01*
X651912D01*
Y345888D01*
X659112D01*
Y351088D01*
X656735D01*
Y353157D01*
X656642Y353626D01*
X656377Y354023D01*
X654408Y355991D01*
X654011Y356256D01*
X653543Y356349D01*
X649911D01*
Y357490D01*
X645365D01*
Y356164D01*
X641567D01*
X639484Y358246D01*
X639087Y358511D01*
X638619Y358604D01*
X636476D01*
Y359162D01*
D02*
G37*
G36*
X665659Y349813D02*
X661112D01*
Y345266D01*
X665659D01*
Y349813D01*
D02*
G37*
G36*
X644006Y343710D02*
X639459D01*
Y339164D01*
X644006D01*
Y343710D01*
D02*
G37*
G36*
X602667Y342761D02*
X598120D01*
Y338215D01*
X602667D01*
Y342761D01*
D02*
G37*
G36*
X649911Y343710D02*
X645365D01*
Y339164D01*
X646414D01*
Y337317D01*
X646507Y336849D01*
X646773Y336452D01*
X647476Y335749D01*
X647872Y335484D01*
X648341Y335391D01*
X658563D01*
X659031Y335484D01*
X659428Y335749D01*
X662843Y339164D01*
X665659D01*
Y343710D01*
X661112D01*
Y340894D01*
X659574Y339355D01*
X659112Y339547D01*
Y343088D01*
X651912D01*
Y337888D01*
X651433Y337838D01*
X648861D01*
Y339164D01*
X649911D01*
Y343710D01*
D02*
G37*
G36*
X610805Y346120D02*
X605605D01*
Y338920D01*
X606981D01*
Y337317D01*
X607074Y336849D01*
X607340Y336452D01*
X608042Y335749D01*
X608439Y335484D01*
X608908Y335391D01*
X625464D01*
X625932Y335484D01*
X626329Y335749D01*
X627735Y337155D01*
X628000Y337552D01*
X628093Y338020D01*
Y340246D01*
X629143D01*
Y344793D01*
X624597D01*
Y340246D01*
X625646D01*
Y338527D01*
X624957Y337838D01*
X609428D01*
Y338920D01*
X610805D01*
Y346120D01*
D02*
G37*
G36*
X492126Y341127D02*
X491353Y341026D01*
X490632Y340727D01*
X490013Y340252D01*
X489538Y339634D01*
X489240Y338913D01*
X489138Y338140D01*
X489240Y337366D01*
X489538Y336646D01*
X490013Y336027D01*
X490632Y335552D01*
X491353Y335254D01*
X492126Y335152D01*
X492899Y335254D01*
X493620Y335552D01*
X494239Y336027D01*
X494713Y336646D01*
X495012Y337366D01*
X495114Y338140D01*
X495012Y338913D01*
X494713Y339634D01*
X494239Y340252D01*
X493620Y340727D01*
X492899Y341026D01*
X492126Y341127D01*
D02*
G37*
G36*
X559055Y338277D02*
X558115Y338153D01*
X557240Y337790D01*
X556488Y337213D01*
X555910Y336461D01*
X555548Y335585D01*
X555424Y334646D01*
X555548Y333706D01*
X555910Y332830D01*
X556488Y332078D01*
X557240Y331501D01*
X558115Y331138D01*
X559055Y331015D01*
X559995Y331138D01*
X560871Y331501D01*
X561623Y332078D01*
X562200Y332830D01*
X562562Y333706D01*
X562686Y334646D01*
X562562Y335585D01*
X562200Y336461D01*
X561623Y337213D01*
X560871Y337790D01*
X559995Y338153D01*
X559055Y338277D01*
D02*
G37*
G36*
X544913D02*
X543973Y338153D01*
X543097Y337790D01*
X542345Y337213D01*
X541768Y336461D01*
X541406Y335585D01*
X541282Y334646D01*
X541406Y333706D01*
X541768Y332830D01*
X542345Y332078D01*
X543097Y331501D01*
X543973Y331138D01*
X544913Y331015D01*
X545853Y331138D01*
X546728Y331501D01*
X547480Y332078D01*
X548058Y332830D01*
X548420Y333706D01*
X548544Y334646D01*
X548420Y335585D01*
X548058Y336461D01*
X547480Y337213D01*
X546728Y337790D01*
X545853Y338153D01*
X544913Y338277D01*
D02*
G37*
G36*
X596457Y333697D02*
X595683Y333595D01*
X594963Y333296D01*
X594344Y332821D01*
X593869Y332203D01*
X593571Y331482D01*
X593469Y330709D01*
X593571Y329935D01*
X593869Y329215D01*
X594344Y328596D01*
X594963Y328121D01*
X595683Y327823D01*
X596457Y327721D01*
X597230Y327823D01*
X597951Y328121D01*
X598569Y328596D01*
X599044Y329215D01*
X599343Y329935D01*
X599444Y330709D01*
X599343Y331482D01*
X599044Y332203D01*
X598569Y332821D01*
X597951Y333296D01*
X597230Y333595D01*
X596457Y333697D01*
D02*
G37*
G36*
X647638Y333697D02*
X646865Y333595D01*
X646144Y333296D01*
X645525Y332821D01*
X645050Y332203D01*
X644752Y331482D01*
X644650Y330709D01*
X644752Y329935D01*
X645050Y329215D01*
X645525Y328596D01*
X646144Y328121D01*
X646865Y327823D01*
X647638Y327721D01*
X648411Y327823D01*
X649132Y328121D01*
X649751Y328596D01*
X650225Y329215D01*
X650524Y329935D01*
X650626Y330709D01*
X650524Y331482D01*
X650225Y332203D01*
X649751Y332821D01*
X649132Y333296D01*
X648411Y333595D01*
X647638Y333697D01*
D02*
G37*
G36*
X632494D02*
X631721Y333595D01*
X631000Y333296D01*
X630381Y332821D01*
X629907Y332203D01*
X629608Y331482D01*
X629506Y330709D01*
X629608Y329935D01*
X629907Y329215D01*
X630381Y328596D01*
X631000Y328121D01*
X631721Y327823D01*
X632494Y327721D01*
X633267Y327823D01*
X633988Y328121D01*
X634607Y328596D01*
X635081Y329215D01*
X635380Y329935D01*
X635482Y330709D01*
X635380Y331482D01*
X635081Y332203D01*
X634607Y332821D01*
X633988Y333296D01*
X633267Y333595D01*
X632494Y333697D01*
D02*
G37*
G36*
X614173Y333696D02*
X613400Y333595D01*
X612679Y333296D01*
X612061Y332821D01*
X611586Y332203D01*
X611287Y331482D01*
X611186Y330709D01*
X611287Y329935D01*
X611586Y329215D01*
X612061Y328596D01*
X612679Y328121D01*
X613400Y327823D01*
X614173Y327721D01*
X614947Y327823D01*
X615667Y328121D01*
X616286Y328596D01*
X616761Y329215D01*
X617059Y329935D01*
X617161Y330709D01*
X617059Y331482D01*
X616761Y332203D01*
X616286Y332821D01*
X615667Y333296D01*
X614947Y333595D01*
X614173Y333696D01*
D02*
G37*
G36*
X492126Y331728D02*
X491353Y331626D01*
X490632Y331328D01*
X490013Y330853D01*
X489538Y330234D01*
X489240Y329514D01*
X489138Y328740D01*
X489240Y327967D01*
X489538Y327246D01*
X490013Y326627D01*
X490632Y326153D01*
X491353Y325854D01*
X492126Y325752D01*
X492899Y325854D01*
X493620Y326153D01*
X494239Y326627D01*
X494713Y327246D01*
X495012Y327967D01*
X495114Y328740D01*
X495012Y329514D01*
X494713Y330234D01*
X494239Y330853D01*
X493620Y331328D01*
X492899Y331626D01*
X492126Y331728D01*
D02*
G37*
G36*
X551984Y331206D02*
X551044Y331082D01*
X550169Y330719D01*
X549417Y330142D01*
X548840Y329390D01*
X548477Y328515D01*
X548353Y327575D01*
X548477Y326635D01*
X548840Y325759D01*
X549417Y325007D01*
X550169Y324430D01*
X551044Y324067D01*
X551984Y323944D01*
X552924Y324067D01*
X553800Y324430D01*
X554552Y325007D01*
X555129Y325759D01*
X555491Y326635D01*
X555615Y327575D01*
X555491Y328515D01*
X555129Y329390D01*
X554552Y330142D01*
X553800Y330719D01*
X552924Y331082D01*
X551984Y331206D01*
D02*
G37*
G36*
X570752Y310826D02*
X563552D01*
Y301626D01*
X570752D01*
Y310826D01*
D02*
G37*
G36*
X18260Y279456D02*
X17333Y279334D01*
X16469Y278976D01*
X15726Y278407D01*
X15157Y277664D01*
X14799Y276800D01*
X14677Y275873D01*
X14799Y274945D01*
X15157Y274081D01*
X15726Y273339D01*
X16469Y272769D01*
X17333Y272411D01*
X18260Y272289D01*
X19188Y272411D01*
X20052Y272769D01*
X20794Y273339D01*
X21364Y274081D01*
X21722Y274945D01*
X21844Y275873D01*
X21722Y276800D01*
X21364Y277664D01*
X20794Y278407D01*
X20052Y278976D01*
X19188Y279334D01*
X18260Y279456D01*
D02*
G37*
G36*
Y269456D02*
X17333Y269334D01*
X16469Y268976D01*
X15726Y268407D01*
X15157Y267664D01*
X14799Y266800D01*
X14677Y265873D01*
X14799Y264945D01*
X15157Y264081D01*
X15726Y263339D01*
X16469Y262769D01*
X17333Y262411D01*
X18260Y262289D01*
X19188Y262411D01*
X20052Y262769D01*
X20794Y263339D01*
X21364Y264081D01*
X21722Y264945D01*
X21844Y265873D01*
X21722Y266800D01*
X21364Y267664D01*
X20794Y268407D01*
X20052Y268976D01*
X19188Y269334D01*
X18260Y269456D01*
D02*
G37*
G36*
X21813Y259425D02*
X14708D01*
Y252320D01*
X21813D01*
Y259425D01*
D02*
G37*
G36*
X655512Y268515D02*
X653851Y268351D01*
X652253Y267867D01*
X650781Y267080D01*
X649491Y266021D01*
X648432Y264731D01*
X647645Y263259D01*
X647160Y261661D01*
X646997Y260000D01*
X647160Y258339D01*
X647645Y256741D01*
X648432Y255269D01*
X649491Y253979D01*
X650781Y252920D01*
X652253Y252133D01*
X653851Y251649D01*
X655512Y251485D01*
X657173Y251649D01*
X658770Y252133D01*
X660243Y252920D01*
X661533Y253979D01*
X662592Y255269D01*
X663379Y256741D01*
X663863Y258339D01*
X664027Y260000D01*
X663863Y261661D01*
X663379Y263259D01*
X662592Y264731D01*
X661533Y266021D01*
X660243Y267080D01*
X658770Y267867D01*
X657173Y268351D01*
X655512Y268515D01*
D02*
G37*
G36*
X608268D02*
X606606Y268351D01*
X605009Y267867D01*
X603537Y267080D01*
X602247Y266021D01*
X601188Y264731D01*
X600401Y263259D01*
X599916Y261661D01*
X599753Y260000D01*
X599916Y258339D01*
X600401Y256741D01*
X601188Y255269D01*
X602247Y253979D01*
X603537Y252920D01*
X605009Y252133D01*
X606606Y251649D01*
X608268Y251485D01*
X609929Y251649D01*
X611526Y252133D01*
X612998Y252920D01*
X614289Y253979D01*
X615348Y255269D01*
X616135Y256741D01*
X616619Y258339D01*
X616783Y260000D01*
X616619Y261661D01*
X616135Y263259D01*
X615348Y264731D01*
X614289Y266021D01*
X612998Y267080D01*
X611526Y267867D01*
X609929Y268351D01*
X608268Y268515D01*
D02*
G37*
G36*
X18260Y244415D02*
X17333Y244293D01*
X16468Y243935D01*
X15726Y243366D01*
X15157Y242623D01*
X14799Y241759D01*
X14677Y240832D01*
X14799Y239904D01*
X15157Y239040D01*
X15726Y238298D01*
X16468Y237728D01*
X17333Y237370D01*
X18260Y237248D01*
X19188Y237370D01*
X20052Y237728D01*
X20794Y238298D01*
X21363Y239040D01*
X21722Y239904D01*
X21844Y240832D01*
X21722Y241759D01*
X21363Y242623D01*
X20794Y243366D01*
X20052Y243935D01*
X19188Y244293D01*
X18260Y244415D01*
D02*
G37*
G36*
X21813Y234384D02*
X14707D01*
Y227279D01*
X21813D01*
Y234384D01*
D02*
G37*
G36*
X425276Y223544D02*
X424348Y223422D01*
X423484Y223064D01*
X422742Y222494D01*
X422172Y221752D01*
X421814Y220888D01*
X421692Y219961D01*
X421814Y219033D01*
X422172Y218169D01*
X422742Y217427D01*
X423484Y216857D01*
X424348Y216499D01*
X425276Y216377D01*
X426203Y216499D01*
X427067Y216857D01*
X427809Y217427D01*
X428379Y218169D01*
X428737Y219033D01*
X428859Y219961D01*
X428737Y220888D01*
X428379Y221752D01*
X427809Y222494D01*
X427067Y223064D01*
X426203Y223422D01*
X425276Y223544D01*
D02*
G37*
G36*
X415276D02*
X414348Y223422D01*
X413484Y223064D01*
X412742Y222494D01*
X412172Y221752D01*
X411814Y220888D01*
X411692Y219961D01*
X411814Y219033D01*
X412172Y218169D01*
X412742Y217427D01*
X413484Y216857D01*
X414348Y216499D01*
X415276Y216377D01*
X416203Y216499D01*
X417067Y216857D01*
X417809Y217427D01*
X418379Y218169D01*
X418737Y219033D01*
X418859Y219961D01*
X418737Y220888D01*
X418379Y221752D01*
X417809Y222494D01*
X417067Y223064D01*
X416203Y223422D01*
X415276Y223544D01*
D02*
G37*
G36*
X185275D02*
X184348Y223422D01*
X183484Y223064D01*
X182742Y222494D01*
X182172Y221752D01*
X181814Y220888D01*
X181692Y219961D01*
X181814Y219033D01*
X182172Y218169D01*
X182742Y217427D01*
X183484Y216857D01*
X184348Y216499D01*
X185275Y216377D01*
X186203Y216499D01*
X187067Y216857D01*
X187809Y217427D01*
X188379Y218169D01*
X188737Y219033D01*
X188859Y219961D01*
X188737Y220888D01*
X188379Y221752D01*
X187809Y222494D01*
X187067Y223064D01*
X186203Y223422D01*
X185275Y223544D01*
D02*
G37*
G36*
X175276D02*
X174348Y223422D01*
X173484Y223064D01*
X172742Y222494D01*
X172172Y221752D01*
X171814Y220888D01*
X171692Y219961D01*
X171814Y219033D01*
X172172Y218169D01*
X172742Y217427D01*
X173484Y216857D01*
X174348Y216499D01*
X175276Y216377D01*
X176203Y216499D01*
X177067Y216857D01*
X177809Y217427D01*
X178379Y218169D01*
X178737Y219033D01*
X178859Y219961D01*
X178737Y220888D01*
X178379Y221752D01*
X177809Y222494D01*
X177067Y223064D01*
X176203Y223422D01*
X175276Y223544D01*
D02*
G37*
G36*
X486821Y226978D02*
X473809D01*
Y213967D01*
X478698D01*
X478967Y213476D01*
X478912Y213361D01*
X478510Y213095D01*
X477815Y213233D01*
X477120Y213095D01*
X476531Y212702D01*
X476137Y212112D01*
X475999Y211417D01*
Y208071D01*
X476137Y207376D01*
X476184Y207307D01*
Y201909D01*
X476084Y201450D01*
X475684Y201450D01*
X474446D01*
Y207307D01*
X474493Y207376D01*
X474631Y208071D01*
Y211417D01*
X474493Y212112D01*
X474099Y212702D01*
X473510Y213095D01*
X472815Y213233D01*
X472120Y213095D01*
X471531Y212702D01*
X471137Y212112D01*
X470999Y211417D01*
Y208071D01*
X471137Y207376D01*
X471184Y207307D01*
Y205437D01*
X455201D01*
X454741Y205246D01*
X454551Y204787D01*
Y199721D01*
X451105D01*
X450932Y199947D01*
X450313Y200422D01*
X449592Y200721D01*
X448819Y200822D01*
X448046Y200721D01*
X447325Y200422D01*
X446706Y199947D01*
X446232Y199329D01*
X445933Y198608D01*
X445831Y197835D01*
X445933Y197061D01*
X446232Y196341D01*
X446706Y195722D01*
X447325Y195247D01*
X448046Y194949D01*
X448819Y194847D01*
X449592Y194949D01*
X450313Y195247D01*
X450932Y195722D01*
X451105Y195949D01*
X454551D01*
Y192429D01*
X454741Y191970D01*
X455201Y191779D01*
X473004D01*
X473463Y191970D01*
X473580Y192250D01*
X476084Y192250D01*
X476184Y191792D01*
Y191208D01*
X472329Y187353D01*
X454243D01*
X453618Y187229D01*
X453089Y186875D01*
X453055Y186841D01*
X452411Y186904D01*
X452315Y187048D01*
X450513Y188850D01*
X450497Y188932D01*
X450103Y189522D01*
X449514Y189915D01*
X448819Y190053D01*
X448124Y189915D01*
X447535Y189522D01*
X447141Y188932D01*
X447003Y188237D01*
X447141Y187542D01*
X447535Y186953D01*
X448124Y186560D01*
X448206Y186543D01*
X449530Y185219D01*
Y183316D01*
X445697Y179483D01*
X445343Y178954D01*
X445219Y178329D01*
Y142014D01*
X441854Y138649D01*
X419613D01*
X418989Y138525D01*
X418460Y138171D01*
X417288Y136999D01*
X416934Y136470D01*
X416810Y135846D01*
Y132378D01*
X410274D01*
X409650Y132254D01*
X409120Y131900D01*
X402725Y125504D01*
X401029Y127201D01*
X400499Y127554D01*
X399875Y127679D01*
X395017D01*
Y128647D01*
X387817D01*
Y123447D01*
X395017D01*
Y124416D01*
X399199D01*
X399943Y123672D01*
Y118837D01*
X397975D01*
Y113637D01*
X405175D01*
Y118837D01*
X403206D01*
Y121371D01*
X410950Y129115D01*
X423696D01*
X427917Y124894D01*
X428447Y124540D01*
X429071Y124416D01*
X433408D01*
Y123447D01*
X440608D01*
Y124416D01*
X443569D01*
X445219Y122765D01*
Y118837D01*
X443250D01*
Y113637D01*
X450450D01*
Y118837D01*
X448482D01*
Y123441D01*
X448357Y124065D01*
X448004Y124594D01*
X445398Y127201D01*
X444869Y127554D01*
X444244Y127679D01*
X440608D01*
Y128647D01*
X433408D01*
Y127679D01*
X429747D01*
X425525Y131900D01*
X424996Y132254D01*
X424372Y132378D01*
X420073D01*
Y135170D01*
X420289Y135386D01*
X442529D01*
X443154Y135510D01*
X443683Y135864D01*
X448004Y140185D01*
X448358Y140714D01*
X448482Y141339D01*
Y177654D01*
X452315Y181487D01*
X454918Y184090D01*
X473004D01*
X473629Y184214D01*
X474158Y184568D01*
X478319Y188728D01*
X478780Y188537D01*
Y185895D01*
X478780Y185895D01*
X478780Y185895D01*
Y183057D01*
X477442Y182981D01*
X474605Y182499D01*
X471839Y181703D01*
X469180Y180601D01*
X466662Y179209D01*
X464315Y177544D01*
X462169Y175626D01*
X460251Y173481D01*
X458586Y171134D01*
X457194Y168615D01*
X456093Y165956D01*
X455296Y163191D01*
X454814Y160354D01*
X454653Y157480D01*
X454814Y154607D01*
X455296Y151770D01*
X456093Y149005D01*
X457194Y146346D01*
X458586Y143827D01*
X460251Y141480D01*
X462169Y139334D01*
X464315Y137417D01*
X466662Y135751D01*
X469180Y134359D01*
X471839Y133258D01*
X474605Y132461D01*
X477442Y131979D01*
X480315Y131818D01*
X483188Y131979D01*
X486025Y132461D01*
X488791Y133258D01*
X491449Y134359D01*
X493968Y135751D01*
X496315Y137417D01*
X498461Y139334D01*
X500379Y141480D01*
X502044Y143827D01*
X503436Y146346D01*
X504537Y149005D01*
X505334Y151770D01*
X505816Y154607D01*
X505977Y157480D01*
X505816Y160354D01*
X505334Y163191D01*
X504537Y165956D01*
X503436Y168615D01*
X502044Y171134D01*
X500379Y173481D01*
X498461Y175626D01*
X496315Y177544D01*
X493968Y179209D01*
X491449Y180601D01*
X488791Y181703D01*
X486849Y182262D01*
Y184224D01*
X488994Y186369D01*
X491241D01*
X491760Y186153D01*
X492899Y186003D01*
X494038Y186153D01*
X495099Y186593D01*
X496010Y187292D01*
X496710Y188203D01*
X497149Y189264D01*
X497299Y190403D01*
X497228Y190947D01*
X497701Y191180D01*
X506917Y181965D01*
Y135711D01*
X503799Y132594D01*
X500254D01*
X499629Y132469D01*
X499100Y132116D01*
X494909Y127925D01*
X494556Y127396D01*
X494359Y127314D01*
X493999Y127554D01*
X493375Y127679D01*
X489506D01*
Y128647D01*
X482306D01*
Y123447D01*
X489506D01*
Y124416D01*
X492699D01*
X494432Y122684D01*
Y118837D01*
X492463D01*
Y113637D01*
X499663D01*
Y118837D01*
X497694D01*
Y123359D01*
Y126096D01*
X500929Y129331D01*
X504475D01*
X505099Y129455D01*
X505629Y129809D01*
X506455Y130635D01*
X506917Y130443D01*
Y127515D01*
X507041Y126891D01*
X507394Y126362D01*
X508862Y124894D01*
X509391Y124540D01*
X510016Y124416D01*
X527896D01*
Y123447D01*
X535096D01*
Y124416D01*
X536746D01*
X538478Y122684D01*
Y118837D01*
X537739D01*
Y113637D01*
X544939D01*
Y118837D01*
X541741D01*
Y123359D01*
X541616Y123984D01*
X541263Y124513D01*
X538575Y127201D01*
X538046Y127554D01*
X537421Y127679D01*
X535096D01*
Y128647D01*
X527896D01*
Y127679D01*
X510691D01*
X510179Y128191D01*
Y135035D01*
Y182640D01*
X510055Y183265D01*
X509701Y183794D01*
X497291Y196204D01*
X502660Y201573D01*
X502742Y201589D01*
X503331Y201983D01*
X503725Y202572D01*
X503863Y203267D01*
X503725Y203962D01*
X503331Y204551D01*
X502742Y204945D01*
X502047Y205083D01*
X501352Y204945D01*
X500763Y204551D01*
X500370Y203962D01*
X500353Y203880D01*
X494984Y198511D01*
X489446Y204049D01*
Y207307D01*
X489493Y207376D01*
X489631Y208071D01*
Y211417D01*
X489493Y212112D01*
X489099Y212702D01*
X488510Y213095D01*
X487815Y213233D01*
X487120Y213095D01*
X486718Y213361D01*
X486662Y213476D01*
X486821Y213967D01*
X486821D01*
Y226978D01*
D02*
G37*
G36*
X297844D02*
X284833D01*
Y213967D01*
X289721D01*
X289991Y213476D01*
X289936Y213361D01*
X289533Y213095D01*
X288839Y213233D01*
X288144Y213095D01*
X287554Y212702D01*
X287161Y212112D01*
X287023Y211417D01*
Y208071D01*
X287161Y207376D01*
X287207Y207307D01*
Y201839D01*
X286939Y201450D01*
X286707Y201450D01*
X285470D01*
Y207307D01*
X285516Y207376D01*
X285654Y208071D01*
Y211417D01*
X285516Y212112D01*
X285123Y212702D01*
X284534Y213095D01*
X283839Y213233D01*
X283144Y213095D01*
X282554Y212702D01*
X282161Y212112D01*
X282023Y211417D01*
Y208071D01*
X282161Y207376D01*
X282207Y207307D01*
Y205634D01*
X266224D01*
X265765Y205443D01*
X265575Y204984D01*
Y199466D01*
X261356D01*
X260987Y199947D01*
X260368Y200422D01*
X259647Y200721D01*
X258874Y200822D01*
X258101Y200721D01*
X257380Y200422D01*
X256761Y199947D01*
X256287Y199328D01*
X255988Y198608D01*
X255886Y197835D01*
X255988Y197061D01*
X256287Y196341D01*
X256761Y195722D01*
X257380Y195247D01*
X258101Y194949D01*
X258874Y194847D01*
X259647Y194949D01*
X260368Y195247D01*
X260987Y195722D01*
X261356Y196203D01*
X265575D01*
Y192626D01*
X265765Y192166D01*
X266224Y191976D01*
X284028D01*
X284487Y192166D01*
X284522Y192250D01*
X286939Y192250D01*
X287207Y191862D01*
Y188269D01*
X286991Y188053D01*
X266545D01*
X265921Y187929D01*
X265391Y187576D01*
X263987Y186171D01*
X260568Y189589D01*
X260552Y189671D01*
X260158Y190261D01*
X259569Y190654D01*
X258874Y190792D01*
X258179Y190654D01*
X257590Y190261D01*
X257196Y189671D01*
X257058Y188976D01*
X257196Y188281D01*
X257590Y187692D01*
X258179Y187299D01*
X258261Y187282D01*
X261680Y183864D01*
X259720Y181904D01*
X259366Y181375D01*
X259242Y180751D01*
Y145407D01*
X253261Y139427D01*
X217257D01*
X216633Y139302D01*
X216104Y138949D01*
X211445Y134290D01*
X211091Y133761D01*
X210967Y133137D01*
Y127033D01*
X210505Y126841D01*
X210146Y127201D01*
X209617Y127554D01*
X208992Y127679D01*
X206016D01*
Y128647D01*
X198816D01*
Y123447D01*
X206016D01*
Y124416D01*
X208316D01*
X210967Y121765D01*
Y118837D01*
X208998D01*
Y113637D01*
X216198D01*
Y118837D01*
X214230D01*
Y122441D01*
Y132461D01*
X217933Y136164D01*
X232139D01*
Y127219D01*
X232263Y126594D01*
X232616Y126065D01*
X233788Y124894D01*
X234317Y124540D01*
X234942Y124416D01*
X244432D01*
Y123447D01*
X251632D01*
Y124416D01*
X254836D01*
X256243Y123009D01*
Y118837D01*
X254274D01*
Y113637D01*
X261474D01*
Y118837D01*
X259505D01*
Y123685D01*
X259381Y124309D01*
X259028Y124839D01*
X256665Y127201D01*
X256136Y127554D01*
X255512Y127679D01*
X251632D01*
Y128647D01*
X244432D01*
Y127679D01*
X235617D01*
X235401Y127894D01*
Y136164D01*
X253937D01*
X254561Y136288D01*
X255091Y136642D01*
X262027Y143578D01*
X262381Y144107D01*
X262505Y144732D01*
Y180075D01*
X264640Y182210D01*
X267221Y184791D01*
X287667D01*
X288291Y184915D01*
X288821Y185268D01*
X289804Y186252D01*
X290304Y186045D01*
Y183563D01*
X290304Y183563D01*
X290304Y183563D01*
Y183085D01*
X288465Y182981D01*
X285628Y182499D01*
X282863Y181703D01*
X280204Y180601D01*
X277685Y179209D01*
X275338Y177544D01*
X273193Y175626D01*
X271275Y173481D01*
X269610Y171134D01*
X268217Y168615D01*
X267116Y165956D01*
X266319Y163191D01*
X265838Y160354D01*
X265676Y157480D01*
X265838Y154607D01*
X266319Y151770D01*
X267116Y149005D01*
X268217Y146346D01*
X269610Y143827D01*
X271275Y141480D01*
X273193Y139334D01*
X275338Y137417D01*
X277685Y135751D01*
X280204Y134359D01*
X282863Y133258D01*
X285628Y132461D01*
X288465Y131979D01*
X291338Y131818D01*
X294212Y131979D01*
X297049Y132461D01*
X299814Y133258D01*
X302473Y134359D01*
X304992Y135751D01*
X307339Y137417D01*
X309485Y139334D01*
X311402Y141480D01*
X313068Y143827D01*
X314460Y146346D01*
X315561Y149005D01*
X316357Y151770D01*
X316840Y154607D01*
X317001Y157480D01*
X316840Y160354D01*
X316357Y163191D01*
X315561Y165956D01*
X314460Y168615D01*
X313068Y171134D01*
X311402Y173481D01*
X309485Y175626D01*
X307339Y177544D01*
X304992Y179209D01*
X302473Y180601D01*
X299814Y181703D01*
X299022Y181931D01*
X298897Y182415D01*
X302649Y186168D01*
X303767D01*
X303767Y186168D01*
X304087Y186210D01*
X304164Y186200D01*
X305303Y186350D01*
X306364Y186789D01*
X307275Y187489D01*
X307974Y188400D01*
X308414Y189461D01*
X308564Y190600D01*
X308414Y191739D01*
X307974Y192800D01*
X307484Y193439D01*
X307861Y193769D01*
X308453Y193177D01*
X318743Y182887D01*
Y133127D01*
X310236D01*
X309612Y133003D01*
X309083Y132650D01*
X305933Y129500D01*
X305579Y128971D01*
X305455Y128346D01*
Y127033D01*
X304993Y126841D01*
X304634Y127201D01*
X304105Y127554D01*
X303481Y127679D01*
X300499D01*
Y128647D01*
X293299D01*
Y123447D01*
X300499D01*
Y124416D01*
X302805D01*
X305455Y121765D01*
Y118837D01*
X303486D01*
Y113637D01*
X310686D01*
Y118837D01*
X308718D01*
Y122441D01*
Y127671D01*
X310912Y129865D01*
X319698D01*
X324669Y124894D01*
X325199Y124540D01*
X325823Y124416D01*
X338920D01*
Y123447D01*
X346120D01*
Y124416D01*
X348557D01*
X350731Y122242D01*
Y118837D01*
X348762D01*
Y113637D01*
X355962D01*
Y118837D01*
X353994D01*
Y122917D01*
X353869Y123542D01*
X353516Y124071D01*
X350386Y127201D01*
X349857Y127554D01*
X349232Y127679D01*
X346120D01*
Y128647D01*
X338920D01*
Y127679D01*
X326499D01*
X322005Y132172D01*
Y183563D01*
X321881Y184187D01*
X321528Y184717D01*
X311238Y195007D01*
Y197710D01*
X314589Y201062D01*
X314671Y201078D01*
X315261Y201472D01*
X315654Y202061D01*
X315792Y202756D01*
X315654Y203451D01*
X315261Y204040D01*
X314671Y204434D01*
X313976Y204572D01*
X313281Y204434D01*
X312692Y204040D01*
X312299Y203451D01*
X312282Y203369D01*
X308453Y199539D01*
X308099Y199010D01*
X308073Y198878D01*
X307530Y198714D01*
X300470Y205774D01*
Y207307D01*
X300516Y207376D01*
X300655Y208071D01*
Y211417D01*
X300516Y212112D01*
X300123Y212702D01*
X299534Y213095D01*
X298838Y213233D01*
X298144Y213095D01*
X297741Y213361D01*
X297686Y213476D01*
X297844Y213967D01*
X297844D01*
Y226978D01*
D02*
G37*
G36*
X108868D02*
X95857D01*
Y213967D01*
X100745D01*
X101015Y213476D01*
X100960Y213361D01*
X100557Y213095D01*
X99862Y213233D01*
X99167Y213095D01*
X98578Y212702D01*
X98184Y212112D01*
X98046Y211417D01*
Y208071D01*
X98184Y207376D01*
X98231Y207307D01*
Y202005D01*
X98088Y201564D01*
X97731Y201564D01*
X96494D01*
Y207307D01*
X96540Y207376D01*
X96678Y208071D01*
Y211417D01*
X96540Y212112D01*
X96146Y212702D01*
X95557Y213095D01*
X94862Y213233D01*
X94167Y213095D01*
X93578Y212702D01*
X93184Y212112D01*
X93046Y211417D01*
Y208071D01*
X93184Y207376D01*
X93231Y207307D01*
Y205634D01*
X77374D01*
X76915Y205443D01*
X76724Y204984D01*
Y199466D01*
X70208D01*
X69839Y199947D01*
X69220Y200422D01*
X68499Y200721D01*
X67726Y200822D01*
X66953Y200721D01*
X66232Y200422D01*
X65613Y199947D01*
X65139Y199328D01*
X64840Y198608D01*
X64738Y197835D01*
X64840Y197061D01*
X65139Y196341D01*
X65613Y195722D01*
X66232Y195247D01*
X66953Y194949D01*
X67726Y194847D01*
X68499Y194949D01*
X69220Y195247D01*
X69839Y195722D01*
X70208Y196203D01*
X76724D01*
Y192626D01*
X76915Y192166D01*
X77374Y191976D01*
X95178D01*
X95637Y192166D01*
X95718Y192364D01*
X98088Y192364D01*
X98268Y191938D01*
Y188058D01*
X98052Y187842D01*
X79110D01*
X78486Y187718D01*
X77956Y187364D01*
X74801Y184209D01*
X69420Y189589D01*
X69404Y189671D01*
X69010Y190260D01*
X68421Y190654D01*
X67726Y190792D01*
X67031Y190654D01*
X66442Y190260D01*
X66048Y189671D01*
X65910Y188976D01*
X66048Y188281D01*
X66442Y187692D01*
X67031Y187298D01*
X67113Y187282D01*
X72494Y181902D01*
X70842Y180250D01*
X70488Y179721D01*
X70364Y179096D01*
Y141217D01*
X70148Y141001D01*
X40551D01*
X39927Y140877D01*
X39398Y140524D01*
X31411Y132537D01*
X27365D01*
X26741Y132413D01*
X26212Y132059D01*
X21268Y127115D01*
X20914Y126586D01*
X20911Y126572D01*
X20369Y126407D01*
X19114Y127662D01*
X18585Y128015D01*
X17960Y128140D01*
X16165D01*
Y129108D01*
X8965D01*
Y123908D01*
X16165D01*
Y124877D01*
X17285D01*
X20790Y121372D01*
Y118837D01*
X18821D01*
Y113637D01*
X26021D01*
Y118837D01*
X24053D01*
Y122047D01*
Y125286D01*
X28041Y129274D01*
X39088D01*
X42472Y125890D01*
X42472Y125890D01*
X43469Y124894D01*
X43998Y124540D01*
X44622Y124416D01*
X55553D01*
Y123447D01*
X62753D01*
Y124416D01*
X67050D01*
X67266Y124200D01*
Y118837D01*
X65396D01*
Y113637D01*
X72596D01*
Y118837D01*
X70529D01*
Y124876D01*
X70405Y125500D01*
X70051Y126029D01*
X68880Y127201D01*
X68350Y127554D01*
X67726Y127679D01*
X62753D01*
Y128647D01*
X55553D01*
Y127679D01*
X45298D01*
X44779Y128198D01*
X44779Y128198D01*
X40917Y132059D01*
X40388Y132413D01*
X39764Y132537D01*
X36678D01*
X36487Y132999D01*
X41227Y137739D01*
X70824D01*
X71448Y137863D01*
X71977Y138216D01*
X73149Y139388D01*
X73502Y139917D01*
X73627Y140542D01*
Y178421D01*
X75954Y180748D01*
X79786Y184580D01*
X98728D01*
X99352Y184704D01*
X99881Y185057D01*
X100954Y186130D01*
X101343Y186021D01*
X101454Y185941D01*
Y184252D01*
X101454Y184252D01*
X101454Y184252D01*
Y183092D01*
X99489Y182981D01*
X96652Y182499D01*
X93886Y181703D01*
X91228Y180601D01*
X88709Y179209D01*
X86362Y177544D01*
X84216Y175626D01*
X82298Y173481D01*
X80633Y171134D01*
X79241Y168615D01*
X78140Y165956D01*
X77343Y163191D01*
X76861Y160354D01*
X76700Y157480D01*
X76861Y154607D01*
X77343Y151770D01*
X78140Y149005D01*
X79241Y146346D01*
X80633Y143827D01*
X82298Y141480D01*
X84216Y139334D01*
X86362Y137417D01*
X88709Y135751D01*
X91228Y134359D01*
X93886Y133258D01*
X96652Y132461D01*
X99489Y131979D01*
X102362Y131818D01*
X105235Y131979D01*
X108073Y132461D01*
X110838Y133258D01*
X113497Y134359D01*
X116015Y135751D01*
X118362Y137417D01*
X120508Y139334D01*
X122426Y141480D01*
X124091Y143827D01*
X125483Y146346D01*
X126584Y149005D01*
X127381Y151770D01*
X127863Y154607D01*
X128025Y157480D01*
X127863Y160354D01*
X127381Y163191D01*
X126584Y165956D01*
X125483Y168615D01*
X124091Y171134D01*
X122426Y173481D01*
X120508Y175626D01*
X118362Y177544D01*
X116015Y179209D01*
X113497Y180601D01*
X110838Y181703D01*
X109523Y182082D01*
Y182581D01*
X110670Y183728D01*
X115734D01*
X116254Y183513D01*
X117393Y183363D01*
X118532Y183513D01*
X119593Y183952D01*
X120504Y184652D01*
X121203Y185563D01*
X121643Y186624D01*
X121793Y187763D01*
X121643Y188902D01*
X121203Y189963D01*
X120504Y190874D01*
X119593Y191573D01*
X118532Y192013D01*
X117393Y192163D01*
X116254Y192013D01*
X115734Y191797D01*
X111488D01*
Y201300D01*
X111950Y201491D01*
X121878Y191563D01*
X134195Y179245D01*
Y145548D01*
X128768Y140120D01*
X116957Y128309D01*
X116603Y127780D01*
X116479Y127156D01*
Y125513D01*
X116017Y125321D01*
X114138Y127201D01*
X113608Y127554D01*
X112984Y127679D01*
X111553D01*
Y128647D01*
X104353D01*
Y123447D01*
X111553D01*
Y124416D01*
X112308D01*
X116479Y120245D01*
Y118837D01*
X114510D01*
Y113637D01*
X121710D01*
Y118837D01*
X119741D01*
Y120921D01*
Y126480D01*
X130597Y137336D01*
X145291D01*
X150582Y132044D01*
Y127047D01*
X150613Y126890D01*
Y123447D01*
X157813D01*
Y124416D01*
X161309D01*
X161525Y124200D01*
Y118837D01*
X159786D01*
Y113637D01*
X166986D01*
Y118837D01*
X164788D01*
Y124876D01*
X164664Y125500D01*
X164310Y126029D01*
X163138Y127201D01*
X162609Y127554D01*
X161985Y127679D01*
X157813D01*
Y128647D01*
X153844D01*
Y132720D01*
X153844Y132720D01*
X153720Y133344D01*
X153366Y133874D01*
X147120Y140120D01*
X146590Y140474D01*
X145966Y140598D01*
X134513D01*
X134322Y141060D01*
X136980Y143719D01*
X137334Y144248D01*
X137458Y144872D01*
Y179921D01*
X137334Y180546D01*
X136980Y181075D01*
X124663Y193392D01*
Y197159D01*
X128566Y201062D01*
X128648Y201078D01*
X129237Y201472D01*
X129630Y202061D01*
X129769Y202756D01*
X129630Y203451D01*
X129237Y204040D01*
X128648Y204434D01*
X127953Y204572D01*
X127258Y204434D01*
X126669Y204040D01*
X126275Y203451D01*
X126259Y203369D01*
X121878Y198988D01*
X121524Y198459D01*
X121400Y197835D01*
Y197308D01*
X120938Y197117D01*
X111494Y206562D01*
Y207307D01*
X111540Y207376D01*
X111678Y208071D01*
Y211417D01*
X111540Y212112D01*
X111146Y212702D01*
X110557Y213095D01*
X109862Y213233D01*
X109167Y213095D01*
X108765Y213361D01*
X108710Y213476D01*
X108868Y213967D01*
X108868D01*
Y226978D01*
D02*
G37*
G36*
X178946Y183080D02*
X175384D01*
Y182224D01*
X170899D01*
X170899Y182224D01*
X170470Y182139D01*
X170106Y181895D01*
X170106Y181895D01*
X168925Y180714D01*
X168682Y180350D01*
X168596Y179921D01*
X168596Y179921D01*
Y177754D01*
X165192Y174350D01*
X161974D01*
X161865Y174513D01*
X161276Y174906D01*
X160581Y175044D01*
X159886Y174906D01*
X159297Y174513D01*
X158903Y173923D01*
X158765Y173228D01*
X158903Y172533D01*
X159297Y171944D01*
X159886Y171551D01*
X160581Y171412D01*
X161276Y171551D01*
X161865Y171944D01*
X161974Y172107D01*
X165657D01*
X165657Y172107D01*
X166086Y172192D01*
X166450Y172435D01*
X170511Y176497D01*
X170511Y176497D01*
X170754Y176860D01*
X170840Y177290D01*
Y179457D01*
X171364Y179981D01*
X175384D01*
Y179124D01*
X178946D01*
Y183080D01*
D02*
G37*
G36*
X365070Y182853D02*
X361508D01*
Y181996D01*
X356533D01*
X356104Y181911D01*
X355740Y181668D01*
X355740Y181668D01*
X354569Y180496D01*
X354325Y180132D01*
X354240Y179703D01*
X354240Y179703D01*
Y175208D01*
X352898Y173865D01*
X350250D01*
X350142Y174028D01*
X349553Y174422D01*
X348858Y174560D01*
X348163Y174422D01*
X347574Y174028D01*
X347180Y173439D01*
X347042Y172744D01*
X347180Y172049D01*
X347574Y171460D01*
X348163Y171066D01*
X348858Y170928D01*
X349553Y171066D01*
X350142Y171460D01*
X350250Y171622D01*
X353362D01*
X353362Y171622D01*
X353791Y171708D01*
X354155Y171951D01*
X356155Y173950D01*
X356155Y173950D01*
X356398Y174314D01*
X356483Y174743D01*
X356483Y174743D01*
Y179239D01*
X356998Y179753D01*
X361508D01*
Y178897D01*
X365070D01*
Y182853D01*
D02*
G37*
G36*
X190210Y178411D02*
X190210Y178411D01*
X175276D01*
X175276Y178411D01*
X174846Y178326D01*
X174483Y178083D01*
X174483Y178083D01*
X172632Y176232D01*
X172389Y175868D01*
X172304Y175439D01*
X171904Y175206D01*
X171644D01*
Y171250D01*
X175206D01*
Y175206D01*
X175206D01*
X175081Y175509D01*
X175740Y176168D01*
X189746D01*
X191182Y174732D01*
Y171171D01*
X190030D01*
Y166624D01*
X194576D01*
Y171171D01*
X193425D01*
Y175197D01*
X193425Y175197D01*
X193339Y175626D01*
X193096Y175990D01*
X191003Y178083D01*
X190639Y178326D01*
X190210Y178411D01*
D02*
G37*
G36*
X545947Y183366D02*
X545174Y183264D01*
X544453Y182965D01*
X543834Y182491D01*
X543360Y181872D01*
X543061Y181151D01*
X542959Y180378D01*
X543061Y179605D01*
X543360Y178884D01*
X543834Y178265D01*
X544453Y177790D01*
X545174Y177492D01*
X545947Y177390D01*
X546720Y177492D01*
X547441Y177790D01*
X548060Y178265D01*
X548534Y178884D01*
X548833Y179605D01*
X548935Y180378D01*
X548833Y181151D01*
X548534Y181872D01*
X548060Y182491D01*
X547441Y182965D01*
X546720Y183264D01*
X545947Y183366D01*
D02*
G37*
G36*
X40002Y182814D02*
X34802D01*
Y175614D01*
X40002D01*
Y182814D01*
D02*
G37*
G36*
X235198Y182309D02*
X229998D01*
Y175110D01*
X235198D01*
Y182309D01*
D02*
G37*
G36*
X199409Y179464D02*
X198636Y179362D01*
X197915Y179064D01*
X197297Y178589D01*
X196822Y177970D01*
X196523Y177250D01*
X196422Y176476D01*
X196523Y175703D01*
X196822Y174982D01*
X197297Y174364D01*
X197915Y173889D01*
X198636Y173590D01*
X199409Y173488D01*
X200183Y173590D01*
X200903Y173889D01*
X201522Y174364D01*
X201997Y174982D01*
X202295Y175703D01*
X202397Y176476D01*
X202295Y177250D01*
X201997Y177970D01*
X201522Y178589D01*
X200903Y179064D01*
X200183Y179362D01*
X199409Y179464D01*
D02*
G37*
G36*
X386911Y179236D02*
X386138Y179135D01*
X385417Y178836D01*
X384798Y178361D01*
X384324Y177743D01*
X384025Y177022D01*
X383923Y176249D01*
X384025Y175475D01*
X384324Y174755D01*
X384798Y174136D01*
X385417Y173661D01*
X386138Y173363D01*
X386911Y173261D01*
X387684Y173363D01*
X388405Y173661D01*
X389024Y174136D01*
X389498Y174755D01*
X389797Y175475D01*
X389899Y176249D01*
X389797Y177022D01*
X389498Y177743D01*
X389024Y178361D01*
X388405Y178836D01*
X387684Y179135D01*
X386911Y179236D01*
D02*
G37*
G36*
X533124Y174915D02*
X532429Y174777D01*
X531840Y174383D01*
X531446Y173794D01*
X531308Y173099D01*
X531446Y172404D01*
X531840Y171815D01*
X532429Y171422D01*
X533124Y171283D01*
X533819Y171422D01*
X534408Y171815D01*
X534517Y171978D01*
X540426D01*
Y170440D01*
X543988D01*
Y174396D01*
X540426D01*
Y174221D01*
X534517D01*
X534408Y174383D01*
X533819Y174777D01*
X533124Y174915D01*
D02*
G37*
G36*
X559309Y169801D02*
X559309Y169801D01*
X542603D01*
X542603Y169801D01*
X542174Y169716D01*
X541810Y169473D01*
X538859Y166522D01*
X536686D01*
Y162566D01*
X540248D01*
Y164739D01*
X543068Y167558D01*
X558844D01*
X561930Y164473D01*
Y159451D01*
X560778D01*
Y154904D01*
X565324D01*
Y159451D01*
X564173D01*
Y164937D01*
X564173Y164937D01*
X564087Y165367D01*
X563844Y165731D01*
X563844Y165731D01*
X560102Y169473D01*
X559738Y169716D01*
X559309Y169801D01*
D02*
G37*
G36*
X566578Y174405D02*
X565805Y174303D01*
X565084Y174005D01*
X564466Y173530D01*
X563991Y172911D01*
X563692Y172191D01*
X563590Y171417D01*
X563692Y170644D01*
X563991Y169923D01*
X564466Y169305D01*
X565084Y168830D01*
X565805Y168531D01*
X566578Y168430D01*
X567351Y168531D01*
X568072Y168830D01*
X568691Y169305D01*
X569166Y169923D01*
X569464Y170644D01*
X569566Y171417D01*
X569464Y172191D01*
X569166Y172911D01*
X568691Y173530D01*
X568072Y174005D01*
X567351Y174303D01*
X566578Y174405D01*
D02*
G37*
G36*
X375984Y177370D02*
X375984Y177370D01*
X362797D01*
X362368Y177285D01*
X362004Y177042D01*
X362004Y177042D01*
X359941Y174979D01*
X357768D01*
Y171023D01*
X361330D01*
Y173196D01*
X363261Y175127D01*
X364809D01*
X365248Y174979D01*
X365248Y174627D01*
Y171023D01*
X365908D01*
Y169291D01*
X365908Y169291D01*
X365993Y168862D01*
X366236Y168498D01*
X366937Y167797D01*
X366937Y167797D01*
X367301Y167554D01*
X367730Y167468D01*
X367731Y167468D01*
X369698D01*
Y166317D01*
X370850D01*
Y159614D01*
X370133Y158897D01*
X369584Y159045D01*
X369552Y159102D01*
X369621Y159449D01*
X369529Y159913D01*
X369265Y160307D01*
X368872Y160570D01*
X368407Y160663D01*
X364273D01*
X363809Y160570D01*
X351960D01*
X350126Y162404D01*
X350164Y162596D01*
X350026Y163291D01*
X349632Y163880D01*
X349043Y164274D01*
X348348Y164412D01*
X347653Y164274D01*
X347064Y163880D01*
X346955Y163718D01*
X342044D01*
X341935Y163880D01*
X341346Y164274D01*
X340651Y164412D01*
X339956Y164274D01*
X339367Y163880D01*
X338973Y163291D01*
X338835Y162596D01*
X338973Y161901D01*
X339367Y161312D01*
X339956Y160918D01*
X340651Y160780D01*
X341346Y160918D01*
X341935Y161312D01*
X342044Y161475D01*
X346955D01*
X347064Y161312D01*
X347653Y160918D01*
X348348Y160780D01*
X348540Y160818D01*
X350702Y158656D01*
X350702Y158656D01*
X351066Y158413D01*
X351495Y158327D01*
X353646D01*
X353783Y157884D01*
X353783D01*
Y152684D01*
X360983D01*
Y154390D01*
X362852D01*
X363128Y153890D01*
X363059Y153543D01*
X363152Y153079D01*
X363415Y152685D01*
X363809Y152422D01*
X364273Y152330D01*
X368407D01*
X368871Y152422D01*
X370132D01*
X371397Y151158D01*
Y147715D01*
X370245D01*
Y146563D01*
X366031D01*
X365876Y146936D01*
X365402Y147554D01*
X364783Y148029D01*
X364062Y148328D01*
X363289Y148430D01*
X362516Y148328D01*
X361795Y148029D01*
X361176Y147554D01*
X360701Y146936D01*
X360403Y146215D01*
X360301Y145442D01*
X360403Y144668D01*
X360701Y143948D01*
X361176Y143329D01*
X361795Y142854D01*
X362516Y142556D01*
X363289Y142454D01*
X364062Y142556D01*
X364783Y142854D01*
X365402Y143329D01*
X365876Y143948D01*
X366031Y144320D01*
X370245D01*
Y143168D01*
X371397D01*
Y134553D01*
X367708D01*
Y129353D01*
X374908D01*
Y134553D01*
X373640D01*
Y143168D01*
X374792D01*
Y147715D01*
X373640D01*
Y151622D01*
X373640Y151622D01*
X373554Y152051D01*
X373311Y152415D01*
X373311Y152415D01*
X371390Y154337D01*
X371026Y154580D01*
X370597Y154665D01*
X370597Y154665D01*
X369829D01*
X369552Y155165D01*
X369621Y155512D01*
X369552Y155859D01*
X369829Y156359D01*
X370302D01*
X370303Y156359D01*
X370732Y156444D01*
X371095Y156687D01*
X372764Y158356D01*
X373007Y158720D01*
X373093Y159149D01*
X373093Y159149D01*
Y166317D01*
X374244D01*
Y170863D01*
X369698D01*
Y169711D01*
X368195D01*
X368151Y169756D01*
Y171023D01*
X368810D01*
X368810Y174979D01*
X369249Y175127D01*
X375520D01*
X376952Y173695D01*
Y170863D01*
X375800D01*
Y166317D01*
X380347D01*
Y170863D01*
X379195D01*
Y174160D01*
X379195Y174160D01*
X379110Y174589D01*
X378866Y174953D01*
X376777Y177042D01*
X376413Y177285D01*
X375984Y177370D01*
D02*
G37*
G36*
X210115Y167824D02*
X205569D01*
Y163278D01*
X210115D01*
Y167824D01*
D02*
G37*
G36*
X396665Y167596D02*
X392118D01*
Y163050D01*
X396665D01*
Y167596D01*
D02*
G37*
G36*
X401327Y179197D02*
X400553Y179095D01*
X399833Y178797D01*
X399214Y178322D01*
X398739Y177703D01*
X398441Y176982D01*
X398339Y176209D01*
X398441Y175436D01*
X398739Y174715D01*
X399214Y174096D01*
X399833Y173621D01*
X400144Y173493D01*
Y167571D01*
X398992D01*
Y163025D01*
X403539D01*
Y167571D01*
X402387D01*
Y173442D01*
X402820Y173621D01*
X403439Y174096D01*
X403914Y174715D01*
X404212Y175436D01*
X404314Y176209D01*
X404212Y176982D01*
X403914Y177703D01*
X403439Y178322D01*
X402820Y178797D01*
X402100Y179095D01*
X401327Y179197D01*
D02*
G37*
G36*
X182687Y175206D02*
X179124D01*
Y171250D01*
X179784D01*
Y169483D01*
X179784Y169483D01*
X179869Y169054D01*
X180113Y168690D01*
X180698Y168105D01*
X180698Y168105D01*
X181062Y167861D01*
X181491Y167776D01*
X183928D01*
Y166624D01*
X185079D01*
Y160838D01*
X183676Y159435D01*
X183650Y159436D01*
X183166Y159632D01*
X183109Y159913D01*
X182846Y160307D01*
X182452Y160570D01*
X181988Y160663D01*
X177854D01*
X177390Y160570D01*
X164456D01*
X162395Y162632D01*
X162433Y162824D01*
X162294Y163519D01*
X161901Y164108D01*
X161312Y164502D01*
X160617Y164640D01*
X159922Y164502D01*
X159333Y164108D01*
X159248Y163981D01*
X154092D01*
X153983Y164144D01*
X153394Y164537D01*
X152699Y164675D01*
X152004Y164537D01*
X151415Y164144D01*
X151022Y163555D01*
X150883Y162859D01*
X151022Y162165D01*
X151415Y161575D01*
X152004Y161182D01*
X152699Y161044D01*
X153394Y161182D01*
X153983Y161575D01*
X154092Y161738D01*
X159200D01*
X159333Y161540D01*
X159922Y161146D01*
X160617Y161008D01*
X160809Y161046D01*
X163199Y158656D01*
X163199Y158656D01*
X163562Y158413D01*
X163992Y158327D01*
X163992Y158327D01*
X165707D01*
X166118Y158112D01*
Y152912D01*
X173318D01*
Y154390D01*
X176433D01*
X176709Y153890D01*
X176640Y153543D01*
X176733Y153079D01*
X176996Y152685D01*
X177390Y152422D01*
X177854Y152329D01*
X181988D01*
X182452Y152422D01*
X183041D01*
X184352Y151110D01*
Y147943D01*
X183356D01*
Y146791D01*
X180005D01*
X179851Y147163D01*
X179376Y147782D01*
X178758Y148257D01*
X178037Y148555D01*
X177264Y148657D01*
X176490Y148555D01*
X175770Y148257D01*
X175151Y147782D01*
X174676Y147163D01*
X174378Y146443D01*
X174276Y145669D01*
X174378Y144896D01*
X174676Y144176D01*
X175151Y143557D01*
X175770Y143082D01*
X176490Y142783D01*
X177264Y142682D01*
X178037Y142783D01*
X178758Y143082D01*
X179376Y143557D01*
X179851Y144176D01*
X180005Y144548D01*
X183356D01*
Y143396D01*
X184508D01*
Y133647D01*
X180778D01*
Y128447D01*
X187978D01*
Y133647D01*
X186751D01*
Y143396D01*
X187903D01*
Y147943D01*
X186595D01*
Y151575D01*
X186595Y151575D01*
X186510Y152004D01*
X186267Y152368D01*
X186267Y152368D01*
X184298Y154336D01*
X183934Y154579D01*
X183505Y154665D01*
X183505Y154665D01*
X183410D01*
X183133Y155165D01*
X183202Y155512D01*
X183133Y155859D01*
X183223Y156117D01*
X183438Y156385D01*
X183736Y156444D01*
X184100Y156687D01*
X186994Y159581D01*
X187237Y159945D01*
X187322Y160374D01*
X187322Y160374D01*
Y166624D01*
X188474D01*
Y171171D01*
X183928D01*
Y170019D01*
X182027D01*
Y171250D01*
X182687D01*
Y175206D01*
D02*
G37*
G36*
X199508Y162631D02*
X195374D01*
X194909Y162539D01*
X194516Y162276D01*
X194253Y161882D01*
X194160Y161417D01*
X194253Y160953D01*
X194354Y160801D01*
X194474Y160433D01*
X194354Y160065D01*
X194253Y159913D01*
X194160Y159449D01*
X194253Y158984D01*
X194516Y158590D01*
Y158339D01*
X194253Y157945D01*
X194160Y157480D01*
X194253Y157016D01*
X194354Y156864D01*
X194474Y156496D01*
X194354Y156129D01*
X194253Y155976D01*
X194160Y155512D01*
X194229Y155165D01*
X193953Y154665D01*
X193701D01*
X193701Y154665D01*
X193271Y154579D01*
X192908Y154336D01*
X192908Y154336D01*
X190939Y152368D01*
X190696Y152004D01*
X190611Y151575D01*
X190611Y151575D01*
Y147943D01*
X189459D01*
Y143396D01*
X190611D01*
Y133647D01*
X189313D01*
Y128447D01*
X196513D01*
Y133647D01*
X192854D01*
Y143396D01*
X194005D01*
Y144548D01*
X198144D01*
X198298Y144176D01*
X198773Y143557D01*
X199392Y143082D01*
X200112Y142783D01*
X200886Y142682D01*
X201659Y142783D01*
X202379Y143082D01*
X202998Y143557D01*
X203473Y144176D01*
X203772Y144896D01*
X203873Y145669D01*
X203772Y146443D01*
X203473Y147163D01*
X202998Y147782D01*
X202379Y148257D01*
X201659Y148555D01*
X200886Y148657D01*
X200112Y148555D01*
X199392Y148257D01*
X198773Y147782D01*
X198298Y147163D01*
X198144Y146791D01*
X194005D01*
Y147943D01*
X192854D01*
Y151110D01*
X194165Y152422D01*
X194910D01*
X195374Y152329D01*
X199508D01*
X199972Y152422D01*
X200366Y152685D01*
X200629Y153079D01*
X200722Y153543D01*
X200673Y153788D01*
X200997Y154288D01*
X213768D01*
X214236Y154382D01*
X214633Y154647D01*
X215432Y155446D01*
X215697Y155843D01*
X215790Y156311D01*
Y157176D01*
X216840D01*
Y161722D01*
X212294D01*
Y157176D01*
X212294D01*
X212149Y156735D01*
X210260D01*
X210115Y157176D01*
X210115D01*
Y161722D01*
X205569D01*
Y160672D01*
X200997D01*
X200673Y161172D01*
X200722Y161417D01*
X200629Y161882D01*
X200366Y162276D01*
X199972Y162539D01*
X199508Y162631D01*
D02*
G37*
G36*
X385927Y162631D02*
X381793D01*
X381328Y162539D01*
X380935Y162276D01*
X380671Y161882D01*
X380579Y161417D01*
X380671Y160953D01*
X380935Y160559D01*
Y160307D01*
X380671Y159913D01*
X380579Y159449D01*
X380671Y158984D01*
X380773Y158832D01*
X380893Y158465D01*
X380773Y158097D01*
X380671Y157945D01*
X380579Y157480D01*
X380671Y157016D01*
X380935Y156622D01*
Y156370D01*
X380671Y155976D01*
X380579Y155512D01*
X380648Y155165D01*
X380616Y155034D01*
X380487Y154808D01*
X380349Y154630D01*
X380097Y154580D01*
X379733Y154337D01*
X379733Y154337D01*
X377828Y152431D01*
X377585Y152067D01*
X377499Y151638D01*
X377499Y151638D01*
Y147715D01*
X376347D01*
Y143168D01*
X377418D01*
Y138030D01*
X377418Y138030D01*
X377503Y137601D01*
X377512Y137587D01*
Y134553D01*
X376321D01*
Y129353D01*
X383521D01*
Y134553D01*
X379755D01*
Y137935D01*
X379755Y137935D01*
X379670Y138365D01*
X379661Y138378D01*
Y143168D01*
X380894D01*
Y144320D01*
X384169D01*
X384324Y143948D01*
X384798Y143329D01*
X385417Y142854D01*
X386138Y142556D01*
X386911Y142454D01*
X387684Y142556D01*
X388405Y142854D01*
X389024Y143329D01*
X389498Y143948D01*
X389797Y144668D01*
X389899Y145442D01*
X389797Y146215D01*
X389498Y146936D01*
X389024Y147554D01*
X388405Y148029D01*
X387684Y148328D01*
X386911Y148430D01*
X386138Y148328D01*
X385417Y148029D01*
X384798Y147554D01*
X384324Y146936D01*
X384169Y146563D01*
X380894D01*
Y147715D01*
X379742D01*
Y151174D01*
X380991Y152422D01*
X381329D01*
X381793Y152330D01*
X385927D01*
X386391Y152422D01*
X386785Y152685D01*
X387048Y153079D01*
X387140Y153543D01*
X387071Y153890D01*
X387348Y154390D01*
X400679D01*
X400679Y154390D01*
X401109Y154476D01*
X401473Y154719D01*
X402058Y155305D01*
X402058Y155305D01*
X402301Y155668D01*
X402387Y156098D01*
Y156922D01*
X403539D01*
Y161469D01*
X398992D01*
Y156922D01*
X398612Y156633D01*
X397034D01*
X396665Y156948D01*
Y161494D01*
X392118D01*
Y160570D01*
X387348D01*
X387071Y161070D01*
X387140Y161417D01*
X387048Y161882D01*
X386785Y162276D01*
X386391Y162539D01*
X385927Y162631D01*
D02*
G37*
G36*
X214567Y148657D02*
X213794Y148555D01*
X213073Y148257D01*
X212454Y147782D01*
X211979Y147163D01*
X211681Y146442D01*
X211579Y145669D01*
X211681Y144896D01*
X211979Y144175D01*
X212454Y143556D01*
X213073Y143082D01*
X213794Y142783D01*
X214567Y142681D01*
X215340Y142783D01*
X216061Y143082D01*
X216680Y143556D01*
X217154Y144175D01*
X217453Y144896D01*
X217555Y145669D01*
X217453Y146442D01*
X217154Y147163D01*
X216680Y147782D01*
X216061Y148257D01*
X215340Y148555D01*
X214567Y148657D01*
D02*
G37*
G36*
X400153Y148366D02*
X399380Y148265D01*
X398659Y147966D01*
X398041Y147491D01*
X397566Y146873D01*
X397267Y146152D01*
X397165Y145379D01*
X397267Y144605D01*
X397566Y143885D01*
X398041Y143266D01*
X398659Y142791D01*
X399380Y142493D01*
X400153Y142391D01*
X400926Y142493D01*
X401647Y142791D01*
X402266Y143266D01*
X402741Y143885D01*
X403039Y144605D01*
X403141Y145379D01*
X403039Y146152D01*
X402741Y146873D01*
X402266Y147491D01*
X401647Y147966D01*
X400926Y148265D01*
X400153Y148366D01*
D02*
G37*
G36*
X16165Y121108D02*
X8965D01*
Y115908D01*
X11444D01*
Y111298D01*
X11374D01*
Y107538D01*
X13756D01*
Y111298D01*
X13687D01*
Y115908D01*
X16165D01*
Y121108D01*
D02*
G37*
G36*
X535096Y120647D02*
X527896D01*
Y115447D01*
X530375D01*
Y110836D01*
X530306D01*
Y107077D01*
X532687D01*
Y110836D01*
X532618D01*
Y115447D01*
X535096D01*
Y120647D01*
D02*
G37*
G36*
X489506D02*
X482306D01*
Y115447D01*
X484784D01*
Y110836D01*
X484715D01*
Y107077D01*
X487096D01*
Y110836D01*
X487027D01*
Y115447D01*
X489506D01*
Y120647D01*
D02*
G37*
G36*
X440608D02*
X433408D01*
Y115447D01*
X435886D01*
Y110836D01*
X435817D01*
Y107077D01*
X438199D01*
Y110836D01*
X438130D01*
Y115447D01*
X440608D01*
Y120647D01*
D02*
G37*
G36*
X395017D02*
X387817D01*
Y115447D01*
X390296D01*
Y110836D01*
X390227D01*
Y107077D01*
X392608D01*
Y110836D01*
X392539D01*
Y115447D01*
X395017D01*
Y120647D01*
D02*
G37*
G36*
X346120D02*
X338920D01*
Y115447D01*
X341398D01*
Y110836D01*
X341329D01*
Y107077D01*
X343710D01*
Y110836D01*
X343641D01*
Y115447D01*
X346120D01*
Y120647D01*
D02*
G37*
G36*
X300499D02*
X293299D01*
Y115447D01*
X295808D01*
Y110836D01*
X295739D01*
Y107077D01*
X298120D01*
Y110836D01*
X298051D01*
Y115447D01*
X300499D01*
Y120647D01*
D02*
G37*
G36*
X251632D02*
X244432D01*
Y115447D01*
X246910D01*
Y110836D01*
X246841D01*
Y107077D01*
X249222D01*
Y110836D01*
X249153D01*
Y115447D01*
X251632D01*
Y120647D01*
D02*
G37*
G36*
X206016D02*
X198816D01*
Y115447D01*
X201319D01*
Y110836D01*
X201250D01*
Y107077D01*
X203631D01*
Y110836D01*
X203562D01*
Y115447D01*
X206016D01*
Y120647D01*
D02*
G37*
G36*
X157813Y120647D02*
X150613D01*
Y115447D01*
X153091D01*
Y110836D01*
X153022D01*
Y107077D01*
X155403D01*
Y110836D01*
X155334D01*
Y115447D01*
X157813D01*
Y120647D01*
D02*
G37*
G36*
X111553Y120647D02*
X104353D01*
Y115447D01*
X106831D01*
Y110836D01*
X106762D01*
Y107077D01*
X109143D01*
Y110836D01*
X109074D01*
Y115447D01*
X111553D01*
Y120647D01*
D02*
G37*
G36*
X62753Y120647D02*
X55553D01*
Y115447D01*
X58032D01*
Y110836D01*
X57963D01*
Y107077D01*
X60344D01*
Y110836D01*
X60275D01*
Y115447D01*
X62753D01*
Y120647D01*
D02*
G37*
%LPD*%
G36*
X473004Y192429D02*
X455201D01*
Y204787D01*
X473004D01*
Y192429D01*
D02*
G37*
G36*
X284028Y192626D02*
X266224D01*
Y204984D01*
X284028D01*
Y192626D01*
D02*
G37*
G36*
X95178D02*
X77374D01*
Y204984D01*
X95178D01*
Y192626D01*
D02*
G37*
%LPC*%
G36*
X274953Y283088D02*
X274179Y282986D01*
X273459Y282687D01*
X272840Y282213D01*
X272365Y281594D01*
X272067Y280873D01*
X271965Y280100D01*
X272067Y279327D01*
X272365Y278606D01*
X272840Y277987D01*
X273459Y277513D01*
X274179Y277214D01*
X274953Y277112D01*
X275726Y277214D01*
X276447Y277513D01*
X277065Y277987D01*
X277540Y278606D01*
X277839Y279327D01*
X277941Y280100D01*
X277839Y280873D01*
X277540Y281594D01*
X277065Y282213D01*
X276447Y282687D01*
X275726Y282986D01*
X274953Y283088D01*
D02*
G37*
G36*
X205276Y273743D02*
X204297Y273614D01*
X203385Y273236D01*
X202601Y272635D01*
X202000Y271851D01*
X201682Y271082D01*
X188656D01*
X188379Y271752D01*
X187809Y272494D01*
X187067Y273064D01*
X186203Y273422D01*
X185275Y273544D01*
X184348Y273422D01*
X183484Y273064D01*
X182742Y272494D01*
X182172Y271752D01*
X181814Y270888D01*
X181692Y269961D01*
X181814Y269033D01*
X182172Y268169D01*
X182742Y267427D01*
X183484Y266857D01*
X184348Y266499D01*
X185275Y266377D01*
X186203Y266499D01*
X187067Y266857D01*
X187809Y267427D01*
X188379Y268169D01*
X188656Y268839D01*
X201682D01*
X202000Y268070D01*
X202601Y267286D01*
X203385Y266685D01*
X204297Y266307D01*
X205276Y266179D01*
X206254Y266307D01*
X207167Y266685D01*
X207950Y267286D01*
X208551Y268070D01*
X208929Y268982D01*
X209057Y269961D01*
X208929Y270939D01*
X208551Y271851D01*
X207950Y272635D01*
X207167Y273236D01*
X206254Y273614D01*
X205276Y273743D01*
D02*
G37*
G36*
X289352Y281606D02*
X288657Y281468D01*
X288068Y281074D01*
X287674Y280485D01*
X287536Y279790D01*
X287674Y279095D01*
X288068Y278506D01*
X288657Y278112D01*
X289352Y277974D01*
X289544Y278012D01*
X296058Y271498D01*
X296058Y271498D01*
X296422Y271255D01*
X296851Y271169D01*
X296851Y271169D01*
X368686D01*
X368795Y271007D01*
X369384Y270613D01*
X370079Y270475D01*
X370774Y270613D01*
X371363Y271007D01*
X371757Y271596D01*
X371895Y272291D01*
X371757Y272986D01*
X371363Y273575D01*
X370774Y273969D01*
X370079Y274107D01*
X369384Y273969D01*
X368795Y273575D01*
X368686Y273412D01*
X297316D01*
X291130Y279598D01*
X291168Y279790D01*
X291030Y280485D01*
X290636Y281074D01*
X290047Y281468D01*
X289352Y281606D01*
D02*
G37*
G36*
X175276Y273544D02*
X174348Y273422D01*
X173484Y273064D01*
X172742Y272494D01*
X172172Y271752D01*
X171814Y270888D01*
X171692Y269961D01*
X171814Y269033D01*
X172172Y268169D01*
X172742Y267427D01*
X173484Y266857D01*
X174348Y266499D01*
X175276Y266377D01*
X176203Y266499D01*
X177067Y266857D01*
X177809Y267427D01*
X178379Y268169D01*
X178737Y269033D01*
X178859Y269961D01*
X178737Y270888D01*
X178379Y271752D01*
X177809Y272494D01*
X177067Y273064D01*
X176203Y273422D01*
X175276Y273544D01*
D02*
G37*
G36*
X514358Y246772D02*
Y243947D01*
X517183D01*
X517134Y244324D01*
X516795Y245142D01*
X516256Y245845D01*
X515554Y246384D01*
X514736Y246722D01*
X514358Y246772D01*
D02*
G37*
G36*
X513358D02*
X512980Y246722D01*
X512162Y246384D01*
X511460Y245845D01*
X510921Y245142D01*
X510582Y244324D01*
X510533Y243947D01*
X513358D01*
Y246772D01*
D02*
G37*
G36*
X517183Y242947D02*
X514358D01*
Y240121D01*
X514736Y240171D01*
X515554Y240510D01*
X516256Y241049D01*
X516795Y241751D01*
X517134Y242569D01*
X517183Y242947D01*
D02*
G37*
G36*
X513358D02*
X510533D01*
X510582Y242569D01*
X510921Y241751D01*
X511460Y241049D01*
X512162Y240510D01*
X512980Y240171D01*
X513358Y240121D01*
Y242947D01*
D02*
G37*
G36*
X48061Y285726D02*
X42861D01*
Y278526D01*
X48061D01*
Y285726D01*
D02*
G37*
G36*
X52578Y256722D02*
X48031D01*
Y252176D01*
X52578D01*
Y256722D01*
D02*
G37*
G36*
X44480D02*
X39934D01*
Y252176D01*
X44480D01*
Y256722D01*
D02*
G37*
G36*
X52578Y250620D02*
X48031D01*
Y246074D01*
X52578D01*
Y250620D01*
D02*
G37*
G36*
X44480D02*
X39934D01*
Y246074D01*
X44480D01*
Y250620D01*
D02*
G37*
G36*
X52961Y243624D02*
X47761D01*
Y236424D01*
X52961D01*
Y243624D01*
D02*
G37*
G36*
X44961D02*
X39761D01*
Y236424D01*
X44961D01*
Y243624D01*
D02*
G37*
G36*
X136327Y248495D02*
Y245669D01*
X139152D01*
X139102Y246047D01*
X138764Y246865D01*
X138225Y247567D01*
X137522Y248106D01*
X136705Y248445D01*
X136327Y248495D01*
D02*
G37*
G36*
X135327D02*
X134949Y248445D01*
X134131Y248106D01*
X133429Y247567D01*
X132890Y246865D01*
X132551Y246047D01*
X132501Y245669D01*
X135327D01*
Y248495D01*
D02*
G37*
G36*
X139152Y244669D02*
X136327D01*
Y241844D01*
X136705Y241894D01*
X137522Y242232D01*
X138225Y242772D01*
X138764Y243474D01*
X139102Y244292D01*
X139152Y244669D01*
D02*
G37*
G36*
X135327D02*
X132501D01*
X132551Y244292D01*
X132890Y243474D01*
X133429Y242772D01*
X134131Y242232D01*
X134949Y241894D01*
X135327Y241844D01*
Y244669D01*
D02*
G37*
G36*
X205276Y243742D02*
X204297Y243614D01*
X203385Y243236D01*
X202601Y242635D01*
X202000Y241851D01*
X201682Y241082D01*
X188656D01*
X188379Y241752D01*
X187809Y242494D01*
X187067Y243064D01*
X186203Y243422D01*
X185275Y243544D01*
X184348Y243422D01*
X183484Y243064D01*
X182742Y242494D01*
X182172Y241752D01*
X181814Y240888D01*
X181692Y239961D01*
X181814Y239033D01*
X182172Y238169D01*
X182742Y237427D01*
X183484Y236857D01*
X184348Y236499D01*
X185275Y236377D01*
X186203Y236499D01*
X187067Y236857D01*
X187809Y237427D01*
X188379Y238169D01*
X188656Y238839D01*
X201682D01*
X202000Y238070D01*
X202601Y237286D01*
X203385Y236685D01*
X204297Y236308D01*
X205276Y236179D01*
X206254Y236308D01*
X207167Y236685D01*
X207950Y237286D01*
X208551Y238070D01*
X208929Y238982D01*
X209057Y239961D01*
X208929Y240939D01*
X208551Y241851D01*
X207950Y242635D01*
X207167Y243236D01*
X206254Y243614D01*
X205276Y243742D01*
D02*
G37*
G36*
X175276Y243544D02*
X174348Y243422D01*
X173484Y243064D01*
X172742Y242494D01*
X172172Y241752D01*
X171814Y240888D01*
X171692Y239961D01*
X171814Y239033D01*
X172172Y238169D01*
X172742Y237427D01*
X173484Y236857D01*
X174348Y236499D01*
X175276Y236377D01*
X176203Y236499D01*
X177067Y236857D01*
X177809Y237427D01*
X178379Y238169D01*
X178737Y239033D01*
X178859Y239961D01*
X178737Y240888D01*
X178379Y241752D01*
X177809Y242494D01*
X177067Y243064D01*
X176203Y243422D01*
X175276Y243544D01*
D02*
G37*
G36*
X327272Y249085D02*
Y246259D01*
X330097D01*
X330047Y246637D01*
X329709Y247455D01*
X329170Y248157D01*
X328467Y248696D01*
X327649Y249035D01*
X327272Y249085D01*
D02*
G37*
G36*
X326272D02*
X325894Y249035D01*
X325076Y248696D01*
X324374Y248157D01*
X323835Y247455D01*
X323496Y246637D01*
X323446Y246259D01*
X326272D01*
Y249085D01*
D02*
G37*
G36*
X330097Y245259D02*
X327272D01*
Y242434D01*
X327649Y242484D01*
X328467Y242822D01*
X329170Y243361D01*
X329709Y244064D01*
X330047Y244882D01*
X330097Y245259D01*
D02*
G37*
G36*
X326272D02*
X323446D01*
X323496Y244882D01*
X323835Y244064D01*
X324374Y243361D01*
X325076Y242822D01*
X325894Y242484D01*
X326272Y242434D01*
Y245259D01*
D02*
G37*
G36*
X611474Y123403D02*
X604274D01*
Y118203D01*
X606753D01*
Y111647D01*
X604274D01*
Y106447D01*
X611474D01*
Y111647D01*
X608996D01*
Y118203D01*
X611474D01*
Y123403D01*
D02*
G37*
G36*
X611474Y103647D02*
X604274D01*
Y98447D01*
X611474D01*
Y103647D01*
D02*
G37*
G36*
X524606Y40727D02*
X523236Y40546D01*
X521960Y40017D01*
X520863Y39176D01*
X520022Y38080D01*
X519493Y36803D01*
X519313Y35433D01*
X519493Y34063D01*
X520022Y32787D01*
X520863Y31690D01*
X521960Y30849D01*
X523236Y30320D01*
X524606Y30140D01*
X525976Y30320D01*
X527253Y30849D01*
X528349Y31690D01*
X529190Y32787D01*
X529719Y34063D01*
X529900Y35433D01*
X529719Y36803D01*
X529190Y38080D01*
X528349Y39176D01*
X527253Y40017D01*
X525976Y40546D01*
X524606Y40727D01*
D02*
G37*
G36*
X146653D02*
X145283Y40546D01*
X144007Y40017D01*
X142911Y39176D01*
X142069Y38080D01*
X141541Y36803D01*
X141360Y35433D01*
X141541Y34063D01*
X142069Y32787D01*
X142911Y31690D01*
X144007Y30849D01*
X145283Y30320D01*
X146653Y30140D01*
X148024Y30320D01*
X149300Y30849D01*
X150397Y31690D01*
X151238Y32787D01*
X151767Y34063D01*
X151947Y35433D01*
X151767Y36803D01*
X151238Y38080D01*
X150397Y39176D01*
X149300Y40017D01*
X148024Y40546D01*
X146653Y40727D01*
D02*
G37*
G36*
X24606D02*
X23236Y40546D01*
X21960Y40017D01*
X20863Y39176D01*
X20022Y38080D01*
X19493Y36803D01*
X19313Y35433D01*
X19493Y34063D01*
X20022Y32787D01*
X20863Y31690D01*
X21960Y30849D01*
X23236Y30320D01*
X24606Y30140D01*
X25976Y30320D01*
X27253Y30849D01*
X28349Y31690D01*
X29190Y32787D01*
X29719Y34063D01*
X29900Y35433D01*
X29719Y36803D01*
X29190Y38080D01*
X28349Y39176D01*
X27253Y40017D01*
X25976Y40546D01*
X24606Y40727D01*
D02*
G37*
G36*
X217520Y39591D02*
X216150Y39410D01*
X214873Y38881D01*
X213777Y38040D01*
X212936Y36944D01*
X212407Y35667D01*
X212226Y34297D01*
X212407Y32927D01*
X212936Y31651D01*
X213777Y30554D01*
X214873Y29713D01*
X216150Y29184D01*
X217520Y29004D01*
X218890Y29184D01*
X220166Y29713D01*
X221263Y30554D01*
X222104Y31651D01*
X222633Y32927D01*
X222813Y34297D01*
X222633Y35667D01*
X222104Y36944D01*
X221263Y38040D01*
X220166Y38881D01*
X218890Y39410D01*
X217520Y39591D01*
D02*
G37*
G36*
X406496Y38971D02*
X405126Y38791D01*
X403850Y38262D01*
X402753Y37421D01*
X401912Y36325D01*
X401383Y35048D01*
X401203Y33678D01*
X401383Y32308D01*
X401912Y31032D01*
X402753Y29935D01*
X403850Y29094D01*
X405126Y28565D01*
X406496Y28385D01*
X407866Y28565D01*
X409143Y29094D01*
X410239Y29935D01*
X411080Y31032D01*
X411609Y32308D01*
X411790Y33678D01*
X411609Y35048D01*
X411080Y36325D01*
X410239Y37421D01*
X409143Y38262D01*
X407866Y38791D01*
X406496Y38971D01*
D02*
G37*
G36*
X335630D02*
X334260Y38791D01*
X332983Y38262D01*
X331887Y37421D01*
X331046Y36325D01*
X330517Y35048D01*
X330337Y33678D01*
X330517Y32308D01*
X331046Y31032D01*
X331887Y29935D01*
X332983Y29094D01*
X334260Y28565D01*
X335630Y28385D01*
X337000Y28565D01*
X338277Y29094D01*
X339373Y29935D01*
X340214Y31032D01*
X340743Y32308D01*
X340923Y33678D01*
X340743Y35048D01*
X340214Y36325D01*
X339373Y37421D01*
X338277Y38262D01*
X337000Y38791D01*
X335630Y38971D01*
D02*
G37*
%LPD*%
D12*
X468998Y306593D02*
X516242D01*
X409257Y324995D02*
X450596D01*
X468998Y306593D01*
X569665Y135035D02*
X569786Y135156D01*
X563051Y135035D02*
X569665D01*
X447933Y263779D02*
X470902D01*
X472457Y262225D01*
Y255906D02*
Y262225D01*
X447933Y272291D02*
X478180D01*
X480315Y255906D02*
Y270155D01*
X478180Y272291D02*
X480315Y270155D01*
X384380Y242431D02*
X386683Y244734D01*
X436604D01*
X443986Y252116D01*
X352057Y242431D02*
X384380D01*
X254886Y252338D02*
X342150D01*
X352057Y242431D01*
X342183Y262218D02*
X360053Y244349D01*
X377768D01*
X260357Y262218D02*
X342183D01*
X377940Y244521D02*
X378647D01*
X378838Y244712D01*
X377768Y244349D02*
X377940Y244521D01*
X395276Y239961D02*
X395704Y239532D01*
X414847D01*
X415276Y239961D01*
X485906Y98597D02*
X486609Y97894D01*
X495532D01*
X485906Y98597D02*
Y103642D01*
Y108957D02*
Y118047D01*
X531496Y108957D02*
Y118047D01*
Y99128D02*
Y103642D01*
X532199Y98425D02*
X541339D01*
X531496Y99128D02*
X532199Y98425D01*
X437008Y108957D02*
Y118047D01*
Y99128D02*
Y103642D01*
X437711Y98425D02*
X446850D01*
X437008Y99128D02*
X437711Y98425D01*
X391417Y108957D02*
Y118047D01*
X392120Y98425D02*
X401575D01*
X391417Y99128D02*
Y103642D01*
Y99128D02*
X392120Y98425D01*
X342520Y108957D02*
Y118047D01*
X343223Y98425D02*
X352362D01*
X342520Y99128D02*
X343223Y98425D01*
X342520Y99128D02*
Y103642D01*
X296929Y108957D02*
Y118017D01*
X297632Y98425D02*
X307086D01*
X296929Y99128D02*
X297632Y98425D01*
X296929Y99128D02*
Y103642D01*
X248032Y108957D02*
Y118047D01*
Y99128D02*
X248734Y98425D01*
X248032Y99128D02*
Y103642D01*
X248734Y98425D02*
X257874D01*
X202441Y108957D02*
Y118022D01*
Y99128D02*
X203144Y98425D01*
X212598D01*
X202441Y99128D02*
Y103642D01*
X13268Y98425D02*
X23622D01*
X12565Y99128D02*
X13268Y98425D01*
X12565Y99128D02*
Y104103D01*
X59153Y99128D02*
X59856Y98425D01*
X59153Y99128D02*
Y103642D01*
X59856Y98425D02*
X68898D01*
X107953Y99128D02*
Y103642D01*
Y99128D02*
X108656Y98425D01*
X118110D01*
X154213Y99128D02*
Y103642D01*
Y99128D02*
X154916Y98425D01*
X163386D01*
X154213Y108957D02*
Y118047D01*
X107953Y108957D02*
Y118047D01*
X59153Y108957D02*
Y118047D01*
X12565Y109418D02*
Y118508D01*
X226220Y356457D02*
X240357Y342320D01*
Y318631D02*
X246545Y312443D01*
X240357Y318631D02*
Y342320D01*
X246545Y312443D02*
X268522D01*
X226220Y356457D02*
Y365073D01*
X268925Y356168D02*
X332138D01*
X255770Y369323D02*
X268925Y356168D01*
X240470Y369323D02*
X255770D01*
X236221Y365073D02*
X240470Y369323D01*
X339675Y363704D02*
X347823D01*
X332138Y356168D02*
X339675Y363704D01*
X331976Y358268D02*
X349669Y375961D01*
X324218Y358268D02*
X331976D01*
X355362Y179703D02*
X356533Y180875D01*
X363289D01*
X355362Y174743D02*
Y179703D01*
X262291Y336375D02*
X268749Y342834D01*
X256376Y336375D02*
X262291D01*
X293129Y336331D02*
X304284Y347486D01*
X285414Y336331D02*
X293129D01*
X285331Y336415D02*
X285414Y336331D01*
X304284Y347486D02*
X312486D01*
X314961Y349961D01*
X349669Y375961D02*
X379035D01*
X331350Y343540D02*
X336258D01*
X338583Y341215D01*
Y336568D02*
Y341215D01*
X354331Y336331D02*
Y353205D01*
X357087Y355961D02*
X379035D01*
X354331Y353205D02*
X357087Y355961D01*
X352224Y334224D02*
X354331Y336331D01*
X340926Y334224D02*
X352224D01*
X338583Y336568D02*
X340926Y334224D01*
X379035Y355961D02*
Y355961D01*
Y355961D02*
X379035Y355961D01*
X347823Y337989D02*
Y363704D01*
X331270Y343620D02*
X331350Y343540D01*
X349985Y365865D02*
X378838D01*
X347823Y363704D02*
X349985Y365865D01*
X216328Y343540D02*
X216328Y343540D01*
X214828Y343540D02*
X216328D01*
X205276Y339961D02*
X211248D01*
X214828Y343540D01*
X375043Y307854D02*
X378844D01*
X365128Y297940D02*
X375043Y307854D01*
X343564Y297940D02*
X365128D01*
X339096Y302408D02*
X343564Y297940D01*
X378844Y307854D02*
X379035Y308046D01*
X339096Y302408D02*
Y316293D01*
X347823Y303922D02*
Y325961D01*
Y268518D02*
X351381Y264961D01*
X377768D01*
X378838Y266031D02*
Y269961D01*
X377768Y264961D02*
X378838Y266031D01*
X296851Y272291D02*
X370079D01*
X289352Y279790D02*
X296851Y272291D01*
X333308Y331077D02*
X403175D01*
X409257Y324995D01*
X321509Y279960D02*
X378838D01*
X321232Y280237D02*
X321509Y279960D01*
X274624Y349286D02*
X275028Y349690D01*
X279528Y342834D02*
Y347486D01*
X275028Y349690D02*
X277324D01*
X279528Y347486D01*
X327383Y362900D02*
X336930Y372447D01*
Y380652D01*
X403567Y375961D02*
X409567Y369961D01*
X395276Y375961D02*
X403567D01*
X409567Y369961D02*
X415276D01*
X370079Y251252D02*
X378839Y260012D01*
X381890Y263063D02*
Y323334D01*
X378839Y260012D02*
X381890Y263063D01*
X395276Y279961D02*
X415276D01*
X381890Y323334D02*
X386014Y327458D01*
X331195Y333190D02*
Y337442D01*
Y333190D02*
X333308Y331077D01*
X370079Y251231D02*
Y251252D01*
X384941Y270018D02*
Y270018D01*
Y260012D02*
Y270018D01*
X384941Y270018D02*
X384941Y270018D01*
X251727Y253589D02*
Y253589D01*
X260357Y262218D01*
X240357Y242218D02*
X251727Y253589D01*
X240357Y204904D02*
X250041Y195219D01*
X240357Y204904D02*
Y242218D01*
X250041Y167364D02*
Y195219D01*
X250000Y167323D02*
X250041Y167364D01*
X244094Y228346D02*
Y241547D01*
X254886Y252338D01*
X443986Y252116D02*
X516507D01*
X520592Y248031D01*
X401265Y165324D02*
Y176148D01*
X316526Y300000D02*
Y303612D01*
X296328Y311375D02*
X301533Y306171D01*
X313967D02*
X316526Y303612D01*
X301533Y306171D02*
X313967D01*
X395276Y335961D02*
X403073D01*
X409073Y329961D02*
X415276D01*
X403073Y335961D02*
X409073Y329961D01*
X395690Y326375D02*
X404348D01*
X410762Y319961D01*
X415276D01*
Y249961D02*
X420086Y254771D01*
X432822D02*
X441831Y263779D01*
X420086Y254771D02*
X432822D01*
X425276Y299961D02*
X438961D01*
X441831Y272291D02*
Y297091D01*
X438961Y299961D02*
X441831Y297091D01*
X331195Y337442D02*
X331270Y337517D01*
X395276Y229961D02*
X415276D01*
X395276Y249961D02*
X415276D01*
X395276Y259961D02*
X415276D01*
X395276Y269961D02*
X415276D01*
X395276Y289961D02*
X415276D01*
X395276Y325961D02*
X395690Y326375D01*
X408488Y309961D02*
X415276D01*
X402488Y315961D02*
X408488Y309961D01*
X395276Y315961D02*
X402488D01*
X409092Y339961D02*
X415276D01*
X403091Y345961D02*
X409092Y339961D01*
X395276Y345961D02*
X403091D01*
X409882Y349961D02*
X415276D01*
X403882Y355961D02*
X409882Y349961D01*
X395276Y355961D02*
X403882D01*
X408106Y359961D02*
X415276D01*
X402106Y365961D02*
X408106Y359961D01*
X395276Y365961D02*
X402106D01*
X395276Y405961D02*
X403095D01*
X409095Y399961D02*
X415276D01*
X403095Y405961D02*
X409095Y399961D01*
X395276Y395961D02*
X403252D01*
X409252Y389961D02*
X415276D01*
X403252Y395961D02*
X409252Y389961D01*
X395276Y385961D02*
X403370D01*
X409370Y379961D02*
X415276D01*
X403370Y385961D02*
X409370Y379961D01*
X185275Y229961D02*
X205276D01*
X185275Y239961D02*
X205276D01*
X185275Y249961D02*
X205276D01*
X185275Y259961D02*
X205276D01*
X185275Y269961D02*
X205276D01*
X185275Y279961D02*
X205276D01*
X185275Y299961D02*
X205276D01*
X185275Y309961D02*
X205276D01*
X185275Y319961D02*
X205276D01*
X185275Y339961D02*
X205276D01*
X185275Y349961D02*
X205276D01*
X185275Y359961D02*
X205276D01*
X523406Y145928D02*
X531496D01*
X532582Y146904D02*
X551240D01*
X531606Y145928D02*
X532582Y146904D01*
X526050Y162918D02*
Y296784D01*
Y162918D02*
X531791Y157178D01*
X547680D01*
X516242Y306593D02*
X526050Y296784D01*
X324218Y343540D02*
X331191D01*
X331270Y343620D01*
X255197Y337554D02*
X256376Y336375D01*
X255197Y337554D02*
Y341922D01*
X255197Y341922D02*
Y349286D01*
Y341922D02*
X255197Y341922D01*
X261300Y349286D02*
X268522D01*
X261300Y349286D02*
X261300Y349286D01*
X261300Y341922D02*
Y349286D01*
Y341922D02*
X261300Y341922D01*
X274851Y336561D02*
Y342834D01*
X274705Y336415D02*
X274851Y336561D01*
X280986Y341375D02*
X285370D01*
X279528Y342834D02*
X280986Y341375D01*
X296328Y311375D02*
X306630D01*
X291328Y316375D02*
X296328Y311375D01*
X285370Y316375D02*
X291328D01*
X296328D01*
X274705Y336415D02*
X285331D01*
X275711Y321452D02*
X285293D01*
X285370Y321375D01*
X324218Y336415D02*
Y343540D01*
X324218Y336415D02*
X324218Y336415D01*
X314522Y343540D02*
X318116D01*
X312357Y341375D02*
X314522Y343540D01*
X306630Y341375D02*
X312357D01*
X306630Y336375D02*
X318076D01*
X318116Y336415D01*
X275711Y321452D02*
X276914Y322656D01*
X296328Y316375D02*
X301328Y321375D01*
X306630D01*
X325421Y316560D02*
Y326375D01*
X325421Y326375D02*
X325421Y326375D01*
X306630Y326375D02*
X317421D01*
X317421Y326375D01*
X306630Y316375D02*
X317235D01*
X317421Y316560D01*
X285370Y311375D02*
X293552D01*
X300000Y300000D02*
Y304927D01*
X293552Y311375D02*
X300000Y304927D01*
X316526Y300000D02*
X320000D01*
X313051D02*
X316526D01*
X320000D02*
X320000Y300000D01*
X286930Y364500D02*
Y367927D01*
X296877Y365183D02*
Y367927D01*
X306930Y367600D02*
X312024D01*
X306930D02*
Y380652D01*
X306930Y380652D02*
X306930Y380652D01*
X316921Y381036D02*
X316930Y381046D01*
X316921Y372497D02*
Y381036D01*
X312024Y367600D02*
X316921Y372497D01*
X286930Y367927D02*
Y380651D01*
X288530Y362900D02*
X327383D01*
X297560Y364500D02*
X318863D01*
X326860Y372497D01*
Y380652D01*
X296877Y367927D02*
Y380652D01*
Y365183D02*
X297560Y364500D01*
X286930Y364500D02*
X288530Y362900D01*
X296877Y380652D02*
X296877Y380652D01*
X286930Y380652D02*
X286930Y380651D01*
X286930Y380652D02*
X286930D01*
X286930Y380652D02*
X286930Y380652D01*
X550428Y130402D02*
Y134570D01*
X556828Y135156D02*
X556949Y135035D01*
X551014Y135156D02*
X556828D01*
X550428Y134570D02*
X551014Y135156D01*
X542207Y172417D02*
Y172418D01*
X533124Y173099D02*
X541526D01*
X542207Y172418D01*
X539345Y165421D02*
X542603Y168680D01*
X559309D02*
X563051Y164937D01*
X542603Y168680D02*
X559309D01*
X563051Y157178D02*
Y164937D01*
X539148Y165421D02*
X539345D01*
X538467Y164740D02*
X539148Y165421D01*
X538467Y164543D02*
Y164740D01*
X547680Y157178D02*
X556949D01*
X545947Y158911D02*
Y164543D01*
Y158911D02*
X547680Y157178D01*
X556949Y146330D02*
Y157178D01*
X555554Y144935D02*
X556949Y146330D01*
X551240Y144935D02*
X555554D01*
X576151Y146904D02*
X576159Y146912D01*
X568760Y142966D02*
Y144935D01*
Y146904D02*
X576151D01*
X568760Y142966D02*
X573777D01*
X576100Y140644D01*
X541338Y150775D02*
X550428D01*
X551048Y142775D02*
X551240Y142966D01*
X541338Y142775D02*
X551048D01*
X550428Y150775D02*
X551240Y149963D01*
Y148872D02*
Y149963D01*
X169718Y155512D02*
X179921D01*
X357383Y155284D02*
X357611Y155512D01*
X551240Y140998D02*
X554998D01*
X556949Y139047D01*
Y135035D02*
Y139047D01*
X564601Y140998D02*
X568760D01*
X563051Y139449D02*
X564601Y140998D01*
X563051Y135035D02*
Y139449D01*
X558707Y124815D02*
X566747D01*
X556949Y126574D02*
X558707Y124815D01*
X556949Y126574D02*
Y135035D01*
X563051Y130402D02*
Y135035D01*
X564222Y129231D02*
X574161D01*
X563051Y130402D02*
X564222Y129231D01*
X574747Y124815D02*
Y128646D01*
X574161Y129231D02*
X574747Y128646D01*
X574757Y124826D02*
X575255D01*
X574747Y124815D02*
X574757Y124826D01*
X575255Y109967D02*
Y116826D01*
X575255Y116826D01*
X566246Y109967D02*
Y116826D01*
X566246Y116826D02*
X566246Y116826D01*
X576909Y70866D02*
X582677D01*
X575172Y72604D02*
X576909Y70866D01*
X575172Y72604D02*
Y83322D01*
X575255Y83405D02*
Y106505D01*
X575172Y83322D02*
X575255Y83405D01*
X566246Y102514D02*
Y106505D01*
Y102514D02*
X570866Y97894D01*
Y70866D02*
Y97894D01*
X549213Y280000D02*
X564785D01*
X548484Y273514D02*
Y279271D01*
X549213Y280000D01*
X548547Y241472D02*
Y249769D01*
X548499Y249817D02*
X548547Y249769D01*
X565089Y288124D02*
Y293715D01*
X565674Y294301D02*
X575939D01*
X565089Y293715D02*
X565674Y294301D01*
X569391Y244158D02*
X579969D01*
X556484Y273514D02*
X559055D01*
X553156D02*
X556484D01*
X563602Y244090D02*
Y254703D01*
X556547Y241472D02*
X560984D01*
X563602Y244090D01*
X569016Y287538D02*
X569602Y288124D01*
X573089D01*
X569016Y276152D02*
Y287538D01*
X567047Y274184D02*
X569016Y276152D01*
X567047Y270353D02*
Y274184D01*
X572953Y270353D02*
Y279832D01*
X570984Y262577D02*
X576398D01*
X570000Y261593D02*
X570984Y262577D01*
X563602D02*
X569016D01*
X570000Y261593D01*
X576398Y254703D02*
X581322D01*
X576398Y258640D02*
X581373D01*
X583355Y260622D01*
X576398Y264545D02*
X584320D01*
X572953Y249726D02*
Y252833D01*
X557907Y256671D02*
X563602D01*
X580302Y266514D02*
X584141Y270353D01*
X595222D01*
X557907Y258640D02*
X563602D01*
X576398Y268482D02*
Y273514D01*
X567047Y246501D02*
Y252833D01*
X576398Y256671D02*
X591130D01*
X560984Y260608D02*
X563602D01*
X576398Y266514D02*
X580302D01*
X560000Y261593D02*
X560984Y260608D01*
X560000Y261593D02*
Y272569D01*
X559055Y273514D02*
X560000Y272569D01*
X567047Y246501D02*
X569391Y244158D01*
X556547Y260000D02*
Y265197D01*
Y260000D02*
X557907Y258640D01*
X606874Y128803D02*
X607874D01*
X602188Y133489D02*
X606874Y128803D01*
X602188Y133489D02*
Y237067D01*
X595285Y243970D02*
X602188Y237067D01*
X595285Y243970D02*
Y252517D01*
X591130Y256671D02*
X595285Y252517D01*
X577398Y274514D02*
X587289D01*
X576398Y273514D02*
X577398Y274514D01*
X606874Y180378D02*
X607874D01*
X605374Y181878D02*
X606874Y180378D01*
X605374Y181878D02*
Y181878D01*
X604274Y182978D02*
X605374Y181878D01*
X604274Y182978D02*
Y238632D01*
X597487Y245419D02*
X604274Y238632D01*
X597487Y245419D02*
Y268088D01*
X595222Y270353D02*
X597487Y268088D01*
X556499Y255263D02*
X557907Y256671D01*
X556499Y249817D02*
Y255263D01*
X572953Y249726D02*
X573539Y249140D01*
X587372D01*
X588583Y247929D01*
Y243961D02*
Y247929D01*
X584320Y264545D02*
X586288Y266514D01*
X583355Y260622D02*
X587289D01*
X583402Y252622D02*
X587289D01*
X581322Y254703D02*
X583402Y252622D01*
X551984Y265197D02*
X552570Y265783D01*
Y272928D02*
X553156Y273514D01*
X548547Y265197D02*
X551984D01*
X552570Y265783D02*
Y272928D01*
X378621Y145442D02*
X386911D01*
X386911Y145442D01*
X363289D02*
X372518D01*
X372518Y145442D01*
X353362Y172744D02*
X355362Y174743D01*
X348858Y172744D02*
X353362D01*
X340651Y162596D02*
X348348D01*
X348348Y162596D01*
X351495Y159449D02*
X366340D01*
X348348Y162596D02*
X351495Y159449D01*
X357611Y155512D02*
X366340D01*
X370303Y157480D02*
X371971Y159149D01*
Y168590D01*
X366340Y157480D02*
X370303D01*
X367029Y169291D02*
Y173001D01*
X367730Y168590D02*
X371971D01*
X367029Y169291D02*
X367730Y168590D01*
X359549Y173001D02*
Y173198D01*
X360230Y173879D01*
X360427D01*
X362797Y176249D01*
X375984D01*
X378073Y168590D02*
Y174160D01*
X375984Y176249D02*
X378073Y174160D01*
X394163Y159449D02*
X394391Y159221D01*
X383860Y159449D02*
X394163D01*
X401265Y176148D02*
X401327Y176209D01*
X383860Y155512D02*
X400679D01*
X401265Y156098D02*
Y159196D01*
X400679Y155512D02*
X401265Y156098D01*
X383860Y155512D02*
Y157480D01*
X380526Y153543D02*
X383860D01*
X378621Y151638D02*
X380526Y153543D01*
X378621Y145442D02*
Y151638D01*
X366340Y153543D02*
X370597D01*
X372518Y151622D01*
Y145442D02*
Y151622D01*
Y133163D02*
Y145442D01*
X378539Y144640D02*
X378621Y144721D01*
Y145442D01*
X378539Y138030D02*
Y144640D01*
Y138030D02*
X378634Y137935D01*
Y133240D02*
Y137935D01*
Y133240D02*
X379921Y131953D01*
X192303Y168898D02*
Y175197D01*
X190210Y177290D02*
X192303Y175197D01*
X175276Y177290D02*
X190210D01*
X186201Y160374D02*
Y168898D01*
X173425Y173228D02*
Y175439D01*
X175276Y177290D01*
X170899Y181102D02*
X177165D01*
X169718Y179921D02*
X170899Y181102D01*
X169718Y177290D02*
Y179921D01*
X165657Y173228D02*
X169718Y177290D01*
X160581Y173228D02*
X165657D01*
X152699Y162859D02*
X160581D01*
X160617Y162824D01*
X163992Y159449D02*
X179921D01*
X160617Y162824D02*
X163992Y159449D01*
X181491Y168898D02*
X186201D01*
X180906Y169483D02*
Y173228D01*
Y169483D02*
X181491Y168898D01*
X183307Y157480D02*
X186201Y160374D01*
X179921Y157480D02*
X183307D01*
X191732Y145669D02*
X200886D01*
X200886Y145669D01*
X177264D02*
X185630D01*
X185630Y145669D01*
X191732D02*
Y151575D01*
Y132228D02*
Y145669D01*
Y132228D02*
X192913Y131047D01*
X185630Y132471D02*
Y145669D01*
X184378Y131219D02*
X185630Y132471D01*
X185474Y145826D02*
X185630Y145669D01*
X193701Y153543D02*
X197441D01*
X191732Y151575D02*
X193701Y153543D01*
X185474Y145826D02*
Y151575D01*
X179921Y153543D02*
X183505D01*
X185474Y151575D01*
X627600Y350486D02*
Y361086D01*
X629633Y364279D02*
X631133Y365779D01*
X629633Y363118D02*
Y364279D01*
X627600Y361086D02*
X629633Y363118D01*
X623081Y349901D02*
X627015D01*
X627600Y350486D01*
X631133Y365779D02*
X643178D01*
X647638Y361319D01*
X607874Y120803D02*
X607874Y120803D01*
Y109047D02*
Y120803D01*
X607874Y109047D02*
X607874Y109047D01*
X607874Y159906D02*
X607874Y159906D01*
X607874Y159906D02*
Y172047D01*
X607874Y151575D02*
Y151906D01*
X607874Y151575D02*
X607874Y151575D01*
X607874Y172047D02*
Y172378D01*
Y172047D02*
X607874Y172047D01*
X649606Y177165D02*
Y178518D01*
X651870Y180782D01*
X0Y0D02*
Y334646D01*
Y0D02*
X669291D01*
Y405512D01*
X460630D02*
X669291D01*
X440945Y425197D02*
X460630Y405512D01*
X149606Y425197D02*
X440945D01*
X129921Y405512D02*
X149606Y425197D01*
X70866Y405512D02*
X129921D01*
X0Y334646D02*
X70866Y405512D01*
X495379Y241472D02*
X498659D01*
X499315Y240816D01*
Y239505D01*
X498659Y238849D01*
X495379D01*
X499315Y235569D02*
X495379D01*
X497347Y237537D01*
Y234913D01*
X306403Y241472D02*
X309683D01*
X310339Y240816D01*
Y239505D01*
X309683Y238849D01*
X306403D01*
X307059Y237537D02*
X306403Y236881D01*
Y235569D01*
X307059Y234913D01*
X307715D01*
X308371Y235569D01*
Y236225D01*
Y235569D01*
X309027Y234913D01*
X309683D01*
X310339Y235569D01*
Y236881D01*
X309683Y237537D01*
X121048Y235772D02*
X124328D01*
X124984Y235116D01*
Y233804D01*
X124328Y233148D01*
X121048D01*
X124984Y229212D02*
Y231836D01*
X122360Y229212D01*
X121704D01*
X121048Y229868D01*
Y231180D01*
X121704Y231836D01*
D15*
X165354Y251969D02*
X168322Y254936D01*
X217505D02*
X223565Y248876D01*
X168322Y254936D02*
X217505D01*
X75736Y251969D02*
X165354D01*
X223565Y208228D02*
Y248876D01*
X495532Y97894D02*
X496063Y98425D01*
X446850Y98425D02*
X446850Y98425D01*
X401575Y98425D02*
X401575Y98425D01*
X296899Y118047D02*
X296929Y118017D01*
X307086Y98425D02*
X307086Y98425D01*
X257874Y98425D02*
X257874Y98425D01*
X202416Y118047D02*
X202441Y118022D01*
X154213Y118047D02*
X154213Y118047D01*
X59153D02*
X59153Y118047D01*
X23622Y98425D02*
X23622Y98425D01*
X12565Y118508D02*
X12565Y118508D01*
X403728Y350995D02*
X409722Y345002D01*
X385138Y355961D02*
X390103Y350995D01*
X403728D01*
X122047Y342520D02*
X159347Y305219D01*
X122047Y342520D02*
Y391732D01*
X180017Y305219D02*
X185275Y299961D01*
X159347Y305219D02*
X180017D01*
X378701Y315961D02*
X378838Y315823D01*
X358268Y315961D02*
X378701D01*
X125218Y294747D02*
X376338D01*
X378838Y297248D01*
X94726Y264255D02*
X125218Y294747D01*
X123575Y285200D02*
X376636D01*
X378838Y287402D01*
X102631Y264255D02*
X123575Y285200D01*
X384941Y279960D02*
X386014Y278887D01*
X386014D01*
X389949Y274952D01*
X420267D01*
X425276Y279961D01*
X384941Y270018D02*
X386014Y268945D01*
X386014D02*
X389990Y264969D01*
X420284D01*
X386014Y268945D02*
X386014D01*
X420284Y264969D02*
X425276Y269961D01*
X56000Y167323D02*
Y232232D01*
X75736Y251969D01*
X214567Y176476D02*
Y183071D01*
X236221Y204724D01*
Y267138D01*
X223565Y279794D02*
X236221Y267138D01*
X424847Y289961D02*
X425276D01*
X420086Y285200D02*
X424847Y289961D01*
X384941Y287402D02*
X387143Y285200D01*
X420086D01*
X384941Y287402D02*
Y289961D01*
X378838Y297248D02*
Y299833D01*
X378838Y287402D02*
Y289961D01*
X102631Y255906D02*
Y264255D01*
X94726Y255906D02*
Y264255D01*
X385138Y365865D02*
X395180D01*
X395276Y365961D01*
X420317Y345002D02*
X425276Y349961D01*
X409722Y345002D02*
X420317D01*
X384941Y289961D02*
X385467Y289435D01*
X395276Y299961D02*
X415276D01*
X207777Y159449D02*
X207777Y159449D01*
X207906D01*
X197441Y159449D02*
X207777D01*
X214567Y156311D02*
Y159449D01*
X213768Y155512D02*
X214567Y156311D01*
X199409Y155512D02*
X213768D01*
X214567Y165551D02*
Y176476D01*
X169718Y163512D02*
X175215D01*
X169718Y163321D02*
Y163512D01*
X357383Y162696D02*
Y163284D01*
X362205D02*
X364072Y161417D01*
X357383Y163284D02*
X362205D01*
X364072Y161417D02*
X366340D01*
X379921Y118720D02*
X380624Y118017D01*
X379921Y118720D02*
Y123953D01*
X380624Y118017D02*
X382677D01*
X383858Y116836D01*
Y111417D02*
Y116836D01*
X371308Y118698D02*
Y123953D01*
X373770Y116237D02*
X377453D01*
X371308Y118698D02*
X373770Y116237D01*
X377453D02*
X378634Y115056D01*
Y111417D02*
Y115056D01*
X383858Y72835D02*
Y108268D01*
Y72835D02*
X385827Y70866D01*
X390445D01*
X378634D02*
Y107855D01*
X189346Y70866D02*
X189862Y71382D01*
Y107824D01*
X195585Y70866D02*
X201157D01*
X194882Y71569D02*
X195585Y70866D01*
X194882Y71569D02*
Y108237D01*
X214567Y176476D02*
X214567Y176476D01*
X177310Y161417D02*
X179921D01*
X175215Y163512D02*
X177310Y161417D01*
X197441Y155512D02*
X199409D01*
X197441Y155521D02*
X197450Y155512D01*
X197441Y155521D02*
Y157480D01*
X197450Y155512D02*
X199409D01*
X192913Y118047D02*
Y123047D01*
Y118047D02*
X194882Y116079D01*
Y111386D02*
Y116079D01*
X184378Y117007D02*
Y123219D01*
X185582Y115804D02*
X188681D01*
X184378Y117007D02*
X185582Y115804D01*
X189862Y111386D02*
Y114622D01*
X188681Y115804D02*
X189862Y114622D01*
X647638Y355217D02*
X647728Y355126D01*
X641060Y354940D02*
X647452D01*
X638619Y357381D02*
X641060Y354940D01*
X633907Y357381D02*
X638619D01*
X638485Y353641D02*
X641732Y350394D01*
X633907Y353641D02*
X638485D01*
X641732Y347539D02*
Y350394D01*
Y347539D02*
X641732Y347539D01*
X658563Y336614D02*
X663386Y341437D01*
X648341Y336614D02*
X658563D01*
X647638Y337317D02*
X648341Y336614D01*
X647728Y355126D02*
X653543D01*
X655512Y348488D02*
Y353157D01*
X653543Y355126D02*
X655512Y353157D01*
X647452Y347725D02*
Y354940D01*
Y347725D02*
X647638Y347539D01*
Y337317D02*
Y341437D01*
X616205Y351343D02*
X618503Y353641D01*
X623081D01*
X616205Y342520D02*
Y351343D01*
X626870Y338020D02*
Y342520D01*
X625464Y336614D02*
X626870Y338020D01*
X608908Y336614D02*
X625464D01*
X608205Y337317D02*
Y342520D01*
Y337317D02*
X608908Y336614D01*
X632972Y342520D02*
X633907Y343455D01*
Y349901D01*
D22*
X269685Y211035D02*
D03*
Y222035D02*
D03*
X259843Y211035D02*
D03*
Y222036D02*
D03*
X449711Y212562D02*
D03*
Y223562D02*
D03*
X634646Y207862D02*
D03*
Y196862D02*
D03*
X70866Y222035D02*
D03*
Y211035D02*
D03*
X81492Y222035D02*
D03*
Y211035D02*
D03*
X460877Y223562D02*
D03*
Y212562D02*
D03*
D23*
X578152Y306226D02*
D03*
X567152D02*
D03*
X105488Y196850D02*
D03*
X94488Y196964D02*
D03*
X294339Y196850D02*
D03*
X283339D02*
D03*
X483484Y196850D02*
D03*
X472484D02*
D03*
D24*
X316930Y381046D02*
D03*
Y386361D02*
D03*
X326860Y385966D02*
D03*
Y380652D02*
D03*
X336930Y380652D02*
D03*
Y385966D02*
D03*
X531496Y108957D02*
D03*
Y103642D02*
D03*
X485906Y108957D02*
D03*
Y103642D02*
D03*
X437008Y108957D02*
D03*
Y103642D02*
D03*
X391417Y108957D02*
D03*
Y103642D02*
D03*
X342520Y108957D02*
D03*
Y103642D02*
D03*
X296929Y108957D02*
D03*
Y103642D02*
D03*
X248032Y108957D02*
D03*
Y103642D02*
D03*
X202441Y108957D02*
D03*
Y103642D02*
D03*
X154213Y108957D02*
D03*
Y103642D02*
D03*
X107953Y108957D02*
D03*
Y103642D02*
D03*
X59153Y108957D02*
D03*
Y103642D02*
D03*
X12565Y109418D02*
D03*
Y104103D02*
D03*
D55*
X384941Y260012D02*
D03*
X378839D02*
D03*
X384941Y315823D02*
D03*
X378838D02*
D03*
X384941Y270018D02*
D03*
X378838D02*
D03*
X378838Y365865D02*
D03*
X384941D02*
D03*
X384941Y355961D02*
D03*
X378838D02*
D03*
X384941Y289961D02*
D03*
X378838D02*
D03*
X384941Y279960D02*
D03*
X378838D02*
D03*
X268749Y342834D02*
D03*
X274851D02*
D03*
X274624Y349286D02*
D03*
X268522D02*
D03*
X441831Y272291D02*
D03*
X447933D02*
D03*
X441831Y263779D02*
D03*
X447933D02*
D03*
X268602Y336415D02*
D03*
X274705D02*
D03*
X324218Y336415D02*
D03*
X318116D02*
D03*
X324218Y343540D02*
D03*
X318116D02*
D03*
X255197Y349286D02*
D03*
X261300D02*
D03*
X255197Y341922D02*
D03*
X261300D02*
D03*
X313051Y300000D02*
D03*
X306949D02*
D03*
X326102Y300000D02*
D03*
X320000D02*
D03*
X563051Y157178D02*
D03*
X556949D02*
D03*
X563051Y135035D02*
D03*
X556949D02*
D03*
X372518Y145442D02*
D03*
X378621D02*
D03*
X378073Y168590D02*
D03*
X371971D02*
D03*
X626870Y342520D02*
D03*
X632972D02*
D03*
X186201Y168898D02*
D03*
X192303D02*
D03*
X185630Y145669D02*
D03*
X191732D02*
D03*
D56*
X117393Y187763D02*
D03*
X304164Y190600D02*
D03*
X274953Y280100D02*
D03*
X570866Y183442D02*
D03*
X363289Y145442D02*
D03*
X400153Y145379D02*
D03*
X401327Y176209D02*
D03*
X340470Y145379D02*
D03*
X386911Y176249D02*
D03*
X386911Y145442D02*
D03*
X326772Y245759D02*
D03*
X448819Y197835D02*
D03*
X492126Y338140D02*
D03*
Y328740D02*
D03*
X596457Y330709D02*
D03*
X614173Y330709D02*
D03*
X647638Y330709D02*
D03*
X632494D02*
D03*
X545947Y180378D02*
D03*
X358268Y303150D02*
D03*
X135827Y245169D02*
D03*
X513858Y243447D02*
D03*
X492899Y190403D02*
D03*
X258874Y197835D02*
D03*
X67726Y197835D02*
D03*
X569786Y135156D02*
D03*
X550428Y130402D02*
D03*
X566578Y171417D02*
D03*
X576100Y171309D02*
D03*
X199409Y176476D02*
D03*
X152699Y145669D02*
D03*
X214567Y145669D02*
D03*
Y176476D02*
D03*
X177264Y145669D02*
D03*
X200886Y145669D02*
D03*
X600394Y383495D02*
D03*
D57*
X306930Y380652D02*
D03*
Y386754D02*
D03*
X296877Y380652D02*
D03*
Y386754D02*
D03*
X286930Y380652D02*
D03*
Y386754D02*
D03*
X331270Y337517D02*
D03*
Y343620D02*
D03*
X42207Y248347D02*
D03*
Y254449D02*
D03*
X50305D02*
D03*
Y248347D02*
D03*
X207842Y165551D02*
D03*
Y159449D02*
D03*
X576100Y134541D02*
D03*
Y140644D02*
D03*
X394391Y159221D02*
D03*
Y165323D02*
D03*
X401265Y165298D02*
D03*
Y159196D02*
D03*
X214567Y165551D02*
D03*
Y159449D02*
D03*
X647638Y355217D02*
D03*
Y361319D02*
D03*
X663386Y347539D02*
D03*
Y341437D02*
D03*
X600394Y346591D02*
D03*
Y340488D02*
D03*
X647638Y341437D02*
D03*
Y347539D02*
D03*
X641732Y341437D02*
D03*
Y347539D02*
D03*
X576159Y153014D02*
D03*
Y146912D02*
D03*
D59*
X102362Y255969D02*
D03*
Y247969D02*
D03*
X306930Y367600D02*
D03*
Y359600D02*
D03*
X296877Y367600D02*
D03*
Y359600D02*
D03*
X286629Y367600D02*
D03*
Y359600D02*
D03*
X566246Y116826D02*
D03*
Y124826D02*
D03*
X575255Y116826D02*
D03*
Y124826D02*
D03*
X588583Y243961D02*
D03*
Y235961D02*
D03*
X379921Y123953D02*
D03*
Y131953D02*
D03*
X371308D02*
D03*
Y123953D02*
D03*
X357383Y155284D02*
D03*
Y163284D02*
D03*
X184378Y123047D02*
D03*
Y131047D02*
D03*
X192913Y123047D02*
D03*
Y131047D02*
D03*
X117413Y225974D02*
D03*
Y233974D02*
D03*
X125984Y225972D02*
D03*
Y233972D02*
D03*
X86614Y255969D02*
D03*
Y247969D02*
D03*
X110712Y247968D02*
D03*
Y255968D02*
D03*
X94862Y247969D02*
D03*
Y255969D02*
D03*
X315761Y225961D02*
D03*
Y233961D02*
D03*
X306039Y225961D02*
D03*
Y233961D02*
D03*
X488189Y247969D02*
D03*
Y255969D02*
D03*
X480315Y247969D02*
D03*
Y255969D02*
D03*
X472815Y247969D02*
D03*
Y255969D02*
D03*
X465341Y255929D02*
D03*
Y247929D02*
D03*
X291338Y247969D02*
D03*
Y255968D02*
D03*
X283839Y247969D02*
D03*
Y255968D02*
D03*
X494714Y225961D02*
D03*
Y233961D02*
D03*
X501969Y225961D02*
D03*
Y233961D02*
D03*
X655512Y348488D02*
D03*
Y340488D02*
D03*
X607874Y128803D02*
D03*
Y120803D02*
D03*
X607874Y101047D02*
D03*
Y109047D02*
D03*
X541338Y142775D02*
D03*
Y150775D02*
D03*
X607874Y159906D02*
D03*
Y151906D02*
D03*
X607874Y172378D02*
D03*
Y180378D02*
D03*
X580000Y236158D02*
D03*
Y244158D02*
D03*
X587289Y266514D02*
D03*
Y274514D02*
D03*
Y260622D02*
D03*
Y252622D02*
D03*
X298839Y255969D02*
D03*
Y247969D02*
D03*
X275590Y247969D02*
D03*
Y255968D02*
D03*
X169718Y155512D02*
D03*
Y163512D02*
D03*
X541339Y108237D02*
D03*
Y116237D02*
D03*
X531496Y118047D02*
D03*
Y126047D02*
D03*
X496063Y108237D02*
D03*
Y116237D02*
D03*
X485906Y118047D02*
D03*
Y126047D02*
D03*
X446850Y108237D02*
D03*
Y116237D02*
D03*
X437008Y118047D02*
D03*
Y126047D02*
D03*
X401575Y108237D02*
D03*
Y116237D02*
D03*
X391417Y118047D02*
D03*
Y126047D02*
D03*
X352362Y108237D02*
D03*
Y116237D02*
D03*
X342520Y118047D02*
D03*
Y126047D02*
D03*
X307086Y108237D02*
D03*
Y116237D02*
D03*
X296899Y118047D02*
D03*
Y126047D02*
D03*
X257874Y108237D02*
D03*
Y116237D02*
D03*
X248032Y118047D02*
D03*
Y126047D02*
D03*
X212598Y108237D02*
D03*
Y116237D02*
D03*
X202416Y118047D02*
D03*
Y126047D02*
D03*
X163386Y108237D02*
D03*
Y116237D02*
D03*
X154213Y118047D02*
D03*
Y126047D02*
D03*
X118110Y108237D02*
D03*
Y116237D02*
D03*
X107953Y118047D02*
D03*
Y126047D02*
D03*
X68996Y108237D02*
D03*
Y116237D02*
D03*
X59153Y118047D02*
D03*
Y126047D02*
D03*
X12565Y118508D02*
D03*
Y126508D02*
D03*
X22421Y108237D02*
D03*
Y116237D02*
D03*
D60*
X275711Y321452D02*
D03*
X267710D02*
D03*
X300000Y300000D02*
D03*
X292000D02*
D03*
X325421Y316560D02*
D03*
X317421D02*
D03*
X317421Y326375D02*
D03*
X325421D02*
D03*
X45461Y282126D02*
D03*
X37461D02*
D03*
X50361Y240024D02*
D03*
X42361D02*
D03*
X45402Y179214D02*
D03*
X37402D02*
D03*
X573089Y288124D02*
D03*
X565089D02*
D03*
X572785Y280000D02*
D03*
X564785D02*
D03*
X556547Y241472D02*
D03*
X548547D02*
D03*
X623133Y365779D02*
D03*
X631133D02*
D03*
X616205Y342520D02*
D03*
X608205D02*
D03*
X548499Y249817D02*
D03*
X556499D02*
D03*
X548547Y265197D02*
D03*
X556547D02*
D03*
X548484Y273514D02*
D03*
X556484D02*
D03*
X232598Y178709D02*
D03*
X240598D02*
D03*
X549319Y110108D02*
D03*
X557319D02*
D03*
X503874Y110236D02*
D03*
X511874D02*
D03*
X455201D02*
D03*
X463201D02*
D03*
X409386D02*
D03*
X417386D02*
D03*
X360445D02*
D03*
X368445D02*
D03*
X314898Y110236D02*
D03*
X322898D02*
D03*
X266201Y110236D02*
D03*
X274201D02*
D03*
X220409D02*
D03*
X228410D02*
D03*
X171315D02*
D03*
X179315D02*
D03*
X125921D02*
D03*
X133921D02*
D03*
X77201D02*
D03*
X85201D02*
D03*
X31678Y110236D02*
D03*
X39678D02*
D03*
D63*
X339096Y316293D02*
D03*
Y324561D02*
D03*
D64*
X566246Y109967D02*
D03*
Y106818D02*
D03*
X575255Y109967D02*
D03*
Y106818D02*
D03*
X383858Y111417D02*
D03*
Y108268D02*
D03*
X378634Y111417D02*
D03*
Y108268D02*
D03*
X194882Y111386D02*
D03*
Y108237D02*
D03*
X189862Y111386D02*
D03*
Y108237D02*
D03*
D70*
X646505Y110236D02*
D03*
X646505Y161417D02*
D03*
D73*
X496063Y98425D02*
Y108237D01*
X95550Y369774D02*
Y375368D01*
X101081Y380900D02*
X112047D01*
X95550Y375368D02*
X101081Y380900D01*
X82116Y222659D02*
Y223158D01*
X81492Y222035D02*
X82116Y222659D01*
X108999Y187763D02*
X117393D01*
X105488Y184252D02*
X108999Y187763D01*
X303767Y190202D02*
X304164Y190600D01*
X300978Y190202D02*
X303767D01*
X294339Y183563D02*
X300978Y190202D01*
X112047Y380900D02*
Y391732D01*
Y368898D02*
Y380900D01*
X102218Y247969D02*
X102362D01*
X102218D02*
X102281Y248031D01*
X102631D01*
X102362Y247969D02*
X110712D01*
X102362Y242126D02*
Y247969D01*
X99862Y239626D02*
X102362Y242126D01*
X99862Y231201D02*
Y239626D01*
X110712Y247969D02*
X110712Y247968D01*
X272447Y386867D02*
X286817D01*
X267982Y382403D02*
X272447Y386867D01*
X268154Y372613D02*
Y382403D01*
X264819Y372279D02*
X267819D01*
X268154Y372613D01*
X296877Y386754D02*
X306930D01*
X286930D02*
X296877D01*
X264248Y382403D02*
X268154D01*
X286817Y386867D02*
X286930Y386754D01*
X306930Y359600D02*
X306930Y359600D01*
X296877Y359600D02*
X306930D01*
X296877Y359600D02*
X296877Y359600D01*
X296877Y359600D02*
X296877Y359600D01*
X286629Y359600D02*
X296877D01*
X286629Y359600D02*
X286629Y359600D01*
X67726Y188976D02*
X74801Y181902D01*
X67726Y188976D02*
X67726D01*
X508548Y127515D02*
Y135035D01*
X510016Y126047D02*
X537421D01*
X508548Y127515D02*
X510016Y126047D01*
X494984Y196204D02*
X495587Y195601D01*
X487815Y203373D02*
X494984Y196204D01*
X500254Y130962D02*
X504475D01*
X508548Y135035D01*
Y182640D01*
X401575Y116237D02*
Y122047D01*
X410274Y130746D02*
X418441D01*
X401575Y122047D02*
X410274Y130746D01*
X401575Y122047D02*
Y124347D01*
X145966Y138967D02*
X152213Y132720D01*
X129921Y138967D02*
X145966D01*
X152213Y127047D02*
Y132720D01*
Y127047D02*
X153213Y126047D01*
X161985D01*
X123031Y192717D02*
X135827Y179921D01*
Y144872D02*
Y179921D01*
X129921Y138967D02*
X135827Y144872D01*
X118110Y127156D02*
X129921Y138967D01*
X118110Y120921D02*
Y127156D01*
X111034Y225974D02*
X125983D01*
X117413Y233974D02*
Y242139D01*
X125983Y225974D02*
X125984Y225972D01*
X109862Y227145D02*
Y231201D01*
Y227145D02*
X111034Y225974D01*
X104862Y238130D02*
X108858Y242126D01*
X104862Y231201D02*
Y238130D01*
X83788Y198031D02*
X85770D01*
X67726Y197835D02*
X83591D01*
X83788Y198031D01*
X125984Y233972D02*
Y239973D01*
X123819Y242139D02*
X125984Y239973D01*
X117413Y242139D02*
X123819D01*
X105488Y184252D02*
Y196850D01*
Y160606D02*
Y184252D01*
X102362Y157480D02*
X105488Y160606D01*
X99899Y187382D02*
Y195368D01*
X74801Y181902D02*
X79110Y186211D01*
X98728D01*
X99899Y187382D01*
X71995Y140542D02*
Y179096D01*
X74801Y181902D01*
X70824Y139370D02*
X71995Y140542D01*
X40551Y139370D02*
X70824D01*
X109862Y205886D02*
X123031Y192717D01*
Y197835D02*
X127953Y202756D01*
X123031Y192717D02*
Y197835D01*
X86614Y247969D02*
X94726D01*
X70866Y211035D02*
X81492D01*
X81492Y211035D01*
X99862Y195405D02*
Y209744D01*
Y195405D02*
X99899Y195368D01*
X104862Y197476D02*
Y209744D01*
Y197476D02*
X105488Y196850D01*
X94862Y197338D02*
Y209744D01*
X94488Y196964D02*
X94862Y197338D01*
X109862Y205886D02*
Y209744D01*
X315761Y233961D02*
X315761D01*
X315761Y233961D02*
X315761Y233961D01*
X315761Y233961D02*
Y239160D01*
X313967Y240954D02*
X315761Y239160D01*
X306039Y240954D02*
X313967D01*
X117406Y242139D02*
X117413D01*
X117393Y242126D02*
X117406Y242139D01*
X108858Y242126D02*
X117393D01*
X298838Y227506D02*
Y231201D01*
Y227506D02*
X300384Y225961D01*
X306039D01*
X298238Y240954D02*
X306039D01*
X293839Y236555D02*
X298238Y240954D01*
X293839Y231201D02*
Y236555D01*
X494714Y225961D02*
X501969D01*
X490158D02*
X494714D01*
X487815Y228303D02*
Y231201D01*
Y228303D02*
X490158Y225961D01*
X306039Y225961D02*
X315761D01*
X94862Y231201D02*
Y247969D01*
X94862Y231201D02*
X94862Y231201D01*
X259843Y222035D02*
X269685D01*
X259843Y222036D02*
X259843Y222035D01*
X309606Y194331D02*
X320374Y183563D01*
X298838Y205099D02*
X309606Y194331D01*
Y198386D02*
X313976Y202756D01*
X309606Y194331D02*
Y198386D01*
X275590Y247969D02*
X283465D01*
X263487Y183364D02*
X266545Y186422D01*
X260873Y180751D02*
X263487Y183364D01*
X258874Y188976D02*
X263487Y184364D01*
Y183364D02*
Y184364D01*
X258874Y197835D02*
X271457D01*
X271654Y198031D01*
X294339Y183563D02*
Y196850D01*
Y160480D02*
Y183563D01*
X291338Y157480D02*
X294339Y160480D01*
X298838Y205099D02*
Y209744D01*
X320374Y131496D02*
Y183563D01*
X480315Y247929D02*
X488189D01*
X465341D02*
X472815D01*
X260873Y144732D02*
Y180751D01*
X266545Y186422D02*
X287667D01*
X253937Y137795D02*
X260873Y144732D01*
X287667Y186422D02*
X288839Y187594D01*
Y195279D01*
X233770Y137795D02*
X253937D01*
X288839Y195279D02*
X288839Y195279D01*
X288839Y195279D02*
Y209744D01*
X293839Y197351D02*
Y209744D01*
Y197351D02*
X294339Y196850D01*
X283839Y197350D02*
Y209744D01*
X283339Y196850D02*
X283839Y197350D01*
X306039Y233961D02*
Y240954D01*
X298839Y247969D02*
X298839Y247969D01*
X291339Y247969D02*
X298839D01*
X291338Y239961D02*
Y247969D01*
X288839Y231201D02*
Y237461D01*
X291338Y239961D01*
X283839Y231201D02*
Y247969D01*
X495587Y195601D02*
X508548Y182640D01*
X495587Y196806D02*
X502047Y203267D01*
X495587Y195601D02*
Y196806D01*
X482815Y185895D02*
Y195749D01*
Y159980D02*
Y185895D01*
X487323Y190403D02*
X492899D01*
X482815Y185895D02*
X487323Y190403D01*
X480315Y157480D02*
X482815Y159980D01*
Y195749D02*
X483484Y196419D01*
X477815Y190532D02*
Y209744D01*
X473004Y185721D02*
X477815Y190532D01*
X451161Y182640D02*
X454243Y185721D01*
X446850Y178329D02*
X451161Y182640D01*
X448819Y188237D02*
X451161Y185895D01*
Y182640D02*
Y185895D01*
X482815Y197088D02*
X483484Y196419D01*
X482815Y197088D02*
Y209744D01*
X472815Y196749D02*
Y209744D01*
X472484Y196419D02*
X472815Y196749D01*
X501619Y234310D02*
Y238189D01*
Y234310D02*
X501969Y233961D01*
X499847Y239961D02*
X501619Y238189D01*
X494714Y239961D02*
X499847D01*
X487815Y203373D02*
Y209744D01*
X482815Y231201D02*
Y234784D01*
X487992Y239961D02*
X494714D01*
X482815Y234784D02*
X487992Y239961D01*
X480315Y238189D02*
Y247929D01*
X477815Y235689D02*
X480315Y238189D01*
X477815Y231201D02*
Y235689D01*
X454243Y185721D02*
X473004D01*
X429071Y126047D02*
X437008D01*
X444244D01*
X446850Y141339D02*
Y178329D01*
X494714Y233961D02*
Y239961D01*
X472815Y231201D02*
Y247929D01*
X234942Y126047D02*
X248032D01*
X217257Y137795D02*
X233770D01*
Y127219D02*
X234942Y126047D01*
X233770Y127219D02*
Y137795D01*
X212598Y122441D02*
Y133137D01*
X217257Y137795D01*
X623133Y365779D02*
Y371165D01*
X618110Y365779D02*
X623133D01*
Y357433D02*
Y365779D01*
X623081Y357381D02*
X623133Y357433D01*
X32087Y130905D02*
X39764D01*
X27365D02*
X32087D01*
X40551Y139370D01*
X22421Y125962D02*
X27365Y130905D01*
X59153Y126047D02*
X67726D01*
X44622D02*
X59153D01*
X43625Y127044D02*
X44622Y126047D01*
X39764Y130905D02*
X43625Y127044D01*
X248032Y126047D02*
X255512D01*
X342520D02*
X349232D01*
X325823D02*
X342520D01*
X320374Y131496D02*
X325823Y126047D01*
X307086Y122441D02*
Y128346D01*
X310236Y131496D01*
X418441Y130746D02*
X424372D01*
X429071Y126047D01*
X419613Y137018D02*
X442529D01*
X446850Y141339D01*
X418441Y130746D02*
Y135846D01*
X419613Y137018D01*
X391417Y126047D02*
X399875D01*
X401575Y124347D01*
X561339Y98425D02*
Y105089D01*
X557319Y109108D02*
X561339Y105089D01*
X557319Y109108D02*
Y110108D01*
X544210D02*
X549319D01*
X541339Y108237D02*
X542339D01*
X544210Y110108D01*
X516063Y98425D02*
Y105047D01*
X511874Y109236D02*
X516063Y105047D01*
X511874Y109236D02*
Y110236D01*
X496063Y108237D02*
X497063D01*
X499062Y110236D01*
X503874D01*
X449850D02*
X455201D01*
X447850Y108237D02*
X449850Y110236D01*
X446850Y108237D02*
X447850D01*
X466850Y98425D02*
Y105618D01*
X464201Y108236D02*
X464232D01*
X466850Y105618D01*
X463201Y109236D02*
Y110236D01*
Y109236D02*
X464201Y108236D01*
X417386Y109236D02*
X421575Y105047D01*
Y98425D02*
Y105047D01*
X417386Y109236D02*
Y110236D01*
X402575Y108237D02*
X404574Y110236D01*
X409386D01*
X409386Y110236D01*
X401575Y108237D02*
X402575D01*
X368445Y109236D02*
X372362Y105319D01*
Y98425D02*
Y105319D01*
Y98425D02*
X372362Y98425D01*
X368445Y109236D02*
Y110236D01*
X327086Y98425D02*
Y105048D01*
X323898Y108236D02*
X323899D01*
X327086Y105048D01*
X322898Y109236D02*
X323898Y108236D01*
X322898Y109236D02*
Y110236D01*
X257874Y108237D02*
X258874D01*
X260873Y110236D01*
X266201D01*
X183386Y98425D02*
Y105166D01*
X180315Y108236D02*
X180315D01*
X183386Y105166D01*
X179315Y109236D02*
Y110236D01*
Y109236D02*
X180315Y108236D01*
X164386Y108237D02*
X166385Y110236D01*
X171315D01*
X163386Y108237D02*
X164386D01*
X68996D02*
X69996D01*
X71995Y110236D01*
X77201D01*
X213598Y108237D02*
X215598Y110236D01*
X212598Y108237D02*
X213598D01*
X215598Y110236D02*
X220409D01*
X232598Y98425D02*
Y105047D01*
X228410Y109236D02*
X232598Y105047D01*
X228410Y109236D02*
Y110236D01*
X12565Y126508D02*
X17960D01*
X22421Y122047D01*
Y125962D01*
Y116237D02*
Y122047D01*
Y108237D02*
X23421D01*
X25421Y110236D01*
X31678D01*
X43622Y98425D02*
Y105292D01*
X39678Y109236D02*
X43622Y105292D01*
X39678Y109236D02*
Y110236D01*
X68898Y116335D02*
X68996Y116237D01*
X68898Y116335D02*
Y124876D01*
X67726Y126047D02*
X68898Y124876D01*
X118110Y108237D02*
X119110D01*
X121109Y110236D01*
X125921D01*
X133921D02*
X137805D01*
X138976Y99291D02*
Y109065D01*
X137805Y110236D02*
X138976Y109065D01*
X161985Y126047D02*
X163156Y124876D01*
Y117237D02*
Y124876D01*
X163386Y116237D02*
Y117007D01*
X163156Y117237D02*
X163386Y117007D01*
X112984Y126047D02*
X118110Y120921D01*
X310236Y131496D02*
X320374D01*
X85548Y109889D02*
X88195D01*
X85201Y110236D02*
X85548Y109889D01*
X88898Y98425D02*
Y109186D01*
X88195Y109889D02*
X88898Y109186D01*
X118110Y116237D02*
Y120921D01*
X107953Y126047D02*
X112984D01*
X138110Y98425D02*
X138976Y99291D01*
X118110Y98425D02*
Y108237D01*
X163386Y98425D02*
Y108237D01*
X446850Y116237D02*
Y123441D01*
X444244Y126047D02*
X446850Y123441D01*
X401575Y98425D02*
Y108237D01*
X446850Y98425D02*
Y108237D01*
X212598Y116237D02*
Y122441D01*
X202416Y126047D02*
X208992D01*
X212598Y122441D01*
X401575Y116237D02*
X401575Y116237D01*
X496063Y123359D02*
Y126772D01*
Y116237D02*
Y123359D01*
X485906Y126047D02*
X493375D01*
X496063Y123359D01*
Y126772D02*
X500254Y130962D01*
X541339Y98425D02*
Y108237D01*
X540109Y117466D02*
Y123359D01*
X537421Y126047D02*
X540109Y123359D01*
Y117466D02*
X541339Y116237D01*
X274201Y109236D02*
X277874Y105563D01*
Y98425D02*
Y105563D01*
X274201Y109236D02*
Y110236D01*
X257874Y98425D02*
Y108237D01*
Y116237D02*
Y123685D01*
X255512Y126047D02*
X257874Y123685D01*
X352362Y116237D02*
Y122917D01*
X349232Y126047D02*
X352362Y122917D01*
X353362Y108237D02*
X355362Y110236D01*
X360445D02*
X360445Y110236D01*
X355362Y110236D02*
X360445D01*
X352362Y108237D02*
X353362D01*
X352362Y98425D02*
Y108237D01*
X307086Y116237D02*
Y122441D01*
X303481Y126047D02*
X307086Y122441D01*
X296899Y126047D02*
X303481D01*
X310086Y110236D02*
X314898D01*
X308086Y108237D02*
X310086Y110236D01*
X307086Y108237D02*
X308086D01*
X307086Y98425D02*
Y108237D01*
D74*
X263819Y372279D02*
Y373029D01*
Y371279D02*
Y372279D01*
X263248Y381403D02*
Y382403D01*
Y383153D01*
X263819Y370529D02*
Y371279D01*
X263248Y380653D02*
Y381403D01*
D75*
X185275Y329961D02*
X205276D01*
X448819Y197835D02*
X460630D01*
D76*
X246220Y365073D02*
D03*
X236221D02*
D03*
X205276Y249961D02*
D03*
Y269961D02*
D03*
Y259961D02*
D03*
Y239961D02*
D03*
Y229961D02*
D03*
X395276Y279961D02*
D03*
Y259961D02*
D03*
Y239961D02*
D03*
Y249961D02*
D03*
Y269961D02*
D03*
Y289961D02*
D03*
Y299961D02*
D03*
X122047Y391732D02*
D03*
X205276Y319961D02*
D03*
Y339961D02*
D03*
Y359961D02*
D03*
Y349961D02*
D03*
Y329961D02*
D03*
Y309961D02*
D03*
Y299961D02*
D03*
X395276Y405961D02*
D03*
Y395961D02*
D03*
Y365961D02*
D03*
Y345961D02*
D03*
Y325961D02*
D03*
Y335961D02*
D03*
Y355961D02*
D03*
Y375961D02*
D03*
Y385961D02*
D03*
D77*
X226220Y365073D02*
D03*
X112047Y391732D02*
D03*
D78*
X205276Y279961D02*
D03*
X395276Y229961D02*
D03*
X205276Y369961D02*
D03*
X395276Y315961D02*
D03*
D79*
X238819Y409685D02*
D03*
X228819D02*
D03*
X248819D02*
D03*
X258819Y409685D02*
D03*
X307008D02*
D03*
X297008D02*
D03*
X317008D02*
D03*
X327008D02*
D03*
X185275Y249961D02*
D03*
X175276D02*
D03*
X185275Y259961D02*
D03*
X175276D02*
D03*
X185275Y279961D02*
D03*
X175276D02*
D03*
X185275Y329961D02*
D03*
X175276D02*
D03*
X185275Y349961D02*
D03*
X175276D02*
D03*
X185275Y369961D02*
D03*
X175276D02*
D03*
X185275Y389961D02*
D03*
X175276D02*
D03*
X185275Y399961D02*
D03*
X175276D02*
D03*
X185275Y409961D02*
D03*
X175276Y379961D02*
D03*
X185275D02*
D03*
X175276Y359961D02*
D03*
X185275D02*
D03*
X175276Y339961D02*
D03*
X185275D02*
D03*
X175276Y319961D02*
D03*
X185275D02*
D03*
X175276Y309961D02*
D03*
X185275D02*
D03*
X175276Y299961D02*
D03*
X185275D02*
D03*
X175276Y289961D02*
D03*
X185275D02*
D03*
X175276Y269961D02*
D03*
X185275D02*
D03*
X175276Y239961D02*
D03*
Y229961D02*
D03*
Y219961D02*
D03*
X185275Y239961D02*
D03*
Y229961D02*
D03*
Y219961D02*
D03*
X18260Y265873D02*
D03*
Y275873D02*
D03*
X18260Y240832D02*
D03*
Y301351D02*
D03*
Y311351D02*
D03*
X425276Y219961D02*
D03*
Y229961D02*
D03*
Y239961D02*
D03*
X415276Y219961D02*
D03*
Y229961D02*
D03*
Y239961D02*
D03*
X425276Y269961D02*
D03*
X415276D02*
D03*
X425276Y289961D02*
D03*
X415276D02*
D03*
X425276Y299961D02*
D03*
X415276D02*
D03*
X425276Y309961D02*
D03*
X415276D02*
D03*
X425276Y319961D02*
D03*
X415276D02*
D03*
X425276Y339961D02*
D03*
X415276D02*
D03*
X425276Y359961D02*
D03*
X415276D02*
D03*
X425276Y379961D02*
D03*
X415276D02*
D03*
X425276Y409961D02*
D03*
X415276Y399961D02*
D03*
X425276D02*
D03*
X415276Y389961D02*
D03*
X425276D02*
D03*
X415276Y369961D02*
D03*
X425276D02*
D03*
X415276Y349961D02*
D03*
X425276D02*
D03*
X415276Y329961D02*
D03*
X425276D02*
D03*
X415276Y279961D02*
D03*
X425276D02*
D03*
X415276Y259961D02*
D03*
X425276D02*
D03*
X415276Y249961D02*
D03*
X425276D02*
D03*
D80*
X218819Y409685D02*
D03*
X287008D02*
D03*
D81*
X175276Y409961D02*
D03*
X18260Y255873D02*
D03*
X18260Y230832D02*
D03*
Y291351D02*
D03*
X415276Y409961D02*
D03*
D82*
X516629Y362930D02*
D03*
X587339D02*
D03*
D83*
X551984Y398285D02*
D03*
X544913Y391214D02*
D03*
X559055D02*
D03*
Y334646D02*
D03*
X551984Y327575D02*
D03*
X544913Y334646D02*
D03*
X657480Y110236D02*
D03*
Y102362D02*
D03*
Y94488D02*
D03*
X649606D02*
D03*
Y102362D02*
D03*
Y110236D02*
D03*
X641732D02*
D03*
Y102362D02*
D03*
Y94488D02*
D03*
X633858D02*
D03*
Y102362D02*
D03*
Y110236D02*
D03*
X633858Y177165D02*
D03*
Y169291D02*
D03*
Y161417D02*
D03*
Y153543D02*
D03*
Y145669D02*
D03*
X641732D02*
D03*
Y153543D02*
D03*
Y161417D02*
D03*
Y169291D02*
D03*
Y177165D02*
D03*
X649606D02*
D03*
Y169291D02*
D03*
Y161417D02*
D03*
Y153543D02*
D03*
Y145669D02*
D03*
X657480D02*
D03*
Y153543D02*
D03*
Y161417D02*
D03*
Y169291D02*
D03*
Y177165D02*
D03*
D84*
X655512Y260000D02*
D03*
X608268D02*
D03*
D85*
X480315Y157480D02*
D03*
X291338D02*
D03*
X102362D02*
D03*
D86*
X496063Y98425D02*
D03*
X446850D02*
D03*
X401575D02*
D03*
X352362D02*
D03*
X307086D02*
D03*
X257874D02*
D03*
X212598D02*
D03*
X541339D02*
D03*
X23622D02*
D03*
X68898D02*
D03*
X118110D02*
D03*
X163386D02*
D03*
D87*
X506063D02*
D03*
X516063D02*
D03*
X466850D02*
D03*
X456850D02*
D03*
X411575D02*
D03*
X421575D02*
D03*
X372362D02*
D03*
X362362D02*
D03*
X317087D02*
D03*
X327086D02*
D03*
X277874D02*
D03*
X267874D02*
D03*
X222598D02*
D03*
X232598D02*
D03*
X561339D02*
D03*
X551339D02*
D03*
X33622D02*
D03*
X43622D02*
D03*
X88898D02*
D03*
X78898D02*
D03*
X128110D02*
D03*
X138110D02*
D03*
X183386D02*
D03*
X173386D02*
D03*
D88*
X217520Y34297D02*
D03*
X247047D02*
D03*
X480315Y68898D02*
D03*
Y9843D02*
D03*
X291338Y68898D02*
D03*
Y9843D02*
D03*
X102362Y68898D02*
D03*
Y9843D02*
D03*
X146653Y35433D02*
D03*
X176181D02*
D03*
X335630Y33678D02*
D03*
X365158D02*
D03*
X406496D02*
D03*
X436024D02*
D03*
X524606Y35433D02*
D03*
X554134D02*
D03*
X24606D02*
D03*
X54134D02*
D03*
D89*
X497695Y242340D02*
D03*
Y281710D02*
D03*
Y258088D02*
D03*
Y289584D02*
D03*
Y273836D02*
D03*
Y265962D02*
D03*
X505569Y289584D02*
D03*
Y258088D02*
D03*
Y265962D02*
D03*
Y281710D02*
D03*
Y273836D02*
D03*
X490572Y265962D02*
D03*
Y273836D02*
D03*
Y281710D02*
D03*
Y289584D02*
D03*
X564623Y218717D02*
D03*
Y206906D02*
D03*
Y195095D02*
D03*
Y183284D02*
D03*
X552812Y218717D02*
D03*
Y206906D02*
D03*
Y195095D02*
D03*
Y183284D02*
D03*
Y171473D02*
D03*
Y159662D02*
D03*
X541001Y218717D02*
D03*
Y206906D02*
D03*
Y195095D02*
D03*
Y183284D02*
D03*
Y159662D02*
D03*
Y136040D02*
D03*
X529190Y230528D02*
D03*
Y218717D02*
D03*
Y206906D02*
D03*
Y195095D02*
D03*
Y183284D02*
D03*
X517379Y206906D02*
D03*
Y195095D02*
D03*
Y183284D02*
D03*
Y171473D02*
D03*
Y159662D02*
D03*
Y147851D02*
D03*
Y136040D02*
D03*
X505568Y206906D02*
D03*
Y195095D02*
D03*
X470135Y218717D02*
D03*
X458324Y206906D02*
D03*
X446513D02*
D03*
Y183284D02*
D03*
Y136040D02*
D03*
X434702Y147851D02*
D03*
X422891Y206906D02*
D03*
Y195095D02*
D03*
Y183284D02*
D03*
Y147851D02*
D03*
X411080Y206906D02*
D03*
Y195095D02*
D03*
Y171473D02*
D03*
Y159662D02*
D03*
Y147851D02*
D03*
Y136040D02*
D03*
Y124229D02*
D03*
X399269Y218717D02*
D03*
Y206906D02*
D03*
Y136040D02*
D03*
Y112418D02*
D03*
X387458Y218717D02*
D03*
Y195095D02*
D03*
Y183284D02*
D03*
Y171473D02*
D03*
Y136040D02*
D03*
Y112418D02*
D03*
X375647Y206906D02*
D03*
Y195095D02*
D03*
Y183284D02*
D03*
Y159662D02*
D03*
Y136040D02*
D03*
X363836Y218717D02*
D03*
Y206906D02*
D03*
Y195095D02*
D03*
Y171473D02*
D03*
Y136040D02*
D03*
X352025Y218717D02*
D03*
Y206906D02*
D03*
Y195095D02*
D03*
Y183284D02*
D03*
Y147851D02*
D03*
Y136040D02*
D03*
X340214Y218717D02*
D03*
Y206906D02*
D03*
Y195095D02*
D03*
Y183284D02*
D03*
Y136040D02*
D03*
X328403Y206906D02*
D03*
Y195095D02*
D03*
Y183284D02*
D03*
Y171473D02*
D03*
Y147851D02*
D03*
Y136040D02*
D03*
X316592Y206906D02*
D03*
Y195095D02*
D03*
X281159Y218717D02*
D03*
X257537Y183284D02*
D03*
Y147851D02*
D03*
Y136040D02*
D03*
X245726Y218717D02*
D03*
Y206906D02*
D03*
Y147851D02*
D03*
X233915D02*
D03*
X222104Y183284D02*
D03*
Y171473D02*
D03*
Y159662D02*
D03*
Y147851D02*
D03*
Y124229D02*
D03*
X210293Y218717D02*
D03*
Y206906D02*
D03*
Y183284D02*
D03*
Y171473D02*
D03*
Y136040D02*
D03*
Y112418D02*
D03*
X198482Y206906D02*
D03*
Y183284D02*
D03*
Y171473D02*
D03*
Y136040D02*
D03*
Y112418D02*
D03*
X186670Y206906D02*
D03*
Y183284D02*
D03*
Y112418D02*
D03*
X174859Y206906D02*
D03*
Y136040D02*
D03*
X163049Y218717D02*
D03*
Y206906D02*
D03*
Y183284D02*
D03*
Y136040D02*
D03*
X151237Y195095D02*
D03*
Y183284D02*
D03*
X139426Y206906D02*
D03*
Y195095D02*
D03*
Y183284D02*
D03*
Y171473D02*
D03*
Y159662D02*
D03*
Y147851D02*
D03*
Y136040D02*
D03*
X127615Y195095D02*
D03*
X115804D02*
D03*
X92182Y218717D02*
D03*
X68560Y183284D02*
D03*
Y171473D02*
D03*
Y147851D02*
D03*
Y136040D02*
D03*
X56749Y147851D02*
D03*
Y136040D02*
D03*
X44938Y218717D02*
D03*
Y206906D02*
D03*
Y195095D02*
D03*
Y147851D02*
D03*
Y136040D02*
D03*
X33127Y277772D02*
D03*
Y265961D02*
D03*
Y254150D02*
D03*
Y242339D02*
D03*
Y230528D02*
D03*
Y218717D02*
D03*
Y206906D02*
D03*
Y195095D02*
D03*
Y183284D02*
D03*
Y171473D02*
D03*
Y147851D02*
D03*
Y136040D02*
D03*
Y124229D02*
D03*
X21316Y218717D02*
D03*
Y206906D02*
D03*
Y195095D02*
D03*
Y183284D02*
D03*
Y171473D02*
D03*
Y147851D02*
D03*
Y136040D02*
D03*
Y112418D02*
D03*
X9505Y277772D02*
D03*
Y265961D02*
D03*
Y254150D02*
D03*
Y242339D02*
D03*
Y230528D02*
D03*
Y218717D02*
D03*
Y206906D02*
D03*
Y195095D02*
D03*
Y183284D02*
D03*
Y171473D02*
D03*
X505569Y242340D02*
D03*
X481947Y289584D02*
D03*
Y281710D02*
D03*
Y273836D02*
D03*
X474073Y289584D02*
D03*
Y281710D02*
D03*
Y265962D02*
D03*
X466199Y289584D02*
D03*
Y281710D02*
D03*
X458325Y289584D02*
D03*
Y281710D02*
D03*
Y258088D02*
D03*
X450451Y289584D02*
D03*
Y281710D02*
D03*
Y258088D02*
D03*
Y242340D02*
D03*
X442577Y258088D02*
D03*
Y242340D02*
D03*
X411081D02*
D03*
X403207D02*
D03*
X387459Y273836D02*
D03*
Y250214D02*
D03*
X363837Y258088D02*
D03*
Y250214D02*
D03*
X355963Y258088D02*
D03*
X348089Y242340D02*
D03*
X340215Y265962D02*
D03*
Y258088D02*
D03*
Y242340D02*
D03*
X332341Y289584D02*
D03*
Y265962D02*
D03*
Y258088D02*
D03*
Y242340D02*
D03*
X324467Y289584D02*
D03*
Y265962D02*
D03*
Y258088D02*
D03*
X316593Y289584D02*
D03*
Y265962D02*
D03*
Y258088D02*
D03*
Y242340D02*
D03*
X308719Y289584D02*
D03*
Y265962D02*
D03*
Y258088D02*
D03*
X300845Y289584D02*
D03*
Y265962D02*
D03*
X292971Y281710D02*
D03*
Y265962D02*
D03*
X285097Y289584D02*
D03*
Y273836D02*
D03*
X277223D02*
D03*
Y265962D02*
D03*
X269349D02*
D03*
Y258088D02*
D03*
X261474Y289584D02*
D03*
Y281710D02*
D03*
Y273836D02*
D03*
Y258088D02*
D03*
X253601Y289584D02*
D03*
Y281710D02*
D03*
Y273836D02*
D03*
Y265962D02*
D03*
X245726Y289584D02*
D03*
Y281710D02*
D03*
Y273836D02*
D03*
Y265962D02*
D03*
X237852Y289584D02*
D03*
Y281710D02*
D03*
Y273836D02*
D03*
X229978Y289584D02*
D03*
Y281710D02*
D03*
Y265962D02*
D03*
X222104Y289584D02*
D03*
Y273836D02*
D03*
Y265962D02*
D03*
X214230Y289584D02*
D03*
Y273836D02*
D03*
Y265962D02*
D03*
X206356Y289584D02*
D03*
X198482D02*
D03*
Y273836D02*
D03*
Y265962D02*
D03*
Y242340D02*
D03*
X190608Y289584D02*
D03*
Y273836D02*
D03*
Y265962D02*
D03*
Y242340D02*
D03*
X166986Y289584D02*
D03*
Y281710D02*
D03*
Y273836D02*
D03*
Y265962D02*
D03*
Y258088D02*
D03*
Y242340D02*
D03*
X159112Y289584D02*
D03*
Y281710D02*
D03*
Y273836D02*
D03*
Y265962D02*
D03*
Y258088D02*
D03*
Y242340D02*
D03*
X143364Y289584D02*
D03*
Y281710D02*
D03*
Y273836D02*
D03*
Y265962D02*
D03*
Y258088D02*
D03*
Y242340D02*
D03*
X135490Y289584D02*
D03*
Y281710D02*
D03*
Y273836D02*
D03*
Y265962D02*
D03*
Y258088D02*
D03*
X127616Y289584D02*
D03*
Y281710D02*
D03*
Y273836D02*
D03*
Y265962D02*
D03*
Y258088D02*
D03*
Y242340D02*
D03*
X119742Y273836D02*
D03*
Y265962D02*
D03*
Y258088D02*
D03*
X111868Y289584D02*
D03*
Y265962D02*
D03*
X103994Y289584D02*
D03*
Y281710D02*
D03*
X96120Y289584D02*
D03*
Y281710D02*
D03*
Y273836D02*
D03*
X88246Y289584D02*
D03*
Y281710D02*
D03*
Y273836D02*
D03*
Y265962D02*
D03*
X80372Y281710D02*
D03*
Y273836D02*
D03*
Y265962D02*
D03*
Y258088D02*
D03*
X72498Y289584D02*
D03*
Y273836D02*
D03*
Y265962D02*
D03*
Y258088D02*
D03*
Y242340D02*
D03*
X64624Y289584D02*
D03*
Y281710D02*
D03*
Y265962D02*
D03*
Y258088D02*
D03*
Y250214D02*
D03*
X48876Y273836D02*
D03*
Y265962D02*
D03*
Y258088D02*
D03*
X41002Y273836D02*
D03*
Y265962D02*
D03*
Y258088D02*
D03*
X594151Y183284D02*
D03*
Y177378D02*
D03*
Y171473D02*
D03*
Y165568D02*
D03*
Y159662D02*
D03*
Y153756D02*
D03*
Y147851D02*
D03*
Y141945D02*
D03*
X588245Y183284D02*
D03*
Y177378D02*
D03*
Y171473D02*
D03*
Y165568D02*
D03*
Y159662D02*
D03*
Y153756D02*
D03*
Y147851D02*
D03*
Y141945D02*
D03*
Y136040D02*
D03*
Y130134D02*
D03*
Y124229D02*
D03*
Y118323D02*
D03*
Y112418D02*
D03*
Y106512D02*
D03*
Y100607D02*
D03*
Y94701D02*
D03*
X82116Y223158D02*
D03*
X324218Y358268D02*
D03*
X314961Y349961D02*
D03*
X379035Y375961D02*
D03*
X347823Y337989D02*
D03*
Y303922D02*
D03*
X379035Y308046D02*
D03*
X347823Y325961D02*
D03*
Y268518D02*
D03*
X358268Y315961D02*
D03*
X378838Y269961D02*
D03*
X289352Y279790D02*
D03*
X370079Y272291D02*
D03*
X268522Y312443D02*
D03*
X321232Y280237D02*
D03*
X386014Y327458D02*
D03*
X370079Y251231D02*
D03*
X250000Y167323D02*
D03*
X244094Y228346D02*
D03*
X378838Y244712D02*
D03*
X56000Y167323D02*
D03*
X223565Y208228D02*
D03*
X520592Y248031D02*
D03*
X280885Y200304D02*
D03*
X223565Y279794D02*
D03*
X378838Y299833D02*
D03*
X379035Y355961D02*
D03*
X531496Y145928D02*
D03*
X283465Y255906D02*
D03*
X291338D02*
D03*
X102631Y248031D02*
D03*
X102631Y255906D02*
D03*
X306930Y367600D02*
D03*
X296877Y367927D02*
D03*
X286930Y367927D02*
D03*
X306930Y380652D02*
D03*
X296877D02*
D03*
X286930Y380652D02*
D03*
X556949Y157178D02*
D03*
X214567Y165551D02*
D03*
X533124Y173099D02*
D03*
X576100Y134541D02*
D03*
X576151Y146904D02*
D03*
X541338Y150775D02*
D03*
Y142775D02*
D03*
X523406Y145928D02*
D03*
X169718Y155512D02*
D03*
Y163321D02*
D03*
X357383Y155284D02*
D03*
Y163284D02*
D03*
X566747Y124815D02*
D03*
X574747D02*
D03*
X588778Y198641D02*
D03*
X593422D02*
D03*
X593502Y194310D02*
D03*
X588778D02*
D03*
X575939Y294301D02*
D03*
X587289Y260622D02*
D03*
X588583Y243961D02*
D03*
X579969Y244033D02*
D03*
X556547Y265197D02*
D03*
X572953Y279832D02*
D03*
X587210Y266269D02*
D03*
X587289Y274514D02*
D03*
X348858Y172744D02*
D03*
X340651Y162596D02*
D03*
X348348Y162596D02*
D03*
X371971Y168590D02*
D03*
X394163Y159449D02*
D03*
X401327Y165324D02*
D03*
X371308Y131953D02*
D03*
X379921D02*
D03*
X186201Y168898D02*
D03*
X160581Y173228D02*
D03*
X152699Y162859D02*
D03*
X160617Y162824D02*
D03*
X207906Y159449D02*
D03*
X192913Y131047D02*
D03*
X184378Y131219D02*
D03*
X83788Y198031D02*
D03*
X87725D02*
D03*
X67726Y188976D02*
D03*
X127953Y202756D02*
D03*
X94726Y255906D02*
D03*
X70866Y222877D02*
D03*
X85770Y198031D02*
D03*
X91922Y200304D02*
D03*
X91898Y195798D02*
D03*
X91922Y198031D02*
D03*
X125984Y233972D02*
D03*
X315761Y233961D02*
D03*
X94726Y248031D02*
D03*
X280885Y198031D02*
D03*
X280861Y195798D02*
D03*
X273622Y198031D02*
D03*
X313976Y202756D02*
D03*
X258874Y188976D02*
D03*
X271654Y198031D02*
D03*
X275465D02*
D03*
X460557Y223882D02*
D03*
X449711Y223562D02*
D03*
X269685Y223158D02*
D03*
X259842D02*
D03*
X291338Y248031D02*
D03*
X283465D02*
D03*
X480315Y247929D02*
D03*
X472815D02*
D03*
X501619Y233961D02*
D03*
X502047Y203267D02*
D03*
X448819Y188237D02*
D03*
X469862Y200107D02*
D03*
X469837Y195601D02*
D03*
X469862Y197835D02*
D03*
X464441D02*
D03*
X460630D02*
D03*
X462599Y197835D02*
D03*
X480315Y255906D02*
D03*
X472457D02*
D03*
X501968Y358354D02*
D03*
X493004Y358268D02*
D03*
X497244D02*
D03*
X645291Y285433D02*
D03*
X645290Y289370D02*
D03*
X606299Y281496D02*
D03*
Y289370D02*
D03*
X606299Y285433D02*
D03*
X645290Y281496D02*
D03*
X623081Y357381D02*
D03*
X623133Y365779D02*
D03*
X618110D02*
D03*
X623133Y371165D02*
D03*
X655512Y340488D02*
D03*
X626870Y342520D02*
D03*
X607874Y101047D02*
D03*
X607874Y120803D02*
D03*
X607874Y151575D02*
D03*
Y172047D02*
D03*
X618898Y192913D02*
D03*
X623622D02*
D03*
X623541Y197244D02*
D03*
X618898D02*
D03*
X287008Y224803D02*
D03*
Y220472D02*
D03*
Y216142D02*
D03*
X291338Y224803D02*
D03*
Y220472D02*
D03*
Y216142D02*
D03*
X295669Y224803D02*
D03*
Y220472D02*
D03*
Y216142D02*
D03*
X484646D02*
D03*
Y220472D02*
D03*
Y224803D02*
D03*
X480315Y216142D02*
D03*
Y220472D02*
D03*
Y224803D02*
D03*
X475984Y216142D02*
D03*
Y220472D02*
D03*
Y224803D02*
D03*
X98032D02*
D03*
Y220472D02*
D03*
Y216142D02*
D03*
X102362Y224803D02*
D03*
Y220472D02*
D03*
Y216142D02*
D03*
X106693Y224803D02*
D03*
Y220472D02*
D03*
Y216142D02*
D03*
D90*
X582677Y70866D02*
D03*
X570866D02*
D03*
X189346Y70866D02*
D03*
X201157D02*
D03*
X378634Y70866D02*
D03*
X390445D02*
D03*
D91*
X589322D02*
D03*
X564222D02*
D03*
X182702Y70866D02*
D03*
X207802D02*
D03*
X371989Y70866D02*
D03*
X397089D02*
D03*
D92*
X258819Y370079D02*
D03*
X264819Y372279D02*
D03*
X258248Y380203D02*
D03*
X264248Y382403D02*
D03*
D93*
X217407Y329961D02*
D03*
X217407Y389961D02*
D03*
D94*
X224100Y329961D02*
D03*
X95550Y363082D02*
D03*
X112047Y362205D02*
D03*
X224100Y389961D02*
D03*
D95*
X285370Y341375D02*
D03*
Y336375D02*
D03*
Y331375D02*
D03*
Y326375D02*
D03*
Y321375D02*
D03*
Y316375D02*
D03*
Y311375D02*
D03*
X306630D02*
D03*
Y316375D02*
D03*
Y321375D02*
D03*
Y326375D02*
D03*
Y331375D02*
D03*
Y336375D02*
D03*
Y341375D02*
D03*
D96*
X542207Y172417D02*
D03*
X538467Y164543D02*
D03*
X545947D02*
D03*
X363289Y180875D02*
D03*
X359549Y173001D02*
D03*
X367029D02*
D03*
X180906Y173228D02*
D03*
X173425D02*
D03*
X177165Y181102D02*
D03*
D97*
X563602Y254703D02*
D03*
Y256671D02*
D03*
Y258640D02*
D03*
Y260608D02*
D03*
Y262577D02*
D03*
Y264545D02*
D03*
Y266514D02*
D03*
Y268482D02*
D03*
X576398D02*
D03*
Y266514D02*
D03*
Y264545D02*
D03*
Y262577D02*
D03*
Y260608D02*
D03*
Y258640D02*
D03*
Y256671D02*
D03*
Y254703D02*
D03*
D98*
X567047Y270353D02*
D03*
X572953D02*
D03*
Y252833D02*
D03*
X567047D02*
D03*
D99*
X570000Y261593D02*
D03*
D100*
X568760Y148872D02*
D03*
Y146904D02*
D03*
Y144935D02*
D03*
Y142966D02*
D03*
Y140998D02*
D03*
X551240Y148872D02*
D03*
Y146904D02*
D03*
Y144935D02*
D03*
Y142966D02*
D03*
Y140998D02*
D03*
X383860Y161417D02*
D03*
Y159449D02*
D03*
Y157480D02*
D03*
Y155512D02*
D03*
Y153543D02*
D03*
X366340Y161417D02*
D03*
Y153543D02*
D03*
Y155512D02*
D03*
Y157480D02*
D03*
Y159449D02*
D03*
X197441Y161417D02*
D03*
Y159449D02*
D03*
Y157480D02*
D03*
Y155512D02*
D03*
Y153543D02*
D03*
X179921Y161417D02*
D03*
Y159449D02*
D03*
Y157480D02*
D03*
Y155512D02*
D03*
Y153543D02*
D03*
D101*
X623081Y349901D02*
D03*
Y353641D02*
D03*
Y357381D02*
D03*
X633907D02*
D03*
Y353641D02*
D03*
Y349901D02*
D03*
D102*
X621654Y196850D02*
D03*
Y207874D02*
D03*
D103*
X283839Y231201D02*
D03*
X288839D02*
D03*
X293839D02*
D03*
X298838D02*
D03*
X283839Y209744D02*
D03*
X288839D02*
D03*
X293839D02*
D03*
X298838D02*
D03*
X487815D02*
D03*
X482815D02*
D03*
X477815D02*
D03*
X472815D02*
D03*
X487815Y231201D02*
D03*
X482815D02*
D03*
X477815D02*
D03*
X472815D02*
D03*
X94862D02*
D03*
X99862D02*
D03*
X104862D02*
D03*
X109862D02*
D03*
X94862Y209744D02*
D03*
X99862D02*
D03*
X104862D02*
D03*
X109862D02*
D03*
D104*
X291338Y220472D02*
D03*
X480315D02*
D03*
X102362D02*
D03*
D105*
X95550Y369774D02*
D03*
X112047Y368898D02*
D03*
D106*
X216328Y343540D02*
D03*
X224173D02*
D03*
D107*
X185275Y389961D02*
X218528D01*
X205276Y329961D02*
X217480D01*
M02*
