G04*
G04 #@! TF.GenerationSoftware,Altium Limited,Altium Designer,21.0.8 (223)*
G04*
G04 Layer_Color=8421504*
%FSLAX25Y25*%
%MOIN*%
G70*
G04*
G04 #@! TF.SameCoordinates,9B631218-273A-463D-9665-DA23E21FF141*
G04*
G04*
G04 #@! TF.FilePolarity,Positive*
G04*
G01*
G75*
%ADD17R,0.10000X0.08000*%
%ADD18R,0.05347X0.05347*%
%ADD19R,0.08000X0.06000*%
%ADD20R,0.06724X0.06331*%
%ADD21R,0.06331X0.06724*%
%ADD22R,0.08000X0.10000*%
%ADD23R,0.17748X0.25622*%
%ADD24R,0.06000X0.08000*%
%ADD25R,0.38600X0.45600*%
%ADD26R,0.16900X0.06300*%
%ADD27R,0.05347X0.05347*%
%ADD28R,0.06000X0.05200*%
%ADD29C,0.06724*%
G04:AMPARAMS|DCode=30|XSize=55.43mil|YSize=77.09mil|CornerRadius=11.95mil|HoleSize=0mil|Usage=FLASHONLY|Rotation=0.000|XOffset=0mil|YOffset=0mil|HoleType=Round|Shape=RoundedRectangle|*
%AMROUNDEDRECTD30*
21,1,0.05543,0.05319,0,0,0.0*
21,1,0.03154,0.07709,0,0,0.0*
1,1,0.02390,0.01577,-0.02659*
1,1,0.02390,-0.01577,-0.02659*
1,1,0.02390,-0.01577,0.02659*
1,1,0.02390,0.01577,0.02659*
%
%ADD30ROUNDEDRECTD30*%
G04:AMPARAMS|DCode=31|XSize=144.02mil|YSize=77.09mil|CornerRadius=12mil|HoleSize=0mil|Usage=FLASHONLY|Rotation=0.000|XOffset=0mil|YOffset=0mil|HoleType=Round|Shape=RoundedRectangle|*
%AMROUNDEDRECTD31*
21,1,0.14402,0.05309,0,0,0.0*
21,1,0.12002,0.07709,0,0,0.0*
1,1,0.02400,0.06001,-0.02655*
1,1,0.02400,-0.06001,-0.02655*
1,1,0.02400,-0.06001,0.02655*
1,1,0.02400,0.06001,0.02655*
%
%ADD31ROUNDEDRECTD31*%
%ADD32R,0.09480X0.18535*%
%ADD33R,0.08299X0.15780*%
%ADD34R,0.03969X0.03969*%
%ADD35R,0.09055X0.09843*%
%ADD36R,0.15780X0.08299*%
%ADD37R,0.02559X0.01181*%
%ADD38R,0.01181X0.02559*%
%ADD39R,0.03969X0.03969*%
%ADD40R,0.18535X0.09480*%
G36*
X54102Y181214D02*
Y180214D01*
X56102Y178214D01*
X58102Y180214D01*
Y181214D01*
X54102D01*
D02*
G37*
G36*
X154712Y157074D02*
Y158074D01*
X152712Y160074D01*
X150712Y158074D01*
Y157074D01*
X154712D01*
D02*
G37*
G36*
X162617Y157074D02*
Y158074D01*
X160617Y160074D01*
X158617Y158074D01*
Y157074D01*
X162617D01*
D02*
G37*
G36*
X247988Y181509D02*
Y180509D01*
X249988Y178509D01*
X251988Y180509D01*
Y181509D01*
X247988D01*
D02*
G37*
G36*
X342651Y156846D02*
Y157846D01*
X340651Y159846D01*
X338651Y157846D01*
Y156846D01*
X342651D01*
D02*
G37*
G36*
X350348Y156846D02*
Y157846D01*
X348348Y159846D01*
X346348Y157846D01*
Y156846D01*
X350348D01*
D02*
G37*
G36*
X434945Y182071D02*
Y181071D01*
X436945Y179071D01*
X438945Y181071D01*
Y182071D01*
X434945D01*
D02*
G37*
G36*
X525406Y140178D02*
Y141178D01*
X523406Y143178D01*
X521406Y141178D01*
Y140178D01*
X525406D01*
D02*
G37*
G36*
X533496Y140178D02*
Y141178D01*
X531496Y143178D01*
X529496Y141178D01*
Y140178D01*
X533496D01*
D02*
G37*
D17*
X326772Y222847D02*
D03*
Y233846D02*
D03*
X170180Y164667D02*
D03*
Y153667D02*
D03*
X240064Y168284D02*
D03*
Y157284D02*
D03*
X513858Y221532D02*
D03*
Y232532D02*
D03*
X502047Y221532D02*
D03*
Y232532D02*
D03*
X600394Y349039D02*
D03*
Y338039D02*
D03*
X45417Y157283D02*
D03*
Y168283D02*
D03*
X135827Y222847D02*
D03*
Y233846D02*
D03*
X124695Y222847D02*
D03*
Y233846D02*
D03*
X315761Y222847D02*
D03*
Y233846D02*
D03*
X541338Y152258D02*
D03*
Y141258D02*
D03*
X357383Y164440D02*
D03*
Y153440D02*
D03*
X428150Y168284D02*
D03*
Y157284D02*
D03*
D18*
X425098Y207677D02*
D03*
X431201D02*
D03*
X425098Y201772D02*
D03*
X431201D02*
D03*
X217421Y334646D02*
D03*
X223523D02*
D03*
X268894Y334303D02*
D03*
X274996D02*
D03*
X268902Y319968D02*
D03*
X275004D02*
D03*
X274996Y326375D02*
D03*
X268893D02*
D03*
X268522Y312443D02*
D03*
X274624D02*
D03*
X274977Y340952D02*
D03*
X268875D02*
D03*
X378839Y244783D02*
D03*
X384941D02*
D03*
X378839Y270018D02*
D03*
X384941D02*
D03*
X384941Y260012D02*
D03*
X378838D02*
D03*
X483054Y206528D02*
D03*
X476952D02*
D03*
X453838Y312992D02*
D03*
X447736D02*
D03*
X465453Y312992D02*
D03*
X471555D02*
D03*
X482283Y312992D02*
D03*
X488386D02*
D03*
X378839Y375961D02*
D03*
X384942D02*
D03*
X384941Y365865D02*
D03*
X378838D02*
D03*
Y355961D02*
D03*
X384941D02*
D03*
X378838Y299833D02*
D03*
X384941D02*
D03*
X378838Y279923D02*
D03*
X384941D02*
D03*
X384941Y289961D02*
D03*
X378838D02*
D03*
X384941Y322131D02*
D03*
X378838D02*
D03*
X384941Y308046D02*
D03*
X378838D02*
D03*
Y335844D02*
D03*
X384941D02*
D03*
Y390764D02*
D03*
X378838D02*
D03*
X384812Y398806D02*
D03*
X378709D02*
D03*
X378838Y413386D02*
D03*
X384941D02*
D03*
X384941Y345903D02*
D03*
X378838D02*
D03*
X99311Y205663D02*
D03*
X105413D02*
D03*
X38409Y299161D02*
D03*
X44512D02*
D03*
X44561Y291351D02*
D03*
X38458D02*
D03*
X223565Y216282D02*
D03*
X217462D02*
D03*
X223565Y208228D02*
D03*
X217463D02*
D03*
X223565Y224496D02*
D03*
X217462D02*
D03*
X223565Y250126D02*
D03*
X217462D02*
D03*
X223565Y240088D02*
D03*
X217462D02*
D03*
X223565Y232650D02*
D03*
X217462D02*
D03*
X223565Y260009D02*
D03*
X217462D02*
D03*
X288274Y205663D02*
D03*
X294376D02*
D03*
X217462Y279794D02*
D03*
X223565D02*
D03*
X223565Y269630D02*
D03*
X217462D02*
D03*
X297560Y320427D02*
D03*
X303662D02*
D03*
X297560Y311468D02*
D03*
X303662D02*
D03*
X323539Y316718D02*
D03*
X317436D02*
D03*
X251536Y260009D02*
D03*
X245433D02*
D03*
D19*
X146565Y391109D02*
D03*
Y399110D02*
D03*
X573534Y243795D02*
D03*
Y235795D02*
D03*
X581230D02*
D03*
Y243795D02*
D03*
X120866Y366205D02*
D03*
Y358205D02*
D03*
X129921Y366205D02*
D03*
Y358205D02*
D03*
X106508Y334709D02*
D03*
Y326709D02*
D03*
X94726Y240031D02*
D03*
Y248031D02*
D03*
X102631Y240031D02*
D03*
Y248031D02*
D03*
X260641Y304927D02*
D03*
Y296927D02*
D03*
X449694Y223882D02*
D03*
Y215882D02*
D03*
X472457Y239447D02*
D03*
Y247447D02*
D03*
X480520Y239447D02*
D03*
Y247447D02*
D03*
X587287Y252410D02*
D03*
Y260409D02*
D03*
X565785Y255543D02*
D03*
Y263543D02*
D03*
X663233Y362268D02*
D03*
Y354268D02*
D03*
X587287Y275599D02*
D03*
Y267599D02*
D03*
X358268Y295339D02*
D03*
Y287339D02*
D03*
X29528Y152000D02*
D03*
Y160000D02*
D03*
X70866Y215158D02*
D03*
Y223158D02*
D03*
X30119Y275778D02*
D03*
Y267778D02*
D03*
X259842Y223158D02*
D03*
Y215158D02*
D03*
X283465Y240031D02*
D03*
Y248031D02*
D03*
X291338Y240032D02*
D03*
Y248031D02*
D03*
X8472Y152277D02*
D03*
Y160277D02*
D03*
X20206Y152000D02*
D03*
Y160000D02*
D03*
D20*
X137707Y399243D02*
D03*
Y390976D02*
D03*
X29439Y130543D02*
D03*
Y122275D02*
D03*
X340651Y170442D02*
D03*
Y178709D02*
D03*
X533464Y299016D02*
D03*
Y307283D02*
D03*
X152712Y170442D02*
D03*
Y178709D02*
D03*
X525406Y170442D02*
D03*
Y178710D02*
D03*
D21*
X569597Y399046D02*
D03*
X577864D02*
D03*
X76486Y391173D02*
D03*
X84754D02*
D03*
D22*
X31813Y141173D02*
D03*
X42813D02*
D03*
X9581D02*
D03*
X20581D02*
D03*
X454319Y330709D02*
D03*
X443319D02*
D03*
X463004D02*
D03*
X474004D02*
D03*
X493689D02*
D03*
X482689D02*
D03*
X525185Y324803D02*
D03*
X514185D02*
D03*
X578346Y306299D02*
D03*
X567346D02*
D03*
X629909Y365748D02*
D03*
X618909D02*
D03*
D23*
X658784Y220000D02*
D03*
X616265D02*
D03*
D24*
X579376Y223653D02*
D03*
X587376D02*
D03*
X258000Y167323D02*
D03*
X250000D02*
D03*
X249937Y157284D02*
D03*
X257937D02*
D03*
X457655Y232283D02*
D03*
X449655D02*
D03*
X548281Y282352D02*
D03*
X556281D02*
D03*
X548407Y255906D02*
D03*
X556407D02*
D03*
X556119Y273302D02*
D03*
X548119D02*
D03*
X574245Y279875D02*
D03*
X566245D02*
D03*
X472504Y320866D02*
D03*
X464504D02*
D03*
X548281Y265065D02*
D03*
X556281D02*
D03*
X515708Y212598D02*
D03*
X507708D02*
D03*
X475984Y199175D02*
D03*
X483984D02*
D03*
X507953Y203756D02*
D03*
X515953D02*
D03*
X454787Y320866D02*
D03*
X446787D02*
D03*
X482220D02*
D03*
X490220D02*
D03*
X608142Y342520D02*
D03*
X616142D02*
D03*
X64000Y167323D02*
D03*
X56000D02*
D03*
X98390Y190779D02*
D03*
X106390D02*
D03*
X98390Y198253D02*
D03*
X106390D02*
D03*
X42361Y240024D02*
D03*
X50361D02*
D03*
X78803Y232283D02*
D03*
X70803D02*
D03*
X137827Y212598D02*
D03*
X129827D02*
D03*
X129771Y203757D02*
D03*
X137771D02*
D03*
X37562Y283441D02*
D03*
X45562D02*
D03*
X294843Y190779D02*
D03*
X286843D02*
D03*
X294899Y198253D02*
D03*
X286899D02*
D03*
X327496Y212598D02*
D03*
X319496D02*
D03*
X319666Y203755D02*
D03*
X327666D02*
D03*
X268034Y232283D02*
D03*
X260034D02*
D03*
X574747Y124815D02*
D03*
X566747D02*
D03*
X56000Y157284D02*
D03*
X64000D02*
D03*
X192681Y131101D02*
D03*
X184681D02*
D03*
X379569Y131855D02*
D03*
X371569D02*
D03*
X444945Y157283D02*
D03*
X436945D02*
D03*
X444945Y167323D02*
D03*
X436945D02*
D03*
X483984Y190571D02*
D03*
X475984D02*
D03*
D25*
X646507Y112626D02*
D03*
X646505Y165354D02*
D03*
D26*
X607957Y102626D02*
D03*
Y122626D02*
D03*
X607956Y175354D02*
D03*
Y155354D02*
D03*
D27*
X160581Y179331D02*
D03*
Y173228D02*
D03*
X214567Y159449D02*
D03*
Y165551D02*
D03*
X207842Y165551D02*
D03*
Y159449D02*
D03*
X306930Y386754D02*
D03*
Y380652D02*
D03*
X296877Y380652D02*
D03*
Y386754D02*
D03*
X296877Y361824D02*
D03*
Y367927D02*
D03*
X306930Y361824D02*
D03*
Y367927D02*
D03*
X286930Y380652D02*
D03*
Y386754D02*
D03*
X286930Y361824D02*
D03*
Y367927D02*
D03*
X348858Y173228D02*
D03*
Y179331D02*
D03*
X641732Y341437D02*
D03*
Y347539D02*
D03*
X663233Y330645D02*
D03*
Y336748D02*
D03*
X647638Y341437D02*
D03*
Y347539D02*
D03*
X533124Y173099D02*
D03*
Y179202D02*
D03*
X576172Y140597D02*
D03*
Y134495D02*
D03*
X576100Y153014D02*
D03*
Y146912D02*
D03*
X394391Y165324D02*
D03*
Y159221D02*
D03*
X401327Y159221D02*
D03*
Y165323D02*
D03*
D28*
X340651Y155846D02*
D03*
Y162596D02*
D03*
X56102Y175464D02*
D03*
Y182214D02*
D03*
X249988Y175759D02*
D03*
Y182509D02*
D03*
X523406Y139178D02*
D03*
Y145928D02*
D03*
X531496Y145928D02*
D03*
Y139178D02*
D03*
X152712Y156074D02*
D03*
Y162824D02*
D03*
X160617Y162824D02*
D03*
Y156074D02*
D03*
X348348Y162596D02*
D03*
Y155846D02*
D03*
X436945Y176321D02*
D03*
Y183071D02*
D03*
D29*
X160617Y145826D02*
D03*
X74309Y248032D02*
D03*
X82986Y248032D02*
D03*
X94726Y255906D02*
D03*
X102631Y255906D02*
D03*
X454724Y248031D02*
D03*
X462952Y247969D02*
D03*
X472457Y255906D02*
D03*
X480315D02*
D03*
X67726Y188976D02*
D03*
X143701Y162859D02*
D03*
X136534Y192913D02*
D03*
X258874Y188976D02*
D03*
X329824Y162596D02*
D03*
X263780Y248032D02*
D03*
X271865D02*
D03*
X283465Y255906D02*
D03*
X291339D02*
D03*
X523406Y157480D02*
D03*
X531496Y129817D02*
D03*
X513151Y184702D02*
D03*
X348348Y145379D02*
D03*
X325823Y190600D02*
D03*
X448819Y188237D02*
D03*
D30*
X138976Y344173D02*
D03*
X120866D02*
D03*
X129921D02*
D03*
D31*
Y319961D02*
D03*
D32*
X84770Y284443D02*
D03*
Y312002D02*
D03*
X606299Y312992D02*
D03*
Y285433D02*
D03*
X568898Y346457D02*
D03*
Y374016D02*
D03*
X645129Y285433D02*
D03*
Y312992D02*
D03*
D33*
X120866Y283050D02*
D03*
Y305097D02*
D03*
X450787Y298425D02*
D03*
Y276378D02*
D03*
X480315Y298425D02*
D03*
Y276378D02*
D03*
X509842Y298425D02*
D03*
Y276378D02*
D03*
X535433Y375984D02*
D03*
Y353937D02*
D03*
D34*
X350169Y413118D02*
D03*
X352369Y419118D02*
D03*
X360169Y397168D02*
D03*
X362369Y403168D02*
D03*
X362369Y419118D02*
D03*
X360169Y413118D02*
D03*
X352369Y403168D02*
D03*
X350169Y397168D02*
D03*
D35*
X462599Y215157D02*
D03*
Y198228D02*
D03*
X450787Y349803D02*
D03*
Y366732D02*
D03*
X486220Y349803D02*
D03*
Y366732D02*
D03*
X468504Y349803D02*
D03*
Y366732D02*
D03*
X85737Y215262D02*
D03*
Y198333D02*
D03*
X273622Y215158D02*
D03*
Y198228D02*
D03*
D36*
X598228Y388779D02*
D03*
X620275D02*
D03*
D37*
X17343Y168283D02*
D03*
X22658D02*
D03*
D38*
X36777Y176149D02*
D03*
Y181464D02*
D03*
X45417Y176149D02*
D03*
Y181464D02*
D03*
X240064Y176476D02*
D03*
Y181791D02*
D03*
X232598Y176476D02*
D03*
Y181791D02*
D03*
X419945Y176477D02*
D03*
Y181791D02*
D03*
X428150Y181791D02*
D03*
Y176476D02*
D03*
D39*
X48494Y331020D02*
D03*
X54494Y328820D02*
D03*
Y342570D02*
D03*
X48494Y344770D02*
D03*
D40*
X72835Y351752D02*
D03*
X100394D02*
D03*
M02*
