G04*
G04 #@! TF.GenerationSoftware,Altium Limited,Altium Designer,20.1.14 (287)*
G04*
G04 Layer_Color=128*
%FSLAX25Y25*%
%MOIN*%
G70*
G04*
G04 #@! TF.SameCoordinates,F236638D-4B1B-45E3-9A0F-FA1DF93A8DFF*
G04*
G04*
G04 #@! TF.FilePolarity,Positive*
G04*
G01*
G75*
%ADD12C,0.01000*%
%ADD129C,0.00200*%
D12*
X0Y0D02*
Y334646D01*
Y0D02*
X669291D01*
Y405512D01*
X460630D02*
X669291D01*
X440945Y425197D02*
X460630Y405512D01*
X149606Y425197D02*
X440945D01*
X129921Y405512D02*
X149606Y425197D01*
X70866Y405512D02*
X129921D01*
X0Y334646D02*
X70866Y405512D01*
X495379Y241472D02*
X498659D01*
X499315Y240816D01*
Y239505D01*
X498659Y238849D01*
X495379D01*
X499315Y235569D02*
X495379D01*
X497347Y237537D01*
Y234913D01*
X306403Y241472D02*
X309683D01*
X310339Y240816D01*
Y239505D01*
X309683Y238849D01*
X306403D01*
X307059Y237537D02*
X306403Y236881D01*
Y235569D01*
X307059Y234913D01*
X307715D01*
X308371Y235569D01*
Y236225D01*
Y235569D01*
X309027Y234913D01*
X309683D01*
X310339Y235569D01*
Y236881D01*
X309683Y237537D01*
X121048Y235772D02*
X124328D01*
X124984Y235116D01*
Y233804D01*
X124328Y233148D01*
X121048D01*
X124984Y229212D02*
Y231836D01*
X122360Y229212D01*
X121704D01*
X121048Y229868D01*
Y231180D01*
X121704Y231836D01*
D129*
X115818Y187763D02*
X118968D01*
X117393Y186188D02*
Y189338D01*
X244055Y365073D02*
X248386D01*
X246220Y362908D02*
Y367238D01*
X234055Y365073D02*
X238386D01*
X236221Y362908D02*
Y367238D01*
X224055Y365073D02*
X228386D01*
X226220Y362908D02*
Y367238D01*
X302589Y190600D02*
X305739D01*
X304164Y189025D02*
Y192175D01*
X203110Y249961D02*
X207441D01*
X205276Y247795D02*
Y252126D01*
X203110Y269961D02*
X207441D01*
X205276Y267795D02*
Y272126D01*
X203110Y279961D02*
X207441D01*
X205276Y277795D02*
Y282126D01*
X203110Y259961D02*
X207441D01*
X205276Y257795D02*
Y262126D01*
X203110Y239961D02*
X207441D01*
X205276Y237795D02*
Y242126D01*
X203110Y229961D02*
X207441D01*
X205276Y227795D02*
Y232126D01*
X236851Y409685D02*
X240788D01*
X238819Y407717D02*
Y411654D01*
X216851Y409685D02*
X220788D01*
X218819Y407717D02*
Y411654D01*
X226851Y409685D02*
X230788D01*
X228819Y407717D02*
Y411654D01*
X246851Y409685D02*
X250788D01*
X248819Y407717D02*
Y411654D01*
X256851Y409685D02*
X260788D01*
X258819Y407717D02*
Y411654D01*
X305040Y409685D02*
X308977D01*
X307008Y407717D02*
Y411654D01*
X285040Y409685D02*
X288977D01*
X287008Y407717D02*
Y411654D01*
X295040Y409685D02*
X298977D01*
X297008Y407717D02*
Y411654D01*
X315040Y409685D02*
X318977D01*
X317008Y407717D02*
Y411654D01*
X325040Y409685D02*
X328977D01*
X327008Y407717D02*
Y411654D01*
X393110Y279961D02*
X397441D01*
X395276Y277795D02*
Y282126D01*
X393110Y259961D02*
X397441D01*
X395276Y257795D02*
Y262126D01*
X393110Y239961D02*
X397441D01*
X395276Y237795D02*
Y242126D01*
X393110Y229961D02*
X397441D01*
X395276Y227795D02*
Y232126D01*
X393110Y249961D02*
X397441D01*
X395276Y247795D02*
Y252126D01*
X393110Y269961D02*
X397441D01*
X395276Y267795D02*
Y272126D01*
X393110Y289961D02*
X397441D01*
X395276Y287795D02*
Y292126D01*
X393110Y299961D02*
X397441D01*
X395276Y297795D02*
Y302126D01*
X273378Y280100D02*
X276528D01*
X274953Y278525D02*
Y281675D01*
X183268Y249961D02*
X187283D01*
X185275Y247953D02*
Y251968D01*
X173268Y249961D02*
X177283D01*
X175276Y247953D02*
Y251968D01*
X183268Y259961D02*
X187283D01*
X185275Y257953D02*
Y261968D01*
X173268Y259961D02*
X177283D01*
X175276Y257953D02*
Y261968D01*
X183268Y279961D02*
X187283D01*
X185275Y277953D02*
Y281968D01*
X173268Y279961D02*
X177283D01*
X175276Y277953D02*
Y281968D01*
X183268Y329961D02*
X187283D01*
X185275Y327953D02*
Y331968D01*
X173268Y329961D02*
X177283D01*
X175276Y327953D02*
Y331968D01*
X183268Y349961D02*
X187283D01*
X185275Y347953D02*
Y351968D01*
X173268Y349961D02*
X177283D01*
X175276Y347953D02*
Y351968D01*
X183268Y369961D02*
X187283D01*
X185275Y367953D02*
Y371968D01*
X173268Y369961D02*
X177283D01*
X175276Y367953D02*
Y371968D01*
X183268Y389961D02*
X187283D01*
X185275Y387953D02*
Y391968D01*
X173268Y389961D02*
X177283D01*
X175276Y387953D02*
Y391968D01*
X183268Y399961D02*
X187283D01*
X185275Y397953D02*
Y401968D01*
X173268Y399961D02*
X177283D01*
X175276Y397953D02*
Y401968D01*
X183268Y409961D02*
X187283D01*
X185275Y407953D02*
Y411968D01*
X173268Y409961D02*
X177283D01*
X175276Y407953D02*
Y411968D01*
X173268Y379961D02*
X177283D01*
X175276Y377953D02*
Y381968D01*
X183268Y379961D02*
X187283D01*
X185275Y377953D02*
Y381968D01*
X173268Y359961D02*
X177283D01*
X175276Y357953D02*
Y361968D01*
X183268Y359961D02*
X187283D01*
X185275Y357953D02*
Y361968D01*
X173268Y339961D02*
X177283D01*
X175276Y337953D02*
Y341968D01*
X183268Y339961D02*
X187283D01*
X185275Y337953D02*
Y341968D01*
X173268Y319961D02*
X177283D01*
X175276Y317953D02*
Y321968D01*
X183268Y319961D02*
X187283D01*
X185275Y317953D02*
Y321968D01*
X173268Y309961D02*
X177283D01*
X175276Y307953D02*
Y311968D01*
X183268Y309961D02*
X187283D01*
X185275Y307953D02*
Y311968D01*
X173268Y299961D02*
X177283D01*
X175276Y297953D02*
Y301968D01*
X183268Y299961D02*
X187283D01*
X185275Y297953D02*
Y301968D01*
X173268Y289961D02*
X177283D01*
X175276Y287953D02*
Y291968D01*
X183268Y289961D02*
X187283D01*
X185275Y287953D02*
Y291968D01*
X173268Y269961D02*
X177283D01*
X175276Y267953D02*
Y271968D01*
X183268Y269961D02*
X187283D01*
X185275Y267953D02*
Y271968D01*
X173268Y239961D02*
X177283D01*
X175276Y237953D02*
Y241968D01*
X173268Y229961D02*
X177283D01*
X175276Y227953D02*
Y231968D01*
X173268Y219961D02*
X177283D01*
X175276Y217953D02*
Y221968D01*
X183268Y239961D02*
X187283D01*
X185275Y237953D02*
Y241968D01*
X183268Y229961D02*
X187283D01*
X185275Y227953D02*
Y231968D01*
X183268Y219961D02*
X187283D01*
X185275Y217953D02*
Y221968D01*
X16292Y255873D02*
X20229D01*
X18260Y253904D02*
Y257841D01*
X16292Y265873D02*
X20229D01*
X18260Y263904D02*
Y267841D01*
X16292Y275873D02*
X20229D01*
X18260Y273904D02*
Y277841D01*
X16292Y230832D02*
X20229D01*
X18260Y228863D02*
Y232800D01*
X16292Y240832D02*
X20229D01*
X18260Y238863D02*
Y242800D01*
X16292Y291351D02*
X20229D01*
X18260Y289383D02*
Y293320D01*
X16292Y301351D02*
X20229D01*
X18260Y299383D02*
Y303320D01*
X16292Y311351D02*
X20229D01*
X18260Y309383D02*
Y313320D01*
X569291Y183442D02*
X572441D01*
X570866Y181868D02*
Y185017D01*
X514266Y362930D02*
X518991D01*
X516629Y360568D02*
Y365292D01*
X584977Y362930D02*
X589702D01*
X587339Y360568D02*
Y365292D01*
X550484Y398285D02*
X553484D01*
X551984Y396785D02*
Y399785D01*
X543413Y391214D02*
X546413D01*
X544913Y389714D02*
Y392714D01*
X557555Y391214D02*
X560555D01*
X559055Y389714D02*
Y392714D01*
X557555Y334646D02*
X560555D01*
X559055Y333146D02*
Y336146D01*
X550484Y327575D02*
X553484D01*
X551984Y326075D02*
Y329075D01*
X543413Y334646D02*
X546413D01*
X544913Y333146D02*
Y336146D01*
X655980Y110236D02*
X658980D01*
X657480Y108736D02*
Y111736D01*
X655980Y102362D02*
X658980D01*
X657480Y100862D02*
Y103862D01*
X655980Y94488D02*
X658980D01*
X657480Y92988D02*
Y95988D01*
X648106Y94488D02*
X651106D01*
X649606Y92988D02*
Y95988D01*
X648106Y102362D02*
X651106D01*
X649606Y100862D02*
Y103862D01*
X648106Y110236D02*
X651106D01*
X649606Y108736D02*
Y111736D01*
X640232Y110236D02*
X643232D01*
X641732Y108736D02*
Y111736D01*
X640232Y102362D02*
X643232D01*
X641732Y100862D02*
Y103862D01*
X640232Y94488D02*
X643232D01*
X641732Y92988D02*
Y95988D01*
X632358Y94488D02*
X635358D01*
X633858Y92988D02*
Y95988D01*
X632358Y102362D02*
X635358D01*
X633858Y100862D02*
Y103862D01*
X632358Y110236D02*
X635358D01*
X633858Y108736D02*
Y111736D01*
X361714Y145442D02*
X364864D01*
X363289Y143867D02*
Y147017D01*
X398579Y145379D02*
X401728D01*
X400153Y143804D02*
Y146953D01*
X399752Y176209D02*
X402901D01*
X401327Y174634D02*
Y177784D01*
X338895Y145379D02*
X342045D01*
X340470Y143804D02*
Y146953D01*
X385336Y176249D02*
X388486D01*
X386911Y174674D02*
Y177823D01*
X385336Y145442D02*
X388486D01*
X386911Y143867D02*
Y147017D01*
X325197Y245759D02*
X328346D01*
X326772Y244184D02*
Y247334D01*
X447244Y197835D02*
X450394D01*
X448819Y196260D02*
Y199409D01*
X490551Y338140D02*
X493701D01*
X492126Y336565D02*
Y339715D01*
X490551Y328740D02*
X493701D01*
X492126Y327165D02*
Y330315D01*
X594882Y330709D02*
X598031D01*
X596457Y329134D02*
Y332283D01*
X612598Y330709D02*
X615748D01*
X614173Y329134D02*
Y332283D01*
X646063Y330709D02*
X649213D01*
X647638Y329134D02*
Y332283D01*
X630919Y330709D02*
X634069D01*
X632494Y329134D02*
Y332283D01*
X544372Y180378D02*
X547522D01*
X545947Y178803D02*
Y181953D01*
X632358Y177165D02*
X635358D01*
X633858Y175665D02*
Y178665D01*
X632358Y169291D02*
X635358D01*
X633858Y167791D02*
Y170791D01*
X632358Y161417D02*
X635358D01*
X633858Y159917D02*
Y162917D01*
X632358Y153543D02*
X635358D01*
X633858Y152043D02*
Y155043D01*
X632358Y145669D02*
X635358D01*
X633858Y144169D02*
Y147169D01*
X640232Y145669D02*
X643232D01*
X641732Y144169D02*
Y147169D01*
X640232Y153543D02*
X643232D01*
X641732Y152043D02*
Y155043D01*
X640232Y161417D02*
X643232D01*
X641732Y159917D02*
Y162917D01*
X640232Y169291D02*
X643232D01*
X641732Y167791D02*
Y170791D01*
X640232Y177165D02*
X643232D01*
X641732Y175665D02*
Y178665D01*
X648106Y177165D02*
X651106D01*
X649606Y175665D02*
Y178665D01*
X648106Y169291D02*
X651106D01*
X649606Y167791D02*
Y170791D01*
X648106Y161417D02*
X651106D01*
X649606Y159917D02*
Y162917D01*
X648106Y153543D02*
X651106D01*
X649606Y152043D02*
Y155043D01*
X648106Y145669D02*
X651106D01*
X649606Y144169D02*
Y147169D01*
X655980Y145669D02*
X658980D01*
X657480Y144169D02*
Y147169D01*
X655980Y153543D02*
X658980D01*
X657480Y152043D02*
Y155043D01*
X655980Y161417D02*
X658980D01*
X657480Y159917D02*
Y162917D01*
X655980Y169291D02*
X658980D01*
X657480Y167791D02*
Y170791D01*
X655980Y177165D02*
X658980D01*
X657480Y175665D02*
Y178665D01*
X651575Y260000D02*
X659449D01*
X655512Y256063D02*
Y263937D01*
X604331Y260000D02*
X612205D01*
X608268Y256063D02*
Y263937D01*
X470472Y157480D02*
X490158D01*
X480315Y147638D02*
Y167323D01*
X281496Y157480D02*
X301181D01*
X291338Y147638D02*
Y167323D01*
X92520Y157480D02*
X112205D01*
X102362Y147638D02*
Y167323D01*
X356693Y303150D02*
X359842D01*
X358268Y301575D02*
Y304724D01*
X119882Y391732D02*
X124213D01*
X122047Y389567D02*
Y393898D01*
X109882Y391732D02*
X114213D01*
X112047Y389567D02*
Y393898D01*
X134252Y245169D02*
X137402D01*
X135827Y243595D02*
Y246744D01*
X512283Y243447D02*
X515433D01*
X513858Y241872D02*
Y245022D01*
X491325Y190403D02*
X494474D01*
X492899Y188828D02*
Y191978D01*
X257299Y197835D02*
X260449D01*
X258874Y196260D02*
Y199409D01*
X66151Y197835D02*
X69301D01*
X67726Y196260D02*
Y199409D01*
X568212Y135156D02*
X571361D01*
X569786Y133581D02*
Y136731D01*
X548853Y130402D02*
X552003D01*
X550428Y128827D02*
Y131977D01*
X565003Y171417D02*
X568153D01*
X566578Y169843D02*
Y172992D01*
X574525Y171309D02*
X577675D01*
X576100Y169734D02*
Y172883D01*
X197835Y176476D02*
X200984D01*
X199409Y174901D02*
Y178051D01*
X151125Y145669D02*
X154274D01*
X152699Y144095D02*
Y147244D01*
X212992Y145669D02*
X216142D01*
X214567Y144094D02*
Y147244D01*
X212992Y176476D02*
X216142D01*
X214567Y174901D02*
Y178051D01*
X175689Y145669D02*
X178839D01*
X177264Y144095D02*
Y147244D01*
X199311Y145669D02*
X202461D01*
X200886Y144095D02*
Y147244D01*
X493898Y98425D02*
X498228D01*
X496063Y96260D02*
Y100591D01*
X503898Y98425D02*
X508228D01*
X506063Y96260D02*
Y100591D01*
X513898Y98425D02*
X518228D01*
X516063Y96260D02*
Y100591D01*
X464685Y98425D02*
X469016D01*
X466850Y96260D02*
Y100591D01*
X454685Y98425D02*
X459016D01*
X456850Y96260D02*
Y100591D01*
X444685Y98425D02*
X449016D01*
X446850Y96260D02*
Y100591D01*
X399409Y98425D02*
X403740D01*
X401575Y96260D02*
Y100591D01*
X409409Y98425D02*
X413740D01*
X411575Y96260D02*
Y100591D01*
X419409Y98425D02*
X423740D01*
X421575Y96260D02*
Y100591D01*
X370197Y98425D02*
X374528D01*
X372362Y96260D02*
Y100591D01*
X360197Y98425D02*
X364528D01*
X362362Y96260D02*
Y100591D01*
X350197Y98425D02*
X354527D01*
X352362Y96260D02*
Y100591D01*
X304921Y98425D02*
X309252D01*
X307086Y96260D02*
Y100591D01*
X314921Y98425D02*
X319252D01*
X317087Y96260D02*
Y100591D01*
X324921Y98425D02*
X329252D01*
X327086Y96260D02*
Y100591D01*
X275709Y98425D02*
X280039D01*
X277874Y96260D02*
Y100591D01*
X265709Y98425D02*
X270039D01*
X267874Y96260D02*
Y100591D01*
X255709Y98425D02*
X260039D01*
X257874Y96260D02*
Y100591D01*
X210433Y98425D02*
X214764D01*
X212598Y96260D02*
Y100591D01*
X220433Y98425D02*
X224764D01*
X222598Y96260D02*
Y100591D01*
X230433Y98425D02*
X234764D01*
X232598Y96260D02*
Y100591D01*
X559173Y98425D02*
X563504D01*
X561339Y96260D02*
Y100591D01*
X549173Y98425D02*
X553504D01*
X551339Y96260D02*
Y100591D01*
X539173Y98425D02*
X543504D01*
X541339Y96260D02*
Y100591D01*
X21457Y98425D02*
X25787D01*
X23622Y96260D02*
Y100591D01*
X31457Y98425D02*
X35787D01*
X33622Y96260D02*
Y100591D01*
X41457Y98425D02*
X45788D01*
X43622Y96260D02*
Y100591D01*
X86732Y98425D02*
X91063D01*
X88898Y96260D02*
Y100591D01*
X76732Y98425D02*
X81063D01*
X78898Y96260D02*
Y100591D01*
X66732Y98425D02*
X71063D01*
X68898Y96260D02*
Y100591D01*
X115945Y98425D02*
X120275D01*
X118110Y96260D02*
Y100591D01*
X125945Y98425D02*
X130275D01*
X128110Y96260D02*
Y100591D01*
X135945Y98425D02*
X140276D01*
X138110Y96260D02*
Y100591D01*
X181220Y98425D02*
X185551D01*
X183386Y96260D02*
Y100591D01*
X171220Y98425D02*
X175551D01*
X173386Y96260D02*
Y100591D01*
X161220Y98425D02*
X165551D01*
X163386Y96260D02*
Y100591D01*
X423268Y219961D02*
X427283D01*
X425276Y217953D02*
Y221968D01*
X423268Y229961D02*
X427283D01*
X425276Y227953D02*
Y231968D01*
X423268Y239961D02*
X427283D01*
X425276Y237953D02*
Y241968D01*
X413268Y219961D02*
X417283D01*
X415276Y217953D02*
Y221968D01*
X413268Y229961D02*
X417283D01*
X415276Y227953D02*
Y231968D01*
X413268Y239961D02*
X417283D01*
X415276Y237953D02*
Y241968D01*
X423268Y269961D02*
X427283D01*
X425276Y267953D02*
Y271968D01*
X413268Y269961D02*
X417283D01*
X415276Y267953D02*
Y271968D01*
X423268Y289961D02*
X427283D01*
X425276Y287953D02*
Y291968D01*
X413268Y289961D02*
X417283D01*
X415276Y287953D02*
Y291968D01*
X423268Y299961D02*
X427283D01*
X425276Y297953D02*
Y301968D01*
X413268Y299961D02*
X417283D01*
X415276Y297953D02*
Y301968D01*
X423268Y309961D02*
X427283D01*
X425276Y307953D02*
Y311968D01*
X413268Y309961D02*
X417283D01*
X415276Y307953D02*
Y311968D01*
X423268Y319961D02*
X427283D01*
X425276Y317953D02*
Y321968D01*
X413268Y319961D02*
X417283D01*
X415276Y317953D02*
Y321968D01*
X423268Y339961D02*
X427283D01*
X425276Y337953D02*
Y341968D01*
X413268Y339961D02*
X417283D01*
X415276Y337953D02*
Y341968D01*
X423268Y359961D02*
X427283D01*
X425276Y357953D02*
Y361968D01*
X413268Y359961D02*
X417283D01*
X415276Y357953D02*
Y361968D01*
X423268Y379961D02*
X427283D01*
X425276Y377953D02*
Y381968D01*
X413268Y379961D02*
X417283D01*
X415276Y377953D02*
Y381968D01*
X413268Y409961D02*
X417283D01*
X415276Y407953D02*
Y411968D01*
X423268Y409961D02*
X427283D01*
X425276Y407953D02*
Y411968D01*
X413268Y399961D02*
X417283D01*
X415276Y397953D02*
Y401968D01*
X423268Y399961D02*
X427283D01*
X425276Y397953D02*
Y401968D01*
X413268Y389961D02*
X417283D01*
X415276Y387953D02*
Y391968D01*
X423268Y389961D02*
X427283D01*
X425276Y387953D02*
Y391968D01*
X413268Y369961D02*
X417283D01*
X415276Y367953D02*
Y371968D01*
X423268Y369961D02*
X427283D01*
X425276Y367953D02*
Y371968D01*
X413268Y349961D02*
X417283D01*
X415276Y347953D02*
Y351968D01*
X423268Y349961D02*
X427283D01*
X425276Y347953D02*
Y351968D01*
X413268Y329961D02*
X417283D01*
X415276Y327953D02*
Y331968D01*
X423268Y329961D02*
X427283D01*
X425276Y327953D02*
Y331968D01*
X413268Y279961D02*
X417283D01*
X415276Y277953D02*
Y281968D01*
X423268Y279961D02*
X427283D01*
X425276Y277953D02*
Y281968D01*
X413268Y259961D02*
X417283D01*
X415276Y257953D02*
Y261968D01*
X423268Y259961D02*
X427283D01*
X425276Y257953D02*
Y261968D01*
X413268Y249961D02*
X417283D01*
X415276Y247953D02*
Y251968D01*
X423268Y249961D02*
X427283D01*
X425276Y247953D02*
Y251968D01*
X203110Y319961D02*
X207441D01*
X205276Y317795D02*
Y322126D01*
X203110Y339961D02*
X207441D01*
X205276Y337795D02*
Y342126D01*
X203110Y359961D02*
X207441D01*
X205276Y357795D02*
Y362126D01*
X203110Y369961D02*
X207441D01*
X205276Y367795D02*
Y372126D01*
X203110Y349961D02*
X207441D01*
X205276Y347795D02*
Y352126D01*
X203110Y329961D02*
X207441D01*
X205276Y327795D02*
Y332126D01*
X203110Y309961D02*
X207441D01*
X205276Y307795D02*
Y312126D01*
X203110Y299961D02*
X207441D01*
X205276Y297795D02*
Y302126D01*
X393110Y405961D02*
X397441D01*
X395276Y403795D02*
Y408126D01*
X393110Y395961D02*
X397441D01*
X395276Y393795D02*
Y398126D01*
X393110Y365961D02*
X397441D01*
X395276Y363795D02*
Y368126D01*
X393110Y345961D02*
X397441D01*
X395276Y343795D02*
Y348126D01*
X393110Y325961D02*
X397441D01*
X395276Y323795D02*
Y328126D01*
X393110Y315961D02*
X397441D01*
X395276Y313795D02*
Y318126D01*
X393110Y335961D02*
X397441D01*
X395276Y333795D02*
Y338126D01*
X393110Y355961D02*
X397441D01*
X395276Y353795D02*
Y358126D01*
X393110Y375961D02*
X397441D01*
X395276Y373795D02*
Y378126D01*
X393110Y385961D02*
X397441D01*
X395276Y383795D02*
Y388126D01*
X598819Y383495D02*
X601968D01*
X600394Y381920D02*
Y385070D01*
X215354Y34297D02*
X219685D01*
X217520Y32132D02*
Y36463D01*
X244882Y34297D02*
X249213D01*
X247047Y32132D02*
Y36463D01*
X478150Y68898D02*
X482480D01*
X480315Y66732D02*
Y71063D01*
X478150Y9843D02*
X482480D01*
X480315Y7677D02*
Y12008D01*
X289173Y68898D02*
X293504D01*
X291338Y66732D02*
Y71063D01*
X289173Y9843D02*
X293504D01*
X291338Y7677D02*
Y12008D01*
X100197Y68898D02*
X104527D01*
X102362Y66732D02*
Y71063D01*
X100197Y9843D02*
X104527D01*
X102362Y7677D02*
Y12008D01*
X144488Y35433D02*
X148819D01*
X146653Y33268D02*
Y37598D01*
X174016Y35433D02*
X178347D01*
X176181Y33268D02*
Y37598D01*
X333465Y33678D02*
X337795D01*
X335630Y31513D02*
Y35844D01*
X362992Y33678D02*
X367323D01*
X365158Y31513D02*
Y35844D01*
X404331Y33678D02*
X408662D01*
X406496Y31513D02*
Y35844D01*
X433858Y33678D02*
X438189D01*
X436024Y31513D02*
Y35844D01*
X522441Y35433D02*
X526772D01*
X524606Y33268D02*
Y37598D01*
X551969Y35433D02*
X556299D01*
X554134Y33268D02*
Y37598D01*
X22441Y35433D02*
X26772D01*
X24606Y33268D02*
Y37598D01*
X51969Y35433D02*
X56299D01*
X54134Y33268D02*
Y37598D01*
X497105Y242340D02*
X498286D01*
X497695Y241749D02*
Y242930D01*
X497105Y281710D02*
X498286D01*
X497695Y281119D02*
Y282300D01*
X497105Y258088D02*
X498286D01*
X497695Y257497D02*
Y258678D01*
X497105Y289584D02*
X498286D01*
X497695Y288993D02*
Y290174D01*
X497105Y273836D02*
X498286D01*
X497695Y273245D02*
Y274426D01*
X497105Y265962D02*
X498286D01*
X497695Y265371D02*
Y266552D01*
X504979Y289584D02*
X506160D01*
X505569Y288993D02*
Y290174D01*
X504979Y258088D02*
X506160D01*
X505569Y257497D02*
Y258678D01*
X504979Y265962D02*
X506160D01*
X505569Y265371D02*
Y266552D01*
X504979Y281710D02*
X506160D01*
X505569Y281119D02*
Y282300D01*
X504979Y273836D02*
X506160D01*
X505569Y273245D02*
Y274426D01*
X489981Y265962D02*
X491162D01*
X490572Y265371D02*
Y266552D01*
X489981Y273836D02*
X491162D01*
X490572Y273245D02*
Y274426D01*
X489981Y281710D02*
X491162D01*
X490572Y281119D02*
Y282300D01*
X489981Y289584D02*
X491162D01*
X490572Y288993D02*
Y290174D01*
X564033Y218717D02*
X565214D01*
X564623Y218127D02*
Y219308D01*
X564033Y206906D02*
X565214D01*
X564623Y206315D02*
Y207497D01*
X564033Y195095D02*
X565214D01*
X564623Y194504D02*
Y195686D01*
X564033Y183284D02*
X565214D01*
X564623Y182694D02*
Y183875D01*
X552222Y218717D02*
X553403D01*
X552812Y218127D02*
Y219308D01*
X552222Y206906D02*
X553403D01*
X552812Y206315D02*
Y207497D01*
X552222Y195095D02*
X553403D01*
X552812Y194504D02*
Y195686D01*
X552222Y183284D02*
X553403D01*
X552812Y182694D02*
Y183875D01*
X552222Y171473D02*
X553403D01*
X552812Y170882D02*
Y172064D01*
X552222Y159662D02*
X553403D01*
X552812Y159071D02*
Y160252D01*
X540411Y218717D02*
X541592D01*
X541001Y218127D02*
Y219308D01*
X540411Y206906D02*
X541592D01*
X541001Y206315D02*
Y207497D01*
X540411Y195095D02*
X541592D01*
X541001Y194504D02*
Y195686D01*
X540411Y183284D02*
X541592D01*
X541001Y182694D02*
Y183875D01*
X540411Y159662D02*
X541592D01*
X541001Y159071D02*
Y160252D01*
X540411Y136040D02*
X541592D01*
X541001Y135449D02*
Y136630D01*
X528600Y230528D02*
X529781D01*
X529190Y229938D02*
Y231119D01*
X528600Y218717D02*
X529781D01*
X529190Y218127D02*
Y219308D01*
X528600Y206906D02*
X529781D01*
X529190Y206315D02*
Y207497D01*
X528600Y195095D02*
X529781D01*
X529190Y194504D02*
Y195686D01*
X528600Y183284D02*
X529781D01*
X529190Y182694D02*
Y183875D01*
X516788Y206906D02*
X517970D01*
X517379Y206315D02*
Y207497D01*
X516788Y195095D02*
X517970D01*
X517379Y194504D02*
Y195686D01*
X516788Y183284D02*
X517970D01*
X517379Y182694D02*
Y183875D01*
X516788Y171473D02*
X517970D01*
X517379Y170882D02*
Y172064D01*
X516788Y159662D02*
X517970D01*
X517379Y159071D02*
Y160252D01*
X516788Y147851D02*
X517970D01*
X517379Y147260D02*
Y148442D01*
X516788Y136040D02*
X517970D01*
X517379Y135449D02*
Y136630D01*
X504978Y206906D02*
X506159D01*
X505568Y206315D02*
Y207497D01*
X504978Y195095D02*
X506159D01*
X505568Y194504D02*
Y195686D01*
X469545Y218717D02*
X470726D01*
X470135Y218127D02*
Y219308D01*
X457733Y206906D02*
X458915D01*
X458324Y206315D02*
Y207497D01*
X445922Y206906D02*
X447104D01*
X446513Y206315D02*
Y207497D01*
X445922Y183284D02*
X447104D01*
X446513Y182694D02*
Y183875D01*
X445922Y136040D02*
X447104D01*
X446513Y135449D02*
Y136630D01*
X434111Y147851D02*
X435292D01*
X434702Y147260D02*
Y148442D01*
X422300Y206906D02*
X423482D01*
X422891Y206315D02*
Y207497D01*
X422300Y195095D02*
X423482D01*
X422891Y194504D02*
Y195686D01*
X422300Y183284D02*
X423482D01*
X422891Y182694D02*
Y183875D01*
X422300Y147851D02*
X423482D01*
X422891Y147260D02*
Y148442D01*
X410489Y206906D02*
X411670D01*
X411080Y206315D02*
Y207497D01*
X410489Y195095D02*
X411670D01*
X411080Y194504D02*
Y195686D01*
X410489Y171473D02*
X411670D01*
X411080Y170882D02*
Y172064D01*
X410489Y159662D02*
X411670D01*
X411080Y159071D02*
Y160252D01*
X410489Y147851D02*
X411670D01*
X411080Y147260D02*
Y148442D01*
X410489Y136040D02*
X411670D01*
X411080Y135449D02*
Y136630D01*
X410489Y124229D02*
X411670D01*
X411080Y123638D02*
Y124820D01*
X398678Y218717D02*
X399859D01*
X399269Y218127D02*
Y219308D01*
X398678Y206906D02*
X399859D01*
X399269Y206315D02*
Y207497D01*
X398678Y136040D02*
X399859D01*
X399269Y135449D02*
Y136630D01*
X398678Y112418D02*
X399859D01*
X399269Y111827D02*
Y113008D01*
X386867Y218717D02*
X388048D01*
X387458Y218127D02*
Y219308D01*
X386867Y195095D02*
X388048D01*
X387458Y194504D02*
Y195686D01*
X386867Y183284D02*
X388048D01*
X387458Y182694D02*
Y183875D01*
X386867Y171473D02*
X388048D01*
X387458Y170882D02*
Y172064D01*
X386867Y136040D02*
X388048D01*
X387458Y135449D02*
Y136630D01*
X386867Y112418D02*
X388048D01*
X387458Y111827D02*
Y113008D01*
X375056Y206906D02*
X376237D01*
X375647Y206315D02*
Y207497D01*
X375056Y195095D02*
X376237D01*
X375647Y194504D02*
Y195686D01*
X375056Y183284D02*
X376237D01*
X375647Y182694D02*
Y183875D01*
X375056Y159662D02*
X376237D01*
X375647Y159071D02*
Y160252D01*
X375056Y136040D02*
X376237D01*
X375647Y135449D02*
Y136630D01*
X363245Y218717D02*
X364426D01*
X363836Y218127D02*
Y219308D01*
X363245Y206906D02*
X364426D01*
X363836Y206315D02*
Y207497D01*
X363245Y195095D02*
X364426D01*
X363836Y194504D02*
Y195686D01*
X363245Y171473D02*
X364426D01*
X363836Y170882D02*
Y172064D01*
X363245Y136040D02*
X364426D01*
X363836Y135449D02*
Y136630D01*
X351434Y218717D02*
X352615D01*
X352025Y218127D02*
Y219308D01*
X351434Y206906D02*
X352615D01*
X352025Y206315D02*
Y207497D01*
X351434Y195095D02*
X352615D01*
X352025Y194504D02*
Y195686D01*
X351434Y183284D02*
X352615D01*
X352025Y182694D02*
Y183875D01*
X351434Y147851D02*
X352615D01*
X352025Y147260D02*
Y148442D01*
X351434Y136040D02*
X352615D01*
X352025Y135449D02*
Y136630D01*
X339623Y218717D02*
X340804D01*
X340214Y218127D02*
Y219308D01*
X339623Y206906D02*
X340804D01*
X340214Y206315D02*
Y207497D01*
X339623Y195095D02*
X340804D01*
X340214Y194504D02*
Y195686D01*
X339623Y183284D02*
X340804D01*
X340214Y182694D02*
Y183875D01*
X339623Y136040D02*
X340804D01*
X340214Y135449D02*
Y136630D01*
X327812Y206906D02*
X328993D01*
X328403Y206315D02*
Y207497D01*
X327812Y195095D02*
X328993D01*
X328403Y194504D02*
Y195686D01*
X327812Y183284D02*
X328993D01*
X328403Y182694D02*
Y183875D01*
X327812Y171473D02*
X328993D01*
X328403Y170882D02*
Y172064D01*
X327812Y147851D02*
X328993D01*
X328403Y147260D02*
Y148442D01*
X327812Y136040D02*
X328993D01*
X328403Y135449D02*
Y136630D01*
X316001Y206906D02*
X317182D01*
X316592Y206315D02*
Y207497D01*
X316001Y195095D02*
X317182D01*
X316592Y194504D02*
Y195686D01*
X280568Y218717D02*
X281749D01*
X281159Y218127D02*
Y219308D01*
X256946Y183284D02*
X258127D01*
X257537Y182694D02*
Y183875D01*
X256946Y147851D02*
X258127D01*
X257537Y147260D02*
Y148442D01*
X256946Y136040D02*
X258127D01*
X257537Y135449D02*
Y136630D01*
X245135Y218717D02*
X246316D01*
X245726Y218127D02*
Y219308D01*
X245135Y206906D02*
X246316D01*
X245726Y206315D02*
Y207497D01*
X245135Y147851D02*
X246316D01*
X245726Y147260D02*
Y148442D01*
X233324Y147851D02*
X234505D01*
X233915Y147260D02*
Y148442D01*
X221513Y183284D02*
X222694D01*
X222104Y182694D02*
Y183875D01*
X221513Y171473D02*
X222694D01*
X222104Y170882D02*
Y172064D01*
X221513Y159662D02*
X222694D01*
X222104Y159071D02*
Y160252D01*
X221513Y147851D02*
X222694D01*
X222104Y147260D02*
Y148442D01*
X221513Y124229D02*
X222694D01*
X222104Y123638D02*
Y124820D01*
X209702Y218717D02*
X210883D01*
X210293Y218127D02*
Y219308D01*
X209702Y206906D02*
X210883D01*
X210293Y206315D02*
Y207497D01*
X209702Y183284D02*
X210883D01*
X210293Y182694D02*
Y183875D01*
X209702Y171473D02*
X210883D01*
X210293Y170882D02*
Y172064D01*
X209702Y136040D02*
X210883D01*
X210293Y135449D02*
Y136630D01*
X209702Y112418D02*
X210883D01*
X210293Y111827D02*
Y113008D01*
X197891Y206906D02*
X199072D01*
X198482Y206315D02*
Y207497D01*
X197891Y183284D02*
X199072D01*
X198482Y182694D02*
Y183875D01*
X197891Y171473D02*
X199072D01*
X198482Y170882D02*
Y172064D01*
X197891Y136040D02*
X199072D01*
X198482Y135449D02*
Y136630D01*
X197891Y112418D02*
X199072D01*
X198482Y111827D02*
Y113008D01*
X186080Y206906D02*
X187261D01*
X186670Y206315D02*
Y207497D01*
X186080Y183284D02*
X187261D01*
X186670Y182694D02*
Y183875D01*
X186080Y112418D02*
X187261D01*
X186670Y111827D02*
Y113008D01*
X174269Y206906D02*
X175450D01*
X174859Y206315D02*
Y207497D01*
X174269Y136040D02*
X175450D01*
X174859Y135449D02*
Y136630D01*
X162458Y218717D02*
X163639D01*
X163049Y218127D02*
Y219308D01*
X162458Y206906D02*
X163639D01*
X163049Y206315D02*
Y207497D01*
X162458Y183284D02*
X163639D01*
X163049Y182694D02*
Y183875D01*
X162458Y136040D02*
X163639D01*
X163049Y135449D02*
Y136630D01*
X150647Y195095D02*
X151828D01*
X151237Y194504D02*
Y195686D01*
X150647Y183284D02*
X151828D01*
X151237Y182694D02*
Y183875D01*
X138836Y206906D02*
X140017D01*
X139426Y206315D02*
Y207497D01*
X138836Y195095D02*
X140017D01*
X139426Y194504D02*
Y195686D01*
X138836Y183284D02*
X140017D01*
X139426Y182694D02*
Y183875D01*
X138836Y171473D02*
X140017D01*
X139426Y170882D02*
Y172064D01*
X138836Y159662D02*
X140017D01*
X139426Y159071D02*
Y160252D01*
X138836Y147851D02*
X140017D01*
X139426Y147260D02*
Y148442D01*
X138836Y136040D02*
X140017D01*
X139426Y135449D02*
Y136630D01*
X127025Y195095D02*
X128206D01*
X127615Y194504D02*
Y195686D01*
X115214Y195095D02*
X116395D01*
X115804Y194504D02*
Y195686D01*
X91592Y218717D02*
X92773D01*
X92182Y218127D02*
Y219308D01*
X67970Y183284D02*
X69151D01*
X68560Y182694D02*
Y183875D01*
X67970Y171473D02*
X69151D01*
X68560Y170882D02*
Y172064D01*
X67970Y147851D02*
X69151D01*
X68560Y147260D02*
Y148442D01*
X67970Y136040D02*
X69151D01*
X68560Y135449D02*
Y136630D01*
X56159Y147851D02*
X57340D01*
X56749Y147260D02*
Y148442D01*
X56159Y136040D02*
X57340D01*
X56749Y135449D02*
Y136630D01*
X44348Y218717D02*
X45529D01*
X44938Y218127D02*
Y219308D01*
X44348Y206906D02*
X45529D01*
X44938Y206315D02*
Y207497D01*
X44348Y195095D02*
X45529D01*
X44938Y194504D02*
Y195686D01*
X44348Y147851D02*
X45529D01*
X44938Y147260D02*
Y148442D01*
X44348Y136040D02*
X45529D01*
X44938Y135449D02*
Y136630D01*
X32537Y277772D02*
X33718D01*
X33127Y277182D02*
Y278363D01*
X32537Y265961D02*
X33718D01*
X33127Y265371D02*
Y266552D01*
X32537Y254150D02*
X33718D01*
X33127Y253560D02*
Y254741D01*
X32537Y242339D02*
X33718D01*
X33127Y241749D02*
Y242930D01*
X32537Y230528D02*
X33718D01*
X33127Y229938D02*
Y231119D01*
X32537Y218717D02*
X33718D01*
X33127Y218127D02*
Y219308D01*
X32537Y206906D02*
X33718D01*
X33127Y206315D02*
Y207497D01*
X32537Y195095D02*
X33718D01*
X33127Y194504D02*
Y195686D01*
X32537Y183284D02*
X33718D01*
X33127Y182694D02*
Y183875D01*
X32537Y171473D02*
X33718D01*
X33127Y170882D02*
Y172064D01*
X32537Y147851D02*
X33718D01*
X33127Y147260D02*
Y148442D01*
X32537Y136040D02*
X33718D01*
X33127Y135449D02*
Y136630D01*
X32537Y124229D02*
X33718D01*
X33127Y123638D02*
Y124820D01*
X20726Y218717D02*
X21907D01*
X21316Y218127D02*
Y219308D01*
X20726Y206906D02*
X21907D01*
X21316Y206315D02*
Y207497D01*
X20726Y195095D02*
X21907D01*
X21316Y194504D02*
Y195686D01*
X20726Y183284D02*
X21907D01*
X21316Y182694D02*
Y183875D01*
X20726Y171473D02*
X21907D01*
X21316Y170882D02*
Y172064D01*
X20726Y147851D02*
X21907D01*
X21316Y147260D02*
Y148442D01*
X20726Y136040D02*
X21907D01*
X21316Y135449D02*
Y136630D01*
X20726Y112418D02*
X21907D01*
X21316Y111827D02*
Y113008D01*
X8915Y277772D02*
X10096D01*
X9505Y277182D02*
Y278363D01*
X8915Y265961D02*
X10096D01*
X9505Y265371D02*
Y266552D01*
X8915Y254150D02*
X10096D01*
X9505Y253560D02*
Y254741D01*
X8915Y242339D02*
X10096D01*
X9505Y241749D02*
Y242930D01*
X8915Y230528D02*
X10096D01*
X9505Y229938D02*
Y231119D01*
X8915Y218717D02*
X10096D01*
X9505Y218127D02*
Y219308D01*
X8915Y206906D02*
X10096D01*
X9505Y206315D02*
Y207497D01*
X8915Y195095D02*
X10096D01*
X9505Y194504D02*
Y195686D01*
X8915Y183284D02*
X10096D01*
X9505Y182694D02*
Y183875D01*
X8915Y171473D02*
X10096D01*
X9505Y170882D02*
Y172064D01*
X504979Y242340D02*
X506160D01*
X505569Y241749D02*
Y242930D01*
X481356Y289584D02*
X482538D01*
X481947Y288993D02*
Y290174D01*
X481356Y281710D02*
X482538D01*
X481947Y281119D02*
Y282300D01*
X481356Y273836D02*
X482538D01*
X481947Y273245D02*
Y274426D01*
X473483Y289584D02*
X474664D01*
X474073Y288993D02*
Y290174D01*
X473483Y281710D02*
X474664D01*
X474073Y281119D02*
Y282300D01*
X473483Y265962D02*
X474664D01*
X474073Y265371D02*
Y266552D01*
X465609Y289584D02*
X466790D01*
X466199Y288993D02*
Y290174D01*
X465609Y281710D02*
X466790D01*
X466199Y281119D02*
Y282300D01*
X457734Y289584D02*
X458916D01*
X458325Y288993D02*
Y290174D01*
X457734Y281710D02*
X458916D01*
X458325Y281119D02*
Y282300D01*
X457734Y258088D02*
X458916D01*
X458325Y257497D02*
Y258678D01*
X449860Y289584D02*
X451042D01*
X450451Y288993D02*
Y290174D01*
X449860Y281710D02*
X451042D01*
X450451Y281119D02*
Y282300D01*
X449860Y258088D02*
X451042D01*
X450451Y257497D02*
Y258678D01*
X449860Y242340D02*
X451042D01*
X450451Y241749D02*
Y242930D01*
X441986Y258088D02*
X443167D01*
X442577Y257497D02*
Y258678D01*
X441986Y242340D02*
X443167D01*
X442577Y241749D02*
Y242930D01*
X410490Y242340D02*
X411671D01*
X411081Y241749D02*
Y242930D01*
X402616Y242340D02*
X403797D01*
X403207Y241749D02*
Y242930D01*
X386868Y273836D02*
X388049D01*
X387459Y273245D02*
Y274426D01*
X386868Y250214D02*
X388049D01*
X387459Y249623D02*
Y250804D01*
X363246Y258088D02*
X364427D01*
X363837Y257497D02*
Y258678D01*
X363246Y250214D02*
X364427D01*
X363837Y249623D02*
Y250804D01*
X355372Y258088D02*
X356553D01*
X355963Y257497D02*
Y258678D01*
X347498Y242340D02*
X348679D01*
X348089Y241749D02*
Y242930D01*
X339624Y265962D02*
X340805D01*
X340215Y265371D02*
Y266552D01*
X339624Y258088D02*
X340805D01*
X340215Y257497D02*
Y258678D01*
X339624Y242340D02*
X340805D01*
X340215Y241749D02*
Y242930D01*
X331750Y289584D02*
X332931D01*
X332341Y288993D02*
Y290174D01*
X331750Y265962D02*
X332931D01*
X332341Y265371D02*
Y266552D01*
X331750Y258088D02*
X332931D01*
X332341Y257497D02*
Y258678D01*
X331750Y242340D02*
X332931D01*
X332341Y241749D02*
Y242930D01*
X323876Y289584D02*
X325057D01*
X324467Y288993D02*
Y290174D01*
X323876Y265962D02*
X325057D01*
X324467Y265371D02*
Y266552D01*
X323876Y258088D02*
X325057D01*
X324467Y257497D02*
Y258678D01*
X316002Y289584D02*
X317183D01*
X316593Y288993D02*
Y290174D01*
X316002Y265962D02*
X317183D01*
X316593Y265371D02*
Y266552D01*
X316002Y258088D02*
X317183D01*
X316593Y257497D02*
Y258678D01*
X316002Y242340D02*
X317183D01*
X316593Y241749D02*
Y242930D01*
X308128Y289584D02*
X309309D01*
X308719Y288993D02*
Y290174D01*
X308128Y265962D02*
X309309D01*
X308719Y265371D02*
Y266552D01*
X308128Y258088D02*
X309309D01*
X308719Y257497D02*
Y258678D01*
X300254Y289584D02*
X301435D01*
X300845Y288993D02*
Y290174D01*
X300254Y265962D02*
X301435D01*
X300845Y265371D02*
Y266552D01*
X292380Y281710D02*
X293561D01*
X292971Y281119D02*
Y282300D01*
X292380Y265962D02*
X293561D01*
X292971Y265371D02*
Y266552D01*
X284506Y289584D02*
X285687D01*
X285097Y288993D02*
Y290174D01*
X284506Y273836D02*
X285687D01*
X285097Y273245D02*
Y274426D01*
X276632Y273836D02*
X277813D01*
X277223Y273245D02*
Y274426D01*
X276632Y265962D02*
X277813D01*
X277223Y265371D02*
Y266552D01*
X268758Y265962D02*
X269939D01*
X269349Y265371D02*
Y266552D01*
X268758Y258088D02*
X269939D01*
X269349Y257497D02*
Y258678D01*
X260884Y289584D02*
X262065D01*
X261474Y288993D02*
Y290174D01*
X260884Y281710D02*
X262065D01*
X261474Y281119D02*
Y282300D01*
X260884Y273836D02*
X262065D01*
X261474Y273245D02*
Y274426D01*
X260884Y258088D02*
X262065D01*
X261474Y257497D02*
Y258678D01*
X253010Y289584D02*
X254191D01*
X253601Y288993D02*
Y290174D01*
X253010Y281710D02*
X254191D01*
X253601Y281119D02*
Y282300D01*
X253010Y273836D02*
X254191D01*
X253601Y273245D02*
Y274426D01*
X253010Y265962D02*
X254191D01*
X253601Y265371D02*
Y266552D01*
X245136Y289584D02*
X246317D01*
X245726Y288993D02*
Y290174D01*
X245136Y281710D02*
X246317D01*
X245726Y281119D02*
Y282300D01*
X245136Y273836D02*
X246317D01*
X245726Y273245D02*
Y274426D01*
X245136Y265962D02*
X246317D01*
X245726Y265371D02*
Y266552D01*
X237262Y289584D02*
X238443D01*
X237852Y288993D02*
Y290174D01*
X237262Y281710D02*
X238443D01*
X237852Y281119D02*
Y282300D01*
X237262Y273836D02*
X238443D01*
X237852Y273245D02*
Y274426D01*
X229388Y289584D02*
X230569D01*
X229978Y288993D02*
Y290174D01*
X229388Y281710D02*
X230569D01*
X229978Y281119D02*
Y282300D01*
X229388Y265962D02*
X230569D01*
X229978Y265371D02*
Y266552D01*
X221514Y289584D02*
X222695D01*
X222104Y288993D02*
Y290174D01*
X221514Y273836D02*
X222695D01*
X222104Y273245D02*
Y274426D01*
X221514Y265962D02*
X222695D01*
X222104Y265371D02*
Y266552D01*
X213640Y289584D02*
X214821D01*
X214230Y288993D02*
Y290174D01*
X213640Y273836D02*
X214821D01*
X214230Y273245D02*
Y274426D01*
X213640Y265962D02*
X214821D01*
X214230Y265371D02*
Y266552D01*
X205766Y289584D02*
X206947D01*
X206356Y288993D02*
Y290174D01*
X197892Y289584D02*
X199073D01*
X198482Y288993D02*
Y290174D01*
X197892Y273836D02*
X199073D01*
X198482Y273245D02*
Y274426D01*
X197892Y265962D02*
X199073D01*
X198482Y265371D02*
Y266552D01*
X197892Y242340D02*
X199073D01*
X198482Y241749D02*
Y242930D01*
X190018Y289584D02*
X191199D01*
X190608Y288993D02*
Y290174D01*
X190018Y273836D02*
X191199D01*
X190608Y273245D02*
Y274426D01*
X190018Y265962D02*
X191199D01*
X190608Y265371D02*
Y266552D01*
X190018Y242340D02*
X191199D01*
X190608Y241749D02*
Y242930D01*
X166396Y289584D02*
X167577D01*
X166986Y288993D02*
Y290174D01*
X166396Y281710D02*
X167577D01*
X166986Y281119D02*
Y282300D01*
X166396Y273836D02*
X167577D01*
X166986Y273245D02*
Y274426D01*
X166396Y265962D02*
X167577D01*
X166986Y265371D02*
Y266552D01*
X166396Y258088D02*
X167577D01*
X166986Y257497D02*
Y258678D01*
X166396Y242340D02*
X167577D01*
X166986Y241749D02*
Y242930D01*
X158522Y289584D02*
X159703D01*
X159112Y288993D02*
Y290174D01*
X158522Y281710D02*
X159703D01*
X159112Y281119D02*
Y282300D01*
X158522Y273836D02*
X159703D01*
X159112Y273245D02*
Y274426D01*
X158522Y265962D02*
X159703D01*
X159112Y265371D02*
Y266552D01*
X158522Y258088D02*
X159703D01*
X159112Y257497D02*
Y258678D01*
X158522Y242340D02*
X159703D01*
X159112Y241749D02*
Y242930D01*
X142774Y289584D02*
X143955D01*
X143364Y288993D02*
Y290174D01*
X142774Y281710D02*
X143955D01*
X143364Y281119D02*
Y282300D01*
X142774Y273836D02*
X143955D01*
X143364Y273245D02*
Y274426D01*
X142774Y265962D02*
X143955D01*
X143364Y265371D02*
Y266552D01*
X142774Y258088D02*
X143955D01*
X143364Y257497D02*
Y258678D01*
X142774Y242340D02*
X143955D01*
X143364Y241749D02*
Y242930D01*
X134900Y289584D02*
X136081D01*
X135490Y288993D02*
Y290174D01*
X134900Y281710D02*
X136081D01*
X135490Y281119D02*
Y282300D01*
X134900Y273836D02*
X136081D01*
X135490Y273245D02*
Y274426D01*
X134900Y265962D02*
X136081D01*
X135490Y265371D02*
Y266552D01*
X134900Y258088D02*
X136081D01*
X135490Y257497D02*
Y258678D01*
X127026Y289584D02*
X128207D01*
X127616Y288993D02*
Y290174D01*
X127026Y281710D02*
X128207D01*
X127616Y281119D02*
Y282300D01*
X127026Y273836D02*
X128207D01*
X127616Y273245D02*
Y274426D01*
X127026Y265962D02*
X128207D01*
X127616Y265371D02*
Y266552D01*
X127026Y258088D02*
X128207D01*
X127616Y257497D02*
Y258678D01*
X127026Y242340D02*
X128207D01*
X127616Y241749D02*
Y242930D01*
X119152Y273836D02*
X120333D01*
X119742Y273245D02*
Y274426D01*
X119152Y265962D02*
X120333D01*
X119742Y265371D02*
Y266552D01*
X119152Y258088D02*
X120333D01*
X119742Y257497D02*
Y258678D01*
X111278Y289584D02*
X112459D01*
X111868Y288993D02*
Y290174D01*
X111278Y265962D02*
X112459D01*
X111868Y265371D02*
Y266552D01*
X103404Y289584D02*
X104585D01*
X103994Y288993D02*
Y290174D01*
X103404Y281710D02*
X104585D01*
X103994Y281119D02*
Y282300D01*
X95530Y289584D02*
X96711D01*
X96120Y288993D02*
Y290174D01*
X95530Y281710D02*
X96711D01*
X96120Y281119D02*
Y282300D01*
X95530Y273836D02*
X96711D01*
X96120Y273245D02*
Y274426D01*
X87656Y289584D02*
X88837D01*
X88246Y288993D02*
Y290174D01*
X87656Y281710D02*
X88837D01*
X88246Y281119D02*
Y282300D01*
X87656Y273836D02*
X88837D01*
X88246Y273245D02*
Y274426D01*
X87656Y265962D02*
X88837D01*
X88246Y265371D02*
Y266552D01*
X79782Y281710D02*
X80963D01*
X80372Y281119D02*
Y282300D01*
X79782Y273836D02*
X80963D01*
X80372Y273245D02*
Y274426D01*
X79782Y265962D02*
X80963D01*
X80372Y265371D02*
Y266552D01*
X79782Y258088D02*
X80963D01*
X80372Y257497D02*
Y258678D01*
X71908Y289584D02*
X73089D01*
X72498Y288993D02*
Y290174D01*
X71908Y273836D02*
X73089D01*
X72498Y273245D02*
Y274426D01*
X71908Y265962D02*
X73089D01*
X72498Y265371D02*
Y266552D01*
X71908Y258088D02*
X73089D01*
X72498Y257497D02*
Y258678D01*
X71908Y242340D02*
X73089D01*
X72498Y241749D02*
Y242930D01*
X64034Y289584D02*
X65215D01*
X64624Y288993D02*
Y290174D01*
X64034Y281710D02*
X65215D01*
X64624Y281119D02*
Y282300D01*
X64034Y265962D02*
X65215D01*
X64624Y265371D02*
Y266552D01*
X64034Y258088D02*
X65215D01*
X64624Y257497D02*
Y258678D01*
X64034Y250214D02*
X65215D01*
X64624Y249623D02*
Y250804D01*
X48285Y273836D02*
X49466D01*
X48876Y273245D02*
Y274426D01*
X48285Y265962D02*
X49466D01*
X48876Y265371D02*
Y266552D01*
X48285Y258088D02*
X49466D01*
X48876Y257497D02*
Y258678D01*
X40411Y273836D02*
X41592D01*
X41002Y273245D02*
Y274426D01*
X40411Y265962D02*
X41592D01*
X41002Y265371D02*
Y266552D01*
X40411Y258088D02*
X41592D01*
X41002Y257497D02*
Y258678D01*
X593560Y183284D02*
X594741D01*
X594151Y182694D02*
Y183875D01*
X593560Y177378D02*
X594741D01*
X594151Y176788D02*
Y177969D01*
X593560Y171473D02*
X594741D01*
X594151Y170882D02*
Y172064D01*
X593560Y165568D02*
X594741D01*
X594151Y164977D02*
Y166158D01*
X593560Y159662D02*
X594741D01*
X594151Y159071D02*
Y160252D01*
X593560Y153756D02*
X594741D01*
X594151Y153166D02*
Y154347D01*
X593560Y147851D02*
X594741D01*
X594151Y147260D02*
Y148442D01*
X593560Y141945D02*
X594741D01*
X594151Y141355D02*
Y142536D01*
X587655Y183284D02*
X588836D01*
X588245Y182694D02*
Y183875D01*
X587655Y177378D02*
X588836D01*
X588245Y176788D02*
Y177969D01*
X587655Y171473D02*
X588836D01*
X588245Y170882D02*
Y172064D01*
X587655Y165568D02*
X588836D01*
X588245Y164977D02*
Y166158D01*
X587655Y159662D02*
X588836D01*
X588245Y159071D02*
Y160252D01*
X587655Y153756D02*
X588836D01*
X588245Y153166D02*
Y154347D01*
X587655Y147851D02*
X588836D01*
X588245Y147260D02*
Y148442D01*
X587655Y141945D02*
X588836D01*
X588245Y141355D02*
Y142536D01*
X587655Y136040D02*
X588836D01*
X588245Y135449D02*
Y136630D01*
X587655Y130134D02*
X588836D01*
X588245Y129544D02*
Y130725D01*
X587655Y124229D02*
X588836D01*
X588245Y123638D02*
Y124820D01*
X587655Y118323D02*
X588836D01*
X588245Y117733D02*
Y118914D01*
X587655Y112418D02*
X588836D01*
X588245Y111827D02*
Y113008D01*
X587655Y106512D02*
X588836D01*
X588245Y105922D02*
Y107103D01*
X587655Y100607D02*
X588836D01*
X588245Y100016D02*
Y101197D01*
X587655Y94701D02*
X588836D01*
X588245Y94111D02*
Y95292D01*
X81525Y223158D02*
X82706D01*
X82116Y222567D02*
Y223748D01*
X323628Y358268D02*
X324809D01*
X324218Y357677D02*
Y358858D01*
X314370Y349961D02*
X315551D01*
X314961Y349370D02*
Y350551D01*
X378445Y375961D02*
X379626D01*
X379035Y375370D02*
Y376551D01*
X347233Y337989D02*
X348414D01*
X347823Y337399D02*
Y338580D01*
X347233Y303922D02*
X348414D01*
X347823Y303331D02*
Y304513D01*
X378445Y308046D02*
X379626D01*
X379035Y307455D02*
Y308636D01*
X347233Y325961D02*
X348414D01*
X347823Y325370D02*
Y326551D01*
X347233Y268518D02*
X348414D01*
X347823Y267928D02*
Y269109D01*
X357677Y315961D02*
X358858D01*
X358268Y315370D02*
Y316551D01*
X378248Y269961D02*
X379429D01*
X378838Y269370D02*
Y270551D01*
X288761Y279790D02*
X289942D01*
X289352Y279200D02*
Y280381D01*
X369488Y272291D02*
X370669D01*
X370079Y271700D02*
Y272881D01*
X267931Y312443D02*
X269112D01*
X268522Y311852D02*
Y313034D01*
X320641Y280237D02*
X321823D01*
X321232Y279647D02*
Y280828D01*
X385423Y327458D02*
X386605D01*
X386014Y326867D02*
Y328048D01*
X369488Y251231D02*
X370669D01*
X370079Y250641D02*
Y251822D01*
X249410Y167323D02*
X250590D01*
X250000Y166732D02*
Y167913D01*
X243504Y228346D02*
X244685D01*
X244094Y227756D02*
Y228937D01*
X378248Y244712D02*
X379429D01*
X378838Y244122D02*
Y245303D01*
X55409Y167323D02*
X56591D01*
X56000Y166732D02*
Y167913D01*
X222974Y208228D02*
X224155D01*
X223565Y207638D02*
Y208819D01*
X520001Y248031D02*
X521182D01*
X520592Y247441D02*
Y248622D01*
X280295Y200304D02*
X281476D01*
X280885Y199713D02*
Y200894D01*
X222974Y279794D02*
X224155D01*
X223565Y279203D02*
Y280384D01*
X378248Y299833D02*
X379429D01*
X378838Y299242D02*
Y300424D01*
X378445Y355961D02*
X379626D01*
X379035Y355370D02*
Y356551D01*
X530905Y145928D02*
X532087D01*
X531496Y145338D02*
Y146519D01*
X282874Y255906D02*
X284055D01*
X283465Y255315D02*
Y256496D01*
X290748Y255906D02*
X291929D01*
X291338Y255315D02*
Y256496D01*
X102040Y248031D02*
X103221D01*
X102631Y247441D02*
Y248622D01*
X102040Y255906D02*
X103221D01*
X102631Y255315D02*
Y256496D01*
X306340Y367600D02*
X307521D01*
X306930Y367009D02*
Y368191D01*
X296286Y367927D02*
X297467D01*
X296877Y367336D02*
Y368517D01*
X286340Y367927D02*
X287521D01*
X286930Y367336D02*
Y368517D01*
X306340Y380652D02*
X307521D01*
X306930Y380061D02*
Y381242D01*
X296286Y380652D02*
X297467D01*
X296877Y380061D02*
Y381242D01*
X286340Y380652D02*
X287521D01*
X286930Y380061D02*
Y381242D01*
X556358Y157178D02*
X557539D01*
X556949Y156587D02*
Y157768D01*
X213976Y165551D02*
X215158D01*
X214567Y164961D02*
Y166142D01*
X532533Y173099D02*
X533714D01*
X533124Y172509D02*
Y173690D01*
X575509Y134541D02*
X576690D01*
X576100Y133951D02*
Y135132D01*
X575560Y146904D02*
X576741D01*
X576151Y146313D02*
Y147494D01*
X540748Y150775D02*
X541929D01*
X541338Y150184D02*
Y151365D01*
X540748Y142775D02*
X541929D01*
X541338Y142184D02*
Y143365D01*
X522815Y145928D02*
X523996D01*
X523406Y145338D02*
Y146519D01*
X169127Y155512D02*
X170308D01*
X169718Y154921D02*
Y156102D01*
X169127Y163321D02*
X170308D01*
X169718Y162731D02*
Y163912D01*
X356793Y155284D02*
X357974D01*
X357383Y154694D02*
Y155875D01*
X356793Y163284D02*
X357974D01*
X357383Y162694D02*
Y163875D01*
X566156Y124815D02*
X567337D01*
X566747Y124225D02*
Y125406D01*
X574156Y124815D02*
X575337D01*
X574747Y124225D02*
Y125406D01*
X588188Y198641D02*
X589369D01*
X588778Y198050D02*
Y199232D01*
X592831Y198641D02*
X594012D01*
X593422Y198050D02*
Y199232D01*
X592912Y194310D02*
X594093D01*
X593502Y193720D02*
Y194901D01*
X588188Y194310D02*
X589369D01*
X588778Y193720D02*
Y194901D01*
X575349Y294301D02*
X576530D01*
X575939Y293710D02*
Y294891D01*
X586698Y260622D02*
X587879D01*
X587289Y260032D02*
Y261213D01*
X587992Y243961D02*
X589173D01*
X588583Y243370D02*
Y244551D01*
X579379Y244033D02*
X580560D01*
X579969Y243442D02*
Y244623D01*
X555956Y265197D02*
X557137D01*
X556547Y264606D02*
Y265787D01*
X572362Y279832D02*
X573543D01*
X572953Y279242D02*
Y280423D01*
X586620Y266269D02*
X587801D01*
X587210Y265678D02*
Y266859D01*
X586698Y274514D02*
X587879D01*
X587289Y273923D02*
Y275104D01*
X348267Y172744D02*
X349448D01*
X348858Y172153D02*
Y173334D01*
X340060Y162596D02*
X341242D01*
X340651Y162005D02*
Y163187D01*
X347758Y162596D02*
X348939D01*
X348348Y162005D02*
Y163187D01*
X371381Y168590D02*
X372562D01*
X371971Y167999D02*
Y169181D01*
X393573Y159449D02*
X394754D01*
X394163Y158858D02*
Y160039D01*
X400736Y165324D02*
X401917D01*
X401327Y164733D02*
Y165914D01*
X370718Y131953D02*
X371899D01*
X371308Y131362D02*
Y132543D01*
X379331Y131953D02*
X380512D01*
X379921Y131362D02*
Y132543D01*
X185610Y168898D02*
X186791D01*
X186201Y168307D02*
Y169488D01*
X159990Y173228D02*
X161171D01*
X160581Y172638D02*
Y173819D01*
X152109Y162859D02*
X153290D01*
X152699Y162269D02*
Y163450D01*
X160026Y162824D02*
X161207D01*
X160617Y162233D02*
Y163414D01*
X207316Y159449D02*
X208497D01*
X207906Y158858D02*
Y160039D01*
X192323Y131047D02*
X193504D01*
X192913Y130457D02*
Y131638D01*
X183787Y131219D02*
X184968D01*
X184378Y130628D02*
Y131809D01*
X83197Y198031D02*
X84378D01*
X83788Y197441D02*
Y198622D01*
X87134Y198031D02*
X88315D01*
X87725Y197441D02*
Y198622D01*
X67136Y188976D02*
X68317D01*
X67726Y188385D02*
Y189567D01*
X127362Y202756D02*
X128543D01*
X127953Y202165D02*
Y203346D01*
X94135Y255906D02*
X95316D01*
X94726Y255315D02*
Y256496D01*
X70276Y222877D02*
X71457D01*
X70866Y222287D02*
Y223468D01*
X85179Y198031D02*
X86361D01*
X85770Y197441D02*
Y198622D01*
X91332Y200304D02*
X92513D01*
X91922Y199713D02*
Y200894D01*
X91307Y195798D02*
X92489D01*
X91898Y195208D02*
Y196389D01*
X91332Y198031D02*
X92513D01*
X91922Y197441D02*
Y198622D01*
X125394Y233972D02*
X126575D01*
X125984Y233382D02*
Y234563D01*
X315171Y233961D02*
X316352D01*
X315761Y233370D02*
Y234551D01*
X94135Y248031D02*
X95316D01*
X94726Y247441D02*
Y248622D01*
X280295Y198031D02*
X281476D01*
X280885Y197441D02*
Y198622D01*
X280270Y195798D02*
X281452D01*
X280861Y195208D02*
Y196389D01*
X273032Y198031D02*
X274213D01*
X273622Y197441D02*
Y198622D01*
X313386Y202756D02*
X314567D01*
X313976Y202165D02*
Y203346D01*
X258283Y188976D02*
X259465D01*
X258874Y188386D02*
Y189567D01*
X271063Y198031D02*
X272244D01*
X271654Y197441D02*
Y198622D01*
X274874Y198031D02*
X276055D01*
X275465Y197441D02*
Y198622D01*
X459966Y223882D02*
X461147D01*
X460557Y223291D02*
Y224472D01*
X449120Y223562D02*
X450302D01*
X449711Y222971D02*
Y224152D01*
X269094Y223158D02*
X270276D01*
X269685Y222567D02*
Y223748D01*
X259252Y223158D02*
X260433D01*
X259842Y222567D02*
Y223748D01*
X290748Y248031D02*
X291929D01*
X291338Y247441D02*
Y248622D01*
X282874Y248031D02*
X284055D01*
X283465Y247441D02*
Y248622D01*
X479724Y247929D02*
X480905D01*
X480315Y247339D02*
Y248520D01*
X472224Y247929D02*
X473406D01*
X472815Y247339D02*
Y248520D01*
X501028Y233961D02*
X502210D01*
X501619Y233370D02*
Y234551D01*
X501457Y203267D02*
X502638D01*
X502047Y202676D02*
Y203857D01*
X448228Y188237D02*
X449409D01*
X448819Y187647D02*
Y188828D01*
X469271Y200107D02*
X470452D01*
X469862Y199517D02*
Y200698D01*
X469247Y195601D02*
X470428D01*
X469837Y195011D02*
Y196192D01*
X469271Y197835D02*
X470452D01*
X469862Y197244D02*
Y198425D01*
X463850Y197835D02*
X465031D01*
X464441Y197244D02*
Y198425D01*
X460039Y197835D02*
X461221D01*
X460630Y197244D02*
Y198425D01*
X462008Y197835D02*
X463189D01*
X462599Y197244D02*
Y198425D01*
X479724Y255906D02*
X480905D01*
X480315Y255315D02*
Y256496D01*
X471866Y255906D02*
X473047D01*
X472457Y255315D02*
Y256496D01*
X501378Y358354D02*
X502559D01*
X501968Y357763D02*
Y358944D01*
X492413Y358268D02*
X493594D01*
X493004Y357677D02*
Y358858D01*
X496654Y358268D02*
X497835D01*
X497244Y357677D02*
Y358858D01*
X644701Y285433D02*
X645882D01*
X645291Y284842D02*
Y286023D01*
X644700Y289370D02*
X645881D01*
X645290Y288779D02*
Y289961D01*
X605709Y281496D02*
X606890D01*
X606299Y280906D02*
Y282087D01*
X605709Y289370D02*
X606890D01*
X606299Y288779D02*
Y289961D01*
X605709Y285433D02*
X606890D01*
X606299Y284842D02*
Y286023D01*
X644700Y281496D02*
X645881D01*
X645290Y280906D02*
Y282087D01*
X622490Y357381D02*
X623671D01*
X623081Y356790D02*
Y357971D01*
X622543Y365779D02*
X623724D01*
X623133Y365188D02*
Y366369D01*
X617520Y365779D02*
X618701D01*
X618110Y365188D02*
Y366369D01*
X622543Y371165D02*
X623724D01*
X623133Y370574D02*
Y371755D01*
X654921Y340488D02*
X656102D01*
X655512Y339898D02*
Y341079D01*
X626279Y342520D02*
X627461D01*
X626870Y341929D02*
Y343110D01*
X607283Y101047D02*
X608464D01*
X607874Y100457D02*
Y101638D01*
X607283Y120803D02*
X608464D01*
X607874Y120213D02*
Y121394D01*
X607283Y151575D02*
X608465D01*
X607874Y150984D02*
Y152165D01*
X607283Y172047D02*
X608465D01*
X607874Y171457D02*
Y172638D01*
X618307Y192913D02*
X619488D01*
X618898Y192323D02*
Y193504D01*
X623031Y192913D02*
X624213D01*
X623622Y192323D02*
Y193504D01*
X622951Y197244D02*
X624132D01*
X623541Y196653D02*
Y197835D01*
X618307Y197244D02*
X619488D01*
X618898Y196653D02*
Y197835D01*
X286417Y224803D02*
X287598D01*
X287008Y224213D02*
Y225394D01*
X286417Y220472D02*
X287598D01*
X287008Y219882D02*
Y221063D01*
X286417Y216142D02*
X287598D01*
X287008Y215551D02*
Y216732D01*
X290748Y224803D02*
X291929D01*
X291338Y224213D02*
Y225394D01*
X290748Y220472D02*
X291929D01*
X291338Y219882D02*
Y221063D01*
X290748Y216142D02*
X291929D01*
X291338Y215551D02*
Y216732D01*
X295079Y224803D02*
X296260D01*
X295669Y224213D02*
Y225394D01*
X295079Y220472D02*
X296260D01*
X295669Y219882D02*
Y221063D01*
X295079Y216142D02*
X296260D01*
X295669Y215551D02*
Y216732D01*
X484055Y216142D02*
X485236D01*
X484646Y215551D02*
Y216732D01*
X484055Y220472D02*
X485236D01*
X484646Y219882D02*
Y221063D01*
X484055Y224803D02*
X485236D01*
X484646Y224213D02*
Y225394D01*
X479724Y216142D02*
X480905D01*
X480315Y215551D02*
Y216732D01*
X479724Y220472D02*
X480905D01*
X480315Y219882D02*
Y221063D01*
X479724Y224803D02*
X480905D01*
X480315Y224213D02*
Y225394D01*
X475394Y216142D02*
X476575D01*
X475984Y215551D02*
Y216732D01*
X475394Y220472D02*
X476575D01*
X475984Y219882D02*
Y221063D01*
X475394Y224803D02*
X476575D01*
X475984Y224213D02*
Y225394D01*
X97441Y224803D02*
X98622D01*
X98032Y224213D02*
Y225394D01*
X97441Y220472D02*
X98622D01*
X98032Y219882D02*
Y221063D01*
X97441Y216142D02*
X98622D01*
X98032Y215551D02*
Y216732D01*
X101772Y224803D02*
X102953D01*
X102362Y224213D02*
Y225394D01*
X101772Y220472D02*
X102953D01*
X102362Y219882D02*
Y221063D01*
X101772Y216142D02*
X102953D01*
X102362Y215551D02*
Y216732D01*
X106102Y224803D02*
X107283D01*
X106693Y224213D02*
Y225394D01*
X106102Y220472D02*
X107283D01*
X106693Y219882D02*
Y221063D01*
X106102Y216142D02*
X107283D01*
X106693Y215551D02*
Y216732D01*
M02*
