G04*
G04 #@! TF.GenerationSoftware,Altium Limited,Altium Designer,21.0.8 (223)*
G04*
G04 Layer_Color=128*
%FSLAX25Y25*%
%MOIN*%
G70*
G04*
G04 #@! TF.SameCoordinates,9B631218-273A-463D-9665-DA23E21FF141*
G04*
G04*
G04 #@! TF.FilePolarity,Positive*
G04*
G01*
G75*
%ADD17R,0.10000X0.08000*%
%ADD18R,0.05347X0.05347*%
%ADD19R,0.08000X0.06000*%
%ADD20R,0.06724X0.06331*%
%ADD21R,0.06331X0.06724*%
%ADD22R,0.08000X0.10000*%
%ADD24R,0.06000X0.08000*%
%ADD25R,0.38600X0.45600*%
%ADD27R,0.05347X0.05347*%
%ADD29C,0.06724*%
%ADD34R,0.03969X0.03969*%
%ADD38R,0.01181X0.02559*%
%ADD39R,0.03969X0.03969*%
%ADD86R,0.36600X0.43600*%
%ADD154R,0.01968X0.02362*%
%ADD155R,0.01969X0.02362*%
%ADD156R,0.01968X0.02362*%
%ADD157R,0.05906X0.02165*%
%ADD158R,0.13811X0.13811*%
%ADD159O,0.04362X0.07709*%
%ADD160R,0.05937X0.04362*%
%ADD161R,0.10000X0.05937*%
%ADD162R,0.06900X0.14500*%
%ADD163R,0.12630X0.08299*%
%ADD164O,0.05740X0.02984*%
%ADD165R,0.08693X0.12630*%
%ADD166O,0.02984X0.05740*%
%ADD167O,0.07315X0.03181*%
G04:AMPARAMS|DCode=168|XSize=79.06mil|YSize=59.37mil|CornerRadius=19.84mil|HoleSize=0mil|Usage=FLASHONLY|Rotation=270.000|XOffset=0mil|YOffset=0mil|HoleType=Round|Shape=RoundedRectangle|*
%AMROUNDEDRECTD168*
21,1,0.07906,0.01968,0,0,270.0*
21,1,0.03937,0.05937,0,0,270.0*
1,1,0.03969,-0.00984,-0.01968*
1,1,0.03969,-0.00984,0.01968*
1,1,0.03969,0.00984,0.01968*
1,1,0.03969,0.00984,-0.01968*
%
%ADD168ROUNDEDRECTD168*%
%ADD169C,0.05937*%
G04:AMPARAMS|DCode=170|XSize=79.06mil|YSize=59.37mil|CornerRadius=19.84mil|HoleSize=0mil|Usage=FLASHONLY|Rotation=0.000|XOffset=0mil|YOffset=0mil|HoleType=Round|Shape=RoundedRectangle|*
%AMROUNDEDRECTD170*
21,1,0.07906,0.01968,0,0,0.0*
21,1,0.03937,0.05937,0,0,0.0*
1,1,0.03969,0.01968,-0.00984*
1,1,0.03969,-0.01968,-0.00984*
1,1,0.03969,-0.01968,0.00984*
1,1,0.03969,0.01968,0.00984*
%
%ADD170ROUNDEDRECTD170*%
%ADD171R,0.03181X0.04559*%
%ADD172R,0.03969X0.05937*%
D17*
X634646Y196862D02*
D03*
Y207862D02*
D03*
X449711Y212562D02*
D03*
Y223562D02*
D03*
X460877Y212562D02*
D03*
Y223562D02*
D03*
X70866Y211035D02*
D03*
Y222035D02*
D03*
X81492Y211035D02*
D03*
Y222035D02*
D03*
X269685Y211035D02*
D03*
Y222035D02*
D03*
X259843Y211035D02*
D03*
Y222036D02*
D03*
D18*
X626870Y342520D02*
D03*
X632972D02*
D03*
X384941Y260012D02*
D03*
X378839D02*
D03*
X384941Y270018D02*
D03*
X378838D02*
D03*
X441831Y263779D02*
D03*
X447933D02*
D03*
X384941Y279960D02*
D03*
X378838D02*
D03*
X384941Y289961D02*
D03*
X378838D02*
D03*
X326102Y300000D02*
D03*
X320000D02*
D03*
X441831Y272291D02*
D03*
X447933D02*
D03*
X535236Y295275D02*
D03*
X541338D02*
D03*
X563051Y157178D02*
D03*
X556949D02*
D03*
X563051Y135035D02*
D03*
X556949D02*
D03*
X185630Y145669D02*
D03*
X191732D02*
D03*
X186201Y168898D02*
D03*
X192303D02*
D03*
X306949Y300000D02*
D03*
X313051D02*
D03*
X324218Y336415D02*
D03*
X318116D02*
D03*
X324218Y343540D02*
D03*
X318116D02*
D03*
X384941Y315823D02*
D03*
X378838D02*
D03*
X384941Y355961D02*
D03*
X378838D02*
D03*
X384941Y365865D02*
D03*
X378838D02*
D03*
X378073Y168590D02*
D03*
X371971D02*
D03*
X378621Y145442D02*
D03*
X372518D02*
D03*
X268602Y336415D02*
D03*
X274705D02*
D03*
X268749Y342834D02*
D03*
X274851D02*
D03*
X255197Y341922D02*
D03*
X261300D02*
D03*
X255197Y349286D02*
D03*
X261300D02*
D03*
X274624Y349286D02*
D03*
X268522D02*
D03*
D19*
X246959Y345834D02*
D03*
Y353834D02*
D03*
X589243Y243795D02*
D03*
Y235795D02*
D03*
X573534Y243795D02*
D03*
Y235795D02*
D03*
X581232Y243795D02*
D03*
Y235795D02*
D03*
X655512Y348488D02*
D03*
Y340488D02*
D03*
X607938Y102983D02*
D03*
Y110983D02*
D03*
X607830Y130887D02*
D03*
Y122887D02*
D03*
X575255Y116826D02*
D03*
Y124826D02*
D03*
X494714Y225961D02*
D03*
Y233961D02*
D03*
X503791Y226037D02*
D03*
Y234037D02*
D03*
X607955Y175354D02*
D03*
Y183354D02*
D03*
X465341Y255929D02*
D03*
Y247929D02*
D03*
X472815Y247969D02*
D03*
Y255969D02*
D03*
X480315Y247969D02*
D03*
Y255969D02*
D03*
X488189D02*
D03*
Y247969D02*
D03*
X587289Y260622D02*
D03*
Y252622D02*
D03*
Y274514D02*
D03*
Y266514D02*
D03*
X541338Y150775D02*
D03*
Y142775D02*
D03*
X607874Y151906D02*
D03*
Y159906D02*
D03*
X446850Y108237D02*
D03*
Y116237D02*
D03*
X496063Y108237D02*
D03*
Y116237D02*
D03*
X541339Y108237D02*
D03*
Y116237D02*
D03*
X437008Y118047D02*
D03*
Y126047D02*
D03*
X485906Y118047D02*
D03*
Y126047D02*
D03*
X531496Y118047D02*
D03*
Y126047D02*
D03*
X566246Y116826D02*
D03*
Y124826D02*
D03*
X23579Y108237D02*
D03*
Y116237D02*
D03*
X12565Y118508D02*
D03*
Y126508D02*
D03*
X68996Y108237D02*
D03*
Y116237D02*
D03*
X59153Y118047D02*
D03*
Y126047D02*
D03*
X107953Y118047D02*
D03*
Y126047D02*
D03*
X86614Y255969D02*
D03*
Y247969D02*
D03*
X102362Y255969D02*
D03*
Y247969D02*
D03*
X110712Y255968D02*
D03*
Y247968D02*
D03*
X118110Y108237D02*
D03*
Y116237D02*
D03*
X163386Y108237D02*
D03*
Y116237D02*
D03*
X154213Y118047D02*
D03*
Y126047D02*
D03*
X169718Y163512D02*
D03*
Y155512D02*
D03*
X184378Y123047D02*
D03*
Y131047D02*
D03*
X192913Y123047D02*
D03*
Y131047D02*
D03*
X212598Y108237D02*
D03*
Y116237D02*
D03*
X257874Y108237D02*
D03*
Y116237D02*
D03*
X307086Y108237D02*
D03*
Y116237D02*
D03*
X202416Y118047D02*
D03*
Y126047D02*
D03*
X248032Y118047D02*
D03*
Y126047D02*
D03*
X296899Y118047D02*
D03*
Y126047D02*
D03*
X125984Y225972D02*
D03*
Y233972D02*
D03*
X117413Y225974D02*
D03*
Y233974D02*
D03*
X275590Y255968D02*
D03*
Y247969D02*
D03*
X283839D02*
D03*
Y255968D02*
D03*
X306039Y225961D02*
D03*
Y233961D02*
D03*
X315761Y225961D02*
D03*
Y233961D02*
D03*
X291338Y247969D02*
D03*
Y255968D02*
D03*
X298839Y255969D02*
D03*
Y247969D02*
D03*
X260641Y296927D02*
D03*
Y304927D02*
D03*
X357383Y163284D02*
D03*
Y155284D02*
D03*
X371308Y131953D02*
D03*
Y123953D02*
D03*
X352362Y108237D02*
D03*
Y116237D02*
D03*
X342520Y118047D02*
D03*
Y126047D02*
D03*
X379921Y123953D02*
D03*
Y131953D02*
D03*
X401575Y108237D02*
D03*
Y116237D02*
D03*
X391417Y118047D02*
D03*
Y126047D02*
D03*
X286629Y359600D02*
D03*
Y367600D02*
D03*
X306930Y359600D02*
D03*
Y367600D02*
D03*
X296877Y359600D02*
D03*
Y367600D02*
D03*
X94862Y247969D02*
D03*
Y255969D02*
D03*
X99667Y282742D02*
D03*
Y290742D02*
D03*
D20*
X339096Y324561D02*
D03*
Y316293D02*
D03*
D21*
X256605Y356724D02*
D03*
X264872D02*
D03*
D22*
X578152Y306226D02*
D03*
X567152D02*
D03*
X483484Y196850D02*
D03*
X472484D02*
D03*
X105488Y196850D02*
D03*
X94488Y196964D02*
D03*
X294339Y196850D02*
D03*
X283339D02*
D03*
D24*
X577731Y399046D02*
D03*
X569731D02*
D03*
X84620Y391173D02*
D03*
X76620D02*
D03*
X616205Y342520D02*
D03*
X608205D02*
D03*
X548547Y241472D02*
D03*
X556547D02*
D03*
X548499Y249817D02*
D03*
X556499D02*
D03*
X548547Y265197D02*
D03*
X556547D02*
D03*
X548484Y273514D02*
D03*
X556484D02*
D03*
X631133Y365779D02*
D03*
X623133D02*
D03*
X564785Y280000D02*
D03*
X572785D02*
D03*
X565089Y288124D02*
D03*
X573089D02*
D03*
X455201Y110236D02*
D03*
X463201D02*
D03*
X549319Y110108D02*
D03*
X557319D02*
D03*
X503874Y110236D02*
D03*
X511874D02*
D03*
X31973Y110236D02*
D03*
X39973D02*
D03*
X37402Y179214D02*
D03*
X45402D02*
D03*
X77201Y110236D02*
D03*
X85201D02*
D03*
X42361Y240024D02*
D03*
X50361D02*
D03*
X125921Y110236D02*
D03*
X133921D02*
D03*
X171315D02*
D03*
X179315D02*
D03*
X220409D02*
D03*
X228410D02*
D03*
X266201D02*
D03*
X274201D02*
D03*
X314898Y110236D02*
D03*
X322898D02*
D03*
X232598Y178709D02*
D03*
X240598D02*
D03*
X292000Y300000D02*
D03*
X300000D02*
D03*
X267710Y321452D02*
D03*
X275711D02*
D03*
X325421Y316560D02*
D03*
X317421D02*
D03*
X325421Y326375D02*
D03*
X317421D02*
D03*
X360445Y110236D02*
D03*
X368445D02*
D03*
X409386D02*
D03*
X417386D02*
D03*
X38736Y282372D02*
D03*
X46736D02*
D03*
D25*
X646507Y112626D02*
D03*
D27*
X647638Y341437D02*
D03*
Y347539D02*
D03*
X641732Y341437D02*
D03*
Y347539D02*
D03*
X663386Y347539D02*
D03*
Y341437D02*
D03*
X600394Y346591D02*
D03*
Y340488D02*
D03*
X576100Y134541D02*
D03*
Y140644D02*
D03*
X547244Y310138D02*
D03*
Y304035D02*
D03*
X647638Y361319D02*
D03*
Y355217D02*
D03*
X576159Y153014D02*
D03*
Y146912D02*
D03*
X207842Y165551D02*
D03*
Y159449D02*
D03*
X214567Y165551D02*
D03*
Y159449D02*
D03*
X92116Y283037D02*
D03*
Y289140D02*
D03*
X286930Y380652D02*
D03*
Y386754D02*
D03*
X306930Y380652D02*
D03*
Y386754D02*
D03*
X296877Y380652D02*
D03*
Y386754D02*
D03*
X401265Y165298D02*
D03*
Y159196D02*
D03*
X331270Y337517D02*
D03*
Y343620D02*
D03*
X434447Y397693D02*
D03*
Y391591D02*
D03*
X394391Y159221D02*
D03*
Y165323D02*
D03*
X42207Y254449D02*
D03*
Y248347D02*
D03*
X50305Y254449D02*
D03*
Y248347D02*
D03*
D29*
X597638Y131102D02*
D03*
X604331Y216142D02*
D03*
D34*
X228450Y309412D02*
D03*
X230650Y303412D02*
D03*
X238932Y309462D02*
D03*
X241132Y303462D02*
D03*
D38*
X437008Y108957D02*
D03*
Y103642D02*
D03*
X485906Y108957D02*
D03*
Y103642D02*
D03*
X531496Y108957D02*
D03*
Y103642D02*
D03*
X12565Y109418D02*
D03*
Y104103D02*
D03*
X59153Y108957D02*
D03*
Y103642D02*
D03*
X107953Y108957D02*
D03*
Y103642D02*
D03*
X154213Y108957D02*
D03*
Y103642D02*
D03*
X202441Y108957D02*
D03*
Y103642D02*
D03*
X248032Y108957D02*
D03*
Y103642D02*
D03*
X296929Y108957D02*
D03*
Y103642D02*
D03*
X391417Y108957D02*
D03*
Y103642D02*
D03*
X342520Y108957D02*
D03*
Y103642D02*
D03*
D39*
X264941Y386494D02*
D03*
X258941Y384294D02*
D03*
Y375511D02*
D03*
X264941Y377711D02*
D03*
D86*
X646505Y165354D02*
D03*
D154*
X536222Y309432D02*
D03*
X532482Y301558D02*
D03*
X539962D02*
D03*
D155*
X542207Y172418D02*
D03*
D156*
X538467Y164543D02*
D03*
X545948D02*
D03*
X180906Y173226D02*
D03*
X173425D02*
D03*
X177166Y181100D02*
D03*
X363289Y180876D02*
D03*
X359549Y173002D02*
D03*
X367029D02*
D03*
D157*
X285370Y341375D02*
D03*
Y336375D02*
D03*
Y331375D02*
D03*
Y326375D02*
D03*
Y321375D02*
D03*
Y316375D02*
D03*
Y311375D02*
D03*
X306630Y311375D02*
D03*
Y316375D02*
D03*
Y321375D02*
D03*
Y326375D02*
D03*
Y331375D02*
D03*
Y336375D02*
D03*
Y341375D02*
D03*
D158*
X102362Y220472D02*
D03*
X291339D02*
D03*
X480315D02*
D03*
D159*
X109862Y209744D02*
D03*
X104862D02*
D03*
X99862D02*
D03*
X94862D02*
D03*
X109862Y231201D02*
D03*
X104862D02*
D03*
X99862D02*
D03*
X94862D02*
D03*
X283839D02*
D03*
X288839D02*
D03*
X293839D02*
D03*
X298839D02*
D03*
X283839Y209744D02*
D03*
X288839D02*
D03*
X293839D02*
D03*
X298839D02*
D03*
X487815D02*
D03*
X482815D02*
D03*
X477815D02*
D03*
X472815D02*
D03*
X487815Y231201D02*
D03*
X482815D02*
D03*
X477815D02*
D03*
X472815D02*
D03*
D160*
X623081Y349900D02*
D03*
Y353641D02*
D03*
Y357381D02*
D03*
X633908D02*
D03*
Y353641D02*
D03*
Y349900D02*
D03*
D161*
X584646Y70866D02*
D03*
X568898D02*
D03*
X203126Y70866D02*
D03*
X187378D02*
D03*
X376665Y70866D02*
D03*
X392413D02*
D03*
D162*
X589322D02*
D03*
X564222D02*
D03*
X207802Y70866D02*
D03*
X182702D02*
D03*
X371989Y70866D02*
D03*
X397089D02*
D03*
D163*
X621654Y196850D02*
D03*
Y207874D02*
D03*
X626378Y305906D02*
D03*
Y294882D02*
D03*
D164*
X576398Y268482D02*
D03*
X563602Y262577D02*
D03*
X576398D02*
D03*
Y254703D02*
D03*
Y256671D02*
D03*
Y258640D02*
D03*
Y260608D02*
D03*
Y264545D02*
D03*
Y266514D02*
D03*
X563602Y268482D02*
D03*
Y266514D02*
D03*
Y264545D02*
D03*
Y260608D02*
D03*
Y258640D02*
D03*
Y256671D02*
D03*
Y254703D02*
D03*
D165*
X570000Y261593D02*
D03*
D166*
X567047Y252833D02*
D03*
X572953D02*
D03*
Y270352D02*
D03*
X567047D02*
D03*
D167*
X551240Y148872D02*
D03*
Y140998D02*
D03*
Y142967D02*
D03*
Y144935D02*
D03*
Y146904D02*
D03*
X568760Y140998D02*
D03*
Y142967D02*
D03*
Y144935D02*
D03*
Y146904D02*
D03*
Y148872D02*
D03*
X179921Y161417D02*
D03*
X197441D02*
D03*
Y159449D02*
D03*
Y157480D02*
D03*
Y155512D02*
D03*
Y153543D02*
D03*
X179921Y159449D02*
D03*
Y157480D02*
D03*
Y155512D02*
D03*
Y153543D02*
D03*
X366340Y161417D02*
D03*
X383860D02*
D03*
Y159449D02*
D03*
Y157480D02*
D03*
Y155512D02*
D03*
Y153543D02*
D03*
X366340Y159449D02*
D03*
Y157480D02*
D03*
Y155512D02*
D03*
Y153543D02*
D03*
D168*
X112047Y368393D02*
D03*
X66929Y296488D02*
D03*
X82677Y296457D02*
D03*
X95550Y368898D02*
D03*
D169*
X112047Y361700D02*
D03*
X223228Y384646D02*
D03*
X224100Y329961D02*
D03*
X66929Y303181D02*
D03*
X82677Y303150D02*
D03*
X95550Y362205D02*
D03*
D170*
X216535Y384646D02*
D03*
X217407Y329961D02*
D03*
D171*
X316930Y381046D02*
D03*
Y386361D02*
D03*
X326860Y386360D02*
D03*
Y381046D02*
D03*
X336930Y381046D02*
D03*
Y386360D02*
D03*
D172*
X223733Y343026D02*
D03*
X215888D02*
D03*
M02*
