G04*
G04 #@! TF.GenerationSoftware,Altium Limited,Altium Designer,20.2.6 (244)*
G04*
G04 Layer_Color=32896*
%FSLAX24Y24*%
%MOIN*%
G70*
G04*
G04 #@! TF.SameCoordinates,10E2E559-7701-499E-A428-1A66D90B70A8*
G04*
G04*
G04 #@! TF.FilePolarity,Positive*
G04*
G01*
G75*
%ADD10C,0.0098*%
%ADD12C,0.0060*%
%ADD13C,0.0100*%
%ADD14C,0.0080*%
%ADD15C,0.0120*%
%ADD16C,0.0079*%
%ADD18C,0.0039*%
%ADD171C,0.0236*%
%ADD172C,0.0059*%
G36*
X35134Y28216D02*
X35135Y28216D01*
X35152Y28215D01*
X35171Y28213D01*
X35189Y28211D01*
X35190Y28211D01*
X35208Y28210D01*
X35226Y28208D01*
X35243Y28206D01*
X35245Y28206D01*
X35261Y28205D01*
X35280Y28204D01*
X35302Y28204D01*
X35325Y28203D01*
X35347Y28203D01*
X35369Y28204D01*
X35387Y28204D01*
X35401Y28205D01*
X35410Y28206D01*
X35415Y28207D01*
X35425Y28211D01*
X35431Y28215D01*
X35434Y28218D01*
X35437Y28219D01*
X35441Y28215D01*
X35447Y28204D01*
X35448Y28194D01*
X35442Y28185D01*
X35440Y28184D01*
X35437Y28182D01*
X35432Y28181D01*
X35426Y28180D01*
X35416Y28180D01*
X35404Y28181D01*
X35388Y28182D01*
X35367Y28183D01*
X35340Y28186D01*
X35308Y28188D01*
X35291Y28190D01*
X35272Y28191D01*
X35259Y28192D01*
X35250Y28191D01*
X35245Y28189D01*
X35243Y28186D01*
X35243Y28181D01*
X35246Y28174D01*
X35248Y28168D01*
X35255Y28151D01*
X35266Y28128D01*
X35280Y28102D01*
X35296Y28071D01*
X35315Y28036D01*
X35335Y27998D01*
X35358Y27958D01*
X35383Y27915D01*
X35409Y27871D01*
X35436Y27825D01*
X35448Y27805D01*
X35471Y27766D01*
X35490Y27733D01*
X35505Y27705D01*
X35518Y27681D01*
X35528Y27661D01*
X35534Y27646D01*
X35538Y27635D01*
X35539Y27627D01*
X35538Y27619D01*
X35533Y27608D01*
X35522Y27600D01*
X35506Y27594D01*
X35485Y27591D01*
X35457Y27591D01*
X35424Y27593D01*
X35400Y27595D01*
X35381Y27597D01*
X35367Y27598D01*
X35358Y27600D01*
X35352Y27603D01*
X35350Y27605D01*
X35350Y27605D01*
X35353Y27607D01*
X35363Y27609D01*
X35377Y27611D01*
X35384Y27611D01*
X35405Y27614D01*
X35421Y27617D01*
X35432Y27623D01*
X35442Y27630D01*
X35444Y27633D01*
X35448Y27639D01*
X35450Y27647D01*
X35451Y27659D01*
X35451Y27663D01*
X35450Y27673D01*
X35447Y27683D01*
X35442Y27694D01*
X35435Y27710D01*
X35430Y27719D01*
X35419Y27740D01*
X35406Y27765D01*
X35390Y27795D01*
X35371Y27828D01*
X35352Y27863D01*
X35330Y27901D01*
X35308Y27940D01*
X35285Y27980D01*
X35262Y28020D01*
X35239Y28060D01*
X35216Y28098D01*
X35195Y28134D01*
X35187Y28147D01*
X35174Y28167D01*
X35164Y28182D01*
X35157Y28192D01*
X35151Y28197D01*
X35143Y28200D01*
X35129Y28203D01*
X35112Y28206D01*
X35093Y28208D01*
X35075Y28209D01*
X35059Y28208D01*
X35053Y28208D01*
X35025Y28202D01*
X35002Y28192D01*
X34983Y28177D01*
X34973Y28165D01*
X34965Y28150D01*
X34960Y28132D01*
X34959Y28109D01*
X34959Y28095D01*
X34962Y28070D01*
X34969Y28045D01*
X34981Y28018D01*
X34986Y28007D01*
X35009Y27973D01*
X35036Y27943D01*
X35068Y27918D01*
X35104Y27898D01*
X35118Y27892D01*
X35140Y27884D01*
X35162Y27879D01*
X35186Y27877D01*
X35214Y27877D01*
X35230Y27878D01*
X35244Y27879D01*
X35256Y27880D01*
X35262Y27881D01*
X35268Y27882D01*
X35269Y27878D01*
X35269Y27877D01*
X35264Y27873D01*
X35253Y27869D01*
X35235Y27866D01*
X35211Y27864D01*
X35196Y27864D01*
X35152Y27867D01*
X35108Y27876D01*
X35065Y27890D01*
X35025Y27910D01*
X34988Y27934D01*
X34970Y27949D01*
X34946Y27974D01*
X34925Y28002D01*
X34909Y28031D01*
X34898Y28060D01*
X34898Y28060D01*
X34894Y28082D01*
X34894Y28106D01*
X34897Y28128D01*
X34904Y28148D01*
X34912Y28162D01*
X34930Y28180D01*
X34952Y28195D01*
X34980Y28207D01*
X35012Y28215D01*
X35049Y28219D01*
X35090Y28220D01*
X35134Y28216D01*
D02*
G37*
G36*
X34054Y28098D02*
X34068Y28092D01*
X34079Y28081D01*
X34086Y28067D01*
X34089Y28052D01*
X34089Y28047D01*
X34085Y28039D01*
X34078Y28035D01*
X34069Y28035D01*
X34058Y28038D01*
X34048Y28045D01*
X34038Y28055D01*
X34031Y28068D01*
X34027Y28081D01*
X34028Y28091D01*
X34034Y28097D01*
X34046Y28100D01*
X34054Y28098D01*
D02*
G37*
G36*
X32104Y28210D02*
X32148Y28204D01*
X32192Y28195D01*
X32233Y28183D01*
X32276Y28166D01*
X32324Y28141D01*
X32370Y28110D01*
X32413Y28073D01*
X32453Y28033D01*
X32489Y27988D01*
X32520Y27940D01*
X32547Y27889D01*
X32569Y27836D01*
X32576Y27812D01*
X32585Y27777D01*
X32589Y27746D01*
X32589Y27718D01*
X32584Y27692D01*
X32575Y27668D01*
X32572Y27664D01*
X32556Y27639D01*
X32535Y27620D01*
X32510Y27604D01*
X32479Y27592D01*
X32444Y27584D01*
X32403Y27581D01*
X32389Y27580D01*
X32349Y27582D01*
X32312Y27588D01*
X32274Y27598D01*
X32252Y27606D01*
X32214Y27624D01*
X32175Y27645D01*
X32137Y27669D01*
X32102Y27695D01*
X32097Y27699D01*
X32087Y27706D01*
X32080Y27711D01*
X32077Y27712D01*
X32076Y27710D01*
X32078Y27705D01*
X32082Y27695D01*
X32089Y27681D01*
X32099Y27662D01*
X32113Y27638D01*
X32129Y27609D01*
X32147Y27579D01*
X32181Y27523D01*
X32214Y27472D01*
X32246Y27427D01*
X32259Y27410D01*
X32277Y27389D01*
X32296Y27367D01*
X32316Y27346D01*
X32336Y27326D01*
X32354Y27309D01*
X32371Y27295D01*
X32384Y27285D01*
X32398Y27276D01*
X32432Y27258D01*
X32464Y27246D01*
X32495Y27241D01*
X32525Y27241D01*
X32556Y27246D01*
X32558Y27246D01*
X32570Y27250D01*
X32580Y27252D01*
X32586Y27253D01*
X32588Y27253D01*
X32591Y27250D01*
X32590Y27247D01*
X32584Y27242D01*
X32572Y27238D01*
X32556Y27235D01*
X32535Y27233D01*
X32511Y27232D01*
X32501Y27232D01*
X32470Y27233D01*
X32442Y27237D01*
X32414Y27245D01*
X32386Y27255D01*
X32371Y27262D01*
X32346Y27275D01*
X32322Y27289D01*
X32299Y27306D01*
X32275Y27326D01*
X32252Y27348D01*
X32229Y27373D01*
X32205Y27402D01*
X32181Y27435D01*
X32156Y27471D01*
X32130Y27512D01*
X32102Y27558D01*
X32073Y27609D01*
X32042Y27665D01*
X32010Y27726D01*
X31975Y27794D01*
X31967Y27808D01*
X31955Y27832D01*
X31944Y27851D01*
X31935Y27866D01*
X31928Y27876D01*
X31922Y27884D01*
X31915Y27889D01*
X31909Y27893D01*
X31903Y27895D01*
X31895Y27898D01*
X31893Y27903D01*
X31894Y27908D01*
X31898Y27908D01*
X31899Y27908D01*
X31914Y27905D01*
X31934Y27901D01*
X31960Y27898D01*
X31989Y27895D01*
X32021Y27892D01*
X32056Y27889D01*
X32092Y27888D01*
X32103Y27887D01*
X32121Y27886D01*
X32133Y27885D01*
X32141Y27884D01*
X32146Y27882D01*
X32148Y27880D01*
X32148Y27878D01*
X32147Y27873D01*
X32147Y27873D01*
X32142Y27872D01*
X32132Y27872D01*
X32117Y27873D01*
X32099Y27874D01*
X32079Y27876D01*
X32071Y27876D01*
X32048Y27878D01*
X32031Y27879D01*
X32019Y27879D01*
X32011Y27878D01*
X32006Y27875D01*
X32005Y27871D01*
X32005Y27865D01*
X32008Y27858D01*
X32013Y27842D01*
X32027Y27815D01*
X32046Y27786D01*
X32069Y27757D01*
X32096Y27728D01*
X32126Y27701D01*
X32158Y27675D01*
X32191Y27653D01*
X32224Y27634D01*
X32254Y27619D01*
X32287Y27607D01*
X32318Y27598D01*
X32350Y27593D01*
X32383Y27592D01*
X32390Y27592D01*
X32416Y27593D01*
X32438Y27596D01*
X32456Y27601D01*
X32474Y27608D01*
X32492Y27619D01*
X32509Y27635D01*
X32521Y27654D01*
X32528Y27678D01*
X32530Y27705D01*
X32529Y27722D01*
X32523Y27759D01*
X32512Y27799D01*
X32496Y27841D01*
X32474Y27887D01*
X32447Y27935D01*
X32437Y27952D01*
X32401Y28005D01*
X32366Y28050D01*
X32329Y28090D01*
X32292Y28123D01*
X32253Y28150D01*
X32213Y28170D01*
X32172Y28185D01*
X32130Y28194D01*
X32086Y28196D01*
X32056Y28195D01*
X32021Y28189D01*
X31989Y28178D01*
X31961Y28163D01*
X31938Y28145D01*
X31927Y28134D01*
X31917Y28121D01*
X31911Y28107D01*
X31908Y28091D01*
X31908Y28070D01*
X31908Y28068D01*
X31907Y28052D01*
X31906Y28043D01*
X31904Y28040D01*
X31904Y28040D01*
X31900Y28043D01*
X31896Y28051D01*
X31889Y28065D01*
X31882Y28086D01*
X31873Y28112D01*
X31872Y28113D01*
X31867Y28128D01*
X31863Y28141D01*
X31860Y28151D01*
X31859Y28155D01*
X31859Y28156D01*
X31863Y28161D01*
X31871Y28168D01*
X31880Y28176D01*
X31890Y28182D01*
X31907Y28190D01*
X31940Y28200D01*
X31977Y28207D01*
X32018Y28211D01*
X32060Y28212D01*
X32104Y28210D01*
D02*
G37*
G36*
X34123Y27903D02*
X34135Y27900D01*
X34149Y27895D01*
X34155Y27893D01*
X34174Y27887D01*
X34193Y27882D01*
X34209Y27878D01*
X34222Y27874D01*
X34234Y27870D01*
X34239Y27865D01*
X34238Y27861D01*
X34238Y27861D01*
X34232Y27861D01*
X34222Y27862D01*
X34209Y27865D01*
X34206Y27865D01*
X34194Y27868D01*
X34186Y27869D01*
X34181Y27868D01*
X34179Y27866D01*
X34178Y27864D01*
X34177Y27862D01*
X34176Y27859D01*
X34176Y27855D01*
X34177Y27850D01*
X34180Y27843D01*
X34184Y27833D01*
X34190Y27820D01*
X34197Y27803D01*
X34207Y27782D01*
X34220Y27756D01*
X34235Y27724D01*
X34252Y27687D01*
X34275Y27640D01*
X34297Y27595D01*
X34319Y27550D01*
X34341Y27508D01*
X34361Y27468D01*
X34381Y27430D01*
X34399Y27397D01*
X34415Y27367D01*
X34429Y27341D01*
X34441Y27321D01*
X34450Y27306D01*
X34452Y27304D01*
X34463Y27290D01*
X34479Y27273D01*
X34497Y27254D01*
X34516Y27236D01*
X34536Y27218D01*
X34558Y27199D01*
X34580Y27178D01*
X34598Y27159D01*
X34612Y27142D01*
X34620Y27128D01*
X34623Y27116D01*
X34623Y27116D01*
X34621Y27106D01*
X34619Y27095D01*
X34617Y27090D01*
X34614Y27085D01*
X34609Y27083D01*
X34603Y27085D01*
X34594Y27092D01*
X34581Y27103D01*
X34566Y27119D01*
X34565Y27119D01*
X34550Y27136D01*
X34532Y27156D01*
X34515Y27177D01*
X34500Y27195D01*
X34496Y27200D01*
X34484Y27216D01*
X34473Y27230D01*
X34462Y27243D01*
X34450Y27256D01*
X34438Y27269D01*
X34424Y27282D01*
X34407Y27297D01*
X34389Y27314D01*
X34367Y27333D01*
X34341Y27354D01*
X34312Y27379D01*
X34278Y27408D01*
X34269Y27415D01*
X34223Y27453D01*
X34181Y27488D01*
X34145Y27519D01*
X34112Y27547D01*
X34083Y27572D01*
X34058Y27595D01*
X34037Y27615D01*
X34019Y27633D01*
X34003Y27649D01*
X33990Y27664D01*
X33979Y27677D01*
X33970Y27690D01*
X33963Y27702D01*
X33957Y27714D01*
X33952Y27726D01*
X33948Y27738D01*
X33947Y27741D01*
X33944Y27757D01*
X33944Y27775D01*
X33945Y27792D01*
X33949Y27808D01*
X33954Y27820D01*
X33960Y27828D01*
X33961Y27828D01*
X33967Y27830D01*
X33968Y27826D01*
X33964Y27818D01*
X33963Y27815D01*
X33960Y27799D01*
X33960Y27780D01*
X33965Y27758D01*
X33974Y27734D01*
X33986Y27711D01*
X33997Y27695D01*
X34016Y27669D01*
X34040Y27640D01*
X34068Y27609D01*
X34100Y27577D01*
X34134Y27544D01*
X34171Y27510D01*
X34177Y27505D01*
X34190Y27494D01*
X34208Y27479D01*
X34228Y27462D01*
X34251Y27443D01*
X34275Y27424D01*
X34300Y27403D01*
X34325Y27383D01*
X34349Y27364D01*
X34371Y27346D01*
X34390Y27330D01*
X34407Y27317D01*
X34419Y27308D01*
X34428Y27301D01*
X34421Y27313D01*
X34419Y27316D01*
X34413Y27325D01*
X34405Y27339D01*
X34394Y27356D01*
X34382Y27376D01*
X34368Y27398D01*
X34354Y27421D01*
X34348Y27430D01*
X34328Y27462D01*
X34311Y27491D01*
X34295Y27517D01*
X34280Y27542D01*
X34266Y27567D01*
X34252Y27591D01*
X34238Y27617D01*
X34224Y27644D01*
X34208Y27674D01*
X34191Y27707D01*
X34171Y27745D01*
X34150Y27788D01*
X34137Y27813D01*
X34125Y27837D01*
X34116Y27856D01*
X34109Y27872D01*
X34104Y27883D01*
X34102Y27891D01*
X34102Y27897D01*
X34103Y27901D01*
X34106Y27903D01*
X34111Y27905D01*
X34114Y27905D01*
X34123Y27903D01*
D02*
G37*
G36*
X32979Y28113D02*
X32986Y28110D01*
X32997Y28106D01*
X33011Y28101D01*
X33025Y28096D01*
X33039Y28090D01*
X33051Y28085D01*
X33059Y28081D01*
X33064Y28076D01*
X33073Y28066D01*
X33085Y28049D01*
X33100Y28027D01*
X33117Y27998D01*
X33138Y27965D01*
X33161Y27926D01*
X33170Y27911D01*
X33179Y27898D01*
X33186Y27889D01*
X33191Y27885D01*
X33193Y27885D01*
X33201Y27884D01*
X33213Y27883D01*
X33227Y27883D01*
X33233Y27883D01*
X33246Y27883D01*
X33255Y27881D01*
X33260Y27879D01*
X33265Y27876D01*
X33270Y27869D01*
X33273Y27864D01*
X33272Y27862D01*
X33269Y27860D01*
X33263Y27860D01*
X33252Y27860D01*
X33236Y27861D01*
X33198Y27863D01*
X33206Y27851D01*
X33216Y27834D01*
X33240Y27791D01*
X33260Y27752D01*
X33276Y27719D01*
X33287Y27690D01*
X33294Y27666D01*
X33296Y27647D01*
X33295Y27637D01*
X33291Y27621D01*
X33283Y27608D01*
X33273Y27599D01*
X33264Y27595D01*
X33245Y27591D01*
X33222Y27591D01*
X33196Y27595D01*
X33168Y27602D01*
X33139Y27612D01*
X33110Y27626D01*
X33101Y27631D01*
X33086Y27640D01*
X33076Y27647D01*
X33071Y27652D01*
X33071Y27656D01*
X33071Y27656D01*
X33075Y27656D01*
X33085Y27652D01*
X33099Y27644D01*
X33116Y27635D01*
X33141Y27624D01*
X33164Y27617D01*
X33185Y27615D01*
X33202Y27616D01*
X33215Y27622D01*
X33220Y27626D01*
X33227Y27633D01*
X33230Y27643D01*
X33232Y27655D01*
X33232Y27673D01*
X33231Y27679D01*
X33230Y27693D01*
X33227Y27706D01*
X33223Y27720D01*
X33218Y27736D01*
X33210Y27755D01*
X33199Y27778D01*
X33186Y27805D01*
X33156Y27865D01*
X33135Y27867D01*
X33130Y27868D01*
X33116Y27869D01*
X33098Y27870D01*
X33078Y27871D01*
X33058Y27871D01*
X33045Y27872D01*
X33025Y27873D01*
X33007Y27873D01*
X32993Y27874D01*
X32983Y27875D01*
X32977Y27876D01*
X32969Y27878D01*
X32966Y27880D01*
X32967Y27880D01*
X32975Y27881D01*
X32987Y27882D01*
X33005Y27882D01*
X33027Y27883D01*
X33053Y27883D01*
X33074Y27883D01*
X33097Y27883D01*
X33114Y27883D01*
X33126Y27884D01*
X33134Y27885D01*
X33138Y27886D01*
X33139Y27887D01*
X33138Y27892D01*
X33133Y27901D01*
X33125Y27915D01*
X33116Y27931D01*
X33104Y27950D01*
X33092Y27970D01*
X33079Y27991D01*
X33066Y28012D01*
X33053Y28031D01*
X33041Y28049D01*
X33031Y28064D01*
X33022Y28075D01*
X33016Y28082D01*
X33012Y28085D01*
X33002Y28092D01*
X32990Y28099D01*
X32980Y28104D01*
X32974Y28108D01*
X32973Y28112D01*
X32977Y28113D01*
X32979Y28113D01*
D02*
G37*
G36*
X34835Y27899D02*
X34841Y27894D01*
X34847Y27885D01*
X34848Y27883D01*
X34853Y27875D01*
X34861Y27861D01*
X34871Y27844D01*
X34883Y27823D01*
X34896Y27800D01*
X34911Y27775D01*
X34926Y27748D01*
X34935Y27733D01*
X34949Y27708D01*
X34963Y27684D01*
X34974Y27663D01*
X34984Y27645D01*
X34992Y27631D01*
X34997Y27621D01*
X34999Y27616D01*
X34997Y27609D01*
X34992Y27601D01*
X34985Y27595D01*
X34977Y27593D01*
X34977Y27594D01*
X34973Y27597D01*
X34966Y27607D01*
X34957Y27621D01*
X34945Y27639D01*
X34931Y27661D01*
X34914Y27689D01*
X34899Y27713D01*
X34886Y27733D01*
X34875Y27750D01*
X34864Y27764D01*
X34854Y27777D01*
X34843Y27789D01*
X34831Y27801D01*
X34825Y27808D01*
X34804Y27825D01*
X34784Y27839D01*
X34765Y27850D01*
X34747Y27856D01*
X34746Y27857D01*
X34728Y27857D01*
X34711Y27852D01*
X34696Y27842D01*
X34692Y27838D01*
X34687Y27834D01*
X34684Y27834D01*
X34681Y27838D01*
X34678Y27843D01*
X34672Y27852D01*
X34665Y27863D01*
X34659Y27872D01*
X34654Y27880D01*
X34653Y27884D01*
X34653Y27884D01*
X34656Y27888D01*
X34662Y27893D01*
X34668Y27897D01*
X34676Y27899D01*
X34688Y27899D01*
X34705Y27895D01*
X34726Y27887D01*
X34749Y27875D01*
X34774Y27860D01*
X34798Y27842D01*
X34822Y27821D01*
X34829Y27815D01*
X34839Y27807D01*
X34845Y27802D01*
X34848Y27801D01*
X34848Y27803D01*
X34844Y27811D01*
X34838Y27821D01*
X34831Y27834D01*
X34825Y27845D01*
X34818Y27858D01*
X34813Y27869D01*
X34812Y27875D01*
X34813Y27881D01*
X34818Y27890D01*
X34826Y27897D01*
X34833Y27900D01*
X34835Y27899D01*
D02*
G37*
G36*
X34370Y27948D02*
X34381Y27946D01*
X34392Y27943D01*
X34402Y27939D01*
X34403Y27939D01*
X34409Y27932D01*
X34416Y27923D01*
X34421Y27913D01*
X34423Y27905D01*
X34425Y27901D01*
X34432Y27898D01*
X34450Y27894D01*
X34474Y27885D01*
X34496Y27876D01*
X34520Y27862D01*
X34545Y27842D01*
X34569Y27819D01*
X34592Y27793D01*
X34612Y27765D01*
X34630Y27736D01*
X34644Y27707D01*
X34655Y27678D01*
X34661Y27651D01*
X34662Y27627D01*
X34662Y27625D01*
X34660Y27614D01*
X34656Y27606D01*
X34650Y27599D01*
X34645Y27596D01*
X34630Y27589D01*
X34612Y27587D01*
X34592Y27591D01*
X34586Y27593D01*
X34571Y27599D01*
X34549Y27613D01*
X34527Y27630D01*
X34504Y27651D01*
X34482Y27676D01*
X34461Y27704D01*
X34441Y27735D01*
X34423Y27768D01*
X34409Y27796D01*
X34399Y27784D01*
X34398Y27784D01*
X34379Y27767D01*
X34357Y27756D01*
X34333Y27751D01*
X34307Y27753D01*
X34305Y27753D01*
X34282Y27759D01*
X34261Y27770D01*
X34239Y27785D01*
X34217Y27805D01*
X34207Y27816D01*
X34198Y27825D01*
X34192Y27833D01*
X34189Y27836D01*
X34190Y27838D01*
X34192Y27839D01*
X34198Y27836D01*
X34208Y27827D01*
X34221Y27814D01*
X34239Y27796D01*
X34261Y27779D01*
X34283Y27769D01*
X34306Y27764D01*
X34319Y27764D01*
X34339Y27767D01*
X34354Y27777D01*
X34366Y27791D01*
X34375Y27812D01*
X34375Y27813D01*
X34378Y27832D01*
X34379Y27856D01*
X34378Y27880D01*
X34374Y27904D01*
X34368Y27924D01*
X34367Y27926D01*
X34363Y27937D01*
X34361Y27945D01*
X34361Y27949D01*
X34363Y27949D01*
X34370Y27948D01*
D02*
G37*
G36*
X30990Y27894D02*
X30995Y27887D01*
X31004Y27875D01*
X31013Y27860D01*
X31024Y27841D01*
X31036Y27820D01*
X31049Y27797D01*
X31061Y27773D01*
X31074Y27750D01*
X31085Y27727D01*
X31095Y27706D01*
X31104Y27687D01*
X31110Y27671D01*
X31114Y27659D01*
X31115Y27654D01*
X31118Y27634D01*
X31116Y27618D01*
X31109Y27607D01*
X31097Y27600D01*
X31081Y27598D01*
X31078Y27598D01*
X31059Y27602D01*
X31041Y27610D01*
X31022Y27623D01*
X31002Y27642D01*
X30994Y27650D01*
X30986Y27658D01*
X30982Y27662D01*
X30981Y27661D01*
X30984Y27653D01*
X30987Y27638D01*
X30990Y27623D01*
X30991Y27609D01*
X30991Y27598D01*
X30990Y27593D01*
X30984Y27576D01*
X30975Y27565D01*
X30961Y27558D01*
X30942Y27556D01*
X30933Y27557D01*
X30911Y27560D01*
X30888Y27568D01*
X30863Y27582D01*
X30835Y27600D01*
X30823Y27610D01*
X30807Y27624D01*
X30789Y27641D01*
X30769Y27660D01*
X30750Y27680D01*
X30732Y27699D01*
X30716Y27717D01*
X30704Y27733D01*
X30699Y27740D01*
X30689Y27755D01*
X30683Y27765D01*
X30682Y27771D01*
X30686Y27773D01*
X30688Y27771D01*
X30693Y27765D01*
X30700Y27756D01*
X30709Y27744D01*
X30719Y27732D01*
X30733Y27715D01*
X30751Y27696D01*
X30770Y27676D01*
X30789Y27656D01*
X30809Y27637D01*
X30827Y27621D01*
X30843Y27607D01*
X30855Y27598D01*
X30855Y27598D01*
X30880Y27584D01*
X30901Y27574D01*
X30919Y27570D01*
X30934Y27571D01*
X30945Y27576D01*
X30948Y27579D01*
X30951Y27584D01*
X30953Y27591D01*
X30953Y27602D01*
X30953Y27618D01*
X30952Y27625D01*
X30949Y27642D01*
X30943Y27661D01*
X30936Y27681D01*
X30928Y27699D01*
X30923Y27708D01*
X30914Y27722D01*
X30902Y27740D01*
X30887Y27762D01*
X30868Y27789D01*
X30860Y27800D01*
X30852Y27813D01*
X30845Y27824D01*
X30842Y27831D01*
X30842Y27833D01*
X30841Y27845D01*
X30843Y27858D01*
X30847Y27869D01*
X30853Y27877D01*
X30859Y27880D01*
X30861Y27879D01*
X30864Y27877D01*
X30868Y27873D01*
X30873Y27867D01*
X30879Y27858D01*
X30887Y27845D01*
X30897Y27827D01*
X30909Y27805D01*
X30924Y27778D01*
X30926Y27776D01*
X30942Y27747D01*
X30955Y27724D01*
X30967Y27704D01*
X30978Y27688D01*
X30988Y27674D01*
X30998Y27661D01*
X31009Y27648D01*
X31022Y27635D01*
X31036Y27624D01*
X31049Y27618D01*
X31060Y27617D01*
X31066Y27618D01*
X31069Y27620D01*
X31071Y27625D01*
X31072Y27635D01*
X31072Y27643D01*
X31071Y27654D01*
X31067Y27666D01*
X31061Y27682D01*
X31055Y27696D01*
X31041Y27723D01*
X31025Y27754D01*
X31006Y27788D01*
X30984Y27823D01*
X30982Y27826D01*
X30973Y27840D01*
X30966Y27852D01*
X30961Y27861D01*
X30958Y27865D01*
X30958Y27867D01*
X30961Y27874D01*
X30966Y27881D01*
X30974Y27889D01*
X30981Y27894D01*
X30987Y27896D01*
X30990Y27894D01*
D02*
G37*
G36*
X33764Y27900D02*
X33786Y27893D01*
X33809Y27882D01*
X33832Y27867D01*
X33856Y27848D01*
X33878Y27825D01*
X33899Y27800D01*
X33900Y27799D01*
X33916Y27776D01*
X33930Y27751D01*
X33942Y27725D01*
X33951Y27699D01*
X33958Y27675D01*
X33962Y27653D01*
X33961Y27635D01*
X33961Y27632D01*
X33955Y27615D01*
X33946Y27602D01*
X33933Y27594D01*
X33915Y27590D01*
X33891Y27588D01*
X33873Y27589D01*
X33838Y27596D01*
X33801Y27610D01*
X33763Y27629D01*
X33725Y27654D01*
X33686Y27685D01*
X33647Y27722D01*
X33639Y27730D01*
X33627Y27742D01*
X33618Y27752D01*
X33612Y27759D01*
X33609Y27763D01*
X33610Y27766D01*
X33613Y27767D01*
X33619Y27763D01*
X33628Y27754D01*
X33641Y27741D01*
X33669Y27712D01*
X33699Y27686D01*
X33729Y27663D01*
X33758Y27644D01*
X33787Y27630D01*
X33814Y27619D01*
X33839Y27614D01*
X33862Y27613D01*
X33881Y27618D01*
X33887Y27621D01*
X33897Y27632D01*
X33903Y27648D01*
X33906Y27668D01*
X33904Y27691D01*
X33899Y27717D01*
X33895Y27734D01*
X33891Y27747D01*
X33886Y27755D01*
X33880Y27760D01*
X33873Y27763D01*
X33867Y27764D01*
X33862Y27764D01*
X33848Y27766D01*
X33815Y27774D01*
X33786Y27785D01*
X33761Y27800D01*
X33740Y27818D01*
X33725Y27838D01*
X33716Y27860D01*
X33714Y27868D01*
X33714Y27882D01*
X33718Y27892D01*
X33728Y27898D01*
X33745Y27902D01*
X33764Y27900D01*
D02*
G37*
G36*
X33425Y27901D02*
X33428Y27901D01*
X33442Y27896D01*
X33459Y27888D01*
X33478Y27878D01*
X33496Y27866D01*
X33513Y27854D01*
X33514Y27853D01*
X33539Y27831D01*
X33561Y27807D01*
X33582Y27780D01*
X33599Y27753D01*
X33614Y27726D01*
X33625Y27700D01*
X33632Y27675D01*
X33635Y27652D01*
X33633Y27633D01*
X33631Y27628D01*
X33622Y27613D01*
X33608Y27600D01*
X33592Y27593D01*
X33577Y27590D01*
X33558Y27590D01*
X33537Y27592D01*
X33517Y27595D01*
X33499Y27599D01*
X33480Y27607D01*
X33452Y27622D01*
X33421Y27642D01*
X33390Y27666D01*
X33358Y27694D01*
X33326Y27725D01*
X33295Y27758D01*
X33285Y27769D01*
X33277Y27780D01*
X33271Y27787D01*
X33269Y27790D01*
X33269Y27791D01*
X33272Y27793D01*
X33277Y27790D01*
X33286Y27782D01*
X33297Y27770D01*
X33298Y27769D01*
X33308Y27758D01*
X33321Y27744D01*
X33336Y27728D01*
X33350Y27714D01*
X33353Y27711D01*
X33385Y27682D01*
X33416Y27658D01*
X33445Y27638D01*
X33473Y27623D01*
X33498Y27613D01*
X33521Y27609D01*
X33541Y27610D01*
X33558Y27616D01*
X33566Y27622D01*
X33573Y27631D01*
X33578Y27642D01*
X33580Y27656D01*
X33580Y27676D01*
X33580Y27682D01*
X33577Y27714D01*
X33569Y27745D01*
X33559Y27774D01*
X33545Y27800D01*
X33528Y27824D01*
X33510Y27843D01*
X33490Y27857D01*
X33469Y27866D01*
X33447Y27870D01*
X33441Y27870D01*
X33432Y27868D01*
X33425Y27865D01*
X33417Y27858D01*
X33415Y27856D01*
X33410Y27849D01*
X33407Y27842D01*
X33406Y27832D01*
X33406Y27818D01*
X33407Y27805D01*
X33397Y27813D01*
X33382Y27826D01*
X33372Y27840D01*
X33367Y27855D01*
X33367Y27870D01*
X33373Y27882D01*
X33383Y27893D01*
X33399Y27900D01*
X33402Y27900D01*
X33414Y27902D01*
X33425Y27901D01*
D02*
G37*
G36*
X31141Y27899D02*
X31158Y27895D01*
X31179Y27887D01*
X31202Y27875D01*
X31227Y27860D01*
X31252Y27842D01*
X31276Y27821D01*
X31283Y27815D01*
X31292Y27807D01*
X31299Y27802D01*
X31302Y27801D01*
X31301Y27804D01*
X31298Y27811D01*
X31292Y27822D01*
X31285Y27835D01*
X31280Y27843D01*
X31272Y27859D01*
X31268Y27871D01*
X31267Y27880D01*
X31269Y27887D01*
X31275Y27893D01*
X31284Y27898D01*
X31291Y27899D01*
X31296Y27894D01*
X31304Y27880D01*
X31318Y27857D01*
X31332Y27832D01*
X31347Y27806D01*
X31362Y27780D01*
X31377Y27753D01*
X31392Y27727D01*
X31406Y27702D01*
X31419Y27679D01*
X31430Y27658D01*
X31439Y27641D01*
X31446Y27627D01*
X31451Y27618D01*
X31453Y27614D01*
X31451Y27608D01*
X31445Y27601D01*
X31438Y27595D01*
X31431Y27593D01*
X31429Y27595D01*
X31423Y27601D01*
X31415Y27612D01*
X31405Y27628D01*
X31393Y27648D01*
X31371Y27684D01*
X31351Y27716D01*
X31332Y27744D01*
X31315Y27767D01*
X31299Y27787D01*
X31284Y27804D01*
X31269Y27818D01*
X31253Y27830D01*
X31236Y27841D01*
X31223Y27848D01*
X31202Y27855D01*
X31182Y27857D01*
X31165Y27853D01*
X31150Y27842D01*
X31146Y27838D01*
X31140Y27834D01*
X31137Y27834D01*
X31135Y27838D01*
X31131Y27843D01*
X31126Y27852D01*
X31119Y27863D01*
X31112Y27872D01*
X31108Y27880D01*
X31106Y27884D01*
X31106Y27884D01*
X31109Y27888D01*
X31115Y27893D01*
X31121Y27897D01*
X31129Y27899D01*
X31141Y27899D01*
D02*
G37*
G36*
X31528Y27938D02*
X31546Y27933D01*
X31562Y27925D01*
X31573Y27914D01*
X31574Y27913D01*
X31580Y27906D01*
X31586Y27903D01*
X31601Y27902D01*
X31623Y27897D01*
X31647Y27889D01*
X31673Y27879D01*
X31697Y27866D01*
X31720Y27853D01*
X31727Y27847D01*
X31746Y27832D01*
X31766Y27814D01*
X31786Y27794D01*
X31804Y27774D01*
X31819Y27756D01*
X31825Y27748D01*
X31842Y27722D01*
X31857Y27697D01*
X31868Y27673D01*
X31876Y27650D01*
X31880Y27630D01*
X31881Y27614D01*
X31878Y27601D01*
X31871Y27592D01*
X31869Y27591D01*
X31862Y27590D01*
X31851Y27590D01*
X31845Y27590D01*
X31828Y27594D01*
X31819Y27598D01*
X31809Y27603D01*
X31788Y27616D01*
X31765Y27635D01*
X31739Y27659D01*
X31710Y27688D01*
X31676Y27725D01*
X31687Y27701D01*
X31691Y27692D01*
X31704Y27663D01*
X31711Y27636D01*
X31714Y27614D01*
X31712Y27596D01*
X31705Y27582D01*
X31693Y27572D01*
X31687Y27569D01*
X31671Y27567D01*
X31653Y27568D01*
X31634Y27571D01*
X31616Y27576D01*
X31607Y27580D01*
X31577Y27595D01*
X31545Y27616D01*
X31512Y27642D01*
X31478Y27672D01*
X31443Y27705D01*
X31409Y27742D01*
X31400Y27752D01*
X31389Y27765D01*
X31381Y27776D01*
X31375Y27785D01*
X31373Y27789D01*
X31373Y27789D01*
X31373Y27792D01*
X31375Y27792D01*
X31379Y27789D01*
X31386Y27782D01*
X31395Y27771D01*
X31408Y27756D01*
X31426Y27737D01*
X31454Y27707D01*
X31483Y27679D01*
X31513Y27653D01*
X31541Y27631D01*
X31567Y27613D01*
X31591Y27599D01*
X31605Y27593D01*
X31623Y27588D01*
X31640Y27586D01*
X31653Y27588D01*
X31662Y27592D01*
X31664Y27595D01*
X31669Y27605D01*
X31670Y27618D01*
X31667Y27636D01*
X31662Y27657D01*
X31652Y27683D01*
X31639Y27714D01*
X31623Y27749D01*
X31603Y27789D01*
X31578Y27834D01*
X31548Y27890D01*
X31520Y27889D01*
X31519Y27888D01*
X31505Y27888D01*
X31496Y27888D01*
X31493Y27890D01*
X31494Y27893D01*
X31501Y27896D01*
X31512Y27899D01*
X31525Y27900D01*
X31529Y27900D01*
X31536Y27901D01*
X31539Y27902D01*
X31538Y27906D01*
X31533Y27913D01*
X31527Y27923D01*
X31515Y27940D01*
X31528Y27938D01*
D02*
G37*
G36*
X29879Y28535D02*
X29898Y28532D01*
X29927Y28524D01*
X29958Y28510D01*
X29991Y28490D01*
X30025Y28467D01*
X30025Y28466D01*
X30056Y28441D01*
X30089Y28410D01*
X30123Y28374D01*
X30159Y28333D01*
X30196Y28288D01*
X30234Y28239D01*
X30272Y28187D01*
X30310Y28132D01*
X30348Y28075D01*
X30385Y28016D01*
X30421Y27955D01*
X30430Y27940D01*
X30439Y27925D01*
X30446Y27914D01*
X30452Y27906D01*
X30455Y27903D01*
X30459Y27902D01*
X30469Y27900D01*
X30483Y27896D01*
X30498Y27891D01*
X30514Y27886D01*
X30528Y27881D01*
X30539Y27876D01*
X30573Y27857D01*
X30608Y27832D01*
X30643Y27801D01*
X30675Y27764D01*
X30705Y27724D01*
X30715Y27709D01*
X30728Y27688D01*
X30737Y27670D01*
X30743Y27654D01*
X30746Y27639D01*
X30747Y27623D01*
X30747Y27618D01*
X30745Y27604D01*
X30740Y27596D01*
X30730Y27591D01*
X30715Y27590D01*
X30706Y27590D01*
X30691Y27595D01*
X30678Y27602D01*
X30674Y27603D01*
X30656Y27616D01*
X30636Y27633D01*
X30614Y27655D01*
X30589Y27681D01*
X30560Y27714D01*
X30551Y27725D01*
X30542Y27734D01*
X30537Y27741D01*
X30534Y27743D01*
X30534Y27742D01*
X30537Y27736D01*
X30541Y27726D01*
X30546Y27714D01*
X30555Y27695D01*
X30569Y27658D01*
X30578Y27626D01*
X30582Y27597D01*
X30581Y27572D01*
X30576Y27551D01*
X30566Y27535D01*
X30551Y27523D01*
X30532Y27516D01*
X30530Y27516D01*
X30506Y27514D01*
X30480Y27519D01*
X30453Y27529D01*
X30426Y27545D01*
X30399Y27566D01*
X30372Y27592D01*
X30346Y27623D01*
X30326Y27649D01*
X30328Y27627D01*
X30329Y27615D01*
X30329Y27607D01*
X30327Y27601D01*
X30323Y27597D01*
X30314Y27591D01*
X30300Y27589D01*
X30283Y27592D01*
X30270Y27597D01*
X30264Y27599D01*
X30257Y27603D01*
X30235Y27617D01*
X30211Y27635D01*
X30186Y27658D01*
X30160Y27684D01*
X30135Y27713D01*
X30122Y27728D01*
X30134Y27704D01*
X30141Y27690D01*
X30149Y27668D01*
X30156Y27647D01*
X30161Y27629D01*
X30163Y27616D01*
X30163Y27614D01*
X30160Y27596D01*
X30152Y27582D01*
X30139Y27572D01*
X30123Y27567D01*
X30102Y27567D01*
X30079Y27572D01*
X30077Y27572D01*
X30048Y27584D01*
X30017Y27601D01*
X29984Y27623D01*
X29949Y27651D01*
X29913Y27683D01*
X29877Y27720D01*
X29840Y27761D01*
X29840Y27761D01*
X29828Y27775D01*
X29821Y27785D01*
X29819Y27791D01*
X29822Y27793D01*
X29824Y27792D01*
X29829Y27786D01*
X29837Y27778D01*
X29847Y27767D01*
X29852Y27761D01*
X29885Y27725D01*
X29917Y27692D01*
X29950Y27663D01*
X29981Y27637D01*
X30010Y27616D01*
X30037Y27600D01*
X30045Y27597D01*
X30065Y27590D01*
X30083Y27587D01*
X30098Y27587D01*
X30109Y27592D01*
X30112Y27595D01*
X30116Y27600D01*
X30117Y27607D01*
X30117Y27618D01*
X30116Y27630D01*
X30113Y27647D01*
X30108Y27665D01*
X30103Y27677D01*
X30096Y27695D01*
X30085Y27718D01*
X30074Y27743D01*
X30061Y27769D01*
X30047Y27796D01*
X30033Y27822D01*
X30020Y27846D01*
X29997Y27888D01*
X29970Y27888D01*
X29965Y27888D01*
X29952Y27888D01*
X29945Y27889D01*
X29943Y27891D01*
X29944Y27894D01*
X29950Y27897D01*
X29961Y27899D01*
X29975Y27900D01*
X29976Y27900D01*
X29983Y27901D01*
X29986Y27903D01*
X29985Y27906D01*
X29981Y27913D01*
X29976Y27922D01*
X29972Y27928D01*
X29968Y27935D01*
X29967Y27939D01*
X29972Y27939D01*
X29980Y27938D01*
X29991Y27934D01*
X30002Y27929D01*
X30012Y27924D01*
X30018Y27919D01*
X30019Y27917D01*
X30024Y27911D01*
X30026Y27907D01*
X30026Y27906D01*
X30031Y27904D01*
X30041Y27902D01*
X30053Y27900D01*
X30082Y27894D01*
X30119Y27880D01*
X30155Y27861D01*
X30191Y27835D01*
X30227Y27802D01*
X30231Y27797D01*
X30243Y27786D01*
X30254Y27776D01*
X30262Y27770D01*
X30266Y27768D01*
X30269Y27766D01*
X30275Y27759D01*
X30281Y27750D01*
X30306Y27704D01*
X30334Y27659D01*
X30362Y27621D01*
X30389Y27589D01*
X30417Y27563D01*
X30444Y27545D01*
X30470Y27533D01*
X30497Y27527D01*
X30507Y27527D01*
X30524Y27529D01*
X30536Y27536D01*
X30545Y27547D01*
X30547Y27553D01*
X30550Y27569D01*
X30549Y27588D01*
X30547Y27611D01*
X30541Y27634D01*
X30532Y27661D01*
X30518Y27699D01*
X30500Y27742D01*
X30478Y27788D01*
X30453Y27838D01*
X30425Y27890D01*
X30394Y27946D01*
X30361Y28003D01*
X30358Y28007D01*
X30336Y28044D01*
X30312Y28082D01*
X30288Y28120D01*
X30264Y28158D01*
X30239Y28195D01*
X30216Y28230D01*
X30194Y28263D01*
X30174Y28292D01*
X30155Y28317D01*
X30140Y28336D01*
X30135Y28343D01*
X30111Y28370D01*
X30087Y28395D01*
X30062Y28419D01*
X30037Y28439D01*
X30014Y28456D01*
X29994Y28468D01*
X29978Y28475D01*
X29956Y28481D01*
X29933Y28484D01*
X29911Y28485D01*
X29892Y28483D01*
X29876Y28478D01*
X29868Y28474D01*
X29861Y28473D01*
X29855Y28476D01*
X29849Y28484D01*
X29841Y28498D01*
X29839Y28502D01*
X29834Y28513D01*
X29831Y28521D01*
X29831Y28526D01*
X29831Y28526D01*
X29837Y28530D01*
X29848Y28534D01*
X29863Y28536D01*
X29879Y28535D01*
D02*
G37*
G36*
X32812Y26942D02*
X32826Y26939D01*
X32864Y26929D01*
X32902Y26915D01*
X32937Y26901D01*
X32967Y26887D01*
X32987Y26875D01*
X32994Y26866D01*
X32994Y26860D01*
X32986Y26855D01*
X32970Y26859D01*
X32942Y26872D01*
X32923Y26881D01*
X32871Y26892D01*
X32812Y26893D01*
X32753Y26883D01*
X32716Y26876D01*
X32660Y26870D01*
X32590Y26868D01*
X32539Y26866D01*
X32477Y26859D01*
X32424Y26847D01*
X32375Y26827D01*
X32325Y26799D01*
X32297Y26782D01*
X32280Y26773D01*
X32272Y26773D01*
X32269Y26779D01*
X32271Y26782D01*
X32282Y26796D01*
X32305Y26814D01*
X32334Y26835D01*
X32368Y26857D01*
X32404Y26878D01*
X32438Y26896D01*
X32442Y26898D01*
X32532Y26931D01*
X32626Y26950D01*
X32720Y26954D01*
X32812Y26942D01*
D02*
G37*
G36*
X32873Y26858D02*
X32912Y26858D01*
X32940Y26856D01*
X32960Y26853D01*
X32976Y26848D01*
X32992Y26840D01*
X33015Y26825D01*
X33032Y26810D01*
X33038Y26805D01*
X33042Y26800D01*
X33055Y26785D01*
X33061Y26770D01*
X33061Y26768D01*
X33052Y26763D01*
X33032Y26767D01*
X33003Y26779D01*
X32996Y26783D01*
X32974Y26793D01*
X32964Y26795D01*
X32967Y26790D01*
X32984Y26778D01*
X32998Y26768D01*
X33009Y26753D01*
X33005Y26737D01*
X32985Y26718D01*
X32972Y26708D01*
X32949Y26699D01*
X32918Y26696D01*
X32912Y26696D01*
X32886Y26698D01*
X32868Y26707D01*
X32847Y26725D01*
X32847Y26725D01*
X32829Y26746D01*
X32821Y26763D01*
X32821Y26785D01*
X32824Y26817D01*
X32869Y26816D01*
X32887Y26815D01*
X32902Y26816D01*
X32902Y26818D01*
X32890Y26822D01*
X32853Y26830D01*
X32797Y26835D01*
X32737Y26835D01*
X32680Y26828D01*
X32632Y26816D01*
X32622Y26814D01*
X32624Y26819D01*
X32631Y26824D01*
X32651Y26833D01*
X32678Y26843D01*
X32691Y26847D01*
X32717Y26853D01*
X32748Y26856D01*
X32788Y26858D01*
X32840Y26859D01*
X32873Y26858D01*
D02*
G37*
G36*
X32437Y26944D02*
X32444Y26938D01*
X32444Y26938D01*
X32437Y26930D01*
X32419Y26918D01*
X32394Y26904D01*
X32390Y26901D01*
X32358Y26881D01*
X32321Y26856D01*
X32288Y26829D01*
X32231Y26782D01*
X32157Y26776D01*
X32150Y26776D01*
X32107Y26771D01*
X32066Y26765D01*
X32033Y26758D01*
X31989Y26744D01*
X31919Y26714D01*
X31845Y26674D01*
X31772Y26625D01*
X31702Y26571D01*
X31641Y26514D01*
X31639Y26512D01*
X31618Y26491D01*
X31601Y26477D01*
X31592Y26471D01*
X31590Y26476D01*
X31599Y26491D01*
X31619Y26515D01*
X31649Y26549D01*
X31689Y26590D01*
X31732Y26631D01*
X31833Y26716D01*
X31942Y26789D01*
X32055Y26850D01*
X32170Y26897D01*
X32206Y26908D01*
X32253Y26920D01*
X32300Y26931D01*
X32345Y26939D01*
X32384Y26944D01*
X32416Y26946D01*
X32437Y26944D01*
D02*
G37*
G36*
X32794Y26811D02*
X32799Y26791D01*
X32800Y26788D01*
X32809Y26760D01*
X32822Y26735D01*
X32824Y26732D01*
X32832Y26715D01*
X32831Y26705D01*
X32830Y26704D01*
X32817Y26700D01*
X32792Y26694D01*
X32761Y26689D01*
X32733Y26684D01*
X32633Y26660D01*
X32540Y26626D01*
X32453Y26580D01*
X32368Y26521D01*
X32283Y26447D01*
X32279Y26443D01*
X32254Y26422D01*
X32237Y26411D01*
X32230Y26411D01*
X32231Y26425D01*
X32244Y26448D01*
X32268Y26478D01*
X32300Y26513D01*
X32338Y26551D01*
X32382Y26591D01*
X32429Y26631D01*
X32478Y26669D01*
X32527Y26704D01*
X32538Y26711D01*
X32575Y26734D01*
X32618Y26757D01*
X32663Y26779D01*
X32704Y26797D01*
X32740Y26811D01*
X32765Y26818D01*
X32772Y26820D01*
X32787Y26820D01*
X32794Y26811D01*
D02*
G37*
G36*
X32245Y26735D02*
X32253Y26731D01*
X32251Y26726D01*
X32238Y26711D01*
X32213Y26693D01*
X32179Y26673D01*
X32139Y26653D01*
X32096Y26634D01*
X32054Y26617D01*
X32013Y26604D01*
X31939Y26578D01*
X31865Y26537D01*
X31799Y26487D01*
X31746Y26429D01*
X31737Y26417D01*
X31718Y26396D01*
X31707Y26388D01*
X31703Y26395D01*
X31705Y26401D01*
X31716Y26419D01*
X31734Y26444D01*
X31756Y26473D01*
X31780Y26503D01*
X31803Y26531D01*
X31822Y26553D01*
X31861Y26591D01*
X31931Y26645D01*
X32004Y26688D01*
X32077Y26718D01*
X32096Y26723D01*
X32128Y26729D01*
X32162Y26733D01*
X32196Y26736D01*
X32225Y26737D01*
X32245Y26735D01*
D02*
G37*
G36*
X32571Y26768D02*
X32576Y26761D01*
X32575Y26760D01*
X32565Y26750D01*
X32545Y26735D01*
X32519Y26718D01*
X32489Y26700D01*
X32453Y26676D01*
X32424Y26655D01*
X32414Y26648D01*
X32388Y26632D01*
X32362Y26623D01*
X32328Y26618D01*
X32266Y26608D01*
X32188Y26581D01*
X32113Y26541D01*
X32041Y26490D01*
X31977Y26429D01*
X31923Y26360D01*
X31909Y26339D01*
X31892Y26319D01*
X31881Y26313D01*
X31878Y26322D01*
X31880Y26331D01*
X31890Y26354D01*
X31906Y26384D01*
X31927Y26418D01*
X31951Y26452D01*
X31974Y26482D01*
X32028Y26541D01*
X32111Y26609D01*
X32205Y26668D01*
X32307Y26716D01*
X32417Y26751D01*
X32443Y26757D01*
X32486Y26765D01*
X32524Y26770D01*
X32553Y26771D01*
X32571Y26768D01*
D02*
G37*
G36*
X33066Y26852D02*
X33097Y26844D01*
X33137Y26832D01*
X33182Y26818D01*
X33230Y26802D01*
X33276Y26786D01*
X33319Y26770D01*
X33353Y26755D01*
X33431Y26717D01*
X33507Y26672D01*
X33567Y26624D01*
X33615Y26573D01*
X33651Y26517D01*
X33660Y26498D01*
X33668Y26474D01*
X33672Y26446D01*
X33673Y26409D01*
X33673Y26402D01*
X33671Y26368D01*
X33667Y26340D01*
X33662Y26323D01*
X33658Y26316D01*
X33645Y26306D01*
X33633Y26305D01*
X33628Y26315D01*
X33625Y26326D01*
X33616Y26348D01*
X33604Y26375D01*
X33601Y26382D01*
X33564Y26437D01*
X33513Y26482D01*
X33450Y26517D01*
X33373Y26542D01*
X33284Y26558D01*
X33182Y26563D01*
X33154Y26562D01*
X33105Y26560D01*
X33059Y26557D01*
X33022Y26553D01*
X32957Y26542D01*
X33086Y26536D01*
X33146Y26533D01*
X33220Y26526D01*
X33281Y26518D01*
X33330Y26507D01*
X33369Y26492D01*
X33400Y26474D01*
X33425Y26453D01*
X33449Y26427D01*
X33415Y26432D01*
X33411Y26433D01*
X33384Y26437D01*
X33348Y26443D01*
X33311Y26450D01*
X33273Y26456D01*
X33193Y26463D01*
X33103Y26465D01*
X33010Y26461D01*
X32918Y26451D01*
X32905Y26449D01*
X32863Y26443D01*
X32834Y26440D01*
X32815Y26439D01*
X32802Y26440D01*
X32794Y26444D01*
X32786Y26450D01*
X32773Y26470D01*
X32771Y26496D01*
X32782Y26523D01*
X32805Y26549D01*
X32839Y26571D01*
X32856Y26577D01*
X32889Y26587D01*
X32929Y26596D01*
X32971Y26605D01*
X33017Y26613D01*
X33056Y26621D01*
X33083Y26629D01*
X33101Y26638D01*
X33112Y26649D01*
X33120Y26663D01*
X33123Y26672D01*
X33125Y26693D01*
X33118Y26715D01*
X33101Y26744D01*
X33073Y26780D01*
X33051Y26809D01*
X33039Y26834D01*
X33037Y26849D01*
X33048Y26854D01*
X33048D01*
X33066Y26852D01*
D02*
G37*
G36*
X32749Y26452D02*
X32769Y26433D01*
X32787Y26423D01*
X32810Y26421D01*
X32819Y26421D01*
X32841Y26416D01*
X32852Y26409D01*
X32851Y26399D01*
X32843Y26397D01*
X32821Y26394D01*
X32790Y26391D01*
X32752Y26388D01*
X32665Y26378D01*
X32560Y26360D01*
X32467Y26335D01*
X32386Y26303D01*
X32320Y26266D01*
X32268Y26223D01*
X32260Y26215D01*
X32245Y26203D01*
X32238Y26200D01*
X32238Y26205D01*
X32245Y26221D01*
X32258Y26245D01*
X32277Y26272D01*
X32297Y26299D01*
X32317Y26322D01*
X32318Y26323D01*
X32363Y26362D01*
X32423Y26397D01*
X32493Y26428D01*
X32571Y26454D01*
X32655Y26472D01*
X32720Y26483D01*
X32749Y26452D01*
D02*
G37*
G36*
X32974Y26674D02*
X32995Y26673D01*
X33003Y26671D01*
X32999Y26668D01*
X32983Y26661D01*
X32957Y26650D01*
X32924Y26638D01*
X32920Y26637D01*
X32850Y26607D01*
X32795Y26571D01*
X32755Y26531D01*
X32750Y26524D01*
X32739Y26514D01*
X32725Y26508D01*
X32702Y26504D01*
X32668Y26500D01*
X32664Y26500D01*
X32624Y26495D01*
X32584Y26489D01*
X32553Y26482D01*
X32513Y26470D01*
X32433Y26434D01*
X32354Y26385D01*
X32280Y26323D01*
X32211Y26252D01*
X32197Y26235D01*
X32173Y26208D01*
X32156Y26193D01*
X32149Y26189D01*
X32150Y26198D01*
X32162Y26219D01*
X32214Y26301D01*
X32282Y26390D01*
X32353Y26465D01*
X32430Y26528D01*
X32515Y26579D01*
X32610Y26621D01*
X32715Y26654D01*
X32740Y26660D01*
X32783Y26668D01*
X32832Y26672D01*
X32892Y26674D01*
X32902Y26675D01*
X32942Y26675D01*
X32974Y26674D01*
D02*
G37*
G36*
X32289Y26527D02*
X32283Y26521D01*
X32255Y26487D01*
X32229Y26452D01*
X32209Y26421D01*
X32209Y26420D01*
X32193Y26393D01*
X32180Y26377D01*
X32163Y26367D01*
X32140Y26359D01*
X32105Y26346D01*
X32046Y26310D01*
X31991Y26259D01*
X31940Y26193D01*
X31895Y26113D01*
X31878Y26080D01*
X31864Y26057D01*
X31856Y26050D01*
X31854Y26058D01*
X31858Y26081D01*
X31869Y26119D01*
X31889Y26172D01*
X31927Y26257D01*
X31974Y26337D01*
X32025Y26409D01*
X32080Y26467D01*
X32081Y26469D01*
X32131Y26508D01*
X32187Y26541D01*
X32243Y26565D01*
X32295Y26577D01*
X32340Y26582D01*
X32289Y26527D01*
D02*
G37*
G36*
X35060Y21316D02*
X35228Y21289D01*
X35290Y21276D01*
Y21148D01*
X35290Y21115D01*
X35288Y21063D01*
X35284Y21030D01*
X35278Y21019D01*
X35275Y21019D01*
X35254Y21025D01*
X35223Y21037D01*
X35182Y21053D01*
X35099Y21076D01*
X35017Y21088D01*
X34939Y21091D01*
X34868Y21085D01*
X34809Y21069D01*
X34764Y21043D01*
X34738Y21009D01*
X34733Y20996D01*
X34727Y20972D01*
X34733Y20955D01*
X34753Y20944D01*
X34790Y20937D01*
X34849Y20932D01*
X34962Y20921D01*
X35074Y20900D01*
X35166Y20870D01*
X35241Y20830D01*
X35298Y20781D01*
X35341Y20720D01*
X35345Y20711D01*
X35361Y20658D01*
X35368Y20593D01*
X35368Y20578D01*
X35367Y20525D01*
X35358Y20462D01*
X35341Y20413D01*
X35325Y20386D01*
X35270Y20319D01*
X35201Y20271D01*
X35122Y20243D01*
X35102Y20239D01*
X35015Y20237D01*
X34925Y20254D01*
X34841Y20288D01*
X34769Y20336D01*
X34726Y20374D01*
Y20266D01*
X34408D01*
Y20658D01*
X34408Y20695D01*
X34408Y20805D01*
X34409Y20895D01*
X34411Y20968D01*
X34415Y21026D01*
X34420Y21071D01*
X34427Y21106D01*
X34438Y21134D01*
X34451Y21157D01*
X34467Y21179D01*
X34487Y21200D01*
X34523Y21233D01*
X34571Y21264D01*
X34630Y21288D01*
X34705Y21306D01*
X34765Y21316D01*
X34906Y21325D01*
X35060Y21316D01*
D02*
G37*
G36*
X37037Y21632D02*
X37089Y21630D01*
X37132Y21627D01*
X37162Y21623D01*
X37173Y21618D01*
X37172Y21616D01*
X37168Y21596D01*
X37158Y21556D01*
X37144Y21499D01*
X37127Y21428D01*
X37106Y21345D01*
X37083Y21252D01*
X37058Y21152D01*
X37032Y21047D01*
X37005Y20940D01*
X36978Y20833D01*
X36952Y20728D01*
X36927Y20629D01*
X36903Y20538D01*
X36883Y20456D01*
X36865Y20388D01*
X36851Y20334D01*
X36842Y20297D01*
X36837Y20281D01*
X36830Y20276D01*
X36810Y20271D01*
X36773Y20268D01*
X36717Y20267D01*
X36640Y20266D01*
X36449D01*
X36350Y20663D01*
X36331Y20741D01*
X36309Y20828D01*
X36289Y20907D01*
X36272Y20974D01*
X36258Y21025D01*
X36249Y21060D01*
X36244Y21074D01*
X36240Y21067D01*
X36230Y21039D01*
X36217Y20994D01*
X36199Y20933D01*
X36178Y20858D01*
X36155Y20773D01*
X36131Y20680D01*
X36024Y20272D01*
X35639D01*
X35468Y20948D01*
X35296Y21625D01*
X35466Y21628D01*
X35490Y21629D01*
X35548Y21629D01*
X35596Y21628D01*
X35630Y21625D01*
X35644Y21622D01*
X35644Y21622D01*
X35649Y21607D01*
X35657Y21571D01*
X35670Y21518D01*
X35686Y21450D01*
X35704Y21369D01*
X35723Y21279D01*
X35745Y21181D01*
X35747Y21169D01*
X35768Y21072D01*
X35787Y20984D01*
X35805Y20906D01*
X35820Y20841D01*
X35831Y20791D01*
X35839Y20760D01*
X35843Y20749D01*
X35846Y20757D01*
X35855Y20785D01*
X35867Y20830D01*
X35882Y20890D01*
X35899Y20961D01*
X35918Y21040D01*
X35929Y21085D01*
X35951Y21177D01*
X35972Y21268D01*
X35992Y21353D01*
X36010Y21425D01*
X36023Y21481D01*
X36059Y21631D01*
X36405D01*
X36515Y21190D01*
X36521Y21168D01*
X36545Y21071D01*
X36567Y20983D01*
X36588Y20905D01*
X36605Y20840D01*
X36618Y20791D01*
X36627Y20760D01*
X36631Y20749D01*
X36631Y20749D01*
X36635Y20761D01*
X36643Y20794D01*
X36655Y20845D01*
X36669Y20911D01*
X36686Y20989D01*
X36704Y21078D01*
X36724Y21175D01*
X36725Y21179D01*
X36745Y21276D01*
X36763Y21366D01*
X36780Y21446D01*
X36794Y21514D01*
X36805Y21567D01*
X36813Y21602D01*
X36817Y21616D01*
X36820Y21619D01*
X36841Y21624D01*
X36879Y21628D01*
X36927Y21630D01*
X36982Y21632D01*
X37037Y21632D01*
D02*
G37*
G36*
X34276Y21301D02*
X34332Y21301D01*
X34378Y21299D01*
X34409Y21297D01*
X34420Y21295D01*
X34417Y21287D01*
X34407Y21259D01*
X34390Y21212D01*
X34367Y21150D01*
X34339Y21075D01*
X34306Y20988D01*
X34270Y20892D01*
X34231Y20789D01*
X34043Y20290D01*
X34126Y20072D01*
X34347Y20092D01*
X34529Y20108D01*
X34789Y20128D01*
X35040Y20144D01*
X35289Y20156D01*
X35539Y20164D01*
X35796Y20169D01*
X36067Y20170D01*
X36355Y20168D01*
X36356Y20168D01*
X36507Y20167D01*
X36638Y20165D01*
X36754Y20163D01*
X36858Y20160D01*
X36956Y20157D01*
X37050Y20154D01*
X37145Y20149D01*
X37244Y20143D01*
X37353Y20137D01*
X37475Y20128D01*
X37614Y20119D01*
X37732Y20110D01*
X38008Y20087D01*
X38292Y20061D01*
X38582Y20032D01*
X38873Y19999D01*
X39163Y19964D01*
X39449Y19927D01*
X39726Y19888D01*
X39993Y19848D01*
X40246Y19807D01*
X40482Y19766D01*
X40698Y19724D01*
X40758Y19712D01*
X40772Y19639D01*
X40779Y19605D01*
X40787Y19565D01*
X40793Y19538D01*
X40793Y19536D01*
X40795Y19519D01*
X40786Y19514D01*
X40760Y19518D01*
X40735Y19523D01*
X40627Y19544D01*
X40501Y19567D01*
X40361Y19593D01*
X40210Y19621D01*
X40054Y19648D01*
X39896Y19676D01*
X39740Y19703D01*
X39590Y19728D01*
X39451Y19751D01*
X39326Y19771D01*
X39099Y19806D01*
X38703Y19861D01*
X38307Y19911D01*
X37913Y19955D01*
X37523Y19992D01*
X37139Y20024D01*
X36763Y20048D01*
X36397Y20067D01*
X36043Y20078D01*
X35704Y20083D01*
X35380Y20081D01*
X35075Y20071D01*
X34790Y20055D01*
X34777Y20054D01*
X34680Y20047D01*
X34583Y20039D01*
X34490Y20031D01*
X34403Y20024D01*
X34325Y20018D01*
X34259Y20012D01*
X34208Y20007D01*
X34175Y20003D01*
X34162Y20001D01*
X34163Y19988D01*
X34173Y19957D01*
X34190Y19910D01*
X34191Y19908D01*
X34192Y19901D01*
X34185Y19896D01*
X34168Y19893D01*
X34137Y19891D01*
X34090Y19890D01*
X34022Y19890D01*
X33845D01*
X33831Y19932D01*
X33817Y19974D01*
X33745Y19967D01*
X33725Y19965D01*
X33677Y19961D01*
X33615Y19955D01*
X33545Y19949D01*
X33473Y19943D01*
X33437Y19940D01*
X33372Y19936D01*
X33326Y19933D01*
X33293Y19933D01*
X33271Y19935D01*
X33256Y19939D01*
X33243Y19946D01*
X33240Y19949D01*
X33232Y19954D01*
X33230Y19959D01*
X33234Y19963D01*
X33246Y19967D01*
X33270Y19972D01*
X33306Y19978D01*
X33357Y19984D01*
X33425Y19993D01*
X33513Y20003D01*
X33621Y20016D01*
X33794Y20037D01*
X33565Y20652D01*
X33537Y20729D01*
X33496Y20839D01*
X33459Y20943D01*
X33425Y21036D01*
X33395Y21118D01*
X33371Y21185D01*
X33353Y21237D01*
X33341Y21271D01*
X33337Y21285D01*
X33337Y21285D01*
X33342Y21292D01*
X33356Y21297D01*
X33385Y21299D01*
X33430Y21301D01*
X33496Y21301D01*
X33530Y21301D01*
X33585Y21301D01*
X33622Y21299D01*
X33645Y21295D01*
X33658Y21289D01*
X33665Y21281D01*
X33670Y21266D01*
X33682Y21232D01*
X33698Y21181D01*
X33719Y21117D01*
X33742Y21044D01*
X33767Y20963D01*
X33792Y20886D01*
X33815Y20815D01*
X33835Y20756D01*
X33851Y20711D01*
X33862Y20683D01*
X33868Y20675D01*
X33868Y20675D01*
X33874Y20690D01*
X33887Y20724D01*
X33904Y20774D01*
X33926Y20838D01*
X33951Y20912D01*
X33978Y20993D01*
X34080Y21301D01*
X34250D01*
X34276Y21301D01*
D02*
G37*
G36*
X39008Y21590D02*
X39071Y21578D01*
X39175Y21541D01*
X39276Y21485D01*
X39366Y21414D01*
X39441Y21332D01*
X39496Y21241D01*
X39515Y21198D01*
X39542Y21117D01*
X39556Y21034D01*
X39561Y20938D01*
X39555Y20850D01*
X39530Y20732D01*
X39484Y20625D01*
X39420Y20529D01*
X39340Y20447D01*
X39244Y20381D01*
X39135Y20332D01*
X39013Y20302D01*
X39008Y20301D01*
X38935Y20296D01*
X38852Y20298D01*
X38768Y20306D01*
X38695Y20320D01*
X38659Y20330D01*
X38587Y20360D01*
X38514Y20402D01*
X38434Y20460D01*
X38348Y20527D01*
X38406Y20594D01*
X38430Y20621D01*
X38464Y20659D01*
X38489Y20683D01*
X38507Y20692D01*
X38524Y20690D01*
X38544Y20677D01*
X38569Y20654D01*
X38602Y20628D01*
X38652Y20595D01*
X38702Y20567D01*
X38726Y20556D01*
X38761Y20543D01*
X38794Y20535D01*
X38835Y20532D01*
X38890Y20531D01*
X38929Y20531D01*
X38973Y20533D01*
X39008Y20539D01*
X39042Y20551D01*
X39084Y20570D01*
X39137Y20599D01*
X39211Y20660D01*
X39267Y20734D01*
X39303Y20819D01*
X39319Y20914D01*
X39313Y21017D01*
X39306Y21053D01*
X39272Y21145D01*
X39220Y21222D01*
X39151Y21286D01*
X39067Y21332D01*
X38968Y21361D01*
X38945Y21365D01*
X38849Y21365D01*
X38753Y21344D01*
X38658Y21302D01*
X38569Y21240D01*
X38513Y21194D01*
X38445Y21253D01*
X38429Y21267D01*
X38389Y21302D01*
X38365Y21327D01*
X38356Y21346D01*
X38362Y21364D01*
X38381Y21386D01*
X38412Y21415D01*
X38439Y21438D01*
X38522Y21496D01*
X38616Y21545D01*
X38711Y21579D01*
X38772Y21590D01*
X38849Y21595D01*
X38931Y21596D01*
X39008Y21590D01*
D02*
G37*
G36*
X40631Y21007D02*
Y20266D01*
X40361D01*
Y20772D01*
X40187Y20772D01*
X40149Y20772D01*
X40050Y20775D01*
X39969Y20782D01*
X39904Y20792D01*
X39850Y20808D01*
X39804Y20828D01*
X39762Y20856D01*
X39703Y20909D01*
X39655Y20971D01*
X39624Y21034D01*
X39615Y21064D01*
X39604Y21136D01*
X39602Y21216D01*
X39609Y21293D01*
X39624Y21357D01*
X39655Y21421D01*
X39703Y21482D01*
X39761Y21536D01*
X39822Y21573D01*
X39831Y21577D01*
X39849Y21584D01*
X39867Y21590D01*
X39889Y21594D01*
X39918Y21597D01*
X39955Y21600D01*
X40006Y21602D01*
X40071Y21603D01*
X40154Y21604D01*
X40258Y21605D01*
X40631Y21609D01*
Y21007D01*
D02*
G37*
G36*
X38267Y21372D02*
Y20511D01*
Y20254D01*
X38005Y20255D01*
X37875Y20256D01*
X37761Y20258D01*
X37664Y20264D01*
X37584Y20271D01*
X37516Y20282D01*
X37459Y20296D01*
X37410Y20315D01*
X37366Y20337D01*
X37325Y20365D01*
X37306Y20380D01*
X37266Y20420D01*
X37233Y20461D01*
X37218Y20485D01*
X37207Y20506D01*
X37201Y20529D01*
X37198Y20559D01*
X37196Y20602D01*
X37196Y20663D01*
X37196Y20668D01*
X37198Y20750D01*
X37203Y20810D01*
X37212Y20847D01*
X37213Y20848D01*
X37239Y20888D01*
X37281Y20930D01*
X37333Y20966D01*
X37386Y20993D01*
X37442Y21014D01*
X37387Y21055D01*
X37357Y21080D01*
X37307Y21143D01*
X37277Y21218D01*
X37267Y21306D01*
X37272Y21376D01*
X37294Y21451D01*
X37334Y21511D01*
X37394Y21560D01*
X37474Y21598D01*
X37491Y21604D01*
X37512Y21610D01*
X37536Y21615D01*
X37566Y21619D01*
X37604Y21622D01*
X37655Y21624D01*
X37719Y21625D01*
X37802Y21627D01*
X37905Y21628D01*
X38267Y21633D01*
Y21372D01*
D02*
G37*
%LPC*%
G36*
X34428Y27891D02*
X34425Y27868D01*
X34424Y27855D01*
X34423Y27842D01*
X34421Y27833D01*
X34421Y27828D01*
X34423Y27813D01*
X34429Y27794D01*
X34439Y27772D01*
X34451Y27749D01*
X34465Y27725D01*
X34480Y27701D01*
X34497Y27678D01*
X34514Y27657D01*
X34530Y27640D01*
X34546Y27626D01*
X34561Y27616D01*
X34573Y27612D01*
X34586Y27610D01*
X34596Y27611D01*
X34603Y27616D01*
X34605Y27623D01*
X34607Y27638D01*
X34605Y27658D01*
X34599Y27680D01*
X34591Y27705D01*
X34579Y27731D01*
X34563Y27762D01*
X34545Y27791D01*
X34527Y27817D01*
X34507Y27841D01*
X34488Y27860D01*
X34470Y27876D01*
X34453Y27886D01*
X34438Y27890D01*
X34428Y27891D01*
D02*
G37*
G36*
X33770Y27887D02*
X33761Y27883D01*
X33757Y27875D01*
X33756Y27864D01*
X33759Y27850D01*
X33765Y27835D01*
X33773Y27820D01*
X33784Y27806D01*
X33787Y27804D01*
X33806Y27789D01*
X33827Y27781D01*
X33852Y27777D01*
X33857Y27777D01*
X33867Y27776D01*
X33873Y27777D01*
X33875Y27780D01*
X33873Y27786D01*
X33867Y27796D01*
X33858Y27811D01*
X33853Y27820D01*
X33842Y27835D01*
X33829Y27850D01*
X33816Y27864D01*
X33804Y27875D01*
X33795Y27882D01*
X33794Y27882D01*
X33782Y27886D01*
X33770Y27887D01*
D02*
G37*
G36*
X31595Y27893D02*
X31590Y27892D01*
X31589Y27891D01*
X31591Y27886D01*
X31596Y27876D01*
X31603Y27862D01*
X31612Y27846D01*
X31622Y27828D01*
X31632Y27810D01*
X31643Y27791D01*
X31654Y27774D01*
X31664Y27758D01*
X31666Y27756D01*
X31682Y27734D01*
X31700Y27712D01*
X31719Y27690D01*
X31739Y27670D01*
X31758Y27653D01*
X31777Y27638D01*
X31793Y27626D01*
X31808Y27619D01*
X31819Y27616D01*
X31822Y27617D01*
X31826Y27620D01*
X31827Y27627D01*
X31825Y27640D01*
X31824Y27644D01*
X31816Y27671D01*
X31804Y27700D01*
X31787Y27730D01*
X31768Y27760D01*
X31747Y27789D01*
X31724Y27816D01*
X31701Y27839D01*
X31678Y27858D01*
X31664Y27867D01*
X31646Y27878D01*
X31630Y27885D01*
X31612Y27890D01*
X31604Y27891D01*
X31595Y27893D01*
D02*
G37*
G36*
X30468Y27882D02*
X30464Y27882D01*
X30464Y27882D01*
X30465Y27879D01*
X30469Y27871D01*
X30475Y27859D01*
X30482Y27846D01*
X30491Y27831D01*
X30499Y27816D01*
X30507Y27803D01*
X30510Y27799D01*
X30528Y27774D01*
X30546Y27748D01*
X30566Y27724D01*
X30586Y27701D01*
X30605Y27679D01*
X30624Y27661D01*
X30641Y27645D01*
X30656Y27633D01*
X30668Y27626D01*
X30678Y27623D01*
X30678Y27623D01*
X30687Y27625D01*
X30691Y27632D01*
X30691Y27644D01*
X30688Y27660D01*
X30680Y27682D01*
X30675Y27692D01*
X30663Y27716D01*
X30647Y27743D01*
X30629Y27770D01*
X30610Y27795D01*
X30592Y27819D01*
X30574Y27838D01*
X30569Y27843D01*
X30546Y27860D01*
X30519Y27873D01*
X30490Y27880D01*
X30488Y27880D01*
X30476Y27882D01*
X30468Y27882D01*
D02*
G37*
G36*
X30042Y27893D02*
X30039Y27893D01*
X30036Y27890D01*
X30036Y27890D01*
X30038Y27884D01*
X30044Y27873D01*
X30052Y27859D01*
X30061Y27842D01*
X30072Y27823D01*
X30084Y27804D01*
X30096Y27784D01*
X30108Y27766D01*
X30119Y27749D01*
X30128Y27735D01*
X30136Y27725D01*
X30147Y27712D01*
X30165Y27692D01*
X30184Y27673D01*
X30202Y27656D01*
X30220Y27642D01*
X30236Y27631D01*
X30250Y27622D01*
X30262Y27618D01*
X30270Y27617D01*
X30275Y27621D01*
X30275Y27627D01*
X30274Y27639D01*
X30269Y27655D01*
X30262Y27674D01*
X30252Y27696D01*
X30233Y27733D01*
X30210Y27770D01*
X30184Y27803D01*
X30157Y27831D01*
X30130Y27855D01*
X30102Y27873D01*
X30100Y27874D01*
X30084Y27881D01*
X30068Y27887D01*
X30053Y27891D01*
X30042Y27893D01*
D02*
G37*
G36*
X32932Y26811D02*
X32922Y26810D01*
X32921Y26807D01*
X32928Y26804D01*
X32932Y26805D01*
X32933Y26810D01*
X32932Y26811D01*
D02*
G37*
G36*
X32949Y26804D02*
X32944Y26800D01*
X32949Y26796D01*
X32953Y26800D01*
X32949Y26804D01*
D02*
G37*
G36*
X34726Y20750D02*
Y20529D01*
X34783Y20497D01*
X34799Y20489D01*
X34850Y20471D01*
X34907Y20466D01*
X34926Y20466D01*
X34961Y20470D01*
X34985Y20480D01*
X35009Y20501D01*
X35012Y20504D01*
X35036Y20538D01*
X35043Y20578D01*
X35041Y20608D01*
X35024Y20655D01*
X34989Y20690D01*
X34935Y20715D01*
X34860Y20730D01*
X34843Y20732D01*
X34799Y20738D01*
X34764Y20744D01*
X34726Y20750D01*
D02*
G37*
G36*
X40361Y21387D02*
X40191Y21381D01*
X40176Y21380D01*
X40106Y21376D01*
X40053Y21371D01*
X40014Y21364D01*
X39985Y21353D01*
X39959Y21337D01*
X39934Y21315D01*
X39916Y21295D01*
X39891Y21245D01*
X39884Y21190D01*
X39894Y21136D01*
X39921Y21086D01*
X39961Y21046D01*
X40015Y21020D01*
X40015Y21020D01*
X40045Y21015D01*
X40091Y21011D01*
X40149Y21008D01*
X40211Y21007D01*
X40361Y21007D01*
Y21387D01*
D02*
G37*
G36*
X37926Y21372D02*
X37827D01*
X37816Y21372D01*
X37766Y21370D01*
X37721Y21365D01*
X37692Y21359D01*
X37688Y21358D01*
X37651Y21331D01*
X37628Y21287D01*
X37620Y21227D01*
X37620Y21218D01*
X37632Y21165D01*
X37663Y21126D01*
X37711Y21102D01*
X37743Y21096D01*
X37790Y21091D01*
X37840Y21090D01*
X37926Y21090D01*
Y21372D01*
D02*
G37*
G36*
Y20854D02*
X37811Y20854D01*
X37769Y20854D01*
X37698Y20849D01*
X37645Y20838D01*
X37604Y20821D01*
X37571Y20796D01*
X37560Y20783D01*
X37535Y20735D01*
X37529Y20681D01*
X37540Y20628D01*
X37568Y20581D01*
X37612Y20546D01*
X37620Y20542D01*
X37648Y20531D01*
X37683Y20523D01*
X37729Y20519D01*
X37793Y20515D01*
X37926Y20511D01*
Y20854D01*
D02*
G37*
%LPD*%
D10*
X44230Y38258D02*
X44156Y38300D01*
Y38215D01*
X44230Y38258D01*
X31254Y34138D02*
X31180Y34180D01*
Y34095D01*
X31254Y34138D01*
X3332Y23083D02*
X3258Y23126D01*
Y23041D01*
X3332Y23083D01*
X3332Y25587D02*
X3258Y25630D01*
Y25545D01*
X3332Y25587D01*
X3332Y29135D02*
X3258Y29178D01*
Y29092D01*
X3332Y29135D01*
X5965Y11289D02*
X5891Y11332D01*
Y11247D01*
X5965Y11289D01*
X9201Y23120D02*
X9127Y23163D01*
Y23077D01*
X9201Y23120D01*
X10844Y11289D02*
X10771Y11332D01*
Y11247D01*
X10844Y11289D01*
X15471D02*
X15397Y11332D01*
Y11247D01*
X15471Y11289D01*
X18041Y15079D02*
X17968Y15121D01*
Y15036D01*
X18041Y15079D01*
X21931Y39512D02*
X21857Y39554D01*
Y39469D01*
X21931Y39512D01*
X28098Y23120D02*
X28025Y23163D01*
Y23077D01*
X28098Y23120D01*
X29742Y11289D02*
X29668Y11332D01*
Y11247D01*
X29742Y11289D01*
X31742Y39030D02*
X31668Y39072D01*
Y38987D01*
X31742Y39030D01*
X33742D02*
X33668Y39072D01*
Y38987D01*
X33742Y39030D01*
X46996Y23120D02*
X46922Y23163D01*
Y23077D01*
X46996Y23120D01*
X56754Y24880D02*
X56680Y24922D01*
Y24837D01*
X56754Y24880D01*
X1306Y11336D02*
X1232Y11378D01*
Y11293D01*
X1306Y11336D01*
X20293Y11289D02*
X20219Y11332D01*
Y11247D01*
X20293Y11289D01*
X24852D02*
X24779Y11332D01*
Y11247D01*
X24852Y11289D01*
X28750Y39512D02*
X28676Y39554D01*
Y39469D01*
X28750Y39512D01*
X32735Y39030D02*
X32661Y39072D01*
Y38987D01*
X32735Y39030D01*
X34301Y11289D02*
X34227Y11332D01*
Y11247D01*
X34301Y11289D01*
X36683Y15079D02*
X36609Y15121D01*
Y15036D01*
X36683Y15079D01*
X39191Y11289D02*
X39117Y11332D01*
Y11247D01*
X39191Y11289D01*
X43750D02*
X43676Y11332D01*
Y11247D01*
X43750Y11289D01*
X48640D02*
X48566Y11332D01*
Y11247D01*
X48640Y11289D01*
X53199D02*
X53125Y11332D01*
Y11247D01*
X53199Y11289D01*
X62357Y34655D02*
X62283Y34698D01*
Y34613D01*
X62357Y34655D01*
X55173Y13824D02*
X55099Y13867D01*
Y13782D01*
X55173Y13824D01*
D12*
X43169Y38992D02*
Y39937D01*
X43720Y38992D02*
Y39937D01*
X54449Y30236D02*
Y31181D01*
X55000Y30236D02*
Y31181D01*
X53356Y29252D02*
X54301D01*
X53356Y29803D02*
X54301D01*
X9054Y28609D02*
X9369D01*
X56000Y13346D02*
Y13661D01*
X3945Y24667D02*
Y25612D01*
X4496Y24667D02*
Y25612D01*
X5306Y24667D02*
Y25612D01*
X4755Y24667D02*
Y25612D01*
X18868Y14409D02*
Y14724D01*
X20509Y15778D02*
Y16722D01*
X21060Y15778D02*
Y16722D01*
X21181Y15778D02*
Y16722D01*
X21732Y15778D02*
Y16722D01*
X27165Y33484D02*
Y33799D01*
X28969Y37898D02*
Y38843D01*
X28417Y37898D02*
Y38843D01*
X29963Y37898D02*
Y38843D01*
X29412Y37898D02*
Y38843D01*
X30969Y37898D02*
Y38843D01*
X30417Y37898D02*
Y38843D01*
X37557Y14387D02*
Y14702D01*
X39715Y15755D02*
Y16700D01*
X39164Y15755D02*
Y16700D01*
X39851Y15752D02*
Y16697D01*
X40402Y15752D02*
Y16697D01*
X57886Y13287D02*
Y14232D01*
X57334Y13287D02*
Y14232D01*
X64449Y33976D02*
Y34921D01*
X63898Y33976D02*
Y34921D01*
X65039Y35354D02*
Y36299D01*
X64488Y35354D02*
Y36299D01*
X33403Y33584D02*
Y34529D01*
X32851Y33584D02*
Y34529D01*
X44016Y26953D02*
X44961D01*
X44016Y27505D02*
X44961D01*
X57340Y14524D02*
Y15469D01*
X57891Y14524D02*
Y15469D01*
X59882Y34354D02*
X60197D01*
X65039Y33976D02*
Y34921D01*
X64488Y33976D02*
Y34921D01*
X66063Y33976D02*
Y34921D01*
X66614Y33976D02*
Y34921D01*
X18453Y16614D02*
X19398D01*
X18453Y17165D02*
X19398D01*
X25352Y33917D02*
X26297D01*
X25352Y34468D02*
X26297D01*
X25352Y34653D02*
X26297D01*
X25352Y35204D02*
X26297D01*
X31644Y33917D02*
X32589D01*
X31644Y33366D02*
X32589D01*
X31833Y30276D02*
X32778D01*
X31833Y29724D02*
X32778D01*
X31644Y34630D02*
X32589D01*
X31644Y34078D02*
X32589D01*
X37717Y26277D02*
X38661D01*
X37717Y25726D02*
X38661D01*
X37717Y27277D02*
X38661D01*
X37717Y26726D02*
X38661D01*
X37717Y28272D02*
X38661D01*
X37717Y27720D02*
X38661D01*
X37717Y29272D02*
X38661D01*
X37717Y28720D02*
X38661D01*
X37717Y31858D02*
X38661D01*
X37717Y31307D02*
X38661D01*
X37717Y35872D02*
X38661D01*
X37717Y35320D02*
X38661D01*
X37717Y36862D02*
X38661D01*
X37717Y36311D02*
X38661D01*
X44016Y26102D02*
X44961D01*
X44016Y26654D02*
X44961D01*
X55528Y15993D02*
X56472D01*
X55528Y15442D02*
X56472D01*
X62520Y33976D02*
X63465D01*
X62520Y34528D02*
X63465D01*
X30528Y30276D02*
X31472D01*
X30528Y29724D02*
X31472D01*
X26708Y34008D02*
X27652D01*
X26708Y34559D02*
X27652D01*
X26685Y35204D02*
X27630D01*
X26685Y34653D02*
X27630D01*
X37030Y17135D02*
X37975D01*
X37030Y16583D02*
X37975D01*
D13*
X44242Y40501D02*
X46069D01*
X66879D01*
X43898Y40157D02*
X44242Y40501D01*
X43898Y30315D02*
Y40157D01*
X61526Y19400D02*
Y21073D01*
X62805Y19400D02*
Y21073D01*
X61998Y29203D02*
Y30876D01*
X63278Y29203D02*
Y30876D01*
X60165Y9273D02*
Y18575D01*
X60499Y8826D02*
X61372D01*
X60165Y9160D02*
X60499Y8826D01*
X60165Y9160D02*
Y9273D01*
X58150Y18940D02*
Y19188D01*
Y21808D02*
Y22570D01*
Y19188D02*
Y21808D01*
X57885Y22835D02*
X58150Y22570D01*
X52804Y24110D02*
Y28692D01*
X18275Y7837D02*
X20775D01*
X18275Y6337D02*
X20775D01*
X37204Y6337D02*
X39704D01*
X37204Y7837D02*
X39704D01*
X56427D02*
X58927D01*
X56427Y6337D02*
X58927D01*
X58150Y18940D02*
X58239Y18851D01*
X59889D02*
X60165Y18575D01*
X51575Y29921D02*
X52804Y28692D01*
X58239Y18851D02*
X59889D01*
X54079Y22835D02*
X57885D01*
X43898Y30315D02*
X44291Y29921D01*
X52804Y24110D02*
X54079Y22835D01*
X44291Y29921D02*
X51575D01*
X43633Y41314D02*
X43333D01*
Y41164D01*
X43383Y41114D01*
X43483D01*
X43533Y41164D01*
Y41314D01*
Y41214D02*
X43633Y41114D01*
Y41014D02*
Y40914D01*
Y40964D01*
X43333D01*
X43383Y41014D01*
Y40764D02*
X43333Y40714D01*
Y40614D01*
X43383Y40564D01*
X43433D01*
X43483Y40614D01*
X43533Y40564D01*
X43583D01*
X43633Y40614D01*
Y40714D01*
X43583Y40764D01*
X43533D01*
X43483Y40714D01*
X43433Y40764D01*
X43383D01*
X43483Y40714D02*
Y40614D01*
X43633Y40264D02*
Y40464D01*
X43433Y40264D01*
X43383D01*
X43333Y40314D01*
Y40414D01*
X43383Y40464D01*
X44238Y41095D02*
Y40795D01*
X44388D01*
X44438Y40845D01*
Y40945D01*
X44388Y40995D01*
X44238D01*
X44738Y40795D02*
X44638Y40845D01*
X44538Y40945D01*
Y41045D01*
X44588Y41095D01*
X44688D01*
X44738Y41045D01*
Y40995D01*
X44688Y40945D01*
X44538D01*
X54241Y31678D02*
Y31378D01*
X54391D01*
X54441Y31428D01*
Y31528D01*
X54391Y31578D01*
X54241D01*
X54341D02*
X54441Y31678D01*
X54541D02*
X54641D01*
X54591D01*
Y31378D01*
X54541Y31428D01*
X54791Y31378D02*
X54991D01*
Y31428D01*
X54791Y31628D01*
Y31678D01*
X55291Y31378D02*
X55191Y31428D01*
X55091Y31528D01*
Y31628D01*
X55141Y31678D01*
X55241D01*
X55291Y31628D01*
Y31578D01*
X55241Y31528D01*
X55091D01*
X53302Y29080D02*
Y28781D01*
X53452D01*
X53502Y28830D01*
Y28930D01*
X53452Y28980D01*
X53302D01*
X53402D02*
X53502Y29080D01*
X53602D02*
X53702D01*
X53652D01*
Y28781D01*
X53602Y28830D01*
X53852Y28781D02*
X54052D01*
Y28830D01*
X53852Y29030D01*
Y29080D01*
X54352Y28781D02*
X54152D01*
Y28930D01*
X54252Y28880D01*
X54302D01*
X54352Y28930D01*
Y29030D01*
X54302Y29080D01*
X54202D01*
X54152Y29030D01*
X53172Y31793D02*
Y31593D01*
X53122Y31543D01*
X53022D01*
X52972Y31593D01*
Y31793D01*
X53022Y31843D01*
X53122D01*
X53072Y31743D02*
X53172Y31843D01*
X53122D02*
X53172Y31793D01*
X53271Y31843D02*
X53371D01*
X53321D01*
Y31543D01*
X53271Y31593D01*
X53521D02*
X53571Y31543D01*
X53671D01*
X53721Y31593D01*
Y31643D01*
X53671Y31693D01*
X53721Y31743D01*
Y31793D01*
X53671Y31843D01*
X53571D01*
X53521Y31793D01*
Y31743D01*
X53571Y31693D01*
X53521Y31643D01*
Y31593D01*
X53571Y31693D02*
X53671D01*
X60201Y22249D02*
Y22549D01*
X60401D01*
X60651Y22249D02*
X60551D01*
X60501Y22299D01*
Y22499D01*
X60551Y22549D01*
X60651D01*
X60701Y22499D01*
Y22299D01*
X60651Y22249D01*
X59317Y13708D02*
Y14008D01*
Y13858D01*
X59517D01*
Y13708D01*
Y14008D01*
X59767Y13708D02*
X59667D01*
X59617Y13758D01*
Y13958D01*
X59667Y14008D01*
X59767D01*
X59817Y13958D01*
Y13758D01*
X59767Y13708D01*
X23865Y29721D02*
X23815Y29771D01*
Y29871D01*
X23865Y29921D01*
X23915D01*
X23965Y29871D01*
Y29771D01*
X24015Y29721D01*
X24065D01*
X24115Y29771D01*
Y29871D01*
X24065Y29921D01*
X23815Y29621D02*
X24115D01*
Y29471D01*
X24065Y29421D01*
X24015D01*
X23965Y29471D01*
Y29621D01*
Y29471D01*
X23915Y29421D01*
X23865D01*
X23815Y29471D01*
Y29621D01*
X24115Y29122D02*
Y29321D01*
X23915Y29122D01*
X23865D01*
X23815Y29172D01*
Y29271D01*
X23865Y29321D01*
X23815Y28822D02*
X23865Y28922D01*
X23965Y29022D01*
X24065D01*
X24115Y28972D01*
Y28872D01*
X24065Y28822D01*
X24015D01*
X23965Y28872D01*
Y29022D01*
X22839Y29678D02*
X22789Y29728D01*
Y29828D01*
X22839Y29878D01*
X22889D01*
X22939Y29828D01*
Y29728D01*
X22989Y29678D01*
X23039D01*
X23089Y29728D01*
Y29828D01*
X23039Y29878D01*
X22789Y29578D02*
X23089D01*
Y29428D01*
X23039Y29378D01*
X22989D01*
X22939Y29428D01*
Y29578D01*
Y29428D01*
X22889Y29378D01*
X22839D01*
X22789Y29428D01*
Y29578D01*
X23089Y29078D02*
Y29278D01*
X22889Y29078D01*
X22839D01*
X22789Y29128D01*
Y29228D01*
X22839Y29278D01*
X22789Y28779D02*
Y28978D01*
X22939D01*
X22889Y28878D01*
Y28828D01*
X22939Y28779D01*
X23039D01*
X23089Y28828D01*
Y28928D01*
X23039Y28978D01*
X6399Y31261D02*
X6349Y31211D01*
X6250D01*
X6200Y31261D01*
Y31311D01*
X6250Y31361D01*
X6349D01*
X6399Y31411D01*
Y31461D01*
X6349Y31510D01*
X6250D01*
X6200Y31461D01*
X6499Y31211D02*
Y31510D01*
X6649D01*
X6699Y31461D01*
Y31411D01*
X6649Y31361D01*
X6499D01*
X6649D01*
X6699Y31311D01*
Y31261D01*
X6649Y31211D01*
X6499D01*
X6999Y31510D02*
X6799D01*
X6999Y31311D01*
Y31261D01*
X6949Y31211D01*
X6849D01*
X6799Y31261D01*
X7249Y31510D02*
Y31211D01*
X7099Y31361D01*
X7299D01*
X7978Y31251D02*
X7928Y31201D01*
X7828D01*
X7778Y31251D01*
Y31301D01*
X7828Y31351D01*
X7928D01*
X7978Y31401D01*
Y31451D01*
X7928Y31501D01*
X7828D01*
X7778Y31451D01*
X8078Y31201D02*
Y31501D01*
X8228D01*
X8278Y31451D01*
Y31401D01*
X8228Y31351D01*
X8078D01*
X8228D01*
X8278Y31301D01*
Y31251D01*
X8228Y31201D01*
X8078D01*
X8578Y31501D02*
X8378D01*
X8578Y31301D01*
Y31251D01*
X8528Y31201D01*
X8428D01*
X8378Y31251D01*
X8678D02*
X8728Y31201D01*
X8828D01*
X8878Y31251D01*
Y31301D01*
X8828Y31351D01*
X8778D01*
X8828D01*
X8878Y31401D01*
Y31451D01*
X8828Y31501D01*
X8728D01*
X8678Y31451D01*
X25128Y30381D02*
X25078Y30431D01*
Y30531D01*
X25128Y30581D01*
X25328D01*
X25378Y30531D01*
Y30431D01*
X25328Y30381D01*
X25378Y30281D02*
Y30182D01*
Y30231D01*
X25078D01*
X25128Y30281D01*
X25378Y29832D02*
Y30032D01*
X25178Y29832D01*
X25128D01*
X25078Y29882D01*
Y29982D01*
X25128Y30032D01*
X25378Y29732D02*
Y29632D01*
Y29682D01*
X25078D01*
X25128Y29732D01*
X8942Y27505D02*
X8892Y27455D01*
X8792D01*
X8742Y27505D01*
Y27705D01*
X8792Y27755D01*
X8892D01*
X8942Y27705D01*
X9042Y27755D02*
X9142D01*
X9092D01*
Y27455D01*
X9042Y27505D01*
X9292Y27755D02*
X9392D01*
X9342D01*
Y27455D01*
X9292Y27505D01*
X9542Y27455D02*
X9742D01*
Y27505D01*
X9542Y27705D01*
Y27755D01*
X10726Y28843D02*
X10676Y28893D01*
Y28993D01*
X10726Y29043D01*
X10926D01*
X10976Y28993D01*
Y28893D01*
X10926Y28843D01*
X10976Y28743D02*
Y28643D01*
Y28693D01*
X10676D01*
X10726Y28743D01*
X10976Y28493D02*
Y28393D01*
Y28443D01*
X10676D01*
X10726Y28493D01*
X10676Y28043D02*
X10726Y28143D01*
X10826Y28243D01*
X10926D01*
X10976Y28193D01*
Y28093D01*
X10926Y28043D01*
X10876D01*
X10826Y28093D01*
Y28243D01*
X28256Y34793D02*
Y35043D01*
X28306Y35093D01*
X28406D01*
X28456Y35043D01*
Y34793D01*
X28556Y35043D02*
X28606Y35093D01*
X28706D01*
X28756Y35043D01*
Y34843D01*
X28706Y34793D01*
X28606D01*
X28556Y34843D01*
Y34893D01*
X28606Y34943D01*
X28756D01*
X20451Y40130D02*
Y39830D01*
X20601D01*
X20651Y39880D01*
Y39980D01*
X20601Y40030D01*
X20451D01*
X20951Y39830D02*
X20751D01*
Y39980D01*
X20851Y39930D01*
X20901D01*
X20951Y39980D01*
Y40080D01*
X20901Y40130D01*
X20801D01*
X20751Y40080D01*
X27187Y40130D02*
Y39830D01*
X27337D01*
X27387Y39880D01*
Y39980D01*
X27337Y40030D01*
X27187D01*
X27637Y40130D02*
Y39830D01*
X27487Y39980D01*
X27687D01*
X56178Y24378D02*
Y24628D01*
X56228Y24678D01*
X56328D01*
X56378Y24628D01*
Y24378D01*
X56478Y24678D02*
X56578D01*
X56528D01*
Y24378D01*
X56478Y24428D01*
X38577Y13536D02*
Y13236D01*
X38726D01*
X38776Y13286D01*
Y13386D01*
X38726Y13436D01*
X38577D01*
X38676D02*
X38776Y13536D01*
X39026D02*
Y13236D01*
X38876Y13386D01*
X39076D01*
X39326Y13536D02*
Y13236D01*
X39176Y13386D01*
X39376D01*
X36529Y13195D02*
X36229D01*
Y13045D01*
X36279Y12995D01*
X36379D01*
X36429Y13045D01*
Y13195D01*
Y13095D02*
X36529Y12995D01*
X36279Y12895D02*
X36229Y12845D01*
Y12745D01*
X36279Y12695D01*
X36329D01*
X36379Y12745D01*
Y12795D01*
Y12745D01*
X36429Y12695D01*
X36479D01*
X36529Y12745D01*
Y12845D01*
X36479Y12895D01*
X36279Y12595D02*
X36229Y12545D01*
Y12445D01*
X36279Y12395D01*
X36329D01*
X36379Y12445D01*
X36429Y12395D01*
X36479D01*
X36529Y12445D01*
Y12545D01*
X36479Y12595D01*
X36429D01*
X36379Y12545D01*
X36329Y12595D01*
X36279D01*
X36379Y12545D02*
Y12445D01*
X57476Y9263D02*
Y8963D01*
X57626D01*
X57676Y9013D01*
Y9113D01*
X57626Y9163D01*
X57476D01*
X57576D02*
X57676Y9263D01*
X57926D02*
Y8963D01*
X57776Y9113D01*
X57976D01*
X58276Y9263D02*
X58076D01*
X58276Y9063D01*
Y9013D01*
X58226Y8963D01*
X58126D01*
X58076Y9013D01*
X38965Y8926D02*
Y9226D01*
X38816D01*
X38766Y9176D01*
Y9076D01*
X38816Y9026D01*
X38965D01*
X38865D02*
X38766Y8926D01*
X38516D02*
Y9226D01*
X38666Y9076D01*
X38466D01*
X38366Y8926D02*
X38266D01*
X38316D01*
Y9226D01*
X38366Y9176D01*
X18891Y9150D02*
Y8850D01*
X19041D01*
X19091Y8900D01*
Y9000D01*
X19041Y9050D01*
X18891D01*
X18991D02*
X19091Y9150D01*
X19341D02*
Y8850D01*
X19191Y9000D01*
X19391D01*
X19491Y8900D02*
X19541Y8850D01*
X19641D01*
X19691Y8900D01*
Y9100D01*
X19641Y9150D01*
X19541D01*
X19491Y9100D01*
Y8900D01*
X50931Y15795D02*
X51131D01*
X51031D01*
Y16095D01*
X51381D02*
Y15795D01*
X51231Y15945D01*
X51431D01*
X31248Y18534D02*
X31448D01*
X31348D01*
Y18834D01*
X31548Y18584D02*
X31598Y18534D01*
X31698D01*
X31748Y18584D01*
Y18634D01*
X31698Y18684D01*
X31648D01*
X31698D01*
X31748Y18734D01*
Y18784D01*
X31698Y18834D01*
X31598D01*
X31548Y18784D01*
X8911Y18575D02*
X8711D01*
X8811D01*
Y18275D01*
X8412D02*
X8611D01*
X8412Y18475D01*
Y18525D01*
X8461Y18575D01*
X8561D01*
X8611Y18525D01*
X61479Y35988D02*
X61729D01*
X61779Y35938D01*
Y35838D01*
X61729Y35788D01*
X61479D01*
X61529Y35688D02*
X61479Y35638D01*
Y35538D01*
X61529Y35488D01*
X61579D01*
X61629Y35538D01*
X61679Y35488D01*
X61729D01*
X61779Y35538D01*
Y35638D01*
X61729Y35688D01*
X61679D01*
X61629Y35638D01*
X61579Y35688D01*
X61529D01*
X61629Y35638D02*
Y35538D01*
X54729Y15309D02*
Y15559D01*
X54779Y15609D01*
X54879D01*
X54929Y15559D01*
Y15309D01*
X55029D02*
X55229D01*
Y15359D01*
X55029Y15559D01*
Y15609D01*
X38254Y16482D02*
Y16732D01*
X38304Y16782D01*
X38404D01*
X38454Y16732D01*
Y16482D01*
X38754D02*
X38654Y16532D01*
X38554Y16632D01*
Y16732D01*
X38604Y16782D01*
X38704D01*
X38754Y16732D01*
Y16682D01*
X38704Y16632D01*
X38554D01*
X17268Y15111D02*
Y14861D01*
X17218Y14811D01*
X17118D01*
X17068Y14861D01*
Y15111D01*
X16768D02*
X16968D01*
Y14961D01*
X16868Y15011D01*
X16818D01*
X16768Y14961D01*
Y14861D01*
X16818Y14811D01*
X16918D01*
X16968Y14861D01*
X47032Y23930D02*
Y24179D01*
X47082Y24229D01*
X47182D01*
X47232Y24179D01*
Y23930D01*
X47481Y24229D02*
Y23930D01*
X47331Y24080D01*
X47531D01*
X27665Y22258D02*
X27915D01*
X27965Y22208D01*
Y22108D01*
X27915Y22058D01*
X27665D01*
X27715Y21958D02*
X27665Y21908D01*
Y21808D01*
X27715Y21758D01*
X27765D01*
X27815Y21808D01*
Y21858D01*
Y21808D01*
X27865Y21758D01*
X27915D01*
X27965Y21808D01*
Y21908D01*
X27915Y21958D01*
X11464Y21864D02*
X11714D01*
X11764Y21814D01*
Y21714D01*
X11714Y21664D01*
X11464D01*
X11764Y21364D02*
Y21564D01*
X11564Y21364D01*
X11514D01*
X11464Y21414D01*
Y21514D01*
X11514Y21564D01*
X51721Y38027D02*
X51862Y37886D01*
X51792Y37957D01*
X52004Y38169D01*
X52145Y38027D02*
X52216Y37957D01*
X52181Y37992D01*
X51968Y37780D01*
Y37851D01*
X25808Y39125D02*
X25758Y39075D01*
X25658D01*
X25608Y39125D01*
Y39175D01*
X25658Y39225D01*
X25758D01*
X25808Y39275D01*
Y39325D01*
X25758Y39375D01*
X25658D01*
X25608Y39325D01*
X25908Y39075D02*
Y39375D01*
X26058D01*
X26108Y39325D01*
Y39275D01*
X26058Y39225D01*
X25908D01*
X26058D01*
X26108Y39175D01*
Y39125D01*
X26058Y39075D01*
X25908D01*
X26208Y39375D02*
X26308D01*
X26258D01*
Y39075D01*
X26208Y39125D01*
X26658Y39075D02*
X26558Y39125D01*
X26458Y39225D01*
Y39325D01*
X26508Y39375D01*
X26608D01*
X26658Y39325D01*
Y39275D01*
X26608Y39225D01*
X26458D01*
X25845Y36818D02*
X25795Y36768D01*
X25695D01*
X25645Y36818D01*
Y36868D01*
X25695Y36918D01*
X25795D01*
X25845Y36968D01*
Y37018D01*
X25795Y37068D01*
X25695D01*
X25645Y37018D01*
X25945Y36768D02*
Y37068D01*
X26095D01*
X26145Y37018D01*
Y36968D01*
X26095Y36918D01*
X25945D01*
X26095D01*
X26145Y36868D01*
Y36818D01*
X26095Y36768D01*
X25945D01*
X26245Y37068D02*
X26344D01*
X26294D01*
Y36768D01*
X26245Y36818D01*
X26694Y36768D02*
X26494D01*
Y36918D01*
X26594Y36868D01*
X26644D01*
X26694Y36918D01*
Y37018D01*
X26644Y37068D01*
X26544D01*
X26494Y37018D01*
X21919Y35136D02*
X21869Y35086D01*
X21769D01*
X21719Y35136D01*
Y35186D01*
X21769Y35236D01*
X21869D01*
X21919Y35286D01*
Y35336D01*
X21869Y35386D01*
X21769D01*
X21719Y35336D01*
X22019Y35086D02*
Y35386D01*
X22169D01*
X22219Y35336D01*
Y35286D01*
X22169Y35236D01*
X22019D01*
X22169D01*
X22219Y35186D01*
Y35136D01*
X22169Y35086D01*
X22019D01*
X22319Y35386D02*
X22419D01*
X22369D01*
Y35086D01*
X22319Y35136D01*
X22719Y35386D02*
Y35086D01*
X22569Y35236D01*
X22769D01*
X23128Y38711D02*
X23078Y38761D01*
Y38861D01*
X23128Y38911D01*
X23178D01*
X23228Y38861D01*
Y38761D01*
X23278Y38711D01*
X23328D01*
X23378Y38761D01*
Y38861D01*
X23328Y38911D01*
X23078Y38611D02*
X23378D01*
Y38461D01*
X23328Y38411D01*
X23278D01*
X23228Y38461D01*
Y38611D01*
Y38461D01*
X23178Y38411D01*
X23128D01*
X23078Y38461D01*
Y38611D01*
X23378Y38311D02*
Y38211D01*
Y38261D01*
X23078D01*
X23128Y38311D01*
Y38061D02*
X23078Y38011D01*
Y37911D01*
X23128Y37861D01*
X23178D01*
X23228Y37911D01*
Y37961D01*
Y37911D01*
X23278Y37861D01*
X23328D01*
X23378Y37911D01*
Y38011D01*
X23328Y38061D01*
X9193Y37633D02*
X9143Y37583D01*
X9043D01*
X8993Y37633D01*
Y37683D01*
X9043Y37733D01*
X9143D01*
X9193Y37783D01*
Y37833D01*
X9143Y37883D01*
X9043D01*
X8993Y37833D01*
X9293Y37583D02*
Y37883D01*
X9443D01*
X9493Y37833D01*
Y37783D01*
X9443Y37733D01*
X9293D01*
X9443D01*
X9493Y37683D01*
Y37633D01*
X9443Y37583D01*
X9293D01*
X9593Y37883D02*
X9693D01*
X9643D01*
Y37583D01*
X9593Y37633D01*
X10042Y37883D02*
X9843D01*
X10042Y37683D01*
Y37633D01*
X9992Y37583D01*
X9892D01*
X9843Y37633D01*
X10950Y37583D02*
X10900Y37533D01*
X10800D01*
X10750Y37583D01*
Y37633D01*
X10800Y37683D01*
X10900D01*
X10950Y37733D01*
Y37783D01*
X10900Y37833D01*
X10800D01*
X10750Y37783D01*
X11050Y37533D02*
Y37833D01*
X11200D01*
X11250Y37783D01*
Y37733D01*
X11200Y37683D01*
X11050D01*
X11200D01*
X11250Y37633D01*
Y37583D01*
X11200Y37533D01*
X11050D01*
X11350Y37833D02*
X11450D01*
X11400D01*
Y37533D01*
X11350Y37583D01*
X11600Y37833D02*
X11700D01*
X11650D01*
Y37533D01*
X11600Y37583D01*
X21919Y31790D02*
X21869Y31740D01*
X21769D01*
X21719Y31790D01*
Y31840D01*
X21769Y31890D01*
X21869D01*
X21919Y31940D01*
Y31990D01*
X21869Y32040D01*
X21769D01*
X21719Y31990D01*
X22019Y31740D02*
Y32040D01*
X22169D01*
X22219Y31990D01*
Y31940D01*
X22169Y31890D01*
X22019D01*
X22169D01*
X22219Y31840D01*
Y31790D01*
X22169Y31740D01*
X22019D01*
X22319Y32040D02*
X22419D01*
X22369D01*
Y31740D01*
X22319Y31790D01*
X22569D02*
X22619Y31740D01*
X22719D01*
X22769Y31790D01*
Y31990D01*
X22719Y32040D01*
X22619D01*
X22569Y31990D01*
Y31790D01*
X58221Y11030D02*
X57921D01*
Y10880D01*
X57971Y10830D01*
X58071D01*
X58121Y10880D01*
Y11030D01*
Y10930D02*
X58221Y10830D01*
X57921Y10530D02*
Y10630D01*
Y10580D01*
X58171D01*
X58221Y10630D01*
Y10680D01*
X58171Y10730D01*
X57921Y10230D02*
X57971Y10330D01*
X58071Y10430D01*
X58171D01*
X58221Y10380D01*
Y10280D01*
X58171Y10230D01*
X58121D01*
X58071Y10280D01*
Y10430D01*
X37756Y11872D02*
Y11573D01*
X37906D01*
X37956Y11623D01*
Y11722D01*
X37906Y11772D01*
X37756D01*
X37856D02*
X37956Y11872D01*
X38256Y11573D02*
X38156D01*
X38206D01*
Y11822D01*
X38156Y11872D01*
X38106D01*
X38056Y11822D01*
X38556Y11573D02*
X38356D01*
Y11722D01*
X38456Y11673D01*
X38506D01*
X38556Y11722D01*
Y11822D01*
X38506Y11872D01*
X38406D01*
X38356Y11822D01*
X19754Y10395D02*
X19455D01*
Y10245D01*
X19505Y10195D01*
X19605D01*
X19655Y10245D01*
Y10395D01*
Y10295D02*
X19754Y10195D01*
X19455Y9895D02*
Y9995D01*
Y9945D01*
X19705D01*
X19754Y9995D01*
Y10045D01*
X19705Y10095D01*
X19754Y9646D02*
X19455D01*
X19605Y9795D01*
Y9596D01*
X57237Y10439D02*
X56937D01*
Y10289D01*
X56987Y10239D01*
X57087D01*
X57137Y10289D01*
Y10439D01*
Y10339D02*
X57237Y10239D01*
X56937Y9939D02*
Y10039D01*
Y9989D01*
X57187D01*
X57237Y10039D01*
Y10089D01*
X57187Y10139D01*
X56987Y9839D02*
X56937Y9789D01*
Y9689D01*
X56987Y9639D01*
X57037D01*
X57087Y9689D01*
Y9739D01*
Y9689D01*
X57137Y9639D01*
X57187D01*
X57237Y9689D01*
Y9789D01*
X57187Y9839D01*
X38224Y10441D02*
X37924D01*
Y10291D01*
X37974Y10241D01*
X38074D01*
X38124Y10291D01*
Y10441D01*
Y10341D02*
X38224Y10241D01*
X37924Y9941D02*
Y10041D01*
Y9991D01*
X38174D01*
X38224Y10041D01*
Y10091D01*
X38174Y10141D01*
X38224Y9642D02*
Y9841D01*
X38024Y9642D01*
X37974D01*
X37924Y9692D01*
Y9791D01*
X37974Y9841D01*
X19244Y10352D02*
X18945D01*
Y10202D01*
X18995Y10152D01*
X19094D01*
X19144Y10202D01*
Y10352D01*
Y10252D02*
X19244Y10152D01*
X18945Y9852D02*
Y9952D01*
Y9902D01*
X19194D01*
X19244Y9952D01*
Y10002D01*
X19194Y10052D01*
X19244Y9752D02*
Y9652D01*
Y9702D01*
X18945D01*
X18995Y9752D01*
X26352Y35833D02*
Y35533D01*
X26502D01*
X26552Y35583D01*
Y35683D01*
X26502Y35733D01*
X26352D01*
X26452D02*
X26552Y35833D01*
X26652D02*
X26752D01*
X26702D01*
Y35533D01*
X26652Y35583D01*
X26902Y35533D02*
X27102D01*
Y35583D01*
X26902Y35783D01*
Y35833D01*
X27202Y35583D02*
X27252Y35533D01*
X27352D01*
X27402Y35583D01*
Y35783D01*
X27352Y35833D01*
X27252D01*
X27202Y35783D01*
Y35583D01*
X33329Y33296D02*
Y32996D01*
X33479D01*
X33529Y33046D01*
Y33146D01*
X33479Y33196D01*
X33329D01*
X33429D02*
X33529Y33296D01*
X33629D02*
X33729D01*
X33679D01*
Y32996D01*
X33629Y33046D01*
X34079Y32996D02*
X33979Y33046D01*
X33879Y33146D01*
Y33246D01*
X33929Y33296D01*
X34029D01*
X34079Y33246D01*
Y33196D01*
X34029Y33146D01*
X33879D01*
X34179Y33246D02*
X34229Y33296D01*
X34329D01*
X34379Y33246D01*
Y33046D01*
X34329Y32996D01*
X34229D01*
X34179Y33046D01*
Y33096D01*
X34229Y33146D01*
X34379D01*
X31974Y35146D02*
Y34846D01*
X32124D01*
X32174Y34896D01*
Y34996D01*
X32124Y35046D01*
X31974D01*
X32074D02*
X32174Y35146D01*
X32274D02*
X32374D01*
X32324D01*
Y34846D01*
X32274Y34896D01*
X32724Y34846D02*
X32624Y34896D01*
X32524Y34996D01*
Y35096D01*
X32574Y35146D01*
X32674D01*
X32724Y35096D01*
Y35046D01*
X32674Y34996D01*
X32524D01*
X32824Y34896D02*
X32874Y34846D01*
X32974D01*
X33024Y34896D01*
Y34946D01*
X32974Y34996D01*
X33024Y35046D01*
Y35096D01*
X32974Y35146D01*
X32874D01*
X32824Y35096D01*
Y35046D01*
X32874Y34996D01*
X32824Y34946D01*
Y34896D01*
X32874Y34996D02*
X32974D01*
X26634Y33124D02*
Y32825D01*
X26784D01*
X26834Y32875D01*
Y32975D01*
X26784Y33025D01*
X26634D01*
X26734D02*
X26834Y33124D01*
X26934D02*
X27034D01*
X26984D01*
Y32825D01*
X26934Y32875D01*
X27384Y32825D02*
X27284Y32875D01*
X27184Y32975D01*
Y33075D01*
X27234Y33124D01*
X27334D01*
X27384Y33075D01*
Y33025D01*
X27334Y32975D01*
X27184D01*
X27684Y32825D02*
X27584Y32875D01*
X27484Y32975D01*
Y33075D01*
X27534Y33124D01*
X27634D01*
X27684Y33075D01*
Y33025D01*
X27634Y32975D01*
X27484D01*
X30540Y29356D02*
Y29056D01*
X30689D01*
X30739Y29106D01*
Y29206D01*
X30689Y29256D01*
X30540D01*
X30640D02*
X30739Y29356D01*
X30839D02*
X30939D01*
X30889D01*
Y29056D01*
X30839Y29106D01*
X31289Y29056D02*
X31189Y29106D01*
X31089Y29206D01*
Y29306D01*
X31139Y29356D01*
X31239D01*
X31289Y29306D01*
Y29256D01*
X31239Y29206D01*
X31089D01*
X31589Y29356D02*
X31389D01*
X31589Y29156D01*
Y29106D01*
X31539Y29056D01*
X31439D01*
X31389Y29106D01*
X33086Y30126D02*
Y29826D01*
X33236D01*
X33286Y29876D01*
Y29976D01*
X33236Y30026D01*
X33086D01*
X33186D02*
X33286Y30126D01*
X33386D02*
X33486D01*
X33436D01*
Y29826D01*
X33386Y29876D01*
X33836Y29826D02*
X33736Y29876D01*
X33636Y29976D01*
Y30076D01*
X33686Y30126D01*
X33786D01*
X33836Y30076D01*
Y30026D01*
X33786Y29976D01*
X33636D01*
X33936Y29876D02*
X33986Y29826D01*
X34086D01*
X34136Y29876D01*
Y30076D01*
X34086Y30126D01*
X33986D01*
X33936Y30076D01*
Y29876D01*
X24002Y34245D02*
Y33945D01*
X24152D01*
X24202Y33995D01*
Y34095D01*
X24152Y34145D01*
X24002D01*
X24102D02*
X24202Y34245D01*
X24302D02*
X24402D01*
X24352D01*
Y33945D01*
X24302Y33995D01*
X24752Y33945D02*
X24552D01*
Y34095D01*
X24652Y34045D01*
X24702D01*
X24752Y34095D01*
Y34195D01*
X24702Y34245D01*
X24602D01*
X24552Y34195D01*
X24852D02*
X24902Y34245D01*
X25002D01*
X25051Y34195D01*
Y33995D01*
X25002Y33945D01*
X24902D01*
X24852Y33995D01*
Y34045D01*
X24902Y34095D01*
X25051D01*
X34008Y34974D02*
X33708D01*
Y34824D01*
X33758Y34774D01*
X33858D01*
X33908Y34824D01*
Y34974D01*
Y34874D02*
X34008Y34774D01*
Y34674D02*
Y34574D01*
Y34624D01*
X33708D01*
X33758Y34674D01*
X33708Y34224D02*
Y34424D01*
X33858D01*
X33808Y34324D01*
Y34274D01*
X33858Y34224D01*
X33958D01*
X34008Y34274D01*
Y34374D01*
X33958Y34424D01*
X33758Y34124D02*
X33708Y34074D01*
Y33974D01*
X33758Y33924D01*
X33808D01*
X33858Y33974D01*
X33908Y33924D01*
X33958D01*
X34008Y33974D01*
Y34074D01*
X33958Y34124D01*
X33908D01*
X33858Y34074D01*
X33808Y34124D01*
X33758D01*
X33858Y34074D02*
Y33974D01*
X24002Y35092D02*
Y34792D01*
X24152D01*
X24202Y34842D01*
Y34942D01*
X24152Y34992D01*
X24002D01*
X24102D02*
X24202Y35092D01*
X24302D02*
X24402D01*
X24352D01*
Y34792D01*
X24302Y34842D01*
X24752Y34792D02*
X24552D01*
Y34942D01*
X24652Y34892D01*
X24702D01*
X24752Y34942D01*
Y35042D01*
X24702Y35092D01*
X24602D01*
X24552Y35042D01*
X25051Y34792D02*
X24852D01*
Y34942D01*
X24952Y34892D01*
X25002D01*
X25051Y34942D01*
Y35042D01*
X25002Y35092D01*
X24902D01*
X24852Y35042D01*
X58418Y14273D02*
X58118D01*
Y14123D01*
X58168Y14073D01*
X58268D01*
X58318Y14123D01*
Y14273D01*
Y14173D02*
X58418Y14073D01*
Y13973D02*
Y13873D01*
Y13923D01*
X58118D01*
X58168Y13973D01*
X58118Y13524D02*
Y13723D01*
X58268D01*
X58218Y13623D01*
Y13574D01*
X58268Y13524D01*
X58368D01*
X58418Y13574D01*
Y13673D01*
X58368Y13723D01*
X58418Y13274D02*
X58118D01*
X58268Y13424D01*
Y13224D01*
X40598Y15660D02*
X40898D01*
Y15810D01*
X40848Y15860D01*
X40748D01*
X40698Y15810D01*
Y15660D01*
Y15760D02*
X40598Y15860D01*
Y15960D02*
Y16060D01*
Y16010D01*
X40898D01*
X40848Y15960D01*
X40898Y16410D02*
Y16210D01*
X40748D01*
X40798Y16310D01*
Y16360D01*
X40748Y16410D01*
X40648D01*
X40598Y16360D01*
Y16260D01*
X40648Y16210D01*
X40848Y16510D02*
X40898Y16560D01*
Y16659D01*
X40848Y16709D01*
X40798D01*
X40748Y16659D01*
Y16609D01*
Y16659D01*
X40698Y16709D01*
X40648D01*
X40598Y16659D01*
Y16560D01*
X40648Y16510D01*
X22394Y16667D02*
X22094D01*
Y16517D01*
X22144Y16467D01*
X22244D01*
X22294Y16517D01*
Y16667D01*
Y16567D02*
X22394Y16467D01*
Y16367D02*
Y16267D01*
Y16317D01*
X22094D01*
X22144Y16367D01*
X22094Y15917D02*
Y16117D01*
X22244D01*
X22194Y16017D01*
Y15967D01*
X22244Y15917D01*
X22344D01*
X22394Y15967D01*
Y16067D01*
X22344Y16117D01*
X22394Y15617D02*
Y15817D01*
X22194Y15617D01*
X22144D01*
X22094Y15667D01*
Y15767D01*
X22144Y15817D01*
X4400Y26831D02*
X4101D01*
Y26681D01*
X4151Y26631D01*
X4251D01*
X4301Y26681D01*
Y26831D01*
Y26731D02*
X4400Y26631D01*
Y26531D02*
Y26431D01*
Y26481D01*
X4101D01*
X4151Y26531D01*
X4101Y26081D02*
Y26281D01*
X4251D01*
X4201Y26181D01*
Y26131D01*
X4251Y26081D01*
X4351D01*
X4400Y26131D01*
Y26231D01*
X4351Y26281D01*
X4400Y25981D02*
Y25881D01*
Y25931D01*
X4101D01*
X4151Y25981D01*
X5186Y26900D02*
X4886D01*
Y26750D01*
X4936Y26700D01*
X5036D01*
X5086Y26750D01*
Y26900D01*
Y26800D02*
X5186Y26700D01*
Y26600D02*
Y26500D01*
Y26550D01*
X4886D01*
X4936Y26600D01*
X5186Y26200D02*
X4886D01*
X5036Y26350D01*
Y26150D01*
X4936Y26050D02*
X4886Y26000D01*
Y25900D01*
X4936Y25850D01*
X4986D01*
X5036Y25900D01*
X5086Y25850D01*
X5136D01*
X5186Y25900D01*
Y26000D01*
X5136Y26050D01*
X5086D01*
X5036Y26000D01*
X4986Y26050D01*
X4936D01*
X5036Y26000D02*
Y25900D01*
X29610Y37552D02*
Y37252D01*
X29760D01*
X29810Y37302D01*
Y37402D01*
X29760Y37452D01*
X29610D01*
X29710D02*
X29810Y37552D01*
X29910D02*
X30009D01*
X29960D01*
Y37252D01*
X29910Y37302D01*
X30309Y37552D02*
Y37252D01*
X30159Y37402D01*
X30359D01*
X30459Y37552D02*
X30559D01*
X30509D01*
Y37252D01*
X30459Y37302D01*
X29171Y39452D02*
Y39152D01*
X29321D01*
X29371Y39202D01*
Y39302D01*
X29321Y39352D01*
X29171D01*
X29271D02*
X29371Y39452D01*
X29471D02*
X29571D01*
X29521D01*
Y39152D01*
X29471Y39202D01*
X29870Y39452D02*
Y39152D01*
X29720Y39302D01*
X29920D01*
X30020Y39202D02*
X30070Y39152D01*
X30170D01*
X30220Y39202D01*
Y39402D01*
X30170Y39452D01*
X30070D01*
X30020Y39402D01*
Y39202D01*
X28124Y38911D02*
X27824D01*
Y38761D01*
X27874Y38711D01*
X27974D01*
X28024Y38761D01*
Y38911D01*
Y38811D02*
X28124Y38711D01*
Y38611D02*
Y38511D01*
Y38561D01*
X27824D01*
X27874Y38611D01*
Y38361D02*
X27824Y38311D01*
Y38211D01*
X27874Y38161D01*
X27924D01*
X27974Y38211D01*
Y38261D01*
Y38211D01*
X28024Y38161D01*
X28074D01*
X28124Y38211D01*
Y38311D01*
X28074Y38361D01*
Y38061D02*
X28124Y38011D01*
Y37911D01*
X28074Y37861D01*
X27874D01*
X27824Y37911D01*
Y38011D01*
X27874Y38061D01*
X27924D01*
X27974Y38011D01*
Y37861D01*
X36355Y26739D02*
Y26439D01*
X36505D01*
X36555Y26489D01*
Y26589D01*
X36505Y26639D01*
X36355D01*
X36455D02*
X36555Y26739D01*
X36655D02*
X36755D01*
X36705D01*
Y26439D01*
X36655Y26489D01*
X36904D02*
X36954Y26439D01*
X37054D01*
X37104Y26489D01*
Y26539D01*
X37054Y26589D01*
X37004D01*
X37054D01*
X37104Y26639D01*
Y26689D01*
X37054Y26739D01*
X36954D01*
X36904Y26689D01*
X37354Y26739D02*
Y26439D01*
X37204Y26589D01*
X37404D01*
X36301Y36737D02*
Y36437D01*
X36451D01*
X36501Y36487D01*
Y36587D01*
X36451Y36637D01*
X36301D01*
X36401D02*
X36501Y36737D01*
X36601D02*
X36701D01*
X36651D01*
Y36437D01*
X36601Y36487D01*
X36851D02*
X36901Y36437D01*
X37001D01*
X37051Y36487D01*
Y36537D01*
X37001Y36587D01*
X36951D01*
X37001D01*
X37051Y36637D01*
Y36687D01*
X37001Y36737D01*
X36901D01*
X36851Y36687D01*
X37151Y36487D02*
X37201Y36437D01*
X37301D01*
X37351Y36487D01*
Y36537D01*
X37301Y36587D01*
X37251D01*
X37301D01*
X37351Y36637D01*
Y36687D01*
X37301Y36737D01*
X37201D01*
X37151Y36687D01*
X37636Y25406D02*
Y25106D01*
X37786D01*
X37836Y25156D01*
Y25256D01*
X37786Y25306D01*
X37636D01*
X37736D02*
X37836Y25406D01*
X37936D02*
X38036D01*
X37986D01*
Y25106D01*
X37936Y25156D01*
X38386Y25406D02*
X38186D01*
X38386Y25206D01*
Y25156D01*
X38336Y25106D01*
X38236D01*
X38186Y25156D01*
X38486Y25356D02*
X38536Y25406D01*
X38636D01*
X38686Y25356D01*
Y25156D01*
X38636Y25106D01*
X38536D01*
X38486Y25156D01*
Y25206D01*
X38536Y25256D01*
X38686D01*
X36439Y28146D02*
Y27846D01*
X36588D01*
X36638Y27896D01*
Y27996D01*
X36588Y28046D01*
X36439D01*
X36539D02*
X36638Y28146D01*
X36738D02*
X36838D01*
X36788D01*
Y27846D01*
X36738Y27896D01*
X36988Y28146D02*
X37088D01*
X37038D01*
Y27846D01*
X36988Y27896D01*
X37238D02*
X37288Y27846D01*
X37388D01*
X37438Y27896D01*
Y27946D01*
X37388Y27996D01*
X37338D01*
X37388D01*
X37438Y28046D01*
Y28096D01*
X37388Y28146D01*
X37288D01*
X37238Y28096D01*
X37577Y35092D02*
Y34792D01*
X37727D01*
X37777Y34842D01*
Y34942D01*
X37727Y34992D01*
X37577D01*
X37677D02*
X37777Y35092D01*
X37877D02*
X37977D01*
X37927D01*
Y34792D01*
X37877Y34842D01*
X38127Y35092D02*
X38227D01*
X38177D01*
Y34792D01*
X38127Y34842D01*
X38577Y35092D02*
X38377D01*
X38577Y34892D01*
Y34842D01*
X38527Y34792D01*
X38427D01*
X38377Y34842D01*
X44038Y28103D02*
Y27803D01*
X44188D01*
X44238Y27853D01*
Y27953D01*
X44188Y28003D01*
X44038D01*
X44138D02*
X44238Y28103D01*
X44338D02*
X44438D01*
X44388D01*
Y27803D01*
X44338Y27853D01*
X44588Y28103D02*
X44688D01*
X44638D01*
Y27803D01*
X44588Y27853D01*
X44838Y28103D02*
X44938D01*
X44888D01*
Y27803D01*
X44838Y27853D01*
X43988Y25740D02*
Y25441D01*
X44138D01*
X44188Y25491D01*
Y25591D01*
X44138Y25641D01*
X43988D01*
X44088D02*
X44188Y25740D01*
X44288D02*
X44388D01*
X44338D01*
Y25441D01*
X44288Y25491D01*
X44538Y25740D02*
X44638D01*
X44588D01*
Y25441D01*
X44538Y25491D01*
X44788D02*
X44838Y25441D01*
X44938D01*
X44988Y25491D01*
Y25691D01*
X44938Y25740D01*
X44838D01*
X44788Y25691D01*
Y25491D01*
X36282Y31729D02*
Y31429D01*
X36432D01*
X36482Y31479D01*
Y31579D01*
X36432Y31629D01*
X36282D01*
X36382D02*
X36482Y31729D01*
X36582D02*
X36681D01*
X36632D01*
Y31429D01*
X36582Y31479D01*
X36831D02*
X36881Y31429D01*
X36981D01*
X37031Y31479D01*
Y31679D01*
X36981Y31729D01*
X36881D01*
X36831Y31679D01*
Y31479D01*
X37131D02*
X37181Y31429D01*
X37281D01*
X37331Y31479D01*
Y31529D01*
X37281Y31579D01*
X37331Y31629D01*
Y31679D01*
X37281Y31729D01*
X37181D01*
X37131Y31679D01*
Y31629D01*
X37181Y31579D01*
X37131Y31529D01*
Y31479D01*
X37181Y31579D02*
X37281D01*
X36408Y29195D02*
Y28895D01*
X36558D01*
X36608Y28945D01*
Y29045D01*
X36558Y29095D01*
X36408D01*
X36508D02*
X36608Y29195D01*
X36708D02*
X36808D01*
X36758D01*
Y28895D01*
X36708Y28945D01*
X36958D02*
X37008Y28895D01*
X37108D01*
X37158Y28945D01*
Y29145D01*
X37108Y29195D01*
X37008D01*
X36958Y29145D01*
Y28945D01*
X37258Y28895D02*
X37458D01*
Y28945D01*
X37258Y29145D01*
Y29195D01*
X58481Y15741D02*
X58181D01*
Y15591D01*
X58231Y15541D01*
X58331D01*
X58381Y15591D01*
Y15741D01*
Y15641D02*
X58481Y15541D01*
Y15441D02*
Y15341D01*
Y15391D01*
X58181D01*
X58231Y15441D01*
Y15191D02*
X58181Y15141D01*
Y15041D01*
X58231Y14991D01*
X58431D01*
X58481Y15041D01*
Y15141D01*
X58431Y15191D01*
X58231D01*
X58481Y14741D02*
X58181D01*
X58331Y14891D01*
Y14691D01*
X55525Y16577D02*
Y16277D01*
X55675D01*
X55725Y16327D01*
Y16427D01*
X55675Y16477D01*
X55525D01*
X55625D02*
X55725Y16577D01*
X55825D02*
X55925D01*
X55875D01*
Y16277D01*
X55825Y16327D01*
X56075D02*
X56125Y16277D01*
X56225D01*
X56275Y16327D01*
Y16527D01*
X56225Y16577D01*
X56125D01*
X56075Y16527D01*
Y16327D01*
X56375Y16577D02*
X56475D01*
X56425D01*
Y16277D01*
X56375Y16327D01*
X39239Y15406D02*
Y15106D01*
X39389D01*
X39439Y15156D01*
Y15256D01*
X39389Y15306D01*
X39239D01*
X39339D02*
X39439Y15406D01*
X39539D02*
X39639D01*
X39589D01*
Y15106D01*
X39539Y15156D01*
X39789D02*
X39839Y15106D01*
X39939D01*
X39989Y15156D01*
Y15356D01*
X39939Y15406D01*
X39839D01*
X39789Y15356D01*
Y15156D01*
X40089D02*
X40139Y15106D01*
X40239D01*
X40289Y15156D01*
Y15356D01*
X40239Y15406D01*
X40139D01*
X40089Y15356D01*
Y15156D01*
X37965Y17475D02*
Y17775D01*
X37815D01*
X37765Y17725D01*
Y17625D01*
X37815Y17575D01*
X37965D01*
X37865D02*
X37765Y17475D01*
X37665Y17525D02*
X37615Y17475D01*
X37515D01*
X37465Y17525D01*
Y17725D01*
X37515Y17775D01*
X37615D01*
X37665Y17725D01*
Y17675D01*
X37615Y17625D01*
X37465D01*
X37365Y17775D02*
X37165D01*
Y17725D01*
X37365Y17525D01*
Y17475D01*
X20493Y15518D02*
Y15218D01*
X20643D01*
X20693Y15268D01*
Y15368D01*
X20643Y15418D01*
X20493D01*
X20593D02*
X20693Y15518D01*
X20793Y15468D02*
X20843Y15518D01*
X20943D01*
X20993Y15468D01*
Y15268D01*
X20943Y15218D01*
X20843D01*
X20793Y15268D01*
Y15318D01*
X20843Y15368D01*
X20993D01*
X21293Y15218D02*
X21193Y15268D01*
X21093Y15368D01*
Y15468D01*
X21143Y15518D01*
X21243D01*
X21293Y15468D01*
Y15418D01*
X21243Y15368D01*
X21093D01*
X19244Y18284D02*
X18945D01*
Y18134D01*
X18995Y18084D01*
X19094D01*
X19144Y18134D01*
Y18284D01*
Y18184D02*
X19244Y18084D01*
X19194Y17984D02*
X19244Y17934D01*
Y17834D01*
X19194Y17784D01*
X18995D01*
X18945Y17834D01*
Y17934D01*
X18995Y17984D01*
X19045D01*
X19094Y17934D01*
Y17784D01*
X18995Y17684D02*
X18945Y17634D01*
Y17534D01*
X18995Y17484D01*
X19045D01*
X19094Y17534D01*
Y17584D01*
Y17534D01*
X19144Y17484D01*
X19194D01*
X19244Y17534D01*
Y17634D01*
X19194Y17684D01*
X48181Y26925D02*
X47882D01*
Y26775D01*
X47932Y26725D01*
X48032D01*
X48081Y26775D01*
Y26925D01*
Y26825D02*
X48181Y26725D01*
X48131Y26625D02*
X48181Y26575D01*
Y26475D01*
X48131Y26425D01*
X47932D01*
X47882Y26475D01*
Y26575D01*
X47932Y26625D01*
X47982D01*
X48032Y26575D01*
Y26425D01*
X48181Y26325D02*
Y26225D01*
Y26275D01*
X47882D01*
X47932Y26325D01*
X47394Y26975D02*
X47094D01*
Y26825D01*
X47144Y26775D01*
X47244D01*
X47294Y26825D01*
Y26975D01*
Y26875D02*
X47394Y26775D01*
X47344Y26675D02*
X47394Y26625D01*
Y26525D01*
X47344Y26475D01*
X47144D01*
X47094Y26525D01*
Y26625D01*
X47144Y26675D01*
X47194D01*
X47244Y26625D01*
Y26475D01*
X47144Y26375D02*
X47094Y26325D01*
Y26225D01*
X47144Y26175D01*
X47344D01*
X47394Y26225D01*
Y26325D01*
X47344Y26375D01*
X47144D01*
X29286Y26949D02*
X28986D01*
Y26799D01*
X29036Y26749D01*
X29136D01*
X29186Y26799D01*
Y26949D01*
Y26849D02*
X29286Y26749D01*
X29036Y26649D02*
X28986Y26599D01*
Y26499D01*
X29036Y26449D01*
X29086D01*
X29136Y26499D01*
X29186Y26449D01*
X29236D01*
X29286Y26499D01*
Y26599D01*
X29236Y26649D01*
X29186D01*
X29136Y26599D01*
X29086Y26649D01*
X29036D01*
X29136Y26599D02*
Y26499D01*
X28986Y26150D02*
X29036Y26250D01*
X29136Y26349D01*
X29236D01*
X29286Y26300D01*
Y26200D01*
X29236Y26150D01*
X29186D01*
X29136Y26200D01*
Y26349D01*
X28564Y26923D02*
X28264D01*
Y26773D01*
X28314Y26723D01*
X28414D01*
X28464Y26773D01*
Y26923D01*
Y26823D02*
X28564Y26723D01*
X28314Y26623D02*
X28264Y26573D01*
Y26473D01*
X28314Y26423D01*
X28364D01*
X28414Y26473D01*
X28464Y26423D01*
X28514D01*
X28564Y26473D01*
Y26573D01*
X28514Y26623D01*
X28464D01*
X28414Y26573D01*
X28364Y26623D01*
X28314D01*
X28414Y26573D02*
Y26473D01*
X28264Y26123D02*
Y26323D01*
X28414D01*
X28364Y26223D01*
Y26173D01*
X28414Y26123D01*
X28514D01*
X28564Y26173D01*
Y26273D01*
X28514Y26323D01*
X10372Y26925D02*
X10072D01*
Y26775D01*
X10122Y26725D01*
X10222D01*
X10272Y26775D01*
Y26925D01*
Y26825D02*
X10372Y26725D01*
X10122Y26625D02*
X10072Y26575D01*
Y26475D01*
X10122Y26425D01*
X10172D01*
X10222Y26475D01*
X10272Y26425D01*
X10322D01*
X10372Y26475D01*
Y26575D01*
X10322Y26625D01*
X10272D01*
X10222Y26575D01*
X10172Y26625D01*
X10122D01*
X10222Y26575D02*
Y26475D01*
X10372Y26325D02*
Y26225D01*
Y26275D01*
X10072D01*
X10122Y26325D01*
X9627Y26976D02*
X9327D01*
Y26826D01*
X9377Y26776D01*
X9477D01*
X9527Y26826D01*
Y26976D01*
Y26876D02*
X9627Y26776D01*
X9377Y26676D02*
X9327Y26626D01*
Y26526D01*
X9377Y26476D01*
X9427D01*
X9477Y26526D01*
X9527Y26476D01*
X9577D01*
X9627Y26526D01*
Y26626D01*
X9577Y26676D01*
X9527D01*
X9477Y26626D01*
X9427Y26676D01*
X9377D01*
X9477Y26626D02*
Y26526D01*
X9377Y26376D02*
X9327Y26326D01*
Y26226D01*
X9377Y26176D01*
X9577D01*
X9627Y26226D01*
Y26326D01*
X9577Y26376D01*
X9377D01*
X64959Y37432D02*
X64659D01*
Y37282D01*
X64709Y37232D01*
X64809D01*
X64859Y37282D01*
Y37432D01*
Y37332D02*
X64959Y37232D01*
X64659Y37132D02*
Y36932D01*
X64709D01*
X64909Y37132D01*
X64959D01*
X64659Y36832D02*
Y36632D01*
X64709D01*
X64909Y36832D01*
X64959D01*
X65504Y33471D02*
X65204D01*
Y33321D01*
X65254Y33271D01*
X65354D01*
X65404Y33321D01*
Y33471D01*
Y33371D02*
X65504Y33271D01*
X65204Y33171D02*
Y32971D01*
X65254D01*
X65454Y33171D01*
X65504D01*
X65204Y32671D02*
X65254Y32771D01*
X65354Y32871D01*
X65454D01*
X65504Y32821D01*
Y32721D01*
X65454Y32671D01*
X65404D01*
X65354Y32721D01*
Y32871D01*
X66473Y35827D02*
X66173D01*
Y35677D01*
X66223Y35627D01*
X66323D01*
X66373Y35677D01*
Y35827D01*
Y35727D02*
X66473Y35627D01*
X66173Y35527D02*
Y35327D01*
X66223D01*
X66423Y35527D01*
X66473D01*
X66223Y35227D02*
X66173Y35177D01*
Y35077D01*
X66223Y35027D01*
X66273D01*
X66323Y35077D01*
Y35127D01*
Y35077D01*
X66373Y35027D01*
X66423D01*
X66473Y35077D01*
Y35177D01*
X66423Y35227D01*
X64308Y33636D02*
X64008D01*
Y33486D01*
X64058Y33436D01*
X64158D01*
X64208Y33486D01*
Y33636D01*
Y33536D02*
X64308Y33436D01*
X64008Y33336D02*
Y33136D01*
X64058D01*
X64258Y33336D01*
X64308D01*
Y33036D02*
Y32936D01*
Y32986D01*
X64008D01*
X64058Y33036D01*
X62552Y33471D02*
X62252D01*
Y33321D01*
X62302Y33271D01*
X62402D01*
X62452Y33321D01*
Y33471D01*
Y33371D02*
X62552Y33271D01*
X62252Y33171D02*
Y32971D01*
X62302D01*
X62502Y33171D01*
X62552D01*
X62302Y32871D02*
X62252Y32821D01*
Y32721D01*
X62302Y32671D01*
X62502D01*
X62552Y32721D01*
Y32821D01*
X62502Y32871D01*
X62302D01*
X54797Y28260D02*
Y27960D01*
X54947D01*
X54997Y28010D01*
Y28110D01*
X54947Y28160D01*
X54797D01*
X54897D02*
X54997Y28260D01*
X55297Y27960D02*
X55197Y28010D01*
X55097Y28110D01*
Y28210D01*
X55147Y28260D01*
X55247D01*
X55297Y28210D01*
Y28160D01*
X55247Y28110D01*
X55097D01*
X55397Y28010D02*
X55447Y27960D01*
X55547D01*
X55597Y28010D01*
Y28060D01*
X55547Y28110D01*
X55597Y28160D01*
Y28210D01*
X55547Y28260D01*
X55447D01*
X55397Y28210D01*
Y28160D01*
X55447Y28110D01*
X55397Y28060D01*
Y28010D01*
X55447Y28110D02*
X55547D01*
X61764Y15999D02*
X61464D01*
Y15849D01*
X61514Y15799D01*
X61614D01*
X61664Y15849D01*
Y15999D01*
Y15899D02*
X61764Y15799D01*
X61464Y15499D02*
X61514Y15599D01*
X61614Y15699D01*
X61714D01*
X61764Y15649D01*
Y15549D01*
X61714Y15499D01*
X61664D01*
X61614Y15549D01*
Y15699D01*
X61464Y15199D02*
X61514Y15299D01*
X61614Y15399D01*
X61714D01*
X61764Y15349D01*
Y15249D01*
X61714Y15199D01*
X61664D01*
X61614Y15249D01*
Y15399D01*
X53655Y23811D02*
Y23511D01*
X53805D01*
X53855Y23561D01*
Y23661D01*
X53805Y23711D01*
X53655D01*
X53755D02*
X53855Y23811D01*
X54155Y23511D02*
X54055Y23561D01*
X53955Y23661D01*
Y23761D01*
X54005Y23811D01*
X54105D01*
X54155Y23761D01*
Y23711D01*
X54105Y23661D01*
X53955D01*
X54405Y23811D02*
Y23511D01*
X54255Y23661D01*
X54455D01*
X61772Y18310D02*
X61472D01*
Y18160D01*
X61522Y18110D01*
X61622D01*
X61672Y18160D01*
Y18310D01*
Y18210D02*
X61772Y18110D01*
X61472Y17810D02*
X61522Y17910D01*
X61622Y18010D01*
X61722D01*
X61772Y17960D01*
Y17860D01*
X61722Y17810D01*
X61672D01*
X61622Y17860D01*
Y18010D01*
X61522Y17710D02*
X61472Y17660D01*
Y17560D01*
X61522Y17510D01*
X61572D01*
X61622Y17560D01*
Y17610D01*
Y17560D01*
X61672Y17510D01*
X61722D01*
X61772Y17560D01*
Y17660D01*
X61722Y17710D01*
X56462Y29762D02*
Y29462D01*
X56611D01*
X56661Y29512D01*
Y29612D01*
X56611Y29662D01*
X56462D01*
X56561D02*
X56661Y29762D01*
X56961Y29462D02*
X56861Y29512D01*
X56761Y29612D01*
Y29712D01*
X56811Y29762D01*
X56911D01*
X56961Y29712D01*
Y29662D01*
X56911Y29612D01*
X56761D01*
X57061Y29762D02*
X57161D01*
X57111D01*
Y29462D01*
X57061Y29512D01*
X57476Y24378D02*
X57176D01*
Y24228D01*
X57226Y24178D01*
X57326D01*
X57376Y24228D01*
Y24378D01*
Y24278D02*
X57476Y24178D01*
X57176Y23878D02*
Y24078D01*
X57326D01*
X57276Y23978D01*
Y23928D01*
X57326Y23878D01*
X57426D01*
X57476Y23928D01*
Y24028D01*
X57426Y24078D01*
X57226Y23778D02*
X57176Y23728D01*
Y23629D01*
X57226Y23579D01*
X57276D01*
X57326Y23629D01*
X57376Y23579D01*
X57426D01*
X57476Y23629D01*
Y23728D01*
X57426Y23778D01*
X57376D01*
X57326Y23728D01*
X57276Y23778D01*
X57226D01*
X57326Y23728D02*
Y23629D01*
X61780Y11139D02*
X61480D01*
Y10989D01*
X61530Y10939D01*
X61630D01*
X61680Y10989D01*
Y11139D01*
Y11039D02*
X61780Y10939D01*
X61480Y10639D02*
Y10839D01*
X61630D01*
X61580Y10739D01*
Y10689D01*
X61630Y10639D01*
X61730D01*
X61780Y10689D01*
Y10789D01*
X61730Y10839D01*
X61480Y10539D02*
Y10339D01*
X61530D01*
X61730Y10539D01*
X61780D01*
X61760Y13010D02*
X61460D01*
Y12860D01*
X61510Y12810D01*
X61610D01*
X61660Y12860D01*
Y13010D01*
Y12910D02*
X61760Y12810D01*
X61460Y12510D02*
Y12710D01*
X61610D01*
X61560Y12610D01*
Y12560D01*
X61610Y12510D01*
X61710D01*
X61760Y12560D01*
Y12660D01*
X61710Y12710D01*
X61460Y12210D02*
X61510Y12310D01*
X61610Y12410D01*
X61710D01*
X61760Y12360D01*
Y12260D01*
X61710Y12210D01*
X61660D01*
X61610Y12260D01*
Y12410D01*
X59002Y23050D02*
X58702D01*
Y22900D01*
X58752Y22850D01*
X58852D01*
X58902Y22900D01*
Y23050D01*
Y22950D02*
X59002Y22850D01*
X58702Y22550D02*
Y22750D01*
X58852D01*
X58802Y22650D01*
Y22600D01*
X58852Y22550D01*
X58952D01*
X59002Y22600D01*
Y22700D01*
X58952Y22750D01*
X58702Y22250D02*
Y22450D01*
X58852D01*
X58802Y22350D01*
Y22300D01*
X58852Y22250D01*
X58952D01*
X59002Y22300D01*
Y22400D01*
X58952Y22450D01*
X58404Y12471D02*
X58104D01*
Y12321D01*
X58154Y12271D01*
X58254D01*
X58304Y12321D01*
Y12471D01*
Y12371D02*
X58404Y12271D01*
Y12021D02*
X58104D01*
X58254Y12171D01*
Y11971D01*
X58104Y11672D02*
Y11871D01*
X58254D01*
X58204Y11771D01*
Y11721D01*
X58254Y11672D01*
X58354D01*
X58404Y11721D01*
Y11821D01*
X58354Y11871D01*
X20569Y14004D02*
X20269D01*
Y13854D01*
X20319Y13804D01*
X20419D01*
X20469Y13854D01*
Y14004D01*
Y13904D02*
X20569Y13804D01*
Y13554D02*
X20269D01*
X20419Y13704D01*
Y13504D01*
X20319Y13404D02*
X20269Y13354D01*
Y13254D01*
X20319Y13204D01*
X20369D01*
X20419Y13254D01*
Y13304D01*
Y13254D01*
X20469Y13204D01*
X20519D01*
X20569Y13254D01*
Y13354D01*
X20519Y13404D01*
X56072Y12480D02*
X55772D01*
Y12330D01*
X55822Y12280D01*
X55922D01*
X55972Y12330D01*
Y12480D01*
Y12380D02*
X56072Y12280D01*
X55822Y12180D02*
X55772Y12130D01*
Y12030D01*
X55822Y11980D01*
X55872D01*
X55922Y12030D01*
Y12080D01*
Y12030D01*
X55972Y11980D01*
X56022D01*
X56072Y12030D01*
Y12130D01*
X56022Y12180D01*
Y11880D02*
X56072Y11830D01*
Y11730D01*
X56022Y11680D01*
X55822D01*
X55772Y11730D01*
Y11830D01*
X55822Y11880D01*
X55872D01*
X55922Y11830D01*
Y11680D01*
X16939Y13322D02*
Y13022D01*
X17089D01*
X17139Y13072D01*
Y13172D01*
X17089Y13222D01*
X16939D01*
X17039D02*
X17139Y13322D01*
X17239Y13072D02*
X17289Y13022D01*
X17389D01*
X17439Y13072D01*
Y13122D01*
X17389Y13172D01*
X17339D01*
X17389D01*
X17439Y13222D01*
Y13272D01*
X17389Y13322D01*
X17289D01*
X17239Y13272D01*
X17539Y13022D02*
X17738D01*
Y13072D01*
X17539Y13272D01*
Y13322D01*
X54734Y11897D02*
Y11597D01*
X54884D01*
X54934Y11647D01*
Y11747D01*
X54884Y11797D01*
X54734D01*
X54834D02*
X54934Y11897D01*
X55034Y11647D02*
X55084Y11597D01*
X55184D01*
X55234Y11647D01*
Y11697D01*
X55184Y11747D01*
X55134D01*
X55184D01*
X55234Y11797D01*
Y11847D01*
X55184Y11897D01*
X55084D01*
X55034Y11847D01*
X55534Y11597D02*
X55434Y11647D01*
X55334Y11747D01*
Y11847D01*
X55384Y11897D01*
X55484D01*
X55534Y11847D01*
Y11797D01*
X55484Y11747D01*
X55334D01*
X50388Y12355D02*
Y12055D01*
X50537D01*
X50587Y12105D01*
Y12205D01*
X50537Y12255D01*
X50388D01*
X50487D02*
X50587Y12355D01*
X50687Y12105D02*
X50737Y12055D01*
X50837D01*
X50887Y12105D01*
Y12155D01*
X50837Y12205D01*
X50787D01*
X50837D01*
X50887Y12255D01*
Y12305D01*
X50837Y12355D01*
X50737D01*
X50687Y12305D01*
X51187Y12055D02*
X50987D01*
Y12205D01*
X51087Y12155D01*
X51137D01*
X51187Y12205D01*
Y12305D01*
X51137Y12355D01*
X51037D01*
X50987Y12305D01*
X37571Y11339D02*
X37271D01*
Y11189D01*
X37321Y11139D01*
X37421D01*
X37471Y11189D01*
Y11339D01*
Y11239D02*
X37571Y11139D01*
X37321Y11039D02*
X37271Y10989D01*
Y10889D01*
X37321Y10839D01*
X37371D01*
X37421Y10889D01*
Y10939D01*
Y10889D01*
X37471Y10839D01*
X37521D01*
X37571Y10889D01*
Y10989D01*
X37521Y11039D01*
X37571Y10589D02*
X37271D01*
X37421Y10739D01*
Y10539D01*
X31490Y12158D02*
Y11858D01*
X31640D01*
X31690Y11908D01*
Y12008D01*
X31640Y12058D01*
X31490D01*
X31590D02*
X31690Y12158D01*
X31790Y11908D02*
X31840Y11858D01*
X31940D01*
X31990Y11908D01*
Y11958D01*
X31940Y12008D01*
X31890D01*
X31940D01*
X31990Y12058D01*
Y12108D01*
X31940Y12158D01*
X31840D01*
X31790Y12108D01*
X32090Y11908D02*
X32140Y11858D01*
X32240D01*
X32290Y11908D01*
Y11958D01*
X32240Y12008D01*
X32190D01*
X32240D01*
X32290Y12058D01*
Y12108D01*
X32240Y12158D01*
X32140D01*
X32090Y12108D01*
X17068Y11961D02*
Y11661D01*
X17218D01*
X17268Y11711D01*
Y11811D01*
X17218Y11861D01*
X17068D01*
X17168D02*
X17268Y11961D01*
X17368Y11711D02*
X17418Y11661D01*
X17518D01*
X17568Y11711D01*
Y11761D01*
X17518Y11811D01*
X17468D01*
X17518D01*
X17568Y11861D01*
Y11911D01*
X17518Y11961D01*
X17418D01*
X17368Y11911D01*
X17867Y11961D02*
X17668D01*
X17867Y11761D01*
Y11711D01*
X17818Y11661D01*
X17718D01*
X17668Y11711D01*
X12642Y12355D02*
Y12055D01*
X12792D01*
X12842Y12105D01*
Y12205D01*
X12792Y12255D01*
X12642D01*
X12742D02*
X12842Y12355D01*
X12942Y12105D02*
X12992Y12055D01*
X13092D01*
X13142Y12105D01*
Y12155D01*
X13092Y12205D01*
X13042D01*
X13092D01*
X13142Y12255D01*
Y12305D01*
X13092Y12355D01*
X12992D01*
X12942Y12305D01*
X13242Y12355D02*
X13342D01*
X13292D01*
Y12055D01*
X13242Y12105D01*
X54270Y13061D02*
X53970D01*
Y12911D01*
X54020Y12861D01*
X54120D01*
X54170Y12911D01*
Y13061D01*
Y12961D02*
X54270Y12861D01*
X54020Y12761D02*
X53970Y12711D01*
Y12611D01*
X54020Y12561D01*
X54070D01*
X54120Y12611D01*
Y12661D01*
Y12611D01*
X54170Y12561D01*
X54220D01*
X54270Y12611D01*
Y12711D01*
X54220Y12761D01*
X54020Y12461D02*
X53970Y12411D01*
Y12311D01*
X54020Y12261D01*
X54220D01*
X54270Y12311D01*
Y12411D01*
X54220Y12461D01*
X54020D01*
X49756Y12998D02*
X49456D01*
Y12848D01*
X49506Y12798D01*
X49606D01*
X49656Y12848D01*
Y12998D01*
Y12898D02*
X49756Y12798D01*
Y12498D02*
Y12698D01*
X49556Y12498D01*
X49506D01*
X49456Y12548D01*
Y12648D01*
X49506Y12698D01*
X49706Y12398D02*
X49756Y12349D01*
Y12249D01*
X49706Y12199D01*
X49506D01*
X49456Y12249D01*
Y12349D01*
X49506Y12398D01*
X49556D01*
X49606Y12349D01*
Y12199D01*
X35883Y11922D02*
Y11622D01*
X36033D01*
X36083Y11672D01*
Y11772D01*
X36033Y11822D01*
X35883D01*
X35983D02*
X36083Y11922D01*
X36383D02*
X36183D01*
X36383Y11722D01*
Y11672D01*
X36333Y11622D01*
X36233D01*
X36183Y11672D01*
X36483D02*
X36533Y11622D01*
X36633D01*
X36683Y11672D01*
Y11722D01*
X36633Y11772D01*
X36683Y11822D01*
Y11872D01*
X36633Y11922D01*
X36533D01*
X36483Y11872D01*
Y11822D01*
X36533Y11772D01*
X36483Y11722D01*
Y11672D01*
X36533Y11772D02*
X36633D01*
X30859Y12983D02*
X30559D01*
Y12833D01*
X30609Y12783D01*
X30709D01*
X30759Y12833D01*
Y12983D01*
Y12883D02*
X30859Y12783D01*
Y12483D02*
Y12683D01*
X30659Y12483D01*
X30609D01*
X30559Y12533D01*
Y12633D01*
X30609Y12683D01*
X30559Y12383D02*
Y12183D01*
X30609D01*
X30809Y12383D01*
X30859D01*
X16510Y13006D02*
X16211D01*
Y12856D01*
X16260Y12806D01*
X16360D01*
X16410Y12856D01*
Y13006D01*
Y12906D02*
X16510Y12806D01*
Y12506D02*
Y12706D01*
X16310Y12506D01*
X16260D01*
X16211Y12556D01*
Y12656D01*
X16260Y12706D01*
X16211Y12206D02*
X16260Y12306D01*
X16360Y12406D01*
X16460D01*
X16510Y12356D01*
Y12256D01*
X16460Y12206D01*
X16410D01*
X16360Y12256D01*
Y12406D01*
X11961Y12955D02*
X11661D01*
Y12805D01*
X11711Y12755D01*
X11811D01*
X11861Y12805D01*
Y12955D01*
Y12855D02*
X11961Y12755D01*
Y12455D02*
Y12655D01*
X11761Y12455D01*
X11711D01*
X11661Y12505D01*
Y12605D01*
X11711Y12655D01*
X11661Y12155D02*
Y12355D01*
X11811D01*
X11761Y12255D01*
Y12205D01*
X11811Y12155D01*
X11911D01*
X11961Y12205D01*
Y12305D01*
X11911Y12355D01*
X53300Y14004D02*
X53000D01*
Y13854D01*
X53050Y13805D01*
X53150D01*
X53200Y13854D01*
Y14004D01*
Y13904D02*
X53300Y13805D01*
Y13505D02*
Y13705D01*
X53100Y13505D01*
X53050D01*
X53000Y13555D01*
Y13655D01*
X53050Y13705D01*
X53300Y13255D02*
X53000D01*
X53150Y13405D01*
Y13205D01*
X47985Y12605D02*
X47685D01*
Y12455D01*
X47735Y12405D01*
X47835D01*
X47885Y12455D01*
Y12605D01*
Y12505D02*
X47985Y12405D01*
Y12105D02*
Y12305D01*
X47785Y12105D01*
X47735D01*
X47685Y12155D01*
Y12255D01*
X47735Y12305D01*
Y12005D02*
X47685Y11955D01*
Y11855D01*
X47735Y11805D01*
X47785D01*
X47835Y11855D01*
Y11905D01*
Y11855D01*
X47885Y11805D01*
X47935D01*
X47985Y11855D01*
Y11955D01*
X47935Y12005D01*
X34402Y13983D02*
X34102D01*
Y13833D01*
X34152Y13783D01*
X34252D01*
X34302Y13833D01*
Y13983D01*
Y13883D02*
X34402Y13783D01*
Y13483D02*
Y13683D01*
X34202Y13483D01*
X34152D01*
X34102Y13533D01*
Y13633D01*
X34152Y13683D01*
X34402Y13183D02*
Y13383D01*
X34202Y13183D01*
X34152D01*
X34102Y13233D01*
Y13333D01*
X34152Y13383D01*
X29087Y12555D02*
X28787D01*
Y12405D01*
X28837Y12355D01*
X28937D01*
X28987Y12405D01*
Y12555D01*
Y12455D02*
X29087Y12355D01*
Y12055D02*
Y12255D01*
X28887Y12055D01*
X28837D01*
X28787Y12105D01*
Y12205D01*
X28837Y12255D01*
X29087Y11955D02*
Y11855D01*
Y11905D01*
X28787D01*
X28837Y11955D01*
X14804Y12626D02*
X14504D01*
Y12476D01*
X14554Y12426D01*
X14654D01*
X14704Y12476D01*
Y12626D01*
Y12526D02*
X14804Y12426D01*
Y12126D02*
Y12326D01*
X14604Y12126D01*
X14554D01*
X14504Y12176D01*
Y12276D01*
X14554Y12326D01*
Y12026D02*
X14504Y11976D01*
Y11876D01*
X14554Y11826D01*
X14754D01*
X14804Y11876D01*
Y11976D01*
X14754Y12026D01*
X14554D01*
X10189Y12570D02*
X9889D01*
Y12420D01*
X9939Y12370D01*
X10039D01*
X10089Y12420D01*
Y12570D01*
Y12470D02*
X10189Y12370D01*
Y12270D02*
Y12170D01*
Y12220D01*
X9889D01*
X9939Y12270D01*
X10139Y12020D02*
X10189Y11970D01*
Y11870D01*
X10139Y11820D01*
X9939D01*
X9889Y11870D01*
Y11970D01*
X9939Y12020D01*
X9989D01*
X10039Y11970D01*
Y11820D01*
X47126Y11399D02*
X46826D01*
Y11249D01*
X46876Y11199D01*
X46976D01*
X47026Y11249D01*
Y11399D01*
Y11299D02*
X47126Y11199D01*
Y11099D02*
Y10999D01*
Y11049D01*
X46826D01*
X46876Y11099D01*
Y10849D02*
X46826Y10799D01*
Y10699D01*
X46876Y10649D01*
X46926D01*
X46976Y10699D01*
X47026Y10649D01*
X47076D01*
X47126Y10699D01*
Y10799D01*
X47076Y10849D01*
X47026D01*
X46976Y10799D01*
X46926Y10849D01*
X46876D01*
X46976Y10799D02*
Y10699D01*
X42518Y11369D02*
X42218D01*
Y11219D01*
X42268Y11169D01*
X42368D01*
X42418Y11219D01*
Y11369D01*
Y11269D02*
X42518Y11169D01*
Y11069D02*
Y10969D01*
Y11019D01*
X42218D01*
X42268Y11069D01*
X42218Y10819D02*
Y10620D01*
X42268D01*
X42468Y10819D01*
X42518D01*
X26790Y11961D02*
Y11661D01*
X26940D01*
X26990Y11711D01*
Y11811D01*
X26940Y11861D01*
X26790D01*
X26890D02*
X26990Y11961D01*
X27090D02*
X27190D01*
X27140D01*
Y11661D01*
X27090Y11711D01*
X27540Y11661D02*
X27440Y11711D01*
X27340Y11811D01*
Y11911D01*
X27390Y11961D01*
X27490D01*
X27540Y11911D01*
Y11861D01*
X27490Y11811D01*
X27340D01*
X23589Y11391D02*
X23290D01*
Y11241D01*
X23340Y11191D01*
X23440D01*
X23489Y11241D01*
Y11391D01*
Y11291D02*
X23589Y11191D01*
Y11091D02*
Y10991D01*
Y11041D01*
X23290D01*
X23340Y11091D01*
X23290Y10641D02*
Y10841D01*
X23440D01*
X23390Y10741D01*
Y10691D01*
X23440Y10641D01*
X23539D01*
X23589Y10691D01*
Y10791D01*
X23539Y10841D01*
X7696Y11961D02*
Y11661D01*
X7846D01*
X7896Y11711D01*
Y11811D01*
X7846Y11861D01*
X7696D01*
X7796D02*
X7896Y11961D01*
X7996D02*
X8096D01*
X8046D01*
Y11661D01*
X7996Y11711D01*
X8396Y11961D02*
Y11661D01*
X8246Y11811D01*
X8446D01*
X3219Y12032D02*
Y11732D01*
X3369D01*
X3419Y11782D01*
Y11882D01*
X3369Y11932D01*
X3219D01*
X3319D02*
X3419Y12032D01*
X3519D02*
X3619D01*
X3569D01*
Y11732D01*
X3519Y11782D01*
X3769D02*
X3819Y11732D01*
X3918D01*
X3968Y11782D01*
Y11832D01*
X3918Y11882D01*
X3868D01*
X3918D01*
X3968Y11932D01*
Y11982D01*
X3918Y12032D01*
X3819D01*
X3769Y11982D01*
X44835Y12973D02*
X44535D01*
Y12823D01*
X44585Y12773D01*
X44685D01*
X44735Y12823D01*
Y12973D01*
Y12873D02*
X44835Y12773D01*
Y12673D02*
Y12573D01*
Y12623D01*
X44535D01*
X44585Y12673D01*
X44835Y12224D02*
Y12423D01*
X44635Y12224D01*
X44585D01*
X44535Y12274D01*
Y12373D01*
X44585Y12423D01*
X40772Y11941D02*
Y11641D01*
X40922D01*
X40972Y11691D01*
Y11791D01*
X40922Y11841D01*
X40772D01*
X40872D02*
X40972Y11941D01*
X41072D02*
X41172D01*
X41122D01*
Y11641D01*
X41072Y11691D01*
X41322Y11941D02*
X41422D01*
X41372D01*
Y11641D01*
X41322Y11691D01*
X25937Y12973D02*
X25637D01*
Y12823D01*
X25687Y12773D01*
X25787D01*
X25837Y12823D01*
Y12973D01*
Y12873D02*
X25937Y12773D01*
Y12673D02*
Y12573D01*
Y12623D01*
X25637D01*
X25687Y12673D01*
Y12423D02*
X25637Y12373D01*
Y12274D01*
X25687Y12224D01*
X25887D01*
X25937Y12274D01*
Y12373D01*
X25887Y12423D01*
X25687D01*
X21792Y12049D02*
Y11749D01*
X21942D01*
X21992Y11799D01*
Y11899D01*
X21942Y11949D01*
X21792D01*
X21892D02*
X21992Y12049D01*
X22091Y11999D02*
X22141Y12049D01*
X22241D01*
X22291Y11999D01*
Y11799D01*
X22241Y11749D01*
X22141D01*
X22091Y11799D01*
Y11849D01*
X22141Y11899D01*
X22291D01*
X7040Y12651D02*
X6740D01*
Y12502D01*
X6790Y12452D01*
X6890D01*
X6940Y12502D01*
Y12651D01*
Y12552D02*
X7040Y12452D01*
X6790Y12352D02*
X6740Y12302D01*
Y12202D01*
X6790Y12152D01*
X6840D01*
X6890Y12202D01*
X6940Y12152D01*
X6990D01*
X7040Y12202D01*
Y12302D01*
X6990Y12352D01*
X6940D01*
X6890Y12302D01*
X6840Y12352D01*
X6790D01*
X6890Y12302D02*
Y12202D01*
X2512Y12848D02*
X2212D01*
Y12698D01*
X2262Y12648D01*
X2362D01*
X2412Y12698D01*
Y12848D01*
Y12748D02*
X2512Y12648D01*
X2212Y12548D02*
Y12349D01*
X2262D01*
X2462Y12548D01*
X2512D01*
X43063Y12455D02*
X42763D01*
Y12305D01*
X42813Y12255D01*
X42913D01*
X42963Y12305D01*
Y12455D01*
Y12355D02*
X43063Y12255D01*
X42763Y11955D02*
X42813Y12055D01*
X42913Y12155D01*
X43013D01*
X43063Y12105D01*
Y12005D01*
X43013Y11955D01*
X42963D01*
X42913Y12005D01*
Y12155D01*
X40036Y12855D02*
X39736D01*
Y12705D01*
X39786Y12655D01*
X39886D01*
X39936Y12705D01*
Y12855D01*
Y12755D02*
X40036Y12655D01*
X39736Y12355D02*
Y12555D01*
X39886D01*
X39836Y12455D01*
Y12405D01*
X39886Y12355D01*
X39986D01*
X40036Y12405D01*
Y12505D01*
X39986Y12555D01*
X24166Y12455D02*
X23866D01*
Y12305D01*
X23916Y12255D01*
X24016D01*
X24066Y12305D01*
Y12455D01*
Y12355D02*
X24166Y12255D01*
Y12005D02*
X23866D01*
X24016Y12155D01*
Y11955D01*
X21078Y12655D02*
X20778D01*
Y12505D01*
X20828Y12455D01*
X20928D01*
X20978Y12505D01*
Y12655D01*
Y12555D02*
X21078Y12455D01*
X20828Y12355D02*
X20778Y12305D01*
Y12205D01*
X20828Y12155D01*
X20878D01*
X20928Y12205D01*
Y12255D01*
Y12205D01*
X20978Y12155D01*
X21028D01*
X21078Y12205D01*
Y12305D01*
X21028Y12355D01*
X5344Y12455D02*
X5044D01*
Y12305D01*
X5094Y12255D01*
X5194D01*
X5244Y12305D01*
Y12455D01*
Y12355D02*
X5344Y12255D01*
Y11955D02*
Y12155D01*
X5144Y11955D01*
X5094D01*
X5044Y12005D01*
Y12105D01*
X5094Y12155D01*
X602Y12451D02*
X303D01*
Y12301D01*
X353Y12251D01*
X452D01*
X502Y12301D01*
Y12451D01*
Y12351D02*
X602Y12251D01*
Y12151D02*
Y12051D01*
Y12101D01*
X303D01*
X353Y12151D01*
X52975Y16635D02*
Y16435D01*
X52925Y16385D01*
X52825D01*
X52775Y16435D01*
Y16635D01*
X52825Y16685D01*
X52925D01*
X52875Y16585D02*
X52975Y16685D01*
X52925D02*
X52975Y16635D01*
X53075Y16685D02*
X53175D01*
X53125D01*
Y16385D01*
X53075Y16435D01*
X53325Y16385D02*
X53524D01*
Y16435D01*
X53325Y16635D01*
Y16685D01*
X36124Y18876D02*
Y18676D01*
X36074Y18626D01*
X35974D01*
X35924Y18676D01*
Y18876D01*
X35974Y18926D01*
X36074D01*
X36024Y18826D02*
X36124Y18926D01*
X36074D02*
X36124Y18876D01*
X36224Y18926D02*
X36324D01*
X36274D01*
Y18626D01*
X36224Y18676D01*
X36674Y18626D02*
X36574Y18676D01*
X36474Y18776D01*
Y18876D01*
X36524Y18926D01*
X36624D01*
X36674Y18876D01*
Y18826D01*
X36624Y18776D01*
X36474D01*
X17542Y18801D02*
Y18601D01*
X17492Y18551D01*
X17392D01*
X17342Y18601D01*
Y18801D01*
X17392Y18851D01*
X17492D01*
X17442Y18751D02*
X17542Y18851D01*
X17492D02*
X17542Y18801D01*
X17642Y18851D02*
X17742D01*
X17692D01*
Y18551D01*
X17642Y18601D01*
X18091Y18551D02*
X17891D01*
Y18701D01*
X17991Y18651D01*
X18041D01*
X18091Y18701D01*
Y18801D01*
X18041Y18851D01*
X17941D01*
X17891Y18801D01*
X500Y28094D02*
X200D01*
Y27944D01*
X250Y27894D01*
X350D01*
X400Y27944D01*
Y28094D01*
X250Y27794D02*
X200Y27744D01*
Y27644D01*
X250Y27594D01*
X300D01*
X350Y27644D01*
Y27694D01*
Y27644D01*
X400Y27594D01*
X450D01*
X500Y27644D01*
Y27744D01*
X450Y27794D01*
X531Y24648D02*
X232D01*
Y24498D01*
X282Y24448D01*
X381D01*
X431Y24498D01*
Y24648D01*
X531Y24148D02*
Y24348D01*
X332Y24148D01*
X282D01*
X232Y24198D01*
Y24298D01*
X282Y24348D01*
X509Y31704D02*
X209D01*
Y31554D01*
X259Y31504D01*
X359D01*
X409Y31554D01*
Y31704D01*
X509Y31404D02*
Y31304D01*
Y31354D01*
X209D01*
X259Y31404D01*
X34692Y32046D02*
X34992D01*
Y31846D01*
X34692Y31546D02*
Y31746D01*
X34992D01*
Y31546D01*
X34842Y31746D02*
Y31646D01*
X34692Y31446D02*
X34992D01*
Y31296D01*
X34942Y31246D01*
X34742D01*
X34692Y31296D01*
Y31446D01*
X34992Y30996D02*
X34692D01*
X34842Y31146D01*
Y30946D01*
X65801Y28103D02*
Y27803D01*
X65601D01*
X65301D02*
X65501D01*
X65301Y28003D01*
Y28053D01*
X65351Y28103D01*
X65451D01*
X65501Y28053D01*
X10853Y40095D02*
X10753D01*
X10803D01*
Y40345D01*
X10753Y40395D01*
X10703D01*
X10653Y40345D01*
X10953Y40145D02*
X11003Y40095D01*
X11103D01*
X11153Y40145D01*
Y40195D01*
X11103Y40245D01*
X11153Y40295D01*
Y40345D01*
X11103Y40395D01*
X11003D01*
X10953Y40345D01*
Y40295D01*
X11003Y40245D01*
X10953Y40195D01*
Y40145D01*
X11003Y40245D02*
X11103D01*
X24873Y37422D02*
X24773D01*
X24823D01*
Y37672D01*
X24773Y37722D01*
X24723D01*
X24673Y37672D01*
X24973Y37422D02*
X25173D01*
Y37472D01*
X24973Y37672D01*
Y37722D01*
X31301Y37252D02*
Y37552D01*
X31451D01*
X31501Y37502D01*
Y37302D01*
X31451Y37252D01*
X31301D01*
X31801Y37552D02*
X31601D01*
X31801Y37352D01*
Y37302D01*
X31751Y37252D01*
X31651D01*
X31601Y37302D01*
X32101Y37252D02*
X32001Y37302D01*
X31901Y37402D01*
Y37502D01*
X31951Y37552D01*
X32051D01*
X32101Y37502D01*
Y37452D01*
X32051Y37402D01*
X31901D01*
X32527Y37408D02*
X32827D01*
Y37258D01*
X32777Y37208D01*
X32577D01*
X32527Y37258D01*
Y37408D01*
X32827Y36908D02*
Y37108D01*
X32627Y36908D01*
X32577D01*
X32527Y36958D01*
Y37058D01*
X32577Y37108D01*
X32527Y36608D02*
Y36808D01*
X32677D01*
X32627Y36708D01*
Y36658D01*
X32677Y36608D01*
X32777D01*
X32827Y36658D01*
Y36758D01*
X32777Y36808D01*
X33708Y37408D02*
X34008D01*
Y37258D01*
X33958Y37208D01*
X33758D01*
X33708Y37258D01*
Y37408D01*
X34008Y36908D02*
Y37108D01*
X33808Y36908D01*
X33758D01*
X33708Y36958D01*
Y37058D01*
X33758Y37108D01*
X34008Y36658D02*
X33708D01*
X33858Y36808D01*
Y36608D01*
X52212Y12580D02*
X52512D01*
Y12430D01*
X52462Y12380D01*
X52262D01*
X52212Y12430D01*
Y12580D01*
X52512Y12280D02*
Y12180D01*
Y12230D01*
X52212D01*
X52262Y12280D01*
X52512Y11830D02*
Y12030D01*
X52312Y11830D01*
X52262D01*
X52212Y11880D01*
Y11980D01*
X52262Y12030D01*
X47685Y10955D02*
X47985D01*
Y10805D01*
X47935Y10755D01*
X47735D01*
X47685Y10805D01*
Y10955D01*
X47985Y10655D02*
Y10555D01*
Y10605D01*
X47685D01*
X47735Y10655D01*
X47985Y10405D02*
Y10305D01*
Y10355D01*
X47685D01*
X47735Y10405D01*
X33238Y12616D02*
X33538D01*
Y12466D01*
X33488Y12416D01*
X33288D01*
X33238Y12466D01*
Y12616D01*
X33538Y12316D02*
Y12216D01*
Y12266D01*
X33238D01*
X33288Y12316D01*
Y12066D02*
X33238Y12016D01*
Y11916D01*
X33288Y11866D01*
X33488D01*
X33538Y11916D01*
Y12016D01*
X33488Y12066D01*
X33288D01*
X28787Y10880D02*
X29087D01*
Y10730D01*
X29037Y10680D01*
X28837D01*
X28787Y10730D01*
Y10880D01*
X29037Y10580D02*
X29087Y10530D01*
Y10430D01*
X29037Y10380D01*
X28837D01*
X28787Y10430D01*
Y10530D01*
X28837Y10580D01*
X28887D01*
X28937Y10530D01*
Y10380D01*
X15262Y10013D02*
X15562D01*
Y9863D01*
X15512Y9813D01*
X15312D01*
X15262Y9863D01*
Y10013D01*
X15312Y9713D02*
X15262Y9663D01*
Y9563D01*
X15312Y9513D01*
X15362D01*
X15412Y9563D01*
X15462Y9513D01*
X15512D01*
X15562Y9563D01*
Y9663D01*
X15512Y9713D01*
X15462D01*
X15412Y9663D01*
X15362Y9713D01*
X15312D01*
X15412Y9663D02*
Y9563D01*
X9843Y11172D02*
X10142D01*
Y11022D01*
X10092Y10972D01*
X9893D01*
X9843Y11022D01*
Y11172D01*
Y10872D02*
Y10672D01*
X9893D01*
X10092Y10872D01*
X10142D01*
X43502Y9834D02*
X43802D01*
Y9684D01*
X43752Y9634D01*
X43552D01*
X43502Y9684D01*
Y9834D01*
Y9335D02*
X43552Y9435D01*
X43652Y9535D01*
X43752D01*
X43802Y9485D01*
Y9385D01*
X43752Y9335D01*
X43702D01*
X43652Y9385D01*
Y9535D01*
X39338Y9399D02*
X39638D01*
Y9249D01*
X39588Y9199D01*
X39388D01*
X39338Y9249D01*
Y9399D01*
Y8899D02*
Y9099D01*
X39488D01*
X39438Y8999D01*
Y8949D01*
X39488Y8899D01*
X39588D01*
X39638Y8949D01*
Y9049D01*
X39588Y9099D01*
X24644Y10013D02*
X24944D01*
Y9863D01*
X24894Y9813D01*
X24694D01*
X24644Y9863D01*
Y10013D01*
X24944Y9563D02*
X24644D01*
X24794Y9713D01*
Y9513D01*
X20177Y9356D02*
X20477D01*
Y9206D01*
X20427Y9156D01*
X20227D01*
X20177Y9206D01*
Y9356D01*
X20227Y9056D02*
X20177Y9006D01*
Y8907D01*
X20227Y8857D01*
X20277D01*
X20327Y8907D01*
Y8956D01*
Y8907D01*
X20377Y8857D01*
X20427D01*
X20477Y8907D01*
Y9006D01*
X20427Y9056D01*
X5044Y11130D02*
X5344D01*
Y10980D01*
X5294Y10930D01*
X5094D01*
X5044Y10980D01*
Y11130D01*
X5344Y10630D02*
Y10830D01*
X5144Y10630D01*
X5094D01*
X5044Y10680D01*
Y10780D01*
X5094Y10830D01*
X342Y10934D02*
X642D01*
Y10784D01*
X592Y10734D01*
X392D01*
X342Y10784D01*
Y10934D01*
X642Y10634D02*
Y10534D01*
Y10584D01*
X342D01*
X392Y10634D01*
X25487Y32774D02*
X25438Y32724D01*
X25338D01*
X25288Y32774D01*
Y32974D01*
X25338Y33024D01*
X25438D01*
X25487Y32974D01*
X25587Y33024D02*
X25687D01*
X25637D01*
Y32724D01*
X25587Y32774D01*
X25837Y33024D02*
X25937D01*
X25887D01*
Y32724D01*
X25837Y32774D01*
X26287Y32724D02*
X26087D01*
Y32874D01*
X26187Y32824D01*
X26237D01*
X26287Y32874D01*
Y32974D01*
X26237Y33024D01*
X26137D01*
X26087Y32974D01*
X25484Y32026D02*
X25434Y31976D01*
X25334D01*
X25285Y32026D01*
Y32226D01*
X25334Y32276D01*
X25434D01*
X25484Y32226D01*
X25584Y32276D02*
X25684D01*
X25634D01*
Y31976D01*
X25584Y32026D01*
X25834Y32276D02*
X25934D01*
X25884D01*
Y31976D01*
X25834Y32026D01*
X26234Y32276D02*
Y31976D01*
X26084Y32126D01*
X26284D01*
X29349Y29121D02*
X29299Y29071D01*
X29200D01*
X29150Y29121D01*
Y29321D01*
X29200Y29371D01*
X29299D01*
X29349Y29321D01*
X29449Y29371D02*
X29549D01*
X29499D01*
Y29071D01*
X29449Y29121D01*
X29699Y29371D02*
X29799D01*
X29749D01*
Y29071D01*
X29699Y29121D01*
X30149Y29371D02*
X29949D01*
X30149Y29171D01*
Y29121D01*
X30099Y29071D01*
X29999D01*
X29949Y29121D01*
X33084Y32407D02*
X33034Y32457D01*
Y32557D01*
X33084Y32607D01*
X33284D01*
X33334Y32557D01*
Y32457D01*
X33284Y32407D01*
X33334Y32307D02*
Y32207D01*
Y32257D01*
X33034D01*
X33084Y32307D01*
X33334Y32057D02*
Y31957D01*
Y32007D01*
X33034D01*
X33084Y32057D01*
X33334Y31807D02*
Y31708D01*
Y31758D01*
X33034D01*
X33084Y31807D01*
X31787Y30806D02*
X31737Y30756D01*
X31637D01*
X31587Y30806D01*
Y31005D01*
X31637Y31055D01*
X31737D01*
X31787Y31005D01*
X31887Y31055D02*
X31987D01*
X31937D01*
Y30756D01*
X31887Y30806D01*
X32137Y31055D02*
X32237D01*
X32187D01*
Y30756D01*
X32137Y30806D01*
X32387D02*
X32436Y30756D01*
X32536D01*
X32586Y30806D01*
Y31005D01*
X32536Y31055D01*
X32436D01*
X32387Y31005D01*
Y30806D01*
X4325Y23101D02*
X4275Y23051D01*
X4175D01*
X4125Y23101D01*
Y23301D01*
X4175Y23351D01*
X4275D01*
X4325Y23301D01*
X4425Y23351D02*
X4525D01*
X4475D01*
Y23051D01*
X4425Y23101D01*
X4675D02*
X4725Y23051D01*
X4825D01*
X4875Y23101D01*
Y23301D01*
X4825Y23351D01*
X4725D01*
X4675Y23301D01*
Y23101D01*
X5125Y23351D02*
Y23051D01*
X4975Y23201D01*
X5175D01*
X4904Y29260D02*
X4954Y29310D01*
X5054D01*
X5104Y29260D01*
Y29060D01*
X5054Y29010D01*
X4954D01*
X4904Y29060D01*
X4804Y29010D02*
X4704D01*
X4754D01*
Y29310D01*
X4804Y29260D01*
X4554D02*
X4504Y29310D01*
X4404D01*
X4354Y29260D01*
Y29060D01*
X4404Y29010D01*
X4504D01*
X4554Y29060D01*
Y29260D01*
X4054Y29010D02*
X4254D01*
X4054Y29210D01*
Y29260D01*
X4104Y29310D01*
X4204D01*
X4254Y29260D01*
X31473Y36545D02*
X31423Y36595D01*
Y36695D01*
X31473Y36745D01*
X31673D01*
X31723Y36695D01*
Y36595D01*
X31673Y36545D01*
X31723Y36445D02*
Y36345D01*
Y36395D01*
X31423D01*
X31473Y36445D01*
Y36195D02*
X31423Y36146D01*
Y36046D01*
X31473Y35996D01*
X31673D01*
X31723Y36046D01*
Y36146D01*
X31673Y36195D01*
X31473D01*
Y35896D02*
X31423Y35846D01*
Y35746D01*
X31473Y35696D01*
X31673D01*
X31723Y35746D01*
Y35846D01*
X31673Y35896D01*
X31473D01*
X29548Y35073D02*
X29498Y35023D01*
X29398D01*
X29348Y35073D01*
Y35273D01*
X29398Y35323D01*
X29498D01*
X29548Y35273D01*
X29648D02*
X29698Y35323D01*
X29798D01*
X29848Y35273D01*
Y35073D01*
X29798Y35023D01*
X29698D01*
X29648Y35073D01*
Y35123D01*
X29698Y35173D01*
X29848D01*
X29948Y35273D02*
X29998Y35323D01*
X30098D01*
X30148Y35273D01*
Y35073D01*
X30098Y35023D01*
X29998D01*
X29948Y35073D01*
Y35123D01*
X29998Y35173D01*
X30148D01*
X27865Y36587D02*
X27815Y36637D01*
Y36737D01*
X27865Y36787D01*
X28065D01*
X28115Y36737D01*
Y36637D01*
X28065Y36587D01*
Y36487D02*
X28115Y36437D01*
Y36337D01*
X28065Y36287D01*
X27865D01*
X27815Y36337D01*
Y36437D01*
X27865Y36487D01*
X27915D01*
X27965Y36437D01*
Y36287D01*
X27865Y36187D02*
X27815Y36137D01*
Y36037D01*
X27865Y35987D01*
X27915D01*
X27965Y36037D01*
X28015Y35987D01*
X28065D01*
X28115Y36037D01*
Y36137D01*
X28065Y36187D01*
X28015D01*
X27965Y36137D01*
X27915Y36187D01*
X27865D01*
X27965Y36137D02*
Y36037D01*
X52950Y15451D02*
X52900Y15401D01*
X52800D01*
X52750Y15451D01*
Y15651D01*
X52800Y15701D01*
X52900D01*
X52950Y15651D01*
X53050D02*
X53100Y15701D01*
X53200D01*
X53250Y15651D01*
Y15451D01*
X53200Y15401D01*
X53100D01*
X53050Y15451D01*
Y15501D01*
X53100Y15551D01*
X53250D01*
X53549Y15401D02*
X53350D01*
Y15551D01*
X53450Y15501D01*
X53499D01*
X53549Y15551D01*
Y15651D01*
X53499Y15701D01*
X53400D01*
X53350Y15651D01*
X54895Y12299D02*
X54845Y12249D01*
X54745D01*
X54695Y12299D01*
Y12499D01*
X54745Y12549D01*
X54845D01*
X54895Y12499D01*
X54995D02*
X55045Y12549D01*
X55145D01*
X55195Y12499D01*
Y12299D01*
X55145Y12249D01*
X55045D01*
X54995Y12299D01*
Y12349D01*
X55045Y12399D01*
X55195D01*
X55445Y12549D02*
Y12249D01*
X55295Y12399D01*
X55495D01*
X34460Y15409D02*
X34410Y15359D01*
X34310D01*
X34260Y15409D01*
Y15609D01*
X34310Y15659D01*
X34410D01*
X34460Y15609D01*
X34560D02*
X34610Y15659D01*
X34710D01*
X34760Y15609D01*
Y15409D01*
X34710Y15359D01*
X34610D01*
X34560Y15409D01*
Y15459D01*
X34610Y15509D01*
X34760D01*
X35060Y15659D02*
X34860D01*
X35060Y15459D01*
Y15409D01*
X35010Y15359D01*
X34910D01*
X34860Y15409D01*
X37448Y13876D02*
X37398Y13826D01*
X37299D01*
X37249Y13876D01*
Y14076D01*
X37299Y14126D01*
X37398D01*
X37448Y14076D01*
X37548D02*
X37598Y14126D01*
X37698D01*
X37748Y14076D01*
Y13876D01*
X37698Y13826D01*
X37598D01*
X37548Y13876D01*
Y13926D01*
X37598Y13976D01*
X37748D01*
X37848Y14126D02*
X37948D01*
X37898D01*
Y13826D01*
X37848Y13876D01*
X15762Y15507D02*
X15712Y15457D01*
X15612D01*
X15562Y15507D01*
Y15707D01*
X15612Y15757D01*
X15712D01*
X15762Y15707D01*
X15862Y15507D02*
X15912Y15457D01*
X16012D01*
X16062Y15507D01*
Y15557D01*
X16012Y15607D01*
X16062Y15657D01*
Y15707D01*
X16012Y15757D01*
X15912D01*
X15862Y15707D01*
Y15657D01*
X15912Y15607D01*
X15862Y15557D01*
Y15507D01*
X15912Y15607D02*
X16012D01*
X16162Y15707D02*
X16212Y15757D01*
X16312D01*
X16362Y15707D01*
Y15507D01*
X16312Y15457D01*
X16212D01*
X16162Y15507D01*
Y15557D01*
X16212Y15607D01*
X16362D01*
X18698Y13835D02*
X18648Y13785D01*
X18548D01*
X18498Y13835D01*
Y14035D01*
X18548Y14085D01*
X18648D01*
X18698Y14035D01*
X18798Y13835D02*
X18848Y13785D01*
X18948D01*
X18998Y13835D01*
Y13885D01*
X18948Y13935D01*
X18998Y13985D01*
Y14035D01*
X18948Y14085D01*
X18848D01*
X18798Y14035D01*
Y13985D01*
X18848Y13935D01*
X18798Y13885D01*
Y13835D01*
X18848Y13935D02*
X18948D01*
X19098Y13835D02*
X19148Y13785D01*
X19248D01*
X19298Y13835D01*
Y13885D01*
X19248Y13935D01*
X19298Y13985D01*
Y14035D01*
X19248Y14085D01*
X19148D01*
X19098Y14035D01*
Y13985D01*
X19148Y13935D01*
X19098Y13885D01*
Y13835D01*
X19148Y13935D02*
X19248D01*
X49393Y21804D02*
X49343Y21854D01*
Y21954D01*
X49393Y22004D01*
X49593D01*
X49643Y21954D01*
Y21854D01*
X49593Y21804D01*
X49393Y21705D02*
X49343Y21655D01*
Y21555D01*
X49393Y21505D01*
X49443D01*
X49493Y21555D01*
X49543Y21505D01*
X49593D01*
X49643Y21555D01*
Y21655D01*
X49593Y21705D01*
X49543D01*
X49493Y21655D01*
X49443Y21705D01*
X49393D01*
X49493Y21655D02*
Y21555D01*
X49343Y21405D02*
Y21205D01*
X49393D01*
X49593Y21405D01*
X49643D01*
X50281Y21817D02*
X50231Y21867D01*
Y21966D01*
X50281Y22016D01*
X50481D01*
X50531Y21966D01*
Y21867D01*
X50481Y21817D01*
X50281Y21717D02*
X50231Y21667D01*
Y21567D01*
X50281Y21517D01*
X50331D01*
X50381Y21567D01*
X50431Y21517D01*
X50481D01*
X50531Y21567D01*
Y21667D01*
X50481Y21717D01*
X50431D01*
X50381Y21667D01*
X50331Y21717D01*
X50281D01*
X50381Y21667D02*
Y21567D01*
X50231Y21217D02*
Y21417D01*
X50381D01*
X50331Y21317D01*
Y21267D01*
X50381Y21217D01*
X50481D01*
X50531Y21267D01*
Y21367D01*
X50481Y21417D01*
X49506Y25397D02*
X49456Y25447D01*
Y25547D01*
X49506Y25597D01*
X49706D01*
X49756Y25547D01*
Y25447D01*
X49706Y25397D01*
X49506Y25297D02*
X49456Y25247D01*
Y25147D01*
X49506Y25097D01*
X49556D01*
X49606Y25147D01*
X49656Y25097D01*
X49706D01*
X49756Y25147D01*
Y25247D01*
X49706Y25297D01*
X49656D01*
X49606Y25247D01*
X49556Y25297D01*
X49506D01*
X49606Y25247D02*
Y25147D01*
X49506Y24997D02*
X49456Y24947D01*
Y24847D01*
X49506Y24797D01*
X49556D01*
X49606Y24847D01*
Y24897D01*
Y24847D01*
X49656Y24797D01*
X49706D01*
X49756Y24847D01*
Y24947D01*
X49706Y24997D01*
X46406Y26814D02*
X46357Y26864D01*
Y26964D01*
X46406Y27014D01*
X46606D01*
X46656Y26964D01*
Y26864D01*
X46606Y26814D01*
X46406Y26714D02*
X46357Y26664D01*
Y26564D01*
X46406Y26514D01*
X46456D01*
X46506Y26564D01*
X46556Y26514D01*
X46606D01*
X46656Y26564D01*
Y26664D01*
X46606Y26714D01*
X46556D01*
X46506Y26664D01*
X46456Y26714D01*
X46406D01*
X46506Y26664D02*
Y26564D01*
X46406Y26414D02*
X46357Y26364D01*
Y26264D01*
X46406Y26214D01*
X46606D01*
X46656Y26264D01*
Y26364D01*
X46606Y26414D01*
X46406D01*
X47432Y18762D02*
X47382Y18712D01*
X47282D01*
X47232Y18762D01*
Y18962D01*
X47282Y19012D01*
X47382D01*
X47432Y18962D01*
X47532Y18712D02*
X47731D01*
Y18762D01*
X47532Y18962D01*
Y19012D01*
X47831Y18762D02*
X47881Y18712D01*
X47981D01*
X48031Y18762D01*
Y18812D01*
X47981Y18862D01*
X48031Y18912D01*
Y18962D01*
X47981Y19012D01*
X47881D01*
X47831Y18962D01*
Y18912D01*
X47881Y18862D01*
X47831Y18812D01*
Y18762D01*
X47881Y18862D02*
X47981D01*
X45988Y23581D02*
X45938Y23631D01*
Y23731D01*
X45988Y23781D01*
X46188D01*
X46238Y23731D01*
Y23631D01*
X46188Y23581D01*
X45938Y23481D02*
Y23281D01*
X45988D01*
X46188Y23481D01*
X46238D01*
X45938Y22981D02*
X45988Y23081D01*
X46088Y23181D01*
X46188D01*
X46238Y23131D01*
Y23031D01*
X46188Y22981D01*
X46138D01*
X46088Y23031D01*
Y23181D01*
X44871Y23581D02*
X44821Y23631D01*
Y23731D01*
X44871Y23781D01*
X45071D01*
X45121Y23731D01*
Y23631D01*
X45071Y23581D01*
X44821Y23481D02*
Y23281D01*
X44871D01*
X45071Y23481D01*
X45121D01*
X44821Y22981D02*
Y23181D01*
X44971D01*
X44921Y23081D01*
Y23031D01*
X44971Y22981D01*
X45071D01*
X45121Y23031D01*
Y23131D01*
X45071Y23181D01*
X31544Y21814D02*
X31494Y21864D01*
Y21964D01*
X31544Y22014D01*
X31744D01*
X31794Y21964D01*
Y21864D01*
X31744Y21814D01*
X31494Y21714D02*
Y21514D01*
X31544D01*
X31744Y21714D01*
X31794D01*
Y21264D02*
X31494D01*
X31644Y21414D01*
Y21214D01*
X30504Y21814D02*
X30454Y21864D01*
Y21964D01*
X30504Y22014D01*
X30704D01*
X30754Y21964D01*
Y21864D01*
X30704Y21814D01*
X30454Y21714D02*
Y21514D01*
X30504D01*
X30704Y21714D01*
X30754D01*
Y21214D02*
Y21414D01*
X30554Y21214D01*
X30504D01*
X30454Y21264D01*
Y21364D01*
X30504Y21414D01*
X30609Y25397D02*
X30559Y25447D01*
Y25547D01*
X30609Y25597D01*
X30809D01*
X30859Y25547D01*
Y25447D01*
X30809Y25397D01*
X30559Y25297D02*
Y25097D01*
X30609D01*
X30809Y25297D01*
X30859D01*
X30609Y24997D02*
X30559Y24947D01*
Y24847D01*
X30609Y24797D01*
X30809D01*
X30859Y24847D01*
Y24947D01*
X30809Y24997D01*
X30609D01*
X26672Y25397D02*
X26622Y25447D01*
Y25547D01*
X26672Y25597D01*
X26872D01*
X26922Y25547D01*
Y25447D01*
X26872Y25397D01*
X26622Y25097D02*
X26672Y25197D01*
X26772Y25297D01*
X26872D01*
X26922Y25247D01*
Y25147D01*
X26872Y25097D01*
X26822D01*
X26772Y25147D01*
Y25297D01*
X26622Y24997D02*
Y24797D01*
X26672D01*
X26872Y24997D01*
X26922D01*
X28684Y18678D02*
X28634Y18628D01*
X28534D01*
X28484Y18678D01*
Y18878D01*
X28534Y18928D01*
X28634D01*
X28684Y18878D01*
X28984Y18628D02*
X28884Y18678D01*
X28784Y18778D01*
Y18878D01*
X28834Y18928D01*
X28934D01*
X28984Y18878D01*
Y18828D01*
X28934Y18778D01*
X28784D01*
X29284Y18628D02*
X29084D01*
Y18778D01*
X29184Y18728D01*
X29234D01*
X29284Y18778D01*
Y18878D01*
X29234Y18928D01*
X29134D01*
X29084Y18878D01*
X25852Y23418D02*
X25802Y23468D01*
Y23568D01*
X25852Y23618D01*
X26052D01*
X26102Y23568D01*
Y23468D01*
X26052Y23418D01*
X25802Y23118D02*
X25852Y23218D01*
X25952Y23318D01*
X26052D01*
X26102Y23268D01*
Y23168D01*
X26052Y23118D01*
X26002D01*
X25952Y23168D01*
Y23318D01*
X25852Y23018D02*
X25802Y22968D01*
Y22868D01*
X25852Y22818D01*
X25902D01*
X25952Y22868D01*
Y22918D01*
Y22868D01*
X26002Y22818D01*
X26052D01*
X26102Y22868D01*
Y22968D01*
X26052Y23018D01*
X26869Y23428D02*
X26819Y23478D01*
Y23578D01*
X26869Y23628D01*
X27068D01*
X27118Y23578D01*
Y23478D01*
X27068Y23428D01*
X26819Y23128D02*
X26869Y23228D01*
X26969Y23328D01*
X27068D01*
X27118Y23278D01*
Y23178D01*
X27068Y23128D01*
X27018D01*
X26969Y23178D01*
Y23328D01*
X27118Y22828D02*
Y23028D01*
X26919Y22828D01*
X26869D01*
X26819Y22878D01*
Y22978D01*
X26869Y23028D01*
X11661Y23916D02*
X11611Y23866D01*
X11511D01*
X11461Y23916D01*
Y24116D01*
X11511Y24166D01*
X11611D01*
X11661Y24116D01*
X11961Y23866D02*
X11861Y23916D01*
X11761Y24016D01*
Y24116D01*
X11811Y24166D01*
X11911D01*
X11961Y24116D01*
Y24066D01*
X11911Y24016D01*
X11761D01*
X12061Y24166D02*
X12161D01*
X12111D01*
Y23866D01*
X12061Y23916D01*
X13286Y23196D02*
X13236Y23246D01*
Y23346D01*
X13286Y23396D01*
X13486D01*
X13536Y23346D01*
Y23246D01*
X13486Y23196D01*
X13236Y22896D02*
Y23096D01*
X13386D01*
X13336Y22996D01*
Y22946D01*
X13386Y22896D01*
X13486D01*
X13536Y22946D01*
Y23046D01*
X13486Y23096D01*
Y22796D02*
X13536Y22746D01*
Y22646D01*
X13486Y22596D01*
X13286D01*
X13236Y22646D01*
Y22746D01*
X13286Y22796D01*
X13336D01*
X13386Y22746D01*
Y22596D01*
X10971Y26787D02*
X10921Y26837D01*
Y26937D01*
X10971Y26987D01*
X11171D01*
X11221Y26937D01*
Y26837D01*
X11171Y26787D01*
X10921Y26487D02*
Y26687D01*
X11071D01*
X11021Y26587D01*
Y26537D01*
X11071Y26487D01*
X11171D01*
X11221Y26537D01*
Y26637D01*
X11171Y26687D01*
X10921Y26387D02*
Y26187D01*
X10971D01*
X11171Y26387D01*
X11221D01*
X7711Y25397D02*
X7661Y25447D01*
Y25547D01*
X7711Y25597D01*
X7911D01*
X7961Y25547D01*
Y25447D01*
X7911Y25397D01*
X7661Y25097D02*
Y25297D01*
X7811D01*
X7761Y25197D01*
Y25147D01*
X7811Y25097D01*
X7911D01*
X7961Y25147D01*
Y25247D01*
X7911Y25297D01*
X7661Y24797D02*
Y24997D01*
X7811D01*
X7761Y24897D01*
Y24847D01*
X7811Y24797D01*
X7911D01*
X7961Y24847D01*
Y24947D01*
X7911Y24997D01*
X8349Y23096D02*
X8399Y23146D01*
X8499D01*
X8549Y23096D01*
Y22896D01*
X8499Y22846D01*
X8399D01*
X8349Y22896D01*
X8049Y23146D02*
X8249D01*
Y22996D01*
X8149Y23046D01*
X8099D01*
X8049Y22996D01*
Y22896D01*
X8099Y22846D01*
X8199D01*
X8249Y22896D01*
X7949Y23096D02*
X7899Y23146D01*
X7799D01*
X7749Y23096D01*
Y23046D01*
X7799Y22996D01*
X7849D01*
X7799D01*
X7749Y22946D01*
Y22896D01*
X7799Y22846D01*
X7899D01*
X7949Y22896D01*
X7248Y23067D02*
X7298Y23117D01*
X7398D01*
X7448Y23067D01*
Y22867D01*
X7398Y22817D01*
X7298D01*
X7248Y22867D01*
X6948Y23117D02*
X7148D01*
Y22967D01*
X7048Y23017D01*
X6998D01*
X6948Y22967D01*
Y22867D01*
X6998Y22817D01*
X7098D01*
X7148Y22867D01*
X6648Y22817D02*
X6848D01*
X6648Y23017D01*
Y23067D01*
X6698Y23117D01*
X6798D01*
X6848Y23067D01*
X11939Y19785D02*
X11989Y19835D01*
X12089D01*
X12139Y19785D01*
Y19585D01*
X12089Y19535D01*
X11989D01*
X11939Y19585D01*
X11689Y19535D02*
Y19835D01*
X11839Y19685D01*
X11639D01*
X11539Y19585D02*
X11489Y19535D01*
X11389D01*
X11339Y19585D01*
Y19785D01*
X11389Y19835D01*
X11489D01*
X11539Y19785D01*
Y19735D01*
X11489Y19685D01*
X11339D01*
X65451Y35830D02*
X65401Y35880D01*
Y35980D01*
X65451Y36030D01*
X65651D01*
X65701Y35980D01*
Y35880D01*
X65651Y35830D01*
X65701Y35580D02*
X65401D01*
X65551Y35730D01*
Y35530D01*
X65451Y35430D02*
X65401Y35380D01*
Y35280D01*
X65451Y35230D01*
X65501D01*
X65551Y35280D01*
X65601Y35230D01*
X65651D01*
X65701Y35280D01*
Y35380D01*
X65651Y35430D01*
X65601D01*
X65551Y35380D01*
X65501Y35430D01*
X65451D01*
X65551Y35380D02*
Y35280D01*
X59287Y34452D02*
X59237Y34502D01*
Y34602D01*
X59287Y34652D01*
X59487D01*
X59537Y34602D01*
Y34502D01*
X59487Y34452D01*
X59537Y34202D02*
X59237D01*
X59387Y34352D01*
Y34152D01*
X59237Y33852D02*
Y34052D01*
X59387D01*
X59337Y33952D01*
Y33902D01*
X59387Y33852D01*
X59487D01*
X59537Y33902D01*
Y34002D01*
X59487Y34052D01*
X63680Y36889D02*
X63630Y36939D01*
Y37039D01*
X63680Y37089D01*
X63879D01*
X63929Y37039D01*
Y36939D01*
X63879Y36889D01*
X63929Y36639D02*
X63630D01*
X63780Y36789D01*
Y36589D01*
X63929Y36289D02*
Y36489D01*
X63730Y36289D01*
X63680D01*
X63630Y36339D01*
Y36439D01*
X63680Y36489D01*
X61017Y33468D02*
X60967Y33418D01*
X60868D01*
X60818Y33468D01*
Y33668D01*
X60868Y33718D01*
X60967D01*
X61017Y33668D01*
X61267Y33718D02*
Y33418D01*
X61117Y33568D01*
X61317D01*
X61417Y33718D02*
X61517D01*
X61467D01*
Y33418D01*
X61417Y33468D01*
X54073Y26775D02*
X54023Y26825D01*
Y26925D01*
X54073Y26975D01*
X54273D01*
X54323Y26925D01*
Y26825D01*
X54273Y26775D01*
X54073Y26675D02*
X54023Y26625D01*
Y26525D01*
X54073Y26475D01*
X54123D01*
X54173Y26525D01*
Y26575D01*
Y26525D01*
X54223Y26475D01*
X54273D01*
X54323Y26525D01*
Y26625D01*
X54273Y26675D01*
X54023Y26375D02*
Y26175D01*
X54073D01*
X54273Y26375D01*
X54323D01*
X59323Y27051D02*
X59273Y27101D01*
Y27201D01*
X59323Y27251D01*
X59523D01*
X59573Y27201D01*
Y27101D01*
X59523Y27051D01*
X59323Y26951D02*
X59273Y26901D01*
Y26801D01*
X59323Y26751D01*
X59373D01*
X59423Y26801D01*
Y26851D01*
Y26801D01*
X59473Y26751D01*
X59523D01*
X59573Y26801D01*
Y26901D01*
X59523Y26951D01*
X59323Y26651D02*
X59273Y26601D01*
Y26501D01*
X59323Y26451D01*
X59373D01*
X59423Y26501D01*
Y26551D01*
Y26501D01*
X59473Y26451D01*
X59523D01*
X59573Y26501D01*
Y26601D01*
X59523Y26651D01*
X53719Y24898D02*
X53669Y24848D01*
X53569D01*
X53519Y24898D01*
Y25098D01*
X53569Y25148D01*
X53669D01*
X53719Y25098D01*
X53819Y24898D02*
X53869Y24848D01*
X53969D01*
X54019Y24898D01*
Y24948D01*
X53969Y24998D01*
X53919D01*
X53969D01*
X54019Y25048D01*
Y25098D01*
X53969Y25148D01*
X53869D01*
X53819Y25098D01*
X54319Y25148D02*
X54119D01*
X54319Y24948D01*
Y24898D01*
X54269Y24848D01*
X54169D01*
X54119Y24898D01*
X57330Y31396D02*
X57280Y31346D01*
X57180D01*
X57130Y31396D01*
Y31596D01*
X57180Y31646D01*
X57280D01*
X57330Y31596D01*
X57430Y31396D02*
X57480Y31346D01*
X57580D01*
X57630Y31396D01*
Y31446D01*
X57580Y31496D01*
X57530D01*
X57580D01*
X57630Y31546D01*
Y31596D01*
X57580Y31646D01*
X57480D01*
X57430Y31596D01*
X57730Y31646D02*
X57830D01*
X57780D01*
Y31346D01*
X57730Y31396D01*
X61427Y30218D02*
X61377Y30268D01*
Y30368D01*
X61427Y30418D01*
X61627D01*
X61677Y30368D01*
Y30268D01*
X61627Y30218D01*
X61677Y29918D02*
Y30118D01*
X61477Y29918D01*
X61427D01*
X61377Y29968D01*
Y30068D01*
X61427Y30118D01*
X61627Y29818D02*
X61677Y29768D01*
Y29668D01*
X61627Y29618D01*
X61427D01*
X61377Y29668D01*
Y29768D01*
X61427Y29818D01*
X61477D01*
X61527Y29768D01*
Y29618D01*
X57950Y27892D02*
X57900Y27842D01*
X57800D01*
X57750Y27892D01*
Y28092D01*
X57800Y28142D01*
X57900D01*
X57950Y28092D01*
X58250Y28142D02*
X58050D01*
X58250Y27942D01*
Y27892D01*
X58200Y27842D01*
X58100D01*
X58050Y27892D01*
X58549Y27842D02*
X58450Y27892D01*
X58350Y27992D01*
Y28092D01*
X58400Y28142D01*
X58499D01*
X58549Y28092D01*
Y28042D01*
X58499Y27992D01*
X58350D01*
X59349Y25790D02*
X59299Y25840D01*
Y25940D01*
X59349Y25990D01*
X59549D01*
X59599Y25940D01*
Y25840D01*
X59549Y25790D01*
X59599Y25491D02*
Y25691D01*
X59399Y25491D01*
X59349D01*
X59299Y25541D01*
Y25641D01*
X59349Y25691D01*
X59299Y25191D02*
Y25391D01*
X59449D01*
X59399Y25291D01*
Y25241D01*
X59449Y25191D01*
X59549D01*
X59599Y25241D01*
Y25341D01*
X59549Y25391D01*
X63286Y22050D02*
X63236Y22100D01*
Y22200D01*
X63286Y22250D01*
X63486D01*
X63536Y22200D01*
Y22100D01*
X63486Y22050D01*
X63536Y21750D02*
Y21950D01*
X63336Y21750D01*
X63286D01*
X63236Y21800D01*
Y21900D01*
X63286Y21950D01*
X63536Y21451D02*
Y21650D01*
X63336Y21451D01*
X63286D01*
X63236Y21501D01*
Y21600D01*
X63286Y21650D01*
X62105Y21804D02*
X62055Y21853D01*
Y21953D01*
X62105Y22003D01*
X62305D01*
X62355Y21953D01*
Y21853D01*
X62305Y21804D01*
X62355Y21504D02*
Y21704D01*
X62155Y21504D01*
X62105D01*
X62055Y21554D01*
Y21654D01*
X62105Y21704D01*
X62355Y21404D02*
Y21304D01*
Y21354D01*
X62055D01*
X62105Y21404D01*
X3967Y17028D02*
X3917Y16978D01*
X3817D01*
X3767Y17028D01*
Y17228D01*
X3817Y17278D01*
X3917D01*
X3967Y17228D01*
X4067Y17278D02*
X4167D01*
X4117D01*
Y16978D01*
X4067Y17028D01*
X4517Y16978D02*
X4317D01*
Y17128D01*
X4417Y17078D01*
X4467D01*
X4517Y17128D01*
Y17228D01*
X4467Y17278D01*
X4367D01*
X4317Y17228D01*
X23431Y17028D02*
X23381Y16978D01*
X23281D01*
X23232Y17028D01*
Y17228D01*
X23281Y17278D01*
X23381D01*
X23431Y17228D01*
X23531Y17278D02*
X23631D01*
X23581D01*
Y16978D01*
X23531Y17028D01*
X23931Y17278D02*
Y16978D01*
X23781Y17128D01*
X23981D01*
X49690Y8410D02*
X49740Y8460D01*
X49840D01*
X49890Y8410D01*
Y8210D01*
X49840Y8160D01*
X49740D01*
X49690Y8210D01*
X49390Y8460D02*
X49490Y8410D01*
X49590Y8310D01*
Y8210D01*
X49540Y8160D01*
X49440D01*
X49390Y8210D01*
Y8260D01*
X49440Y8310D01*
X49590D01*
X30790Y8410D02*
X30840Y8460D01*
X30940D01*
X30990Y8410D01*
Y8210D01*
X30940Y8160D01*
X30840D01*
X30790Y8210D01*
X30490Y8460D02*
X30690D01*
Y8310D01*
X30590Y8360D01*
X30540D01*
X30490Y8310D01*
Y8210D01*
X30540Y8160D01*
X30640D01*
X30690Y8210D01*
X11890Y8410D02*
X11940Y8460D01*
X12040D01*
X12090Y8410D01*
Y8210D01*
X12040Y8160D01*
X11940D01*
X11890Y8210D01*
X11640Y8160D02*
Y8460D01*
X11790Y8310D01*
X11590D01*
X6970Y7430D02*
X7020Y7480D01*
X7120D01*
X7170Y7430D01*
Y7230D01*
X7120Y7180D01*
X7020D01*
X6970Y7230D01*
X6870Y7180D02*
X6770D01*
X6820D01*
Y7480D01*
X6870Y7430D01*
X6420Y7180D02*
X6620D01*
X6420Y7380D01*
Y7430D01*
X6470Y7480D01*
X6570D01*
X6620Y7430D01*
X16014Y7616D02*
X16064Y7666D01*
X16164D01*
X16214Y7616D01*
Y7416D01*
X16164Y7366D01*
X16064D01*
X16014Y7416D01*
X15914Y7366D02*
X15814D01*
X15864D01*
Y7666D01*
X15914Y7616D01*
X15664Y7366D02*
X15564D01*
X15614D01*
Y7666D01*
X15664Y7616D01*
X26260Y7320D02*
X26310Y7370D01*
X26410D01*
X26460Y7320D01*
Y7120D01*
X26410Y7070D01*
X26310D01*
X26260Y7120D01*
X26160Y7070D02*
X26060D01*
X26110D01*
Y7370D01*
X26160Y7320D01*
X25910D02*
X25860Y7370D01*
X25760D01*
X25710Y7320D01*
Y7120D01*
X25760Y7070D01*
X25860D01*
X25910Y7120D01*
Y7320D01*
X35089Y7383D02*
X35139Y7433D01*
X35239D01*
X35289Y7383D01*
Y7183D01*
X35239Y7134D01*
X35139D01*
X35089Y7183D01*
X34989D02*
X34939Y7134D01*
X34839D01*
X34789Y7183D01*
Y7383D01*
X34839Y7433D01*
X34939D01*
X34989Y7383D01*
Y7333D01*
X34939Y7283D01*
X34789D01*
X45160Y7250D02*
X45210Y7300D01*
X45310D01*
X45360Y7250D01*
Y7050D01*
X45310Y7000D01*
X45210D01*
X45160Y7050D01*
X45060Y7250D02*
X45010Y7300D01*
X44910D01*
X44860Y7250D01*
Y7200D01*
X44910Y7150D01*
X44860Y7100D01*
Y7050D01*
X44910Y7000D01*
X45010D01*
X45060Y7050D01*
Y7100D01*
X45010Y7150D01*
X45060Y7200D01*
Y7250D01*
X45010Y7150D02*
X44910D01*
X53987Y7383D02*
X54037Y7433D01*
X54137D01*
X54187Y7383D01*
Y7183D01*
X54137Y7134D01*
X54037D01*
X53987Y7183D01*
X53887Y7433D02*
X53687D01*
Y7383D01*
X53887Y7183D01*
Y7134D01*
X0Y0D02*
Y33465D01*
X66929Y0D02*
Y40551D01*
X44094Y42520D02*
X46063Y40551D01*
X12992D02*
X14961Y42520D01*
X0Y33465D02*
X7087Y40551D01*
X12992D01*
X46063D02*
X66929D01*
X0Y0D02*
X66929D01*
X14961Y42520D02*
X44094D01*
X10924Y21947D02*
X11252D01*
X11317Y21882D01*
Y21750D01*
X11252Y21685D01*
X10924D01*
X11317Y21291D02*
Y21554D01*
X11055Y21291D01*
X10989D01*
X10924Y21357D01*
Y21488D01*
X10989Y21554D01*
X29821Y21947D02*
X30149D01*
X30215Y21882D01*
Y21750D01*
X30149Y21685D01*
X29821D01*
X29887Y21554D02*
X29821Y21488D01*
Y21357D01*
X29887Y21291D01*
X29953D01*
X30018Y21357D01*
Y21422D01*
Y21357D01*
X30084Y21291D01*
X30149D01*
X30215Y21357D01*
Y21488D01*
X30149Y21554D01*
X48719Y21947D02*
X49047D01*
X49113Y21882D01*
Y21750D01*
X49047Y21685D01*
X48719D01*
X49113Y21357D02*
X48719D01*
X48916Y21554D01*
Y21291D01*
D14*
X63015Y19336D02*
Y21136D01*
X63915D01*
Y19336D02*
Y21136D01*
X63015Y19336D02*
X63915D01*
X9136Y24547D02*
X9836D01*
Y25847D01*
X9136D02*
X9836D01*
X9136Y24547D02*
Y25847D01*
X56259Y28462D02*
X57559D01*
X56259D02*
Y29162D01*
X57559D01*
Y28462D02*
Y29162D01*
X2947Y10674D02*
Y11374D01*
Y10674D02*
X4247D01*
Y11374D01*
X2947D02*
X4247D01*
X5565Y11555D02*
X6265D01*
Y12855D01*
X5565D02*
X6265D01*
X5565Y11555D02*
Y12855D01*
X7470Y10674D02*
Y11374D01*
Y10674D02*
X8770D01*
Y11374D01*
X7470D02*
X8770D01*
X9099Y19246D02*
X10899D01*
X9099D02*
Y20146D01*
X10899D01*
Y19246D02*
Y20146D01*
X12342Y10674D02*
Y11374D01*
Y10674D02*
X13642D01*
Y11374D01*
X12342D02*
X13642D01*
X15989Y10574D02*
X16689D01*
Y11874D01*
X15989D02*
X16689D01*
X15989Y10574D02*
Y11874D01*
X16882Y10674D02*
Y11374D01*
Y10674D02*
X18182D01*
Y11374D01*
X16882D02*
X18182D01*
X18088Y12055D02*
X18788D01*
Y13355D01*
X18088D02*
X18788D01*
X18088Y12055D02*
Y13355D01*
X18941Y12055D02*
X19641D01*
Y13355D01*
X18941D02*
X19641D01*
X18941Y12055D02*
Y13355D01*
X19892Y11555D02*
X20592D01*
Y12855D01*
X19892D02*
X20592D01*
X19892Y11555D02*
Y12855D01*
X21791Y10674D02*
Y11374D01*
Y10674D02*
X23091D01*
Y11374D01*
X21791D02*
X23091D01*
X25534Y20754D02*
Y22554D01*
X26434D01*
Y20754D02*
Y22554D01*
X25534Y20754D02*
X26434D01*
X26370Y10674D02*
Y11374D01*
Y10674D02*
X27670D01*
Y11374D01*
X26370D02*
X27670D01*
X27984Y19235D02*
X29784D01*
X27984D02*
Y20135D01*
X29784D01*
Y19235D02*
Y20135D01*
X29340Y11555D02*
X30040D01*
Y12855D01*
X29340D02*
X30040D01*
X29340Y11555D02*
Y12855D01*
X30359Y10574D02*
X31059D01*
Y11874D01*
X30359D02*
X31059D01*
X30359Y10574D02*
Y11874D01*
X31240Y10674D02*
Y11374D01*
Y10674D02*
X32540D01*
Y11374D01*
X31240D02*
X32540D01*
X35794Y10674D02*
Y11374D01*
Y10674D02*
X37094D01*
Y11374D01*
X35794D02*
X37094D01*
X36781Y12145D02*
Y13445D01*
X37481D01*
Y12145D02*
Y13445D01*
X36781Y12145D02*
X37481D01*
X37642D02*
X38342D01*
Y13445D01*
X37642D02*
X38342D01*
X37642Y12145D02*
Y13445D01*
X40689Y10674D02*
Y11374D01*
Y10674D02*
X41989D01*
Y11374D01*
X40689D02*
X41989D01*
X45270Y10674D02*
Y11374D01*
Y10674D02*
X46570D01*
Y11374D01*
X45270D02*
X46570D01*
X44521Y20906D02*
Y22706D01*
X45421D01*
Y20906D02*
Y22706D01*
X44521Y20906D02*
X45421D01*
X46898Y19235D02*
X48698D01*
X46898D02*
Y20135D01*
X48698D01*
Y19235D02*
Y20135D01*
X47681Y24547D02*
X48382D01*
Y25847D01*
X47681D02*
X48382D01*
X47681Y24547D02*
Y25847D01*
X50137Y10674D02*
Y11374D01*
Y10674D02*
X51437D01*
Y11374D01*
X50137D02*
X51437D01*
X53784Y10574D02*
X54484D01*
Y11874D01*
X53784D02*
X54484D01*
X53784Y10574D02*
Y11874D01*
X54682Y10661D02*
Y11361D01*
Y10661D02*
X55982D01*
Y11361D01*
X54682D02*
X55982D01*
X61144Y10048D02*
Y11348D01*
X60444Y10048D02*
X61144D01*
X60444D02*
Y11348D01*
X61144D01*
X60433Y12039D02*
Y13339D01*
X61133D01*
Y12039D02*
Y13339D01*
X60433Y12039D02*
X61133D01*
X907Y11601D02*
X1607D01*
Y12901D01*
X907D02*
X1607D01*
X907Y11601D02*
Y12901D01*
X2008Y10574D02*
X2708D01*
Y11874D01*
X2008D02*
X2708D01*
X2008Y10574D02*
Y11874D01*
X6550Y10574D02*
X7250D01*
Y11874D01*
X6550D02*
X7250D01*
X6550Y10574D02*
Y11874D01*
X6637Y20754D02*
X7537D01*
Y22554D01*
X6637D02*
X7537D01*
X6637Y20754D02*
Y22554D01*
X7699Y20754D02*
X8599D01*
Y22554D01*
X7699D02*
X8599D01*
X7699Y20754D02*
Y22554D01*
X9886Y24547D02*
Y25847D01*
X10586D01*
Y24547D02*
Y25847D01*
X9886Y24547D02*
X10586D01*
X10445Y11555D02*
X11145D01*
Y12855D01*
X10445D02*
X11145D01*
X10445Y11555D02*
Y12855D01*
X11461Y10574D02*
X12161D01*
Y11874D01*
X11461D02*
X12161D01*
X11461Y10574D02*
Y11874D01*
X15071Y11555D02*
X15771D01*
Y12855D01*
X15071D02*
X15771D01*
X15071Y11555D02*
Y12855D01*
X20910Y10574D02*
X21610D01*
Y11874D01*
X20910D02*
X21610D01*
X20910Y10574D02*
Y11874D01*
X24453Y11555D02*
X25153D01*
Y12855D01*
X24453D02*
X25153D01*
X24453Y11555D02*
Y12855D01*
X25437Y10574D02*
X26137D01*
Y11874D01*
X25437D02*
X26137D01*
X25437Y10574D02*
Y11874D01*
X26519Y20754D02*
Y22554D01*
X27419D01*
Y20754D02*
Y22554D01*
X26519Y20754D02*
X27419D01*
X28034Y24547D02*
X28734D01*
Y25847D01*
X28034D02*
X28734D01*
X28034Y24547D02*
Y25847D01*
X28784Y24547D02*
X29484D01*
Y25847D01*
X28784D02*
X29484D01*
X28784Y24547D02*
Y25847D01*
X33902Y11555D02*
X34602D01*
Y12855D01*
X33902D02*
X34602D01*
X33902Y11555D02*
Y12855D01*
X34886Y10574D02*
X35586D01*
Y11874D01*
X34886D02*
X35586D01*
X34886Y10574D02*
Y11874D01*
X38792Y11555D02*
X39492D01*
Y12855D01*
X38792D02*
X39492D01*
X38792Y11555D02*
Y12855D01*
X39807Y10574D02*
X40507D01*
Y11874D01*
X39807D02*
X40507D01*
X39807Y10574D02*
Y11874D01*
X43351Y11555D02*
X44051D01*
Y12855D01*
X43351D02*
X44051D01*
X43351Y11555D02*
Y12855D01*
X44335Y10574D02*
X45035D01*
Y11874D01*
X44335D02*
X45035D01*
X44335Y10574D02*
Y11874D01*
X45638Y20906D02*
X46538D01*
Y22706D01*
X45638D02*
X46538D01*
X45638Y20906D02*
Y22706D01*
X46932Y24547D02*
X47632D01*
Y25847D01*
X46932D02*
X47632D01*
X46932Y24547D02*
Y25847D01*
X48241Y11555D02*
X48941D01*
Y12855D01*
X48241D02*
X48941D01*
X48241Y11555D02*
Y12855D01*
X49256Y10574D02*
X49956D01*
Y11874D01*
X49256D02*
X49956D01*
X49256Y10574D02*
Y11874D01*
X52800Y11555D02*
X53500D01*
Y12855D01*
X52800D02*
X53500D01*
X52800Y11555D02*
Y12855D01*
X55905Y23797D02*
Y24497D01*
X54605D02*
X55905D01*
X54605Y23797D02*
Y24497D01*
Y23797D02*
X55905D01*
X54598Y27001D02*
X55898D01*
X54598D02*
Y27701D01*
X55898D01*
Y27001D02*
Y27701D01*
X56275Y11433D02*
X56975D01*
Y12733D01*
X56275D02*
X56975D01*
X56275Y11433D02*
Y12733D01*
X56365Y30173D02*
X58165D01*
X56365D02*
Y31073D01*
X58165D01*
Y30173D02*
Y31073D01*
X57175Y11433D02*
X57875D01*
Y12733D01*
X57175D02*
X57875D01*
X57175Y11433D02*
Y12733D01*
X57650Y23366D02*
X58350D01*
Y24666D01*
X57650D02*
X58350D01*
X57650Y23366D02*
Y24666D01*
X58508Y23346D02*
Y24646D01*
X59208D01*
Y23346D02*
Y24646D01*
X58508Y23346D02*
X59208D01*
X60437Y16241D02*
X61137D01*
X60437Y14941D02*
Y16241D01*
Y14941D02*
X61137D01*
Y16241D01*
X60446Y17285D02*
X61146D01*
Y18585D01*
X60446D02*
X61146D01*
X60446Y17285D02*
Y18585D01*
D15*
X23660Y17625D02*
Y18117D01*
X4140Y17675D02*
Y18167D01*
X25818Y30093D02*
X26310D01*
X9721Y28674D02*
X10213D01*
X27313Y25197D02*
X27805D01*
X29638Y25197D02*
X30130D01*
X30358Y22996D02*
X30850D01*
X30447Y36360D02*
X30939D01*
X32142Y31410D02*
Y31902D01*
X58483Y25662D02*
X58975D01*
X58483Y27051D02*
X58975D01*
X62713Y36332D02*
Y36824D01*
X4274Y27991D02*
Y28483D01*
X27171Y31899D02*
Y32391D01*
X29600Y29754D02*
Y30246D01*
X32142Y32391D02*
Y32884D01*
X55250Y24736D02*
Y25228D01*
X55255Y26274D02*
Y26766D01*
X56879Y27754D02*
Y28246D01*
X61220Y34006D02*
Y34498D01*
X8415Y25197D02*
X8907D01*
X10825Y25197D02*
X11317D01*
X12352Y22997D02*
X12844D01*
X16726Y15951D02*
X17218D01*
X29442Y36360D02*
X29934D01*
X28417Y36360D02*
X28909D01*
X31330Y22996D02*
X31822D01*
X35492Y15929D02*
X35984D01*
X49225Y22996D02*
X49717D01*
X48573Y25197D02*
X49065D01*
X50133Y23004D02*
X50625D01*
X53888Y14678D02*
X54380D01*
X65305Y34449D02*
X65797D01*
X4636Y23756D02*
Y24248D01*
X11495Y22997D02*
X11987D01*
X46288Y25193D02*
X46780D01*
D16*
X57185Y3543D02*
X57183Y3643D01*
X57179Y3743D01*
X57171Y3843D01*
X57160Y3942D01*
X57147Y4042D01*
X57130Y4140D01*
X57110Y4238D01*
X57087Y4336D01*
X57061Y4432D01*
X57032Y4528D01*
X57000Y4623D01*
X56966Y4717D01*
X56928Y4809D01*
X56888Y4901D01*
X56845Y4991D01*
X56799Y5080D01*
X56750Y5167D01*
X56699Y5253D01*
X56645Y5337D01*
X56588Y5420D01*
X56529Y5501D01*
X56467Y5580D01*
X56404Y5657D01*
X56337Y5731D01*
X56269Y5804D01*
X56198Y5875D01*
X56125Y5944D01*
X56050Y6010D01*
X55973Y6074D01*
X55894Y6135D01*
X55814Y6194D01*
X55731Y6251D01*
X55647Y6305D01*
X55561Y6356D01*
X55474Y6405D01*
X55385Y6451D01*
X55295Y6494D01*
X55203Y6534D01*
X55110Y6572D01*
X55017Y6607D01*
X54922Y6639D01*
X54826Y6667D01*
X54729Y6693D01*
X54632Y6716D01*
X54534Y6736D01*
X54435Y6753D01*
X54336Y6767D01*
X54237Y6777D01*
X54137Y6785D01*
X54037Y6790D01*
X53937Y6791D01*
X53837Y6790D01*
X53737Y6785D01*
X53637Y6777D01*
X53538Y6767D01*
X53439Y6753D01*
X53340Y6736D01*
X53242Y6716D01*
X53145Y6693D01*
X53048Y6667D01*
X52952Y6639D01*
X52858Y6607D01*
X52764Y6572D01*
X52671Y6534D01*
X52579Y6494D01*
X52489Y6451D01*
X52400Y6405D01*
X52313Y6356D01*
X52227Y6305D01*
X52143Y6251D01*
X52060Y6194D01*
X51980Y6135D01*
X51901Y6074D01*
X51824Y6010D01*
X51749Y5944D01*
X51676Y5875D01*
X51605Y5804D01*
X51537Y5731D01*
X51470Y5657D01*
X51407Y5580D01*
X51345Y5501D01*
X51286Y5420D01*
X51229Y5337D01*
X51175Y5253D01*
X51124Y5167D01*
X51075Y5080D01*
X51029Y4991D01*
X50986Y4901D01*
X50946Y4809D01*
X50908Y4717D01*
X50874Y4623D01*
X50842Y4528D01*
X50813Y4432D01*
X50787Y4336D01*
X50764Y4238D01*
X50744Y4140D01*
X50727Y4042D01*
X50714Y3942D01*
X50703Y3843D01*
X50695Y3743D01*
X50691Y3643D01*
X50689Y3543D01*
X50691Y3443D01*
X50695Y3343D01*
X50703Y3244D01*
X50714Y3144D01*
X50727Y3045D01*
X50744Y2946D01*
X50764Y2848D01*
X50787Y2751D01*
X50813Y2654D01*
X50842Y2559D01*
X50874Y2464D01*
X50908Y2370D01*
X50946Y2277D01*
X50986Y2186D01*
X51030Y2096D01*
X51075Y2007D01*
X51124Y1919D01*
X51175Y1833D01*
X51229Y1749D01*
X51286Y1667D01*
X51345Y1586D01*
X51407Y1507D01*
X51470Y1430D01*
X51537Y1355D01*
X51605Y1282D01*
X51676Y1212D01*
X51749Y1143D01*
X51824Y1077D01*
X51901Y1013D01*
X51980Y951D01*
X52060Y892D01*
X52143Y836D01*
X52227Y782D01*
X52313Y730D01*
X52400Y682D01*
X52489Y636D01*
X52579Y593D01*
X52671Y552D01*
X52764Y515D01*
X52858Y480D01*
X52952Y448D01*
X53048Y419D01*
X53145Y393D01*
X53242Y370D01*
X53340Y351D01*
X53439Y334D01*
X53538Y320D01*
X53637Y309D01*
X53737Y301D01*
X53837Y297D01*
X53937Y295D01*
X54037Y297D01*
X54137Y301D01*
X54237Y309D01*
X54336Y320D01*
X54435Y334D01*
X54534Y351D01*
X54632Y370D01*
X54729Y393D01*
X54826Y419D01*
X54922Y448D01*
X55017Y480D01*
X55110Y515D01*
X55203Y552D01*
X55295Y593D01*
X55385Y636D01*
X55474Y682D01*
X55561Y730D01*
X55647Y782D01*
X55731Y836D01*
X55814Y892D01*
X55894Y951D01*
X55973Y1013D01*
X56050Y1077D01*
X56125Y1143D01*
X56198Y1212D01*
X56269Y1282D01*
X56337Y1355D01*
X56404Y1430D01*
X56468Y1507D01*
X56529Y1586D01*
X56588Y1667D01*
X56645Y1749D01*
X56699Y1833D01*
X56750Y1919D01*
X56799Y2007D01*
X56845Y2096D01*
X56888Y2186D01*
X56928Y2277D01*
X56966Y2370D01*
X57000Y2464D01*
X57032Y2559D01*
X57061Y2654D01*
X57087Y2751D01*
X57110Y2848D01*
X57130Y2947D01*
X57147Y3045D01*
X57160Y3144D01*
X57171Y3244D01*
X57179Y3343D01*
X57183Y3443D01*
X57185Y3543D01*
X38287Y3368D02*
X38286Y3468D01*
X38281Y3568D01*
X38274Y3668D01*
X38263Y3767D01*
X38249Y3866D01*
X38232Y3965D01*
X38212Y4063D01*
X38189Y4160D01*
X38163Y4257D01*
X38135Y4352D01*
X38103Y4447D01*
X38068Y4541D01*
X38031Y4634D01*
X37990Y4725D01*
X37947Y4816D01*
X37901Y4904D01*
X37852Y4992D01*
X37801Y5078D01*
X37747Y5162D01*
X37690Y5244D01*
X37631Y5325D01*
X37570Y5404D01*
X37506Y5481D01*
X37440Y5556D01*
X37371Y5629D01*
X37300Y5700D01*
X37228Y5768D01*
X37153Y5834D01*
X37076Y5898D01*
X36997Y5960D01*
X36916Y6019D01*
X36833Y6075D01*
X36749Y6129D01*
X36663Y6181D01*
X36576Y6229D01*
X36487Y6275D01*
X36397Y6319D01*
X36305Y6359D01*
X36213Y6397D01*
X36119Y6431D01*
X36024Y6463D01*
X35928Y6492D01*
X35832Y6518D01*
X35734Y6541D01*
X35636Y6561D01*
X35538Y6577D01*
X35439Y6591D01*
X35339Y6602D01*
X35239Y6610D01*
X35139Y6614D01*
X35039Y6616D01*
X34939Y6614D01*
X34839Y6610D01*
X34740Y6602D01*
X34640Y6591D01*
X34541Y6577D01*
X34443Y6561D01*
X34345Y6541D01*
X34247Y6518D01*
X34151Y6492D01*
X34055Y6463D01*
X33960Y6431D01*
X33866Y6397D01*
X33773Y6359D01*
X33682Y6319D01*
X33592Y6275D01*
X33503Y6229D01*
X33415Y6181D01*
X33330Y6129D01*
X33245Y6075D01*
X33163Y6019D01*
X33082Y5960D01*
X33003Y5898D01*
X32926Y5834D01*
X32851Y5768D01*
X32778Y5700D01*
X32708Y5629D01*
X32639Y5556D01*
X32573Y5481D01*
X32509Y5404D01*
X32447Y5325D01*
X32388Y5244D01*
X32332Y5162D01*
X32278Y5078D01*
X32226Y4992D01*
X32178Y4904D01*
X32132Y4816D01*
X32089Y4725D01*
X32048Y4634D01*
X32011Y4541D01*
X31976Y4447D01*
X31944Y4352D01*
X31915Y4257D01*
X31889Y4160D01*
X31867Y4063D01*
X31847Y3965D01*
X31830Y3866D01*
X31816Y3767D01*
X31805Y3668D01*
X31797Y3568D01*
X31793Y3468D01*
X31791Y3368D01*
X31793Y3268D01*
X31798Y3168D01*
X31805Y3068D01*
X31816Y2969D01*
X31830Y2870D01*
X31847Y2771D01*
X31867Y2673D01*
X31889Y2576D01*
X31915Y2479D01*
X31944Y2383D01*
X31976Y2288D01*
X32011Y2194D01*
X32048Y2102D01*
X32089Y2010D01*
X32132Y1920D01*
X32178Y1831D01*
X32227Y1744D01*
X32278Y1658D01*
X32332Y1574D01*
X32388Y1491D01*
X32447Y1410D01*
X32509Y1332D01*
X32573Y1255D01*
X32639Y1180D01*
X32708Y1107D01*
X32778Y1036D01*
X32851Y967D01*
X32926Y901D01*
X33003Y837D01*
X33082Y776D01*
X33163Y717D01*
X33245Y660D01*
X33330Y606D01*
X33415Y555D01*
X33503Y506D01*
X33592Y460D01*
X33682Y417D01*
X33773Y377D01*
X33866Y339D01*
X33960Y304D01*
X34055Y273D01*
X34151Y244D01*
X34247Y218D01*
X34345Y195D01*
X34443Y175D01*
X34541Y158D01*
X34640Y144D01*
X34740Y134D01*
X34839Y126D01*
X34939Y121D01*
X35039Y120D01*
X35139Y121D01*
X35239Y126D01*
X35339Y134D01*
X35439Y144D01*
X35538Y158D01*
X35636Y175D01*
X35734Y195D01*
X35832Y218D01*
X35928Y244D01*
X36024Y273D01*
X36119Y304D01*
X36213Y339D01*
X36305Y377D01*
X36397Y417D01*
X36487Y460D01*
X36576Y506D01*
X36663Y555D01*
X36749Y606D01*
X36834Y660D01*
X36916Y717D01*
X36997Y776D01*
X37076Y837D01*
X37153Y901D01*
X37228Y968D01*
X37300Y1036D01*
X37371Y1107D01*
X37440Y1180D01*
X37506Y1255D01*
X37570Y1332D01*
X37631Y1410D01*
X37690Y1491D01*
X37747Y1574D01*
X37801Y1658D01*
X37852Y1744D01*
X37901Y1831D01*
X37947Y1920D01*
X37990Y2010D01*
X38031Y2102D01*
X38068Y2195D01*
X38103Y2288D01*
X38135Y2383D01*
X38163Y2479D01*
X38189Y2576D01*
X38212Y2673D01*
X38232Y2771D01*
X38249Y2870D01*
X38263Y2969D01*
X38274Y3068D01*
X38281Y3168D01*
X38286Y3268D01*
X38287Y3368D01*
X19390Y3543D02*
X19388Y3643D01*
X19384Y3743D01*
X19376Y3843D01*
X19365Y3942D01*
X19351Y4042D01*
X19334Y4140D01*
X19315Y4238D01*
X19292Y4336D01*
X19266Y4432D01*
X19237Y4528D01*
X19205Y4623D01*
X19170Y4717D01*
X19133Y4809D01*
X19092Y4901D01*
X19049Y4991D01*
X19003Y5080D01*
X18955Y5167D01*
X18903Y5253D01*
X18849Y5337D01*
X18793Y5420D01*
X18734Y5501D01*
X18672Y5580D01*
X18608Y5657D01*
X18542Y5731D01*
X18474Y5804D01*
X18403Y5875D01*
X18330Y5944D01*
X18255Y6010D01*
X18178Y6074D01*
X18099Y6135D01*
X18018Y6194D01*
X17936Y6251D01*
X17852Y6305D01*
X17766Y6356D01*
X17678Y6405D01*
X17590Y6451D01*
X17499Y6494D01*
X17408Y6534D01*
X17315Y6572D01*
X17221Y6607D01*
X17126Y6639D01*
X17031Y6667D01*
X16934Y6693D01*
X16837Y6716D01*
X16739Y6736D01*
X16640Y6753D01*
X16541Y6767D01*
X16441Y6777D01*
X16342Y6785D01*
X16242Y6790D01*
X16142Y6791D01*
X16042Y6790D01*
X15942Y6785D01*
X15842Y6777D01*
X15743Y6767D01*
X15644Y6753D01*
X15545Y6736D01*
X15447Y6716D01*
X15349Y6693D01*
X15253Y6667D01*
X15157Y6639D01*
X15062Y6607D01*
X14968Y6572D01*
X14876Y6534D01*
X14784Y6494D01*
X14694Y6451D01*
X14605Y6405D01*
X14518Y6356D01*
X14432Y6305D01*
X14348Y6251D01*
X14265Y6194D01*
X14184Y6135D01*
X14105Y6074D01*
X14029Y6010D01*
X13954Y5944D01*
X13881Y5875D01*
X13810Y5804D01*
X13741Y5731D01*
X13675Y5657D01*
X13611Y5580D01*
X13550Y5501D01*
X13491Y5420D01*
X13434Y5337D01*
X13380Y5253D01*
X13329Y5167D01*
X13280Y5080D01*
X13234Y4991D01*
X13191Y4901D01*
X13151Y4809D01*
X13113Y4717D01*
X13078Y4623D01*
X13047Y4528D01*
X13018Y4432D01*
X12992Y4336D01*
X12969Y4238D01*
X12949Y4140D01*
X12932Y4042D01*
X12918Y3942D01*
X12908Y3843D01*
X12900Y3743D01*
X12895Y3643D01*
X12894Y3543D01*
X12895Y3443D01*
X12900Y3343D01*
X12908Y3244D01*
X12918Y3144D01*
X12932Y3045D01*
X12949Y2946D01*
X12969Y2848D01*
X12992Y2751D01*
X13018Y2654D01*
X13047Y2559D01*
X13078Y2464D01*
X13113Y2370D01*
X13151Y2277D01*
X13191Y2186D01*
X13234Y2096D01*
X13280Y2007D01*
X13329Y1919D01*
X13380Y1833D01*
X13434Y1749D01*
X13491Y1667D01*
X13550Y1586D01*
X13611Y1507D01*
X13675Y1430D01*
X13741Y1355D01*
X13810Y1282D01*
X13881Y1212D01*
X13954Y1143D01*
X14029Y1077D01*
X14105Y1013D01*
X14184Y951D01*
X14265Y892D01*
X14348Y836D01*
X14432Y782D01*
X14518Y730D01*
X14605Y682D01*
X14694Y636D01*
X14784Y593D01*
X14876Y552D01*
X14968Y515D01*
X15062Y480D01*
X15157Y448D01*
X15253Y419D01*
X15350Y393D01*
X15447Y370D01*
X15545Y351D01*
X15644Y334D01*
X15743Y320D01*
X15842Y309D01*
X15942Y301D01*
X16042Y297D01*
X16142Y295D01*
X16242Y297D01*
X16342Y301D01*
X16441Y309D01*
X16541Y320D01*
X16640Y334D01*
X16739Y351D01*
X16837Y370D01*
X16934Y393D01*
X17031Y419D01*
X17126Y448D01*
X17221Y480D01*
X17315Y515D01*
X17408Y552D01*
X17499Y593D01*
X17590Y636D01*
X17678Y682D01*
X17766Y730D01*
X17852Y782D01*
X17936Y836D01*
X18018Y892D01*
X18099Y951D01*
X18178Y1013D01*
X18255Y1077D01*
X18330Y1143D01*
X18403Y1212D01*
X18474Y1282D01*
X18542Y1355D01*
X18608Y1430D01*
X18672Y1507D01*
X18734Y1586D01*
X18793Y1667D01*
X18849Y1749D01*
X18903Y1833D01*
X18955Y1919D01*
X19003Y2007D01*
X19049Y2096D01*
X19092Y2186D01*
X19133Y2277D01*
X19170Y2370D01*
X19205Y2464D01*
X19237Y2559D01*
X19266Y2654D01*
X19292Y2751D01*
X19315Y2848D01*
X19334Y2947D01*
X19351Y3045D01*
X19365Y3144D01*
X19376Y3244D01*
X19384Y3343D01*
X19388Y3443D01*
X19390Y3543D01*
X26476Y3430D02*
X26475Y3530D01*
X26470Y3630D01*
X26463Y3729D01*
X26452Y3829D01*
X26438Y3928D01*
X26421Y4027D01*
X26401Y4125D01*
X26378Y4222D01*
X26352Y4319D01*
X26324Y4414D01*
X26292Y4509D01*
X26257Y4603D01*
X26219Y4696D01*
X26179Y4787D01*
X26136Y4878D01*
X26090Y4966D01*
X26041Y5054D01*
X25990Y5140D01*
X25936Y5224D01*
X25879Y5306D01*
X25820Y5387D01*
X25759Y5466D01*
X25695Y5543D01*
X25629Y5618D01*
X25560Y5691D01*
X25489Y5762D01*
X25417Y5830D01*
X25342Y5896D01*
X25265Y5960D01*
X25186Y6022D01*
X25105Y6081D01*
X25022Y6137D01*
X24938Y6191D01*
X24852Y6243D01*
X24765Y6291D01*
X24676Y6337D01*
X24586Y6380D01*
X24494Y6421D01*
X24402Y6458D01*
X24308Y6493D01*
X24213Y6525D01*
X24117Y6554D01*
X24021Y6580D01*
X23923Y6603D01*
X23825Y6622D01*
X23727Y6639D01*
X23627Y6653D01*
X23528Y6664D01*
X23428Y6672D01*
X23328Y6676D01*
X23228Y6678D01*
X23128Y6676D01*
X23028Y6672D01*
X22929Y6664D01*
X22829Y6653D01*
X22730Y6639D01*
X22632Y6622D01*
X22533Y6603D01*
X22436Y6580D01*
X22339Y6554D01*
X22244Y6525D01*
X22149Y6493D01*
X22055Y6458D01*
X21962Y6421D01*
X21871Y6380D01*
X21781Y6337D01*
X21692Y6291D01*
X21604Y6243D01*
X21518Y6191D01*
X21434Y6137D01*
X21352Y6081D01*
X21271Y6022D01*
X21192Y5960D01*
X21115Y5896D01*
X21040Y5830D01*
X20967Y5762D01*
X20897Y5691D01*
X20828Y5618D01*
X20762Y5543D01*
X20698Y5466D01*
X20636Y5387D01*
X20577Y5306D01*
X20521Y5224D01*
X20467Y5140D01*
X20415Y5054D01*
X20367Y4966D01*
X20321Y4878D01*
X20278Y4787D01*
X20237Y4696D01*
X20200Y4603D01*
X20165Y4509D01*
X20133Y4414D01*
X20104Y4319D01*
X20078Y4222D01*
X20056Y4125D01*
X20036Y4027D01*
X20019Y3928D01*
X20005Y3829D01*
X19994Y3729D01*
X19986Y3630D01*
X19982Y3530D01*
X19980Y3430D01*
X19982Y3330D01*
X19986Y3230D01*
X19994Y3130D01*
X20005Y3031D01*
X20019Y2932D01*
X20036Y2833D01*
X20056Y2735D01*
X20078Y2637D01*
X20104Y2541D01*
X20133Y2445D01*
X20165Y2350D01*
X20200Y2256D01*
X20237Y2164D01*
X20278Y2072D01*
X20321Y1982D01*
X20367Y1893D01*
X20415Y1806D01*
X20467Y1720D01*
X20521Y1636D01*
X20577Y1553D01*
X20636Y1472D01*
X20698Y1393D01*
X20762Y1317D01*
X20828Y1242D01*
X20897Y1169D01*
X20967Y1098D01*
X21040Y1029D01*
X21115Y963D01*
X21192Y899D01*
X21271Y838D01*
X21352Y779D01*
X21434Y722D01*
X21518Y668D01*
X21604Y617D01*
X21692Y568D01*
X21781Y522D01*
X21871Y479D01*
X21962Y439D01*
X22055Y401D01*
X22149Y366D01*
X22244Y335D01*
X22340Y306D01*
X22436Y280D01*
X22534Y257D01*
X22632Y237D01*
X22730Y220D01*
X22829Y206D01*
X22929Y196D01*
X23028Y188D01*
X23128Y183D01*
X23228Y182D01*
X23328Y183D01*
X23428Y188D01*
X23528Y196D01*
X23628Y206D01*
X23727Y220D01*
X23825Y237D01*
X23923Y257D01*
X24021Y280D01*
X24117Y306D01*
X24213Y335D01*
X24308Y366D01*
X24402Y401D01*
X24494Y439D01*
X24586Y479D01*
X24676Y522D01*
X24765Y568D01*
X24852Y617D01*
X24938Y668D01*
X25022Y722D01*
X25105Y779D01*
X25186Y838D01*
X25265Y899D01*
X25342Y963D01*
X25417Y1029D01*
X25489Y1098D01*
X25560Y1169D01*
X25629Y1242D01*
X25695Y1317D01*
X25759Y1393D01*
X25820Y1472D01*
X25879Y1553D01*
X25936Y1636D01*
X25990Y1720D01*
X26041Y1806D01*
X26090Y1893D01*
X26136Y1982D01*
X26179Y2072D01*
X26219Y2164D01*
X26257Y2256D01*
X26292Y2350D01*
X26324Y2445D01*
X26352Y2541D01*
X26378Y2638D01*
X26401Y2735D01*
X26421Y2833D01*
X26438Y2932D01*
X26452Y3031D01*
X26463Y3130D01*
X26470Y3230D01*
X26475Y3330D01*
X26476Y3430D01*
X45374Y3368D02*
X45372Y3468D01*
X45368Y3568D01*
X45360Y3668D01*
X45349Y3767D01*
X45336Y3866D01*
X45319Y3965D01*
X45299Y4063D01*
X45276Y4160D01*
X45250Y4257D01*
X45221Y4352D01*
X45189Y4447D01*
X45155Y4541D01*
X45117Y4634D01*
X45077Y4725D01*
X45034Y4816D01*
X44988Y4904D01*
X44939Y4992D01*
X44888Y5078D01*
X44834Y5162D01*
X44777Y5244D01*
X44718Y5325D01*
X44656Y5404D01*
X44593Y5481D01*
X44526Y5556D01*
X44458Y5629D01*
X44387Y5700D01*
X44314Y5768D01*
X44239Y5834D01*
X44162Y5898D01*
X44083Y5960D01*
X44003Y6019D01*
X43920Y6075D01*
X43836Y6129D01*
X43750Y6181D01*
X43663Y6229D01*
X43574Y6275D01*
X43484Y6319D01*
X43392Y6359D01*
X43299Y6397D01*
X43205Y6431D01*
X43111Y6463D01*
X43015Y6492D01*
X42918Y6518D01*
X42821Y6541D01*
X42723Y6561D01*
X42624Y6577D01*
X42525Y6591D01*
X42426Y6602D01*
X42326Y6610D01*
X42226Y6614D01*
X42126Y6616D01*
X42026Y6614D01*
X41926Y6610D01*
X41826Y6602D01*
X41727Y6591D01*
X41628Y6577D01*
X41529Y6561D01*
X41431Y6541D01*
X41334Y6518D01*
X41237Y6492D01*
X41141Y6463D01*
X41046Y6431D01*
X40953Y6397D01*
X40860Y6359D01*
X40768Y6319D01*
X40678Y6275D01*
X40589Y6229D01*
X40502Y6181D01*
X40416Y6129D01*
X40332Y6075D01*
X40249Y6019D01*
X40169Y5960D01*
X40090Y5898D01*
X40013Y5834D01*
X39938Y5768D01*
X39865Y5700D01*
X39794Y5629D01*
X39726Y5556D01*
X39659Y5481D01*
X39596Y5404D01*
X39534Y5325D01*
X39475Y5244D01*
X39418Y5162D01*
X39364Y5078D01*
X39313Y4992D01*
X39264Y4904D01*
X39218Y4816D01*
X39175Y4725D01*
X39135Y4634D01*
X39097Y4541D01*
X39063Y4447D01*
X39031Y4352D01*
X39002Y4257D01*
X38976Y4160D01*
X38953Y4063D01*
X38933Y3965D01*
X38916Y3866D01*
X38903Y3767D01*
X38892Y3668D01*
X38884Y3568D01*
X38879Y3468D01*
X38878Y3368D01*
X38879Y3268D01*
X38884Y3168D01*
X38892Y3068D01*
X38903Y2969D01*
X38916Y2870D01*
X38933Y2771D01*
X38953Y2673D01*
X38976Y2576D01*
X39002Y2479D01*
X39031Y2383D01*
X39063Y2288D01*
X39097Y2194D01*
X39135Y2102D01*
X39175Y2010D01*
X39218Y1920D01*
X39264Y1831D01*
X39313Y1744D01*
X39364Y1658D01*
X39418Y1574D01*
X39475Y1491D01*
X39534Y1410D01*
X39596Y1332D01*
X39659Y1255D01*
X39726Y1180D01*
X39794Y1107D01*
X39865Y1036D01*
X39938Y967D01*
X40013Y901D01*
X40090Y837D01*
X40169Y776D01*
X40249Y717D01*
X40332Y660D01*
X40416Y606D01*
X40502Y555D01*
X40589Y506D01*
X40678Y460D01*
X40768Y417D01*
X40860Y377D01*
X40953Y339D01*
X41047Y304D01*
X41141Y273D01*
X41237Y244D01*
X41334Y218D01*
X41431Y195D01*
X41529Y175D01*
X41628Y158D01*
X41727Y144D01*
X41826Y134D01*
X41926Y126D01*
X42026Y121D01*
X42126Y120D01*
X42226Y121D01*
X42326Y126D01*
X42426Y134D01*
X42525Y144D01*
X42624Y158D01*
X42723Y175D01*
X42821Y195D01*
X42918Y218D01*
X43015Y244D01*
X43111Y273D01*
X43206Y304D01*
X43299Y339D01*
X43392Y377D01*
X43484Y417D01*
X43574Y460D01*
X43663Y506D01*
X43750Y555D01*
X43836Y606D01*
X43920Y660D01*
X44003Y717D01*
X44083Y776D01*
X44162Y837D01*
X44239Y901D01*
X44314Y968D01*
X44387Y1036D01*
X44458Y1107D01*
X44526Y1180D01*
X44593Y1255D01*
X44656Y1332D01*
X44718Y1410D01*
X44777Y1491D01*
X44834Y1574D01*
X44888Y1658D01*
X44939Y1744D01*
X44988Y1831D01*
X45034Y1920D01*
X45077Y2010D01*
X45117Y2102D01*
X45155Y2195D01*
X45189Y2288D01*
X45221Y2383D01*
X45250Y2479D01*
X45276Y2576D01*
X45299Y2673D01*
X45319Y2771D01*
X45336Y2870D01*
X45349Y2969D01*
X45360Y3068D01*
X45368Y3168D01*
X45372Y3268D01*
X45374Y3368D01*
X7185Y3543D02*
X7183Y3643D01*
X7179Y3743D01*
X7171Y3843D01*
X7160Y3942D01*
X7147Y4042D01*
X7130Y4140D01*
X7110Y4238D01*
X7087Y4336D01*
X7061Y4432D01*
X7032Y4528D01*
X7000Y4623D01*
X6966Y4717D01*
X6928Y4809D01*
X6888Y4901D01*
X6845Y4991D01*
X6799Y5080D01*
X6750Y5167D01*
X6699Y5253D01*
X6645Y5337D01*
X6588Y5420D01*
X6529Y5501D01*
X6467Y5580D01*
X6404Y5657D01*
X6337Y5731D01*
X6269Y5804D01*
X6198Y5875D01*
X6125Y5944D01*
X6050Y6010D01*
X5973Y6074D01*
X5894Y6135D01*
X5814Y6194D01*
X5731Y6251D01*
X5647Y6305D01*
X5561Y6356D01*
X5474Y6405D01*
X5385Y6451D01*
X5295Y6494D01*
X5203Y6534D01*
X5110Y6572D01*
X5017Y6607D01*
X4922Y6639D01*
X4826Y6667D01*
X4729Y6693D01*
X4632Y6716D01*
X4534Y6736D01*
X4435Y6753D01*
X4336Y6767D01*
X4237Y6777D01*
X4137Y6785D01*
X4037Y6790D01*
X3937Y6791D01*
X3837Y6790D01*
X3737Y6785D01*
X3637Y6777D01*
X3538Y6767D01*
X3439Y6753D01*
X3340Y6736D01*
X3242Y6716D01*
X3145Y6693D01*
X3048Y6667D01*
X2952Y6639D01*
X2858Y6607D01*
X2764Y6572D01*
X2671Y6534D01*
X2579Y6494D01*
X2489Y6451D01*
X2400Y6405D01*
X2313Y6356D01*
X2227Y6305D01*
X2143Y6251D01*
X2060Y6194D01*
X1980Y6135D01*
X1901Y6074D01*
X1824Y6010D01*
X1749Y5944D01*
X1676Y5875D01*
X1605Y5804D01*
X1537Y5731D01*
X1470Y5657D01*
X1407Y5580D01*
X1345Y5501D01*
X1286Y5420D01*
X1229Y5337D01*
X1175Y5253D01*
X1124Y5167D01*
X1075Y5080D01*
X1029Y4991D01*
X986Y4901D01*
X946Y4809D01*
X908Y4717D01*
X874Y4623D01*
X842Y4528D01*
X813Y4432D01*
X787Y4336D01*
X764Y4238D01*
X744Y4140D01*
X727Y4042D01*
X714Y3942D01*
X703Y3843D01*
X695Y3743D01*
X691Y3643D01*
X689Y3543D01*
X691Y3443D01*
X695Y3343D01*
X703Y3244D01*
X714Y3144D01*
X727Y3045D01*
X744Y2946D01*
X764Y2848D01*
X787Y2751D01*
X813Y2654D01*
X842Y2559D01*
X874Y2464D01*
X908Y2370D01*
X946Y2277D01*
X986Y2186D01*
X1029Y2096D01*
X1075Y2007D01*
X1124Y1919D01*
X1175Y1833D01*
X1229Y1749D01*
X1286Y1667D01*
X1345Y1586D01*
X1407Y1507D01*
X1470Y1430D01*
X1537Y1355D01*
X1605Y1282D01*
X1676Y1212D01*
X1749Y1143D01*
X1824Y1077D01*
X1901Y1013D01*
X1980Y951D01*
X2060Y892D01*
X2143Y836D01*
X2227Y782D01*
X2313Y730D01*
X2400Y682D01*
X2489Y636D01*
X2579Y593D01*
X2671Y552D01*
X2764Y515D01*
X2858Y480D01*
X2952Y448D01*
X3048Y419D01*
X3145Y393D01*
X3242Y370D01*
X3340Y351D01*
X3439Y334D01*
X3538Y320D01*
X3637Y309D01*
X3737Y301D01*
X3837Y297D01*
X3937Y295D01*
X4037Y297D01*
X4137Y301D01*
X4237Y309D01*
X4336Y320D01*
X4435Y334D01*
X4534Y351D01*
X4632Y370D01*
X4729Y393D01*
X4826Y419D01*
X4922Y448D01*
X5017Y480D01*
X5110Y515D01*
X5203Y552D01*
X5295Y593D01*
X5385Y636D01*
X5474Y682D01*
X5561Y730D01*
X5647Y782D01*
X5731Y836D01*
X5814Y892D01*
X5894Y951D01*
X5973Y1013D01*
X6050Y1077D01*
X6125Y1143D01*
X6198Y1212D01*
X6269Y1282D01*
X6337Y1355D01*
X6404Y1430D01*
X6468Y1507D01*
X6529Y1586D01*
X6588Y1667D01*
X6645Y1749D01*
X6699Y1833D01*
X6750Y1919D01*
X6799Y2007D01*
X6845Y2096D01*
X6888Y2186D01*
X6928Y2277D01*
X6966Y2370D01*
X7000Y2464D01*
X7032Y2559D01*
X7061Y2654D01*
X7087Y2751D01*
X7110Y2848D01*
X7130Y2947D01*
X7147Y3045D01*
X7160Y3144D01*
X7171Y3244D01*
X7179Y3343D01*
X7184Y3443D01*
X7185Y3543D01*
X63514Y26000D02*
X63976D01*
X62402D02*
X62864D01*
X63514Y25016D02*
Y26000D01*
X62864Y25016D02*
X63514D01*
X62864D02*
Y26984D01*
X63514D01*
Y26000D02*
Y26984D01*
X47925Y36033D02*
X50738D01*
X44364D02*
X47177D01*
X44364D02*
Y40325D01*
X50738D01*
Y36033D02*
Y40325D01*
X47925Y36033D02*
Y36260D01*
X47177D02*
X47925D01*
X47177Y36033D02*
Y36260D01*
X54213Y30441D02*
Y30825D01*
X53032D02*
X53356D01*
X53888D02*
X54213D01*
X53032Y30441D02*
Y30825D01*
X53514Y30274D02*
X53730D01*
X28990Y34360D02*
X30210D01*
X28990Y30915D02*
X30210D01*
X22063Y37037D02*
X25181D01*
X22063Y35978D02*
Y37037D01*
Y35978D02*
X25181D01*
Y37037D01*
X12764Y38644D02*
Y39703D01*
X10646Y38644D02*
X12764D01*
X10646D02*
Y39703D01*
X12764D01*
X3115Y22516D02*
Y24650D01*
X773Y22516D02*
X3115D01*
X773D02*
Y24650D01*
X3115D01*
X3115Y25020D02*
Y28154D01*
X773Y25020D02*
X3115D01*
X773D02*
Y28154D01*
X3115D01*
X3115Y28568D02*
Y31702D01*
X773Y28568D02*
X3115D01*
X773D02*
Y31702D01*
X3115D01*
X6230Y10374D02*
Y10886D01*
X5600Y10374D02*
Y10886D01*
X9252Y21417D02*
Y22677D01*
X11220Y21417D02*
Y22677D01*
X11110Y10374D02*
Y10886D01*
X10480Y10374D02*
Y10886D01*
X15736Y10374D02*
Y10886D01*
X15106Y10374D02*
Y10886D01*
X18415Y15138D02*
Y16358D01*
X19321Y15138D02*
Y16358D01*
X18415Y15138D02*
X19321D01*
X18415Y16358D02*
X19321D01*
X17608Y17441D02*
X17825D01*
X17126Y17608D02*
Y17992D01*
X17982D02*
X18307D01*
X17126D02*
X17451D01*
X18307Y17608D02*
Y17992D01*
X21315Y39679D02*
X26449D01*
X21315D02*
Y42022D01*
X26449D01*
Y39679D02*
Y42022D01*
X30118Y21417D02*
Y22677D01*
X28150Y21417D02*
Y22677D01*
X30008Y10374D02*
Y10886D01*
X29378Y10374D02*
Y10886D01*
X31378Y38114D02*
Y38626D01*
X32008Y38114D02*
Y38626D01*
X33378Y38114D02*
Y38626D01*
X34008Y38114D02*
Y38626D01*
X36919Y17586D02*
Y17969D01*
X35738D02*
X36063D01*
X36595D02*
X36919D01*
X35738Y17586D02*
Y17969D01*
X36221Y17418D02*
X36437D01*
X47047Y21417D02*
Y22677D01*
X49016Y21417D02*
Y22677D01*
X54811Y16740D02*
Y17124D01*
X53630D02*
X53955D01*
X54486D02*
X54811D01*
X53630Y16740D02*
Y17124D01*
X54112Y16572D02*
X54329D01*
X56232Y25234D02*
Y25264D01*
Y25234D02*
X56498D01*
X57502D02*
X57768D01*
Y25264D01*
Y27055D02*
Y27084D01*
X57502D02*
X57768D01*
X56232Y27055D02*
Y27084D01*
X56498D01*
X1571Y10420D02*
Y10932D01*
X942Y10420D02*
Y10932D01*
X20559Y10374D02*
Y10886D01*
X19929Y10374D02*
Y10886D01*
X25118Y10374D02*
Y10886D01*
X24488Y10374D02*
Y10886D01*
X28134Y39679D02*
X33268D01*
X28134D02*
Y42022D01*
X33268D01*
Y39679D02*
Y42022D01*
X33001Y38114D02*
Y38626D01*
X32371Y38114D02*
Y38626D01*
X34567Y10374D02*
Y10886D01*
X33937Y10374D02*
Y10886D01*
X33713Y31984D02*
Y32102D01*
X34106Y31984D02*
Y32102D01*
X33713D02*
X34106D01*
X37057Y15138D02*
Y16358D01*
X37963Y15138D02*
Y16358D01*
X37057Y15138D02*
X37963D01*
X37057Y16358D02*
X37963D01*
X39457Y10374D02*
Y10886D01*
X38827Y10374D02*
Y10886D01*
X44016Y10374D02*
Y10886D01*
X43386Y10374D02*
Y10886D01*
X48906Y10374D02*
Y10886D01*
X48276Y10374D02*
Y10886D01*
X53465Y10374D02*
Y10886D01*
X52835Y10374D02*
Y10886D01*
X63046Y34754D02*
Y35974D01*
X62653Y34754D02*
Y35974D01*
X63046D01*
X62653Y34754D02*
X63046D01*
X12106Y98D02*
Y7776D01*
X8366D02*
X12106D01*
X8366Y98D02*
Y7776D01*
Y98D02*
X12106D01*
X31004D02*
Y7776D01*
X27264D02*
X31004D01*
X27264Y98D02*
Y7776D01*
Y98D02*
X31004D01*
X49902D02*
Y7776D01*
X46161D02*
X49902D01*
X46161Y98D02*
Y7776D01*
Y98D02*
X49902D01*
X55547Y15104D02*
X56453D01*
X55547Y13883D02*
X56453D01*
Y15104D01*
X55547Y13883D02*
Y15104D01*
D18*
X13157Y33857D02*
X12895D01*
X12842Y33804D01*
Y33699D01*
X12895Y33647D01*
X13157D01*
X12842Y33542D02*
Y33437D01*
Y33489D01*
X13157D01*
X13105Y33542D01*
Y33279D02*
X13157Y33227D01*
Y33122D01*
X13105Y33070D01*
X12895D01*
X12842Y33122D01*
Y33227D01*
X12895Y33279D01*
X13105D01*
D171*
X18927Y15532D02*
X18883Y15624D01*
X18783Y15647D01*
X18703Y15583D01*
Y15480D01*
X18783Y15416D01*
X18883Y15439D01*
X18927Y15532D01*
X37569Y15532D02*
X37525Y15624D01*
X37425Y15647D01*
X37345Y15583D01*
Y15480D01*
X37425Y15416D01*
X37525Y15439D01*
X37569Y15532D01*
X56059Y14277D02*
X56015Y14369D01*
X55915Y14392D01*
X55835Y14328D01*
Y14226D01*
X55915Y14162D01*
X56015Y14185D01*
X56059Y14277D01*
D172*
X52109Y2264D02*
X51715D01*
X51912Y2460D02*
Y2067D01*
X33858Y2264D02*
X33465D01*
X33661Y2460D02*
Y2067D01*
X14665Y2264D02*
X14272D01*
X14469Y2460D02*
Y2067D01*
X22047Y2264D02*
X21654D01*
X21850Y2460D02*
Y2067D01*
X40945Y2264D02*
X40551D01*
X40748Y2460D02*
Y2067D01*
X2725Y2264D02*
X2332D01*
X2529Y2460D02*
Y2067D01*
M02*
