G04*
G04 #@! TF.GenerationSoftware,Altium Limited,Altium Designer,20.2.6 (244)*
G04*
G04 Layer_Color=8388736*
%FSLAX24Y24*%
%MOIN*%
G70*
G04*
G04 #@! TF.SameCoordinates,10E2E559-7701-499E-A428-1A66D90B70A8*
G04*
G04*
G04 #@! TF.FilePolarity,Positive*
G04*
G01*
G75*
%ADD13C,0.0100*%
%ADD16C,0.0079*%
%ADD18C,0.0039*%
G36*
X6838Y2318D02*
X6033Y2658D01*
X6033Y2658D01*
X6075Y2764D01*
X6142Y2981D01*
X6187Y3204D01*
X6210Y3430D01*
Y3657D01*
X6187Y3883D01*
X6142Y4106D01*
X6075Y4323D01*
X6033Y4428D01*
D01*
X6033Y4429D01*
X6838Y4769D01*
X6900Y4624D01*
X6993Y4323D01*
X7055Y4014D01*
X7087Y3701D01*
Y3386D01*
X7055Y3072D01*
X6993Y2764D01*
X6900Y2463D01*
X6838Y2318D01*
Y2318D01*
D02*
G37*
G36*
X19043D02*
X18238Y2658D01*
X18238Y2658D01*
X18280Y2764D01*
X18347Y2981D01*
X18392Y3204D01*
X18414Y3430D01*
Y3657D01*
X18392Y3883D01*
X18347Y4106D01*
X18280Y4323D01*
X18238Y4428D01*
D01*
X18238Y4429D01*
X19043Y4769D01*
X19104Y4624D01*
X19197Y4323D01*
X19260Y4014D01*
X19291Y3701D01*
Y3386D01*
X19260Y3072D01*
X19197Y2764D01*
X19104Y2463D01*
X19043Y2318D01*
Y2318D01*
D02*
G37*
G36*
X26130Y2204D02*
X25324Y2544D01*
X25325Y2545D01*
X25366Y2650D01*
X25433Y2868D01*
X25478Y3090D01*
X25501Y3316D01*
Y3543D01*
X25478Y3769D01*
X25433Y3992D01*
X25366Y4209D01*
X25325Y4315D01*
D01*
X25324Y4315D01*
X26130Y4656D01*
X26191Y4510D01*
X26284Y4209D01*
X26347Y3901D01*
X26378Y3587D01*
Y3272D01*
X26347Y2959D01*
X26284Y2650D01*
X26191Y2349D01*
X26130Y2204D01*
Y2204D01*
D02*
G37*
G36*
X37941Y2142D02*
X37136Y2482D01*
X37136Y2483D01*
X37177Y2589D01*
X37244Y2806D01*
X37289Y3028D01*
X37312Y3254D01*
Y3481D01*
X37289Y3707D01*
X37244Y3930D01*
X37177Y4147D01*
X37136Y4253D01*
D01*
X37136Y4254D01*
X37941Y4594D01*
X38002Y4449D01*
X38095Y4148D01*
X38158Y3839D01*
X38189Y3525D01*
Y3210D01*
X38158Y2897D01*
X38095Y2588D01*
X38002Y2287D01*
X37941Y2142D01*
Y2142D01*
D02*
G37*
G36*
X45027D02*
X44222Y2482D01*
X44222Y2483D01*
X44264Y2589D01*
X44331Y2806D01*
X44376Y3028D01*
X44399Y3254D01*
Y3481D01*
X44376Y3707D01*
X44331Y3930D01*
X44264Y4147D01*
X44222Y4253D01*
D01*
X44222Y4254D01*
X45027Y4594D01*
X45089Y4449D01*
X45182Y4148D01*
X45244Y3839D01*
X45276Y3525D01*
Y3210D01*
X45244Y2897D01*
X45182Y2588D01*
X45089Y2287D01*
X45027Y2142D01*
Y2142D01*
D02*
G37*
G36*
X56838Y2318D02*
X56033Y2658D01*
X56033Y2658D01*
X56075Y2764D01*
X56142Y2981D01*
X56187Y3204D01*
X56210Y3430D01*
Y3657D01*
X56187Y3883D01*
X56142Y4106D01*
X56075Y4323D01*
X56033Y4428D01*
D01*
X56033Y4429D01*
X56838Y4769D01*
X56900Y4624D01*
X56993Y4323D01*
X57055Y4014D01*
X57087Y3701D01*
Y3386D01*
X57055Y3072D01*
X56993Y2764D01*
X56900Y2463D01*
X56838Y2318D01*
Y2318D01*
D02*
G37*
G36*
X53722Y31184D02*
X53729Y31182D01*
X53736Y31180D01*
X53742Y31178D01*
X53747Y31176D01*
X53751Y31173D01*
X53753Y31172D01*
X53753Y31172D01*
X53753D01*
X53759Y31167D01*
X53764Y31161D01*
X53768Y31155D01*
X53772Y31150D01*
X53775Y31145D01*
X53776Y31140D01*
X53777Y31139D01*
X53777Y31138D01*
X53778Y31137D01*
Y31137D01*
X53781Y31143D01*
X53784Y31149D01*
X53787Y31153D01*
X53791Y31157D01*
X53793Y31160D01*
X53796Y31163D01*
X53797Y31164D01*
X53798Y31164D01*
X53803Y31168D01*
X53808Y31170D01*
X53813Y31172D01*
X53818Y31173D01*
X53822Y31173D01*
X53826Y31174D01*
X53828D01*
X53828D01*
X53828D01*
X53834Y31173D01*
X53838Y31173D01*
X53847Y31171D01*
X53855Y31167D01*
X53862Y31164D01*
X53868Y31160D01*
X53870Y31158D01*
X53872Y31157D01*
X53874Y31155D01*
X53875Y31154D01*
X53875Y31154D01*
X53875Y31153D01*
X53879Y31149D01*
X53882Y31145D01*
X53884Y31141D01*
X53887Y31137D01*
X53890Y31128D01*
X53892Y31119D01*
X53893Y31116D01*
X53894Y31112D01*
X53894Y31109D01*
X53894Y31106D01*
X53895Y31104D01*
Y31100D01*
X53894Y31094D01*
X53894Y31089D01*
X53892Y31078D01*
X53890Y31074D01*
X53889Y31069D01*
X53887Y31065D01*
X53885Y31062D01*
X53883Y31059D01*
X53882Y31056D01*
X53880Y31053D01*
X53879Y31051D01*
X53878Y31050D01*
X53876Y31049D01*
X53876Y31048D01*
X53876Y31048D01*
X53872Y31045D01*
X53868Y31041D01*
X53864Y31039D01*
X53860Y31037D01*
X53853Y31033D01*
X53846Y31031D01*
X53839Y31029D01*
X53836Y31029D01*
X53834Y31029D01*
X53832Y31028D01*
X53831D01*
X53830D01*
X53830D01*
X53823Y31029D01*
X53817Y31030D01*
X53811Y31031D01*
X53807Y31033D01*
X53803Y31034D01*
X53800Y31036D01*
X53799Y31037D01*
X53798Y31037D01*
X53793Y31041D01*
X53789Y31046D01*
X53786Y31050D01*
X53783Y31055D01*
X53781Y31060D01*
X53779Y31063D01*
X53779Y31064D01*
X53778Y31065D01*
X53778Y31066D01*
Y31066D01*
X53775Y31058D01*
X53772Y31051D01*
X53768Y31045D01*
X53764Y31039D01*
X53761Y31035D01*
X53758Y31033D01*
X53756Y31031D01*
X53756Y31030D01*
X53755D01*
X53749Y31026D01*
X53742Y31023D01*
X53735Y31021D01*
X53729Y31019D01*
X53723Y31019D01*
X53720Y31018D01*
X53718D01*
X53717Y31018D01*
X53715D01*
X53714D01*
X53714D01*
X53708Y31018D01*
X53702Y31019D01*
X53697Y31020D01*
X53692Y31022D01*
X53682Y31025D01*
X53678Y31027D01*
X53674Y31029D01*
X53671Y31031D01*
X53668Y31033D01*
X53665Y31035D01*
X53663Y31037D01*
X53661Y31038D01*
X53660Y31039D01*
X53660Y31040D01*
X53659Y31041D01*
X53655Y31045D01*
X53652Y31050D01*
X53649Y31055D01*
X53646Y31060D01*
X53645Y31065D01*
X53643Y31070D01*
X53640Y31080D01*
X53639Y31084D01*
X53638Y31088D01*
X53638Y31092D01*
X53638Y31095D01*
X53637Y31097D01*
Y31101D01*
X53638Y31108D01*
X53638Y31114D01*
X53640Y31120D01*
X53641Y31126D01*
X53642Y31131D01*
X53644Y31136D01*
X53646Y31141D01*
X53648Y31145D01*
X53650Y31149D01*
X53652Y31152D01*
X53654Y31155D01*
X53656Y31157D01*
X53657Y31159D01*
X53658Y31160D01*
X53659Y31161D01*
X53659Y31161D01*
X53664Y31165D01*
X53668Y31169D01*
X53672Y31172D01*
X53677Y31174D01*
X53681Y31177D01*
X53686Y31179D01*
X53694Y31181D01*
X53698Y31182D01*
X53702Y31183D01*
X53705Y31183D01*
X53708Y31184D01*
X53710Y31184D01*
X53712D01*
X53713D01*
X53713D01*
X53722Y31184D01*
D02*
G37*
G36*
X53895Y30919D02*
X53888Y30915D01*
X53883Y30911D01*
X53877Y30907D01*
X53872Y30902D01*
X53867Y30898D01*
X53864Y30895D01*
X53863Y30893D01*
X53862Y30892D01*
X53861Y30892D01*
X53861Y30891D01*
X53855Y30884D01*
X53849Y30876D01*
X53844Y30869D01*
X53840Y30861D01*
X53836Y30855D01*
X53835Y30853D01*
X53834Y30851D01*
X53832Y30849D01*
X53832Y30847D01*
X53831Y30847D01*
Y30846D01*
X53801D01*
X53804Y30852D01*
X53806Y30857D01*
X53809Y30863D01*
X53811Y30868D01*
X53814Y30872D01*
X53815Y30876D01*
X53817Y30878D01*
X53817Y30878D01*
Y30879D01*
X53821Y30885D01*
X53825Y30891D01*
X53829Y30896D01*
X53832Y30900D01*
X53835Y30904D01*
X53837Y30906D01*
X53838Y30908D01*
X53839Y30908D01*
X53642D01*
Y30939D01*
X53895D01*
Y30919D01*
D02*
G37*
G36*
X53648Y30788D02*
X53652Y30780D01*
X53656Y30773D01*
X53660Y30766D01*
X53663Y30761D01*
X53664Y30758D01*
X53666Y30757D01*
X53667Y30755D01*
X53668Y30754D01*
X53668Y30753D01*
Y30753D01*
X53676Y30759D01*
X53683Y30765D01*
X53690Y30770D01*
X53697Y30774D01*
X53703Y30777D01*
X53705Y30778D01*
X53708Y30779D01*
X53709Y30780D01*
X53710Y30781D01*
X53711Y30781D01*
X53712D01*
X53721Y30784D01*
X53731Y30787D01*
X53740Y30788D01*
X53749Y30789D01*
X53753Y30790D01*
X53756Y30790D01*
X53760D01*
X53763Y30791D01*
X53765D01*
X53766D01*
X53767D01*
X53768D01*
X53781Y30790D01*
X53794Y30788D01*
X53800Y30787D01*
X53805Y30786D01*
X53810Y30784D01*
X53815Y30783D01*
X53819Y30782D01*
X53823Y30780D01*
X53827Y30779D01*
X53830Y30778D01*
X53832Y30777D01*
X53833Y30776D01*
X53834Y30776D01*
X53835D01*
X53845Y30770D01*
X53855Y30763D01*
X53863Y30756D01*
X53869Y30749D01*
X53874Y30743D01*
X53876Y30740D01*
X53878Y30738D01*
X53879Y30736D01*
X53880Y30734D01*
X53881Y30733D01*
X53881Y30733D01*
X53884Y30728D01*
X53887Y30722D01*
X53891Y30712D01*
X53894Y30701D01*
X53896Y30691D01*
X53896Y30687D01*
X53897Y30682D01*
X53898Y30679D01*
Y30676D01*
X53898Y30673D01*
Y30663D01*
X53897Y30657D01*
X53895Y30646D01*
X53893Y30635D01*
X53891Y30630D01*
X53890Y30626D01*
X53888Y30622D01*
X53887Y30618D01*
X53886Y30615D01*
X53884Y30613D01*
X53883Y30610D01*
X53883Y30609D01*
X53882Y30608D01*
X53882Y30607D01*
X53875Y30598D01*
X53868Y30589D01*
X53860Y30582D01*
X53853Y30576D01*
X53846Y30571D01*
X53843Y30569D01*
X53840Y30567D01*
X53838Y30566D01*
X53837Y30565D01*
X53836Y30565D01*
X53835Y30564D01*
X53824Y30559D01*
X53812Y30556D01*
X53800Y30553D01*
X53790Y30551D01*
X53785Y30551D01*
X53781Y30550D01*
X53777Y30550D01*
X53773D01*
X53771Y30550D01*
X53769D01*
X53768D01*
X53767D01*
X53754Y30550D01*
X53741Y30552D01*
X53735Y30553D01*
X53729Y30554D01*
X53724Y30556D01*
X53720Y30557D01*
X53715Y30558D01*
X53711Y30560D01*
X53708Y30561D01*
X53705Y30562D01*
X53703Y30563D01*
X53701Y30564D01*
X53700Y30564D01*
X53700D01*
X53689Y30571D01*
X53680Y30578D01*
X53672Y30584D01*
X53666Y30591D01*
X53661Y30598D01*
X53658Y30600D01*
X53657Y30603D01*
X53656Y30605D01*
X53654Y30606D01*
X53654Y30607D01*
X53654Y30607D01*
X53651Y30613D01*
X53648Y30618D01*
X53644Y30629D01*
X53641Y30639D01*
X53640Y30649D01*
X53639Y30653D01*
X53638Y30657D01*
X53638Y30661D01*
Y30663D01*
X53637Y30666D01*
Y30669D01*
X53638Y30675D01*
X53638Y30682D01*
X53640Y30693D01*
X53642Y30704D01*
X53644Y30709D01*
X53645Y30713D01*
X53647Y30717D01*
X53648Y30721D01*
X53649Y30724D01*
X53650Y30726D01*
X53652Y30728D01*
X53652Y30730D01*
X53653Y30731D01*
Y30731D01*
X53646Y30741D01*
X53639Y30751D01*
X53634Y30760D01*
X53630Y30768D01*
X53628Y30772D01*
X53626Y30775D01*
X53625Y30778D01*
X53624Y30781D01*
X53623Y30783D01*
X53622Y30784D01*
X53622Y30785D01*
Y30785D01*
X53645Y30795D01*
X53648Y30788D01*
D02*
G37*
G36*
X29286Y32895D02*
X29292Y32894D01*
X29298Y32893D01*
X29303Y32891D01*
X29313Y32887D01*
X29317Y32885D01*
X29321Y32883D01*
X29324Y32881D01*
X29327Y32879D01*
X29330Y32877D01*
X29332Y32875D01*
X29334Y32873D01*
X29335Y32872D01*
X29336Y32872D01*
X29336Y32871D01*
X29340Y32867D01*
X29344Y32862D01*
X29347Y32857D01*
X29350Y32852D01*
X29352Y32846D01*
X29354Y32841D01*
X29356Y32832D01*
X29357Y32827D01*
X29358Y32823D01*
X29358Y32819D01*
X29359Y32816D01*
X29359Y32813D01*
Y32812D01*
Y32810D01*
Y32810D01*
X29359Y32803D01*
X29358Y32797D01*
X29357Y32790D01*
X29356Y32785D01*
X29354Y32779D01*
X29352Y32774D01*
X29350Y32770D01*
X29348Y32766D01*
X29346Y32762D01*
X29344Y32759D01*
X29343Y32757D01*
X29341Y32754D01*
X29339Y32752D01*
X29339Y32751D01*
X29338Y32750D01*
X29338Y32750D01*
X29334Y32746D01*
X29329Y32743D01*
X29325Y32739D01*
X29320Y32737D01*
X29316Y32735D01*
X29311Y32733D01*
X29303Y32730D01*
X29299Y32729D01*
X29296Y32729D01*
X29293Y32728D01*
X29290Y32728D01*
X29288Y32727D01*
X29285D01*
X29278Y32728D01*
X29271Y32729D01*
X29265Y32730D01*
X29260Y32732D01*
X29256Y32734D01*
X29253Y32735D01*
X29251Y32736D01*
X29250Y32737D01*
X29244Y32740D01*
X29239Y32744D01*
X29235Y32748D01*
X29231Y32752D01*
X29228Y32755D01*
X29226Y32758D01*
X29225Y32760D01*
X29224Y32761D01*
Y32758D01*
Y32756D01*
Y32755D01*
Y32754D01*
X29225Y32747D01*
X29225Y32740D01*
X29226Y32734D01*
X29227Y32728D01*
X29228Y32723D01*
X29228Y32720D01*
X29229Y32718D01*
Y32717D01*
X29229Y32717D01*
Y32717D01*
X29231Y32710D01*
X29233Y32704D01*
X29235Y32699D01*
X29236Y32695D01*
X29238Y32691D01*
X29239Y32689D01*
X29240Y32687D01*
X29240Y32687D01*
X29243Y32683D01*
X29246Y32679D01*
X29249Y32676D01*
X29252Y32674D01*
X29254Y32672D01*
X29256Y32670D01*
X29258Y32670D01*
X29258Y32669D01*
X29262Y32667D01*
X29267Y32666D01*
X29271Y32664D01*
X29275Y32664D01*
X29278Y32663D01*
X29280Y32663D01*
X29283D01*
X29289Y32663D01*
X29294Y32664D01*
X29299Y32666D01*
X29303Y32668D01*
X29306Y32669D01*
X29308Y32671D01*
X29310Y32672D01*
X29310Y32672D01*
X29314Y32676D01*
X29317Y32681D01*
X29319Y32686D01*
X29321Y32691D01*
X29323Y32695D01*
X29324Y32699D01*
X29324Y32701D01*
Y32702D01*
X29324Y32702D01*
Y32703D01*
X29354Y32700D01*
X29352Y32690D01*
X29349Y32680D01*
X29346Y32672D01*
X29342Y32666D01*
X29338Y32661D01*
X29336Y32659D01*
X29335Y32657D01*
X29334Y32656D01*
X29333Y32655D01*
X29332Y32654D01*
X29332Y32654D01*
X29328Y32651D01*
X29324Y32648D01*
X29316Y32644D01*
X29308Y32642D01*
X29301Y32640D01*
X29294Y32638D01*
X29291Y32638D01*
X29288D01*
X29287Y32638D01*
X29284D01*
X29274Y32638D01*
X29264Y32640D01*
X29256Y32642D01*
X29249Y32645D01*
X29246Y32646D01*
X29243Y32648D01*
X29241Y32649D01*
X29239Y32650D01*
X29237Y32651D01*
X29236Y32652D01*
X29236Y32652D01*
X29235D01*
X29228Y32659D01*
X29221Y32666D01*
X29216Y32673D01*
X29212Y32680D01*
X29208Y32686D01*
X29207Y32689D01*
X29206Y32691D01*
X29205Y32693D01*
X29204Y32695D01*
X29204Y32695D01*
Y32696D01*
X29202Y32701D01*
X29200Y32707D01*
X29198Y32720D01*
X29196Y32733D01*
X29195Y32745D01*
X29194Y32751D01*
X29194Y32756D01*
Y32761D01*
X29193Y32765D01*
Y32768D01*
Y32771D01*
Y32773D01*
Y32773D01*
Y32781D01*
X29194Y32789D01*
X29195Y32797D01*
X29195Y32804D01*
X29196Y32810D01*
X29197Y32816D01*
X29198Y32821D01*
X29199Y32826D01*
X29200Y32830D01*
X29201Y32833D01*
X29202Y32837D01*
X29203Y32839D01*
X29203Y32841D01*
X29204Y32842D01*
X29204Y32843D01*
Y32844D01*
X29209Y32852D01*
X29213Y32860D01*
X29219Y32866D01*
X29224Y32872D01*
X29228Y32876D01*
X29232Y32879D01*
X29233Y32880D01*
X29235Y32881D01*
X29235Y32881D01*
X29235D01*
X29243Y32886D01*
X29251Y32889D01*
X29258Y32892D01*
X29265Y32893D01*
X29271Y32894D01*
X29274Y32895D01*
X29276D01*
X29278Y32895D01*
X29280D01*
X29286Y32895D01*
D02*
G37*
G36*
X29600Y32748D02*
Y32741D01*
X29600Y32734D01*
X29599Y32727D01*
X29599Y32721D01*
X29598Y32716D01*
X29597Y32711D01*
X29596Y32706D01*
X29595Y32702D01*
X29595Y32698D01*
X29593Y32694D01*
X29593Y32691D01*
X29592Y32689D01*
X29591Y32687D01*
X29591Y32686D01*
X29591Y32685D01*
Y32685D01*
X29587Y32677D01*
X29581Y32670D01*
X29576Y32664D01*
X29571Y32659D01*
X29566Y32655D01*
X29562Y32652D01*
X29561Y32651D01*
X29560Y32650D01*
X29559Y32650D01*
X29559D01*
X29549Y32646D01*
X29540Y32643D01*
X29530Y32640D01*
X29521Y32639D01*
X29517Y32639D01*
X29513Y32638D01*
X29509Y32638D01*
X29506D01*
X29504Y32638D01*
X29501D01*
X29488Y32638D01*
X29482Y32639D01*
X29476Y32640D01*
X29471Y32641D01*
X29466Y32642D01*
X29462Y32643D01*
X29458Y32644D01*
X29454Y32646D01*
X29451Y32647D01*
X29448Y32648D01*
X29446Y32649D01*
X29444Y32650D01*
X29443Y32651D01*
X29442Y32651D01*
X29442D01*
X29434Y32657D01*
X29427Y32663D01*
X29422Y32669D01*
X29418Y32675D01*
X29415Y32680D01*
X29413Y32684D01*
X29412Y32685D01*
X29411Y32686D01*
X29411Y32687D01*
Y32687D01*
X29409Y32692D01*
X29408Y32696D01*
X29406Y32706D01*
X29404Y32717D01*
X29403Y32726D01*
X29403Y32731D01*
X29402Y32735D01*
Y32739D01*
X29402Y32742D01*
Y32745D01*
Y32746D01*
Y32748D01*
Y32748D01*
Y32894D01*
X29435D01*
Y32748D01*
Y32740D01*
X29436Y32732D01*
X29437Y32725D01*
X29438Y32718D01*
X29439Y32713D01*
X29441Y32707D01*
X29442Y32702D01*
X29443Y32698D01*
X29445Y32695D01*
X29446Y32692D01*
X29447Y32690D01*
X29449Y32687D01*
X29450Y32686D01*
X29450Y32685D01*
X29451Y32684D01*
X29451Y32684D01*
X29454Y32681D01*
X29458Y32679D01*
X29466Y32675D01*
X29474Y32672D01*
X29483Y32670D01*
X29491Y32668D01*
X29494Y32668D01*
X29498D01*
X29500Y32668D01*
X29504D01*
X29511Y32668D01*
X29518Y32669D01*
X29525Y32670D01*
X29530Y32672D01*
X29534Y32674D01*
X29537Y32675D01*
X29539Y32676D01*
X29540Y32676D01*
X29545Y32679D01*
X29549Y32683D01*
X29553Y32687D01*
X29556Y32691D01*
X29558Y32695D01*
X29560Y32697D01*
X29560Y32699D01*
X29561Y32700D01*
X29562Y32703D01*
X29563Y32706D01*
X29564Y32714D01*
X29565Y32722D01*
X29566Y32730D01*
X29566Y32737D01*
Y32740D01*
X29567Y32743D01*
Y32745D01*
Y32747D01*
Y32748D01*
Y32748D01*
Y32894D01*
X29600D01*
Y32748D01*
D02*
G37*
G36*
X5989Y10539D02*
X5989Y10531D01*
X5989Y10523D01*
X5988Y10516D01*
X5987Y10511D01*
X5987Y10505D01*
X5986Y10502D01*
X5986Y10501D01*
X5985Y10500D01*
Y10499D01*
X5984Y10492D01*
X5981Y10487D01*
X5980Y10481D01*
X5977Y10477D01*
X5976Y10473D01*
X5974Y10471D01*
X5973Y10469D01*
X5973Y10469D01*
X5969Y10464D01*
X5965Y10460D01*
X5962Y10456D01*
X5958Y10453D01*
X5955Y10450D01*
X5952Y10448D01*
X5951Y10446D01*
X5950Y10446D01*
X5944Y10442D01*
X5938Y10438D01*
X5932Y10436D01*
X5926Y10433D01*
X5921Y10431D01*
X5917Y10430D01*
X5916Y10429D01*
X5914Y10429D01*
X5914Y10429D01*
X5913D01*
X5905Y10426D01*
X5896Y10425D01*
X5888Y10424D01*
X5880Y10422D01*
X5873Y10422D01*
X5870D01*
X5867Y10422D01*
X5865D01*
X5864D01*
X5863D01*
X5862D01*
X5850Y10422D01*
X5839Y10423D01*
X5829Y10425D01*
X5824Y10426D01*
X5820Y10427D01*
X5816Y10428D01*
X5813Y10429D01*
X5810Y10429D01*
X5807Y10430D01*
X5805Y10431D01*
X5803Y10432D01*
X5803Y10432D01*
X5802D01*
X5793Y10436D01*
X5785Y10441D01*
X5777Y10446D01*
X5771Y10450D01*
X5766Y10455D01*
X5762Y10458D01*
X5761Y10460D01*
X5760Y10461D01*
X5760Y10461D01*
X5759Y10462D01*
X5755Y10468D01*
X5751Y10474D01*
X5748Y10480D01*
X5745Y10486D01*
X5743Y10491D01*
X5742Y10495D01*
X5742Y10496D01*
Y10497D01*
X5741Y10498D01*
Y10499D01*
X5740Y10505D01*
X5739Y10512D01*
X5738Y10519D01*
X5738Y10527D01*
X5738Y10533D01*
Y10630D01*
X5989D01*
Y10539D01*
D02*
G37*
G36*
Y10226D02*
X5960D01*
Y10350D01*
X5953Y10346D01*
X5951Y10343D01*
X5948Y10342D01*
X5946Y10340D01*
X5945Y10338D01*
X5944Y10337D01*
X5943Y10337D01*
X5941Y10335D01*
X5940Y10333D01*
X5935Y10328D01*
X5929Y10322D01*
X5924Y10316D01*
X5919Y10310D01*
X5917Y10307D01*
X5915Y10305D01*
X5913Y10303D01*
X5912Y10302D01*
X5912Y10301D01*
X5911Y10301D01*
X5906Y10295D01*
X5901Y10289D01*
X5897Y10284D01*
X5893Y10279D01*
X5889Y10275D01*
X5885Y10271D01*
X5882Y10268D01*
X5879Y10265D01*
X5876Y10262D01*
X5874Y10260D01*
X5872Y10258D01*
X5870Y10256D01*
X5868Y10254D01*
X5867Y10254D01*
X5861Y10248D01*
X5856Y10244D01*
X5850Y10240D01*
X5846Y10238D01*
X5842Y10235D01*
X5839Y10234D01*
X5837Y10233D01*
X5836Y10233D01*
X5831Y10231D01*
X5825Y10229D01*
X5820Y10228D01*
X5816Y10227D01*
X5812Y10227D01*
X5809Y10226D01*
X5807D01*
X5806D01*
X5801Y10227D01*
X5796Y10227D01*
X5791Y10228D01*
X5786Y10230D01*
X5778Y10233D01*
X5771Y10237D01*
X5767Y10239D01*
X5765Y10241D01*
X5762Y10243D01*
X5760Y10244D01*
X5759Y10246D01*
X5758Y10247D01*
X5757Y10247D01*
X5757Y10248D01*
X5753Y10252D01*
X5750Y10256D01*
X5747Y10261D01*
X5745Y10266D01*
X5742Y10275D01*
X5739Y10285D01*
X5738Y10288D01*
X5738Y10293D01*
X5737Y10296D01*
X5737Y10299D01*
X5736Y10302D01*
Y10305D01*
X5737Y10312D01*
X5737Y10318D01*
X5738Y10324D01*
X5739Y10329D01*
X5741Y10334D01*
X5742Y10339D01*
X5744Y10343D01*
X5746Y10347D01*
X5748Y10351D01*
X5750Y10354D01*
X5751Y10357D01*
X5752Y10359D01*
X5754Y10361D01*
X5755Y10362D01*
X5755Y10362D01*
X5755Y10363D01*
X5759Y10366D01*
X5763Y10370D01*
X5767Y10373D01*
X5772Y10375D01*
X5781Y10380D01*
X5789Y10383D01*
X5793Y10384D01*
X5797Y10385D01*
X5801Y10386D01*
X5803Y10386D01*
X5806Y10387D01*
X5808D01*
X5809Y10387D01*
X5809D01*
X5813Y10355D01*
X5804Y10355D01*
X5797Y10353D01*
X5790Y10351D01*
X5785Y10349D01*
X5781Y10346D01*
X5778Y10344D01*
X5776Y10343D01*
X5775Y10342D01*
X5771Y10337D01*
X5768Y10331D01*
X5765Y10325D01*
X5764Y10319D01*
X5763Y10314D01*
X5762Y10310D01*
X5762Y10308D01*
Y10306D01*
X5762Y10298D01*
X5764Y10291D01*
X5766Y10286D01*
X5768Y10280D01*
X5771Y10276D01*
X5773Y10274D01*
X5774Y10272D01*
X5775Y10271D01*
X5780Y10267D01*
X5785Y10264D01*
X5790Y10261D01*
X5795Y10260D01*
X5799Y10259D01*
X5803Y10258D01*
X5805Y10258D01*
X5805D01*
X5806D01*
X5812Y10259D01*
X5819Y10260D01*
X5825Y10263D01*
X5831Y10265D01*
X5836Y10268D01*
X5840Y10271D01*
X5841Y10271D01*
X5842Y10272D01*
X5843Y10273D01*
X5843D01*
X5847Y10276D01*
X5851Y10279D01*
X5856Y10283D01*
X5860Y10288D01*
X5869Y10297D01*
X5877Y10306D01*
X5881Y10311D01*
X5885Y10315D01*
X5888Y10319D01*
X5891Y10322D01*
X5893Y10325D01*
X5895Y10327D01*
X5896Y10328D01*
X5897Y10329D01*
X5904Y10338D01*
X5912Y10346D01*
X5918Y10353D01*
X5924Y10358D01*
X5928Y10363D01*
X5932Y10366D01*
X5934Y10368D01*
X5934Y10369D01*
X5934D01*
X5941Y10374D01*
X5946Y10378D01*
X5952Y10382D01*
X5957Y10385D01*
X5962Y10387D01*
X5965Y10388D01*
X5967Y10389D01*
X5968Y10389D01*
X5968D01*
X5972Y10391D01*
X5976Y10392D01*
X5979Y10392D01*
X5983Y10393D01*
X5985Y10393D01*
X5988D01*
X5989D01*
X5989D01*
Y10226D01*
D02*
G37*
G36*
X10869Y10539D02*
X10869Y10531D01*
X10869Y10523D01*
X10868Y10516D01*
X10867Y10511D01*
X10866Y10505D01*
X10866Y10502D01*
X10866Y10501D01*
X10865Y10500D01*
Y10499D01*
X10864Y10492D01*
X10861Y10487D01*
X10860Y10481D01*
X10857Y10477D01*
X10856Y10473D01*
X10854Y10471D01*
X10853Y10469D01*
X10853Y10469D01*
X10849Y10464D01*
X10845Y10460D01*
X10842Y10456D01*
X10838Y10453D01*
X10835Y10450D01*
X10832Y10448D01*
X10830Y10446D01*
X10830Y10446D01*
X10824Y10442D01*
X10818Y10438D01*
X10812Y10436D01*
X10806Y10433D01*
X10801Y10431D01*
X10797Y10430D01*
X10796Y10429D01*
X10794Y10429D01*
X10794Y10429D01*
X10793D01*
X10785Y10426D01*
X10776Y10425D01*
X10767Y10424D01*
X10759Y10422D01*
X10753Y10422D01*
X10750D01*
X10747Y10422D01*
X10745D01*
X10743D01*
X10743D01*
X10742D01*
X10730Y10422D01*
X10719Y10423D01*
X10709Y10425D01*
X10704Y10426D01*
X10700Y10427D01*
X10696Y10428D01*
X10692Y10429D01*
X10690Y10429D01*
X10687Y10430D01*
X10685Y10431D01*
X10683Y10432D01*
X10683Y10432D01*
X10682D01*
X10673Y10436D01*
X10664Y10441D01*
X10657Y10446D01*
X10651Y10450D01*
X10646Y10455D01*
X10642Y10458D01*
X10641Y10460D01*
X10640Y10461D01*
X10640Y10461D01*
X10639Y10462D01*
X10635Y10468D01*
X10631Y10474D01*
X10628Y10480D01*
X10625Y10486D01*
X10623Y10491D01*
X10622Y10495D01*
X10622Y10496D01*
Y10497D01*
X10621Y10498D01*
Y10499D01*
X10620Y10505D01*
X10619Y10512D01*
X10618Y10519D01*
X10618Y10527D01*
X10618Y10533D01*
Y10630D01*
X10869D01*
Y10539D01*
D02*
G37*
G36*
X10651Y10263D02*
X10661Y10272D01*
X10672Y10280D01*
X10683Y10287D01*
X10694Y10294D01*
X10699Y10297D01*
X10703Y10300D01*
X10707Y10302D01*
X10710Y10304D01*
X10713Y10306D01*
X10715Y10307D01*
X10717Y10307D01*
X10717Y10308D01*
X10731Y10315D01*
X10746Y10322D01*
X10760Y10327D01*
X10766Y10329D01*
X10772Y10331D01*
X10778Y10334D01*
X10783Y10335D01*
X10787Y10337D01*
X10791Y10338D01*
X10794Y10339D01*
X10796Y10339D01*
X10798Y10340D01*
X10798D01*
X10813Y10343D01*
X10820Y10345D01*
X10827Y10346D01*
X10833Y10347D01*
X10839Y10348D01*
X10844Y10349D01*
X10849Y10350D01*
X10854Y10350D01*
X10858Y10350D01*
X10861Y10351D01*
X10864D01*
X10866Y10351D01*
X10868D01*
X10869D01*
X10869D01*
Y10319D01*
X10856Y10318D01*
X10843Y10317D01*
X10831Y10315D01*
X10826Y10314D01*
X10821Y10313D01*
X10816Y10312D01*
X10812Y10311D01*
X10809Y10310D01*
X10806Y10309D01*
X10804Y10309D01*
X10802Y10308D01*
X10801Y10308D01*
X10800D01*
X10783Y10302D01*
X10768Y10297D01*
X10760Y10294D01*
X10753Y10291D01*
X10746Y10287D01*
X10740Y10285D01*
X10734Y10282D01*
X10729Y10279D01*
X10725Y10277D01*
X10721Y10275D01*
X10717Y10274D01*
X10715Y10272D01*
X10714Y10272D01*
X10713Y10271D01*
X10706Y10267D01*
X10698Y10263D01*
X10691Y10258D01*
X10684Y10254D01*
X10679Y10250D01*
X10673Y10246D01*
X10668Y10242D01*
X10663Y10239D01*
X10659Y10235D01*
X10655Y10232D01*
X10652Y10230D01*
X10650Y10227D01*
X10648Y10226D01*
X10646Y10224D01*
X10646Y10224D01*
X10645Y10223D01*
X10621D01*
Y10386D01*
X10651D01*
Y10263D01*
D02*
G37*
G36*
X15491Y10539D02*
X15491Y10531D01*
X15490Y10523D01*
X15490Y10516D01*
X15489Y10511D01*
X15488Y10505D01*
X15488Y10502D01*
X15487Y10501D01*
X15487Y10500D01*
Y10499D01*
X15485Y10492D01*
X15483Y10487D01*
X15481Y10481D01*
X15479Y10477D01*
X15477Y10473D01*
X15476Y10471D01*
X15475Y10469D01*
X15474Y10469D01*
X15471Y10464D01*
X15467Y10460D01*
X15463Y10456D01*
X15460Y10453D01*
X15456Y10450D01*
X15454Y10448D01*
X15452Y10446D01*
X15451Y10446D01*
X15446Y10442D01*
X15439Y10438D01*
X15434Y10436D01*
X15428Y10433D01*
X15423Y10431D01*
X15419Y10430D01*
X15417Y10429D01*
X15416Y10429D01*
X15415Y10429D01*
X15415D01*
X15406Y10426D01*
X15397Y10425D01*
X15389Y10424D01*
X15381Y10422D01*
X15374Y10422D01*
X15371D01*
X15369Y10422D01*
X15367D01*
X15365D01*
X15364D01*
X15364D01*
X15352Y10422D01*
X15340Y10423D01*
X15330Y10425D01*
X15325Y10426D01*
X15321Y10427D01*
X15317Y10428D01*
X15314Y10429D01*
X15311Y10429D01*
X15309Y10430D01*
X15306Y10431D01*
X15305Y10432D01*
X15304Y10432D01*
X15304D01*
X15294Y10436D01*
X15286Y10441D01*
X15279Y10446D01*
X15273Y10450D01*
X15268Y10455D01*
X15264Y10458D01*
X15263Y10460D01*
X15262Y10461D01*
X15261Y10461D01*
X15261Y10462D01*
X15256Y10468D01*
X15253Y10474D01*
X15249Y10480D01*
X15247Y10486D01*
X15245Y10491D01*
X15244Y10495D01*
X15243Y10496D01*
Y10497D01*
X15243Y10498D01*
Y10499D01*
X15242Y10505D01*
X15241Y10512D01*
X15240Y10519D01*
X15240Y10527D01*
X15239Y10533D01*
Y10630D01*
X15491D01*
Y10539D01*
D02*
G37*
G36*
X15424Y10389D02*
X15430Y10388D01*
X15436Y10387D01*
X15441Y10385D01*
X15450Y10382D01*
X15455Y10380D01*
X15458Y10378D01*
X15462Y10375D01*
X15465Y10374D01*
X15467Y10371D01*
X15470Y10370D01*
X15471Y10369D01*
X15472Y10367D01*
X15473Y10367D01*
X15474Y10366D01*
X15478Y10362D01*
X15481Y10357D01*
X15484Y10352D01*
X15486Y10347D01*
X15488Y10342D01*
X15490Y10337D01*
X15492Y10327D01*
X15494Y10323D01*
X15494Y10319D01*
X15495Y10315D01*
X15495Y10312D01*
X15495Y10310D01*
Y10306D01*
X15495Y10299D01*
X15494Y10293D01*
X15493Y10287D01*
X15492Y10281D01*
X15490Y10276D01*
X15488Y10271D01*
X15487Y10266D01*
X15484Y10262D01*
X15482Y10258D01*
X15480Y10255D01*
X15479Y10252D01*
X15477Y10250D01*
X15476Y10248D01*
X15475Y10247D01*
X15474Y10246D01*
X15474Y10246D01*
X15469Y10242D01*
X15465Y10238D01*
X15460Y10235D01*
X15456Y10233D01*
X15451Y10230D01*
X15447Y10228D01*
X15438Y10226D01*
X15434Y10225D01*
X15431Y10224D01*
X15427Y10224D01*
X15425Y10223D01*
X15423Y10223D01*
X15421D01*
X15420D01*
X15419D01*
X15411Y10223D01*
X15403Y10225D01*
X15396Y10227D01*
X15391Y10229D01*
X15386Y10231D01*
X15382Y10234D01*
X15380Y10235D01*
X15380Y10235D01*
X15379D01*
X15373Y10240D01*
X15368Y10246D01*
X15364Y10252D01*
X15361Y10257D01*
X15358Y10262D01*
X15356Y10267D01*
X15356Y10268D01*
X15355Y10269D01*
X15355Y10270D01*
Y10270D01*
X15352Y10264D01*
X15349Y10258D01*
X15345Y10254D01*
X15342Y10250D01*
X15339Y10247D01*
X15337Y10244D01*
X15336Y10243D01*
X15335Y10243D01*
X15330Y10239D01*
X15325Y10237D01*
X15320Y10235D01*
X15315Y10234D01*
X15310Y10234D01*
X15307Y10233D01*
X15305D01*
X15305D01*
X15304D01*
X15299Y10234D01*
X15294Y10234D01*
X15285Y10236D01*
X15277Y10240D01*
X15270Y10243D01*
X15265Y10247D01*
X15263Y10249D01*
X15261Y10250D01*
X15259Y10252D01*
X15258Y10253D01*
X15258Y10253D01*
X15257Y10254D01*
X15254Y10258D01*
X15251Y10262D01*
X15248Y10266D01*
X15246Y10270D01*
X15243Y10279D01*
X15241Y10288D01*
X15240Y10291D01*
X15239Y10295D01*
X15239Y10298D01*
X15238Y10301D01*
X15238Y10303D01*
Y10307D01*
X15238Y10313D01*
X15239Y10318D01*
X15241Y10329D01*
X15242Y10333D01*
X15244Y10338D01*
X15246Y10342D01*
X15248Y10345D01*
X15249Y10348D01*
X15251Y10351D01*
X15253Y10354D01*
X15254Y10355D01*
X15255Y10357D01*
X15256Y10358D01*
X15257Y10359D01*
X15257Y10359D01*
X15261Y10362D01*
X15264Y10366D01*
X15268Y10368D01*
X15272Y10370D01*
X15280Y10374D01*
X15287Y10376D01*
X15293Y10378D01*
X15296Y10378D01*
X15298Y10378D01*
X15301Y10379D01*
X15302D01*
X15303D01*
X15303D01*
X15310Y10378D01*
X15316Y10377D01*
X15321Y10376D01*
X15326Y10374D01*
X15330Y10373D01*
X15333Y10371D01*
X15334Y10370D01*
X15335Y10370D01*
X15339Y10366D01*
X15343Y10361D01*
X15347Y10357D01*
X15350Y10352D01*
X15352Y10347D01*
X15353Y10344D01*
X15354Y10343D01*
X15355Y10342D01*
X15355Y10341D01*
Y10341D01*
X15357Y10349D01*
X15361Y10356D01*
X15365Y10362D01*
X15368Y10367D01*
X15372Y10371D01*
X15375Y10374D01*
X15377Y10376D01*
X15377Y10377D01*
X15377D01*
X15384Y10381D01*
X15391Y10384D01*
X15397Y10386D01*
X15404Y10388D01*
X15410Y10388D01*
X15412Y10389D01*
X15415D01*
X15416Y10389D01*
X15418D01*
X15418D01*
X15419D01*
X15424Y10389D01*
D02*
G37*
G36*
X17828Y18352D02*
X17834Y18351D01*
X17840Y18350D01*
X17846Y18349D01*
X17851Y18347D01*
X17856Y18345D01*
X17860Y18343D01*
X17864Y18341D01*
X17868Y18339D01*
X17871Y18337D01*
X17874Y18335D01*
X17876Y18333D01*
X17878Y18332D01*
X17879Y18331D01*
X17880Y18330D01*
X17880Y18330D01*
X17884Y18325D01*
X17888Y18321D01*
X17891Y18316D01*
X17893Y18311D01*
X17896Y18307D01*
X17898Y18302D01*
X17900Y18293D01*
X17901Y18289D01*
X17902Y18285D01*
X17903Y18282D01*
X17903Y18279D01*
X17903Y18277D01*
Y18269D01*
X17903Y18265D01*
X17901Y18256D01*
X17898Y18248D01*
X17895Y18241D01*
X17892Y18235D01*
X17891Y18232D01*
X17890Y18230D01*
X17889Y18228D01*
X17888Y18227D01*
X17888Y18226D01*
X17887Y18226D01*
X17955Y18240D01*
Y18340D01*
X17985D01*
Y18215D01*
X17855Y18191D01*
X17851Y18220D01*
X17855Y18223D01*
X17859Y18226D01*
X17862Y18229D01*
X17864Y18232D01*
X17866Y18235D01*
X17868Y18237D01*
X17869Y18238D01*
X17869Y18239D01*
X17871Y18243D01*
X17873Y18248D01*
X17874Y18252D01*
X17875Y18257D01*
X17876Y18260D01*
X17876Y18263D01*
Y18270D01*
X17875Y18275D01*
X17873Y18282D01*
X17871Y18289D01*
X17868Y18295D01*
X17865Y18299D01*
X17863Y18302D01*
X17861Y18304D01*
X17861Y18305D01*
X17860D01*
X17854Y18310D01*
X17848Y18313D01*
X17841Y18316D01*
X17834Y18318D01*
X17828Y18319D01*
X17825Y18319D01*
X17823D01*
X17821Y18320D01*
X17820D01*
X17819D01*
X17819D01*
X17814D01*
X17809Y18319D01*
X17800Y18317D01*
X17792Y18315D01*
X17786Y18312D01*
X17781Y18309D01*
X17777Y18307D01*
X17776Y18305D01*
X17775Y18305D01*
X17774Y18304D01*
X17774Y18304D01*
X17771Y18301D01*
X17769Y18298D01*
X17764Y18292D01*
X17761Y18285D01*
X17759Y18279D01*
X17758Y18274D01*
X17758Y18270D01*
X17757Y18268D01*
Y18266D01*
X17758Y18259D01*
X17759Y18253D01*
X17761Y18248D01*
X17763Y18243D01*
X17765Y18239D01*
X17767Y18236D01*
X17769Y18235D01*
X17769Y18234D01*
X17774Y18230D01*
X17780Y18226D01*
X17786Y18223D01*
X17791Y18221D01*
X17797Y18220D01*
X17801Y18218D01*
X17802Y18218D01*
X17804Y18218D01*
X17804D01*
X17805D01*
X17802Y18185D01*
X17796Y18186D01*
X17791Y18187D01*
X17781Y18190D01*
X17772Y18194D01*
X17768Y18197D01*
X17765Y18199D01*
X17761Y18201D01*
X17758Y18203D01*
X17756Y18205D01*
X17754Y18206D01*
X17753Y18208D01*
X17751Y18209D01*
X17751Y18209D01*
X17751Y18210D01*
X17747Y18214D01*
X17745Y18218D01*
X17742Y18223D01*
X17740Y18228D01*
X17737Y18237D01*
X17734Y18246D01*
X17733Y18250D01*
X17733Y18254D01*
X17733Y18257D01*
X17732Y18260D01*
X17732Y18263D01*
Y18266D01*
X17732Y18274D01*
X17733Y18281D01*
X17735Y18288D01*
X17737Y18294D01*
X17739Y18300D01*
X17742Y18305D01*
X17744Y18311D01*
X17747Y18315D01*
X17750Y18319D01*
X17753Y18323D01*
X17755Y18326D01*
X17758Y18328D01*
X17759Y18330D01*
X17761Y18331D01*
X17762Y18332D01*
X17762Y18332D01*
X17767Y18336D01*
X17772Y18339D01*
X17777Y18342D01*
X17782Y18344D01*
X17792Y18348D01*
X17801Y18350D01*
X17805Y18351D01*
X17809Y18351D01*
X17813Y18352D01*
X17816Y18352D01*
X17818Y18352D01*
X17820D01*
X17821D01*
X17821D01*
X17828Y18352D01*
D02*
G37*
G36*
X17989Y18086D02*
X17983Y18082D01*
X17977Y18078D01*
X17971Y18074D01*
X17966Y18069D01*
X17962Y18065D01*
X17958Y18062D01*
X17957Y18060D01*
X17956Y18059D01*
X17956Y18059D01*
X17955Y18058D01*
X17949Y18051D01*
X17943Y18043D01*
X17938Y18036D01*
X17934Y18028D01*
X17931Y18022D01*
X17929Y18020D01*
X17928Y18018D01*
X17927Y18016D01*
X17927Y18014D01*
X17926Y18014D01*
Y18013D01*
X17896D01*
X17898Y18019D01*
X17901Y18024D01*
X17903Y18030D01*
X17906Y18035D01*
X17908Y18039D01*
X17910Y18043D01*
X17911Y18045D01*
X17912Y18045D01*
Y18046D01*
X17916Y18052D01*
X17920Y18058D01*
X17923Y18063D01*
X17927Y18067D01*
X17929Y18071D01*
X17931Y18073D01*
X17933Y18075D01*
X17933Y18075D01*
X17736D01*
Y18106D01*
X17989D01*
Y18086D01*
D02*
G37*
G36*
X17743Y17955D02*
X17746Y17947D01*
X17750Y17940D01*
X17754Y17933D01*
X17757Y17928D01*
X17759Y17925D01*
X17760Y17924D01*
X17761Y17922D01*
X17762Y17921D01*
X17763Y17920D01*
Y17920D01*
X17770Y17926D01*
X17777Y17932D01*
X17785Y17937D01*
X17792Y17941D01*
X17797Y17944D01*
X17800Y17945D01*
X17802Y17946D01*
X17804Y17947D01*
X17805Y17948D01*
X17806Y17948D01*
X17806D01*
X17816Y17951D01*
X17825Y17954D01*
X17835Y17955D01*
X17844Y17956D01*
X17847Y17957D01*
X17851Y17957D01*
X17854D01*
X17857Y17958D01*
X17859D01*
X17861D01*
X17862D01*
X17862D01*
X17876Y17957D01*
X17888Y17955D01*
X17894Y17954D01*
X17900Y17953D01*
X17905Y17951D01*
X17909Y17950D01*
X17914Y17949D01*
X17918Y17947D01*
X17921Y17946D01*
X17924Y17945D01*
X17926Y17944D01*
X17928Y17943D01*
X17929Y17943D01*
X17929D01*
X17940Y17937D01*
X17949Y17930D01*
X17957Y17923D01*
X17964Y17916D01*
X17969Y17910D01*
X17971Y17907D01*
X17973Y17905D01*
X17974Y17903D01*
X17975Y17901D01*
X17975Y17900D01*
X17976Y17900D01*
X17979Y17895D01*
X17981Y17889D01*
X17986Y17879D01*
X17988Y17868D01*
X17990Y17858D01*
X17991Y17854D01*
X17992Y17849D01*
X17992Y17846D01*
Y17843D01*
X17992Y17840D01*
Y17830D01*
X17992Y17824D01*
X17990Y17813D01*
X17987Y17802D01*
X17986Y17797D01*
X17984Y17793D01*
X17983Y17789D01*
X17982Y17785D01*
X17980Y17782D01*
X17979Y17780D01*
X17978Y17777D01*
X17977Y17776D01*
X17977Y17775D01*
X17976Y17774D01*
X17970Y17765D01*
X17962Y17756D01*
X17955Y17749D01*
X17947Y17743D01*
X17940Y17738D01*
X17937Y17736D01*
X17935Y17734D01*
X17933Y17733D01*
X17931Y17732D01*
X17930Y17732D01*
X17930Y17731D01*
X17918Y17726D01*
X17906Y17723D01*
X17895Y17720D01*
X17884Y17718D01*
X17880Y17718D01*
X17875Y17717D01*
X17871Y17717D01*
X17868D01*
X17865Y17717D01*
X17864D01*
X17862D01*
X17862D01*
X17848Y17717D01*
X17836Y17719D01*
X17829Y17720D01*
X17824Y17721D01*
X17819Y17723D01*
X17814Y17724D01*
X17810Y17725D01*
X17806Y17727D01*
X17802Y17728D01*
X17800Y17729D01*
X17797Y17730D01*
X17796Y17731D01*
X17795Y17731D01*
X17794D01*
X17784Y17738D01*
X17775Y17745D01*
X17767Y17751D01*
X17760Y17758D01*
X17755Y17765D01*
X17753Y17767D01*
X17751Y17770D01*
X17750Y17772D01*
X17749Y17773D01*
X17749Y17774D01*
X17748Y17774D01*
X17745Y17780D01*
X17743Y17785D01*
X17739Y17796D01*
X17736Y17806D01*
X17734Y17816D01*
X17733Y17820D01*
X17733Y17824D01*
X17732Y17828D01*
Y17830D01*
X17732Y17833D01*
Y17836D01*
X17732Y17842D01*
X17733Y17849D01*
X17734Y17860D01*
X17737Y17871D01*
X17738Y17876D01*
X17740Y17880D01*
X17741Y17884D01*
X17742Y17888D01*
X17744Y17891D01*
X17745Y17893D01*
X17746Y17895D01*
X17747Y17897D01*
X17747Y17898D01*
Y17898D01*
X17740Y17908D01*
X17734Y17918D01*
X17729Y17927D01*
X17724Y17935D01*
X17722Y17939D01*
X17721Y17942D01*
X17719Y17945D01*
X17718Y17948D01*
X17718Y17950D01*
X17717Y17951D01*
X17717Y17952D01*
Y17952D01*
X17739Y17962D01*
X17743Y17955D01*
D02*
G37*
G36*
X29763Y10539D02*
X29762Y10531D01*
X29762Y10523D01*
X29761Y10516D01*
X29760Y10511D01*
X29760Y10505D01*
X29759Y10502D01*
X29759Y10501D01*
X29759Y10500D01*
Y10499D01*
X29757Y10492D01*
X29755Y10487D01*
X29753Y10481D01*
X29751Y10477D01*
X29749Y10473D01*
X29747Y10471D01*
X29746Y10469D01*
X29746Y10469D01*
X29743Y10464D01*
X29739Y10460D01*
X29735Y10456D01*
X29731Y10453D01*
X29728Y10450D01*
X29726Y10448D01*
X29724Y10446D01*
X29723Y10446D01*
X29717Y10442D01*
X29711Y10438D01*
X29705Y10436D01*
X29699Y10433D01*
X29694Y10431D01*
X29690Y10430D01*
X29689Y10429D01*
X29688Y10429D01*
X29687Y10429D01*
X29687D01*
X29678Y10426D01*
X29669Y10425D01*
X29661Y10424D01*
X29653Y10422D01*
X29646Y10422D01*
X29643D01*
X29640Y10422D01*
X29639D01*
X29637D01*
X29636D01*
X29636D01*
X29623Y10422D01*
X29612Y10423D01*
X29602Y10425D01*
X29597Y10426D01*
X29593Y10427D01*
X29589Y10428D01*
X29586Y10429D01*
X29583Y10429D01*
X29580Y10430D01*
X29578Y10431D01*
X29577Y10432D01*
X29576Y10432D01*
X29576D01*
X29566Y10436D01*
X29558Y10441D01*
X29550Y10446D01*
X29544Y10450D01*
X29539Y10455D01*
X29536Y10458D01*
X29534Y10460D01*
X29533Y10461D01*
X29533Y10461D01*
X29533Y10462D01*
X29528Y10468D01*
X29524Y10474D01*
X29521Y10480D01*
X29518Y10486D01*
X29517Y10491D01*
X29516Y10495D01*
X29515Y10496D01*
Y10497D01*
X29514Y10498D01*
Y10499D01*
X29513Y10505D01*
X29512Y10512D01*
X29511Y10519D01*
X29511Y10527D01*
X29511Y10533D01*
Y10630D01*
X29763D01*
Y10539D01*
D02*
G37*
G36*
X29602Y10388D02*
X29608Y10388D01*
X29614Y10387D01*
X29620Y10385D01*
X29625Y10384D01*
X29630Y10382D01*
X29635Y10380D01*
X29639Y10378D01*
X29642Y10376D01*
X29645Y10374D01*
X29648Y10372D01*
X29651Y10370D01*
X29652Y10369D01*
X29653Y10368D01*
X29654Y10367D01*
X29655Y10367D01*
X29659Y10363D01*
X29662Y10359D01*
X29665Y10354D01*
X29668Y10350D01*
X29670Y10345D01*
X29672Y10341D01*
X29674Y10333D01*
X29675Y10329D01*
X29676Y10325D01*
X29676Y10322D01*
X29677Y10319D01*
X29677Y10317D01*
Y10314D01*
X29677Y10307D01*
X29676Y10301D01*
X29674Y10295D01*
X29672Y10290D01*
X29671Y10286D01*
X29669Y10282D01*
X29668Y10280D01*
X29668Y10279D01*
X29664Y10274D01*
X29660Y10268D01*
X29656Y10264D01*
X29653Y10260D01*
X29649Y10258D01*
X29647Y10256D01*
X29645Y10254D01*
X29644Y10254D01*
X29647D01*
X29649D01*
X29650D01*
X29650D01*
X29657Y10254D01*
X29664Y10255D01*
X29671Y10255D01*
X29676Y10256D01*
X29681Y10257D01*
X29685Y10258D01*
X29686Y10258D01*
X29687D01*
X29688Y10259D01*
X29688D01*
X29695Y10260D01*
X29700Y10262D01*
X29706Y10264D01*
X29710Y10266D01*
X29713Y10267D01*
X29716Y10269D01*
X29718Y10270D01*
X29718Y10270D01*
X29722Y10273D01*
X29725Y10276D01*
X29728Y10279D01*
X29731Y10282D01*
X29733Y10284D01*
X29734Y10286D01*
X29735Y10287D01*
X29735Y10288D01*
X29738Y10292D01*
X29739Y10296D01*
X29740Y10300D01*
X29741Y10304D01*
X29741Y10307D01*
X29742Y10310D01*
Y10313D01*
X29741Y10318D01*
X29740Y10324D01*
X29739Y10329D01*
X29737Y10333D01*
X29735Y10335D01*
X29734Y10338D01*
X29733Y10339D01*
X29732Y10340D01*
X29728Y10343D01*
X29724Y10346D01*
X29719Y10349D01*
X29714Y10351D01*
X29709Y10352D01*
X29705Y10353D01*
X29704Y10354D01*
X29703D01*
X29702Y10354D01*
X29702D01*
X29704Y10384D01*
X29715Y10382D01*
X29724Y10379D01*
X29732Y10375D01*
X29739Y10371D01*
X29744Y10368D01*
X29746Y10366D01*
X29748Y10365D01*
X29749Y10363D01*
X29750Y10362D01*
X29750Y10362D01*
X29751Y10362D01*
X29754Y10358D01*
X29756Y10354D01*
X29760Y10346D01*
X29763Y10338D01*
X29765Y10330D01*
X29766Y10323D01*
X29767Y10321D01*
Y10318D01*
X29767Y10316D01*
Y10313D01*
X29766Y10303D01*
X29765Y10294D01*
X29762Y10286D01*
X29759Y10279D01*
X29758Y10276D01*
X29757Y10273D01*
X29755Y10271D01*
X29754Y10268D01*
X29754Y10267D01*
X29753Y10266D01*
X29752Y10265D01*
Y10265D01*
X29746Y10258D01*
X29739Y10251D01*
X29732Y10246D01*
X29725Y10242D01*
X29719Y10238D01*
X29716Y10236D01*
X29714Y10235D01*
X29711Y10235D01*
X29710Y10234D01*
X29709Y10234D01*
X29709D01*
X29703Y10232D01*
X29697Y10230D01*
X29685Y10227D01*
X29672Y10226D01*
X29659Y10224D01*
X29654Y10224D01*
X29648Y10223D01*
X29644D01*
X29640Y10223D01*
X29636D01*
X29634D01*
X29632D01*
X29632D01*
X29623D01*
X29615Y10223D01*
X29608Y10224D01*
X29601Y10225D01*
X29595Y10226D01*
X29589Y10226D01*
X29584Y10227D01*
X29579Y10228D01*
X29575Y10230D01*
X29571Y10230D01*
X29568Y10231D01*
X29565Y10232D01*
X29564Y10233D01*
X29562Y10234D01*
X29561Y10234D01*
X29561D01*
X29552Y10238D01*
X29545Y10243D01*
X29538Y10248D01*
X29533Y10253D01*
X29529Y10258D01*
X29526Y10262D01*
X29525Y10263D01*
X29524Y10264D01*
X29523Y10264D01*
Y10265D01*
X29519Y10272D01*
X29516Y10280D01*
X29513Y10288D01*
X29511Y10295D01*
X29510Y10301D01*
X29510Y10303D01*
Y10305D01*
X29510Y10307D01*
Y10310D01*
X29510Y10316D01*
X29511Y10322D01*
X29512Y10327D01*
X29513Y10333D01*
X29517Y10342D01*
X29519Y10347D01*
X29521Y10350D01*
X29524Y10354D01*
X29526Y10357D01*
X29528Y10360D01*
X29530Y10362D01*
X29531Y10364D01*
X29532Y10365D01*
X29533Y10366D01*
X29533Y10366D01*
X29538Y10370D01*
X29543Y10373D01*
X29548Y10377D01*
X29553Y10379D01*
X29558Y10381D01*
X29563Y10383D01*
X29573Y10386D01*
X29577Y10387D01*
X29581Y10388D01*
X29585Y10388D01*
X29589Y10388D01*
X29591Y10389D01*
X29593D01*
X29594D01*
X29595D01*
X29602Y10388D01*
D02*
G37*
G36*
X31763Y38280D02*
X31762Y38271D01*
X31762Y38264D01*
X31761Y38257D01*
X31761Y38251D01*
X31760Y38246D01*
X31759Y38242D01*
X31759Y38241D01*
X31759Y38240D01*
Y38239D01*
X31757Y38233D01*
X31755Y38227D01*
X31753Y38222D01*
X31751Y38217D01*
X31749Y38214D01*
X31747Y38211D01*
X31746Y38210D01*
X31746Y38209D01*
X31743Y38204D01*
X31739Y38200D01*
X31735Y38196D01*
X31731Y38193D01*
X31728Y38190D01*
X31726Y38188D01*
X31724Y38186D01*
X31723Y38186D01*
X31717Y38182D01*
X31711Y38179D01*
X31705Y38176D01*
X31699Y38174D01*
X31694Y38172D01*
X31690Y38170D01*
X31689Y38170D01*
X31688Y38169D01*
X31687Y38169D01*
X31687D01*
X31678Y38167D01*
X31669Y38165D01*
X31661Y38164D01*
X31653Y38163D01*
X31646Y38162D01*
X31643D01*
X31640Y38162D01*
X31639D01*
X31637D01*
X31636D01*
X31636D01*
X31623Y38162D01*
X31612Y38164D01*
X31602Y38165D01*
X31597Y38166D01*
X31593Y38167D01*
X31589Y38168D01*
X31586Y38169D01*
X31583Y38170D01*
X31580Y38171D01*
X31578Y38171D01*
X31577Y38172D01*
X31576Y38172D01*
X31576D01*
X31566Y38176D01*
X31558Y38181D01*
X31551Y38186D01*
X31544Y38191D01*
X31539Y38195D01*
X31536Y38199D01*
X31535Y38200D01*
X31533Y38201D01*
X31533Y38202D01*
X31533Y38202D01*
X31528Y38208D01*
X31524Y38214D01*
X31521Y38220D01*
X31519Y38226D01*
X31517Y38231D01*
X31516Y38235D01*
X31515Y38237D01*
Y38238D01*
X31515Y38239D01*
Y38239D01*
X31513Y38245D01*
X31512Y38252D01*
X31512Y38260D01*
X31511Y38267D01*
X31511Y38273D01*
Y38370D01*
X31763D01*
Y38280D01*
D02*
G37*
G36*
Y37966D02*
X31733D01*
Y38090D01*
X31727Y38086D01*
X31724Y38084D01*
X31722Y38082D01*
X31719Y38080D01*
X31718Y38079D01*
X31717Y38078D01*
X31717Y38077D01*
X31715Y38075D01*
X31713Y38073D01*
X31708Y38068D01*
X31703Y38062D01*
X31697Y38056D01*
X31693Y38050D01*
X31690Y38048D01*
X31688Y38046D01*
X31687Y38044D01*
X31686Y38042D01*
X31685Y38042D01*
X31685Y38041D01*
X31679Y38035D01*
X31675Y38030D01*
X31670Y38025D01*
X31666Y38020D01*
X31662Y38015D01*
X31658Y38012D01*
X31655Y38008D01*
X31652Y38005D01*
X31649Y38002D01*
X31647Y38000D01*
X31645Y37998D01*
X31643Y37996D01*
X31641Y37995D01*
X31640Y37994D01*
X31634Y37989D01*
X31629Y37984D01*
X31623Y37981D01*
X31619Y37978D01*
X31615Y37976D01*
X31612Y37974D01*
X31610Y37974D01*
X31610Y37973D01*
X31604Y37971D01*
X31599Y37970D01*
X31593Y37968D01*
X31589Y37967D01*
X31585Y37967D01*
X31582Y37967D01*
X31580D01*
X31580D01*
X31574Y37967D01*
X31569Y37968D01*
X31564Y37968D01*
X31560Y37970D01*
X31551Y37974D01*
X31544Y37977D01*
X31541Y37979D01*
X31538Y37981D01*
X31536Y37983D01*
X31534Y37985D01*
X31532Y37986D01*
X31531Y37987D01*
X31531Y37988D01*
X31530Y37988D01*
X31527Y37992D01*
X31523Y37996D01*
X31521Y38001D01*
X31519Y38006D01*
X31515Y38015D01*
X31512Y38025D01*
X31512Y38029D01*
X31511Y38033D01*
X31511Y38037D01*
X31510Y38039D01*
X31510Y38042D01*
Y38046D01*
X31510Y38052D01*
X31511Y38058D01*
X31512Y38064D01*
X31513Y38070D01*
X31514Y38075D01*
X31516Y38079D01*
X31517Y38084D01*
X31519Y38088D01*
X31521Y38091D01*
X31523Y38094D01*
X31524Y38097D01*
X31526Y38099D01*
X31527Y38101D01*
X31528Y38102D01*
X31528Y38103D01*
X31529Y38103D01*
X31532Y38107D01*
X31536Y38110D01*
X31541Y38113D01*
X31545Y38116D01*
X31554Y38120D01*
X31563Y38123D01*
X31567Y38124D01*
X31571Y38125D01*
X31574Y38126D01*
X31577Y38127D01*
X31579Y38127D01*
X31581D01*
X31582Y38128D01*
X31583D01*
X31586Y38096D01*
X31577Y38095D01*
X31570Y38094D01*
X31564Y38091D01*
X31559Y38089D01*
X31554Y38087D01*
X31551Y38085D01*
X31549Y38083D01*
X31549Y38082D01*
X31544Y38077D01*
X31541Y38071D01*
X31539Y38065D01*
X31537Y38059D01*
X31536Y38054D01*
X31536Y38050D01*
X31535Y38049D01*
Y38046D01*
X31536Y38039D01*
X31537Y38032D01*
X31539Y38026D01*
X31541Y38021D01*
X31544Y38017D01*
X31546Y38014D01*
X31547Y38012D01*
X31548Y38012D01*
X31553Y38007D01*
X31558Y38004D01*
X31563Y38002D01*
X31568Y38000D01*
X31572Y37999D01*
X31576Y37999D01*
X31578Y37998D01*
X31579D01*
X31579D01*
X31586Y37999D01*
X31592Y38000D01*
X31599Y38003D01*
X31604Y38006D01*
X31609Y38008D01*
X31613Y38011D01*
X31615Y38012D01*
X31616Y38012D01*
X31616Y38013D01*
X31616D01*
X31620Y38016D01*
X31624Y38020D01*
X31629Y38024D01*
X31633Y38028D01*
X31642Y38037D01*
X31651Y38046D01*
X31655Y38051D01*
X31658Y38055D01*
X31662Y38059D01*
X31664Y38062D01*
X31667Y38065D01*
X31668Y38067D01*
X31670Y38069D01*
X31670Y38069D01*
X31678Y38078D01*
X31685Y38086D01*
X31691Y38093D01*
X31697Y38099D01*
X31702Y38103D01*
X31705Y38107D01*
X31707Y38109D01*
X31707Y38109D01*
X31708D01*
X31714Y38114D01*
X31720Y38118D01*
X31726Y38122D01*
X31731Y38125D01*
X31735Y38127D01*
X31738Y38129D01*
X31741Y38129D01*
X31741Y38130D01*
X31741D01*
X31745Y38131D01*
X31749Y38132D01*
X31753Y38133D01*
X31756Y38133D01*
X31759Y38133D01*
X31761D01*
X31762D01*
X31763D01*
Y37966D01*
D02*
G37*
G36*
X31657Y37934D02*
X31668Y37934D01*
X31678Y37932D01*
X31687Y37931D01*
X31696Y37929D01*
X31703Y37927D01*
X31710Y37925D01*
X31717Y37922D01*
X31722Y37920D01*
X31726Y37918D01*
X31730Y37916D01*
X31733Y37914D01*
X31736Y37912D01*
X31737Y37911D01*
X31738Y37911D01*
X31739Y37910D01*
X31744Y37905D01*
X31748Y37900D01*
X31752Y37895D01*
X31755Y37890D01*
X31758Y37885D01*
X31760Y37880D01*
X31762Y37875D01*
X31763Y37869D01*
X31765Y37865D01*
X31766Y37861D01*
X31766Y37857D01*
X31767Y37854D01*
Y37851D01*
X31767Y37849D01*
Y37847D01*
X31767Y37839D01*
X31765Y37831D01*
X31764Y37824D01*
X31762Y37818D01*
X31760Y37813D01*
X31758Y37810D01*
X31758Y37808D01*
X31757Y37807D01*
X31757Y37807D01*
Y37806D01*
X31752Y37800D01*
X31747Y37794D01*
X31742Y37790D01*
X31737Y37786D01*
X31732Y37782D01*
X31729Y37780D01*
X31727Y37780D01*
X31726Y37779D01*
X31726Y37778D01*
X31725D01*
X31718Y37775D01*
X31710Y37772D01*
X31702Y37770D01*
X31695Y37769D01*
X31690Y37768D01*
X31687D01*
X31685Y37768D01*
X31683D01*
X31682D01*
X31682D01*
X31681D01*
X31675Y37768D01*
X31668Y37769D01*
X31662Y37770D01*
X31657Y37771D01*
X31652Y37773D01*
X31647Y37775D01*
X31642Y37777D01*
X31638Y37779D01*
X31635Y37781D01*
X31631Y37783D01*
X31629Y37785D01*
X31626Y37786D01*
X31624Y37788D01*
X31623Y37789D01*
X31623Y37789D01*
X31622Y37790D01*
X31618Y37794D01*
X31615Y37798D01*
X31612Y37803D01*
X31609Y37807D01*
X31607Y37812D01*
X31605Y37816D01*
X31602Y37824D01*
X31601Y37828D01*
X31600Y37832D01*
X31600Y37834D01*
X31600Y37837D01*
X31599Y37840D01*
Y37843D01*
X31600Y37849D01*
X31601Y37855D01*
X31602Y37861D01*
X31603Y37866D01*
X31605Y37871D01*
X31606Y37874D01*
X31607Y37876D01*
X31608Y37876D01*
Y37877D01*
X31611Y37883D01*
X31615Y37888D01*
X31619Y37892D01*
X31624Y37896D01*
X31627Y37899D01*
X31630Y37902D01*
X31632Y37903D01*
X31633Y37904D01*
X31626D01*
X31620Y37903D01*
X31614Y37903D01*
X31608Y37902D01*
X31603Y37902D01*
X31598Y37901D01*
X31594Y37900D01*
X31590Y37899D01*
X31586Y37899D01*
X31583Y37898D01*
X31581Y37897D01*
X31579Y37897D01*
X31577Y37896D01*
X31576Y37896D01*
X31575Y37895D01*
X31575D01*
X31568Y37892D01*
X31561Y37888D01*
X31556Y37884D01*
X31552Y37880D01*
X31548Y37877D01*
X31545Y37875D01*
X31544Y37873D01*
X31544Y37872D01*
X31541Y37868D01*
X31539Y37863D01*
X31537Y37859D01*
X31536Y37855D01*
X31536Y37851D01*
X31535Y37848D01*
Y37846D01*
X31536Y37839D01*
X31537Y37833D01*
X31540Y37828D01*
X31542Y37823D01*
X31544Y37820D01*
X31547Y37817D01*
X31548Y37816D01*
X31549Y37815D01*
X31552Y37812D01*
X31556Y37810D01*
X31560Y37808D01*
X31565Y37806D01*
X31569Y37805D01*
X31572Y37804D01*
X31574Y37803D01*
X31575Y37803D01*
X31575D01*
X31572Y37772D01*
X31562Y37774D01*
X31553Y37777D01*
X31545Y37781D01*
X31539Y37785D01*
X31533Y37789D01*
X31531Y37790D01*
X31529Y37792D01*
X31528Y37793D01*
X31527Y37794D01*
X31527Y37795D01*
X31527Y37795D01*
X31524Y37799D01*
X31521Y37803D01*
X31517Y37811D01*
X31514Y37819D01*
X31512Y37826D01*
X31511Y37833D01*
X31510Y37836D01*
Y37839D01*
X31510Y37841D01*
Y37844D01*
X31510Y37851D01*
X31511Y37858D01*
X31512Y37865D01*
X31514Y37871D01*
X31517Y37876D01*
X31519Y37882D01*
X31522Y37887D01*
X31524Y37891D01*
X31527Y37895D01*
X31530Y37898D01*
X31532Y37901D01*
X31534Y37903D01*
X31536Y37905D01*
X31538Y37907D01*
X31539Y37907D01*
X31539Y37908D01*
X31545Y37912D01*
X31553Y37916D01*
X31561Y37920D01*
X31569Y37923D01*
X31578Y37926D01*
X31587Y37928D01*
X31596Y37930D01*
X31604Y37931D01*
X31613Y37932D01*
X31620Y37933D01*
X31627Y37934D01*
X31633Y37934D01*
X31638D01*
X31642Y37935D01*
X31643D01*
X31644D01*
X31645D01*
X31645D01*
X31657Y37934D01*
D02*
G37*
G36*
X33767Y38280D02*
X33767Y38271D01*
X33766Y38264D01*
X33766Y38257D01*
X33765Y38251D01*
X33764Y38246D01*
X33764Y38242D01*
X33763Y38241D01*
X33763Y38240D01*
Y38239D01*
X33761Y38233D01*
X33759Y38227D01*
X33757Y38222D01*
X33755Y38217D01*
X33753Y38214D01*
X33752Y38211D01*
X33751Y38210D01*
X33750Y38209D01*
X33747Y38204D01*
X33743Y38200D01*
X33739Y38196D01*
X33736Y38193D01*
X33733Y38190D01*
X33730Y38188D01*
X33728Y38186D01*
X33727Y38186D01*
X33722Y38182D01*
X33715Y38179D01*
X33710Y38176D01*
X33704Y38174D01*
X33699Y38172D01*
X33695Y38170D01*
X33693Y38170D01*
X33692Y38169D01*
X33691Y38169D01*
X33691D01*
X33682Y38167D01*
X33674Y38165D01*
X33665Y38164D01*
X33657Y38163D01*
X33650Y38162D01*
X33647D01*
X33645Y38162D01*
X33643D01*
X33641D01*
X33640D01*
X33640D01*
X33628Y38162D01*
X33616Y38164D01*
X33606Y38165D01*
X33602Y38166D01*
X33598Y38167D01*
X33594Y38168D01*
X33590Y38169D01*
X33587Y38170D01*
X33585Y38171D01*
X33583Y38171D01*
X33581Y38172D01*
X33580Y38172D01*
X33580D01*
X33571Y38176D01*
X33562Y38181D01*
X33555Y38186D01*
X33549Y38191D01*
X33544Y38195D01*
X33540Y38199D01*
X33539Y38200D01*
X33538Y38201D01*
X33537Y38202D01*
X33537Y38202D01*
X33532Y38208D01*
X33529Y38214D01*
X33525Y38220D01*
X33523Y38226D01*
X33521Y38231D01*
X33520Y38235D01*
X33519Y38237D01*
Y38238D01*
X33519Y38239D01*
Y38239D01*
X33518Y38245D01*
X33517Y38252D01*
X33516Y38260D01*
X33516Y38267D01*
X33515Y38273D01*
Y38370D01*
X33767D01*
Y38280D01*
D02*
G37*
G36*
Y37966D02*
X33737D01*
Y38090D01*
X33731Y38086D01*
X33729Y38084D01*
X33726Y38082D01*
X33724Y38080D01*
X33722Y38079D01*
X33721Y38078D01*
X33721Y38077D01*
X33719Y38075D01*
X33717Y38073D01*
X33713Y38068D01*
X33707Y38062D01*
X33702Y38056D01*
X33697Y38050D01*
X33695Y38048D01*
X33693Y38046D01*
X33691Y38044D01*
X33690Y38042D01*
X33689Y38042D01*
X33689Y38041D01*
X33684Y38035D01*
X33679Y38030D01*
X33674Y38025D01*
X33670Y38020D01*
X33666Y38015D01*
X33663Y38012D01*
X33659Y38008D01*
X33656Y38005D01*
X33654Y38002D01*
X33651Y38000D01*
X33650Y37998D01*
X33648Y37996D01*
X33646Y37995D01*
X33645Y37994D01*
X33639Y37989D01*
X33633Y37984D01*
X33628Y37981D01*
X33623Y37978D01*
X33619Y37976D01*
X33616Y37974D01*
X33615Y37974D01*
X33614Y37973D01*
X33608Y37971D01*
X33603Y37970D01*
X33598Y37968D01*
X33594Y37967D01*
X33590Y37967D01*
X33587Y37967D01*
X33585D01*
X33584D01*
X33579Y37967D01*
X33573Y37968D01*
X33568Y37968D01*
X33564Y37970D01*
X33555Y37974D01*
X33548Y37977D01*
X33545Y37979D01*
X33543Y37981D01*
X33540Y37983D01*
X33538Y37985D01*
X33537Y37986D01*
X33535Y37987D01*
X33535Y37988D01*
X33535Y37988D01*
X33531Y37992D01*
X33528Y37996D01*
X33525Y38001D01*
X33523Y38006D01*
X33519Y38015D01*
X33517Y38025D01*
X33516Y38029D01*
X33515Y38033D01*
X33515Y38037D01*
X33515Y38039D01*
X33514Y38042D01*
Y38046D01*
X33515Y38052D01*
X33515Y38058D01*
X33516Y38064D01*
X33517Y38070D01*
X33519Y38075D01*
X33520Y38079D01*
X33522Y38084D01*
X33524Y38088D01*
X33525Y38091D01*
X33527Y38094D01*
X33529Y38097D01*
X33530Y38099D01*
X33531Y38101D01*
X33532Y38102D01*
X33533Y38103D01*
X33533Y38103D01*
X33537Y38107D01*
X33541Y38110D01*
X33545Y38113D01*
X33549Y38116D01*
X33558Y38120D01*
X33567Y38123D01*
X33571Y38124D01*
X33575Y38125D01*
X33578Y38126D01*
X33581Y38127D01*
X33584Y38127D01*
X33586D01*
X33587Y38128D01*
X33587D01*
X33590Y38096D01*
X33582Y38095D01*
X33575Y38094D01*
X33568Y38091D01*
X33563Y38089D01*
X33559Y38087D01*
X33556Y38085D01*
X33554Y38083D01*
X33553Y38082D01*
X33549Y38077D01*
X33545Y38071D01*
X33543Y38065D01*
X33541Y38059D01*
X33540Y38054D01*
X33540Y38050D01*
X33540Y38049D01*
Y38046D01*
X33540Y38039D01*
X33541Y38032D01*
X33544Y38026D01*
X33546Y38021D01*
X33548Y38017D01*
X33550Y38014D01*
X33552Y38012D01*
X33552Y38012D01*
X33557Y38007D01*
X33563Y38004D01*
X33568Y38002D01*
X33573Y38000D01*
X33577Y37999D01*
X33580Y37999D01*
X33583Y37998D01*
X33583D01*
X33583D01*
X33590Y37999D01*
X33597Y38000D01*
X33603Y38003D01*
X33609Y38006D01*
X33614Y38008D01*
X33618Y38011D01*
X33619Y38012D01*
X33620Y38012D01*
X33620Y38013D01*
X33621D01*
X33625Y38016D01*
X33629Y38020D01*
X33633Y38024D01*
X33638Y38028D01*
X33646Y38037D01*
X33655Y38046D01*
X33659Y38051D01*
X33663Y38055D01*
X33666Y38059D01*
X33669Y38062D01*
X33671Y38065D01*
X33673Y38067D01*
X33674Y38069D01*
X33674Y38069D01*
X33682Y38078D01*
X33689Y38086D01*
X33696Y38093D01*
X33701Y38099D01*
X33706Y38103D01*
X33709Y38107D01*
X33711Y38109D01*
X33712Y38109D01*
X33712D01*
X33718Y38114D01*
X33724Y38118D01*
X33730Y38122D01*
X33735Y38125D01*
X33739Y38127D01*
X33743Y38129D01*
X33745Y38129D01*
X33745Y38130D01*
X33746D01*
X33750Y38131D01*
X33753Y38132D01*
X33757Y38133D01*
X33760Y38133D01*
X33763Y38133D01*
X33765D01*
X33767D01*
X33767D01*
Y37966D01*
D02*
G37*
G36*
X33707Y37834D02*
X33767D01*
Y37803D01*
X33707D01*
Y37769D01*
X33678D01*
Y37803D01*
X33515D01*
Y37828D01*
X33678Y37944D01*
X33707D01*
Y37834D01*
D02*
G37*
G36*
X36437Y18327D02*
X36443Y18327D01*
X36449Y18326D01*
X36454Y18325D01*
X36460Y18323D01*
X36465Y18321D01*
X36469Y18319D01*
X36473Y18317D01*
X36477Y18315D01*
X36480Y18313D01*
X36482Y18311D01*
X36485Y18309D01*
X36487Y18308D01*
X36488Y18307D01*
X36489Y18306D01*
X36489Y18306D01*
X36493Y18302D01*
X36497Y18298D01*
X36500Y18293D01*
X36502Y18289D01*
X36505Y18284D01*
X36507Y18280D01*
X36509Y18271D01*
X36510Y18268D01*
X36511Y18264D01*
X36511Y18261D01*
X36512Y18258D01*
X36512Y18256D01*
Y18253D01*
X36512Y18247D01*
X36511Y18241D01*
X36509Y18235D01*
X36508Y18230D01*
X36506Y18225D01*
X36505Y18222D01*
X36504Y18220D01*
X36504Y18219D01*
Y18219D01*
X36500Y18213D01*
X36496Y18208D01*
X36492Y18203D01*
X36488Y18200D01*
X36484Y18196D01*
X36481Y18194D01*
X36479Y18192D01*
X36478Y18192D01*
X36485D01*
X36492Y18192D01*
X36497Y18193D01*
X36503Y18194D01*
X36508Y18194D01*
X36513Y18195D01*
X36517Y18195D01*
X36521Y18196D01*
X36525Y18197D01*
X36528Y18198D01*
X36531Y18199D01*
X36533Y18199D01*
X36534Y18200D01*
X36535Y18200D01*
X36536Y18200D01*
X36536D01*
X36544Y18204D01*
X36550Y18208D01*
X36555Y18212D01*
X36560Y18215D01*
X36563Y18219D01*
X36566Y18221D01*
X36567Y18223D01*
X36568Y18224D01*
X36571Y18228D01*
X36572Y18233D01*
X36574Y18237D01*
X36575Y18241D01*
X36576Y18245D01*
X36576Y18247D01*
Y18250D01*
X36575Y18257D01*
X36574Y18263D01*
X36572Y18268D01*
X36569Y18273D01*
X36567Y18276D01*
X36565Y18279D01*
X36563Y18280D01*
X36563Y18281D01*
X36559Y18283D01*
X36555Y18286D01*
X36551Y18288D01*
X36547Y18290D01*
X36543Y18291D01*
X36539Y18292D01*
X36537Y18293D01*
X36537Y18293D01*
X36536D01*
X36539Y18324D01*
X36549Y18322D01*
X36558Y18318D01*
X36566Y18315D01*
X36573Y18311D01*
X36578Y18307D01*
X36580Y18305D01*
X36582Y18303D01*
X36583Y18302D01*
X36584Y18301D01*
X36584Y18301D01*
X36585Y18301D01*
X36588Y18297D01*
X36590Y18293D01*
X36595Y18285D01*
X36598Y18277D01*
X36599Y18269D01*
X36601Y18262D01*
X36601Y18259D01*
Y18257D01*
X36602Y18255D01*
Y18252D01*
X36601Y18245D01*
X36600Y18238D01*
X36599Y18231D01*
X36597Y18225D01*
X36595Y18219D01*
X36592Y18214D01*
X36590Y18209D01*
X36587Y18205D01*
X36584Y18201D01*
X36581Y18198D01*
X36579Y18195D01*
X36577Y18192D01*
X36575Y18191D01*
X36573Y18189D01*
X36573Y18188D01*
X36572Y18188D01*
X36566Y18183D01*
X36558Y18179D01*
X36550Y18176D01*
X36542Y18172D01*
X36533Y18170D01*
X36524Y18168D01*
X36515Y18166D01*
X36507Y18164D01*
X36499Y18163D01*
X36491Y18163D01*
X36484Y18162D01*
X36478Y18162D01*
X36473D01*
X36469Y18161D01*
X36468D01*
X36467D01*
X36466D01*
X36466D01*
X36454Y18162D01*
X36444Y18162D01*
X36433Y18163D01*
X36424Y18165D01*
X36416Y18167D01*
X36408Y18169D01*
X36401Y18171D01*
X36395Y18174D01*
X36390Y18176D01*
X36385Y18178D01*
X36381Y18180D01*
X36378Y18182D01*
X36375Y18183D01*
X36374Y18184D01*
X36373Y18185D01*
X36373Y18186D01*
X36367Y18190D01*
X36363Y18195D01*
X36359Y18200D01*
X36356Y18206D01*
X36353Y18211D01*
X36351Y18216D01*
X36349Y18221D01*
X36348Y18226D01*
X36347Y18231D01*
X36346Y18235D01*
X36345Y18239D01*
X36345Y18242D01*
Y18245D01*
X36344Y18247D01*
Y18249D01*
X36345Y18257D01*
X36346Y18265D01*
X36347Y18271D01*
X36350Y18278D01*
X36351Y18282D01*
X36353Y18286D01*
X36354Y18287D01*
X36354Y18289D01*
X36355Y18289D01*
Y18289D01*
X36359Y18295D01*
X36364Y18301D01*
X36369Y18306D01*
X36374Y18310D01*
X36379Y18313D01*
X36383Y18315D01*
X36384Y18316D01*
X36385Y18317D01*
X36386Y18317D01*
X36386D01*
X36394Y18321D01*
X36402Y18324D01*
X36409Y18325D01*
X36416Y18326D01*
X36422Y18327D01*
X36424D01*
X36426Y18328D01*
X36428D01*
X36429D01*
X36430D01*
X36430D01*
X36437Y18327D01*
D02*
G37*
G36*
X36602Y18063D02*
X36595Y18060D01*
X36590Y18056D01*
X36584Y18051D01*
X36579Y18046D01*
X36574Y18042D01*
X36571Y18039D01*
X36569Y18037D01*
X36568Y18036D01*
X36568Y18036D01*
X36568Y18036D01*
X36561Y18028D01*
X36556Y18020D01*
X36551Y18013D01*
X36547Y18006D01*
X36543Y18000D01*
X36541Y17997D01*
X36540Y17995D01*
X36539Y17993D01*
X36539Y17992D01*
X36538Y17991D01*
Y17990D01*
X36508D01*
X36511Y17996D01*
X36513Y18001D01*
X36516Y18007D01*
X36518Y18012D01*
X36520Y18016D01*
X36522Y18020D01*
X36524Y18022D01*
X36524Y18022D01*
Y18023D01*
X36528Y18029D01*
X36532Y18035D01*
X36536Y18040D01*
X36539Y18044D01*
X36541Y18048D01*
X36544Y18050D01*
X36545Y18052D01*
X36545Y18052D01*
X36349D01*
Y18083D01*
X36602D01*
Y18063D01*
D02*
G37*
G36*
X36355Y17932D02*
X36358Y17925D01*
X36362Y17917D01*
X36366Y17911D01*
X36370Y17905D01*
X36371Y17903D01*
X36373Y17901D01*
X36374Y17899D01*
X36374Y17898D01*
X36375Y17897D01*
Y17897D01*
X36382Y17903D01*
X36390Y17909D01*
X36397Y17914D01*
X36404Y17918D01*
X36410Y17921D01*
X36412Y17922D01*
X36414Y17923D01*
X36416Y17924D01*
X36417Y17925D01*
X36418Y17925D01*
X36418D01*
X36428Y17929D01*
X36438Y17931D01*
X36447Y17933D01*
X36456Y17934D01*
X36460Y17934D01*
X36463Y17934D01*
X36466D01*
X36469Y17935D01*
X36472D01*
X36473D01*
X36474D01*
X36474D01*
X36488Y17934D01*
X36501Y17933D01*
X36507Y17931D01*
X36512Y17930D01*
X36517Y17929D01*
X36522Y17927D01*
X36526Y17926D01*
X36530Y17925D01*
X36533Y17923D01*
X36536Y17922D01*
X36539Y17921D01*
X36540Y17921D01*
X36541Y17920D01*
X36541D01*
X36552Y17914D01*
X36561Y17907D01*
X36569Y17900D01*
X36576Y17893D01*
X36581Y17887D01*
X36583Y17884D01*
X36585Y17882D01*
X36586Y17880D01*
X36587Y17878D01*
X36588Y17878D01*
X36588Y17877D01*
X36591Y17872D01*
X36594Y17866D01*
X36598Y17856D01*
X36601Y17845D01*
X36603Y17835D01*
X36603Y17831D01*
X36604Y17827D01*
X36604Y17823D01*
Y17820D01*
X36605Y17818D01*
Y17808D01*
X36604Y17802D01*
X36602Y17790D01*
X36600Y17779D01*
X36598Y17775D01*
X36597Y17770D01*
X36595Y17766D01*
X36594Y17762D01*
X36592Y17759D01*
X36591Y17757D01*
X36590Y17755D01*
X36590Y17753D01*
X36589Y17752D01*
X36589Y17752D01*
X36582Y17742D01*
X36575Y17733D01*
X36567Y17726D01*
X36560Y17720D01*
X36553Y17715D01*
X36550Y17713D01*
X36547Y17712D01*
X36545Y17710D01*
X36544Y17709D01*
X36543Y17709D01*
X36542Y17709D01*
X36531Y17704D01*
X36519Y17700D01*
X36507Y17697D01*
X36497Y17696D01*
X36492Y17695D01*
X36488Y17694D01*
X36484Y17694D01*
X36480D01*
X36478Y17694D01*
X36476D01*
X36474D01*
X36474D01*
X36461Y17694D01*
X36448Y17696D01*
X36442Y17697D01*
X36436Y17699D01*
X36431Y17700D01*
X36426Y17701D01*
X36422Y17703D01*
X36418Y17704D01*
X36415Y17705D01*
X36412Y17707D01*
X36410Y17707D01*
X36408Y17708D01*
X36407Y17709D01*
X36407D01*
X36396Y17715D01*
X36387Y17722D01*
X36379Y17729D01*
X36373Y17736D01*
X36367Y17742D01*
X36365Y17744D01*
X36363Y17747D01*
X36362Y17749D01*
X36361Y17750D01*
X36361Y17751D01*
X36361Y17751D01*
X36358Y17757D01*
X36355Y17762D01*
X36351Y17773D01*
X36348Y17783D01*
X36346Y17793D01*
X36346Y17797D01*
X36345Y17801D01*
X36345Y17805D01*
Y17808D01*
X36344Y17810D01*
Y17814D01*
X36345Y17820D01*
X36345Y17826D01*
X36347Y17838D01*
X36349Y17848D01*
X36351Y17853D01*
X36352Y17857D01*
X36354Y17861D01*
X36355Y17865D01*
X36356Y17868D01*
X36357Y17871D01*
X36358Y17873D01*
X36359Y17874D01*
X36360Y17875D01*
Y17875D01*
X36353Y17886D01*
X36346Y17895D01*
X36341Y17905D01*
X36337Y17913D01*
X36335Y17916D01*
X36333Y17919D01*
X36332Y17922D01*
X36331Y17925D01*
X36330Y17927D01*
X36329Y17929D01*
X36329Y17929D01*
Y17930D01*
X36352Y17939D01*
X36355Y17932D01*
D02*
G37*
G36*
X54489Y17319D02*
X54459D01*
Y17442D01*
X54449Y17434D01*
X54437Y17425D01*
X54426Y17418D01*
X54416Y17411D01*
X54411Y17408D01*
X54407Y17406D01*
X54403Y17403D01*
X54399Y17401D01*
X54397Y17400D01*
X54395Y17399D01*
X54393Y17398D01*
X54393Y17398D01*
X54378Y17390D01*
X54364Y17384D01*
X54350Y17378D01*
X54344Y17376D01*
X54338Y17374D01*
X54332Y17372D01*
X54327Y17370D01*
X54323Y17369D01*
X54319Y17368D01*
X54316Y17367D01*
X54314Y17366D01*
X54312Y17366D01*
X54312D01*
X54297Y17362D01*
X54289Y17361D01*
X54283Y17359D01*
X54277Y17358D01*
X54271Y17357D01*
X54265Y17357D01*
X54260Y17356D01*
X54256Y17355D01*
X54252Y17355D01*
X54248Y17355D01*
X54245D01*
X54243Y17354D01*
X54242D01*
X54241D01*
X54240D01*
Y17386D01*
X54254Y17387D01*
X54267Y17389D01*
X54279Y17391D01*
X54284Y17392D01*
X54289Y17393D01*
X54293Y17394D01*
X54297Y17395D01*
X54301Y17396D01*
X54304Y17396D01*
X54306Y17397D01*
X54308Y17397D01*
X54309Y17398D01*
X54310D01*
X54326Y17403D01*
X54342Y17409D01*
X54350Y17412D01*
X54357Y17415D01*
X54363Y17418D01*
X54370Y17421D01*
X54376Y17424D01*
X54381Y17426D01*
X54385Y17428D01*
X54389Y17430D01*
X54392Y17432D01*
X54395Y17433D01*
X54396Y17434D01*
X54397Y17434D01*
X54404Y17438D01*
X54412Y17443D01*
X54419Y17447D01*
X54425Y17452D01*
X54431Y17456D01*
X54437Y17460D01*
X54442Y17464D01*
X54446Y17467D01*
X54451Y17470D01*
X54454Y17473D01*
X54457Y17476D01*
X54460Y17478D01*
X54462Y17480D01*
X54463Y17481D01*
X54464Y17482D01*
X54465Y17482D01*
X54489D01*
Y17319D01*
D02*
G37*
G36*
X54493Y17218D02*
X54487Y17214D01*
X54481Y17210D01*
X54475Y17205D01*
X54470Y17201D01*
X54466Y17196D01*
X54462Y17193D01*
X54461Y17192D01*
X54460Y17191D01*
X54460Y17190D01*
X54459Y17190D01*
X54453Y17182D01*
X54447Y17175D01*
X54442Y17167D01*
X54438Y17160D01*
X54435Y17154D01*
X54433Y17151D01*
X54432Y17149D01*
X54431Y17147D01*
X54431Y17146D01*
X54430Y17145D01*
Y17145D01*
X54400D01*
X54402Y17150D01*
X54405Y17156D01*
X54407Y17161D01*
X54410Y17166D01*
X54412Y17171D01*
X54414Y17174D01*
X54415Y17176D01*
X54416Y17177D01*
Y17177D01*
X54420Y17184D01*
X54424Y17189D01*
X54427Y17195D01*
X54431Y17199D01*
X54433Y17202D01*
X54435Y17204D01*
X54437Y17206D01*
X54437Y17207D01*
X54240D01*
Y17238D01*
X54493D01*
Y17218D01*
D02*
G37*
G36*
X54247Y17086D02*
X54250Y17079D01*
X54254Y17072D01*
X54258Y17065D01*
X54261Y17060D01*
X54263Y17057D01*
X54264Y17055D01*
X54265Y17053D01*
X54266Y17052D01*
X54267Y17052D01*
Y17051D01*
X54274Y17058D01*
X54281Y17064D01*
X54289Y17069D01*
X54296Y17073D01*
X54301Y17076D01*
X54304Y17077D01*
X54306Y17078D01*
X54308Y17078D01*
X54309Y17079D01*
X54310Y17080D01*
X54310D01*
X54320Y17083D01*
X54330Y17085D01*
X54339Y17087D01*
X54348Y17088D01*
X54351Y17088D01*
X54355Y17089D01*
X54358D01*
X54361Y17089D01*
X54363D01*
X54365D01*
X54366D01*
X54366D01*
X54380Y17088D01*
X54392Y17087D01*
X54398Y17086D01*
X54404Y17084D01*
X54409Y17083D01*
X54414Y17082D01*
X54418Y17080D01*
X54422Y17079D01*
X54425Y17078D01*
X54428Y17076D01*
X54430Y17076D01*
X54432Y17075D01*
X54433Y17074D01*
X54433D01*
X54444Y17068D01*
X54453Y17061D01*
X54461Y17054D01*
X54468Y17048D01*
X54473Y17041D01*
X54475Y17038D01*
X54477Y17036D01*
X54478Y17034D01*
X54479Y17033D01*
X54479Y17032D01*
X54480Y17032D01*
X54483Y17026D01*
X54485Y17021D01*
X54490Y17010D01*
X54493Y16999D01*
X54494Y16990D01*
X54495Y16985D01*
X54496Y16981D01*
X54496Y16978D01*
Y16974D01*
X54497Y16972D01*
Y16962D01*
X54496Y16956D01*
X54494Y16944D01*
X54492Y16934D01*
X54490Y16929D01*
X54489Y16924D01*
X54487Y16920D01*
X54486Y16916D01*
X54484Y16914D01*
X54483Y16911D01*
X54482Y16909D01*
X54481Y16907D01*
X54481Y16906D01*
X54481Y16906D01*
X54474Y16896D01*
X54466Y16888D01*
X54459Y16880D01*
X54451Y16874D01*
X54445Y16869D01*
X54442Y16867D01*
X54439Y16866D01*
X54437Y16864D01*
X54435Y16864D01*
X54434Y16863D01*
X54434Y16863D01*
X54422Y16858D01*
X54410Y16854D01*
X54399Y16852D01*
X54388Y16850D01*
X54384Y16849D01*
X54379Y16849D01*
X54375Y16848D01*
X54372D01*
X54370Y16848D01*
X54368D01*
X54366D01*
X54366D01*
X54352Y16849D01*
X54340Y16850D01*
X54334Y16852D01*
X54328Y16853D01*
X54323Y16854D01*
X54318Y16856D01*
X54314Y16857D01*
X54310Y16858D01*
X54307Y16860D01*
X54304Y16861D01*
X54301Y16862D01*
X54300Y16862D01*
X54299Y16863D01*
X54299D01*
X54288Y16869D01*
X54279Y16876D01*
X54271Y16883D01*
X54264Y16890D01*
X54259Y16896D01*
X54257Y16899D01*
X54255Y16901D01*
X54254Y16903D01*
X54253Y16904D01*
X54253Y16905D01*
X54252Y16906D01*
X54249Y16911D01*
X54247Y16916D01*
X54243Y16927D01*
X54240Y16938D01*
X54238Y16947D01*
X54237Y16951D01*
X54237Y16955D01*
X54236Y16959D01*
Y16962D01*
X54236Y16965D01*
Y16968D01*
X54236Y16974D01*
X54237Y16980D01*
X54239Y16992D01*
X54241Y17002D01*
X54243Y17007D01*
X54244Y17011D01*
X54245Y17016D01*
X54247Y17019D01*
X54248Y17022D01*
X54249Y17025D01*
X54250Y17027D01*
X54251Y17029D01*
X54252Y17029D01*
Y17030D01*
X54244Y17040D01*
X54238Y17050D01*
X54233Y17059D01*
X54228Y17067D01*
X54227Y17070D01*
X54225Y17074D01*
X54224Y17077D01*
X54223Y17079D01*
X54222Y17081D01*
X54221Y17083D01*
X54221Y17084D01*
Y17084D01*
X54244Y17094D01*
X54247Y17086D01*
D02*
G37*
G36*
X1331Y10585D02*
X1330Y10577D01*
X1330Y10569D01*
X1329Y10562D01*
X1328Y10557D01*
X1328Y10552D01*
X1327Y10548D01*
X1327Y10547D01*
X1327Y10546D01*
Y10545D01*
X1325Y10538D01*
X1323Y10533D01*
X1321Y10528D01*
X1319Y10523D01*
X1317Y10520D01*
X1315Y10517D01*
X1314Y10516D01*
X1314Y10515D01*
X1311Y10510D01*
X1307Y10506D01*
X1303Y10502D01*
X1299Y10499D01*
X1296Y10496D01*
X1293Y10494D01*
X1292Y10492D01*
X1291Y10492D01*
X1285Y10488D01*
X1279Y10485D01*
X1273Y10482D01*
X1267Y10479D01*
X1262Y10477D01*
X1258Y10476D01*
X1257Y10475D01*
X1256Y10475D01*
X1255Y10475D01*
X1255D01*
X1246Y10473D01*
X1237Y10471D01*
X1229Y10470D01*
X1221Y10469D01*
X1214Y10468D01*
X1211D01*
X1208Y10468D01*
X1206D01*
X1205D01*
X1204D01*
X1204D01*
X1191Y10468D01*
X1180Y10469D01*
X1170Y10471D01*
X1165Y10472D01*
X1161Y10473D01*
X1157Y10474D01*
X1154Y10475D01*
X1151Y10475D01*
X1148Y10477D01*
X1146Y10477D01*
X1145Y10478D01*
X1144Y10478D01*
X1144D01*
X1134Y10482D01*
X1126Y10487D01*
X1118Y10492D01*
X1112Y10497D01*
X1107Y10501D01*
X1103Y10505D01*
X1102Y10506D01*
X1101Y10507D01*
X1101Y10508D01*
X1101Y10508D01*
X1096Y10514D01*
X1092Y10520D01*
X1089Y10526D01*
X1086Y10532D01*
X1085Y10537D01*
X1083Y10541D01*
X1083Y10542D01*
Y10544D01*
X1082Y10544D01*
Y10545D01*
X1081Y10551D01*
X1080Y10558D01*
X1079Y10565D01*
X1079Y10573D01*
X1079Y10579D01*
Y10676D01*
X1331D01*
Y10585D01*
D02*
G37*
G36*
X1169Y10406D02*
X1166Y10400D01*
X1164Y10395D01*
X1161Y10390D01*
X1159Y10385D01*
X1157Y10382D01*
X1156Y10379D01*
X1155Y10379D01*
Y10379D01*
X1151Y10372D01*
X1147Y10366D01*
X1144Y10361D01*
X1140Y10357D01*
X1138Y10354D01*
X1136Y10351D01*
X1134Y10350D01*
X1134Y10349D01*
X1331D01*
Y10318D01*
X1078D01*
Y10338D01*
X1084Y10342D01*
X1090Y10346D01*
X1095Y10351D01*
X1101Y10355D01*
X1105Y10359D01*
X1109Y10363D01*
X1110Y10364D01*
X1111Y10365D01*
X1111Y10366D01*
X1111Y10366D01*
X1118Y10374D01*
X1124Y10381D01*
X1129Y10388D01*
X1133Y10396D01*
X1136Y10402D01*
X1138Y10405D01*
X1139Y10407D01*
X1140Y10409D01*
X1140Y10410D01*
X1141Y10411D01*
Y10411D01*
X1171D01*
X1169Y10406D01*
D02*
G37*
G36*
X20314Y10539D02*
X20313Y10531D01*
X20313Y10523D01*
X20312Y10516D01*
X20312Y10511D01*
X20311Y10505D01*
X20311Y10502D01*
X20310Y10501D01*
X20310Y10500D01*
Y10499D01*
X20308Y10492D01*
X20306Y10487D01*
X20304Y10481D01*
X20302Y10477D01*
X20300Y10473D01*
X20299Y10471D01*
X20297Y10469D01*
X20297Y10469D01*
X20294Y10464D01*
X20290Y10460D01*
X20286Y10456D01*
X20283Y10453D01*
X20279Y10450D01*
X20277Y10448D01*
X20275Y10446D01*
X20274Y10446D01*
X20268Y10442D01*
X20262Y10438D01*
X20256Y10436D01*
X20251Y10433D01*
X20245Y10431D01*
X20241Y10430D01*
X20240Y10429D01*
X20239Y10429D01*
X20238Y10429D01*
X20238D01*
X20229Y10426D01*
X20220Y10425D01*
X20212Y10424D01*
X20204Y10422D01*
X20197Y10422D01*
X20194D01*
X20192Y10422D01*
X20190D01*
X20188D01*
X20187D01*
X20187D01*
X20174Y10422D01*
X20163Y10423D01*
X20153Y10425D01*
X20148Y10426D01*
X20144Y10427D01*
X20140Y10428D01*
X20137Y10429D01*
X20134Y10429D01*
X20131Y10430D01*
X20129Y10431D01*
X20128Y10432D01*
X20127Y10432D01*
X20127D01*
X20117Y10436D01*
X20109Y10441D01*
X20102Y10446D01*
X20095Y10450D01*
X20090Y10455D01*
X20087Y10458D01*
X20086Y10460D01*
X20085Y10461D01*
X20084Y10461D01*
X20084Y10462D01*
X20079Y10468D01*
X20075Y10474D01*
X20072Y10480D01*
X20070Y10486D01*
X20068Y10491D01*
X20067Y10495D01*
X20066Y10496D01*
Y10497D01*
X20066Y10498D01*
Y10499D01*
X20064Y10505D01*
X20063Y10512D01*
X20063Y10519D01*
X20062Y10527D01*
X20062Y10533D01*
Y10630D01*
X20314D01*
Y10539D01*
D02*
G37*
G36*
X20253Y10388D02*
X20259Y10386D01*
X20269Y10383D01*
X20277Y10379D01*
X20281Y10377D01*
X20285Y10375D01*
X20288Y10373D01*
X20291Y10370D01*
X20293Y10369D01*
X20295Y10367D01*
X20296Y10366D01*
X20297Y10365D01*
X20298Y10364D01*
X20299Y10363D01*
X20302Y10359D01*
X20305Y10355D01*
X20308Y10350D01*
X20310Y10346D01*
X20313Y10337D01*
X20316Y10328D01*
X20316Y10324D01*
X20317Y10320D01*
X20317Y10317D01*
X20318Y10314D01*
X20318Y10312D01*
Y10309D01*
X20318Y10302D01*
X20317Y10295D01*
X20316Y10289D01*
X20315Y10283D01*
X20313Y10278D01*
X20311Y10273D01*
X20309Y10268D01*
X20307Y10264D01*
X20305Y10260D01*
X20303Y10257D01*
X20301Y10254D01*
X20299Y10252D01*
X20297Y10250D01*
X20296Y10249D01*
X20296Y10248D01*
X20295Y10248D01*
X20291Y10243D01*
X20286Y10240D01*
X20281Y10236D01*
X20277Y10234D01*
X20272Y10231D01*
X20268Y10229D01*
X20259Y10226D01*
X20255Y10226D01*
X20251Y10225D01*
X20248Y10224D01*
X20245Y10224D01*
X20243Y10223D01*
X20241D01*
X20240D01*
X20240D01*
X20231Y10224D01*
X20223Y10225D01*
X20216Y10227D01*
X20210Y10230D01*
X20205Y10232D01*
X20202Y10234D01*
X20200Y10235D01*
X20199Y10236D01*
X20193Y10241D01*
X20189Y10246D01*
X20185Y10252D01*
X20182Y10258D01*
X20180Y10263D01*
X20178Y10267D01*
X20178Y10268D01*
X20178Y10270D01*
X20177Y10270D01*
Y10271D01*
X20174Y10264D01*
X20171Y10259D01*
X20167Y10255D01*
X20164Y10251D01*
X20161Y10248D01*
X20158Y10246D01*
X20157Y10245D01*
X20156Y10245D01*
X20151Y10242D01*
X20146Y10240D01*
X20141Y10238D01*
X20136Y10237D01*
X20132Y10236D01*
X20129Y10236D01*
X20127D01*
X20126D01*
X20120Y10236D01*
X20114Y10237D01*
X20109Y10239D01*
X20104Y10240D01*
X20100Y10242D01*
X20097Y10244D01*
X20095Y10245D01*
X20094Y10245D01*
X20089Y10249D01*
X20084Y10253D01*
X20080Y10258D01*
X20076Y10262D01*
X20074Y10266D01*
X20071Y10269D01*
X20070Y10271D01*
X20070Y10271D01*
Y10272D01*
X20067Y10278D01*
X20065Y10285D01*
X20063Y10291D01*
X20062Y10297D01*
X20061Y10302D01*
X20061Y10306D01*
Y10315D01*
X20062Y10320D01*
X20063Y10330D01*
X20066Y10338D01*
X20069Y10346D01*
X20071Y10349D01*
X20073Y10351D01*
X20074Y10354D01*
X20075Y10356D01*
X20077Y10357D01*
X20077Y10358D01*
X20078Y10359D01*
X20078Y10359D01*
X20085Y10366D01*
X20093Y10372D01*
X20101Y10376D01*
X20109Y10380D01*
X20115Y10382D01*
X20118Y10383D01*
X20121Y10384D01*
X20123Y10384D01*
X20125Y10385D01*
X20126Y10385D01*
X20126D01*
X20131Y10354D01*
X20123Y10353D01*
X20117Y10350D01*
X20111Y10348D01*
X20106Y10345D01*
X20102Y10343D01*
X20100Y10341D01*
X20098Y10339D01*
X20098Y10339D01*
X20094Y10334D01*
X20091Y10329D01*
X20089Y10324D01*
X20088Y10319D01*
X20087Y10315D01*
X20086Y10312D01*
Y10309D01*
X20087Y10302D01*
X20088Y10297D01*
X20090Y10291D01*
X20092Y10287D01*
X20094Y10284D01*
X20096Y10281D01*
X20097Y10279D01*
X20098Y10279D01*
X20102Y10275D01*
X20107Y10272D01*
X20111Y10270D01*
X20116Y10269D01*
X20120Y10268D01*
X20123Y10267D01*
X20125D01*
X20125D01*
X20126D01*
X20130D01*
X20133Y10268D01*
X20139Y10270D01*
X20145Y10272D01*
X20150Y10275D01*
X20153Y10278D01*
X20155Y10281D01*
X20157Y10283D01*
X20157Y10283D01*
Y10283D01*
X20161Y10290D01*
X20163Y10295D01*
X20165Y10302D01*
X20166Y10307D01*
X20167Y10312D01*
X20168Y10316D01*
Y10321D01*
X20167Y10322D01*
Y10324D01*
X20194Y10327D01*
X20193Y10323D01*
X20193Y10318D01*
X20192Y10315D01*
X20192Y10311D01*
X20191Y10309D01*
Y10306D01*
X20192Y10298D01*
X20193Y10291D01*
X20196Y10285D01*
X20198Y10280D01*
X20201Y10276D01*
X20203Y10273D01*
X20204Y10271D01*
X20205Y10270D01*
X20210Y10266D01*
X20216Y10262D01*
X20222Y10259D01*
X20228Y10258D01*
X20233Y10257D01*
X20237Y10256D01*
X20238Y10256D01*
X20239D01*
X20240D01*
X20240D01*
X20248Y10257D01*
X20256Y10259D01*
X20262Y10261D01*
X20267Y10264D01*
X20272Y10267D01*
X20275Y10269D01*
X20277Y10271D01*
X20278Y10271D01*
X20283Y10277D01*
X20287Y10283D01*
X20289Y10290D01*
X20291Y10295D01*
X20292Y10301D01*
X20292Y10305D01*
X20293Y10306D01*
Y10308D01*
X20292Y10315D01*
X20291Y10321D01*
X20289Y10326D01*
X20287Y10331D01*
X20285Y10334D01*
X20283Y10337D01*
X20282Y10339D01*
X20281Y10339D01*
X20276Y10344D01*
X20271Y10347D01*
X20264Y10351D01*
X20258Y10353D01*
X20252Y10355D01*
X20250Y10356D01*
X20248Y10356D01*
X20246Y10357D01*
X20244Y10357D01*
X20244Y10357D01*
X20243D01*
X20247Y10388D01*
X20253Y10388D01*
D02*
G37*
G36*
X24877Y10539D02*
X24877Y10531D01*
X24877Y10523D01*
X24876Y10516D01*
X24875Y10511D01*
X24874Y10505D01*
X24874Y10502D01*
X24874Y10501D01*
X24873Y10500D01*
Y10499D01*
X24871Y10492D01*
X24869Y10487D01*
X24867Y10481D01*
X24865Y10477D01*
X24863Y10473D01*
X24862Y10471D01*
X24861Y10469D01*
X24861Y10469D01*
X24857Y10464D01*
X24853Y10460D01*
X24850Y10456D01*
X24846Y10453D01*
X24843Y10450D01*
X24840Y10448D01*
X24838Y10446D01*
X24838Y10446D01*
X24832Y10442D01*
X24826Y10438D01*
X24820Y10436D01*
X24814Y10433D01*
X24809Y10431D01*
X24805Y10430D01*
X24803Y10429D01*
X24802Y10429D01*
X24802Y10429D01*
X24801D01*
X24792Y10426D01*
X24784Y10425D01*
X24775Y10424D01*
X24767Y10422D01*
X24760Y10422D01*
X24758D01*
X24755Y10422D01*
X24753D01*
X24751D01*
X24751D01*
X24750D01*
X24738Y10422D01*
X24727Y10423D01*
X24716Y10425D01*
X24712Y10426D01*
X24708Y10427D01*
X24704Y10428D01*
X24700Y10429D01*
X24697Y10429D01*
X24695Y10430D01*
X24693Y10431D01*
X24691Y10432D01*
X24691Y10432D01*
X24690D01*
X24681Y10436D01*
X24672Y10441D01*
X24665Y10446D01*
X24659Y10450D01*
X24654Y10455D01*
X24650Y10458D01*
X24649Y10460D01*
X24648Y10461D01*
X24648Y10461D01*
X24647Y10462D01*
X24642Y10468D01*
X24639Y10474D01*
X24636Y10480D01*
X24633Y10486D01*
X24631Y10491D01*
X24630Y10495D01*
X24629Y10496D01*
Y10497D01*
X24629Y10498D01*
Y10499D01*
X24628Y10505D01*
X24627Y10512D01*
X24626Y10519D01*
X24626Y10527D01*
X24625Y10533D01*
Y10630D01*
X24877D01*
Y10539D01*
D02*
G37*
G36*
X24817Y10290D02*
X24877D01*
Y10259D01*
X24817D01*
Y10224D01*
X24788D01*
Y10259D01*
X24625D01*
Y10284D01*
X24788Y10399D01*
X24817D01*
Y10290D01*
D02*
G37*
G36*
X32756Y38280D02*
X32755Y38271D01*
X32755Y38264D01*
X32754Y38257D01*
X32754Y38251D01*
X32753Y38246D01*
X32752Y38242D01*
X32752Y38241D01*
X32752Y38240D01*
Y38239D01*
X32750Y38233D01*
X32748Y38227D01*
X32746Y38222D01*
X32744Y38217D01*
X32742Y38214D01*
X32740Y38211D01*
X32739Y38210D01*
X32739Y38209D01*
X32736Y38204D01*
X32732Y38200D01*
X32728Y38196D01*
X32724Y38193D01*
X32721Y38190D01*
X32719Y38188D01*
X32717Y38186D01*
X32716Y38186D01*
X32710Y38182D01*
X32704Y38179D01*
X32698Y38176D01*
X32692Y38174D01*
X32687Y38172D01*
X32683Y38170D01*
X32682Y38170D01*
X32681Y38169D01*
X32680Y38169D01*
X32680D01*
X32671Y38167D01*
X32662Y38165D01*
X32654Y38164D01*
X32646Y38163D01*
X32639Y38162D01*
X32636D01*
X32633Y38162D01*
X32632D01*
X32630D01*
X32629D01*
X32629D01*
X32616Y38162D01*
X32605Y38164D01*
X32595Y38165D01*
X32590Y38166D01*
X32586Y38167D01*
X32582Y38168D01*
X32579Y38169D01*
X32576Y38170D01*
X32573Y38171D01*
X32571Y38171D01*
X32570Y38172D01*
X32569Y38172D01*
X32569D01*
X32559Y38176D01*
X32551Y38181D01*
X32544Y38186D01*
X32537Y38191D01*
X32532Y38195D01*
X32529Y38199D01*
X32528Y38200D01*
X32526Y38201D01*
X32526Y38202D01*
X32526Y38202D01*
X32521Y38208D01*
X32517Y38214D01*
X32514Y38220D01*
X32512Y38226D01*
X32510Y38231D01*
X32509Y38235D01*
X32508Y38237D01*
Y38238D01*
X32508Y38239D01*
Y38239D01*
X32506Y38245D01*
X32505Y38252D01*
X32505Y38260D01*
X32504Y38267D01*
X32504Y38273D01*
Y38370D01*
X32756D01*
Y38280D01*
D02*
G37*
G36*
Y37966D02*
X32726D01*
Y38090D01*
X32720Y38086D01*
X32717Y38084D01*
X32715Y38082D01*
X32712Y38080D01*
X32711Y38079D01*
X32710Y38078D01*
X32710Y38077D01*
X32708Y38075D01*
X32706Y38073D01*
X32701Y38068D01*
X32696Y38062D01*
X32690Y38056D01*
X32685Y38050D01*
X32683Y38048D01*
X32681Y38046D01*
X32680Y38044D01*
X32679Y38042D01*
X32678Y38042D01*
X32677Y38041D01*
X32672Y38035D01*
X32668Y38030D01*
X32663Y38025D01*
X32659Y38020D01*
X32655Y38015D01*
X32651Y38012D01*
X32648Y38008D01*
X32645Y38005D01*
X32642Y38002D01*
X32640Y38000D01*
X32638Y37998D01*
X32636Y37996D01*
X32634Y37995D01*
X32633Y37994D01*
X32627Y37989D01*
X32622Y37984D01*
X32616Y37981D01*
X32612Y37978D01*
X32608Y37976D01*
X32605Y37974D01*
X32603Y37974D01*
X32603Y37973D01*
X32597Y37971D01*
X32592Y37970D01*
X32586Y37968D01*
X32582Y37967D01*
X32578Y37967D01*
X32575Y37967D01*
X32573D01*
X32573D01*
X32567Y37967D01*
X32562Y37968D01*
X32557Y37968D01*
X32553Y37970D01*
X32544Y37974D01*
X32537Y37977D01*
X32534Y37979D01*
X32531Y37981D01*
X32529Y37983D01*
X32527Y37985D01*
X32525Y37986D01*
X32524Y37987D01*
X32524Y37988D01*
X32523Y37988D01*
X32520Y37992D01*
X32516Y37996D01*
X32514Y38001D01*
X32512Y38006D01*
X32508Y38015D01*
X32505Y38025D01*
X32505Y38029D01*
X32504Y38033D01*
X32503Y38037D01*
X32503Y38039D01*
X32503Y38042D01*
Y38046D01*
X32503Y38052D01*
X32503Y38058D01*
X32505Y38064D01*
X32506Y38070D01*
X32507Y38075D01*
X32509Y38079D01*
X32510Y38084D01*
X32512Y38088D01*
X32514Y38091D01*
X32516Y38094D01*
X32517Y38097D01*
X32519Y38099D01*
X32520Y38101D01*
X32521Y38102D01*
X32521Y38103D01*
X32522Y38103D01*
X32525Y38107D01*
X32529Y38110D01*
X32534Y38113D01*
X32538Y38116D01*
X32547Y38120D01*
X32556Y38123D01*
X32560Y38124D01*
X32564Y38125D01*
X32567Y38126D01*
X32570Y38127D01*
X32572Y38127D01*
X32574D01*
X32575Y38128D01*
X32576D01*
X32579Y38096D01*
X32570Y38095D01*
X32563Y38094D01*
X32557Y38091D01*
X32552Y38089D01*
X32547Y38087D01*
X32544Y38085D01*
X32542Y38083D01*
X32542Y38082D01*
X32537Y38077D01*
X32534Y38071D01*
X32532Y38065D01*
X32530Y38059D01*
X32529Y38054D01*
X32529Y38050D01*
X32528Y38049D01*
Y38046D01*
X32529Y38039D01*
X32530Y38032D01*
X32532Y38026D01*
X32534Y38021D01*
X32537Y38017D01*
X32539Y38014D01*
X32540Y38012D01*
X32541Y38012D01*
X32546Y38007D01*
X32551Y38004D01*
X32556Y38002D01*
X32561Y38000D01*
X32565Y37999D01*
X32569Y37999D01*
X32571Y37998D01*
X32572D01*
X32572D01*
X32578Y37999D01*
X32585Y38000D01*
X32592Y38003D01*
X32597Y38006D01*
X32602Y38008D01*
X32606Y38011D01*
X32608Y38012D01*
X32609Y38012D01*
X32609Y38013D01*
X32609D01*
X32613Y38016D01*
X32617Y38020D01*
X32622Y38024D01*
X32626Y38028D01*
X32635Y38037D01*
X32644Y38046D01*
X32648Y38051D01*
X32651Y38055D01*
X32655Y38059D01*
X32657Y38062D01*
X32660Y38065D01*
X32661Y38067D01*
X32663Y38069D01*
X32663Y38069D01*
X32671Y38078D01*
X32678Y38086D01*
X32684Y38093D01*
X32690Y38099D01*
X32695Y38103D01*
X32698Y38107D01*
X32700Y38109D01*
X32700Y38109D01*
X32701D01*
X32707Y38114D01*
X32713Y38118D01*
X32719Y38122D01*
X32724Y38125D01*
X32728Y38127D01*
X32731Y38129D01*
X32734Y38129D01*
X32734Y38130D01*
X32734D01*
X32738Y38131D01*
X32742Y38132D01*
X32746Y38133D01*
X32749Y38133D01*
X32752Y38133D01*
X32754D01*
X32755D01*
X32756D01*
Y37966D01*
D02*
G37*
G36*
X32696Y37932D02*
X32701Y37931D01*
X32711Y37928D01*
X32720Y37924D01*
X32724Y37922D01*
X32727Y37920D01*
X32731Y37918D01*
X32734Y37916D01*
X32736Y37914D01*
X32738Y37912D01*
X32739Y37911D01*
X32740Y37910D01*
X32741Y37909D01*
X32741Y37909D01*
X32744Y37904D01*
X32747Y37900D01*
X32750Y37895D01*
X32752Y37891D01*
X32755Y37881D01*
X32758Y37872D01*
X32759Y37868D01*
X32759Y37864D01*
X32759Y37861D01*
X32760Y37858D01*
X32760Y37856D01*
Y37852D01*
X32760Y37845D01*
X32759Y37837D01*
X32757Y37831D01*
X32755Y37824D01*
X32753Y37818D01*
X32750Y37813D01*
X32748Y37808D01*
X32745Y37804D01*
X32742Y37800D01*
X32739Y37796D01*
X32736Y37793D01*
X32734Y37790D01*
X32732Y37789D01*
X32731Y37787D01*
X32730Y37786D01*
X32730Y37786D01*
X32725Y37782D01*
X32720Y37780D01*
X32715Y37777D01*
X32710Y37774D01*
X32700Y37771D01*
X32691Y37769D01*
X32687Y37768D01*
X32683Y37767D01*
X32679Y37767D01*
X32676Y37766D01*
X32674Y37766D01*
X32672D01*
X32671D01*
X32671D01*
X32664Y37766D01*
X32658Y37767D01*
X32652Y37768D01*
X32646Y37770D01*
X32641Y37772D01*
X32636Y37773D01*
X32632Y37776D01*
X32628Y37777D01*
X32624Y37780D01*
X32621Y37782D01*
X32618Y37784D01*
X32616Y37785D01*
X32614Y37787D01*
X32613Y37788D01*
X32612Y37789D01*
X32612Y37789D01*
X32608Y37793D01*
X32604Y37798D01*
X32601Y37802D01*
X32599Y37807D01*
X32596Y37812D01*
X32594Y37817D01*
X32592Y37825D01*
X32590Y37829D01*
X32590Y37833D01*
X32589Y37836D01*
X32589Y37839D01*
X32589Y37841D01*
Y37849D01*
X32589Y37854D01*
X32591Y37863D01*
X32594Y37871D01*
X32597Y37878D01*
X32600Y37884D01*
X32601Y37886D01*
X32602Y37888D01*
X32603Y37890D01*
X32604Y37891D01*
X32604Y37892D01*
X32605Y37892D01*
X32537Y37879D01*
Y37778D01*
X32507D01*
Y37903D01*
X32637Y37928D01*
X32641Y37899D01*
X32637Y37896D01*
X32633Y37893D01*
X32630Y37890D01*
X32628Y37887D01*
X32626Y37884D01*
X32624Y37882D01*
X32623Y37880D01*
X32623Y37880D01*
X32621Y37875D01*
X32619Y37871D01*
X32618Y37866D01*
X32617Y37862D01*
X32616Y37858D01*
X32616Y37855D01*
Y37848D01*
X32617Y37844D01*
X32619Y37836D01*
X32621Y37830D01*
X32624Y37824D01*
X32627Y37820D01*
X32629Y37816D01*
X32631Y37814D01*
X32631Y37814D01*
X32632D01*
X32638Y37809D01*
X32644Y37805D01*
X32651Y37802D01*
X32658Y37801D01*
X32664Y37800D01*
X32667Y37799D01*
X32669D01*
X32671Y37799D01*
X32672D01*
X32673D01*
X32673D01*
X32678D01*
X32683Y37800D01*
X32692Y37801D01*
X32700Y37804D01*
X32706Y37806D01*
X32711Y37809D01*
X32715Y37812D01*
X32716Y37813D01*
X32717Y37814D01*
X32718Y37814D01*
X32718Y37814D01*
X32721Y37817D01*
X32723Y37820D01*
X32728Y37827D01*
X32731Y37833D01*
X32732Y37839D01*
X32734Y37844D01*
X32734Y37849D01*
X32735Y37850D01*
Y37852D01*
X32734Y37859D01*
X32733Y37865D01*
X32731Y37871D01*
X32729Y37875D01*
X32727Y37879D01*
X32725Y37882D01*
X32723Y37884D01*
X32723Y37884D01*
X32718Y37889D01*
X32712Y37892D01*
X32706Y37895D01*
X32701Y37897D01*
X32695Y37899D01*
X32691Y37900D01*
X32690Y37900D01*
X32688Y37901D01*
X32688D01*
X32687D01*
X32690Y37933D01*
X32696Y37932D01*
D02*
G37*
G36*
X34322Y10539D02*
X34321Y10531D01*
X34321Y10523D01*
X34320Y10516D01*
X34320Y10511D01*
X34319Y10505D01*
X34318Y10502D01*
X34318Y10501D01*
X34318Y10500D01*
Y10499D01*
X34316Y10492D01*
X34314Y10487D01*
X34312Y10481D01*
X34310Y10477D01*
X34308Y10473D01*
X34306Y10471D01*
X34305Y10469D01*
X34305Y10469D01*
X34302Y10464D01*
X34298Y10460D01*
X34294Y10456D01*
X34290Y10453D01*
X34287Y10450D01*
X34285Y10448D01*
X34283Y10446D01*
X34282Y10446D01*
X34276Y10442D01*
X34270Y10438D01*
X34264Y10436D01*
X34258Y10433D01*
X34253Y10431D01*
X34249Y10430D01*
X34248Y10429D01*
X34247Y10429D01*
X34246Y10429D01*
X34246D01*
X34237Y10426D01*
X34228Y10425D01*
X34220Y10424D01*
X34212Y10422D01*
X34205Y10422D01*
X34202D01*
X34199Y10422D01*
X34198D01*
X34196D01*
X34195D01*
X34195D01*
X34182Y10422D01*
X34171Y10423D01*
X34161Y10425D01*
X34156Y10426D01*
X34152Y10427D01*
X34148Y10428D01*
X34145Y10429D01*
X34142Y10429D01*
X34139Y10430D01*
X34137Y10431D01*
X34136Y10432D01*
X34135Y10432D01*
X34135D01*
X34125Y10436D01*
X34117Y10441D01*
X34109Y10446D01*
X34103Y10450D01*
X34098Y10455D01*
X34095Y10458D01*
X34093Y10460D01*
X34092Y10461D01*
X34092Y10461D01*
X34092Y10462D01*
X34087Y10468D01*
X34083Y10474D01*
X34080Y10480D01*
X34077Y10486D01*
X34076Y10491D01*
X34075Y10495D01*
X34074Y10496D01*
Y10497D01*
X34073Y10498D01*
Y10499D01*
X34072Y10505D01*
X34071Y10512D01*
X34071Y10519D01*
X34070Y10527D01*
X34070Y10533D01*
Y10630D01*
X34322D01*
Y10539D01*
D02*
G37*
G36*
X34160Y10359D02*
X34157Y10354D01*
X34155Y10349D01*
X34152Y10343D01*
X34150Y10339D01*
X34148Y10335D01*
X34147Y10333D01*
X34146Y10333D01*
Y10333D01*
X34142Y10326D01*
X34138Y10320D01*
X34135Y10315D01*
X34131Y10311D01*
X34129Y10307D01*
X34127Y10305D01*
X34125Y10303D01*
X34125Y10303D01*
X34322D01*
Y10272D01*
X34069D01*
Y10292D01*
X34075Y10296D01*
X34081Y10300D01*
X34087Y10305D01*
X34092Y10309D01*
X34096Y10313D01*
X34100Y10317D01*
X34101Y10318D01*
X34102Y10319D01*
X34102Y10319D01*
X34103Y10320D01*
X34109Y10327D01*
X34115Y10335D01*
X34120Y10342D01*
X34124Y10350D01*
X34127Y10356D01*
X34129Y10358D01*
X34130Y10361D01*
X34131Y10362D01*
X34131Y10364D01*
X34132Y10365D01*
Y10365D01*
X34162D01*
X34160Y10359D01*
D02*
G37*
G36*
X34210Y10192D02*
X34222Y10192D01*
X34233Y10191D01*
X34243Y10189D01*
X34253Y10187D01*
X34261Y10185D01*
X34269Y10183D01*
X34275Y10180D01*
X34281Y10178D01*
X34286Y10176D01*
X34291Y10174D01*
X34294Y10172D01*
X34297Y10170D01*
X34299Y10169D01*
X34300Y10168D01*
X34300Y10168D01*
X34305Y10164D01*
X34309Y10160D01*
X34312Y10155D01*
X34315Y10150D01*
X34318Y10145D01*
X34320Y10141D01*
X34321Y10136D01*
X34323Y10132D01*
X34324Y10127D01*
X34325Y10123D01*
X34325Y10120D01*
X34326Y10117D01*
X34326Y10114D01*
Y10111D01*
X34325Y10101D01*
X34324Y10092D01*
X34321Y10084D01*
X34319Y10077D01*
X34316Y10072D01*
X34315Y10070D01*
X34314Y10068D01*
X34313Y10067D01*
X34312Y10066D01*
X34312Y10065D01*
Y10065D01*
X34305Y10058D01*
X34299Y10053D01*
X34292Y10048D01*
X34285Y10045D01*
X34279Y10042D01*
X34276Y10040D01*
X34274Y10040D01*
X34272Y10039D01*
X34270Y10038D01*
X34270Y10038D01*
X34269D01*
X34264Y10036D01*
X34258Y10034D01*
X34247Y10032D01*
X34235Y10030D01*
X34223Y10029D01*
X34218Y10029D01*
X34213Y10029D01*
X34209D01*
X34205Y10028D01*
X34202D01*
X34199D01*
X34198D01*
X34198D01*
X34191D01*
X34184Y10029D01*
X34178D01*
X34172Y10029D01*
X34167Y10030D01*
X34162Y10030D01*
X34158Y10030D01*
X34154Y10031D01*
X34150Y10032D01*
X34147Y10032D01*
X34144Y10033D01*
X34142Y10033D01*
X34140Y10033D01*
X34139Y10034D01*
X34139Y10034D01*
X34138D01*
X34130Y10036D01*
X34123Y10039D01*
X34117Y10042D01*
X34111Y10044D01*
X34107Y10046D01*
X34103Y10048D01*
X34102Y10049D01*
X34101Y10050D01*
X34095Y10054D01*
X34091Y10058D01*
X34087Y10062D01*
X34083Y10066D01*
X34080Y10070D01*
X34079Y10073D01*
X34077Y10074D01*
X34077Y10075D01*
Y10075D01*
X34074Y10081D01*
X34072Y10087D01*
X34071Y10093D01*
X34070Y10098D01*
X34069Y10103D01*
X34069Y10107D01*
Y10111D01*
X34069Y10120D01*
X34071Y10129D01*
X34073Y10137D01*
X34076Y10144D01*
X34079Y10149D01*
X34080Y10151D01*
X34081Y10153D01*
X34082Y10155D01*
X34083Y10156D01*
X34084Y10156D01*
Y10156D01*
X34089Y10163D01*
X34096Y10168D01*
X34103Y10173D01*
X34110Y10177D01*
X34116Y10180D01*
X34119Y10181D01*
X34121Y10182D01*
X34123Y10183D01*
X34124Y10183D01*
X34125Y10184D01*
X34126D01*
X34131Y10185D01*
X34136Y10187D01*
X34148Y10189D01*
X34160Y10191D01*
X34172Y10192D01*
X34177Y10192D01*
X34182Y10192D01*
X34186D01*
X34190Y10193D01*
X34193D01*
X34196D01*
X34197D01*
X34198D01*
X34210Y10192D01*
D02*
G37*
G36*
X39211Y10539D02*
X39211Y10531D01*
X39211Y10523D01*
X39210Y10516D01*
X39209Y10511D01*
X39209Y10505D01*
X39208Y10502D01*
X39208Y10501D01*
X39207Y10500D01*
Y10499D01*
X39206Y10492D01*
X39203Y10487D01*
X39202Y10481D01*
X39199Y10477D01*
X39198Y10473D01*
X39196Y10471D01*
X39195Y10469D01*
X39195Y10469D01*
X39191Y10464D01*
X39187Y10460D01*
X39184Y10456D01*
X39180Y10453D01*
X39177Y10450D01*
X39174Y10448D01*
X39173Y10446D01*
X39172Y10446D01*
X39166Y10442D01*
X39160Y10438D01*
X39154Y10436D01*
X39148Y10433D01*
X39143Y10431D01*
X39139Y10430D01*
X39138Y10429D01*
X39136Y10429D01*
X39136Y10429D01*
X39135D01*
X39127Y10426D01*
X39118Y10425D01*
X39110Y10424D01*
X39102Y10422D01*
X39095Y10422D01*
X39092D01*
X39089Y10422D01*
X39087D01*
X39086D01*
X39085D01*
X39084D01*
X39072Y10422D01*
X39061Y10423D01*
X39051Y10425D01*
X39046Y10426D01*
X39042Y10427D01*
X39038Y10428D01*
X39035Y10429D01*
X39032Y10429D01*
X39029Y10430D01*
X39027Y10431D01*
X39025Y10432D01*
X39025Y10432D01*
X39024D01*
X39015Y10436D01*
X39007Y10441D01*
X38999Y10446D01*
X38993Y10450D01*
X38988Y10455D01*
X38984Y10458D01*
X38983Y10460D01*
X38982Y10461D01*
X38982Y10461D01*
X38981Y10462D01*
X38977Y10468D01*
X38973Y10474D01*
X38970Y10480D01*
X38967Y10486D01*
X38965Y10491D01*
X38964Y10495D01*
X38964Y10496D01*
Y10497D01*
X38963Y10498D01*
Y10499D01*
X38962Y10505D01*
X38961Y10512D01*
X38960Y10519D01*
X38960Y10527D01*
X38960Y10533D01*
Y10630D01*
X39211D01*
Y10539D01*
D02*
G37*
G36*
X39151Y10388D02*
X39157Y10387D01*
X39167Y10384D01*
X39176Y10380D01*
X39180Y10377D01*
X39183Y10375D01*
X39186Y10373D01*
X39189Y10371D01*
X39191Y10369D01*
X39193Y10367D01*
X39195Y10366D01*
X39196Y10365D01*
X39197Y10365D01*
X39197Y10364D01*
X39200Y10360D01*
X39203Y10355D01*
X39206Y10351D01*
X39208Y10346D01*
X39211Y10337D01*
X39213Y10328D01*
X39214Y10324D01*
X39215Y10320D01*
X39215Y10317D01*
X39215Y10314D01*
X39216Y10311D01*
Y10308D01*
X39215Y10300D01*
X39214Y10293D01*
X39213Y10286D01*
X39211Y10280D01*
X39209Y10274D01*
X39206Y10268D01*
X39203Y10263D01*
X39201Y10259D01*
X39198Y10255D01*
X39195Y10251D01*
X39192Y10248D01*
X39190Y10246D01*
X39188Y10244D01*
X39187Y10243D01*
X39186Y10242D01*
X39185Y10242D01*
X39181Y10238D01*
X39175Y10235D01*
X39171Y10232D01*
X39166Y10230D01*
X39156Y10226D01*
X39146Y10224D01*
X39142Y10223D01*
X39138Y10223D01*
X39135Y10222D01*
X39132Y10222D01*
X39130Y10222D01*
X39128D01*
X39127D01*
X39126D01*
X39120Y10222D01*
X39114Y10223D01*
X39107Y10224D01*
X39102Y10225D01*
X39097Y10227D01*
X39092Y10229D01*
X39087Y10231D01*
X39083Y10233D01*
X39080Y10235D01*
X39076Y10237D01*
X39074Y10239D01*
X39071Y10241D01*
X39070Y10242D01*
X39068Y10243D01*
X39068Y10244D01*
X39067Y10244D01*
X39063Y10249D01*
X39060Y10253D01*
X39057Y10258D01*
X39054Y10263D01*
X39052Y10267D01*
X39050Y10272D01*
X39047Y10281D01*
X39046Y10285D01*
X39046Y10288D01*
X39045Y10292D01*
X39045Y10295D01*
X39044Y10297D01*
Y10305D01*
X39045Y10309D01*
X39047Y10318D01*
X39049Y10326D01*
X39052Y10333D01*
X39055Y10339D01*
X39057Y10342D01*
X39058Y10344D01*
X39059Y10346D01*
X39060Y10347D01*
X39060Y10347D01*
X39060Y10348D01*
X38992Y10334D01*
Y10234D01*
X38963D01*
Y10359D01*
X39092Y10383D01*
X39096Y10354D01*
X39092Y10351D01*
X39089Y10348D01*
X39086Y10345D01*
X39083Y10342D01*
X39082Y10339D01*
X39080Y10337D01*
X39079Y10336D01*
X39079Y10335D01*
X39076Y10331D01*
X39075Y10326D01*
X39074Y10322D01*
X39072Y10317D01*
X39072Y10314D01*
X39072Y10311D01*
Y10304D01*
X39072Y10299D01*
X39074Y10292D01*
X39077Y10285D01*
X39079Y10279D01*
X39082Y10275D01*
X39085Y10272D01*
X39087Y10270D01*
X39087Y10269D01*
X39087D01*
X39094Y10264D01*
X39100Y10260D01*
X39107Y10258D01*
X39114Y10256D01*
X39120Y10255D01*
X39122Y10255D01*
X39124D01*
X39126Y10254D01*
X39128D01*
X39128D01*
X39129D01*
X39134D01*
X39139Y10255D01*
X39148Y10257D01*
X39155Y10259D01*
X39162Y10262D01*
X39167Y10265D01*
X39171Y10267D01*
X39172Y10268D01*
X39173Y10269D01*
X39173Y10270D01*
X39174Y10270D01*
X39177Y10273D01*
X39179Y10276D01*
X39183Y10282D01*
X39186Y10288D01*
X39188Y10295D01*
X39190Y10300D01*
X39190Y10304D01*
X39190Y10306D01*
Y10308D01*
X39190Y10315D01*
X39189Y10321D01*
X39187Y10326D01*
X39185Y10331D01*
X39182Y10335D01*
X39181Y10338D01*
X39179Y10339D01*
X39179Y10340D01*
X39174Y10344D01*
X39168Y10348D01*
X39162Y10351D01*
X39157Y10353D01*
X39151Y10354D01*
X39147Y10355D01*
X39145Y10356D01*
X39144Y10356D01*
X39143D01*
X39143D01*
X39146Y10389D01*
X39151Y10388D01*
D02*
G37*
G36*
X43771Y10539D02*
X43770Y10531D01*
X43770Y10523D01*
X43769Y10516D01*
X43768Y10511D01*
X43768Y10505D01*
X43767Y10502D01*
X43767Y10501D01*
X43767Y10500D01*
Y10499D01*
X43765Y10492D01*
X43763Y10487D01*
X43761Y10481D01*
X43759Y10477D01*
X43757Y10473D01*
X43755Y10471D01*
X43754Y10469D01*
X43754Y10469D01*
X43751Y10464D01*
X43747Y10460D01*
X43743Y10456D01*
X43739Y10453D01*
X43736Y10450D01*
X43733Y10448D01*
X43732Y10446D01*
X43731Y10446D01*
X43725Y10442D01*
X43719Y10438D01*
X43713Y10436D01*
X43707Y10433D01*
X43702Y10431D01*
X43698Y10430D01*
X43697Y10429D01*
X43696Y10429D01*
X43695Y10429D01*
X43694D01*
X43686Y10426D01*
X43677Y10425D01*
X43669Y10424D01*
X43661Y10422D01*
X43654Y10422D01*
X43651D01*
X43648Y10422D01*
X43646D01*
X43645D01*
X43644D01*
X43643D01*
X43631Y10422D01*
X43620Y10423D01*
X43610Y10425D01*
X43605Y10426D01*
X43601Y10427D01*
X43597Y10428D01*
X43594Y10429D01*
X43591Y10429D01*
X43588Y10430D01*
X43586Y10431D01*
X43585Y10432D01*
X43584Y10432D01*
X43583D01*
X43574Y10436D01*
X43566Y10441D01*
X43558Y10446D01*
X43552Y10450D01*
X43547Y10455D01*
X43543Y10458D01*
X43542Y10460D01*
X43541Y10461D01*
X43541Y10461D01*
X43540Y10462D01*
X43536Y10468D01*
X43532Y10474D01*
X43529Y10480D01*
X43526Y10486D01*
X43524Y10491D01*
X43523Y10495D01*
X43523Y10496D01*
Y10497D01*
X43522Y10498D01*
Y10499D01*
X43521Y10505D01*
X43520Y10512D01*
X43519Y10519D01*
X43519Y10527D01*
X43519Y10533D01*
Y10630D01*
X43771D01*
Y10539D01*
D02*
G37*
G36*
X43665Y10390D02*
X43676Y10389D01*
X43686Y10388D01*
X43695Y10386D01*
X43704Y10384D01*
X43711Y10382D01*
X43718Y10380D01*
X43724Y10378D01*
X43729Y10375D01*
X43734Y10373D01*
X43738Y10371D01*
X43741Y10369D01*
X43744Y10368D01*
X43745Y10367D01*
X43746Y10366D01*
X43747Y10366D01*
X43752Y10361D01*
X43756Y10356D01*
X43760Y10351D01*
X43763Y10346D01*
X43766Y10340D01*
X43768Y10335D01*
X43770Y10330D01*
X43771Y10325D01*
X43772Y10321D01*
X43773Y10316D01*
X43774Y10313D01*
X43775Y10309D01*
Y10306D01*
X43775Y10305D01*
Y10303D01*
X43775Y10294D01*
X43773Y10287D01*
X43772Y10280D01*
X43769Y10274D01*
X43768Y10269D01*
X43766Y10265D01*
X43765Y10264D01*
X43765Y10263D01*
X43764Y10262D01*
Y10262D01*
X43760Y10256D01*
X43755Y10250D01*
X43750Y10245D01*
X43745Y10241D01*
X43740Y10238D01*
X43736Y10236D01*
X43735Y10235D01*
X43734Y10234D01*
X43733Y10234D01*
X43733D01*
X43725Y10230D01*
X43717Y10228D01*
X43710Y10226D01*
X43703Y10225D01*
X43697Y10224D01*
X43695D01*
X43693Y10223D01*
X43691D01*
X43690D01*
X43689D01*
X43689D01*
X43682Y10224D01*
X43676Y10224D01*
X43670Y10226D01*
X43665Y10227D01*
X43660Y10228D01*
X43654Y10230D01*
X43650Y10232D01*
X43646Y10234D01*
X43642Y10236D01*
X43639Y10238D01*
X43637Y10240D01*
X43634Y10242D01*
X43632Y10243D01*
X43631Y10244D01*
X43630Y10245D01*
X43630Y10245D01*
X43626Y10249D01*
X43622Y10254D01*
X43619Y10258D01*
X43617Y10263D01*
X43614Y10267D01*
X43613Y10271D01*
X43610Y10280D01*
X43609Y10283D01*
X43608Y10287D01*
X43608Y10290D01*
X43607Y10293D01*
X43607Y10295D01*
Y10298D01*
X43607Y10305D01*
X43609Y10311D01*
X43610Y10317D01*
X43611Y10322D01*
X43613Y10326D01*
X43614Y10329D01*
X43615Y10331D01*
X43615Y10332D01*
Y10332D01*
X43619Y10338D01*
X43623Y10343D01*
X43627Y10348D01*
X43631Y10351D01*
X43635Y10355D01*
X43638Y10357D01*
X43640Y10359D01*
X43641Y10359D01*
X43634D01*
X43627Y10359D01*
X43622Y10358D01*
X43616Y10358D01*
X43611Y10357D01*
X43606Y10357D01*
X43602Y10356D01*
X43598Y10355D01*
X43594Y10354D01*
X43591Y10353D01*
X43589Y10353D01*
X43586Y10352D01*
X43585Y10351D01*
X43584Y10351D01*
X43583Y10351D01*
X43583D01*
X43575Y10347D01*
X43569Y10343D01*
X43564Y10339D01*
X43559Y10336D01*
X43556Y10333D01*
X43553Y10330D01*
X43552Y10328D01*
X43551Y10327D01*
X43548Y10323D01*
X43547Y10319D01*
X43545Y10314D01*
X43544Y10310D01*
X43543Y10307D01*
X43543Y10304D01*
Y10301D01*
X43544Y10295D01*
X43545Y10288D01*
X43547Y10283D01*
X43550Y10279D01*
X43552Y10275D01*
X43554Y10272D01*
X43556Y10271D01*
X43556Y10270D01*
X43560Y10268D01*
X43564Y10265D01*
X43568Y10263D01*
X43573Y10262D01*
X43577Y10260D01*
X43580Y10259D01*
X43582Y10259D01*
X43582Y10258D01*
X43583D01*
X43580Y10227D01*
X43570Y10230D01*
X43561Y10233D01*
X43553Y10236D01*
X43546Y10240D01*
X43541Y10244D01*
X43539Y10246D01*
X43537Y10248D01*
X43536Y10249D01*
X43535Y10250D01*
X43535Y10250D01*
X43534Y10251D01*
X43531Y10254D01*
X43529Y10258D01*
X43524Y10266D01*
X43522Y10274D01*
X43520Y10282D01*
X43518Y10289D01*
X43518Y10292D01*
Y10294D01*
X43518Y10297D01*
Y10299D01*
X43518Y10307D01*
X43519Y10314D01*
X43520Y10320D01*
X43522Y10326D01*
X43524Y10332D01*
X43527Y10337D01*
X43530Y10342D01*
X43532Y10346D01*
X43535Y10350D01*
X43538Y10354D01*
X43540Y10357D01*
X43542Y10359D01*
X43544Y10361D01*
X43546Y10362D01*
X43546Y10363D01*
X43547Y10363D01*
X43553Y10368D01*
X43561Y10372D01*
X43569Y10375D01*
X43577Y10379D01*
X43586Y10381D01*
X43595Y10384D01*
X43604Y10385D01*
X43612Y10387D01*
X43621Y10388D01*
X43628Y10389D01*
X43635Y10389D01*
X43641Y10390D01*
X43646D01*
X43650Y10390D01*
X43651D01*
X43652D01*
X43653D01*
X43653D01*
X43665Y10390D01*
D02*
G37*
G36*
X48665Y10539D02*
X48664Y10531D01*
X48664Y10523D01*
X48663Y10516D01*
X48662Y10511D01*
X48662Y10505D01*
X48661Y10502D01*
X48661Y10501D01*
X48661Y10500D01*
Y10499D01*
X48659Y10492D01*
X48657Y10487D01*
X48655Y10481D01*
X48653Y10477D01*
X48651Y10473D01*
X48649Y10471D01*
X48648Y10469D01*
X48648Y10469D01*
X48645Y10464D01*
X48641Y10460D01*
X48637Y10456D01*
X48633Y10453D01*
X48630Y10450D01*
X48628Y10448D01*
X48626Y10446D01*
X48625Y10446D01*
X48619Y10442D01*
X48613Y10438D01*
X48607Y10436D01*
X48601Y10433D01*
X48596Y10431D01*
X48592Y10430D01*
X48591Y10429D01*
X48590Y10429D01*
X48589Y10429D01*
X48589D01*
X48580Y10426D01*
X48571Y10425D01*
X48563Y10424D01*
X48555Y10422D01*
X48548Y10422D01*
X48545D01*
X48542Y10422D01*
X48541D01*
X48539D01*
X48538D01*
X48538D01*
X48525Y10422D01*
X48514Y10423D01*
X48504Y10425D01*
X48499Y10426D01*
X48495Y10427D01*
X48491Y10428D01*
X48488Y10429D01*
X48485Y10429D01*
X48482Y10430D01*
X48480Y10431D01*
X48479Y10432D01*
X48478Y10432D01*
X48478D01*
X48468Y10436D01*
X48460Y10441D01*
X48452Y10446D01*
X48446Y10450D01*
X48441Y10455D01*
X48438Y10458D01*
X48436Y10460D01*
X48435Y10461D01*
X48435Y10461D01*
X48435Y10462D01*
X48430Y10468D01*
X48426Y10474D01*
X48423Y10480D01*
X48420Y10486D01*
X48419Y10491D01*
X48418Y10495D01*
X48417Y10496D01*
Y10497D01*
X48416Y10498D01*
Y10499D01*
X48415Y10505D01*
X48414Y10512D01*
X48414Y10519D01*
X48413Y10527D01*
X48413Y10533D01*
Y10630D01*
X48665D01*
Y10539D01*
D02*
G37*
G36*
X48503Y10359D02*
X48500Y10354D01*
X48498Y10349D01*
X48495Y10343D01*
X48493Y10339D01*
X48491Y10335D01*
X48490Y10333D01*
X48489Y10333D01*
Y10333D01*
X48485Y10326D01*
X48481Y10320D01*
X48478Y10315D01*
X48474Y10311D01*
X48472Y10307D01*
X48470Y10305D01*
X48468Y10303D01*
X48468Y10303D01*
X48665D01*
Y10272D01*
X48412D01*
Y10292D01*
X48418Y10296D01*
X48424Y10300D01*
X48430Y10305D01*
X48435Y10309D01*
X48439Y10313D01*
X48443Y10317D01*
X48444Y10318D01*
X48445Y10319D01*
X48445Y10319D01*
X48446Y10320D01*
X48452Y10327D01*
X48458Y10335D01*
X48463Y10342D01*
X48467Y10350D01*
X48470Y10356D01*
X48472Y10358D01*
X48473Y10361D01*
X48474Y10362D01*
X48474Y10364D01*
X48475Y10365D01*
Y10365D01*
X48505D01*
X48503Y10359D01*
D02*
G37*
G36*
Y10164D02*
X48500Y10158D01*
X48498Y10153D01*
X48495Y10148D01*
X48493Y10143D01*
X48491Y10140D01*
X48490Y10137D01*
X48489Y10137D01*
Y10137D01*
X48485Y10130D01*
X48481Y10124D01*
X48478Y10119D01*
X48474Y10115D01*
X48472Y10112D01*
X48470Y10109D01*
X48468Y10108D01*
X48468Y10107D01*
X48665D01*
Y10076D01*
X48412D01*
Y10096D01*
X48418Y10100D01*
X48424Y10104D01*
X48430Y10109D01*
X48435Y10113D01*
X48439Y10117D01*
X48443Y10121D01*
X48444Y10122D01*
X48445Y10123D01*
X48445Y10124D01*
X48446Y10124D01*
X48452Y10132D01*
X48458Y10139D01*
X48463Y10147D01*
X48467Y10154D01*
X48470Y10160D01*
X48472Y10163D01*
X48473Y10165D01*
X48474Y10167D01*
X48474Y10168D01*
X48475Y10169D01*
Y10169D01*
X48505D01*
X48503Y10164D01*
D02*
G37*
G36*
X53224Y10539D02*
X53223Y10531D01*
X53223Y10523D01*
X53222Y10516D01*
X53222Y10511D01*
X53221Y10505D01*
X53220Y10502D01*
X53220Y10501D01*
X53220Y10500D01*
Y10499D01*
X53218Y10492D01*
X53216Y10487D01*
X53214Y10481D01*
X53212Y10477D01*
X53210Y10473D01*
X53208Y10471D01*
X53207Y10469D01*
X53207Y10469D01*
X53204Y10464D01*
X53200Y10460D01*
X53196Y10456D01*
X53192Y10453D01*
X53189Y10450D01*
X53187Y10448D01*
X53185Y10446D01*
X53184Y10446D01*
X53178Y10442D01*
X53172Y10438D01*
X53166Y10436D01*
X53160Y10433D01*
X53155Y10431D01*
X53151Y10430D01*
X53150Y10429D01*
X53149Y10429D01*
X53148Y10429D01*
X53148D01*
X53139Y10426D01*
X53130Y10425D01*
X53122Y10424D01*
X53114Y10422D01*
X53107Y10422D01*
X53104D01*
X53101Y10422D01*
X53100D01*
X53098D01*
X53097D01*
X53097D01*
X53084Y10422D01*
X53073Y10423D01*
X53063Y10425D01*
X53058Y10426D01*
X53054Y10427D01*
X53050Y10428D01*
X53047Y10429D01*
X53044Y10429D01*
X53041Y10430D01*
X53039Y10431D01*
X53038Y10432D01*
X53037Y10432D01*
X53037D01*
X53027Y10436D01*
X53019Y10441D01*
X53012Y10446D01*
X53005Y10450D01*
X53000Y10455D01*
X52997Y10458D01*
X52995Y10460D01*
X52994Y10461D01*
X52994Y10461D01*
X52994Y10462D01*
X52989Y10468D01*
X52985Y10474D01*
X52982Y10480D01*
X52979Y10486D01*
X52978Y10491D01*
X52977Y10495D01*
X52976Y10496D01*
Y10497D01*
X52975Y10498D01*
Y10499D01*
X52974Y10505D01*
X52973Y10512D01*
X52973Y10519D01*
X52972Y10527D01*
X52972Y10533D01*
Y10630D01*
X53224D01*
Y10539D01*
D02*
G37*
G36*
X53062Y10359D02*
X53059Y10354D01*
X53057Y10349D01*
X53054Y10343D01*
X53052Y10339D01*
X53050Y10335D01*
X53049Y10333D01*
X53048Y10333D01*
Y10333D01*
X53044Y10326D01*
X53040Y10320D01*
X53037Y10315D01*
X53033Y10311D01*
X53031Y10307D01*
X53029Y10305D01*
X53027Y10303D01*
X53027Y10303D01*
X53224D01*
Y10272D01*
X52971D01*
Y10292D01*
X52977Y10296D01*
X52983Y10300D01*
X52989Y10305D01*
X52994Y10309D01*
X52998Y10313D01*
X53002Y10317D01*
X53003Y10318D01*
X53004Y10319D01*
X53004Y10319D01*
X53005Y10320D01*
X53011Y10327D01*
X53017Y10335D01*
X53022Y10342D01*
X53026Y10350D01*
X53029Y10356D01*
X53031Y10358D01*
X53032Y10361D01*
X53033Y10362D01*
X53033Y10364D01*
X53034Y10365D01*
Y10365D01*
X53064D01*
X53062Y10359D01*
D02*
G37*
G36*
X53224Y10030D02*
X53194D01*
Y10154D01*
X53188Y10150D01*
X53185Y10148D01*
X53183Y10146D01*
X53180Y10144D01*
X53179Y10143D01*
X53178Y10141D01*
X53177Y10141D01*
X53176Y10139D01*
X53174Y10137D01*
X53169Y10132D01*
X53164Y10126D01*
X53158Y10120D01*
X53153Y10114D01*
X53151Y10112D01*
X53149Y10109D01*
X53148Y10108D01*
X53147Y10106D01*
X53146Y10105D01*
X53145Y10105D01*
X53140Y10099D01*
X53136Y10093D01*
X53131Y10088D01*
X53127Y10084D01*
X53123Y10079D01*
X53119Y10076D01*
X53116Y10072D01*
X53113Y10069D01*
X53110Y10066D01*
X53108Y10064D01*
X53106Y10062D01*
X53104Y10060D01*
X53102Y10058D01*
X53101Y10058D01*
X53095Y10053D01*
X53090Y10048D01*
X53084Y10045D01*
X53080Y10042D01*
X53076Y10040D01*
X53073Y10038D01*
X53071Y10037D01*
X53070Y10037D01*
X53065Y10035D01*
X53060Y10033D01*
X53054Y10032D01*
X53050Y10031D01*
X53046Y10031D01*
X53043Y10030D01*
X53041D01*
X53041D01*
X53035Y10031D01*
X53030Y10032D01*
X53025Y10032D01*
X53021Y10034D01*
X53012Y10037D01*
X53005Y10041D01*
X53002Y10043D01*
X52999Y10045D01*
X52997Y10047D01*
X52995Y10049D01*
X52993Y10050D01*
X52992Y10051D01*
X52991Y10052D01*
X52991Y10052D01*
X52987Y10056D01*
X52984Y10060D01*
X52982Y10065D01*
X52979Y10070D01*
X52976Y10079D01*
X52973Y10089D01*
X52973Y10093D01*
X52972Y10097D01*
X52971Y10100D01*
X52971Y10103D01*
X52971Y10106D01*
Y10109D01*
X52971Y10116D01*
X52971Y10122D01*
X52973Y10128D01*
X52974Y10133D01*
X52975Y10139D01*
X52977Y10143D01*
X52978Y10148D01*
X52980Y10152D01*
X52982Y10155D01*
X52984Y10158D01*
X52985Y10161D01*
X52987Y10163D01*
X52988Y10165D01*
X52989Y10166D01*
X52989Y10167D01*
X52990Y10167D01*
X52993Y10171D01*
X52997Y10174D01*
X53002Y10177D01*
X53006Y10180D01*
X53015Y10184D01*
X53024Y10187D01*
X53028Y10188D01*
X53032Y10189D01*
X53035Y10190D01*
X53038Y10191D01*
X53040Y10191D01*
X53042D01*
X53043Y10191D01*
X53044D01*
X53047Y10160D01*
X53038Y10159D01*
X53031Y10157D01*
X53025Y10155D01*
X53020Y10153D01*
X53015Y10151D01*
X53012Y10148D01*
X53010Y10147D01*
X53010Y10146D01*
X53005Y10141D01*
X53002Y10135D01*
X53000Y10129D01*
X52998Y10123D01*
X52997Y10118D01*
X52997Y10114D01*
X52996Y10112D01*
Y10110D01*
X52997Y10102D01*
X52998Y10096D01*
X53000Y10090D01*
X53002Y10085D01*
X53005Y10081D01*
X53007Y10078D01*
X53008Y10076D01*
X53009Y10076D01*
X53014Y10071D01*
X53019Y10068D01*
X53024Y10065D01*
X53029Y10064D01*
X53033Y10063D01*
X53037Y10062D01*
X53039Y10062D01*
X53040D01*
X53040D01*
X53046Y10063D01*
X53053Y10064D01*
X53060Y10067D01*
X53065Y10069D01*
X53070Y10072D01*
X53074Y10075D01*
X53076Y10076D01*
X53077Y10076D01*
X53077Y10077D01*
X53077D01*
X53081Y10080D01*
X53085Y10084D01*
X53090Y10088D01*
X53094Y10092D01*
X53103Y10101D01*
X53112Y10110D01*
X53116Y10115D01*
X53119Y10119D01*
X53123Y10123D01*
X53125Y10126D01*
X53128Y10129D01*
X53129Y10131D01*
X53131Y10132D01*
X53131Y10133D01*
X53139Y10142D01*
X53146Y10150D01*
X53152Y10157D01*
X53158Y10163D01*
X53163Y10167D01*
X53166Y10171D01*
X53168Y10172D01*
X53168Y10173D01*
X53169D01*
X53175Y10178D01*
X53181Y10182D01*
X53187Y10186D01*
X53192Y10189D01*
X53196Y10191D01*
X53199Y10192D01*
X53202Y10193D01*
X53202Y10194D01*
X53202D01*
X53206Y10195D01*
X53210Y10196D01*
X53214Y10196D01*
X53217Y10197D01*
X53220Y10197D01*
X53222D01*
X53223D01*
X53224D01*
Y10030D01*
D02*
G37*
%LPC*%
G36*
X53832Y31142D02*
X53830D01*
X53829D01*
X53829D01*
X53823Y31142D01*
X53818Y31140D01*
X53813Y31138D01*
X53809Y31136D01*
X53805Y31134D01*
X53803Y31132D01*
X53801Y31131D01*
X53801Y31130D01*
X53797Y31126D01*
X53795Y31121D01*
X53793Y31116D01*
X53791Y31112D01*
X53791Y31107D01*
X53790Y31104D01*
X53790Y31102D01*
Y31101D01*
X53790Y31094D01*
X53792Y31089D01*
X53793Y31084D01*
X53796Y31079D01*
X53797Y31076D01*
X53799Y31073D01*
X53801Y31072D01*
X53801Y31071D01*
X53805Y31068D01*
X53811Y31065D01*
X53815Y31063D01*
X53820Y31061D01*
X53824Y31061D01*
X53827Y31060D01*
X53830Y31060D01*
X53830D01*
X53830D01*
X53836Y31060D01*
X53841Y31062D01*
X53846Y31064D01*
X53850Y31066D01*
X53853Y31068D01*
X53856Y31069D01*
X53857Y31071D01*
X53858Y31071D01*
X53862Y31076D01*
X53864Y31081D01*
X53866Y31086D01*
X53868Y31090D01*
X53868Y31095D01*
X53869Y31098D01*
Y31101D01*
X53869Y31107D01*
X53867Y31113D01*
X53866Y31118D01*
X53863Y31122D01*
X53861Y31125D01*
X53859Y31128D01*
X53858Y31130D01*
X53858Y31130D01*
X53853Y31134D01*
X53848Y31137D01*
X53843Y31139D01*
X53839Y31141D01*
X53835Y31141D01*
X53832Y31142D01*
D02*
G37*
G36*
X53715Y31152D02*
X53714D01*
X53713D01*
X53713D01*
X53705Y31152D01*
X53698Y31150D01*
X53692Y31148D01*
X53687Y31145D01*
X53683Y31142D01*
X53680Y31140D01*
X53678Y31138D01*
X53677Y31138D01*
X53672Y31132D01*
X53669Y31126D01*
X53666Y31120D01*
X53665Y31114D01*
X53664Y31109D01*
X53663Y31105D01*
X53663Y31103D01*
Y31101D01*
X53663Y31096D01*
X53664Y31091D01*
X53665Y31086D01*
X53666Y31082D01*
X53667Y31079D01*
X53668Y31076D01*
X53669Y31075D01*
X53669Y31074D01*
X53672Y31070D01*
X53675Y31066D01*
X53678Y31063D01*
X53682Y31060D01*
X53684Y31058D01*
X53686Y31057D01*
X53688Y31056D01*
X53689Y31056D01*
X53693Y31054D01*
X53698Y31052D01*
X53702Y31051D01*
X53706Y31050D01*
X53709Y31050D01*
X53712Y31050D01*
X53713D01*
X53714D01*
X53722Y31050D01*
X53729Y31052D01*
X53735Y31054D01*
X53740Y31057D01*
X53744Y31060D01*
X53748Y31062D01*
X53749Y31063D01*
X53750Y31064D01*
X53755Y31069D01*
X53759Y31076D01*
X53761Y31081D01*
X53763Y31087D01*
X53764Y31092D01*
X53764Y31096D01*
X53765Y31098D01*
Y31100D01*
X53764Y31108D01*
X53763Y31115D01*
X53760Y31122D01*
X53757Y31127D01*
X53755Y31132D01*
X53752Y31135D01*
X53751Y31137D01*
X53750Y31137D01*
X53744Y31142D01*
X53738Y31146D01*
X53732Y31149D01*
X53726Y31151D01*
X53721Y31152D01*
X53717Y31152D01*
X53715Y31152D01*
D02*
G37*
G36*
X53772Y30756D02*
X53770D01*
X53769D01*
X53768D01*
X53767D01*
X53757Y30756D01*
X53748Y30755D01*
X53740Y30754D01*
X53732Y30752D01*
X53725Y30749D01*
X53719Y30747D01*
X53712Y30744D01*
X53707Y30742D01*
X53702Y30739D01*
X53698Y30736D01*
X53695Y30734D01*
X53692Y30732D01*
X53690Y30730D01*
X53688Y30728D01*
X53687Y30727D01*
X53687Y30727D01*
X53693Y30719D01*
X53697Y30712D01*
X53701Y30704D01*
X53705Y30696D01*
X53708Y30689D01*
X53709Y30686D01*
X53709Y30684D01*
X53710Y30682D01*
X53710Y30681D01*
X53711Y30679D01*
Y30679D01*
X53687Y30671D01*
X53685Y30677D01*
X53683Y30683D01*
X53680Y30689D01*
X53678Y30694D01*
X53676Y30698D01*
X53674Y30701D01*
X53673Y30703D01*
X53672Y30704D01*
X53670Y30698D01*
X53669Y30692D01*
X53667Y30686D01*
X53666Y30681D01*
X53666Y30677D01*
X53666Y30673D01*
Y30670D01*
X53666Y30663D01*
X53667Y30657D01*
X53668Y30650D01*
X53670Y30644D01*
X53672Y30639D01*
X53674Y30634D01*
X53676Y30629D01*
X53679Y30625D01*
X53681Y30621D01*
X53684Y30618D01*
X53686Y30615D01*
X53688Y30612D01*
X53689Y30610D01*
X53691Y30609D01*
X53692Y30608D01*
X53692Y30608D01*
X53697Y30603D01*
X53703Y30600D01*
X53709Y30596D01*
X53715Y30594D01*
X53721Y30591D01*
X53727Y30590D01*
X53740Y30587D01*
X53745Y30586D01*
X53751Y30585D01*
X53755Y30584D01*
X53759Y30584D01*
X53763Y30584D01*
X53765D01*
X53767D01*
X53767D01*
X53776Y30584D01*
X53785Y30585D01*
X53793Y30586D01*
X53800Y30588D01*
X53807Y30590D01*
X53814Y30591D01*
X53819Y30594D01*
X53824Y30596D01*
X53829Y30598D01*
X53833Y30601D01*
X53836Y30602D01*
X53839Y30605D01*
X53841Y30606D01*
X53842Y30607D01*
X53843Y30608D01*
X53843Y30608D01*
X53848Y30613D01*
X53852Y30618D01*
X53855Y30623D01*
X53858Y30628D01*
X53861Y30634D01*
X53863Y30639D01*
X53864Y30643D01*
X53866Y30649D01*
X53867Y30653D01*
X53868Y30657D01*
X53868Y30661D01*
X53869Y30664D01*
X53869Y30666D01*
Y30670D01*
X53869Y30679D01*
X53867Y30688D01*
X53865Y30696D01*
X53863Y30702D01*
X53860Y30708D01*
X53859Y30710D01*
X53859Y30712D01*
X53858Y30713D01*
X53857Y30714D01*
X53856Y30715D01*
Y30715D01*
X53851Y30722D01*
X53846Y30728D01*
X53840Y30734D01*
X53834Y30738D01*
X53829Y30741D01*
X53824Y30744D01*
X53823Y30745D01*
X53822Y30745D01*
X53821Y30746D01*
X53821D01*
X53812Y30749D01*
X53803Y30752D01*
X53794Y30754D01*
X53785Y30755D01*
X53782Y30756D01*
X53778Y30756D01*
X53775D01*
X53772Y30756D01*
D02*
G37*
G36*
X29278Y32869D02*
X29272D01*
X29269Y32869D01*
X29262Y32867D01*
X29256Y32864D01*
X29251Y32862D01*
X29247Y32859D01*
X29244Y32856D01*
X29243Y32854D01*
X29242Y32854D01*
Y32854D01*
X29237Y32848D01*
X29233Y32841D01*
X29231Y32833D01*
X29229Y32826D01*
X29228Y32821D01*
X29228Y32818D01*
Y32816D01*
X29228Y32814D01*
Y32812D01*
Y32812D01*
Y32811D01*
X29228Y32802D01*
X29230Y32793D01*
X29232Y32786D01*
X29235Y32781D01*
X29237Y32776D01*
X29240Y32773D01*
X29241Y32770D01*
X29242Y32770D01*
X29247Y32765D01*
X29253Y32761D01*
X29259Y32758D01*
X29265Y32757D01*
X29269Y32755D01*
X29274Y32755D01*
X29275Y32755D01*
X29277D01*
X29285Y32755D01*
X29292Y32757D01*
X29298Y32759D01*
X29303Y32762D01*
X29307Y32765D01*
X29311Y32767D01*
X29312Y32769D01*
X29313Y32770D01*
X29318Y32775D01*
X29322Y32782D01*
X29324Y32789D01*
X29326Y32795D01*
X29327Y32800D01*
X29327Y32802D01*
Y32805D01*
X29327Y32806D01*
Y32808D01*
Y32808D01*
Y32809D01*
X29327Y32818D01*
X29325Y32827D01*
X29323Y32834D01*
X29320Y32841D01*
X29317Y32846D01*
X29315Y32849D01*
X29314Y32850D01*
X29313Y32852D01*
X29312Y32852D01*
Y32852D01*
X29310Y32855D01*
X29307Y32858D01*
X29300Y32862D01*
X29294Y32865D01*
X29288Y32867D01*
X29284Y32869D01*
X29280Y32869D01*
X29278Y32869D01*
D02*
G37*
G36*
X5960Y10596D02*
X5767D01*
Y10538D01*
X5768Y10533D01*
Y10529D01*
X5768Y10524D01*
X5769Y10517D01*
X5770Y10511D01*
X5771Y10507D01*
X5772Y10503D01*
X5773Y10501D01*
X5773Y10501D01*
X5776Y10494D01*
X5780Y10488D01*
X5785Y10483D01*
X5790Y10478D01*
X5794Y10474D01*
X5798Y10471D01*
X5799Y10470D01*
X5800Y10470D01*
X5801Y10469D01*
X5801D01*
X5805Y10467D01*
X5810Y10465D01*
X5819Y10461D01*
X5830Y10459D01*
X5839Y10457D01*
X5844Y10457D01*
X5848Y10457D01*
X5852Y10456D01*
X5855D01*
X5858Y10456D01*
X5860D01*
X5861D01*
X5862D01*
X5872Y10456D01*
X5881Y10457D01*
X5890Y10458D01*
X5897Y10459D01*
X5900Y10460D01*
X5902Y10461D01*
X5905Y10461D01*
X5907Y10462D01*
X5908Y10462D01*
X5909Y10462D01*
X5910Y10463D01*
X5910D01*
X5917Y10465D01*
X5924Y10468D01*
X5929Y10472D01*
X5934Y10474D01*
X5937Y10477D01*
X5940Y10479D01*
X5941Y10481D01*
X5942Y10481D01*
X5945Y10485D01*
X5948Y10488D01*
X5950Y10492D01*
X5952Y10496D01*
X5953Y10499D01*
X5955Y10501D01*
X5955Y10503D01*
X5955Y10504D01*
X5957Y10509D01*
X5958Y10516D01*
X5959Y10523D01*
X5959Y10529D01*
X5959Y10534D01*
X5960Y10537D01*
Y10596D01*
D02*
G37*
G36*
X10840D02*
X10647D01*
Y10538D01*
X10648Y10533D01*
Y10529D01*
X10648Y10524D01*
X10649Y10517D01*
X10650Y10511D01*
X10651Y10507D01*
X10652Y10503D01*
X10652Y10501D01*
X10653Y10501D01*
X10656Y10494D01*
X10660Y10488D01*
X10665Y10483D01*
X10670Y10478D01*
X10674Y10474D01*
X10678Y10471D01*
X10679Y10470D01*
X10680Y10470D01*
X10681Y10469D01*
X10681D01*
X10685Y10467D01*
X10690Y10465D01*
X10699Y10461D01*
X10710Y10459D01*
X10719Y10457D01*
X10724Y10457D01*
X10728Y10457D01*
X10732Y10456D01*
X10735D01*
X10738Y10456D01*
X10740D01*
X10741D01*
X10742D01*
X10752Y10456D01*
X10761Y10457D01*
X10770Y10458D01*
X10777Y10459D01*
X10780Y10460D01*
X10782Y10461D01*
X10785Y10461D01*
X10787Y10462D01*
X10788Y10462D01*
X10789Y10462D01*
X10790Y10463D01*
X10790D01*
X10797Y10465D01*
X10804Y10468D01*
X10809Y10472D01*
X10814Y10474D01*
X10817Y10477D01*
X10820Y10479D01*
X10821Y10481D01*
X10822Y10481D01*
X10825Y10485D01*
X10828Y10488D01*
X10830Y10492D01*
X10832Y10496D01*
X10833Y10499D01*
X10834Y10501D01*
X10835Y10503D01*
X10835Y10504D01*
X10837Y10509D01*
X10838Y10516D01*
X10838Y10523D01*
X10839Y10529D01*
X10839Y10534D01*
X10840Y10537D01*
Y10596D01*
D02*
G37*
G36*
X15461D02*
X15269D01*
Y10538D01*
X15269Y10533D01*
Y10529D01*
X15270Y10524D01*
X15271Y10517D01*
X15272Y10511D01*
X15273Y10507D01*
X15274Y10503D01*
X15274Y10501D01*
X15274Y10501D01*
X15278Y10494D01*
X15282Y10488D01*
X15286Y10483D01*
X15291Y10478D01*
X15296Y10474D01*
X15299Y10471D01*
X15301Y10470D01*
X15302Y10470D01*
X15302Y10469D01*
X15303D01*
X15307Y10467D01*
X15312Y10465D01*
X15321Y10461D01*
X15331Y10459D01*
X15341Y10457D01*
X15345Y10457D01*
X15350Y10457D01*
X15353Y10456D01*
X15357D01*
X15360Y10456D01*
X15361D01*
X15363D01*
X15363D01*
X15373Y10456D01*
X15383Y10457D01*
X15391Y10458D01*
X15399Y10459D01*
X15401Y10460D01*
X15404Y10461D01*
X15407Y10461D01*
X15408Y10462D01*
X15410Y10462D01*
X15411Y10462D01*
X15412Y10463D01*
X15412D01*
X15419Y10465D01*
X15425Y10468D01*
X15431Y10472D01*
X15435Y10474D01*
X15439Y10477D01*
X15442Y10479D01*
X15443Y10481D01*
X15444Y10481D01*
X15447Y10485D01*
X15449Y10488D01*
X15451Y10492D01*
X15454Y10496D01*
X15455Y10499D01*
X15456Y10501D01*
X15456Y10503D01*
X15457Y10504D01*
X15458Y10509D01*
X15459Y10516D01*
X15460Y10523D01*
X15460Y10529D01*
X15461Y10534D01*
X15461Y10537D01*
Y10596D01*
D02*
G37*
G36*
X15303Y10347D02*
X15303D01*
X15302D01*
X15297Y10347D01*
X15292Y10345D01*
X15287Y10343D01*
X15283Y10341D01*
X15280Y10339D01*
X15277Y10338D01*
X15276Y10336D01*
X15275Y10336D01*
X15271Y10331D01*
X15268Y10326D01*
X15266Y10321D01*
X15265Y10317D01*
X15264Y10312D01*
X15264Y10309D01*
Y10306D01*
X15264Y10300D01*
X15265Y10294D01*
X15267Y10289D01*
X15269Y10285D01*
X15272Y10282D01*
X15273Y10279D01*
X15275Y10277D01*
X15275Y10277D01*
X15280Y10273D01*
X15285Y10270D01*
X15289Y10268D01*
X15294Y10266D01*
X15298Y10266D01*
X15301Y10265D01*
X15303D01*
X15304D01*
X15304D01*
X15310Y10265D01*
X15315Y10267D01*
X15320Y10268D01*
X15324Y10271D01*
X15327Y10273D01*
X15329Y10275D01*
X15331Y10276D01*
X15332Y10276D01*
X15335Y10281D01*
X15338Y10286D01*
X15340Y10291D01*
X15341Y10295D01*
X15342Y10300D01*
X15343Y10303D01*
X15343Y10305D01*
Y10306D01*
X15343Y10313D01*
X15341Y10318D01*
X15339Y10323D01*
X15337Y10328D01*
X15335Y10331D01*
X15333Y10334D01*
X15332Y10335D01*
X15332Y10336D01*
X15327Y10339D01*
X15322Y10342D01*
X15317Y10344D01*
X15313Y10346D01*
X15309Y10346D01*
X15305Y10347D01*
X15303Y10347D01*
D02*
G37*
G36*
X15421Y10357D02*
X15419D01*
X15419D01*
X15411Y10357D01*
X15404Y10355D01*
X15398Y10353D01*
X15392Y10350D01*
X15388Y10347D01*
X15385Y10345D01*
X15383Y10344D01*
X15383Y10343D01*
X15378Y10338D01*
X15374Y10331D01*
X15372Y10326D01*
X15370Y10320D01*
X15369Y10315D01*
X15368Y10311D01*
X15368Y10309D01*
Y10307D01*
X15369Y10299D01*
X15370Y10292D01*
X15373Y10285D01*
X15375Y10280D01*
X15378Y10275D01*
X15381Y10272D01*
X15382Y10270D01*
X15383Y10270D01*
X15389Y10264D01*
X15395Y10261D01*
X15401Y10258D01*
X15407Y10256D01*
X15412Y10255D01*
X15416Y10255D01*
X15418Y10255D01*
X15419D01*
X15419D01*
X15420D01*
X15427Y10255D01*
X15435Y10257D01*
X15441Y10259D01*
X15446Y10262D01*
X15450Y10264D01*
X15453Y10267D01*
X15455Y10268D01*
X15456Y10269D01*
X15460Y10275D01*
X15464Y10281D01*
X15466Y10287D01*
X15468Y10293D01*
X15469Y10298D01*
X15470Y10302D01*
X15470Y10304D01*
Y10306D01*
X15470Y10311D01*
X15469Y10316D01*
X15468Y10321D01*
X15467Y10325D01*
X15466Y10328D01*
X15464Y10331D01*
X15464Y10332D01*
X15463Y10333D01*
X15460Y10337D01*
X15458Y10341D01*
X15454Y10344D01*
X15451Y10347D01*
X15448Y10349D01*
X15446Y10350D01*
X15444Y10351D01*
X15444Y10351D01*
X15439Y10353D01*
X15435Y10355D01*
X15431Y10356D01*
X15427Y10357D01*
X15423Y10357D01*
X15421Y10357D01*
D02*
G37*
G36*
X17867Y17923D02*
X17865D01*
X17863D01*
X17862D01*
X17862D01*
X17852Y17923D01*
X17843Y17922D01*
X17834Y17921D01*
X17826Y17919D01*
X17820Y17916D01*
X17813Y17914D01*
X17807Y17911D01*
X17801Y17909D01*
X17797Y17906D01*
X17793Y17903D01*
X17789Y17901D01*
X17786Y17899D01*
X17784Y17897D01*
X17782Y17895D01*
X17782Y17894D01*
X17781Y17894D01*
X17787Y17886D01*
X17792Y17879D01*
X17796Y17871D01*
X17800Y17863D01*
X17802Y17856D01*
X17803Y17853D01*
X17804Y17851D01*
X17805Y17849D01*
X17805Y17848D01*
X17805Y17846D01*
Y17846D01*
X17781Y17838D01*
X17780Y17844D01*
X17777Y17850D01*
X17775Y17856D01*
X17773Y17861D01*
X17770Y17865D01*
X17769Y17868D01*
X17767Y17870D01*
X17767Y17871D01*
X17765Y17865D01*
X17763Y17859D01*
X17762Y17853D01*
X17761Y17848D01*
X17761Y17844D01*
X17760Y17840D01*
Y17837D01*
X17761Y17830D01*
X17761Y17824D01*
X17763Y17817D01*
X17764Y17811D01*
X17766Y17806D01*
X17769Y17801D01*
X17771Y17796D01*
X17773Y17792D01*
X17776Y17788D01*
X17778Y17785D01*
X17780Y17782D01*
X17782Y17779D01*
X17784Y17777D01*
X17785Y17776D01*
X17786Y17775D01*
X17786Y17775D01*
X17792Y17770D01*
X17797Y17767D01*
X17803Y17764D01*
X17809Y17761D01*
X17816Y17758D01*
X17822Y17757D01*
X17834Y17754D01*
X17840Y17753D01*
X17845Y17752D01*
X17850Y17751D01*
X17854Y17751D01*
X17857Y17751D01*
X17860D01*
X17861D01*
X17862D01*
X17871Y17751D01*
X17880Y17752D01*
X17888Y17753D01*
X17895Y17755D01*
X17902Y17757D01*
X17908Y17758D01*
X17914Y17761D01*
X17919Y17763D01*
X17923Y17765D01*
X17927Y17767D01*
X17931Y17769D01*
X17933Y17772D01*
X17935Y17773D01*
X17937Y17774D01*
X17937Y17775D01*
X17938Y17775D01*
X17943Y17780D01*
X17946Y17785D01*
X17950Y17790D01*
X17953Y17795D01*
X17955Y17801D01*
X17958Y17806D01*
X17959Y17810D01*
X17960Y17816D01*
X17962Y17820D01*
X17962Y17824D01*
X17963Y17828D01*
X17963Y17831D01*
X17964Y17833D01*
Y17837D01*
X17963Y17846D01*
X17962Y17855D01*
X17960Y17863D01*
X17958Y17869D01*
X17955Y17875D01*
X17954Y17877D01*
X17953Y17879D01*
X17952Y17880D01*
X17952Y17881D01*
X17951Y17882D01*
Y17882D01*
X17946Y17889D01*
X17940Y17895D01*
X17934Y17901D01*
X17928Y17905D01*
X17923Y17908D01*
X17919Y17911D01*
X17917Y17912D01*
X17916Y17912D01*
X17916Y17913D01*
X17915D01*
X17907Y17916D01*
X17897Y17919D01*
X17888Y17921D01*
X17880Y17922D01*
X17876Y17923D01*
X17873Y17923D01*
X17870D01*
X17867Y17923D01*
D02*
G37*
G36*
X29733Y10596D02*
X29541D01*
Y10538D01*
X29541Y10533D01*
Y10529D01*
X29541Y10524D01*
X29542Y10517D01*
X29543Y10511D01*
X29544Y10507D01*
X29545Y10503D01*
X29546Y10501D01*
X29546Y10501D01*
X29549Y10494D01*
X29553Y10488D01*
X29558Y10483D01*
X29563Y10478D01*
X29567Y10474D01*
X29571Y10471D01*
X29572Y10470D01*
X29573Y10470D01*
X29574Y10469D01*
X29574D01*
X29578Y10467D01*
X29583Y10465D01*
X29593Y10461D01*
X29603Y10459D01*
X29613Y10457D01*
X29617Y10457D01*
X29621Y10457D01*
X29625Y10456D01*
X29628D01*
X29631Y10456D01*
X29633D01*
X29635D01*
X29635D01*
X29645Y10456D01*
X29655Y10457D01*
X29663Y10458D01*
X29670Y10459D01*
X29673Y10460D01*
X29676Y10461D01*
X29678Y10461D01*
X29680Y10462D01*
X29681Y10462D01*
X29683Y10462D01*
X29683Y10463D01*
X29684D01*
X29691Y10465D01*
X29697Y10468D01*
X29702Y10472D01*
X29707Y10475D01*
X29711Y10477D01*
X29713Y10479D01*
X29715Y10481D01*
X29715Y10481D01*
X29718Y10485D01*
X29721Y10488D01*
X29723Y10492D01*
X29725Y10496D01*
X29727Y10499D01*
X29728Y10501D01*
X29728Y10503D01*
X29728Y10504D01*
X29730Y10509D01*
X29731Y10516D01*
X29732Y10523D01*
X29732Y10529D01*
X29732Y10534D01*
X29733Y10537D01*
Y10596D01*
D02*
G37*
G36*
X29598Y10357D02*
X29597D01*
X29596D01*
X29596D01*
X29586Y10356D01*
X29578Y10355D01*
X29570Y10352D01*
X29564Y10349D01*
X29559Y10347D01*
X29555Y10344D01*
X29554Y10343D01*
X29553Y10343D01*
X29553Y10342D01*
X29552D01*
X29549Y10339D01*
X29546Y10336D01*
X29542Y10330D01*
X29539Y10324D01*
X29537Y10318D01*
X29536Y10313D01*
X29536Y10309D01*
X29535Y10308D01*
Y10302D01*
X29536Y10298D01*
X29538Y10292D01*
X29540Y10286D01*
X29543Y10281D01*
X29546Y10277D01*
X29548Y10274D01*
X29550Y10272D01*
X29550Y10271D01*
X29551D01*
X29557Y10267D01*
X29564Y10263D01*
X29571Y10260D01*
X29578Y10259D01*
X29584Y10258D01*
X29586Y10258D01*
X29589D01*
X29591Y10257D01*
X29592D01*
X29593D01*
X29593D01*
X29603Y10258D01*
X29611Y10259D01*
X29618Y10262D01*
X29624Y10264D01*
X29629Y10267D01*
X29632Y10269D01*
X29634Y10271D01*
X29635Y10271D01*
X29640Y10277D01*
X29644Y10283D01*
X29646Y10288D01*
X29648Y10294D01*
X29649Y10299D01*
X29649Y10303D01*
X29650Y10305D01*
Y10307D01*
X29649Y10314D01*
X29648Y10321D01*
X29645Y10327D01*
X29642Y10333D01*
X29640Y10337D01*
X29637Y10340D01*
X29636Y10342D01*
X29635Y10343D01*
X29629Y10347D01*
X29623Y10351D01*
X29616Y10353D01*
X29610Y10355D01*
X29604Y10356D01*
X29602Y10357D01*
X29600D01*
X29598Y10357D01*
D02*
G37*
G36*
X31733Y38337D02*
X31541D01*
Y38279D01*
X31541Y38274D01*
Y38269D01*
X31541Y38265D01*
X31543Y38257D01*
X31543Y38252D01*
X31544Y38247D01*
X31545Y38244D01*
X31546Y38242D01*
X31546Y38241D01*
X31549Y38235D01*
X31553Y38228D01*
X31558Y38223D01*
X31563Y38218D01*
X31567Y38215D01*
X31571Y38212D01*
X31572Y38211D01*
X31573Y38210D01*
X31574Y38209D01*
X31575D01*
X31579Y38207D01*
X31583Y38205D01*
X31593Y38202D01*
X31603Y38200D01*
X31613Y38198D01*
X31617Y38197D01*
X31622Y38197D01*
X31625Y38197D01*
X31628D01*
X31631Y38196D01*
X31633D01*
X31635D01*
X31635D01*
X31645Y38197D01*
X31655Y38197D01*
X31663Y38198D01*
X31670Y38200D01*
X31673Y38200D01*
X31676Y38201D01*
X31678Y38202D01*
X31680Y38202D01*
X31682Y38203D01*
X31683Y38203D01*
X31683Y38203D01*
X31684D01*
X31691Y38206D01*
X31697Y38209D01*
X31702Y38212D01*
X31707Y38215D01*
X31711Y38217D01*
X31713Y38220D01*
X31715Y38221D01*
X31715Y38221D01*
X31718Y38225D01*
X31721Y38229D01*
X31723Y38232D01*
X31725Y38236D01*
X31727Y38239D01*
X31728Y38242D01*
X31728Y38244D01*
X31729Y38244D01*
X31730Y38250D01*
X31731Y38256D01*
X31732Y38263D01*
X31732Y38269D01*
X31733Y38275D01*
X31733Y38277D01*
Y38337D01*
D02*
G37*
G36*
X31684Y37899D02*
X31682D01*
X31681D01*
X31672Y37898D01*
X31665Y37897D01*
X31658Y37894D01*
X31652Y37892D01*
X31648Y37889D01*
X31644Y37887D01*
X31643Y37885D01*
X31642Y37884D01*
X31637Y37879D01*
X31633Y37873D01*
X31630Y37867D01*
X31628Y37861D01*
X31627Y37856D01*
X31627Y37852D01*
X31627Y37851D01*
Y37849D01*
X31627Y37841D01*
X31629Y37834D01*
X31631Y37828D01*
X31634Y37823D01*
X31637Y37819D01*
X31639Y37816D01*
X31641Y37814D01*
X31642Y37814D01*
X31648Y37809D01*
X31655Y37805D01*
X31662Y37803D01*
X31668Y37801D01*
X31674Y37800D01*
X31676Y37800D01*
X31679D01*
X31681Y37800D01*
X31682D01*
X31683D01*
X31683D01*
X31693Y37800D01*
X31701Y37802D01*
X31709Y37804D01*
X31715Y37806D01*
X31719Y37809D01*
X31723Y37812D01*
X31725Y37813D01*
X31726Y37814D01*
X31726D01*
X31729Y37816D01*
X31731Y37819D01*
X31735Y37825D01*
X31738Y37831D01*
X31740Y37836D01*
X31741Y37841D01*
X31741Y37844D01*
X31742Y37846D01*
Y37848D01*
X31741Y37853D01*
X31741Y37857D01*
X31739Y37862D01*
X31738Y37865D01*
X31737Y37869D01*
X31735Y37871D01*
X31734Y37873D01*
X31734Y37873D01*
X31731Y37878D01*
X31727Y37881D01*
X31723Y37885D01*
X31720Y37887D01*
X31717Y37889D01*
X31714Y37891D01*
X31713Y37892D01*
X31712Y37892D01*
X31706Y37895D01*
X31701Y37896D01*
X31696Y37897D01*
X31691Y37898D01*
X31687Y37899D01*
X31684Y37899D01*
D02*
G37*
G36*
X33737Y38337D02*
X33545D01*
Y38279D01*
X33545Y38274D01*
Y38269D01*
X33546Y38265D01*
X33547Y38257D01*
X33548Y38252D01*
X33549Y38247D01*
X33550Y38244D01*
X33550Y38242D01*
X33551Y38241D01*
X33554Y38235D01*
X33558Y38228D01*
X33563Y38223D01*
X33567Y38218D01*
X33572Y38215D01*
X33575Y38212D01*
X33577Y38211D01*
X33578Y38210D01*
X33579Y38209D01*
X33579D01*
X33583Y38207D01*
X33588Y38205D01*
X33597Y38202D01*
X33607Y38200D01*
X33617Y38198D01*
X33622Y38197D01*
X33626Y38197D01*
X33630Y38197D01*
X33633D01*
X33636Y38196D01*
X33638D01*
X33639D01*
X33639D01*
X33650Y38197D01*
X33659Y38197D01*
X33667Y38198D01*
X33675Y38200D01*
X33678Y38200D01*
X33680Y38201D01*
X33683Y38202D01*
X33685Y38202D01*
X33686Y38203D01*
X33687Y38203D01*
X33688Y38203D01*
X33688D01*
X33695Y38206D01*
X33701Y38209D01*
X33707Y38212D01*
X33711Y38215D01*
X33715Y38217D01*
X33718Y38220D01*
X33719Y38221D01*
X33720Y38221D01*
X33723Y38225D01*
X33725Y38229D01*
X33727Y38232D01*
X33730Y38236D01*
X33731Y38239D01*
X33732Y38242D01*
X33733Y38244D01*
X33733Y38244D01*
X33734Y38250D01*
X33735Y38256D01*
X33736Y38263D01*
X33737Y38269D01*
X33737Y38275D01*
X33737Y38277D01*
Y38337D01*
D02*
G37*
G36*
X33678Y37913D02*
X33565Y37834D01*
X33678D01*
Y37913D01*
D02*
G37*
G36*
X36431Y18296D02*
X36429D01*
X36429D01*
X36428D01*
X36418Y18295D01*
X36410Y18294D01*
X36403Y18292D01*
X36397Y18289D01*
X36392Y18286D01*
X36388Y18284D01*
X36386Y18283D01*
X36386Y18282D01*
X36385D01*
X36382Y18279D01*
X36380Y18277D01*
X36376Y18271D01*
X36374Y18265D01*
X36371Y18260D01*
X36370Y18255D01*
X36370Y18251D01*
X36370Y18250D01*
Y18248D01*
X36370Y18243D01*
X36371Y18238D01*
X36372Y18234D01*
X36374Y18230D01*
X36375Y18227D01*
X36376Y18224D01*
X36377Y18223D01*
X36377Y18222D01*
X36381Y18218D01*
X36384Y18214D01*
X36388Y18211D01*
X36391Y18208D01*
X36394Y18206D01*
X36397Y18205D01*
X36399Y18204D01*
X36400Y18203D01*
X36405Y18201D01*
X36410Y18200D01*
X36416Y18198D01*
X36420Y18198D01*
X36424Y18197D01*
X36428Y18197D01*
X36429D01*
X36430D01*
X36439Y18198D01*
X36446Y18199D01*
X36453Y18202D01*
X36459Y18204D01*
X36464Y18207D01*
X36467Y18209D01*
X36469Y18211D01*
X36469Y18211D01*
X36474Y18217D01*
X36478Y18223D01*
X36481Y18229D01*
X36483Y18235D01*
X36484Y18240D01*
X36484Y18243D01*
X36485Y18245D01*
Y18247D01*
X36484Y18255D01*
X36482Y18262D01*
X36480Y18267D01*
X36477Y18273D01*
X36474Y18277D01*
X36472Y18279D01*
X36470Y18281D01*
X36469Y18282D01*
X36463Y18287D01*
X36457Y18290D01*
X36450Y18293D01*
X36443Y18294D01*
X36437Y18295D01*
X36435Y18296D01*
X36433D01*
X36431Y18296D01*
D02*
G37*
G36*
X36479Y17901D02*
X36477D01*
X36476D01*
X36474D01*
X36474D01*
X36464Y17900D01*
X36455Y17899D01*
X36447Y17898D01*
X36439Y17896D01*
X36432Y17894D01*
X36425Y17891D01*
X36419Y17889D01*
X36414Y17886D01*
X36409Y17883D01*
X36405Y17881D01*
X36402Y17878D01*
X36399Y17876D01*
X36397Y17874D01*
X36395Y17873D01*
X36394Y17871D01*
X36394Y17871D01*
X36400Y17863D01*
X36404Y17856D01*
X36408Y17848D01*
X36412Y17840D01*
X36414Y17834D01*
X36416Y17831D01*
X36416Y17828D01*
X36417Y17826D01*
X36417Y17825D01*
X36418Y17824D01*
Y17823D01*
X36394Y17815D01*
X36392Y17822D01*
X36390Y17828D01*
X36387Y17833D01*
X36385Y17838D01*
X36383Y17842D01*
X36381Y17846D01*
X36379Y17847D01*
X36379Y17848D01*
X36377Y17842D01*
X36375Y17836D01*
X36374Y17831D01*
X36373Y17825D01*
X36373Y17821D01*
X36373Y17818D01*
Y17814D01*
X36373Y17807D01*
X36374Y17801D01*
X36375Y17795D01*
X36377Y17788D01*
X36379Y17783D01*
X36381Y17778D01*
X36383Y17773D01*
X36386Y17769D01*
X36388Y17765D01*
X36390Y17762D01*
X36393Y17759D01*
X36395Y17756D01*
X36396Y17755D01*
X36398Y17753D01*
X36398Y17752D01*
X36399Y17752D01*
X36404Y17748D01*
X36410Y17744D01*
X36416Y17741D01*
X36422Y17738D01*
X36428Y17736D01*
X36434Y17734D01*
X36446Y17731D01*
X36452Y17730D01*
X36457Y17729D01*
X36462Y17729D01*
X36466Y17728D01*
X36469Y17728D01*
X36472D01*
X36473D01*
X36474D01*
X36483Y17728D01*
X36492Y17729D01*
X36500Y17730D01*
X36507Y17732D01*
X36514Y17734D01*
X36520Y17736D01*
X36526Y17738D01*
X36531Y17740D01*
X36536Y17743D01*
X36540Y17745D01*
X36543Y17747D01*
X36545Y17749D01*
X36548Y17750D01*
X36549Y17751D01*
X36550Y17752D01*
X36550Y17752D01*
X36555Y17757D01*
X36559Y17762D01*
X36562Y17767D01*
X36565Y17772D01*
X36568Y17778D01*
X36570Y17783D01*
X36571Y17788D01*
X36573Y17793D01*
X36574Y17797D01*
X36575Y17801D01*
X36575Y17805D01*
X36576Y17808D01*
X36576Y17811D01*
Y17814D01*
X36576Y17823D01*
X36574Y17832D01*
X36572Y17840D01*
X36570Y17846D01*
X36567Y17852D01*
X36566Y17854D01*
X36565Y17856D01*
X36564Y17858D01*
X36564Y17859D01*
X36563Y17859D01*
Y17859D01*
X36558Y17866D01*
X36552Y17873D01*
X36547Y17878D01*
X36541Y17882D01*
X36536Y17886D01*
X36531Y17888D01*
X36530Y17889D01*
X36529Y17890D01*
X36528Y17890D01*
X36528D01*
X36519Y17894D01*
X36510Y17896D01*
X36501Y17898D01*
X36492Y17899D01*
X36489Y17900D01*
X36485Y17900D01*
X36482D01*
X36479Y17901D01*
D02*
G37*
G36*
X54371Y17055D02*
X54369D01*
X54367D01*
X54366D01*
X54366D01*
X54356Y17054D01*
X54347Y17054D01*
X54339Y17052D01*
X54331Y17050D01*
X54324Y17048D01*
X54317Y17045D01*
X54311Y17043D01*
X54306Y17040D01*
X54301Y17037D01*
X54297Y17035D01*
X54293Y17032D01*
X54291Y17030D01*
X54288Y17028D01*
X54287Y17027D01*
X54286Y17026D01*
X54285Y17025D01*
X54291Y17018D01*
X54296Y17010D01*
X54300Y17002D01*
X54304Y16994D01*
X54306Y16988D01*
X54307Y16985D01*
X54308Y16982D01*
X54309Y16981D01*
X54309Y16979D01*
X54310Y16978D01*
Y16978D01*
X54285Y16969D01*
X54284Y16976D01*
X54281Y16982D01*
X54279Y16987D01*
X54277Y16993D01*
X54275Y16997D01*
X54273Y17000D01*
X54271Y17002D01*
X54271Y17002D01*
X54269Y16997D01*
X54267Y16990D01*
X54266Y16985D01*
X54265Y16979D01*
X54265Y16975D01*
X54264Y16972D01*
Y16969D01*
X54265Y16962D01*
X54265Y16955D01*
X54267Y16949D01*
X54268Y16943D01*
X54271Y16937D01*
X54273Y16932D01*
X54275Y16927D01*
X54277Y16923D01*
X54280Y16919D01*
X54282Y16916D01*
X54284Y16913D01*
X54287Y16911D01*
X54288Y16909D01*
X54289Y16907D01*
X54290Y16907D01*
X54291Y16906D01*
X54296Y16902D01*
X54301Y16898D01*
X54307Y16895D01*
X54314Y16892D01*
X54320Y16890D01*
X54326Y16888D01*
X54338Y16885D01*
X54344Y16884D01*
X54349Y16884D01*
X54354Y16883D01*
X54358Y16883D01*
X54361Y16882D01*
X54364D01*
X54365D01*
X54366D01*
X54375Y16883D01*
X54384Y16883D01*
X54392Y16884D01*
X54399Y16886D01*
X54406Y16888D01*
X54412Y16890D01*
X54418Y16892D01*
X54423Y16895D01*
X54427Y16897D01*
X54431Y16899D01*
X54435Y16901D01*
X54437Y16903D01*
X54439Y16904D01*
X54441Y16906D01*
X54442Y16906D01*
X54442Y16907D01*
X54447Y16911D01*
X54450Y16916D01*
X54454Y16922D01*
X54457Y16927D01*
X54459Y16932D01*
X54462Y16937D01*
X54463Y16942D01*
X54465Y16947D01*
X54466Y16951D01*
X54466Y16955D01*
X54467Y16959D01*
X54467Y16962D01*
X54468Y16965D01*
Y16969D01*
X54467Y16978D01*
X54466Y16986D01*
X54464Y16994D01*
X54462Y17001D01*
X54459Y17006D01*
X54458Y17008D01*
X54457Y17010D01*
X54456Y17012D01*
X54456Y17013D01*
X54455Y17013D01*
Y17014D01*
X54450Y17021D01*
X54444Y17027D01*
X54438Y17032D01*
X54433Y17037D01*
X54427Y17040D01*
X54423Y17042D01*
X54422Y17043D01*
X54421Y17044D01*
X54420Y17044D01*
X54419D01*
X54411Y17048D01*
X54402Y17050D01*
X54392Y17052D01*
X54384Y17053D01*
X54380Y17054D01*
X54377Y17054D01*
X54374D01*
X54371Y17055D01*
D02*
G37*
G36*
X1301Y10643D02*
X1109D01*
Y10584D01*
X1109Y10580D01*
Y10575D01*
X1109Y10570D01*
X1110Y10563D01*
X1111Y10557D01*
X1112Y10553D01*
X1113Y10549D01*
X1114Y10548D01*
X1114Y10547D01*
X1117Y10540D01*
X1121Y10534D01*
X1126Y10529D01*
X1131Y10524D01*
X1135Y10520D01*
X1139Y10517D01*
X1140Y10517D01*
X1141Y10516D01*
X1142Y10515D01*
X1142D01*
X1146Y10513D01*
X1151Y10511D01*
X1161Y10508D01*
X1171Y10505D01*
X1181Y10504D01*
X1185Y10503D01*
X1189Y10503D01*
X1193Y10502D01*
X1196D01*
X1199Y10502D01*
X1201D01*
X1202D01*
X1203D01*
X1213Y10502D01*
X1223Y10503D01*
X1231Y10504D01*
X1238Y10505D01*
X1241Y10506D01*
X1244Y10507D01*
X1246Y10508D01*
X1248Y10508D01*
X1249Y10508D01*
X1251Y10509D01*
X1251Y10509D01*
X1252D01*
X1259Y10512D01*
X1265Y10514D01*
X1270Y10518D01*
X1275Y10521D01*
X1279Y10523D01*
X1281Y10525D01*
X1283Y10527D01*
X1283Y10527D01*
X1286Y10531D01*
X1289Y10534D01*
X1291Y10538D01*
X1293Y10542D01*
X1295Y10545D01*
X1296Y10548D01*
X1296Y10549D01*
X1296Y10550D01*
X1298Y10556D01*
X1299Y10562D01*
X1300Y10569D01*
X1300Y10575D01*
X1300Y10580D01*
X1301Y10583D01*
Y10643D01*
D02*
G37*
G36*
X20284Y10596D02*
X20092D01*
Y10538D01*
X20092Y10533D01*
Y10529D01*
X20093Y10524D01*
X20094Y10517D01*
X20094Y10511D01*
X20095Y10507D01*
X20097Y10503D01*
X20097Y10501D01*
X20097Y10501D01*
X20101Y10494D01*
X20105Y10488D01*
X20109Y10483D01*
X20114Y10478D01*
X20118Y10474D01*
X20122Y10471D01*
X20123Y10470D01*
X20125Y10470D01*
X20125Y10469D01*
X20126D01*
X20130Y10467D01*
X20134Y10465D01*
X20144Y10461D01*
X20154Y10459D01*
X20164Y10457D01*
X20168Y10457D01*
X20173Y10457D01*
X20176Y10456D01*
X20180D01*
X20182Y10456D01*
X20184D01*
X20186D01*
X20186D01*
X20196Y10456D01*
X20206Y10457D01*
X20214Y10458D01*
X20221Y10459D01*
X20224Y10460D01*
X20227Y10461D01*
X20229Y10461D01*
X20231Y10462D01*
X20233Y10462D01*
X20234Y10462D01*
X20234Y10463D01*
X20235D01*
X20242Y10465D01*
X20248Y10468D01*
X20253Y10472D01*
X20258Y10475D01*
X20262Y10477D01*
X20264Y10479D01*
X20266Y10481D01*
X20267Y10481D01*
X20269Y10485D01*
X20272Y10488D01*
X20274Y10492D01*
X20276Y10496D01*
X20278Y10499D01*
X20279Y10501D01*
X20279Y10503D01*
X20280Y10504D01*
X20281Y10509D01*
X20282Y10516D01*
X20283Y10523D01*
X20283Y10529D01*
X20284Y10534D01*
X20284Y10537D01*
Y10596D01*
D02*
G37*
G36*
X24847Y10596D02*
X24655D01*
Y10538D01*
X24656Y10533D01*
Y10529D01*
X24656Y10524D01*
X24657Y10517D01*
X24658Y10511D01*
X24659Y10507D01*
X24660Y10503D01*
X24660Y10501D01*
X24661Y10501D01*
X24664Y10494D01*
X24668Y10488D01*
X24673Y10483D01*
X24677Y10478D01*
X24682Y10474D01*
X24685Y10471D01*
X24687Y10470D01*
X24688Y10470D01*
X24689Y10469D01*
X24689D01*
X24693Y10467D01*
X24698Y10465D01*
X24707Y10461D01*
X24717Y10459D01*
X24727Y10457D01*
X24732Y10457D01*
X24736Y10457D01*
X24740Y10456D01*
X24743D01*
X24746Y10456D01*
X24748D01*
X24749D01*
X24750D01*
X24760Y10456D01*
X24769Y10457D01*
X24778Y10458D01*
X24785Y10459D01*
X24788Y10460D01*
X24790Y10461D01*
X24793Y10461D01*
X24795Y10462D01*
X24796Y10462D01*
X24797Y10462D01*
X24798Y10463D01*
X24798D01*
X24805Y10465D01*
X24811Y10468D01*
X24817Y10472D01*
X24822Y10474D01*
X24825Y10477D01*
X24828Y10479D01*
X24829Y10481D01*
X24830Y10481D01*
X24833Y10485D01*
X24835Y10488D01*
X24838Y10492D01*
X24840Y10496D01*
X24841Y10499D01*
X24842Y10501D01*
X24843Y10503D01*
X24843Y10504D01*
X24845Y10509D01*
X24846Y10516D01*
X24846Y10523D01*
X24847Y10529D01*
X24847Y10534D01*
X24847Y10537D01*
Y10596D01*
D02*
G37*
G36*
X24788Y10369D02*
X24676Y10290D01*
X24788D01*
Y10369D01*
D02*
G37*
G36*
X32726Y38337D02*
X32534D01*
Y38279D01*
X32534Y38274D01*
Y38269D01*
X32534Y38265D01*
X32536Y38257D01*
X32536Y38252D01*
X32537Y38247D01*
X32538Y38244D01*
X32539Y38242D01*
X32539Y38241D01*
X32542Y38235D01*
X32546Y38228D01*
X32551Y38223D01*
X32556Y38218D01*
X32560Y38215D01*
X32564Y38212D01*
X32565Y38211D01*
X32566Y38210D01*
X32567Y38209D01*
X32568D01*
X32572Y38207D01*
X32576Y38205D01*
X32586Y38202D01*
X32596Y38200D01*
X32606Y38198D01*
X32610Y38197D01*
X32615Y38197D01*
X32618Y38197D01*
X32621D01*
X32624Y38196D01*
X32626D01*
X32628D01*
X32628D01*
X32638Y38197D01*
X32648Y38197D01*
X32656Y38198D01*
X32663Y38200D01*
X32666Y38200D01*
X32669Y38201D01*
X32671Y38202D01*
X32673Y38202D01*
X32675Y38203D01*
X32676Y38203D01*
X32676Y38203D01*
X32677D01*
X32684Y38206D01*
X32690Y38209D01*
X32695Y38212D01*
X32700Y38215D01*
X32704Y38217D01*
X32706Y38220D01*
X32708Y38221D01*
X32708Y38221D01*
X32711Y38225D01*
X32714Y38229D01*
X32716Y38232D01*
X32718Y38236D01*
X32720Y38239D01*
X32721Y38242D01*
X32721Y38244D01*
X32722Y38244D01*
X32723Y38250D01*
X32724Y38256D01*
X32725Y38263D01*
X32725Y38269D01*
X32726Y38275D01*
X32726Y38277D01*
Y38337D01*
D02*
G37*
G36*
X34292Y10596D02*
X34100D01*
Y10538D01*
X34100Y10533D01*
Y10529D01*
X34100Y10524D01*
X34102Y10517D01*
X34102Y10511D01*
X34103Y10507D01*
X34104Y10503D01*
X34105Y10501D01*
X34105Y10501D01*
X34108Y10494D01*
X34112Y10488D01*
X34117Y10483D01*
X34122Y10478D01*
X34126Y10474D01*
X34130Y10471D01*
X34131Y10470D01*
X34132Y10470D01*
X34133Y10469D01*
X34134D01*
X34138Y10467D01*
X34142Y10465D01*
X34152Y10461D01*
X34162Y10459D01*
X34172Y10457D01*
X34176Y10457D01*
X34180Y10457D01*
X34184Y10456D01*
X34187D01*
X34190Y10456D01*
X34192D01*
X34194D01*
X34194D01*
X34204Y10456D01*
X34214Y10457D01*
X34222Y10458D01*
X34229Y10459D01*
X34232Y10460D01*
X34235Y10461D01*
X34237Y10461D01*
X34239Y10462D01*
X34241Y10462D01*
X34242Y10462D01*
X34242Y10463D01*
X34243D01*
X34250Y10465D01*
X34256Y10468D01*
X34261Y10472D01*
X34266Y10475D01*
X34270Y10477D01*
X34272Y10479D01*
X34274Y10481D01*
X34274Y10481D01*
X34277Y10485D01*
X34280Y10488D01*
X34282Y10492D01*
X34284Y10496D01*
X34286Y10499D01*
X34287Y10501D01*
X34287Y10503D01*
X34288Y10504D01*
X34289Y10509D01*
X34290Y10516D01*
X34291Y10523D01*
X34291Y10529D01*
X34292Y10534D01*
X34292Y10537D01*
Y10596D01*
D02*
G37*
G36*
X34203Y10161D02*
X34200D01*
X34198D01*
X34198D01*
X34186Y10161D01*
X34176Y10160D01*
X34167Y10160D01*
X34158Y10159D01*
X34150Y10157D01*
X34143Y10156D01*
X34137Y10155D01*
X34132Y10153D01*
X34127Y10152D01*
X34123Y10151D01*
X34120Y10149D01*
X34117Y10148D01*
X34115Y10147D01*
X34114Y10146D01*
X34113Y10145D01*
X34112D01*
X34109Y10143D01*
X34106Y10140D01*
X34104Y10137D01*
X34102Y10135D01*
X34099Y10129D01*
X34096Y10123D01*
X34095Y10119D01*
X34095Y10115D01*
X34094Y10113D01*
Y10111D01*
X34095Y10107D01*
X34095Y10103D01*
X34096Y10099D01*
X34097Y10096D01*
X34101Y10090D01*
X34104Y10084D01*
X34108Y10080D01*
X34112Y10077D01*
X34113Y10076D01*
X34114Y10075D01*
X34115Y10074D01*
X34115D01*
X34119Y10072D01*
X34124Y10070D01*
X34130Y10068D01*
X34136Y10066D01*
X34143Y10065D01*
X34150Y10064D01*
X34164Y10062D01*
X34171Y10061D01*
X34177Y10061D01*
X34183Y10060D01*
X34187D01*
X34192Y10060D01*
X34195D01*
X34197D01*
X34197D01*
X34198D01*
X34209D01*
X34219Y10061D01*
X34228Y10061D01*
X34237Y10062D01*
X34244Y10063D01*
X34251Y10065D01*
X34257Y10066D01*
X34262Y10067D01*
X34267Y10069D01*
X34270Y10070D01*
X34274Y10071D01*
X34276Y10073D01*
X34278Y10073D01*
X34279Y10074D01*
X34280Y10075D01*
X34280D01*
X34284Y10078D01*
X34287Y10081D01*
X34290Y10084D01*
X34292Y10086D01*
X34296Y10093D01*
X34298Y10098D01*
X34300Y10103D01*
X34300Y10107D01*
X34301Y10108D01*
Y10111D01*
X34300Y10115D01*
X34300Y10118D01*
X34297Y10125D01*
X34294Y10131D01*
X34290Y10137D01*
X34287Y10141D01*
X34283Y10144D01*
X34281Y10146D01*
X34281Y10147D01*
X34280D01*
X34276Y10149D01*
X34271Y10151D01*
X34265Y10153D01*
X34259Y10155D01*
X34252Y10156D01*
X34245Y10157D01*
X34231Y10159D01*
X34225Y10160D01*
X34218Y10160D01*
X34213Y10161D01*
X34208D01*
X34203Y10161D01*
D02*
G37*
G36*
X39182Y10596D02*
X38989D01*
Y10538D01*
X38990Y10533D01*
Y10529D01*
X38990Y10524D01*
X38991Y10517D01*
X38992Y10511D01*
X38993Y10507D01*
X38994Y10503D01*
X38995Y10501D01*
X38995Y10501D01*
X38998Y10494D01*
X39002Y10488D01*
X39007Y10483D01*
X39012Y10478D01*
X39016Y10474D01*
X39020Y10471D01*
X39021Y10470D01*
X39022Y10470D01*
X39023Y10469D01*
X39023D01*
X39027Y10467D01*
X39032Y10465D01*
X39041Y10461D01*
X39052Y10459D01*
X39062Y10457D01*
X39066Y10457D01*
X39070Y10457D01*
X39074Y10456D01*
X39077D01*
X39080Y10456D01*
X39082D01*
X39083D01*
X39084D01*
X39094Y10456D01*
X39103Y10457D01*
X39112Y10458D01*
X39119Y10459D01*
X39122Y10460D01*
X39124Y10461D01*
X39127Y10461D01*
X39129Y10462D01*
X39130Y10462D01*
X39131Y10462D01*
X39132Y10463D01*
X39132D01*
X39139Y10465D01*
X39146Y10468D01*
X39151Y10472D01*
X39156Y10474D01*
X39159Y10477D01*
X39162Y10479D01*
X39163Y10481D01*
X39164Y10481D01*
X39167Y10485D01*
X39170Y10488D01*
X39172Y10492D01*
X39174Y10496D01*
X39175Y10499D01*
X39177Y10501D01*
X39177Y10503D01*
X39177Y10504D01*
X39179Y10509D01*
X39180Y10516D01*
X39181Y10523D01*
X39181Y10529D01*
X39181Y10534D01*
X39182Y10537D01*
Y10596D01*
D02*
G37*
G36*
X43741Y10596D02*
X43548D01*
Y10538D01*
X43549Y10533D01*
Y10529D01*
X43549Y10524D01*
X43550Y10517D01*
X43551Y10511D01*
X43552Y10507D01*
X43553Y10503D01*
X43554Y10501D01*
X43554Y10501D01*
X43557Y10494D01*
X43561Y10488D01*
X43566Y10483D01*
X43571Y10478D01*
X43575Y10474D01*
X43579Y10471D01*
X43580Y10470D01*
X43581Y10470D01*
X43582Y10469D01*
X43582D01*
X43586Y10467D01*
X43591Y10465D01*
X43601Y10461D01*
X43611Y10459D01*
X43621Y10457D01*
X43625Y10457D01*
X43629Y10457D01*
X43633Y10456D01*
X43636D01*
X43639Y10456D01*
X43641D01*
X43642D01*
X43643D01*
X43653Y10456D01*
X43662Y10457D01*
X43671Y10458D01*
X43678Y10459D01*
X43681Y10460D01*
X43684Y10461D01*
X43686Y10461D01*
X43688Y10462D01*
X43689Y10462D01*
X43690Y10462D01*
X43691Y10463D01*
X43692D01*
X43698Y10465D01*
X43705Y10468D01*
X43710Y10472D01*
X43715Y10475D01*
X43718Y10477D01*
X43721Y10479D01*
X43722Y10481D01*
X43723Y10481D01*
X43726Y10485D01*
X43729Y10488D01*
X43731Y10492D01*
X43733Y10496D01*
X43734Y10499D01*
X43736Y10501D01*
X43736Y10503D01*
X43736Y10504D01*
X43738Y10509D01*
X43739Y10516D01*
X43740Y10523D01*
X43740Y10529D01*
X43740Y10534D01*
X43741Y10537D01*
Y10596D01*
D02*
G37*
G36*
X43692Y10354D02*
X43690D01*
X43689D01*
X43680Y10354D01*
X43673Y10352D01*
X43666Y10350D01*
X43660Y10347D01*
X43656Y10345D01*
X43652Y10342D01*
X43650Y10341D01*
X43650Y10340D01*
X43645Y10334D01*
X43641Y10328D01*
X43638Y10322D01*
X43636Y10317D01*
X43635Y10311D01*
X43635Y10308D01*
X43634Y10306D01*
Y10304D01*
X43635Y10297D01*
X43637Y10290D01*
X43639Y10284D01*
X43642Y10279D01*
X43645Y10275D01*
X43647Y10272D01*
X43649Y10270D01*
X43650Y10269D01*
X43656Y10264D01*
X43662Y10261D01*
X43669Y10258D01*
X43676Y10257D01*
X43682Y10256D01*
X43684Y10255D01*
X43686D01*
X43688Y10255D01*
X43690D01*
X43690D01*
X43691D01*
X43701Y10256D01*
X43709Y10257D01*
X43716Y10259D01*
X43722Y10262D01*
X43727Y10265D01*
X43731Y10267D01*
X43733Y10268D01*
X43733Y10269D01*
X43734D01*
X43737Y10272D01*
X43739Y10275D01*
X43743Y10280D01*
X43745Y10286D01*
X43748Y10291D01*
X43749Y10296D01*
X43749Y10300D01*
X43749Y10301D01*
Y10303D01*
X43749Y10308D01*
X43748Y10313D01*
X43747Y10317D01*
X43745Y10321D01*
X43744Y10324D01*
X43743Y10327D01*
X43742Y10328D01*
X43742Y10329D01*
X43738Y10333D01*
X43735Y10337D01*
X43731Y10340D01*
X43728Y10343D01*
X43725Y10345D01*
X43722Y10346D01*
X43720Y10347D01*
X43720Y10348D01*
X43714Y10350D01*
X43709Y10351D01*
X43704Y10353D01*
X43699Y10354D01*
X43695Y10354D01*
X43692Y10354D01*
D02*
G37*
G36*
X48635Y10596D02*
X48443D01*
Y10538D01*
X48443Y10533D01*
Y10529D01*
X48443Y10524D01*
X48444Y10517D01*
X48445Y10511D01*
X48446Y10507D01*
X48447Y10503D01*
X48448Y10501D01*
X48448Y10501D01*
X48451Y10494D01*
X48455Y10488D01*
X48460Y10483D01*
X48465Y10478D01*
X48469Y10474D01*
X48473Y10471D01*
X48474Y10470D01*
X48475Y10470D01*
X48476Y10469D01*
X48476D01*
X48480Y10467D01*
X48485Y10465D01*
X48495Y10461D01*
X48505Y10459D01*
X48515Y10457D01*
X48519Y10457D01*
X48523Y10457D01*
X48527Y10456D01*
X48530D01*
X48533Y10456D01*
X48535D01*
X48537D01*
X48537D01*
X48547Y10456D01*
X48557Y10457D01*
X48565Y10458D01*
X48572Y10459D01*
X48575Y10460D01*
X48578Y10461D01*
X48580Y10461D01*
X48582Y10462D01*
X48583Y10462D01*
X48585Y10462D01*
X48585Y10463D01*
X48586D01*
X48593Y10465D01*
X48599Y10468D01*
X48604Y10472D01*
X48609Y10475D01*
X48613Y10477D01*
X48615Y10479D01*
X48617Y10481D01*
X48617Y10481D01*
X48620Y10485D01*
X48623Y10488D01*
X48625Y10492D01*
X48627Y10496D01*
X48629Y10499D01*
X48630Y10501D01*
X48630Y10503D01*
X48630Y10504D01*
X48632Y10509D01*
X48633Y10516D01*
X48634Y10523D01*
X48634Y10529D01*
X48634Y10534D01*
X48635Y10537D01*
Y10596D01*
D02*
G37*
G36*
X53194Y10596D02*
X53002D01*
Y10538D01*
X53002Y10533D01*
Y10529D01*
X53002Y10524D01*
X53004Y10517D01*
X53004Y10511D01*
X53005Y10507D01*
X53006Y10503D01*
X53007Y10501D01*
X53007Y10501D01*
X53010Y10494D01*
X53014Y10488D01*
X53019Y10483D01*
X53024Y10478D01*
X53028Y10474D01*
X53032Y10471D01*
X53033Y10470D01*
X53034Y10470D01*
X53035Y10469D01*
X53036D01*
X53040Y10467D01*
X53044Y10465D01*
X53054Y10461D01*
X53064Y10459D01*
X53074Y10457D01*
X53078Y10457D01*
X53082Y10457D01*
X53086Y10456D01*
X53089D01*
X53092Y10456D01*
X53094D01*
X53096D01*
X53096D01*
X53106Y10456D01*
X53116Y10457D01*
X53124Y10458D01*
X53131Y10459D01*
X53134Y10460D01*
X53137Y10461D01*
X53139Y10461D01*
X53141Y10462D01*
X53143Y10462D01*
X53144Y10462D01*
X53144Y10463D01*
X53145D01*
X53152Y10465D01*
X53158Y10468D01*
X53163Y10472D01*
X53168Y10474D01*
X53172Y10477D01*
X53174Y10479D01*
X53176Y10481D01*
X53176Y10481D01*
X53179Y10485D01*
X53182Y10488D01*
X53184Y10492D01*
X53186Y10496D01*
X53188Y10499D01*
X53189Y10501D01*
X53189Y10503D01*
X53190Y10504D01*
X53191Y10509D01*
X53192Y10516D01*
X53193Y10523D01*
X53193Y10529D01*
X53194Y10534D01*
X53194Y10537D01*
Y10596D01*
D02*
G37*
%LPD*%
D13*
X21741Y32915D02*
X21641Y32815D01*
X21441D01*
X21341Y32915D01*
Y33015D01*
X21441Y33115D01*
X21641D01*
X21741Y33215D01*
Y33315D01*
X21641Y33415D01*
X21441D01*
X21341Y33315D01*
X21941Y32815D02*
Y33415D01*
X22241D01*
X22341Y33315D01*
Y33215D01*
X22241Y33115D01*
X21941D01*
X22241D01*
X22341Y33015D01*
Y32915D01*
X22241Y32815D01*
X21941D01*
X22541Y33415D02*
X22741D01*
X22641D01*
Y32815D01*
X22541Y32915D01*
X23341Y33415D02*
Y32815D01*
X23041Y33115D01*
X23441D01*
X0Y0D02*
Y33465D01*
X66929Y0D02*
Y40551D01*
X44094Y42520D02*
X46063Y40551D01*
X12992D02*
X14961Y42520D01*
X0Y33465D02*
X7087Y40551D01*
X12992D01*
X46063D02*
X66929D01*
X0Y0D02*
X66929D01*
X14961Y42520D02*
X44094D01*
X10924Y21947D02*
X11252D01*
X11317Y21882D01*
Y21750D01*
X11252Y21685D01*
X10924D01*
X11317Y21291D02*
Y21554D01*
X11055Y21291D01*
X10989D01*
X10924Y21357D01*
Y21488D01*
X10989Y21554D01*
X29821Y21947D02*
X30149D01*
X30215Y21882D01*
Y21750D01*
X30149Y21685D01*
X29821D01*
X29887Y21554D02*
X29821Y21488D01*
Y21357D01*
X29887Y21291D01*
X29953D01*
X30018Y21357D01*
Y21422D01*
Y21357D01*
X30084Y21291D01*
X30149D01*
X30215Y21357D01*
Y21488D01*
X30149Y21554D01*
X48719Y21947D02*
X49047D01*
X49113Y21882D01*
Y21750D01*
X49047Y21685D01*
X48719D01*
X49113Y21357D02*
X48719D01*
X48916Y21554D01*
Y21291D01*
D16*
X54272Y29959D02*
Y31140D01*
X52972D02*
X54272D01*
X52972Y29959D02*
Y31140D01*
Y29959D02*
X54272D01*
X28193Y34458D02*
X31007D01*
X28193Y30817D02*
Y34458D01*
Y30817D02*
X31007D01*
Y34458D01*
X5699Y11063D02*
X6132D01*
Y10197D02*
Y11063D01*
X5699Y10197D02*
X6132D01*
X5699D02*
Y11063D01*
X10579D02*
X11012D01*
Y10197D02*
Y11063D01*
X10579Y10197D02*
X11012D01*
X10579D02*
Y11063D01*
X15205D02*
X15638D01*
Y10197D02*
Y11063D01*
X15205Y10197D02*
X15638D01*
X15205D02*
Y11063D01*
X17067Y17126D02*
X18366D01*
X17067D02*
Y18307D01*
X18366D01*
Y17126D02*
Y18307D01*
X29476Y11063D02*
X29909D01*
Y10197D02*
Y11063D01*
X29476Y10197D02*
X29909D01*
X29476D02*
Y11063D01*
X31476Y37937D02*
Y38803D01*
Y37937D02*
X31910D01*
Y38803D01*
X31476D02*
X31910D01*
X33476Y37937D02*
Y38803D01*
Y37937D02*
X33910D01*
Y38803D01*
X33476D02*
X33910D01*
X36978Y17103D02*
Y18284D01*
X35679D02*
X36978D01*
X35679Y17103D02*
Y18284D01*
Y17103D02*
X36978D01*
X54870Y16258D02*
Y17439D01*
X53571D02*
X54870D01*
X53571Y16258D02*
Y17439D01*
Y16258D02*
X54870D01*
X1040Y11109D02*
X1473D01*
Y10243D02*
Y11109D01*
X1040Y10243D02*
X1473D01*
X1040D02*
Y11109D01*
X20028Y11063D02*
X20461D01*
Y10197D02*
Y11063D01*
X20028Y10197D02*
X20461D01*
X20028D02*
Y11063D01*
X24587D02*
X25020D01*
Y10197D02*
Y11063D01*
X24587Y10197D02*
X25020D01*
X24587D02*
Y11063D01*
X32469Y38803D02*
X32903D01*
Y37937D02*
Y38803D01*
X32469Y37937D02*
X32903D01*
X32469D02*
Y38803D01*
X34035Y11063D02*
X34469D01*
Y10197D02*
Y11063D01*
X34035Y10197D02*
X34469D01*
X34035D02*
Y11063D01*
X38925D02*
X39358D01*
Y10197D02*
Y11063D01*
X38925Y10197D02*
X39358D01*
X38925D02*
Y11063D01*
X43484D02*
X43917D01*
Y10197D02*
Y11063D01*
X43484Y10197D02*
X43917D01*
X43484D02*
Y11063D01*
X48374D02*
X48807D01*
Y10197D02*
Y11063D01*
X48374Y10197D02*
X48807D01*
X48374D02*
Y11063D01*
X52933D02*
X53366D01*
Y10197D02*
Y11063D01*
X52933Y10197D02*
X53366D01*
X52933D02*
Y11063D01*
D18*
X57087Y3543D02*
X57085Y3643D01*
X57080Y3743D01*
X57072Y3843D01*
X57061Y3942D01*
X57047Y4041D01*
X57030Y4139D01*
X57009Y4237D01*
X56986Y4334D01*
X56959Y4431D01*
X56929Y4526D01*
X56897Y4621D01*
X56861Y4714D01*
X56822Y4806D01*
X56781Y4897D01*
X56736Y4987D01*
X56689Y5075D01*
X56639Y5161D01*
X56587Y5246D01*
X56531Y5329D01*
X56473Y5411D01*
X56413Y5490D01*
X56350Y5568D01*
X56284Y5643D01*
X56216Y5717D01*
X56146Y5788D01*
X56074Y5857D01*
X56000Y5924D01*
X55923Y5988D01*
X55844Y6050D01*
X55764Y6109D01*
X55682Y6166D01*
X55598Y6220D01*
X55512Y6271D01*
X55424Y6320D01*
X55336Y6365D01*
X55245Y6408D01*
X55154Y6448D01*
X55061Y6486D01*
X54967Y6520D01*
X54872Y6551D01*
X54776Y6579D01*
X54680Y6604D01*
X54582Y6626D01*
X54484Y6645D01*
X54385Y6661D01*
X54286Y6674D01*
X54187Y6683D01*
X54087Y6689D01*
X53987Y6693D01*
X53887D01*
X53787Y6689D01*
X53687Y6683D01*
X53588Y6674D01*
X53489Y6661D01*
X53390Y6645D01*
X53292Y6626D01*
X53194Y6604D01*
X53098Y6579D01*
X53002Y6551D01*
X52907Y6520D01*
X52813Y6486D01*
X52720Y6448D01*
X52629Y6408D01*
X52538Y6365D01*
X52450Y6320D01*
X52362Y6271D01*
X52276Y6220D01*
X52192Y6166D01*
X52110Y6109D01*
X52030Y6050D01*
X51951Y5988D01*
X51874Y5924D01*
X51800Y5857D01*
X51728Y5788D01*
X51658Y5717D01*
X51590Y5643D01*
X51524Y5568D01*
X51461Y5490D01*
X51401Y5411D01*
X51343Y5329D01*
X51287Y5246D01*
X51235Y5161D01*
X51185Y5075D01*
X51138Y4987D01*
X51093Y4897D01*
X51052Y4806D01*
X51013Y4714D01*
X50977Y4621D01*
X50945Y4526D01*
X50915Y4431D01*
X50888Y4334D01*
X50865Y4237D01*
X50844Y4139D01*
X50827Y4041D01*
X50813Y3942D01*
X50802Y3843D01*
X50794Y3743D01*
X50789Y3643D01*
X50787Y3543D01*
X50789Y3443D01*
X50794Y3344D01*
X50802Y3244D01*
X50813Y3145D01*
X50827Y3046D01*
X50844Y2947D01*
X50865Y2849D01*
X50888Y2752D01*
X50915Y2656D01*
X50945Y2561D01*
X50977Y2466D01*
X51013Y2373D01*
X51052Y2281D01*
X51093Y2190D01*
X51138Y2100D01*
X51185Y2012D01*
X51235Y1925D01*
X51287Y1841D01*
X51343Y1757D01*
X51401Y1676D01*
X51461Y1596D01*
X51524Y1519D01*
X51590Y1443D01*
X51658Y1370D01*
X51728Y1299D01*
X51800Y1230D01*
X51874Y1163D01*
X51951Y1099D01*
X52030Y1037D01*
X52110Y978D01*
X52192Y921D01*
X52276Y867D01*
X52362Y816D01*
X52450Y767D01*
X52538Y721D01*
X52629Y678D01*
X52720Y638D01*
X52813Y601D01*
X52907Y567D01*
X53002Y536D01*
X53098Y508D01*
X53194Y483D01*
X53292Y460D01*
X53390Y442D01*
X53489Y426D01*
X53588Y413D01*
X53687Y404D01*
X53787Y397D01*
X53887Y394D01*
X53987Y394D01*
X54087Y397D01*
X54187Y404D01*
X54286Y413D01*
X54385Y426D01*
X54484Y442D01*
X54582Y460D01*
X54680Y482D01*
X54776Y508D01*
X54872Y536D01*
X54967Y567D01*
X55061Y601D01*
X55154Y638D01*
X55245Y678D01*
X55336Y721D01*
X55424Y767D01*
X55512Y816D01*
X55598Y867D01*
X55682Y921D01*
X55764Y978D01*
X55844Y1037D01*
X55923Y1099D01*
X56000Y1163D01*
X56074Y1230D01*
X56146Y1299D01*
X56216Y1370D01*
X56284Y1443D01*
X56350Y1519D01*
X56413Y1596D01*
X56473Y1676D01*
X56531Y1757D01*
X56587Y1840D01*
X56639Y1925D01*
X56689Y2012D01*
X56736Y2100D01*
X56781Y2190D01*
X56822Y2281D01*
X56861Y2373D01*
X56897Y2466D01*
X56929Y2560D01*
X56959Y2656D01*
X56986Y2752D01*
X57009Y2849D01*
X57030Y2947D01*
X57047Y3046D01*
X57061Y3145D01*
X57072Y3244D01*
X57080Y3344D01*
X57085Y3443D01*
X57087Y3543D01*
X56213Y3543D02*
X56210Y3643D01*
X56204Y3743D01*
X56193Y3842D01*
X56178Y3941D01*
X56158Y4039D01*
X56134Y4136D01*
X56106Y4232D01*
X56073Y4327D01*
X56037Y4420D01*
X55996Y4511D01*
X55952Y4601D01*
X55904Y4688D01*
X55851Y4774D01*
X55795Y4856D01*
X55736Y4937D01*
X55673Y5015D01*
X55607Y5089D01*
X55537Y5161D01*
X55465Y5230D01*
X55389Y5295D01*
X55311Y5358D01*
X55230Y5416D01*
X55146Y5471D01*
X55060Y5522D01*
X54972Y5570D01*
X54882Y5613D01*
X54791Y5653D01*
X54697Y5688D01*
X54602Y5720D01*
X54506Y5747D01*
X54409Y5770D01*
X54310Y5788D01*
X54211Y5802D01*
X54112Y5812D01*
X54012Y5818D01*
X53912Y5819D01*
X53812Y5815D01*
X53712Y5808D01*
X53613Y5796D01*
X53515Y5779D01*
X53417Y5759D01*
X53320Y5734D01*
X53224Y5704D01*
X53130Y5671D01*
X53037Y5634D01*
X52946Y5592D01*
X52857Y5547D01*
X52770Y5497D01*
X52686Y5444D01*
X52604Y5387D01*
X52524Y5327D01*
X52447Y5263D01*
X52373Y5196D01*
X52302Y5126D01*
X52234Y5052D01*
X52169Y4976D01*
X52108Y4897D01*
X52050Y4815D01*
X51996Y4731D01*
X51946Y4645D01*
X51899Y4556D01*
X51857Y4466D01*
X51818Y4374D01*
X51784Y4280D01*
X51754Y4184D01*
X51728Y4088D01*
X51706Y3990D01*
X51688Y3892D01*
X51675Y3793D01*
X51666Y3693D01*
X51662Y3593D01*
Y3493D01*
X51666Y3393D01*
X51675Y3294D01*
X51688Y3195D01*
X51706Y3096D01*
X51728Y2999D01*
X51754Y2902D01*
X51784Y2807D01*
X51818Y2713D01*
X51857Y2621D01*
X51899Y2530D01*
X51946Y2442D01*
X51996Y2355D01*
X52050Y2271D01*
X52108Y2190D01*
X52169Y2111D01*
X52234Y2034D01*
X52302Y1961D01*
X52373Y1891D01*
X52447Y1824D01*
X52524Y1760D01*
X52604Y1699D01*
X52686Y1643D01*
X52770Y1589D01*
X52857Y1540D01*
X52946Y1495D01*
X53037Y1453D01*
X53130Y1416D01*
X53224Y1382D01*
X53320Y1353D01*
X53417Y1328D01*
X53515Y1307D01*
X53613Y1291D01*
X53712Y1279D01*
X53812Y1271D01*
X53912Y1268D01*
X54012Y1269D01*
X54112Y1274D01*
X54211Y1284D01*
X54310Y1299D01*
X54409Y1317D01*
X54506Y1340D01*
X54602Y1367D01*
X54697Y1398D01*
X54791Y1434D01*
X54882Y1473D01*
X54972Y1517D01*
X55060Y1564D01*
X55146Y1616D01*
X55230Y1671D01*
X55311Y1729D01*
X55389Y1791D01*
X55465Y1857D01*
X55537Y1925D01*
X55607Y1997D01*
X55673Y2072D01*
X55736Y2150D01*
X55795Y2230D01*
X55851Y2313D01*
X55904Y2398D01*
X55952Y2486D01*
X55996Y2575D01*
X56037Y2667D01*
X56073Y2760D01*
X56106Y2854D01*
X56134Y2950D01*
X56158Y3047D01*
X56178Y3145D01*
X56193Y3244D01*
X56204Y3344D01*
X56210Y3443D01*
X56213Y3543D01*
X38189Y3368D02*
X38187Y3468D01*
X38183Y3568D01*
X38175Y3667D01*
X38164Y3767D01*
X38149Y3865D01*
X38132Y3964D01*
X38112Y4062D01*
X38088Y4159D01*
X38061Y4255D01*
X38032Y4351D01*
X37999Y4445D01*
X37963Y4538D01*
X37925Y4631D01*
X37883Y4722D01*
X37839Y4811D01*
X37792Y4899D01*
X37742Y4986D01*
X37689Y5071D01*
X37634Y5154D01*
X37576Y5235D01*
X37515Y5315D01*
X37452Y5392D01*
X37387Y5468D01*
X37319Y5541D01*
X37249Y5613D01*
X37176Y5681D01*
X37102Y5748D01*
X37025Y5812D01*
X36947Y5874D01*
X36866Y5933D01*
X36784Y5990D01*
X36700Y6044D01*
X36614Y6095D01*
X36527Y6144D01*
X36438Y6190D01*
X36348Y6233D01*
X36256Y6273D01*
X36163Y6310D01*
X36070Y6344D01*
X35975Y6375D01*
X35879Y6404D01*
X35782Y6429D01*
X35684Y6451D01*
X35586Y6470D01*
X35488Y6485D01*
X35388Y6498D01*
X35289Y6508D01*
X35189Y6514D01*
X35089Y6517D01*
X34989D01*
X34890Y6514D01*
X34790Y6508D01*
X34690Y6498D01*
X34591Y6485D01*
X34492Y6470D01*
X34394Y6451D01*
X34297Y6429D01*
X34200Y6404D01*
X34104Y6375D01*
X34009Y6344D01*
X33915Y6310D01*
X33823Y6273D01*
X33731Y6233D01*
X33641Y6190D01*
X33552Y6144D01*
X33465Y6095D01*
X33379Y6044D01*
X33295Y5990D01*
X33212Y5933D01*
X33132Y5874D01*
X33053Y5812D01*
X32977Y5748D01*
X32902Y5681D01*
X32830Y5613D01*
X32760Y5541D01*
X32692Y5468D01*
X32627Y5392D01*
X32564Y5315D01*
X32503Y5235D01*
X32445Y5154D01*
X32390Y5071D01*
X32337Y4986D01*
X32287Y4899D01*
X32240Y4811D01*
X32196Y4722D01*
X32154Y4631D01*
X32115Y4538D01*
X32080Y4445D01*
X32047Y4351D01*
X32017Y4255D01*
X31991Y4159D01*
X31967Y4062D01*
X31947Y3964D01*
X31929Y3865D01*
X31915Y3767D01*
X31904Y3667D01*
X31896Y3568D01*
X31891Y3468D01*
X31890Y3368D01*
X31891Y3268D01*
X31896Y3168D01*
X31904Y3068D01*
X31915Y2969D01*
X31929Y2870D01*
X31947Y2772D01*
X31967Y2674D01*
X31991Y2577D01*
X32017Y2480D01*
X32047Y2385D01*
X32080Y2291D01*
X32115Y2197D01*
X32154Y2105D01*
X32196Y2014D01*
X32240Y1925D01*
X32287Y1837D01*
X32337Y1750D01*
X32390Y1665D01*
X32445Y1582D01*
X32503Y1500D01*
X32564Y1421D01*
X32627Y1343D01*
X32692Y1268D01*
X32760Y1194D01*
X32830Y1123D01*
X32902Y1054D01*
X32977Y988D01*
X33053Y923D01*
X33132Y861D01*
X33212Y802D01*
X33295Y746D01*
X33379Y692D01*
X33465Y640D01*
X33552Y592D01*
X33641Y546D01*
X33731Y503D01*
X33823Y463D01*
X33915Y426D01*
X34009Y391D01*
X34104Y360D01*
X34200Y332D01*
X34297Y307D01*
X34394Y285D01*
X34492Y266D01*
X34591Y250D01*
X34690Y238D01*
X34790Y228D01*
X34889Y222D01*
X34989Y219D01*
X35089Y219D01*
X35189Y222D01*
X35289Y228D01*
X35388Y238D01*
X35488Y250D01*
X35586Y266D01*
X35684Y285D01*
X35782Y307D01*
X35879Y332D01*
X35975Y360D01*
X36069Y391D01*
X36163Y426D01*
X36256Y463D01*
X36348Y503D01*
X36438Y546D01*
X36527Y592D01*
X36614Y640D01*
X36700Y692D01*
X36784Y746D01*
X36866Y802D01*
X36947Y861D01*
X37025Y923D01*
X37102Y988D01*
X37176Y1054D01*
X37249Y1123D01*
X37319Y1194D01*
X37387Y1268D01*
X37452Y1343D01*
X37515Y1421D01*
X37576Y1500D01*
X37634Y1582D01*
X37689Y1665D01*
X37742Y1750D01*
X37792Y1836D01*
X37839Y1925D01*
X37883Y2014D01*
X37925Y2105D01*
X37963Y2197D01*
X37999Y2291D01*
X38032Y2385D01*
X38061Y2480D01*
X38088Y2577D01*
X38112Y2674D01*
X38132Y2772D01*
X38149Y2870D01*
X38164Y2969D01*
X38175Y3068D01*
X38183Y3168D01*
X38187Y3268D01*
X38189Y3368D01*
X37315Y3368D02*
X37313Y3468D01*
X37306Y3568D01*
X37295Y3667D01*
X37280Y3766D01*
X37260Y3864D01*
X37236Y3961D01*
X37208Y4057D01*
X37176Y4151D01*
X37139Y4244D01*
X37099Y4336D01*
X37054Y4425D01*
X37006Y4513D01*
X36954Y4598D01*
X36898Y4681D01*
X36838Y4761D01*
X36775Y4839D01*
X36709Y4914D01*
X36640Y4986D01*
X36567Y5054D01*
X36491Y5120D01*
X36413Y5182D01*
X36332Y5241D01*
X36249Y5296D01*
X36163Y5347D01*
X36075Y5394D01*
X35985Y5438D01*
X35893Y5477D01*
X35799Y5513D01*
X35704Y5544D01*
X35608Y5571D01*
X35511Y5594D01*
X35413Y5613D01*
X35314Y5627D01*
X35214Y5637D01*
X35114Y5642D01*
X35014Y5643D01*
X34914Y5640D01*
X34815Y5632D01*
X34716Y5620D01*
X34617Y5604D01*
X34519Y5583D01*
X34422Y5558D01*
X34327Y5529D01*
X34232Y5496D01*
X34140Y5458D01*
X34049Y5417D01*
X33960Y5371D01*
X33873Y5322D01*
X33788Y5269D01*
X33706Y5212D01*
X33626Y5151D01*
X33549Y5088D01*
X33475Y5020D01*
X33404Y4950D01*
X33336Y4877D01*
X33271Y4801D01*
X33210Y4722D01*
X33153Y4640D01*
X33098Y4556D01*
X33048Y4469D01*
X33002Y4381D01*
X32959Y4290D01*
X32921Y4198D01*
X32886Y4104D01*
X32856Y4009D01*
X32830Y3912D01*
X32808Y3815D01*
X32791Y3716D01*
X32778Y3617D01*
X32769Y3518D01*
X32764Y3418D01*
Y3318D01*
X32769Y3218D01*
X32778Y3118D01*
X32791Y3019D01*
X32808Y2921D01*
X32830Y2823D01*
X32856Y2727D01*
X32886Y2631D01*
X32921Y2538D01*
X32959Y2445D01*
X33002Y2355D01*
X33048Y2266D01*
X33098Y2180D01*
X33153Y2096D01*
X33210Y2014D01*
X33271Y1935D01*
X33336Y1859D01*
X33404Y1785D01*
X33475Y1715D01*
X33549Y1648D01*
X33626Y1584D01*
X33706Y1524D01*
X33788Y1467D01*
X33873Y1414D01*
X33960Y1365D01*
X34049Y1319D01*
X34140Y1278D01*
X34232Y1240D01*
X34327Y1207D01*
X34422Y1177D01*
X34519Y1153D01*
X34617Y1132D01*
X34716Y1115D01*
X34815Y1103D01*
X34914Y1096D01*
X35014Y1092D01*
X35114Y1093D01*
X35214Y1099D01*
X35314Y1109D01*
X35413Y1123D01*
X35511Y1142D01*
X35608Y1164D01*
X35704Y1192D01*
X35799Y1223D01*
X35893Y1258D01*
X35985Y1298D01*
X36075Y1341D01*
X36163Y1389D01*
X36249Y1440D01*
X36332Y1495D01*
X36413Y1554D01*
X36491Y1616D01*
X36567Y1681D01*
X36640Y1750D01*
X36709Y1822D01*
X36775Y1897D01*
X36838Y1974D01*
X36898Y2055D01*
X36954Y2138D01*
X37006Y2223D01*
X37054Y2310D01*
X37099Y2400D01*
X37139Y2491D01*
X37176Y2584D01*
X37208Y2679D01*
X37236Y2775D01*
X37260Y2872D01*
X37280Y2970D01*
X37295Y3069D01*
X37306Y3168D01*
X37313Y3268D01*
X37315Y3368D01*
X19291Y3543D02*
X19290Y3643D01*
X19285Y3743D01*
X19277Y3843D01*
X19266Y3942D01*
X19252Y4041D01*
X19234Y4139D01*
X19214Y4237D01*
X19190Y4334D01*
X19164Y4431D01*
X19134Y4526D01*
X19101Y4621D01*
X19066Y4714D01*
X19027Y4806D01*
X18986Y4897D01*
X18941Y4987D01*
X18894Y5075D01*
X18844Y5161D01*
X18791Y5246D01*
X18736Y5329D01*
X18678Y5411D01*
X18617Y5490D01*
X18554Y5568D01*
X18489Y5643D01*
X18421Y5717D01*
X18351Y5788D01*
X18279Y5857D01*
X18204Y5924D01*
X18128Y5988D01*
X18049Y6050D01*
X17969Y6109D01*
X17886Y6166D01*
X17802Y6220D01*
X17717Y6271D01*
X17629Y6320D01*
X17540Y6365D01*
X17450Y6408D01*
X17359Y6448D01*
X17266Y6486D01*
X17172Y6520D01*
X17077Y6551D01*
X16981Y6579D01*
X16884Y6604D01*
X16787Y6626D01*
X16689Y6645D01*
X16590Y6661D01*
X16491Y6674D01*
X16391Y6683D01*
X16292Y6689D01*
X16192Y6693D01*
X16092D01*
X15992Y6689D01*
X15892Y6683D01*
X15793Y6674D01*
X15694Y6661D01*
X15595Y6645D01*
X15497Y6626D01*
X15399Y6604D01*
X15302Y6579D01*
X15207Y6551D01*
X15112Y6520D01*
X15018Y6486D01*
X14925Y6448D01*
X14833Y6408D01*
X14743Y6365D01*
X14654Y6320D01*
X14567Y6271D01*
X14481Y6220D01*
X14397Y6166D01*
X14315Y6109D01*
X14234Y6050D01*
X14156Y5988D01*
X14079Y5924D01*
X14005Y5857D01*
X13932Y5788D01*
X13862Y5717D01*
X13794Y5643D01*
X13729Y5568D01*
X13666Y5490D01*
X13605Y5411D01*
X13547Y5329D01*
X13492Y5246D01*
X13439Y5161D01*
X13389Y5075D01*
X13342Y4987D01*
X13298Y4897D01*
X13256Y4806D01*
X13218Y4714D01*
X13182Y4621D01*
X13149Y4526D01*
X13120Y4431D01*
X13093Y4334D01*
X13070Y4237D01*
X13049Y4139D01*
X13032Y4041D01*
X13017Y3942D01*
X13006Y3843D01*
X12998Y3743D01*
X12994Y3643D01*
X12992Y3543D01*
X12994Y3443D01*
X12998Y3344D01*
X13006Y3244D01*
X13017Y3145D01*
X13032Y3046D01*
X13049Y2947D01*
X13070Y2849D01*
X13093Y2752D01*
X13120Y2656D01*
X13149Y2561D01*
X13182Y2466D01*
X13218Y2373D01*
X13256Y2281D01*
X13298Y2190D01*
X13342Y2100D01*
X13389Y2012D01*
X13439Y1925D01*
X13492Y1841D01*
X13547Y1757D01*
X13605Y1676D01*
X13666Y1596D01*
X13729Y1519D01*
X13794Y1443D01*
X13862Y1370D01*
X13932Y1299D01*
X14005Y1230D01*
X14079Y1163D01*
X14156Y1099D01*
X14234Y1037D01*
X14315Y978D01*
X14397Y921D01*
X14481Y867D01*
X14567Y816D01*
X14654Y767D01*
X14743Y721D01*
X14833Y678D01*
X14925Y638D01*
X15018Y601D01*
X15112Y567D01*
X15207Y536D01*
X15302Y508D01*
X15399Y483D01*
X15497Y460D01*
X15595Y442D01*
X15693Y426D01*
X15793Y413D01*
X15892Y404D01*
X15992Y397D01*
X16092Y394D01*
X16192Y394D01*
X16292Y397D01*
X16391Y404D01*
X16491Y413D01*
X16590Y426D01*
X16689Y442D01*
X16787Y460D01*
X16884Y482D01*
X16981Y508D01*
X17077Y536D01*
X17172Y567D01*
X17266Y601D01*
X17359Y638D01*
X17450Y678D01*
X17540Y721D01*
X17629Y767D01*
X17717Y816D01*
X17802Y867D01*
X17886Y921D01*
X17969Y978D01*
X18049Y1037D01*
X18128Y1099D01*
X18204Y1163D01*
X18279Y1230D01*
X18351Y1299D01*
X18421Y1370D01*
X18489Y1443D01*
X18554Y1519D01*
X18617Y1596D01*
X18678Y1676D01*
X18736Y1757D01*
X18791Y1840D01*
X18844Y1925D01*
X18894Y2012D01*
X18941Y2100D01*
X18986Y2190D01*
X19027Y2281D01*
X19066Y2373D01*
X19101Y2466D01*
X19134Y2560D01*
X19164Y2656D01*
X19190Y2752D01*
X19214Y2849D01*
X19234Y2947D01*
X19252Y3046D01*
X19266Y3145D01*
X19277Y3244D01*
X19285Y3344D01*
X19290Y3443D01*
X19291Y3543D01*
X18417Y3543D02*
X18415Y3643D01*
X18409Y3743D01*
X18398Y3842D01*
X18382Y3941D01*
X18363Y4039D01*
X18339Y4136D01*
X18311Y4232D01*
X18278Y4327D01*
X18242Y4420D01*
X18201Y4511D01*
X18157Y4601D01*
X18108Y4688D01*
X18056Y4774D01*
X18000Y4856D01*
X17941Y4937D01*
X17878Y5015D01*
X17811Y5089D01*
X17742Y5161D01*
X17669Y5230D01*
X17594Y5295D01*
X17515Y5358D01*
X17434Y5416D01*
X17351Y5471D01*
X17265Y5522D01*
X17177Y5570D01*
X17087Y5613D01*
X16995Y5653D01*
X16902Y5688D01*
X16807Y5720D01*
X16711Y5747D01*
X16613Y5770D01*
X16515Y5788D01*
X16416Y5802D01*
X16317Y5812D01*
X16217Y5818D01*
X16117Y5819D01*
X16017Y5815D01*
X15917Y5808D01*
X15818Y5796D01*
X15719Y5779D01*
X15621Y5759D01*
X15525Y5734D01*
X15429Y5704D01*
X15335Y5671D01*
X15242Y5634D01*
X15151Y5592D01*
X15062Y5547D01*
X14975Y5497D01*
X14891Y5444D01*
X14808Y5387D01*
X14729Y5327D01*
X14652Y5263D01*
X14577Y5196D01*
X14506Y5126D01*
X14438Y5052D01*
X14374Y4976D01*
X14313Y4897D01*
X14255Y4815D01*
X14201Y4731D01*
X14151Y4645D01*
X14104Y4556D01*
X14062Y4466D01*
X14023Y4374D01*
X13989Y4280D01*
X13958Y4184D01*
X13932Y4088D01*
X13910Y3990D01*
X13893Y3892D01*
X13880Y3793D01*
X13871Y3693D01*
X13867Y3593D01*
Y3493D01*
X13871Y3393D01*
X13880Y3294D01*
X13893Y3195D01*
X13910Y3096D01*
X13932Y2999D01*
X13958Y2902D01*
X13989Y2807D01*
X14023Y2713D01*
X14062Y2621D01*
X14104Y2530D01*
X14151Y2442D01*
X14201Y2355D01*
X14255Y2271D01*
X14313Y2190D01*
X14374Y2111D01*
X14438Y2034D01*
X14506Y1961D01*
X14577Y1891D01*
X14652Y1824D01*
X14729Y1760D01*
X14808Y1699D01*
X14891Y1643D01*
X14975Y1589D01*
X15062Y1540D01*
X15151Y1495D01*
X15242Y1453D01*
X15335Y1416D01*
X15429Y1382D01*
X15525Y1353D01*
X15621Y1328D01*
X15719Y1307D01*
X15818Y1291D01*
X15917Y1279D01*
X16017Y1271D01*
X16117Y1268D01*
X16217Y1269D01*
X16317Y1274D01*
X16416Y1284D01*
X16515Y1299D01*
X16613Y1317D01*
X16711Y1340D01*
X16807Y1367D01*
X16902Y1398D01*
X16995Y1434D01*
X17087Y1473D01*
X17177Y1517D01*
X17265Y1564D01*
X17351Y1616D01*
X17434Y1671D01*
X17515Y1729D01*
X17594Y1791D01*
X17669Y1857D01*
X17742Y1925D01*
X17811Y1997D01*
X17878Y2072D01*
X17941Y2150D01*
X18000Y2230D01*
X18056Y2313D01*
X18108Y2398D01*
X18157Y2486D01*
X18201Y2575D01*
X18242Y2667D01*
X18278Y2760D01*
X18311Y2854D01*
X18339Y2950D01*
X18363Y3047D01*
X18382Y3145D01*
X18398Y3244D01*
X18409Y3344D01*
X18415Y3443D01*
X18417Y3543D01*
X9803Y22480D02*
X9777Y22579D01*
X9705Y22651D01*
X9606Y22677D01*
X9508Y22651D01*
X9436Y22579D01*
X9409Y22480D01*
X9436Y22382D01*
X9508Y22310D01*
X9606Y22283D01*
X9705Y22310D01*
X9777Y22382D01*
X9803Y22480D01*
X18809Y15492D02*
X18783Y15591D01*
X18711Y15663D01*
X18612Y15689D01*
X18514Y15663D01*
X18442Y15591D01*
X18415Y15492D01*
X18442Y15394D01*
X18514Y15322D01*
X18612Y15295D01*
X18711Y15322D01*
X18783Y15394D01*
X18809Y15492D01*
X25504Y3430D02*
X25502Y3530D01*
X25495Y3629D01*
X25484Y3729D01*
X25469Y3828D01*
X25449Y3926D01*
X25425Y4023D01*
X25397Y4119D01*
X25365Y4213D01*
X25328Y4306D01*
X25288Y4398D01*
X25243Y4487D01*
X25195Y4575D01*
X25143Y4660D01*
X25087Y4743D01*
X25027Y4823D01*
X24964Y4901D01*
X24898Y4976D01*
X24829Y5048D01*
X24756Y5116D01*
X24680Y5182D01*
X24602Y5244D01*
X24521Y5303D01*
X24438Y5357D01*
X24352Y5409D01*
X24264Y5456D01*
X24174Y5500D01*
X24082Y5539D01*
X23988Y5575D01*
X23893Y5606D01*
X23797Y5633D01*
X23700Y5656D01*
X23602Y5675D01*
X23503Y5689D01*
X23403Y5699D01*
X23303Y5704D01*
X23203Y5705D01*
X23103Y5702D01*
X23004Y5694D01*
X22905Y5682D01*
X22806Y5666D01*
X22708Y5645D01*
X22611Y5620D01*
X22516Y5591D01*
X22421Y5557D01*
X22329Y5520D01*
X22238Y5478D01*
X22149Y5433D01*
X22062Y5384D01*
X21977Y5330D01*
X21895Y5274D01*
X21815Y5213D01*
X21738Y5150D01*
X21664Y5082D01*
X21593Y5012D01*
X21525Y4939D01*
X21460Y4862D01*
X21399Y4783D01*
X21341Y4702D01*
X21287Y4618D01*
X21237Y4531D01*
X21191Y4443D01*
X21148Y4352D01*
X21110Y4260D01*
X21075Y4166D01*
X21045Y4071D01*
X21019Y3974D01*
X20997Y3877D01*
X20980Y3778D01*
X20966Y3679D01*
X20958Y3580D01*
X20953Y3480D01*
Y3380D01*
X20958Y3280D01*
X20966Y3180D01*
X20980Y3081D01*
X20997Y2983D01*
X21019Y2885D01*
X21045Y2789D01*
X21075Y2693D01*
X21110Y2599D01*
X21148Y2507D01*
X21191Y2417D01*
X21237Y2328D01*
X21287Y2242D01*
X21341Y2158D01*
X21399Y2076D01*
X21460Y1997D01*
X21525Y1921D01*
X21593Y1847D01*
X21664Y1777D01*
X21738Y1710D01*
X21815Y1646D01*
X21895Y1586D01*
X21977Y1529D01*
X22062Y1476D01*
X22149Y1427D01*
X22238Y1381D01*
X22329Y1340D01*
X22421Y1302D01*
X22516Y1269D01*
X22611Y1239D01*
X22708Y1214D01*
X22806Y1194D01*
X22905Y1177D01*
X23004Y1165D01*
X23103Y1158D01*
X23203Y1154D01*
X23303Y1155D01*
X23403Y1161D01*
X23503Y1171D01*
X23602Y1185D01*
X23700Y1204D01*
X23797Y1226D01*
X23893Y1253D01*
X23988Y1285D01*
X24082Y1320D01*
X24174Y1360D01*
X24264Y1403D01*
X24352Y1451D01*
X24438Y1502D01*
X24521Y1557D01*
X24602Y1616D01*
X24680Y1678D01*
X24756Y1743D01*
X24829Y1812D01*
X24898Y1884D01*
X24964Y1959D01*
X25027Y2036D01*
X25087Y2117D01*
X25143Y2199D01*
X25195Y2285D01*
X25243Y2372D01*
X25288Y2462D01*
X25328Y2553D01*
X25365Y2646D01*
X25397Y2741D01*
X25425Y2837D01*
X25449Y2934D01*
X25469Y3032D01*
X25484Y3131D01*
X25495Y3230D01*
X25502Y3330D01*
X25504Y3430D01*
X26378D02*
X26376Y3530D01*
X26372Y3629D01*
X26364Y3729D01*
X26353Y3828D01*
X26338Y3927D01*
X26321Y4026D01*
X26301Y4124D01*
X26277Y4221D01*
X26250Y4317D01*
X26221Y4413D01*
X26188Y4507D01*
X26152Y4600D01*
X26114Y4693D01*
X26072Y4783D01*
X26028Y4873D01*
X25981Y4961D01*
X25931Y5048D01*
X25878Y5133D01*
X25823Y5216D01*
X25765Y5297D01*
X25704Y5377D01*
X25641Y5454D01*
X25576Y5530D01*
X25508Y5603D01*
X25438Y5674D01*
X25365Y5743D01*
X25291Y5810D01*
X25214Y5874D01*
X25136Y5936D01*
X25055Y5995D01*
X24973Y6052D01*
X24889Y6106D01*
X24803Y6157D01*
X24716Y6206D01*
X24627Y6252D01*
X24537Y6295D01*
X24445Y6335D01*
X24352Y6372D01*
X24258Y6406D01*
X24164Y6437D01*
X24068Y6465D01*
X23971Y6491D01*
X23873Y6513D01*
X23775Y6532D01*
X23677Y6547D01*
X23577Y6560D01*
X23478Y6569D01*
X23378Y6576D01*
X23278Y6579D01*
X23178D01*
X23078Y6576D01*
X22979Y6569D01*
X22879Y6560D01*
X22780Y6547D01*
X22681Y6532D01*
X22583Y6513D01*
X22486Y6491D01*
X22389Y6465D01*
X22293Y6437D01*
X22198Y6406D01*
X22104Y6372D01*
X22012Y6335D01*
X21920Y6295D01*
X21830Y6252D01*
X21741Y6206D01*
X21654Y6157D01*
X21568Y6106D01*
X21484Y6052D01*
X21401Y5995D01*
X21321Y5936D01*
X21242Y5874D01*
X21166Y5810D01*
X21091Y5743D01*
X21019Y5674D01*
X20949Y5603D01*
X20881Y5530D01*
X20816Y5454D01*
X20753Y5377D01*
X20692Y5297D01*
X20634Y5216D01*
X20579Y5133D01*
X20526Y5048D01*
X20476Y4961D01*
X20429Y4873D01*
X20384Y4783D01*
X20343Y4693D01*
X20304Y4600D01*
X20269Y4507D01*
X20236Y4413D01*
X20206Y4317D01*
X20180Y4221D01*
X20156Y4124D01*
X20136Y4026D01*
X20118Y3927D01*
X20104Y3828D01*
X20093Y3729D01*
X20085Y3630D01*
X20080Y3530D01*
X20079Y3430D01*
X20080Y3330D01*
X20085Y3230D01*
X20093Y3130D01*
X20104Y3031D01*
X20118Y2932D01*
X20136Y2834D01*
X20156Y2736D01*
X20180Y2639D01*
X20206Y2542D01*
X20236Y2447D01*
X20269Y2353D01*
X20304Y2259D01*
X20343Y2167D01*
X20384Y2076D01*
X20429Y1987D01*
X20476Y1898D01*
X20526Y1812D01*
X20579Y1727D01*
X20634Y1644D01*
X20692Y1562D01*
X20753Y1483D01*
X20816Y1405D01*
X20881Y1330D01*
X20949Y1256D01*
X21019Y1185D01*
X21091Y1116D01*
X21166Y1049D01*
X21242Y985D01*
X21321Y923D01*
X21401Y864D01*
X21484Y807D01*
X21568Y753D01*
X21654Y702D01*
X21741Y654D01*
X21830Y608D01*
X21920Y565D01*
X22011Y525D01*
X22104Y488D01*
X22198Y453D01*
X22293Y422D01*
X22389Y394D01*
X22486Y369D01*
X22583Y347D01*
X22681Y328D01*
X22780Y312D01*
X22879Y300D01*
X22979Y290D01*
X23078Y284D01*
X23178Y281D01*
X23278Y281D01*
X23378Y284D01*
X23478Y290D01*
X23577Y300D01*
X23677Y312D01*
X23775Y328D01*
X23873Y347D01*
X23971Y369D01*
X24068Y394D01*
X24164Y422D01*
X24258Y453D01*
X24352Y488D01*
X24445Y525D01*
X24537Y565D01*
X24627Y608D01*
X24716Y654D01*
X24803Y702D01*
X24889Y753D01*
X24973Y807D01*
X25055Y864D01*
X25136Y923D01*
X25214Y985D01*
X25291Y1049D01*
X25365Y1116D01*
X25438Y1185D01*
X25508Y1256D01*
X25576Y1330D01*
X25641Y1405D01*
X25704Y1483D01*
X25765Y1562D01*
X25823Y1644D01*
X25878Y1727D01*
X25931Y1812D01*
X25981Y1898D01*
X26028Y1986D01*
X26072Y2076D01*
X26114Y2167D01*
X26152Y2259D01*
X26188Y2352D01*
X26221Y2447D01*
X26250Y2542D01*
X26277Y2639D01*
X26301Y2736D01*
X26321Y2834D01*
X26338Y2932D01*
X26353Y3031D01*
X26364Y3130D01*
X26372Y3230D01*
X26376Y3330D01*
X26378Y3430D01*
X28701Y22480D02*
X28674Y22579D01*
X28602Y22651D01*
X28504Y22677D01*
X28406Y22651D01*
X28333Y22579D01*
X28307Y22480D01*
X28333Y22382D01*
X28406Y22310D01*
X28504Y22283D01*
X28602Y22310D01*
X28674Y22382D01*
X28701Y22480D01*
X47598D02*
X47572Y22579D01*
X47500Y22651D01*
X47402Y22677D01*
X47303Y22651D01*
X47231Y22579D01*
X47205Y22480D01*
X47231Y22382D01*
X47303Y22310D01*
X47402Y22283D01*
X47500Y22310D01*
X47572Y22382D01*
X47598Y22480D01*
X56843Y25647D02*
X56816Y25746D01*
X56744Y25818D01*
X56646Y25844D01*
X56547Y25818D01*
X56475Y25746D01*
X56449Y25647D01*
X56475Y25549D01*
X56547Y25477D01*
X56646Y25451D01*
X56744Y25477D01*
X56816Y25549D01*
X56843Y25647D01*
X37451Y15492D02*
X37425Y15591D01*
X37353Y15663D01*
X37254Y15689D01*
X37156Y15663D01*
X37084Y15591D01*
X37057Y15492D01*
X37084Y15394D01*
X37156Y15322D01*
X37254Y15295D01*
X37353Y15322D01*
X37425Y15394D01*
X37451Y15492D01*
X44402Y3368D02*
X44399Y3468D01*
X44393Y3568D01*
X44382Y3667D01*
X44367Y3766D01*
X44347Y3864D01*
X44323Y3961D01*
X44295Y4057D01*
X44262Y4151D01*
X44226Y4244D01*
X44185Y4336D01*
X44141Y4425D01*
X44093Y4513D01*
X44040Y4598D01*
X43984Y4681D01*
X43925Y4761D01*
X43862Y4839D01*
X43796Y4914D01*
X43726Y4986D01*
X43654Y5054D01*
X43578Y5120D01*
X43500Y5182D01*
X43419Y5241D01*
X43335Y5296D01*
X43249Y5347D01*
X43161Y5394D01*
X43071Y5438D01*
X42979Y5477D01*
X42886Y5513D01*
X42791Y5544D01*
X42695Y5571D01*
X42597Y5594D01*
X42499Y5613D01*
X42400Y5627D01*
X42301Y5637D01*
X42201Y5642D01*
X42101Y5643D01*
X42001Y5640D01*
X41901Y5632D01*
X41802Y5620D01*
X41704Y5604D01*
X41606Y5583D01*
X41509Y5558D01*
X41413Y5529D01*
X41319Y5496D01*
X41226Y5458D01*
X41135Y5417D01*
X41046Y5371D01*
X40959Y5322D01*
X40875Y5269D01*
X40792Y5212D01*
X40713Y5151D01*
X40636Y5088D01*
X40562Y5020D01*
X40491Y4950D01*
X40423Y4877D01*
X40358Y4801D01*
X40297Y4722D01*
X40239Y4640D01*
X40185Y4556D01*
X40135Y4469D01*
X40088Y4381D01*
X40046Y4290D01*
X40007Y4198D01*
X39973Y4104D01*
X39943Y4009D01*
X39917Y3912D01*
X39895Y3815D01*
X39877Y3716D01*
X39864Y3617D01*
X39855Y3518D01*
X39851Y3418D01*
Y3318D01*
X39855Y3218D01*
X39864Y3118D01*
X39877Y3019D01*
X39895Y2921D01*
X39917Y2823D01*
X39943Y2727D01*
X39973Y2631D01*
X40007Y2538D01*
X40046Y2445D01*
X40088Y2355D01*
X40135Y2266D01*
X40185Y2180D01*
X40239Y2096D01*
X40297Y2014D01*
X40358Y1935D01*
X40423Y1859D01*
X40491Y1785D01*
X40562Y1715D01*
X40636Y1648D01*
X40713Y1584D01*
X40792Y1524D01*
X40875Y1467D01*
X40959Y1414D01*
X41046Y1365D01*
X41135Y1319D01*
X41226Y1278D01*
X41319Y1240D01*
X41413Y1207D01*
X41509Y1177D01*
X41606Y1153D01*
X41704Y1132D01*
X41802Y1115D01*
X41901Y1103D01*
X42001Y1096D01*
X42101Y1092D01*
X42201Y1093D01*
X42301Y1099D01*
X42400Y1109D01*
X42499Y1123D01*
X42597Y1142D01*
X42695Y1164D01*
X42791Y1192D01*
X42886Y1223D01*
X42979Y1258D01*
X43071Y1298D01*
X43161Y1341D01*
X43249Y1389D01*
X43335Y1440D01*
X43419Y1495D01*
X43500Y1554D01*
X43578Y1616D01*
X43654Y1681D01*
X43726Y1750D01*
X43796Y1822D01*
X43862Y1897D01*
X43925Y1974D01*
X43984Y2055D01*
X44040Y2138D01*
X44093Y2223D01*
X44141Y2310D01*
X44185Y2400D01*
X44226Y2491D01*
X44262Y2584D01*
X44295Y2679D01*
X44323Y2775D01*
X44347Y2872D01*
X44367Y2970D01*
X44382Y3069D01*
X44393Y3168D01*
X44399Y3268D01*
X44402Y3368D01*
X45276D02*
X45274Y3468D01*
X45269Y3568D01*
X45261Y3667D01*
X45250Y3767D01*
X45236Y3865D01*
X45219Y3964D01*
X45198Y4062D01*
X45175Y4159D01*
X45148Y4255D01*
X45118Y4351D01*
X45086Y4445D01*
X45050Y4538D01*
X45011Y4631D01*
X44970Y4722D01*
X44925Y4811D01*
X44878Y4899D01*
X44828Y4986D01*
X44776Y5071D01*
X44720Y5154D01*
X44662Y5235D01*
X44602Y5315D01*
X44539Y5392D01*
X44473Y5468D01*
X44405Y5541D01*
X44335Y5613D01*
X44263Y5681D01*
X44189Y5748D01*
X44112Y5812D01*
X44033Y5874D01*
X43953Y5933D01*
X43871Y5990D01*
X43787Y6044D01*
X43701Y6095D01*
X43613Y6144D01*
X43525Y6190D01*
X43434Y6233D01*
X43343Y6273D01*
X43250Y6310D01*
X43156Y6344D01*
X43061Y6375D01*
X42965Y6404D01*
X42869Y6429D01*
X42771Y6451D01*
X42673Y6470D01*
X42574Y6485D01*
X42475Y6498D01*
X42376Y6508D01*
X42276Y6514D01*
X42176Y6517D01*
X42076D01*
X41976Y6514D01*
X41876Y6508D01*
X41777Y6498D01*
X41678Y6485D01*
X41579Y6470D01*
X41481Y6451D01*
X41383Y6429D01*
X41287Y6404D01*
X41191Y6375D01*
X41096Y6344D01*
X41002Y6310D01*
X40909Y6273D01*
X40818Y6233D01*
X40727Y6190D01*
X40639Y6144D01*
X40551Y6095D01*
X40465Y6044D01*
X40381Y5990D01*
X40299Y5933D01*
X40219Y5874D01*
X40140Y5812D01*
X40063Y5748D01*
X39989Y5681D01*
X39917Y5613D01*
X39847Y5541D01*
X39779Y5468D01*
X39713Y5392D01*
X39650Y5315D01*
X39590Y5235D01*
X39532Y5154D01*
X39476Y5071D01*
X39424Y4986D01*
X39374Y4899D01*
X39327Y4811D01*
X39282Y4722D01*
X39241Y4631D01*
X39202Y4538D01*
X39166Y4445D01*
X39134Y4351D01*
X39104Y4255D01*
X39077Y4159D01*
X39054Y4062D01*
X39033Y3964D01*
X39016Y3865D01*
X39002Y3767D01*
X38991Y3667D01*
X38983Y3568D01*
X38978Y3468D01*
X38976Y3368D01*
X38978Y3268D01*
X38983Y3168D01*
X38991Y3068D01*
X39002Y2969D01*
X39016Y2870D01*
X39033Y2772D01*
X39054Y2674D01*
X39077Y2577D01*
X39104Y2480D01*
X39134Y2385D01*
X39166Y2291D01*
X39202Y2197D01*
X39241Y2105D01*
X39282Y2014D01*
X39327Y1925D01*
X39374Y1837D01*
X39424Y1750D01*
X39476Y1665D01*
X39532Y1582D01*
X39590Y1500D01*
X39650Y1421D01*
X39713Y1343D01*
X39779Y1268D01*
X39846Y1194D01*
X39917Y1123D01*
X39989Y1054D01*
X40063Y988D01*
X40140Y923D01*
X40219Y861D01*
X40299Y802D01*
X40381Y746D01*
X40465Y692D01*
X40551Y640D01*
X40639Y592D01*
X40727Y546D01*
X40818Y503D01*
X40909Y463D01*
X41002Y426D01*
X41096Y391D01*
X41191Y360D01*
X41287Y332D01*
X41383Y307D01*
X41481Y285D01*
X41579Y266D01*
X41678Y250D01*
X41777Y238D01*
X41876Y228D01*
X41976Y222D01*
X42076Y219D01*
X42176Y219D01*
X42276Y222D01*
X42376Y228D01*
X42475Y238D01*
X42574Y250D01*
X42673Y266D01*
X42771Y285D01*
X42869Y307D01*
X42965Y332D01*
X43061Y360D01*
X43156Y391D01*
X43250Y426D01*
X43343Y463D01*
X43434Y503D01*
X43525Y546D01*
X43613Y592D01*
X43701Y640D01*
X43787Y692D01*
X43871Y746D01*
X43953Y802D01*
X44033Y861D01*
X44112Y923D01*
X44189Y988D01*
X44263Y1054D01*
X44335Y1123D01*
X44405Y1194D01*
X44473Y1268D01*
X44539Y1343D01*
X44602Y1421D01*
X44662Y1500D01*
X44720Y1582D01*
X44776Y1665D01*
X44828Y1750D01*
X44878Y1836D01*
X44925Y1925D01*
X44970Y2014D01*
X45011Y2105D01*
X45050Y2197D01*
X45086Y2291D01*
X45118Y2385D01*
X45148Y2480D01*
X45175Y2577D01*
X45198Y2674D01*
X45219Y2772D01*
X45236Y2870D01*
X45250Y2969D01*
X45261Y3068D01*
X45269Y3168D01*
X45274Y3268D01*
X45276Y3368D01*
X55941Y14238D02*
X55915Y14336D01*
X55843Y14408D01*
X55744Y14434D01*
X55646Y14408D01*
X55574Y14336D01*
X55547Y14238D01*
X55574Y14139D01*
X55646Y14067D01*
X55744Y14041D01*
X55843Y14067D01*
X55915Y14139D01*
X55941Y14238D01*
X6213Y3543D02*
X6210Y3643D01*
X6204Y3743D01*
X6193Y3842D01*
X6178Y3941D01*
X6158Y4039D01*
X6134Y4136D01*
X6106Y4232D01*
X6073Y4327D01*
X6037Y4420D01*
X5996Y4511D01*
X5952Y4601D01*
X5904Y4688D01*
X5851Y4774D01*
X5795Y4856D01*
X5736Y4937D01*
X5673Y5015D01*
X5607Y5089D01*
X5537Y5161D01*
X5465Y5230D01*
X5389Y5295D01*
X5311Y5358D01*
X5230Y5416D01*
X5146Y5471D01*
X5060Y5522D01*
X4972Y5570D01*
X4882Y5613D01*
X4791Y5653D01*
X4697Y5688D01*
X4602Y5720D01*
X4506Y5747D01*
X4409Y5770D01*
X4310Y5788D01*
X4211Y5802D01*
X4112Y5812D01*
X4012Y5818D01*
X3912Y5819D01*
X3812Y5815D01*
X3712Y5808D01*
X3613Y5796D01*
X3515Y5779D01*
X3417Y5759D01*
X3320Y5734D01*
X3224Y5704D01*
X3130Y5671D01*
X3037Y5634D01*
X2946Y5592D01*
X2857Y5547D01*
X2770Y5497D01*
X2686Y5444D01*
X2604Y5387D01*
X2524Y5327D01*
X2447Y5263D01*
X2373Y5196D01*
X2302Y5126D01*
X2234Y5052D01*
X2169Y4976D01*
X2108Y4897D01*
X2050Y4815D01*
X1996Y4731D01*
X1946Y4645D01*
X1899Y4556D01*
X1857Y4466D01*
X1818Y4374D01*
X1784Y4280D01*
X1754Y4184D01*
X1728Y4088D01*
X1706Y3990D01*
X1688Y3892D01*
X1675Y3793D01*
X1666Y3693D01*
X1662Y3593D01*
Y3493D01*
X1666Y3393D01*
X1675Y3294D01*
X1688Y3195D01*
X1706Y3096D01*
X1728Y2999D01*
X1754Y2902D01*
X1784Y2807D01*
X1818Y2713D01*
X1857Y2621D01*
X1899Y2530D01*
X1946Y2442D01*
X1996Y2355D01*
X2050Y2271D01*
X2108Y2190D01*
X2169Y2111D01*
X2234Y2034D01*
X2302Y1961D01*
X2373Y1891D01*
X2447Y1824D01*
X2524Y1760D01*
X2604Y1699D01*
X2686Y1643D01*
X2770Y1589D01*
X2857Y1540D01*
X2946Y1495D01*
X3037Y1453D01*
X3130Y1416D01*
X3224Y1382D01*
X3320Y1353D01*
X3417Y1328D01*
X3515Y1307D01*
X3613Y1291D01*
X3712Y1279D01*
X3812Y1271D01*
X3912Y1268D01*
X4012Y1269D01*
X4112Y1274D01*
X4211Y1284D01*
X4310Y1299D01*
X4409Y1317D01*
X4506Y1340D01*
X4602Y1367D01*
X4697Y1398D01*
X4791Y1434D01*
X4882Y1473D01*
X4972Y1517D01*
X5060Y1564D01*
X5146Y1616D01*
X5230Y1671D01*
X5311Y1729D01*
X5389Y1791D01*
X5465Y1857D01*
X5537Y1925D01*
X5607Y1997D01*
X5673Y2072D01*
X5736Y2150D01*
X5795Y2230D01*
X5851Y2313D01*
X5904Y2398D01*
X5952Y2486D01*
X5996Y2575D01*
X6037Y2667D01*
X6073Y2760D01*
X6106Y2854D01*
X6134Y2950D01*
X6158Y3047D01*
X6178Y3145D01*
X6193Y3244D01*
X6204Y3344D01*
X6210Y3443D01*
X6213Y3543D01*
X7087D02*
X7085Y3643D01*
X7080Y3743D01*
X7072Y3843D01*
X7061Y3942D01*
X7047Y4041D01*
X7030Y4139D01*
X7009Y4237D01*
X6986Y4334D01*
X6959Y4431D01*
X6929Y4526D01*
X6897Y4621D01*
X6861Y4714D01*
X6822Y4806D01*
X6781Y4897D01*
X6736Y4987D01*
X6689Y5075D01*
X6639Y5161D01*
X6587Y5246D01*
X6531Y5329D01*
X6473Y5411D01*
X6413Y5490D01*
X6350Y5568D01*
X6284Y5643D01*
X6216Y5717D01*
X6146Y5788D01*
X6074Y5857D01*
X6000Y5924D01*
X5923Y5988D01*
X5844Y6050D01*
X5764Y6109D01*
X5682Y6166D01*
X5598Y6220D01*
X5512Y6271D01*
X5424Y6320D01*
X5336Y6365D01*
X5245Y6408D01*
X5154Y6448D01*
X5061Y6486D01*
X4967Y6520D01*
X4872Y6551D01*
X4776Y6579D01*
X4680Y6604D01*
X4582Y6626D01*
X4484Y6645D01*
X4385Y6661D01*
X4286Y6674D01*
X4187Y6683D01*
X4087Y6689D01*
X3987Y6693D01*
X3887D01*
X3787Y6689D01*
X3687Y6683D01*
X3588Y6674D01*
X3489Y6661D01*
X3390Y6645D01*
X3292Y6626D01*
X3194Y6604D01*
X3098Y6579D01*
X3002Y6551D01*
X2907Y6520D01*
X2813Y6486D01*
X2720Y6448D01*
X2629Y6408D01*
X2538Y6365D01*
X2450Y6320D01*
X2362Y6271D01*
X2276Y6220D01*
X2192Y6166D01*
X2110Y6109D01*
X2030Y6050D01*
X1951Y5988D01*
X1874Y5924D01*
X1800Y5857D01*
X1728Y5788D01*
X1658Y5717D01*
X1590Y5643D01*
X1524Y5568D01*
X1461Y5490D01*
X1401Y5411D01*
X1343Y5329D01*
X1287Y5246D01*
X1235Y5161D01*
X1185Y5075D01*
X1138Y4987D01*
X1093Y4897D01*
X1052Y4806D01*
X1013Y4714D01*
X977Y4621D01*
X945Y4526D01*
X915Y4431D01*
X888Y4334D01*
X865Y4237D01*
X844Y4139D01*
X827Y4041D01*
X813Y3942D01*
X802Y3843D01*
X794Y3743D01*
X789Y3643D01*
X787Y3543D01*
X789Y3443D01*
X794Y3344D01*
X802Y3244D01*
X813Y3145D01*
X827Y3046D01*
X844Y2947D01*
X865Y2849D01*
X888Y2752D01*
X915Y2656D01*
X945Y2561D01*
X977Y2466D01*
X1013Y2373D01*
X1052Y2281D01*
X1093Y2190D01*
X1138Y2100D01*
X1185Y2012D01*
X1235Y1925D01*
X1287Y1841D01*
X1343Y1757D01*
X1401Y1676D01*
X1461Y1596D01*
X1524Y1519D01*
X1590Y1443D01*
X1658Y1370D01*
X1728Y1299D01*
X1800Y1230D01*
X1874Y1163D01*
X1951Y1099D01*
X2030Y1037D01*
X2110Y978D01*
X2192Y921D01*
X2276Y867D01*
X2362Y816D01*
X2450Y767D01*
X2538Y721D01*
X2629Y678D01*
X2720Y638D01*
X2813Y601D01*
X2907Y567D01*
X3002Y536D01*
X3098Y508D01*
X3194Y483D01*
X3292Y460D01*
X3390Y442D01*
X3489Y426D01*
X3588Y413D01*
X3687Y404D01*
X3787Y397D01*
X3887Y394D01*
X3987Y394D01*
X4087Y397D01*
X4187Y404D01*
X4286Y413D01*
X4385Y426D01*
X4484Y442D01*
X4582Y460D01*
X4680Y482D01*
X4776Y508D01*
X4872Y536D01*
X4967Y567D01*
X5061Y601D01*
X5154Y638D01*
X5245Y678D01*
X5336Y721D01*
X5424Y767D01*
X5512Y816D01*
X5598Y867D01*
X5682Y921D01*
X5764Y978D01*
X5844Y1037D01*
X5923Y1099D01*
X6000Y1163D01*
X6074Y1230D01*
X6146Y1299D01*
X6216Y1370D01*
X6284Y1443D01*
X6350Y1519D01*
X6413Y1596D01*
X6473Y1676D01*
X6531Y1757D01*
X6587Y1840D01*
X6639Y1925D01*
X6689Y2012D01*
X6736Y2100D01*
X6781Y2190D01*
X6822Y2281D01*
X6861Y2373D01*
X6897Y2466D01*
X6929Y2560D01*
X6959Y2656D01*
X6986Y2752D01*
X7009Y2849D01*
X7030Y2947D01*
X7047Y3046D01*
X7061Y3145D01*
X7072Y3244D01*
X7080Y3344D01*
X7085Y3443D01*
X7087Y3543D01*
X50669Y36063D02*
Y40295D01*
X44433D02*
X50669D01*
X44433Y36063D02*
Y40295D01*
Y36063D02*
X47177D01*
X47925D02*
X50669D01*
X47177D02*
Y36260D01*
X47925D01*
Y36063D02*
Y36260D01*
X25122Y36007D02*
Y37007D01*
X22122Y36007D02*
Y37007D01*
X25122D01*
X22122Y36007D02*
X25122D01*
X10705Y38673D02*
X12705D01*
Y39673D01*
X10705D02*
X12705D01*
X10705Y38673D02*
Y39673D01*
X802Y24591D02*
X3086D01*
X802Y22575D02*
Y24591D01*
Y22575D02*
X3086D01*
Y24591D01*
X802Y28095D02*
X3086D01*
X802Y25079D02*
Y28095D01*
Y25079D02*
X3086D01*
Y28095D01*
X802Y31643D02*
X3086D01*
X802Y28627D02*
Y31643D01*
Y28627D02*
X3086D01*
Y31643D01*
X9252Y22835D02*
X11220D01*
X9252Y21260D02*
X11220D01*
X9252D02*
Y22835D01*
X11220Y21260D02*
Y22835D01*
X18258Y15138D02*
Y16358D01*
X19478Y15138D02*
Y16358D01*
X18258Y15138D02*
X19478D01*
X18258Y16358D02*
X19478D01*
X26390Y39709D02*
Y41992D01*
X21374D02*
X26390D01*
X21374Y39709D02*
Y41992D01*
Y39709D02*
X26390D01*
X30118Y21260D02*
Y22835D01*
X28150Y21260D02*
Y22835D01*
Y21260D02*
X30118D01*
X28150Y22835D02*
X30118D01*
X47047D02*
X49016D01*
X47047Y21260D02*
X49016D01*
X47047D02*
Y22835D01*
X49016Y21260D02*
Y22835D01*
X56291Y25293D02*
Y27025D01*
X57709Y25293D02*
Y27025D01*
X56291Y25293D02*
X57709D01*
X56291Y27025D02*
X57709D01*
X19606Y10706D02*
Y11257D01*
X19370Y10706D02*
Y11257D01*
Y10706D02*
X19606D01*
X19370Y11257D02*
X19606D01*
X33209Y39709D02*
Y41992D01*
X28193D02*
X33209D01*
X28193Y39709D02*
Y41992D01*
Y39709D02*
X33209D01*
X33644Y32456D02*
X34175D01*
X33644Y31629D02*
X34175D01*
X33644D02*
Y32456D01*
X34175Y31629D02*
Y32456D01*
X36900Y15138D02*
Y16358D01*
X38120Y15138D02*
Y16358D01*
X36900Y15138D02*
X38120D01*
X36900Y16358D02*
X38120D01*
X37981Y10709D02*
Y11260D01*
X37745Y10709D02*
Y11260D01*
Y10709D02*
X37981D01*
X37745Y11260D02*
X37981D01*
X56743Y10564D02*
Y11115D01*
X56507Y10564D02*
Y11115D01*
Y10564D02*
X56743D01*
X56507Y11115D02*
X56743D01*
X62505Y35964D02*
X63194D01*
X62505Y34764D02*
X63194D01*
Y35964D01*
X62505Y34764D02*
Y35964D01*
X11909Y394D02*
Y7480D01*
X8563D02*
X11909D01*
X8563Y394D02*
Y7480D01*
Y394D02*
X11909D01*
X30807D02*
Y7480D01*
X27461D02*
X30807D01*
X27461Y394D02*
Y7480D01*
Y394D02*
X30807D01*
X49705D02*
Y7480D01*
X46358D02*
X49705D01*
X46358Y394D02*
Y7480D01*
Y394D02*
X49705D01*
X55390Y15104D02*
X56610D01*
X55390Y13883D02*
X56610D01*
Y15104D01*
X55390Y13883D02*
Y15104D01*
X19104Y10706D02*
Y11257D01*
X18868Y10706D02*
Y11257D01*
Y10706D02*
X19104D01*
X18868Y11257D02*
X19104D01*
X38504Y10709D02*
Y11260D01*
X38268Y10709D02*
Y11260D01*
Y10709D02*
X38504D01*
X38268Y11260D02*
X38504D01*
X57644Y10564D02*
Y11115D01*
X57407Y10564D02*
Y11115D01*
Y10564D02*
X57644D01*
X57407Y11115D02*
X57644D01*
X13157Y33857D02*
X12895D01*
X12842Y33804D01*
Y33699D01*
X12895Y33647D01*
X13157D01*
X12842Y33542D02*
Y33437D01*
Y33489D01*
X13157D01*
X13105Y33542D01*
Y33279D02*
X13157Y33227D01*
Y33122D01*
X13105Y33070D01*
X12895D01*
X12842Y33122D01*
Y33227D01*
X12895Y33279D01*
X13105D01*
M02*
