G04*
G04 #@! TF.GenerationSoftware,Altium Limited,Altium Designer,20.1.14 (287)*
G04*
G04 Layer_Color=8421504*
%FSLAX25Y25*%
%MOIN*%
G70*
G04*
G04 #@! TF.SameCoordinates,F236638D-4B1B-45E3-9A0F-FA1DF93A8DFF*
G04*
G04*
G04 #@! TF.FilePolarity,Positive*
G04*
G01*
G75*
%ADD12C,0.01000*%
%ADD18R,0.05347X0.05347*%
%ADD19C,0.06724*%
%ADD20R,0.05347X0.05347*%
%ADD21R,0.03969X0.03969*%
%ADD22R,0.08000X0.06000*%
%ADD23R,0.06000X0.08000*%
%ADD24R,0.01181X0.02559*%
%ADD25R,0.10000X0.08000*%
%ADD26R,0.38600X0.27591*%
%ADD27R,0.16900X0.06300*%
%ADD28R,0.06000X0.05200*%
%ADD29R,0.06724X0.06331*%
%ADD30R,0.15780X0.08299*%
%ADD31R,0.11843X0.14992*%
%ADD32R,0.08299X0.15780*%
%ADD33R,0.09480X0.18535*%
%ADD34R,0.08000X0.10000*%
%ADD35R,0.08299X0.12630*%
%ADD36R,0.02559X0.01181*%
%ADD37R,0.38600X0.45600*%
%ADD38R,0.17748X0.25622*%
%ADD39R,0.09055X0.09843*%
G36*
X438945Y181071D02*
X436945Y179071D01*
X434945Y181071D01*
Y182071D01*
X438945D01*
Y181071D01*
D02*
G37*
G36*
X251988Y180509D02*
X249988Y178509D01*
X247988Y180509D01*
Y181509D01*
X251988D01*
Y180509D01*
D02*
G37*
G36*
X58102Y180214D02*
X56102Y178214D01*
X54102Y180214D01*
Y181214D01*
X58102D01*
Y180214D01*
D02*
G37*
G36*
X438945Y177071D02*
X434945D01*
Y180071D01*
X436945Y178071D01*
X438945Y180071D01*
Y177071D01*
D02*
G37*
G36*
X251988Y176509D02*
X247988D01*
Y179509D01*
X249988Y177509D01*
X251988Y179509D01*
Y176509D01*
D02*
G37*
G36*
X58102Y176214D02*
X54102D01*
Y179214D01*
X56102Y177214D01*
X58102Y179214D01*
Y176214D01*
D02*
G37*
G36*
X162617Y159074D02*
X160617Y161074D01*
X158617Y159074D01*
Y162074D01*
X162617D01*
Y159074D01*
D02*
G37*
G36*
X154712Y159074D02*
X152712Y161074D01*
X150712Y159074D01*
Y162074D01*
X154712D01*
Y159074D01*
D02*
G37*
G36*
X350348Y158846D02*
X348348Y160846D01*
X346348Y158846D01*
Y161846D01*
X350348D01*
Y158846D01*
D02*
G37*
G36*
X342651Y158846D02*
X340651Y160846D01*
X338651Y158846D01*
Y161846D01*
X342651D01*
Y158846D01*
D02*
G37*
G36*
X162617Y158074D02*
Y157074D01*
X158617D01*
Y158074D01*
X160617Y160074D01*
X162617Y158074D01*
D02*
G37*
G36*
X154712Y158074D02*
Y157074D01*
X150712D01*
Y158074D01*
X152712Y160074D01*
X154712Y158074D01*
D02*
G37*
G36*
X350348Y157846D02*
Y156846D01*
X346348D01*
Y157846D01*
X348348Y159846D01*
X350348Y157846D01*
D02*
G37*
G36*
X342651Y157846D02*
Y156846D01*
X338651D01*
Y157846D01*
X340651Y159846D01*
X342651Y157846D01*
D02*
G37*
G36*
X525406Y142178D02*
X523406Y144178D01*
X521406Y142178D01*
Y145178D01*
X525406D01*
Y142178D01*
D02*
G37*
G36*
X533496Y142178D02*
X531496Y144178D01*
X529496Y142178D01*
Y145178D01*
X533496D01*
Y142178D01*
D02*
G37*
G36*
X525406Y141178D02*
Y140178D01*
X521406D01*
Y141178D01*
X523406Y143178D01*
X525406Y141178D01*
D02*
G37*
G36*
X533496Y141178D02*
Y140178D01*
X529496D01*
Y141178D01*
X531496Y143178D01*
X533496Y141178D01*
D02*
G37*
D12*
X0Y0D02*
Y334646D01*
Y0D02*
X669291D01*
Y405512D01*
X460630D02*
X669291D01*
X440945Y425197D02*
X460630Y405512D01*
X149606Y425197D02*
X440945D01*
X129921Y405512D02*
X149606Y425197D01*
X70866Y405512D02*
X129921D01*
X0Y334646D02*
X70866Y405512D01*
X495379Y241472D02*
X498659D01*
X499315Y240816D01*
Y239505D01*
X498659Y238849D01*
X495379D01*
X499315Y235569D02*
X495379D01*
X497347Y237537D01*
Y234913D01*
X306403Y241472D02*
X309683D01*
X310339Y240816D01*
Y239505D01*
X309683Y238849D01*
X306403D01*
X307059Y237537D02*
X306403Y236881D01*
Y235569D01*
X307059Y234913D01*
X307715D01*
X308371Y235569D01*
Y236225D01*
Y235569D01*
X309027Y234913D01*
X309683D01*
X310339Y235569D01*
Y236881D01*
X309683Y237537D01*
X121048Y235772D02*
X124328D01*
X124984Y235116D01*
Y233804D01*
X124328Y233148D01*
X121048D01*
X124984Y229212D02*
Y231836D01*
X122360Y229212D01*
X121704D01*
X121048Y229868D01*
Y231180D01*
X121704Y231836D01*
D18*
X384941Y365865D02*
D03*
X378838D02*
D03*
X384941Y390764D02*
D03*
X378838D02*
D03*
X384941Y308046D02*
D03*
X378838D02*
D03*
X384941Y345903D02*
D03*
X378838D02*
D03*
X217462Y279794D02*
D03*
X223565D02*
D03*
X223565Y232650D02*
D03*
X217462D02*
D03*
X384941Y260012D02*
D03*
X378838D02*
D03*
X384941Y289961D02*
D03*
X378838D02*
D03*
X223523Y334646D02*
D03*
X217421D02*
D03*
X274977Y340952D02*
D03*
X268875D02*
D03*
X268894Y334303D02*
D03*
X274996D02*
D03*
X268893Y326375D02*
D03*
X274996D02*
D03*
X297560Y320427D02*
D03*
X303662D02*
D03*
X303662Y311468D02*
D03*
X297560D02*
D03*
X268902Y319968D02*
D03*
X275004D02*
D03*
X268522Y312443D02*
D03*
X274624D02*
D03*
X38409Y291351D02*
D03*
X44512D02*
D03*
X51109D02*
D03*
X57212D02*
D03*
X483054Y206528D02*
D03*
X476952D02*
D03*
X483366Y329961D02*
D03*
X477264D02*
D03*
X483366Y337189D02*
D03*
X477264D02*
D03*
X223565Y208228D02*
D03*
X217463D02*
D03*
X223565Y216282D02*
D03*
X217462D02*
D03*
X223565Y224496D02*
D03*
X217462D02*
D03*
X223565Y240088D02*
D03*
X217462D02*
D03*
X223565Y250126D02*
D03*
X217462D02*
D03*
X223565Y260009D02*
D03*
X217462D02*
D03*
X223565Y269630D02*
D03*
X217462D02*
D03*
X251536Y260009D02*
D03*
X245433D02*
D03*
X378838Y299833D02*
D03*
X384941D02*
D03*
X378839Y244783D02*
D03*
X384941D02*
D03*
X378838Y279923D02*
D03*
X384941D02*
D03*
X378839Y270018D02*
D03*
X384941D02*
D03*
X378838Y335844D02*
D03*
X384941D02*
D03*
X378838Y355961D02*
D03*
X384941D02*
D03*
X378839Y375961D02*
D03*
X384942D02*
D03*
X378838Y413386D02*
D03*
X384941D02*
D03*
X288274Y205663D02*
D03*
X294376D02*
D03*
X99311Y205663D02*
D03*
X105413D02*
D03*
X318116Y319229D02*
D03*
X324218D02*
D03*
D19*
X283465Y255906D02*
D03*
X291339D02*
D03*
X102631Y255906D02*
D03*
X348348Y145379D02*
D03*
X329824Y162596D02*
D03*
X313976Y202756D02*
D03*
X502047Y203267D02*
D03*
X472457Y255906D02*
D03*
X480315D02*
D03*
X448819Y188237D02*
D03*
X462952Y247969D02*
D03*
X454724Y248031D02*
D03*
X258874Y188976D02*
D03*
X271865Y248032D02*
D03*
X263780D02*
D03*
X127953Y202756D02*
D03*
X67726Y188976D02*
D03*
X94726Y255906D02*
D03*
X82986Y248032D02*
D03*
X74309Y248032D02*
D03*
X531496Y129817D02*
D03*
X523406Y157480D02*
D03*
X160617Y145826D02*
D03*
X143701Y162859D02*
D03*
D20*
X306930Y361824D02*
D03*
Y367927D02*
D03*
X296877Y361824D02*
D03*
Y367927D02*
D03*
X286930Y367927D02*
D03*
Y361824D02*
D03*
X306930Y386754D02*
D03*
Y380652D02*
D03*
X296877Y380652D02*
D03*
Y386754D02*
D03*
X286930Y380652D02*
D03*
Y386754D02*
D03*
X576172Y134495D02*
D03*
Y140597D02*
D03*
X576100Y153014D02*
D03*
Y146912D02*
D03*
X207842Y159449D02*
D03*
Y165551D02*
D03*
X533124Y173099D02*
D03*
Y179202D02*
D03*
X401327Y165323D02*
D03*
Y159221D02*
D03*
X394391Y165324D02*
D03*
Y159221D02*
D03*
X348858Y173228D02*
D03*
Y179331D02*
D03*
X663233Y341517D02*
D03*
Y347619D02*
D03*
X641732Y347539D02*
D03*
Y341437D02*
D03*
X647638D02*
D03*
Y347539D02*
D03*
X160581Y179331D02*
D03*
Y173228D02*
D03*
X214567Y159449D02*
D03*
Y165551D02*
D03*
D21*
X352369Y419118D02*
D03*
X350169Y413118D02*
D03*
X362369Y419118D02*
D03*
X360169Y413118D02*
D03*
X362369Y403168D02*
D03*
X360169Y397168D02*
D03*
X352369Y403168D02*
D03*
X350169Y397168D02*
D03*
X38409Y249220D02*
D03*
X40609Y255220D02*
D03*
X48491Y249220D02*
D03*
X50691Y255220D02*
D03*
D22*
X54161Y276000D02*
D03*
Y284000D02*
D03*
X8472Y152277D02*
D03*
Y160277D02*
D03*
X579969Y243975D02*
D03*
Y235975D02*
D03*
X587210Y266534D02*
D03*
Y274534D02*
D03*
X588516Y235764D02*
D03*
Y243764D02*
D03*
X70866Y215158D02*
D03*
Y223158D02*
D03*
X102631Y248031D02*
D03*
Y240031D02*
D03*
X94726D02*
D03*
Y248031D02*
D03*
X283465Y240031D02*
D03*
Y248031D02*
D03*
X291338Y248031D02*
D03*
Y240032D02*
D03*
X480520Y247447D02*
D03*
Y239447D02*
D03*
X472457D02*
D03*
Y247447D02*
D03*
X663233Y362268D02*
D03*
Y354268D02*
D03*
X29528Y152000D02*
D03*
Y160000D02*
D03*
X20206Y152000D02*
D03*
Y160000D02*
D03*
X565785Y255543D02*
D03*
Y263543D02*
D03*
X358268Y287338D02*
D03*
Y295339D02*
D03*
X449694Y223882D02*
D03*
Y215882D02*
D03*
X259842Y223158D02*
D03*
Y215158D02*
D03*
D23*
X37461Y282126D02*
D03*
X45461D02*
D03*
X50361Y240024D02*
D03*
X42361D02*
D03*
X64000Y167323D02*
D03*
X56000D02*
D03*
X574747Y124815D02*
D03*
X566747D02*
D03*
X548281Y282352D02*
D03*
X556281D02*
D03*
X379569Y131855D02*
D03*
X371569D02*
D03*
X249937Y157284D02*
D03*
X257937D02*
D03*
X250000Y167323D02*
D03*
X258000D02*
D03*
X444945Y157283D02*
D03*
X436945D02*
D03*
X192681Y131101D02*
D03*
X184681D02*
D03*
X98390Y198253D02*
D03*
X106390D02*
D03*
X98390Y190779D02*
D03*
X106390D02*
D03*
X260034Y232283D02*
D03*
X268034D02*
D03*
X449655Y232283D02*
D03*
X457655D02*
D03*
X294899Y198253D02*
D03*
X286899D02*
D03*
X475984Y199175D02*
D03*
X483984D02*
D03*
X608142Y342520D02*
D03*
X616142D02*
D03*
X548281Y265065D02*
D03*
X556281D02*
D03*
X548407Y255906D02*
D03*
X556407D02*
D03*
X556119Y273302D02*
D03*
X548119D02*
D03*
X573037Y279960D02*
D03*
X565037D02*
D03*
X564818Y288176D02*
D03*
X572818D02*
D03*
X436945Y167323D02*
D03*
X444945D02*
D03*
X56000Y157284D02*
D03*
X64000D02*
D03*
X78803Y232283D02*
D03*
X70803D02*
D03*
X483984Y190571D02*
D03*
X475984D02*
D03*
X294843Y190779D02*
D03*
X286843D02*
D03*
D24*
X36777Y176149D02*
D03*
Y181464D02*
D03*
X45417Y176149D02*
D03*
Y181464D02*
D03*
X240064Y176476D02*
D03*
Y181791D02*
D03*
X419945Y176477D02*
D03*
Y181791D02*
D03*
X232598Y176476D02*
D03*
Y181791D02*
D03*
X428150Y181791D02*
D03*
Y176476D02*
D03*
D25*
X541338Y152258D02*
D03*
Y141258D02*
D03*
X428150Y168284D02*
D03*
Y157284D02*
D03*
X357383Y153440D02*
D03*
Y164440D02*
D03*
X240064Y168284D02*
D03*
Y157284D02*
D03*
X135827Y233846D02*
D03*
Y222847D02*
D03*
X125697Y233846D02*
D03*
Y222847D02*
D03*
X326772Y233846D02*
D03*
Y222847D02*
D03*
X315761Y233846D02*
D03*
Y222847D02*
D03*
X513858Y232532D02*
D03*
Y221532D02*
D03*
X502047Y232532D02*
D03*
Y221532D02*
D03*
X45417Y157283D02*
D03*
Y168283D02*
D03*
X170180Y153667D02*
D03*
Y164667D02*
D03*
D26*
X646449Y101241D02*
D03*
D27*
X607956Y120236D02*
D03*
Y100236D02*
D03*
X607956Y151417D02*
D03*
Y171417D02*
D03*
D28*
X436945Y183071D02*
D03*
Y176321D02*
D03*
X340651Y155846D02*
D03*
Y162596D02*
D03*
X348348Y155846D02*
D03*
Y162596D02*
D03*
X249988Y175759D02*
D03*
Y182509D02*
D03*
X523406Y145928D02*
D03*
Y139178D02*
D03*
X56102Y175464D02*
D03*
Y182214D02*
D03*
X531496Y145928D02*
D03*
Y139178D02*
D03*
X160617Y162824D02*
D03*
Y156074D02*
D03*
X152712Y162824D02*
D03*
Y156074D02*
D03*
D29*
X340651Y178709D02*
D03*
Y170442D02*
D03*
X525406Y170442D02*
D03*
Y178710D02*
D03*
X152712Y170442D02*
D03*
Y178709D02*
D03*
D30*
X475197Y358268D02*
D03*
X497244D02*
D03*
X634646Y381890D02*
D03*
X656693D02*
D03*
D31*
X499606Y387795D02*
D03*
X472835D02*
D03*
D32*
X535433Y353150D02*
D03*
Y375197D02*
D03*
D33*
X568898Y374016D02*
D03*
Y346457D02*
D03*
X606299Y285433D02*
D03*
Y312992D02*
D03*
X645129Y285433D02*
D03*
Y312992D02*
D03*
D34*
X578140Y320332D02*
D03*
X567140D02*
D03*
D35*
Y306226D02*
D03*
X578164D02*
D03*
D36*
X17343Y168283D02*
D03*
X22658D02*
D03*
D37*
X646505Y161417D02*
D03*
D38*
X616265Y220000D02*
D03*
X658784D02*
D03*
D39*
X85737Y215262D02*
D03*
Y198333D02*
D03*
X462599Y215157D02*
D03*
Y198228D02*
D03*
X273622Y215158D02*
D03*
Y198228D02*
D03*
M02*
