G04*
G04 #@! TF.GenerationSoftware,Altium Limited,Altium Designer,20.2.6 (244)*
G04*
G04 Layer_Color=128*
%FSLAX24Y24*%
%MOIN*%
G70*
G04*
G04 #@! TF.SameCoordinates,10E2E559-7701-499E-A428-1A66D90B70A8*
G04*
G04*
G04 #@! TF.FilePolarity,Positive*
G04*
G01*
G75*
%ADD13C,0.0100*%
%ADD18C,0.0039*%
%ADD174C,0.0020*%
D13*
X0Y0D02*
Y33465D01*
X66929Y0D02*
Y40551D01*
X44094Y42520D02*
X46063Y40551D01*
X12992D02*
X14961Y42520D01*
X0Y33465D02*
X7087Y40551D01*
X12992D01*
X46063D02*
X66929D01*
X0Y0D02*
X66929D01*
X14961Y42520D02*
X44094D01*
X10924Y21947D02*
X11252D01*
X11317Y21882D01*
Y21750D01*
X11252Y21685D01*
X10924D01*
X11317Y21291D02*
Y21554D01*
X11055Y21291D01*
X10989D01*
X10924Y21357D01*
Y21488D01*
X10989Y21554D01*
X29821Y21947D02*
X30149D01*
X30215Y21882D01*
Y21750D01*
X30149Y21685D01*
X29821D01*
X29887Y21554D02*
X29821Y21488D01*
Y21357D01*
X29887Y21291D01*
X29953D01*
X30018Y21357D01*
Y21422D01*
Y21357D01*
X30084Y21291D01*
X30149D01*
X30215Y21357D01*
Y21488D01*
X30149Y21554D01*
X48719Y21947D02*
X49047D01*
X49113Y21882D01*
Y21750D01*
X49047Y21685D01*
X48719D01*
X49113Y21357D02*
X48719D01*
X48916Y21554D01*
Y21291D01*
D18*
X13157Y33857D02*
X12895D01*
X12842Y33804D01*
Y33699D01*
X12895Y33647D01*
X13157D01*
X12842Y33542D02*
Y33437D01*
Y33489D01*
X13157D01*
X13105Y33542D01*
Y33279D02*
X13157Y33227D01*
Y33122D01*
X13105Y33070D01*
X12895D01*
X12842Y33122D01*
Y33227D01*
X12895Y33279D01*
X13105D01*
D174*
X60433Y26000D02*
X61220D01*
X60827Y25606D02*
Y26394D01*
X65157Y26000D02*
X65945D01*
X65551Y25606D02*
Y26394D01*
X53583Y39567D02*
X53898D01*
X53740Y39409D02*
Y39724D01*
X49268Y33899D02*
X49583D01*
X49425Y33741D02*
Y34056D01*
X46224Y33874D02*
X46539D01*
X46382Y33717D02*
Y34032D01*
X44193Y33874D02*
X44508D01*
X44351Y33717D02*
Y34032D01*
X49535Y38268D02*
X50244D01*
X49890Y37913D02*
Y38622D01*
X47976Y38268D02*
X48685D01*
X48331Y37913D02*
Y38622D01*
X44858Y38268D02*
X45567D01*
X45213Y37913D02*
Y38622D01*
X46417Y38268D02*
X47126D01*
X46772Y37913D02*
Y38622D01*
X55157Y32685D02*
X55472D01*
X55315Y32527D02*
Y32842D01*
X55865Y33392D02*
X56180D01*
X56022Y33235D02*
Y33550D01*
X54450Y33392D02*
X54765D01*
X54608Y33235D02*
Y33550D01*
X55157Y39756D02*
X55472D01*
X55315Y39599D02*
Y39913D01*
X54450Y39049D02*
X54765D01*
X54608Y38891D02*
Y39206D01*
X55865Y39049D02*
X56180D01*
X56022Y38891D02*
Y39206D01*
X57947Y34099D02*
X58340D01*
X58143Y33902D02*
Y34296D01*
X51543Y36220D02*
X52016D01*
X51779Y35984D02*
Y36457D01*
X52290Y34099D02*
X52683D01*
X52487Y33902D02*
Y34296D01*
X58614Y36220D02*
X59087D01*
X58850Y35984D02*
Y36457D01*
X24406Y36507D02*
X24839D01*
X24622Y36291D02*
Y36724D01*
X23406Y36507D02*
X23839D01*
X23622Y36291D02*
Y36724D01*
X22406Y36507D02*
X22839D01*
X22622Y36291D02*
Y36724D01*
X11988Y39173D02*
X12421D01*
X12205Y38957D02*
Y39390D01*
X10988Y39173D02*
X11421D01*
X11205Y38957D02*
Y39390D01*
X65598Y11263D02*
X65898D01*
X65748Y11113D02*
Y11413D01*
X65598Y10475D02*
X65898D01*
X65748Y10325D02*
Y10625D01*
X65598Y9688D02*
X65898D01*
X65748Y9538D02*
Y9838D01*
X64811Y9688D02*
X65111D01*
X64961Y9538D02*
Y9838D01*
X64811Y10475D02*
X65111D01*
X64961Y10325D02*
Y10625D01*
X64811Y11263D02*
X65111D01*
X64961Y11113D02*
Y11413D01*
X64023Y11263D02*
X64323D01*
X64173Y11113D02*
Y11413D01*
X64023Y10475D02*
X64323D01*
X64173Y10325D02*
Y10625D01*
X64023Y9688D02*
X64323D01*
X64173Y9538D02*
Y9838D01*
X63236Y9688D02*
X63536D01*
X63386Y9538D02*
Y9838D01*
X63236Y10475D02*
X63536D01*
X63386Y10325D02*
Y10625D01*
X63236Y11263D02*
X63536D01*
X63386Y11113D02*
Y11413D01*
X61063Y38346D02*
X61378D01*
X61220Y38189D02*
Y38504D01*
X54575Y29196D02*
X54890D01*
X54732Y29038D02*
Y29353D01*
X60433Y24252D02*
X60748D01*
X60591Y24094D02*
Y24409D01*
X55197Y3543D02*
X55630D01*
X55413Y3327D02*
Y3760D01*
X52244Y3543D02*
X52677D01*
X52461Y3327D02*
Y3760D01*
X36299Y3368D02*
X36732D01*
X36516Y3151D02*
Y3584D01*
X33346Y3368D02*
X33780D01*
X33563Y3151D02*
Y3584D01*
X17402Y3543D02*
X17835D01*
X17618Y3327D02*
Y3760D01*
X14449Y3543D02*
X14882D01*
X14665Y3327D02*
Y3760D01*
X1103Y9846D02*
X1417D01*
X1260Y9689D02*
Y10004D01*
X61457Y27205D02*
X61772D01*
X61614Y27047D02*
Y27362D01*
X59331Y27835D02*
X59646D01*
X59488Y27677D02*
Y27992D01*
X48432Y9843D02*
X48747D01*
X48589Y9685D02*
Y10000D01*
X29540Y9844D02*
X29855D01*
X29698Y9686D02*
Y10001D01*
X20095Y9839D02*
X20410D01*
X20252Y9682D02*
Y9997D01*
X10631Y9871D02*
X10946D01*
X10789Y9714D02*
Y10029D01*
X53228Y28346D02*
X53543D01*
X53386Y28189D02*
Y28504D01*
X56551Y23935D02*
X56866D01*
X56708Y23778D02*
Y24093D01*
X53189Y26220D02*
X53504D01*
X53346Y26063D02*
Y26378D01*
X53228Y27559D02*
X53543D01*
X53386Y27402D02*
Y27717D01*
X15630Y35984D02*
X15945D01*
X15787Y35827D02*
Y36142D01*
X38984Y9836D02*
X39299D01*
X39141Y9678D02*
Y9993D01*
X53780Y24213D02*
X54094D01*
X53937Y24055D02*
Y24370D01*
X32520Y24092D02*
X32835D01*
X32677Y23934D02*
Y24249D01*
X63092Y33071D02*
X63407D01*
X63249Y32913D02*
Y33228D01*
X60668Y35942D02*
X60983D01*
X60826Y35785D02*
Y36100D01*
X60354Y32874D02*
X60669D01*
X60512Y32717D02*
Y33031D01*
X64606Y33071D02*
X64921D01*
X64764Y32913D02*
Y33228D01*
X6615Y19803D02*
X6930D01*
X6773Y19646D02*
Y19961D01*
X13425Y24803D02*
X13740D01*
X13583Y24646D02*
Y24961D01*
X11582Y18818D02*
X11897D01*
X11739Y18660D02*
Y18975D01*
X25653Y19593D02*
X25968D01*
X25810Y19436D02*
Y19751D01*
X30259Y19060D02*
X30574D01*
X30416Y18903D02*
Y19217D01*
X44724Y19783D02*
X45039D01*
X44882Y19626D02*
Y19941D01*
X51228Y24345D02*
X51543D01*
X51386Y24187D02*
Y24502D01*
X49132Y19040D02*
X49447D01*
X49290Y18883D02*
Y19198D01*
X17569Y14567D02*
X17884D01*
X17726Y14409D02*
Y14724D01*
X19931Y14567D02*
X20246D01*
X20089Y14409D02*
Y14724D01*
X19783Y17648D02*
X20098D01*
X19941Y17490D02*
Y17805D01*
X21299Y17648D02*
X21614D01*
X21457Y17490D02*
Y17805D01*
X15112Y14567D02*
X15427D01*
X15270Y14409D02*
Y14724D01*
X21299Y14567D02*
X21614D01*
X21457Y14409D02*
Y14724D01*
X36206Y14544D02*
X36521D01*
X36364Y14387D02*
Y14702D01*
X38645Y14544D02*
X38960D01*
X38803Y14387D02*
Y14702D01*
X38534Y17621D02*
X38849D01*
X38691Y17463D02*
Y17778D01*
X39975Y17621D02*
X40290D01*
X40133Y17463D02*
Y17778D01*
X33890Y14538D02*
X34204D01*
X34047Y14380D02*
Y14695D01*
X39858Y14538D02*
X40173D01*
X40015Y14380D02*
Y14695D01*
X54885Y13040D02*
X55200D01*
X55043Y12883D02*
Y13198D01*
X56821Y13516D02*
X57136D01*
X56979Y13358D02*
Y13673D01*
X54437Y18038D02*
X54752D01*
X54595Y17880D02*
Y18195D01*
X57453Y17131D02*
X57767D01*
X57610Y16973D02*
Y17288D01*
X56500Y17142D02*
X56815D01*
X56658Y16984D02*
Y17299D01*
X35669Y30315D02*
X35984D01*
X35827Y30157D02*
Y30472D01*
X28189Y29534D02*
X28504D01*
X28346Y29376D02*
Y29691D01*
X56929Y18344D02*
X57244D01*
X57087Y18187D02*
Y18502D01*
X63236Y18110D02*
X63536D01*
X63386Y17960D02*
Y18260D01*
X63236Y17323D02*
X63536D01*
X63386Y17173D02*
Y17473D01*
X63236Y16535D02*
X63536D01*
X63386Y16385D02*
Y16685D01*
X63236Y15748D02*
X63536D01*
X63386Y15598D02*
Y15898D01*
X63236Y14961D02*
X63536D01*
X63386Y14811D02*
Y15111D01*
X64023Y14961D02*
X64323D01*
X64173Y14811D02*
Y15111D01*
X64023Y15748D02*
X64323D01*
X64173Y15598D02*
Y15898D01*
X64023Y16535D02*
X64323D01*
X64173Y16385D02*
Y16685D01*
X64023Y17323D02*
X64323D01*
X64173Y17173D02*
Y17473D01*
X64023Y18110D02*
X64323D01*
X64173Y17960D02*
Y18260D01*
X64811Y18110D02*
X65111D01*
X64961Y17960D02*
Y18260D01*
X64811Y17323D02*
X65111D01*
X64961Y17173D02*
Y17473D01*
X64811Y16535D02*
X65111D01*
X64961Y16385D02*
Y16685D01*
X64811Y15748D02*
X65111D01*
X64961Y15598D02*
Y15898D01*
X64811Y14961D02*
X65111D01*
X64961Y14811D02*
Y15111D01*
X65598Y14961D02*
X65898D01*
X65748Y14811D02*
Y15111D01*
X65598Y15748D02*
X65898D01*
X65748Y15598D02*
Y15898D01*
X65598Y16535D02*
X65898D01*
X65748Y16385D02*
Y16685D01*
X65598Y17323D02*
X65898D01*
X65748Y17173D02*
Y17473D01*
X65598Y18110D02*
X65898D01*
X65748Y17960D02*
Y18260D01*
X1629Y24083D02*
X2023D01*
X1826Y23886D02*
Y24280D01*
X1629Y23083D02*
X2023D01*
X1826Y22886D02*
Y23280D01*
X1629Y27587D02*
X2023D01*
X1826Y27390D02*
Y27784D01*
X1629Y25587D02*
X2023D01*
X1826Y25390D02*
Y25784D01*
X1629Y26587D02*
X2023D01*
X1826Y26390D02*
Y26784D01*
X1629Y30135D02*
X2023D01*
X1826Y29938D02*
Y30332D01*
X1629Y29135D02*
X2023D01*
X1826Y28938D02*
Y29332D01*
X1629Y31135D02*
X2023D01*
X1826Y30938D02*
Y31332D01*
X9764Y21654D02*
X9921D01*
X9843Y21575D02*
Y21732D01*
X10551Y21654D02*
X10709D01*
X10630Y21575D02*
Y21732D01*
X10551Y22441D02*
X10709D01*
X10630Y22362D02*
Y22520D01*
X9764Y22441D02*
X9921D01*
X9843Y22362D02*
Y22520D01*
X10157Y22047D02*
X10315D01*
X10236Y21969D02*
Y22126D01*
X21535Y3430D02*
X21969D01*
X21752Y3213D02*
Y3646D01*
X24488Y3430D02*
X24921D01*
X24705Y3213D02*
Y3646D01*
X24685Y40969D02*
X25079D01*
X24882Y40772D02*
Y41165D01*
X22685Y40969D02*
X23079D01*
X22882Y40772D02*
Y41165D01*
X21685Y40969D02*
X22079D01*
X21882Y40772D02*
Y41165D01*
X23685Y40969D02*
X24079D01*
X23882Y40772D02*
Y41165D01*
X25685Y40969D02*
X26079D01*
X25882Y40772D02*
Y41165D01*
X29055Y22047D02*
X29213D01*
X29134Y21969D02*
Y22126D01*
X28661Y22441D02*
X28819D01*
X28740Y22362D02*
Y22520D01*
X29449Y22441D02*
X29606D01*
X29528Y22362D02*
Y22520D01*
X29449Y21654D02*
X29606D01*
X29528Y21575D02*
Y21732D01*
X28661Y21654D02*
X28819D01*
X28740Y21575D02*
Y21732D01*
X47559Y21654D02*
X47717D01*
X47638Y21575D02*
Y21732D01*
X48346Y21654D02*
X48504D01*
X48425Y21575D02*
Y21732D01*
X48346Y22441D02*
X48504D01*
X48425Y22362D02*
Y22520D01*
X47559Y22441D02*
X47717D01*
X47638Y22362D02*
Y22520D01*
X47953Y22047D02*
X48110D01*
X48032Y21969D02*
Y22126D01*
X31504Y40969D02*
X31898D01*
X31701Y40772D02*
Y41165D01*
X29504Y40969D02*
X29898D01*
X29701Y40772D02*
Y41165D01*
X28504Y40969D02*
X28898D01*
X28701Y40772D02*
Y41165D01*
X30504Y40969D02*
X30898D01*
X30701Y40772D02*
Y41165D01*
X32504Y40969D02*
X32898D01*
X32701Y40772D02*
Y41165D01*
X28150Y15748D02*
X30118D01*
X29134Y14764D02*
Y16732D01*
X40433Y3368D02*
X40866D01*
X40650Y3151D02*
Y3584D01*
X43386Y3368D02*
X43819D01*
X43602Y3151D02*
Y3584D01*
X10020Y6890D02*
X10453D01*
X10236Y6673D02*
Y7106D01*
X10020Y984D02*
X10453D01*
X10236Y768D02*
Y1201D01*
X28917Y6890D02*
X29350D01*
X29134Y6673D02*
Y7106D01*
X28917Y984D02*
X29350D01*
X29134Y768D02*
Y1201D01*
X47815Y6890D02*
X48248D01*
X48032Y6673D02*
Y7106D01*
X47815Y984D02*
X48248D01*
X48032Y768D02*
Y1201D01*
X2244Y3543D02*
X2677D01*
X2461Y3327D02*
Y3760D01*
X5197Y3543D02*
X5630D01*
X5413Y3327D02*
Y3760D01*
X47047Y15748D02*
X49016D01*
X48032Y14764D02*
Y16732D01*
X9252Y15748D02*
X11220D01*
X10236Y14764D02*
Y16732D01*
X4146Y9843D02*
X4579D01*
X4362Y9626D02*
Y10059D01*
X3146Y9843D02*
X3579D01*
X3362Y9626D02*
Y10059D01*
X2146Y9843D02*
X2579D01*
X2362Y9626D02*
Y10059D01*
X6673Y9843D02*
X7106D01*
X6890Y9626D02*
Y10059D01*
X7673Y9843D02*
X8106D01*
X7890Y9626D02*
Y10059D01*
X8673Y9843D02*
X9106D01*
X8890Y9626D02*
Y10059D01*
X13594Y9843D02*
X14028D01*
X13811Y9626D02*
Y10059D01*
X12594Y9843D02*
X13028D01*
X12811Y9626D02*
Y10059D01*
X11594Y9843D02*
X12028D01*
X11811Y9626D02*
Y10059D01*
X16122Y9843D02*
X16555D01*
X16339Y9626D02*
Y10059D01*
X17122Y9843D02*
X17555D01*
X17339Y9626D02*
Y10059D01*
X18122Y9843D02*
X18555D01*
X18339Y9626D02*
Y10059D01*
X20311Y22996D02*
X20744D01*
X20528Y22780D02*
Y23213D01*
X20311Y23996D02*
X20744D01*
X20528Y23780D02*
Y24213D01*
X20311Y25996D02*
X20744D01*
X20528Y25780D02*
Y26213D01*
X20311Y27996D02*
X20744D01*
X20528Y27780D02*
Y28213D01*
X20311Y26996D02*
X20744D01*
X20528Y26780D02*
Y27213D01*
X20311Y24996D02*
X20744D01*
X20528Y24780D02*
Y25213D01*
X20311Y29996D02*
X20744D01*
X20528Y29780D02*
Y30213D01*
X20311Y32996D02*
X20744D01*
X20528Y32780D02*
Y33213D01*
X20311Y34996D02*
X20744D01*
X20528Y34780D02*
Y35213D01*
X20311Y36996D02*
X20744D01*
X20528Y36780D02*
Y37213D01*
X20311Y35996D02*
X20744D01*
X20528Y35780D02*
Y36213D01*
X20311Y33996D02*
X20744D01*
X20528Y33780D02*
Y34213D01*
X20311Y31996D02*
X20744D01*
X20528Y31780D02*
Y32213D01*
X20311Y30996D02*
X20744D01*
X20528Y30780D02*
Y31213D01*
X23043Y9843D02*
X23476D01*
X23260Y9626D02*
Y10059D01*
X22043Y9843D02*
X22476D01*
X22260Y9626D02*
Y10059D01*
X21043Y9843D02*
X21476D01*
X21260Y9626D02*
Y10059D01*
X25571Y9843D02*
X26004D01*
X25787Y9626D02*
Y10059D01*
X26571Y9843D02*
X27004D01*
X26787Y9626D02*
Y10059D01*
X27571Y9843D02*
X28004D01*
X27787Y9626D02*
Y10059D01*
X32492Y9843D02*
X32925D01*
X32709Y9626D02*
Y10059D01*
X31492Y9843D02*
X31925D01*
X31709Y9626D02*
Y10059D01*
X30492Y9843D02*
X30925D01*
X30709Y9626D02*
Y10059D01*
X35020Y9843D02*
X35453D01*
X35236Y9626D02*
Y10059D01*
X36020Y9843D02*
X36453D01*
X36236Y9626D02*
Y10059D01*
X37020Y9843D02*
X37453D01*
X37236Y9626D02*
Y10059D01*
X39311Y40596D02*
X39744D01*
X39528Y40380D02*
Y40813D01*
X39311Y39596D02*
X39744D01*
X39528Y39380D02*
Y39813D01*
X39311Y36596D02*
X39744D01*
X39528Y36380D02*
Y36813D01*
X39311Y34596D02*
X39744D01*
X39528Y34380D02*
Y34813D01*
X39311Y32596D02*
X39744D01*
X39528Y32380D02*
Y32813D01*
X39311Y31596D02*
X39744D01*
X39528Y31380D02*
Y31813D01*
X39311Y33596D02*
X39744D01*
X39528Y33380D02*
Y33813D01*
X39311Y35596D02*
X39744D01*
X39528Y35380D02*
Y35813D01*
X39311Y37596D02*
X39744D01*
X39528Y37380D02*
Y37813D01*
X39311Y38596D02*
X39744D01*
X39528Y38380D02*
Y38813D01*
X41941Y9843D02*
X42374D01*
X42157Y9626D02*
Y10059D01*
X40941Y9843D02*
X41374D01*
X41157Y9626D02*
Y10059D01*
X39941Y9843D02*
X40374D01*
X40157Y9626D02*
Y10059D01*
X39311Y29996D02*
X39744D01*
X39528Y29780D02*
Y30213D01*
X39311Y28996D02*
X39744D01*
X39528Y28780D02*
Y29213D01*
X39311Y26996D02*
X39744D01*
X39528Y26780D02*
Y27213D01*
X39311Y24996D02*
X39744D01*
X39528Y24780D02*
Y25213D01*
X39311Y22996D02*
X39744D01*
X39528Y22780D02*
Y23213D01*
X39311Y23996D02*
X39744D01*
X39528Y23780D02*
Y24213D01*
X39311Y25996D02*
X39744D01*
X39528Y25780D02*
Y26213D01*
X39311Y27996D02*
X39744D01*
X39528Y27780D02*
Y28213D01*
X44468Y9843D02*
X44902D01*
X44685Y9626D02*
Y10059D01*
X45469Y9843D02*
X45902D01*
X45685Y9626D02*
Y10059D01*
X46469Y9843D02*
X46902D01*
X46685Y9626D02*
Y10059D01*
X51390Y9843D02*
X51823D01*
X51606Y9626D02*
Y10059D01*
X50390Y9843D02*
X50823D01*
X50606Y9626D02*
Y10059D01*
X49390Y9843D02*
X49823D01*
X49606Y9626D02*
Y10059D01*
X53917Y9843D02*
X54350D01*
X54134Y9626D02*
Y10059D01*
X54917Y9843D02*
X55350D01*
X55134Y9626D02*
Y10059D01*
X55917Y9843D02*
X56350D01*
X56134Y9626D02*
Y10059D01*
X18327Y22996D02*
X18728D01*
X18528Y22795D02*
Y23197D01*
X18327Y23996D02*
X18728D01*
X18528Y23795D02*
Y24197D01*
X17327Y22996D02*
X17728D01*
X17528Y22795D02*
Y23197D01*
X17327Y23996D02*
X17728D01*
X17528Y23795D02*
Y24197D01*
X18327Y26996D02*
X18728D01*
X18528Y26795D02*
Y27197D01*
X17327Y26996D02*
X17728D01*
X17528Y26795D02*
Y27197D01*
X18327Y28996D02*
X18728D01*
X18528Y28795D02*
Y29197D01*
X17327Y28996D02*
X17728D01*
X17528Y28795D02*
Y29197D01*
X18327Y29996D02*
X18728D01*
X18528Y29795D02*
Y30197D01*
X17327Y29996D02*
X17728D01*
X17528Y29795D02*
Y30197D01*
X17327Y30996D02*
X17728D01*
X17528Y30795D02*
Y31197D01*
X17327Y31996D02*
X17728D01*
X17528Y31795D02*
Y32197D01*
X18327Y33996D02*
X18728D01*
X18528Y33795D02*
Y34197D01*
X17327Y33996D02*
X17728D01*
X17528Y33795D02*
Y34197D01*
X18327Y35996D02*
X18728D01*
X18528Y35795D02*
Y36197D01*
X17327Y35996D02*
X17728D01*
X17528Y35795D02*
Y36197D01*
X18327Y37996D02*
X18728D01*
X18528Y37795D02*
Y38197D01*
X17327Y37996D02*
X17728D01*
X17528Y37795D02*
Y38197D01*
X17327Y40996D02*
X17728D01*
X17528Y40795D02*
Y41197D01*
X18327Y40996D02*
X18728D01*
X18528Y40795D02*
Y41197D01*
X17327Y39996D02*
X17728D01*
X17528Y39795D02*
Y40197D01*
X18327Y39996D02*
X18728D01*
X18528Y39795D02*
Y40197D01*
X17327Y38996D02*
X17728D01*
X17528Y38795D02*
Y39197D01*
X18327Y38996D02*
X18728D01*
X18528Y38795D02*
Y39197D01*
X17327Y36996D02*
X17728D01*
X17528Y36795D02*
Y37197D01*
X18327Y36996D02*
X18728D01*
X18528Y36795D02*
Y37197D01*
X17327Y34996D02*
X17728D01*
X17528Y34795D02*
Y35197D01*
X18327Y34996D02*
X18728D01*
X18528Y34795D02*
Y35197D01*
X17327Y32996D02*
X17728D01*
X17528Y32795D02*
Y33197D01*
X18327Y32996D02*
X18728D01*
X18528Y32795D02*
Y33197D01*
X17327Y27996D02*
X17728D01*
X17528Y27795D02*
Y28197D01*
X18327Y27996D02*
X18728D01*
X18528Y27795D02*
Y28197D01*
X17327Y25996D02*
X17728D01*
X17528Y25795D02*
Y26197D01*
X18327Y25996D02*
X18728D01*
X18528Y25795D02*
Y26197D01*
X17327Y24996D02*
X17728D01*
X17528Y24795D02*
Y25197D01*
X18327Y24996D02*
X18728D01*
X18528Y24795D02*
Y25197D01*
X18327Y21996D02*
X18728D01*
X18528Y21795D02*
Y22197D01*
X18327Y30996D02*
X18728D01*
X18528Y30795D02*
Y31197D01*
X17327Y21996D02*
X17728D01*
X17528Y21795D02*
Y22197D01*
X18327Y31996D02*
X18728D01*
X18528Y31795D02*
Y32197D01*
X42327Y22996D02*
X42728D01*
X42528Y22795D02*
Y23197D01*
X42327Y23996D02*
X42728D01*
X42528Y23795D02*
Y24197D01*
X41327Y22996D02*
X41728D01*
X41528Y22795D02*
Y23197D01*
X41327Y23996D02*
X41728D01*
X41528Y23795D02*
Y24197D01*
X42327Y26996D02*
X42728D01*
X42528Y26795D02*
Y27197D01*
X41327Y26996D02*
X41728D01*
X41528Y26795D02*
Y27197D01*
X42327Y28996D02*
X42728D01*
X42528Y28795D02*
Y29197D01*
X41327Y28996D02*
X41728D01*
X41528Y28795D02*
Y29197D01*
X42327Y29996D02*
X42728D01*
X42528Y29795D02*
Y30197D01*
X41327Y29996D02*
X41728D01*
X41528Y29795D02*
Y30197D01*
X42327Y30996D02*
X42728D01*
X42528Y30795D02*
Y31197D01*
X41327Y30996D02*
X41728D01*
X41528Y30795D02*
Y31197D01*
X42327Y31996D02*
X42728D01*
X42528Y31795D02*
Y32197D01*
X41327Y31996D02*
X41728D01*
X41528Y31795D02*
Y32197D01*
X42327Y33996D02*
X42728D01*
X42528Y33795D02*
Y34197D01*
X41327Y33996D02*
X41728D01*
X41528Y33795D02*
Y34197D01*
X42327Y35996D02*
X42728D01*
X42528Y35795D02*
Y36197D01*
X41327Y35996D02*
X41728D01*
X41528Y35795D02*
Y36197D01*
X42327Y37996D02*
X42728D01*
X42528Y37795D02*
Y38197D01*
X41327Y37996D02*
X41728D01*
X41528Y37795D02*
Y38197D01*
X41327Y40996D02*
X41728D01*
X41528Y40795D02*
Y41197D01*
X42327Y40996D02*
X42728D01*
X42528Y40795D02*
Y41197D01*
X41327Y39996D02*
X41728D01*
X41528Y39795D02*
Y40197D01*
X42327Y39996D02*
X42728D01*
X42528Y39795D02*
Y40197D01*
X41327Y38996D02*
X41728D01*
X41528Y38795D02*
Y39197D01*
X42327Y38996D02*
X42728D01*
X42528Y38795D02*
Y39197D01*
X41327Y36996D02*
X41728D01*
X41528Y36795D02*
Y37197D01*
X42327Y36996D02*
X42728D01*
X42528Y36795D02*
Y37197D01*
X41327Y34996D02*
X41728D01*
X41528Y34795D02*
Y35197D01*
X42327Y34996D02*
X42728D01*
X42528Y34795D02*
Y35197D01*
X41327Y32996D02*
X41728D01*
X41528Y32795D02*
Y33197D01*
X42327Y32996D02*
X42728D01*
X42528Y32795D02*
Y33197D01*
X41327Y27996D02*
X41728D01*
X41528Y27795D02*
Y28197D01*
X42327Y27996D02*
X42728D01*
X42528Y27795D02*
Y28197D01*
X41327Y25996D02*
X41728D01*
X41528Y25795D02*
Y26197D01*
X42327Y25996D02*
X42728D01*
X42528Y25795D02*
Y26197D01*
X41327Y24996D02*
X41728D01*
X41528Y24795D02*
Y25197D01*
X42327Y24996D02*
X42728D01*
X42528Y24795D02*
Y25197D01*
X42327Y21996D02*
X42728D01*
X42528Y21795D02*
Y22197D01*
X41327Y21996D02*
X41728D01*
X41528Y21795D02*
Y22197D01*
X52000Y24803D02*
X52118D01*
X52059Y24744D02*
Y24862D01*
X52282Y14593D02*
X52400D01*
X52341Y14534D02*
Y14652D01*
X48679Y26096D02*
X48798D01*
X48738Y26037D02*
Y26155D01*
X34390Y32874D02*
X34508D01*
X34449Y32815D02*
Y32933D01*
X47509Y26604D02*
X47627D01*
X47568Y26545D02*
Y26663D01*
X43386Y39159D02*
X43504D01*
X43445Y39100D02*
Y39218D01*
X44097Y35043D02*
X44254D01*
X44176Y34965D02*
Y35122D01*
X43077Y29449D02*
X43195D01*
X43136Y29390D02*
Y29508D01*
X34028Y24442D02*
X34146D01*
X34087Y24382D02*
Y24501D01*
X34390Y35630D02*
X34508D01*
X34449Y35571D02*
Y35689D01*
X34390Y34449D02*
X34508D01*
X34449Y34390D02*
Y34508D01*
X34723Y32596D02*
X34841D01*
X34782Y32537D02*
Y32655D01*
X34723Y33799D02*
X34841D01*
X34782Y33740D02*
Y33858D01*
X34390Y30906D02*
X34508D01*
X34449Y30846D02*
Y30965D01*
X34241Y26185D02*
X34359D01*
X34300Y26126D02*
Y26244D01*
X34193Y26969D02*
X34311D01*
X34252Y26909D02*
Y27028D01*
X35374Y25591D02*
X35492D01*
X35433Y25531D02*
Y25650D01*
X35790Y32207D02*
X35908D01*
X35849Y32148D02*
Y32266D01*
X28506Y27180D02*
X28625D01*
X28565Y27121D02*
Y27239D01*
X37825Y32213D02*
X37943D01*
X37884Y32154D02*
Y32272D01*
X26122Y25591D02*
X26240D01*
X26181Y25531D02*
Y25650D01*
X25138Y21850D02*
X25256D01*
X25197Y21791D02*
Y21909D01*
X17067Y20079D02*
X17185D01*
X17126Y20020D02*
Y20138D01*
X47355Y32744D02*
X47513D01*
X47434Y32665D02*
Y32823D01*
X47362Y33268D02*
X47520D01*
X47441Y33189D02*
Y33346D01*
X45506Y34139D02*
X45663D01*
X45584Y34060D02*
Y34218D01*
X45148Y33772D02*
X45305D01*
X45227Y33694D02*
Y33851D01*
X45059Y35039D02*
X45217D01*
X45138Y34961D02*
Y35118D01*
X48148Y31301D02*
X48306D01*
X48227Y31222D02*
Y31380D01*
X49358Y35016D02*
X49516D01*
X49437Y34937D02*
Y35095D01*
X46771Y34341D02*
X46929D01*
X46850Y34262D02*
Y34420D01*
X46772Y35039D02*
X46929D01*
X46850Y34961D02*
Y35118D01*
X56695Y34252D02*
X56813D01*
X56754Y34193D02*
Y34311D01*
X56695Y34646D02*
X56813D01*
X56754Y34587D02*
Y34705D01*
X56695Y35039D02*
X56813D01*
X56754Y34980D02*
Y35098D01*
X56695Y35433D02*
X56813D01*
X56754Y35374D02*
Y35492D01*
X56831Y37402D02*
X56949D01*
X56890Y37343D02*
Y37461D01*
X55846Y35039D02*
X55965D01*
X55906Y34980D02*
Y35098D01*
X55450Y35434D02*
X55568D01*
X55509Y35375D02*
Y35493D01*
X22676Y18861D02*
X22794D01*
X22735Y18802D02*
Y18920D01*
X24740Y26807D02*
X24858D01*
X24799Y26748D02*
Y26866D01*
X48543Y36645D02*
X48701D01*
X48622Y36566D02*
Y36723D01*
X66203Y30309D02*
X66321D01*
X66262Y30250D02*
Y30368D01*
X66206Y29521D02*
X66324D01*
X66265Y29462D02*
Y29580D01*
X66206Y29127D02*
X66324D01*
X66265Y29068D02*
Y29186D01*
X66206Y29915D02*
X66324D01*
X66265Y29856D02*
Y29974D01*
X65809Y30309D02*
X65927D01*
X65868Y30250D02*
Y30368D01*
X65809Y29522D02*
X65927D01*
X65868Y29463D02*
Y29581D01*
X65809Y29128D02*
X65927D01*
X65868Y29069D02*
Y29187D01*
X65809Y29915D02*
X65927D01*
X65868Y29856D02*
Y29974D01*
X66203Y31973D02*
X66321D01*
X66262Y31914D02*
Y32032D01*
X66206Y31185D02*
X66324D01*
X66265Y31126D02*
Y31244D01*
X66206Y30791D02*
X66324D01*
X66265Y30732D02*
Y30851D01*
X66206Y31579D02*
X66324D01*
X66265Y31520D02*
Y31638D01*
X65809Y31973D02*
X65927D01*
X65868Y31914D02*
Y32032D01*
X65809Y31186D02*
X65927D01*
X65868Y31127D02*
Y31245D01*
X65809Y30792D02*
X65927D01*
X65868Y30733D02*
Y30851D01*
X65809Y31579D02*
X65927D01*
X65868Y31520D02*
Y31639D01*
X64312Y39767D02*
X64430D01*
X64371Y39707D02*
Y39826D01*
X63524Y39764D02*
X63642D01*
X63583Y39705D02*
Y39823D01*
X63130Y39764D02*
X63248D01*
X63189Y39705D02*
Y39823D01*
X63917Y39764D02*
X64035D01*
X63976Y39705D02*
Y39823D01*
X64312Y40160D02*
X64430D01*
X64371Y40101D02*
Y40219D01*
X63524Y40160D02*
X63642D01*
X63583Y40101D02*
Y40219D01*
X63130Y40160D02*
X63249D01*
X63190Y40101D02*
Y40219D01*
X63918Y40160D02*
X64036D01*
X63977Y40101D02*
Y40219D01*
X59587Y39767D02*
X59705D01*
X59646Y39707D02*
Y39826D01*
X58799Y39764D02*
X58917D01*
X58858Y39705D02*
Y39823D01*
X58406Y39764D02*
X58524D01*
X58465Y39705D02*
Y39823D01*
X59193Y39764D02*
X59311D01*
X59252Y39705D02*
Y39823D01*
X59587Y40160D02*
X59705D01*
X59646Y40101D02*
Y40219D01*
X58800Y40160D02*
X58918D01*
X58859Y40101D02*
Y40219D01*
X58406Y40160D02*
X58524D01*
X58465Y40101D02*
Y40219D01*
X59193Y40160D02*
X59312D01*
X59253Y40101D02*
Y40219D01*
X61162Y39767D02*
X61280D01*
X61221Y39707D02*
Y39826D01*
X60374Y39764D02*
X60492D01*
X60433Y39705D02*
Y39823D01*
X59980Y39764D02*
X60098D01*
X60039Y39705D02*
Y39823D01*
X60768Y39764D02*
X60886D01*
X60827Y39705D02*
Y39823D01*
X61162Y40160D02*
X61280D01*
X61221Y40101D02*
Y40219D01*
X60375Y40160D02*
X60493D01*
X60434Y40101D02*
Y40219D01*
X59981Y40160D02*
X60099D01*
X60040Y40101D02*
Y40219D01*
X60768Y40160D02*
X60886D01*
X60827Y40101D02*
Y40219D01*
X62343Y40160D02*
X62461D01*
X62402Y40101D02*
Y40219D01*
X61556Y40160D02*
X61674D01*
X61615Y40101D02*
Y40219D01*
X61949Y40160D02*
X62067D01*
X62008Y40101D02*
Y40219D01*
X62737Y40160D02*
X62855D01*
X62796Y40101D02*
Y40219D01*
X62343Y39764D02*
X62461D01*
X62402Y39705D02*
Y39823D01*
X61555Y39764D02*
X61673D01*
X61614Y39705D02*
Y39823D01*
X61949Y39764D02*
X62067D01*
X62008Y39705D02*
Y39823D01*
X62737Y39767D02*
X62855D01*
X62796Y39707D02*
Y39826D01*
X53300Y31325D02*
X53418D01*
X53359Y31265D02*
Y31384D01*
X55778Y31083D02*
X55896D01*
X55837Y31024D02*
Y31142D01*
X55293Y30623D02*
X55411D01*
X55352Y30564D02*
Y30682D01*
X48543Y35021D02*
X48701D01*
X48622Y34943D02*
Y35100D01*
X53875Y34646D02*
X53993D01*
X53934Y34587D02*
Y34705D01*
X53875Y35040D02*
X53993D01*
X53934Y34981D02*
Y35099D01*
X53875Y34253D02*
X53993D01*
X53934Y34193D02*
Y34312D01*
X9390Y31102D02*
X9508D01*
X9449Y31043D02*
Y31161D01*
X31871Y20376D02*
X32028D01*
X31950Y20297D02*
Y20454D01*
X44912Y22356D02*
X45030D01*
X44971Y22297D02*
Y22415D01*
X48143Y32087D02*
X48301D01*
X48222Y32008D02*
Y32165D01*
X55059Y34252D02*
X55177D01*
X55118Y34193D02*
Y34311D01*
X54665Y34252D02*
X54783D01*
X54724Y34193D02*
Y34311D01*
X54272Y34252D02*
X54390D01*
X54331Y34193D02*
Y34311D01*
X46772Y36673D02*
X46929D01*
X46850Y36594D02*
Y36752D01*
X45000Y36673D02*
X45157D01*
X45079Y36594D02*
Y36752D01*
X60737Y12263D02*
X60855D01*
X60796Y12204D02*
Y12322D01*
X60737Y10300D02*
X60855D01*
X60796Y10241D02*
Y10359D01*
X58830Y10633D02*
X58948D01*
X58889Y10574D02*
Y10692D01*
X58830Y11184D02*
X58948D01*
X58889Y11125D02*
Y11243D01*
X58830Y10082D02*
X58948D01*
X58889Y10023D02*
Y10141D01*
X58830Y9531D02*
X58948D01*
X58889Y9472D02*
Y9590D01*
X57551Y13454D02*
X57669D01*
X57610Y13395D02*
Y13513D01*
X57416Y12482D02*
X57534D01*
X57475Y12423D02*
Y12541D01*
X59381Y15594D02*
X59499D01*
X59440Y15535D02*
Y15653D01*
X59381Y15042D02*
X59499D01*
X59440Y14983D02*
Y15101D01*
X59381Y14491D02*
X59499D01*
X59440Y14432D02*
Y14550D01*
X53091Y14593D02*
X53209D01*
X53150Y14534D02*
Y14652D01*
X55453Y34252D02*
X55571D01*
X55512Y34193D02*
Y34311D01*
X64434Y31299D02*
X64592D01*
X64513Y31220D02*
Y31378D01*
X60551Y31299D02*
X60709D01*
X60630Y31220D02*
Y31378D01*
X57776Y30630D02*
X57894D01*
X57835Y30571D02*
Y30689D01*
X55590Y29528D02*
X55708D01*
X55649Y29469D02*
Y29587D01*
X55951Y29921D02*
X56069D01*
X56010Y29862D02*
Y29980D01*
X55951Y29134D02*
X56069D01*
X56010Y29075D02*
Y29193D01*
X62933Y36614D02*
X63051D01*
X62992Y36555D02*
Y36673D01*
X59980Y34826D02*
X60098D01*
X60039Y34767D02*
Y34885D01*
X59941Y33819D02*
X60059D01*
X60000Y33760D02*
Y33878D01*
X59381Y18350D02*
X59499D01*
X59440Y18290D02*
Y18409D01*
X59381Y17798D02*
X59499D01*
X59440Y17739D02*
Y17857D01*
X59381Y17247D02*
X59499D01*
X59440Y17188D02*
Y17306D01*
X59381Y16696D02*
X59499D01*
X59440Y16637D02*
Y16755D01*
X59381Y16145D02*
X59499D01*
X59440Y16086D02*
Y16204D01*
X58830Y18350D02*
X58948D01*
X58889Y18290D02*
Y18409D01*
X58830Y17798D02*
X58948D01*
X58889Y17739D02*
Y17857D01*
X58830Y17247D02*
X58948D01*
X58889Y17188D02*
Y17306D01*
X58830Y16696D02*
X58948D01*
X58889Y16637D02*
Y16755D01*
X58830Y16145D02*
X58948D01*
X58889Y16086D02*
Y16204D01*
X58830Y15594D02*
X58948D01*
X58889Y15535D02*
Y15653D01*
X58830Y15042D02*
X58948D01*
X58889Y14983D02*
Y15101D01*
X58830Y14491D02*
X58948D01*
X58889Y14432D02*
Y14550D01*
X58830Y13940D02*
X58948D01*
X58889Y13881D02*
Y13999D01*
X58830Y13389D02*
X58948D01*
X58889Y13330D02*
Y13448D01*
X58830Y12838D02*
X58948D01*
X58889Y12779D02*
Y12897D01*
X58830Y12287D02*
X58948D01*
X58889Y12227D02*
Y12346D01*
X58830Y11735D02*
X58948D01*
X58889Y11676D02*
Y11794D01*
X59283Y19864D02*
X59401D01*
X59342Y19805D02*
Y19923D01*
X57943Y28475D02*
X58062D01*
X58002Y28416D02*
Y28534D01*
X60571Y28543D02*
X60689D01*
X60630Y28484D02*
Y28602D01*
X60571Y28937D02*
X60689D01*
X60630Y28878D02*
Y28996D01*
X60571Y28150D02*
X60689D01*
X60630Y28091D02*
Y28209D01*
X28993Y28346D02*
X29111D01*
X29052Y28287D02*
Y28406D01*
X28681Y27953D02*
X28799D01*
X28740Y27894D02*
Y28012D01*
X60736Y17535D02*
X60855D01*
X60796Y17476D02*
Y17594D01*
X13594Y19291D02*
X13712D01*
X13653Y19232D02*
Y19350D01*
X32523Y19060D02*
X32641D01*
X32582Y19001D02*
Y19119D01*
X25828Y18898D02*
X25946D01*
X25887Y18839D02*
Y18957D01*
X65162Y38183D02*
X65322D01*
X65242Y38103D02*
Y38263D01*
X65609Y38183D02*
X65769D01*
X65689Y38103D02*
Y38263D01*
X66059Y38183D02*
X66219D01*
X66139Y38103D02*
Y38263D01*
X64470Y28150D02*
X64588D01*
X64529Y28091D02*
Y28209D01*
X64470Y28543D02*
X64588D01*
X64529Y28484D02*
Y28602D01*
X64470Y28937D02*
X64588D01*
X64529Y28878D02*
Y28996D01*
X2894Y15200D02*
X3012D01*
X2953Y15141D02*
Y15259D01*
X6341Y16732D02*
X6459D01*
X6400Y16673D02*
Y16791D01*
X4177Y24002D02*
X4295D01*
X4236Y23943D02*
Y24061D01*
X28287Y24016D02*
X28406D01*
X28346Y23957D02*
Y24075D01*
X6714Y18898D02*
X6832D01*
X6773Y18839D02*
Y18957D01*
X7419Y27953D02*
X7537D01*
X7478Y27894D02*
Y28012D01*
X7419Y28741D02*
X7537D01*
X7478Y28682D02*
Y28800D01*
X7419Y28347D02*
X7537D01*
X7478Y28288D02*
Y28406D01*
X8239Y19803D02*
X8357D01*
X8298Y19744D02*
Y19862D01*
X8153Y22316D02*
X8271D01*
X8212Y22257D02*
Y22375D01*
X9244Y19805D02*
X9362D01*
X9303Y19746D02*
Y19864D01*
X8771Y19803D02*
X8889D01*
X8830Y19744D02*
Y19862D01*
X9153Y28304D02*
X9271D01*
X9212Y28245D02*
Y28363D01*
X8993Y32678D02*
X9111D01*
X9052Y32619D02*
Y32737D01*
X8993Y32284D02*
X9111D01*
X9052Y32225D02*
Y32343D01*
X9878Y28304D02*
X9996D01*
X9937Y28245D02*
Y28363D01*
X9781Y30316D02*
X9899D01*
X9840Y30256D02*
Y30375D01*
X9781Y29922D02*
X9899D01*
X9840Y29863D02*
Y29981D01*
X9781Y31103D02*
X9899D01*
X9840Y31044D02*
Y31162D01*
X9781Y30709D02*
X9899D01*
X9840Y30650D02*
Y30768D01*
X9783Y31890D02*
X9902D01*
X9843Y31831D02*
Y31949D01*
X9783Y32677D02*
X9902D01*
X9843Y32618D02*
Y32736D01*
X9783Y32283D02*
X9902D01*
X9843Y32224D02*
Y32343D01*
X10571Y30315D02*
X10689D01*
X10630Y30256D02*
Y30374D01*
X10571Y29921D02*
X10689D01*
X10630Y29862D02*
Y29980D01*
X10571Y31102D02*
X10689D01*
X10630Y31043D02*
Y31161D01*
X10571Y30709D02*
X10689D01*
X10630Y30650D02*
Y30768D01*
X10568Y31890D02*
X10686D01*
X10627Y31831D02*
Y31949D01*
X10592Y33471D02*
X10710D01*
X10651Y33412D02*
Y33530D01*
X11356Y30316D02*
X11474D01*
X11415Y30256D02*
Y30375D01*
X11356Y29922D02*
X11474D01*
X11415Y29863D02*
Y29981D01*
X11356Y31103D02*
X11474D01*
X11415Y31044D02*
Y31162D01*
X11356Y30709D02*
X11474D01*
X11415Y30650D02*
Y30768D01*
X11358Y31890D02*
X11476D01*
X11417Y31831D02*
Y31949D01*
X11358Y32677D02*
X11476D01*
X11417Y32618D02*
Y32736D01*
X11358Y32283D02*
X11476D01*
X11417Y32224D02*
Y32343D01*
X11358Y33465D02*
X11476D01*
X11417Y33406D02*
Y33524D01*
X11358Y33071D02*
X11476D01*
X11417Y33012D02*
Y33130D01*
X12146Y30315D02*
X12264D01*
X12205Y30256D02*
Y30374D01*
X12146Y29921D02*
X12264D01*
X12205Y29862D02*
Y29980D01*
X12146Y31102D02*
X12264D01*
X12205Y31043D02*
Y31161D01*
X12146Y30709D02*
X12264D01*
X12205Y30650D02*
Y30768D01*
X12143Y32669D02*
X12261D01*
X12202Y32610D02*
Y32728D01*
X12143Y33471D02*
X12261D01*
X12202Y33412D02*
Y33530D01*
X12143Y33062D02*
X12261D01*
X12202Y33003D02*
Y33121D01*
X12904Y20376D02*
X13061D01*
X12983Y20297D02*
Y20454D01*
X12933Y31890D02*
X13051D01*
X12992Y31831D02*
Y31949D01*
X12933Y32669D02*
X13051D01*
X12992Y32609D02*
Y32728D01*
X12933Y32290D02*
X13051D01*
X12992Y32231D02*
Y32349D01*
X12933Y33471D02*
X13051D01*
X12992Y33412D02*
Y33530D01*
X12933Y33061D02*
X13051D01*
X12992Y33002D02*
Y33120D01*
X12913Y35820D02*
X13071D01*
X12992Y35742D02*
Y35899D01*
X13704Y21260D02*
X13861D01*
X13782Y21181D02*
Y21339D01*
X14488Y27556D02*
X14646D01*
X14567Y27477D02*
Y27635D01*
X15211Y16286D02*
X15329D01*
X15270Y16227D02*
Y16345D01*
X15276Y32512D02*
X15433D01*
X15354Y32433D02*
Y32590D01*
X16003Y16282D02*
X16121D01*
X16062Y16223D02*
Y16341D01*
X15999Y17323D02*
X16117D01*
X16058Y17264D02*
Y17382D01*
X16913Y15551D02*
X17031D01*
X16972Y15492D02*
Y15610D01*
X16913Y16332D02*
X17031D01*
X16972Y16273D02*
Y16391D01*
X18379Y13122D02*
X18497D01*
X18438Y13063D02*
Y13181D01*
X19232Y13105D02*
X19350D01*
X19291Y13046D02*
Y13164D01*
X19626Y24663D02*
X19744D01*
X19685Y24604D02*
Y24722D01*
X23201Y18718D02*
X23319D01*
X23260Y18659D02*
Y18777D01*
X24282Y22835D02*
X24400D01*
X24341Y22776D02*
Y22894D01*
X24941Y16732D02*
X25059D01*
X25000Y16673D02*
Y16791D01*
X25925Y22316D02*
X26043D01*
X25984Y22257D02*
Y22375D01*
X26071Y34192D02*
X26189D01*
X26130Y34133D02*
Y34251D01*
X27565Y19791D02*
X27683D01*
X27624Y19732D02*
Y19850D01*
X27303Y19791D02*
X27421D01*
X27362Y19732D02*
Y19850D01*
X28048Y19804D02*
X28167D01*
X28108Y19745D02*
Y19863D01*
X29256Y27934D02*
X29375D01*
X29315Y27875D02*
Y27993D01*
X29941Y30000D02*
X30059D01*
X30000Y29941D02*
Y30059D01*
X29629Y38065D02*
X29747D01*
X29688Y38006D02*
Y38124D01*
X30634Y36760D02*
X30752D01*
X30693Y36701D02*
Y36819D01*
X30634Y38065D02*
X30752D01*
X30693Y38006D02*
Y38124D01*
X31437Y34996D02*
X31555D01*
X31496Y34937D02*
Y35055D01*
X34827Y17274D02*
X34945D01*
X34886Y17215D02*
Y17333D01*
X34723Y26852D02*
X34841D01*
X34782Y26793D02*
Y26911D01*
X37072Y13195D02*
X37190D01*
X37131Y13136D02*
Y13254D01*
X36949Y25123D02*
X37067D01*
X37008Y25064D02*
Y25182D01*
X37933Y13195D02*
X38051D01*
X37992Y13136D02*
Y13254D01*
X37825Y24471D02*
X37943D01*
X37884Y24412D02*
Y24530D01*
X37825Y26996D02*
X37943D01*
X37884Y26937D02*
Y27055D01*
X37825Y29451D02*
X37943D01*
X37884Y29392D02*
Y29510D01*
X37825Y29983D02*
X37943D01*
X37884Y29924D02*
Y30042D01*
X37825Y30805D02*
X37943D01*
X37884Y30746D02*
Y30864D01*
X37845Y35596D02*
X37963D01*
X37904Y35537D02*
Y35655D01*
X38435Y31582D02*
X38553D01*
X38494Y31523D02*
Y31641D01*
X38542Y32746D02*
X38660D01*
X38601Y32687D02*
Y32805D01*
X39357Y15945D02*
X39475D01*
X39416Y15886D02*
Y16004D01*
X40074Y16532D02*
X40192D01*
X40133Y16473D02*
Y16591D01*
X41935Y18716D02*
X42054D01*
X41995Y18657D02*
Y18775D01*
X44823Y18824D02*
X44941D01*
X44882Y18765D02*
Y18883D01*
X45937Y19741D02*
X46055D01*
X45996Y19682D02*
Y19800D01*
X46004Y22356D02*
X46122D01*
X46063Y22297D02*
Y22415D01*
X46447Y19741D02*
X46566D01*
X46506Y19682D02*
Y19800D01*
X50692Y20376D02*
X50850D01*
X50771Y20297D02*
Y20454D01*
X51496Y21260D02*
X51654D01*
X51575Y21181D02*
Y21339D01*
X53253Y17310D02*
X53371D01*
X53312Y17251D02*
Y17369D01*
X54075Y14277D02*
X54193D01*
X54134Y14218D02*
Y14337D01*
X54075Y15077D02*
X54193D01*
X54134Y15018D02*
Y15137D01*
X53788Y16454D02*
X53906D01*
X53847Y16395D02*
Y16513D01*
X54665Y35039D02*
X54783D01*
X54724Y34980D02*
Y35098D01*
X55636Y15718D02*
X55754D01*
X55695Y15659D02*
Y15777D01*
X55450Y35040D02*
X55568D01*
X55509Y34981D02*
Y35099D01*
X57357Y27975D02*
X57475D01*
X57416Y27916D02*
Y28034D01*
X57556Y14690D02*
X57674D01*
X57615Y14631D02*
Y14749D01*
X57938Y24403D02*
X58056D01*
X57997Y24344D02*
Y24462D01*
X58819Y19864D02*
X58937D01*
X58878Y19805D02*
Y19923D01*
X58799Y24396D02*
X58917D01*
X58858Y24337D02*
Y24455D01*
X58670Y25241D02*
X58788D01*
X58729Y25182D02*
Y25300D01*
X58670Y26041D02*
X58788D01*
X58729Y25982D02*
Y26100D01*
X58671Y26772D02*
X58789D01*
X58730Y26713D02*
Y26831D01*
X58670Y27560D02*
X58788D01*
X58729Y27501D02*
Y27619D01*
X61831Y19724D02*
X61949D01*
X61890Y19665D02*
Y19783D01*
X61716Y36558D02*
X61835D01*
X61775Y36499D02*
Y36617D01*
X62628Y34252D02*
X62746D01*
X62687Y34193D02*
Y34311D01*
X64075Y32351D02*
X64272D01*
X64173Y32252D02*
Y32449D01*
X64114Y34775D02*
X64232D01*
X64173Y34716D02*
Y34834D01*
X1034Y18504D02*
X1152D01*
X1093Y18445D02*
Y18563D01*
X4162Y27229D02*
X4280D01*
X4221Y27170D02*
Y27288D01*
X5729Y32278D02*
X5926D01*
X5828Y32180D02*
Y32377D01*
X8418Y28051D02*
X8536D01*
X8477Y27992D02*
Y28110D01*
X9240Y19393D02*
X9358D01*
X9299Y19334D02*
Y19452D01*
X8777Y19412D02*
X8895D01*
X8836Y19353D02*
Y19471D01*
X11357Y34417D02*
X11515D01*
X11436Y34339D02*
Y34496D01*
X12028Y28051D02*
X12146D01*
X12087Y27992D02*
Y28110D01*
X12008Y34417D02*
X12165D01*
X12087Y34339D02*
Y34496D01*
X13876Y34415D02*
X13994D01*
X13935Y34356D02*
Y34474D01*
X18561Y16890D02*
X18679D01*
X18620Y16831D02*
Y16949D01*
X19171Y16890D02*
X19289D01*
X19230Y16831D02*
Y16949D01*
X22776Y21614D02*
X22894D01*
X22835Y21555D02*
Y21673D01*
X26005Y29693D02*
X26123D01*
X26064Y29634D02*
Y29752D01*
X26005Y30493D02*
X26123D01*
X26064Y30434D02*
Y30552D01*
X26793Y31244D02*
X26911D01*
X26852Y31185D02*
Y31303D01*
X27571Y19404D02*
X27689D01*
X27630Y19344D02*
Y19463D01*
X27403Y31244D02*
X27521D01*
X27462Y31185D02*
Y31303D01*
X28064Y19387D02*
X28182D01*
X28123Y19328D02*
Y19446D01*
X28287Y24803D02*
X28406D01*
X28346Y24744D02*
Y24862D01*
X28287Y25591D02*
X28406D01*
X28346Y25532D02*
Y25650D01*
X29075Y24803D02*
X29193D01*
X29134Y24744D02*
Y24862D01*
X29075Y25591D02*
X29193D01*
X29134Y25532D02*
Y25650D01*
X29697Y32043D02*
X29815D01*
X29756Y31984D02*
Y32102D01*
X29629Y36793D02*
X29747D01*
X29688Y36734D02*
Y36852D01*
X31517Y23396D02*
X31635D01*
X31576Y23337D02*
Y23455D01*
X32193Y35996D02*
X32311D01*
X32252Y35937D02*
Y36055D01*
X34006Y16260D02*
X34124D01*
X34065Y16201D02*
Y16319D01*
X34776Y16260D02*
X34894D01*
X34835Y16201D02*
Y16319D01*
X34723Y30392D02*
X34841D01*
X34782Y30333D02*
Y30451D01*
X36158Y40785D02*
X36316D01*
X36237Y40707D02*
Y40864D01*
X37138Y16859D02*
X37256D01*
X37197Y16800D02*
Y16918D01*
X36949Y27229D02*
X37067D01*
X37008Y27170D02*
Y27288D01*
X37845Y37596D02*
X37963D01*
X37904Y37537D02*
Y37655D01*
X46455Y19357D02*
X46573D01*
X46514Y19298D02*
Y19416D01*
X47222Y24793D02*
X47341D01*
X47281Y24734D02*
Y24852D01*
X47187Y25591D02*
X47305D01*
X47246Y25532D02*
Y25650D01*
X47972Y24793D02*
X48091D01*
X48032Y24734D02*
Y24852D01*
X47972Y25591D02*
X48091D01*
X48032Y25532D02*
Y25650D01*
X51256Y18470D02*
X51374D01*
X51315Y18411D02*
Y18529D01*
X54665Y35433D02*
X54783D01*
X54724Y35374D02*
Y35492D01*
X54665Y34646D02*
X54783D01*
X54724Y34587D02*
Y34705D01*
X55596Y26520D02*
X55714D01*
X55655Y26461D02*
Y26579D01*
X55450Y34646D02*
X55568D01*
X55509Y34587D02*
Y34705D01*
X58819Y19431D02*
X58937D01*
X58878Y19372D02*
Y19490D01*
X59291Y19431D02*
X59409D01*
X59350Y19372D02*
Y19490D01*
X60019Y24856D02*
X60138D01*
X60078Y24797D02*
Y24915D01*
X61831Y19291D02*
X61949D01*
X61890Y19232D02*
Y19350D01*
X63575Y33666D02*
X63735D01*
X63655Y33586D02*
Y33746D01*
X65150Y36227D02*
X65308D01*
X65229Y36148D02*
Y36306D01*
X2953Y26778D02*
X3071D01*
X3012Y26719D02*
Y26837D01*
X5541Y16732D02*
X5659D01*
X5600Y16673D02*
Y16791D01*
X7028Y22288D02*
X7146D01*
X7087Y22229D02*
Y22347D01*
X7028Y27953D02*
X7146D01*
X7087Y27894D02*
Y28012D01*
X7028Y28740D02*
X7146D01*
X7087Y28681D02*
Y28799D01*
X7028Y28346D02*
X7146D01*
X7087Y28287D02*
Y28406D01*
X8505Y19803D02*
X8623D01*
X8564Y19744D02*
Y19862D01*
X9390Y30315D02*
X9508D01*
X9449Y30256D02*
Y30374D01*
X10177Y30315D02*
X10295D01*
X10236Y30256D02*
Y30374D01*
X10965Y30315D02*
X11083D01*
X11024Y30256D02*
Y30374D01*
X9390Y29921D02*
X9508D01*
X9449Y29862D02*
Y29980D01*
X10177Y29921D02*
X10295D01*
X10236Y29862D02*
Y29980D01*
X10965Y29921D02*
X11083D01*
X11024Y29862D02*
Y29980D01*
X10177Y31102D02*
X10295D01*
X10236Y31043D02*
Y31161D01*
X10965Y31102D02*
X11083D01*
X11024Y31043D02*
Y31161D01*
X9390Y30709D02*
X9508D01*
X9449Y30650D02*
Y30768D01*
X10177Y30709D02*
X10295D01*
X10236Y30650D02*
Y30768D01*
X10965Y30709D02*
X11083D01*
X11024Y30650D02*
Y30768D01*
X9390Y31890D02*
X9508D01*
X9449Y31831D02*
Y31949D01*
X10177Y31890D02*
X10295D01*
X10236Y31831D02*
Y31949D01*
X10965Y31890D02*
X11083D01*
X11024Y31831D02*
Y31949D01*
X9390Y32677D02*
X9508D01*
X9449Y32618D02*
Y32736D01*
X9390Y32283D02*
X9508D01*
X9449Y32224D02*
Y32343D01*
X13524Y22266D02*
X13642D01*
X13583Y22207D02*
Y22325D01*
X11752Y30315D02*
X11870D01*
X11811Y30256D02*
Y30374D01*
X11752Y29921D02*
X11870D01*
X11811Y29862D02*
Y29980D01*
X11752Y31102D02*
X11870D01*
X11811Y31043D02*
Y31161D01*
X11752Y30709D02*
X11870D01*
X11811Y30650D02*
Y30768D01*
X11752Y31890D02*
X11870D01*
X11811Y31831D02*
Y31949D01*
X12539Y31890D02*
X12657D01*
X12598Y31831D02*
Y31949D01*
X13327Y31890D02*
X13445D01*
X13386Y31831D02*
Y31949D01*
X11752Y32669D02*
X11870D01*
X11811Y32609D02*
Y32728D01*
X12539Y32669D02*
X12657D01*
X12598Y32609D02*
Y32728D01*
X13327Y32669D02*
X13445D01*
X13386Y32610D02*
Y32728D01*
X11752Y32290D02*
X11870D01*
X11811Y32231D02*
Y32349D01*
X12539Y32290D02*
X12657D01*
X12598Y32231D02*
Y32349D01*
X13327Y32283D02*
X13445D01*
X13386Y32224D02*
Y32343D01*
X11752Y33471D02*
X11870D01*
X11811Y33412D02*
Y33530D01*
X12539Y33471D02*
X12657D01*
X12598Y33412D02*
Y33530D01*
X11752Y33061D02*
X11870D01*
X11811Y33002D02*
Y33120D01*
X12539Y33061D02*
X12657D01*
X12598Y33002D02*
Y33120D01*
X13327Y33061D02*
X13445D01*
X13386Y33002D02*
Y33120D01*
X20732Y15945D02*
X20850D01*
X20791Y15886D02*
Y16004D01*
X20732Y17323D02*
X20850D01*
X20791Y17264D02*
Y17382D01*
X21398Y16555D02*
X21516D01*
X21457Y16496D02*
Y16614D01*
X22297Y26001D02*
X22416D01*
X22356Y25942D02*
Y26060D01*
X22294Y26964D02*
X22412D01*
X22353Y26905D02*
Y27023D01*
X22297Y27979D02*
X22416D01*
X22356Y27920D02*
Y28038D01*
X26909Y22316D02*
X27028D01*
X26969Y22257D02*
Y22375D01*
X25441Y33521D02*
X25598D01*
X25520Y33442D02*
Y33600D01*
X28634Y38065D02*
X28752D01*
X28693Y38006D02*
Y38124D01*
X32688Y21260D02*
X32845D01*
X32767Y21181D02*
Y21339D01*
X31685Y31680D02*
X31803D01*
X31744Y31621D02*
Y31739D01*
X31683Y32638D02*
X31801D01*
X31742Y32578D02*
Y32697D01*
X35679Y15528D02*
X35797D01*
X35738Y15469D02*
Y15587D01*
X35679Y16328D02*
X35797D01*
X35738Y16269D02*
Y16387D01*
X35896Y17300D02*
X36014D01*
X35955Y17241D02*
Y17359D01*
X35768Y31596D02*
X35886D01*
X35827Y31537D02*
Y31655D01*
X46194Y19741D02*
X46312D01*
X46253Y19682D02*
Y19800D01*
X46931Y19723D02*
X47050D01*
X46991Y19664D02*
Y19782D01*
X54320Y25554D02*
X54438D01*
X54379Y25495D02*
Y25613D01*
X55778Y30315D02*
X55896D01*
X55837Y30256D02*
Y30374D01*
X55846Y34252D02*
X55965D01*
X55906Y34193D02*
Y34311D01*
X55059Y35039D02*
X55177D01*
X55118Y34980D02*
Y35098D01*
X54272Y35039D02*
X54390D01*
X54331Y34980D02*
Y35098D01*
X56616Y12482D02*
X56734D01*
X56675Y12423D02*
Y12541D01*
X62295Y19724D02*
X62413D01*
X62354Y19665D02*
Y19783D01*
X62248Y35821D02*
X62366D01*
X62307Y35762D02*
Y35880D01*
X62254Y36578D02*
X62372D01*
X62313Y36519D02*
Y36637D01*
X62249Y37402D02*
X62367D01*
X62308Y37343D02*
Y37461D01*
X65492Y34049D02*
X65610D01*
X65551Y33990D02*
Y34108D01*
X2207Y18504D02*
X2325D01*
X2266Y18445D02*
Y18563D01*
X6326Y24957D02*
X6445D01*
X6385Y24898D02*
Y25016D01*
X10204Y24803D02*
X10322D01*
X10263Y24744D02*
Y24862D01*
X9414Y24803D02*
X9532D01*
X9473Y24744D02*
Y24862D01*
X10204Y25591D02*
X10322D01*
X10263Y25532D02*
Y25650D01*
X9414Y25591D02*
X9532D01*
X9473Y25532D02*
Y25650D01*
X11012Y25587D02*
X11130D01*
X11071Y25528D02*
Y25646D01*
X12539Y23397D02*
X12657D01*
X12598Y23338D02*
Y23456D01*
X13504Y25606D02*
X13661D01*
X13583Y25527D02*
Y25685D01*
X14351Y24925D02*
X14469D01*
X14410Y24866D02*
Y24984D01*
X14902Y26426D02*
X15020D01*
X14961Y26366D02*
Y26485D01*
X14951Y30510D02*
X15109D01*
X15030Y30431D02*
Y30588D01*
X14971Y31270D02*
X15089D01*
X15030Y31211D02*
Y31329D01*
X15669Y32087D02*
X15827D01*
X15748Y32008D02*
Y32166D01*
X15669Y32996D02*
X15827D01*
X15748Y32917D02*
Y33075D01*
X22297Y20823D02*
X22416D01*
X22356Y20764D02*
Y20882D01*
X22297Y23265D02*
X22416D01*
X22356Y23206D02*
Y23324D01*
X22297Y24009D02*
X22416D01*
X22356Y23950D02*
Y24068D01*
X25550Y38424D02*
X25707D01*
X25629Y38346D02*
Y38503D01*
X28634Y36793D02*
X28752D01*
X28693Y36734D02*
Y36852D01*
X35768Y28024D02*
X35886D01*
X35827Y27965D02*
Y28083D01*
X34953Y38596D02*
X35071D01*
X35012Y38537D02*
Y38655D01*
X35106Y40774D02*
X35264D01*
X35185Y40695D02*
Y40853D01*
X46926Y19338D02*
X47044D01*
X46985Y19279D02*
Y19397D01*
X50146Y23253D02*
X50264D01*
X50205Y23194D02*
Y23312D01*
X55059Y35433D02*
X55177D01*
X55118Y35374D02*
Y35492D01*
X55059Y34646D02*
X55177D01*
X55118Y34587D02*
Y34705D01*
X54272Y35433D02*
X54390D01*
X54331Y35374D02*
Y35492D01*
X54272Y34646D02*
X54390D01*
X54331Y34587D02*
Y34705D01*
X55846Y35433D02*
X55965D01*
X55906Y35374D02*
Y35492D01*
X55846Y34646D02*
X55965D01*
X55906Y34587D02*
Y34705D01*
X62303Y19291D02*
X62421D01*
X62362Y19232D02*
Y19350D01*
X63660Y36030D02*
X63820D01*
X63740Y35950D02*
Y36110D01*
M02*
