G04*
G04 #@! TF.GenerationSoftware,Altium Limited,Altium Designer,20.2.6 (244)*
G04*
G04 Layer_Color=128*
%FSLAX24Y24*%
%MOIN*%
G70*
G04*
G04 #@! TF.SameCoordinates,10E2E559-7701-499E-A428-1A66D90B70A8*
G04*
G04*
G04 #@! TF.FilePolarity,Positive*
G04*
G01*
G75*
%ADD13C,0.0100*%
%ADD18C,0.0039*%
%ADD19R,0.0535X0.0535*%
%ADD20R,0.0800X0.1000*%
%ADD21R,0.0600X0.0800*%
%ADD25R,0.3860X0.4560*%
%ADD28R,0.1000X0.0800*%
%ADD29R,0.0672X0.0633*%
%ADD30C,0.0672*%
%ADD31R,0.0800X0.0600*%
%ADD32R,0.0535X0.0535*%
%ADD35R,0.0118X0.0256*%
%ADD36R,0.0397X0.0397*%
%ADD41R,0.0397X0.0397*%
%ADD86R,0.3660X0.4360*%
%ADD152R,0.0197X0.0236*%
%ADD153R,0.0591X0.0217*%
%ADD154R,0.0197X0.0236*%
%ADD155R,0.0197X0.0236*%
G04:AMPARAMS|DCode=156|XSize=79.1mil|YSize=59.4mil|CornerRadius=19.8mil|HoleSize=0mil|Usage=FLASHONLY|Rotation=90.000|XOffset=0mil|YOffset=0mil|HoleType=Round|Shape=RoundedRectangle|*
%AMROUNDEDRECTD156*
21,1,0.0791,0.0197,0,0,90.0*
21,1,0.0394,0.0594,0,0,90.0*
1,1,0.0397,0.0098,0.0197*
1,1,0.0397,0.0098,-0.0197*
1,1,0.0397,-0.0098,-0.0197*
1,1,0.0397,-0.0098,0.0197*
%
%ADD156ROUNDEDRECTD156*%
%ADD157C,0.0594*%
%ADD158R,0.1263X0.0830*%
%ADD159R,0.0397X0.0594*%
G04:AMPARAMS|DCode=160|XSize=79.1mil|YSize=59.4mil|CornerRadius=19.8mil|HoleSize=0mil|Usage=FLASHONLY|Rotation=0.000|XOffset=0mil|YOffset=0mil|HoleType=Round|Shape=RoundedRectangle|*
%AMROUNDEDRECTD160*
21,1,0.0791,0.0197,0,0,0.0*
21,1,0.0394,0.0594,0,0,0.0*
1,1,0.0397,0.0197,-0.0098*
1,1,0.0397,-0.0197,-0.0098*
1,1,0.0397,-0.0197,0.0098*
1,1,0.0397,0.0197,0.0098*
%
%ADD160ROUNDEDRECTD160*%
%ADD161O,0.0436X0.0771*%
%ADD162R,0.1381X0.1381*%
%ADD163O,0.0732X0.0318*%
%ADD164R,0.0318X0.0456*%
%ADD165O,0.0574X0.0298*%
%ADD166O,0.0298X0.0574*%
%ADD167R,0.0869X0.1263*%
%ADD168R,0.0594X0.0436*%
%ADD169R,0.1000X0.0594*%
%ADD170R,0.0690X0.1450*%
D13*
X0Y0D02*
Y33465D01*
X66929Y0D02*
Y40551D01*
X44094Y42520D02*
X46063Y40551D01*
X12992D02*
X14961Y42520D01*
X0Y33465D02*
X7087Y40551D01*
X12992D01*
X46063D02*
X66929D01*
X0Y0D02*
X66929D01*
X14961Y42520D02*
X44094D01*
X10924Y21947D02*
X11252D01*
X11317Y21882D01*
Y21750D01*
X11252Y21685D01*
X10924D01*
X11317Y21291D02*
Y21554D01*
X11055Y21291D01*
X10989D01*
X10924Y21357D01*
Y21488D01*
X10989Y21554D01*
X29821Y21947D02*
X30149D01*
X30215Y21882D01*
Y21750D01*
X30149Y21685D01*
X29821D01*
X29887Y21554D02*
X29821Y21488D01*
Y21357D01*
X29887Y21291D01*
X29953D01*
X30018Y21357D01*
Y21422D01*
Y21357D01*
X30084Y21291D01*
X30149D01*
X30215Y21357D01*
Y21488D01*
X30149Y21554D01*
X48719Y21947D02*
X49047D01*
X49113Y21882D01*
Y21750D01*
X49047Y21685D01*
X48719D01*
X49113Y21357D02*
X48719D01*
X48916Y21554D01*
Y21291D01*
D18*
X13157Y33857D02*
X12895D01*
X12842Y33804D01*
Y33699D01*
X12895Y33647D01*
X13157D01*
X12842Y33542D02*
Y33437D01*
Y33489D01*
X13157D01*
X13105Y33542D01*
Y33279D02*
X13157Y33227D01*
Y33122D01*
X13105Y33070D01*
X12895D01*
X12842Y33122D01*
Y33227D01*
X12895Y33279D01*
X13105D01*
D19*
X54134Y29528D02*
D03*
X53524D02*
D03*
X55695Y13504D02*
D03*
X56305D02*
D03*
X19173Y14567D02*
D03*
X18563D02*
D03*
X27470Y33641D02*
D03*
X26860D02*
D03*
X37252Y14544D02*
D03*
X37862D02*
D03*
X44793Y27229D02*
D03*
X44183D02*
D03*
X19230Y16890D02*
D03*
X18620D02*
D03*
X26130Y34192D02*
D03*
X25520D02*
D03*
X26130Y34929D02*
D03*
X25520D02*
D03*
X31812Y33641D02*
D03*
X32422D02*
D03*
X32000Y30000D02*
D03*
X32610D02*
D03*
X31812Y34354D02*
D03*
X32422D02*
D03*
X37884Y26001D02*
D03*
X38494D02*
D03*
X37884Y27002D02*
D03*
X38494D02*
D03*
X37884Y27996D02*
D03*
X38494D02*
D03*
X37884Y28996D02*
D03*
X38494D02*
D03*
X37884Y31582D02*
D03*
X38494D02*
D03*
X37884Y35596D02*
D03*
X38494D02*
D03*
X37884Y36587D02*
D03*
X38494D02*
D03*
X44793Y26378D02*
D03*
X44183D02*
D03*
X55695Y15718D02*
D03*
X56305D02*
D03*
X63297Y34252D02*
D03*
X62687D02*
D03*
X31305Y30000D02*
D03*
X30695D02*
D03*
X27485Y34283D02*
D03*
X26875D02*
D03*
X26852Y34929D02*
D03*
X27462D02*
D03*
X37197Y16859D02*
D03*
X37807D02*
D03*
D20*
X9449Y19696D02*
D03*
X10549Y19685D02*
D03*
X28334D02*
D03*
X29434D02*
D03*
X47248Y19685D02*
D03*
X48348D02*
D03*
X56715Y30623D02*
D03*
X57815D02*
D03*
D21*
X24060Y17871D02*
D03*
X23260D02*
D03*
X4540Y17921D02*
D03*
X3740D02*
D03*
X57309Y28812D02*
D03*
X56509D02*
D03*
X31742Y31656D02*
D03*
X32542D02*
D03*
X62313Y36578D02*
D03*
X63113D02*
D03*
X3997Y11024D02*
D03*
X3197D02*
D03*
X4674Y28237D02*
D03*
X3874D02*
D03*
X8520Y11024D02*
D03*
X7720D02*
D03*
X13392D02*
D03*
X12592D02*
D03*
X17932D02*
D03*
X17132D02*
D03*
X22841D02*
D03*
X22041D02*
D03*
X27420D02*
D03*
X26620D02*
D03*
X27571Y32145D02*
D03*
X26771D02*
D03*
X30000Y30000D02*
D03*
X29200D02*
D03*
X32290Y11024D02*
D03*
X31490D02*
D03*
X31742Y32638D02*
D03*
X32542D02*
D03*
X36844Y11024D02*
D03*
X36044D02*
D03*
X41739D02*
D03*
X40939D02*
D03*
X46320D02*
D03*
X45520D02*
D03*
X51187D02*
D03*
X50387D02*
D03*
X55732Y11011D02*
D03*
X54932D02*
D03*
X55650Y24982D02*
D03*
X54850D02*
D03*
X55655Y26520D02*
D03*
X54855D02*
D03*
X55655Y24147D02*
D03*
X54855D02*
D03*
X55648Y27351D02*
D03*
X54848D02*
D03*
X57279Y28000D02*
D03*
X56479D02*
D03*
X60820Y34252D02*
D03*
X61620D02*
D03*
X5036Y24002D02*
D03*
X4236D02*
D03*
D25*
X64651Y11263D02*
D03*
D28*
X63465Y20786D02*
D03*
Y19686D02*
D03*
X25984Y22204D02*
D03*
Y21104D02*
D03*
X44971Y22356D02*
D03*
Y21256D02*
D03*
X7087Y22204D02*
D03*
Y21104D02*
D03*
X8149Y22204D02*
D03*
Y21104D02*
D03*
X26969Y22204D02*
D03*
Y21104D02*
D03*
X46088Y22356D02*
D03*
Y21256D02*
D03*
D29*
X33910Y31629D02*
D03*
Y32456D02*
D03*
D30*
X60433Y21614D02*
D03*
X59764Y13110D02*
D03*
D31*
X9486Y25597D02*
D03*
Y24797D02*
D03*
X26064Y30493D02*
D03*
Y29693D02*
D03*
X9967Y29074D02*
D03*
Y28274D02*
D03*
X27559Y24797D02*
D03*
Y25597D02*
D03*
X29884Y24797D02*
D03*
Y25597D02*
D03*
X30604Y23396D02*
D03*
Y22596D02*
D03*
X30693Y36760D02*
D03*
Y35960D02*
D03*
X58729Y25262D02*
D03*
Y26062D02*
D03*
Y26651D02*
D03*
Y27451D02*
D03*
X5915Y12605D02*
D03*
Y11805D02*
D03*
X16339Y11624D02*
D03*
Y10824D02*
D03*
X18438Y13105D02*
D03*
Y12305D02*
D03*
X19291Y13105D02*
D03*
Y12305D02*
D03*
X20242Y12605D02*
D03*
Y11805D02*
D03*
X29690Y12605D02*
D03*
Y11805D02*
D03*
X30709Y11624D02*
D03*
Y10824D02*
D03*
X37131Y12395D02*
D03*
Y13195D02*
D03*
X37992D02*
D03*
Y12395D02*
D03*
X48032Y25597D02*
D03*
Y24797D02*
D03*
X54134Y11624D02*
D03*
Y10824D02*
D03*
X60794Y11098D02*
D03*
Y10298D02*
D03*
X60783Y12289D02*
D03*
Y13089D02*
D03*
X1257Y12651D02*
D03*
Y11851D02*
D03*
X2358Y11624D02*
D03*
Y10824D02*
D03*
X6900Y11624D02*
D03*
Y10824D02*
D03*
X10236Y24797D02*
D03*
Y25597D02*
D03*
X10795Y12605D02*
D03*
Y11805D02*
D03*
X11811Y11624D02*
D03*
Y10824D02*
D03*
X15421Y12605D02*
D03*
Y11805D02*
D03*
X21260Y11624D02*
D03*
Y10824D02*
D03*
X24803Y12605D02*
D03*
Y11805D02*
D03*
X25787Y11624D02*
D03*
Y10824D02*
D03*
X28384Y25597D02*
D03*
Y24797D02*
D03*
X29134Y25597D02*
D03*
Y24797D02*
D03*
X34252Y12605D02*
D03*
Y11805D02*
D03*
X35236Y11624D02*
D03*
Y10824D02*
D03*
X39142Y12605D02*
D03*
Y11805D02*
D03*
X40157Y11624D02*
D03*
Y10824D02*
D03*
X43701Y12605D02*
D03*
Y11805D02*
D03*
X44685Y11624D02*
D03*
Y10824D02*
D03*
X47281Y25597D02*
D03*
Y24797D02*
D03*
X48591Y12605D02*
D03*
Y11805D02*
D03*
X49606Y11624D02*
D03*
Y10824D02*
D03*
X53150Y12605D02*
D03*
Y11805D02*
D03*
X56625Y12483D02*
D03*
Y11683D02*
D03*
X57525Y12483D02*
D03*
Y11683D02*
D03*
X58000Y24416D02*
D03*
Y23616D02*
D03*
X58858Y23596D02*
D03*
Y24396D02*
D03*
X60787Y15991D02*
D03*
Y15191D02*
D03*
X60796Y18335D02*
D03*
Y17535D02*
D03*
X8661Y24797D02*
D03*
Y25597D02*
D03*
X11071Y24797D02*
D03*
Y25597D02*
D03*
X12598Y23397D02*
D03*
Y22597D02*
D03*
X16972Y15551D02*
D03*
Y16351D02*
D03*
X29688Y36760D02*
D03*
Y35960D02*
D03*
X28663Y36760D02*
D03*
Y35960D02*
D03*
X31576Y23396D02*
D03*
Y22596D02*
D03*
X35738Y15528D02*
D03*
Y16328D02*
D03*
X49471Y23396D02*
D03*
Y22596D02*
D03*
X48819Y24797D02*
D03*
Y25597D02*
D03*
X50379Y23404D02*
D03*
Y22604D02*
D03*
X54134Y14277D02*
D03*
Y15077D02*
D03*
X65551Y34049D02*
D03*
Y34849D02*
D03*
X11741Y23397D02*
D03*
Y22597D02*
D03*
X46534Y24793D02*
D03*
Y25593D02*
D03*
D32*
X43445Y39159D02*
D03*
Y39769D02*
D03*
X54724Y30404D02*
D03*
Y31014D02*
D03*
X9212Y28914D02*
D03*
Y28304D02*
D03*
X4221Y24835D02*
D03*
Y25445D02*
D03*
X5030Y24835D02*
D03*
Y25445D02*
D03*
X20784Y15945D02*
D03*
Y16555D02*
D03*
X21457Y15945D02*
D03*
Y16555D02*
D03*
X28693Y38675D02*
D03*
Y38065D02*
D03*
X29688Y38675D02*
D03*
Y38065D02*
D03*
X30693Y38675D02*
D03*
Y38065D02*
D03*
X39439Y16532D02*
D03*
Y15922D02*
D03*
X40127Y15920D02*
D03*
Y16530D02*
D03*
X57610Y14064D02*
D03*
Y13454D02*
D03*
X64173Y34754D02*
D03*
Y34144D02*
D03*
X64764Y35522D02*
D03*
Y36132D02*
D03*
X33127Y34362D02*
D03*
Y33752D02*
D03*
X57616Y14691D02*
D03*
Y15301D02*
D03*
X60039Y34049D02*
D03*
Y34659D02*
D03*
X64764Y34754D02*
D03*
Y34144D02*
D03*
X66339Y34144D02*
D03*
Y34754D02*
D03*
D35*
X5915Y10364D02*
D03*
Y10896D02*
D03*
X10795Y10364D02*
D03*
Y10896D02*
D03*
X15421Y10364D02*
D03*
Y10896D02*
D03*
X29693Y10364D02*
D03*
Y10896D02*
D03*
X1257Y10410D02*
D03*
Y10942D02*
D03*
X20244Y10364D02*
D03*
Y10896D02*
D03*
X24803Y10364D02*
D03*
Y10896D02*
D03*
X34252Y10364D02*
D03*
Y10896D02*
D03*
X39142Y10364D02*
D03*
Y10896D02*
D03*
X43701Y10364D02*
D03*
Y10896D02*
D03*
X48591Y10364D02*
D03*
Y10896D02*
D03*
X53150Y10364D02*
D03*
Y10896D02*
D03*
D36*
X26494Y37771D02*
D03*
X25894Y37551D02*
D03*
Y38429D02*
D03*
X26494Y38649D02*
D03*
D41*
X24113Y30346D02*
D03*
X23893Y30946D02*
D03*
X23065Y30341D02*
D03*
X22845Y30941D02*
D03*
D86*
X64651Y16535D02*
D03*
D152*
X53996Y30156D02*
D03*
X53248D02*
D03*
X53622Y30943D02*
D03*
D153*
X30663Y34138D02*
D03*
Y33638D02*
D03*
Y33138D02*
D03*
Y32638D02*
D03*
Y32138D02*
D03*
Y31638D02*
D03*
Y31138D02*
D03*
X28537Y31138D02*
D03*
Y31638D02*
D03*
Y32138D02*
D03*
Y32638D02*
D03*
Y33138D02*
D03*
Y33638D02*
D03*
Y34138D02*
D03*
D154*
X17717Y18110D02*
D03*
X17343Y17323D02*
D03*
X18091D02*
D03*
X36703Y17300D02*
D03*
X35955D02*
D03*
X36329Y18088D02*
D03*
X54595Y16454D02*
D03*
X53847D02*
D03*
D155*
X54221Y17242D02*
D03*
D156*
X8268Y29646D02*
D03*
X6693Y29649D02*
D03*
X11205Y36839D02*
D03*
X9555Y36890D02*
D03*
D157*
X8268Y30315D02*
D03*
X6693Y30318D02*
D03*
X11205Y36170D02*
D03*
X9555Y36220D02*
D03*
X22323Y38465D02*
D03*
X22410Y32996D02*
D03*
D158*
X62165Y20787D02*
D03*
Y19685D02*
D03*
X62638Y29488D02*
D03*
Y30591D02*
D03*
D159*
X21589Y34303D02*
D03*
X22373D02*
D03*
D160*
X21654Y38465D02*
D03*
X21741Y32996D02*
D03*
D161*
X9486Y23120D02*
D03*
X9986D02*
D03*
X10486D02*
D03*
X10986D02*
D03*
X9486Y20974D02*
D03*
X9986D02*
D03*
X10486D02*
D03*
X10986D02*
D03*
X29884D02*
D03*
X29384D02*
D03*
X28884D02*
D03*
X28384D02*
D03*
X29884Y23120D02*
D03*
X29384D02*
D03*
X28884D02*
D03*
X28384D02*
D03*
X47281D02*
D03*
X47782D02*
D03*
X48281D02*
D03*
X48781D02*
D03*
X47281Y20974D02*
D03*
X47782D02*
D03*
X48281D02*
D03*
X48781D02*
D03*
D162*
X10236Y22047D02*
D03*
X29134D02*
D03*
X48032D02*
D03*
D163*
X17992Y15354D02*
D03*
Y15551D02*
D03*
Y15748D02*
D03*
Y15945D02*
D03*
X19744Y15354D02*
D03*
Y15551D02*
D03*
Y15748D02*
D03*
Y15945D02*
D03*
Y16142D02*
D03*
X17992D02*
D03*
X36634Y15354D02*
D03*
Y15551D02*
D03*
Y15748D02*
D03*
Y15945D02*
D03*
X38386Y15354D02*
D03*
Y15551D02*
D03*
Y15748D02*
D03*
Y15945D02*
D03*
Y16142D02*
D03*
X36634D02*
D03*
X56876Y14887D02*
D03*
Y14690D02*
D03*
Y14494D02*
D03*
Y14297D02*
D03*
Y14100D02*
D03*
X55124Y14690D02*
D03*
Y14494D02*
D03*
Y14297D02*
D03*
Y14100D02*
D03*
Y14887D02*
D03*
D164*
X31693Y38636D02*
D03*
Y38105D02*
D03*
X33693Y38636D02*
D03*
Y38105D02*
D03*
X32686Y38105D02*
D03*
Y38636D02*
D03*
D165*
X56360Y25470D02*
D03*
Y25667D02*
D03*
Y25864D02*
D03*
Y26061D02*
D03*
Y26455D02*
D03*
Y26651D02*
D03*
Y26848D02*
D03*
X57640Y26651D02*
D03*
Y26455D02*
D03*
Y26061D02*
D03*
Y25864D02*
D03*
Y25667D02*
D03*
Y25470D02*
D03*
Y26258D02*
D03*
X56360D02*
D03*
X57640Y26848D02*
D03*
D166*
X56705Y27035D02*
D03*
X57295D02*
D03*
Y25283D02*
D03*
X56705D02*
D03*
D167*
X57000Y26159D02*
D03*
D168*
X63391Y34990D02*
D03*
Y35364D02*
D03*
Y35738D02*
D03*
X62308D02*
D03*
Y35364D02*
D03*
Y34990D02*
D03*
D169*
X18738Y7087D02*
D03*
X20313D02*
D03*
X39241Y7087D02*
D03*
X37667D02*
D03*
X56890D02*
D03*
X58465D02*
D03*
D170*
X18270Y7087D02*
D03*
X20780D02*
D03*
X39709Y7087D02*
D03*
X37199D02*
D03*
X56422D02*
D03*
X58932D02*
D03*
M02*
