G04*
G04 #@! TF.GenerationSoftware,Altium Limited,Altium Designer,20.2.6 (244)*
G04*
G04 Layer_Color=0*
%FSLAX24Y24*%
%MOIN*%
G70*
G04*
G04 #@! TF.SameCoordinates,10E2E559-7701-499E-A428-1A66D90B70A8*
G04*
G04*
G04 #@! TF.FilePolarity,Positive*
G04*
G01*
G75*
%ADD13C,0.0100*%
%ADD16C,0.0079*%
%ADD18C,0.0039*%
%ADD173C,0.0020*%
D13*
X0Y0D02*
Y33465D01*
X66929Y0D02*
Y40551D01*
X44094Y42520D02*
X46063Y40551D01*
X12992D02*
X14961Y42520D01*
X0Y33465D02*
X7087Y40551D01*
X12992D01*
X46063D02*
X66929D01*
X0Y0D02*
X66929D01*
X14961Y42520D02*
X44094D01*
X10924Y21947D02*
X11252D01*
X11317Y21882D01*
Y21750D01*
X11252Y21685D01*
X10924D01*
X11317Y21291D02*
Y21554D01*
X11055Y21291D01*
X10989D01*
X10924Y21357D01*
Y21488D01*
X10989Y21554D01*
X29821Y21947D02*
X30149D01*
X30215Y21882D01*
Y21750D01*
X30149Y21685D01*
X29821D01*
X29887Y21554D02*
X29821Y21488D01*
Y21357D01*
X29887Y21291D01*
X29953D01*
X30018Y21357D01*
Y21422D01*
Y21357D01*
X30084Y21291D01*
X30149D01*
X30215Y21357D01*
Y21488D01*
X30149Y21554D01*
X48719Y21947D02*
X49047D01*
X49113Y21882D01*
Y21750D01*
X49047Y21685D01*
X48719D01*
X49113Y21357D02*
X48719D01*
X48916Y21554D01*
Y21291D01*
D16*
X54272Y29959D02*
Y31140D01*
X52972D02*
X54272D01*
X52972Y29959D02*
Y31140D01*
Y29959D02*
X54272D01*
X28193Y34458D02*
X31007D01*
X28193Y30817D02*
Y34458D01*
Y30817D02*
X31007D01*
Y34458D01*
X5699Y11063D02*
X6132D01*
Y10197D02*
Y11063D01*
X5699Y10197D02*
X6132D01*
X5699D02*
Y11063D01*
X10579D02*
X11012D01*
Y10197D02*
Y11063D01*
X10579Y10197D02*
X11012D01*
X10579D02*
Y11063D01*
X15205D02*
X15638D01*
Y10197D02*
Y11063D01*
X15205Y10197D02*
X15638D01*
X15205D02*
Y11063D01*
X17067Y17126D02*
X18366D01*
X17067D02*
Y18307D01*
X18366D01*
Y17126D02*
Y18307D01*
X29476Y11063D02*
X29909D01*
Y10197D02*
Y11063D01*
X29476Y10197D02*
X29909D01*
X29476D02*
Y11063D01*
X31476Y37937D02*
Y38803D01*
Y37937D02*
X31910D01*
Y38803D01*
X31476D02*
X31910D01*
X33476Y37937D02*
Y38803D01*
Y37937D02*
X33910D01*
Y38803D01*
X33476D02*
X33910D01*
X36978Y17103D02*
Y18284D01*
X35679D02*
X36978D01*
X35679Y17103D02*
Y18284D01*
Y17103D02*
X36978D01*
X54870Y16258D02*
Y17439D01*
X53571D02*
X54870D01*
X53571Y16258D02*
Y17439D01*
Y16258D02*
X54870D01*
X1040Y11109D02*
X1473D01*
Y10243D02*
Y11109D01*
X1040Y10243D02*
X1473D01*
X1040D02*
Y11109D01*
X20028Y11063D02*
X20461D01*
Y10197D02*
Y11063D01*
X20028Y10197D02*
X20461D01*
X20028D02*
Y11063D01*
X24587D02*
X25020D01*
Y10197D02*
Y11063D01*
X24587Y10197D02*
X25020D01*
X24587D02*
Y11063D01*
X32469Y38803D02*
X32903D01*
Y37937D02*
Y38803D01*
X32469Y37937D02*
X32903D01*
X32469D02*
Y38803D01*
X34035Y11063D02*
X34469D01*
Y10197D02*
Y11063D01*
X34035Y10197D02*
X34469D01*
X34035D02*
Y11063D01*
X38925D02*
X39358D01*
Y10197D02*
Y11063D01*
X38925Y10197D02*
X39358D01*
X38925D02*
Y11063D01*
X43484D02*
X43917D01*
Y10197D02*
Y11063D01*
X43484Y10197D02*
X43917D01*
X43484D02*
Y11063D01*
X48374D02*
X48807D01*
Y10197D02*
Y11063D01*
X48374Y10197D02*
X48807D01*
X48374D02*
Y11063D01*
X52933D02*
X53366D01*
Y10197D02*
Y11063D01*
X52933Y10197D02*
X53366D01*
X52933D02*
Y11063D01*
D18*
X63780Y11066D02*
Y11459D01*
X63583Y11263D02*
X63976D01*
X21832Y34303D02*
X22226D01*
X22029Y34106D02*
Y34500D01*
X63583Y16535D02*
X63976D01*
X63780Y16339D02*
Y16732D01*
X10236Y21850D02*
Y22244D01*
X10039Y22047D02*
X10433D01*
X18671Y15748D02*
X19065D01*
X18868Y15551D02*
Y15945D01*
X28937Y22047D02*
X29331D01*
X29134Y21850D02*
Y22244D01*
X48032Y21850D02*
Y22244D01*
X47835Y22047D02*
X48228D01*
X56803Y26159D02*
X57197D01*
X57000Y25962D02*
Y26356D01*
X33575Y32722D02*
X34244D01*
X33575Y31364D02*
X34244D01*
X33575D02*
Y32722D01*
X34244Y31364D02*
Y32722D01*
X33910Y31846D02*
Y32240D01*
X33713Y32043D02*
X34106D01*
X37313Y15748D02*
X37707D01*
X37510Y15551D02*
Y15945D01*
X62849Y35167D02*
Y35561D01*
X62653Y35364D02*
X63046D01*
X56000Y14297D02*
Y14690D01*
X55803Y14494D02*
X56197D01*
X13157Y33857D02*
X12895D01*
X12842Y33804D01*
Y33699D01*
X12895Y33647D01*
X13157D01*
X12842Y33542D02*
Y33437D01*
Y33489D01*
X13157D01*
X13105Y33542D01*
Y33279D02*
X13157Y33227D01*
Y33122D01*
X13105Y33070D01*
X12895D01*
X12842Y33122D01*
Y33227D01*
X12895Y33279D01*
X13105D01*
D173*
X47551Y37982D02*
Y38376D01*
X47354Y38179D02*
X47748D01*
X50817Y35955D02*
Y40404D01*
X44285Y35955D02*
X50817D01*
X44285D02*
Y40404D01*
X50817D01*
X21984Y35899D02*
Y37116D01*
X25260D01*
Y35899D02*
Y37116D01*
X21984Y35899D02*
X25260D01*
X23622Y36310D02*
Y36704D01*
X23425Y36507D02*
X23819D01*
X10567Y38565D02*
X12843D01*
Y39782D01*
X10567D02*
X12843D01*
X10567Y38565D02*
Y39782D01*
X11705Y38976D02*
Y39370D01*
X11508Y39173D02*
X11902D01*
X53740Y3543D02*
X54134D01*
X53937Y3346D02*
Y3740D01*
X57264Y217D02*
Y6870D01*
X50610Y217D02*
X57264D01*
X50610D02*
Y6870D01*
X57264D01*
X34843Y3368D02*
X35236D01*
X35039Y3171D02*
Y3565D01*
X38366Y41D02*
Y6695D01*
X31713Y41D02*
X38366D01*
X31713D02*
Y6695D01*
X38366D01*
X21340Y33909D02*
Y34696D01*
X22718Y33909D02*
Y34696D01*
X21340Y33909D02*
X22718D01*
X21340Y34696D02*
X22718D01*
X15945Y3543D02*
X16339D01*
X16142Y3346D02*
Y3740D01*
X19468Y217D02*
Y6870D01*
X12815Y217D02*
X19468D01*
X12815D02*
Y6870D01*
X19468D01*
X1747Y23583D02*
X2141D01*
X1944Y23386D02*
Y23780D01*
X694Y24729D02*
X3194D01*
Y22437D02*
Y24729D01*
X694Y22437D02*
X3194D01*
X694D02*
Y24729D01*
X694Y28233D02*
X3194D01*
Y24942D02*
Y28233D01*
X694Y24942D02*
X3194D01*
X694D02*
Y28233D01*
X1944Y26390D02*
Y26784D01*
X1747Y26587D02*
X2141D01*
X694Y31781D02*
X3194D01*
Y28489D02*
Y31781D01*
X694Y28489D02*
X3194D01*
X694D02*
Y31781D01*
X1944Y29938D02*
Y30332D01*
X1747Y30135D02*
X2141D01*
X9154Y23504D02*
X11319D01*
X9154Y20591D02*
X11319D01*
X9154D02*
Y23504D01*
X11319Y20591D02*
Y23504D01*
X17628Y15039D02*
Y16457D01*
X20108Y15039D02*
Y16457D01*
X17628Y15039D02*
X20108D01*
X17628Y16457D02*
X20108D01*
X19902Y6757D02*
X26555D01*
X19902Y103D02*
Y6757D01*
Y103D02*
X26555D01*
Y6757D01*
X23228Y3233D02*
Y3627D01*
X23031Y3430D02*
X23425D01*
X26528Y39600D02*
Y42100D01*
X21236Y39600D02*
X26528D01*
X21236D02*
Y42100D01*
X26528D01*
X23685Y40850D02*
X24079D01*
X23882Y40654D02*
Y41047D01*
X30217Y20591D02*
Y23504D01*
X28051Y20591D02*
Y23504D01*
Y20591D02*
X30217D01*
X28051Y23504D02*
X30217D01*
X46949D02*
X49114D01*
X46949Y20591D02*
X49114D01*
X46949D02*
Y23504D01*
X49114Y20591D02*
Y23504D01*
X56075Y24998D02*
Y27321D01*
X57925Y24998D02*
Y27321D01*
X56075Y24998D02*
X57925D01*
X56075Y27321D02*
X57925D01*
X33347Y39600D02*
Y42100D01*
X28055Y39600D02*
X33347D01*
X28055D02*
Y42100D01*
X33347D01*
X30504Y40850D02*
X30898D01*
X30701Y40654D02*
Y41047D01*
X36270Y15039D02*
Y16457D01*
X38750Y15039D02*
Y16457D01*
X36270Y15039D02*
X38750D01*
X36270Y16457D02*
X38750D01*
X38799Y6695D02*
X45453D01*
X38799Y41D02*
Y6695D01*
Y41D02*
X45453D01*
Y6695D01*
X42126Y3171D02*
Y3565D01*
X41929Y3368D02*
X42323D01*
X62013Y36073D02*
X63686D01*
X62013Y34655D02*
X63686D01*
Y36073D01*
X62013Y34655D02*
Y36073D01*
X12185Y20D02*
Y7854D01*
X8287D02*
X12185D01*
X8287Y20D02*
Y7854D01*
Y20D02*
X12185D01*
X10039Y3937D02*
X10433D01*
X10236Y3740D02*
Y4134D01*
X31083Y20D02*
Y7854D01*
X27185D02*
X31083D01*
X27185Y20D02*
Y7854D01*
Y20D02*
X31083D01*
X28937Y3937D02*
X29331D01*
X29134Y3740D02*
Y4134D01*
X49980Y20D02*
Y7854D01*
X46083D02*
X49980D01*
X46083Y20D02*
Y7854D01*
Y20D02*
X49980D01*
X47835Y3937D02*
X48228D01*
X48032Y3740D02*
Y4134D01*
X54760Y15202D02*
X57240D01*
X54760Y13785D02*
X57240D01*
Y15202D01*
X54760Y13785D02*
Y15202D01*
X610Y6870D02*
X7264D01*
X610Y217D02*
Y6870D01*
Y217D02*
X7264D01*
Y6870D01*
X3937Y3346D02*
Y3740D01*
X3740Y3543D02*
X4134D01*
M02*
