M48
;Layer_Color=9474304
;FILE_FORMAT=2:4
INCH,TZ
;TYPE=PLATED
T1F00S00C0.0118
T2F00S00C0.0157
T3F00S00C0.0160
T4F00S00C0.0197
T5F00S00C0.0300
T6F00S00C0.0315
T7F00S00C0.0394
T8F00S00C0.0402
T9F00S00C0.0433
T10F00S00C0.0472
T11F00S00C0.0709
T12F00S00C0.0787
T13F00S00C0.1181
T14F00S00C0.1969
%
T01
X60796Y10300
Y12263
X58889Y12287
Y12838
Y13389
X57610Y13454
X57475Y12482
X56675
X58889Y11735
Y11184
Y10633
Y10082
Y9531
X37992Y13195
X37131
X19291Y13105
X18438Y13122
X9308Y19409
X9303Y19764
X8959
X8611
X8295
X8780Y19409
X6773Y18898
X6400Y16732
X5600
X2953Y15200
X2266Y18504
X1093
X4236Y24002
X6385Y24957
X9473Y24803
Y25591
X10263Y25591
X10263Y24803
X11071Y25587
X12087Y28051
X9937Y28304
X9212
X8477Y28051
X7478Y27953
X7087Y27953
Y28346
X7478Y28347
Y28741
X7087Y28740
X4221Y27229
X3012Y26778
X7087Y22288
X8212Y22316
X12598Y23397
X13583Y22266
X13653Y19291
X17126Y20079
X16058Y17323
X16062Y16282
X15270Y16286
X16972Y16332
Y15551
X18620Y16890
X19230
X20791Y17323
Y15945
X21457Y16555
X22735Y18861
X23260Y18718
X25887Y18898
X27229Y19764
X27554
X27877
X28194
X28121Y19409
X27629
X26969Y22316
X25984
X25197Y21850
X24341Y22835
X22356Y23265
X22356Y24009
X22356Y26001
X22353Y26964
X22356Y27979
X24799Y26807
X26181Y25580
X28346Y25591
X29134
Y24803
X28346
X28336Y24020
X28565Y27180
X28740Y27928
X29052Y28346
X22879Y21614
X22356Y20823
X19685Y24663
X14410Y24925
X14961Y26425
X25000Y16732
X34065Y16260
X34835Y16260
X35738Y16328
Y15528
X35955Y17300
X34886Y17274
X37197Y16859
X39416Y15945
X40133Y16532
X41995Y18716
X32582Y19060
X31576Y23396
X34087Y24442
X34300Y26173
X34241Y26968
X34782Y26852
X35433Y25591
X37008Y25123
X37884Y24471
Y26996
X37008Y27229
X35827Y28024
X29315Y27934
X47568Y26604
X47246Y25591
X48032
X48032Y24793
X47281
X48738Y26096
X50205Y23253
X52059Y24803
X54379Y25554
X55655Y26520
X56010Y29134
X57416Y27975
X58002Y28475
X58729Y27560
X58730Y26772
X58729Y26041
Y25241
X58123Y24379
X57353
X60078Y24856
X59440Y18350
Y17798
Y17247
Y16696
Y16145
Y15594
Y15042
Y14491
X58889
Y15042
Y15594
Y16145
Y16696
Y17247
Y17798
Y18350
Y13940
X57615Y14690
X55695Y15718
X54134Y15077
Y14277
X53150Y14593
X52341
X53847Y16454
X53312Y17310
X51315Y18470
X46985Y19357
X46991Y19685
X46660
X46339
X45996
X46514Y19357
X44882Y18824
X44971Y22356
X46063
X61890Y19724
Y19291
X62362
X62354Y19724
X60796Y17535
X60630Y28150
X60630Y28543
X60630Y28937
X64529
X64529Y28543
X64529Y28150
X65868Y29128
X66265Y29127
Y29521
Y29915
X65868Y29915
Y30309
X66262Y30309
X66265Y30791
Y31185
Y31579
X65868Y31579
Y31973
X66262Y31973
X65868Y31186
Y30792
Y29522
X65551Y34049
X64173Y34775
X62687Y34252
X62307Y35821
X62313Y36578
X61775Y36558
X62992Y36614
X62308Y37402
X62402Y39764
X62008
X61614
X61221Y39766
X61221Y40160
X60827
X60434
X60433Y39764
X60827
X61615Y40160
X62008
X62402
X62796
X63190
X63583
X63977
X64371
X64371Y39766
X63976Y39764
X63583
X63189
X62796Y39766
X60039Y39764
X59646Y39766
X59646Y40160
X59253
X58859
X58465
X58465Y39764
X58858
X59252
X60040Y40160
X60039Y34826
X60000Y33819
X56754Y34252
Y34646
Y35039
X56754Y35433
X55906Y35433
Y35039
Y34646
Y34252
X55512Y34252
X55118Y34252
Y34646
X55509Y34646
Y35040
X55118Y35039
X54724
X54331
Y34646
Y34252
X54724
Y34646
Y35433
X54331
X55118
X55509Y35434
X53934Y35040
Y34646
Y34253
X53346Y31299
X55352Y30623
X55837Y30315
X56010Y29921
X55649Y29528
X55837Y31083
X57835Y30630
X43456Y29429
X37884Y29451
X37884Y29983
X37884Y30805
X38494Y31582
X37884Y32213
X38601Y32746
X35849Y32207
X35827Y31596
X34782Y32596
X34449Y32874
X34782Y33799
X34449Y34449
Y35630
X32252Y35996
X31496Y34996
X30693Y36760
X29688Y36793
X29688Y38065
X30693
X35012Y38596
X37904Y37596
Y35596
X34438Y30910
X34790Y30400
X31744Y31680
X31742Y32638
X29756Y32043
X30000Y30000
X43445Y39159
X28693Y38065
X28693Y36793
X26130Y34192
X26852Y31244
X27462
X26064Y30493
Y29693
X15030Y31270
X13935Y34415
X12992Y33471
X12598
X12202Y33471
X11811Y33471
X11417Y33465
Y33071
Y32677
Y32283
Y31890
X11811
Y32290
Y32669
X12202Y32669
Y33062
X11811Y33061
X12598
Y32669
Y32290
X12992
Y32669
Y33061
X13386
Y32669
Y32283
Y31890
X12992
X12598
X12205Y31102
Y30709
Y30315
Y29921
X11811
Y30315
Y30709
Y31102
X11415Y31103
X11024Y31102
X10630
X10236
Y30709
Y30315
Y29921
X10630
X11024
X11415Y29922
Y30316
X11024Y30315
X10630
Y30709
X11024
X11415Y30709
X11024Y31890
X10627Y31890
X10236Y31890
X9843
X9449
Y32283
Y32677
X9843
Y32283
X9052Y32284
Y32678
X9449Y31102
X9840Y31103
Y30709
X9449Y30709
Y30315
X9840Y30316
Y29922
X9449Y29921
X10651Y33471
T02
X55975Y12129
X40857
X21960
X2432Y13389
X3062Y16538
Y17168
Y17798
Y19058
Y19688
Y20318
Y20948
X2432
Y20318
Y19688
Y19058
X1172
Y19688
Y20318
Y20948
Y21578
Y22208
X1802
X2432
X3062
Y24098
Y24727
Y25357
Y25987
X2432
Y25357
Y24727
Y24098
X1802Y24727
X1172
Y25357
Y24098
Y23468
Y22838
Y17798
Y17168
X542
Y17798
Y18428
X2432Y27247
Y29137
X3062
X9843Y22441
X10236Y22047
X10630Y22441
Y21654
X9843
X12983Y20376
X13782Y21260
X15031Y22838
X15660
X16920
X13583Y25606
X14567Y27556
X28740Y22441
Y21654
X29134Y22047
X29528Y21654
Y22441
X32767Y21260
X31950Y20376
X47638Y21654
X48032Y22047
X47638Y22441
X48425
Y21654
X51575Y21260
X50795Y20376
X55345Y20318
X55975
X57235
Y20948
Y19688
X56605
X55975Y21578
X55345
X60630Y31299
X64513
X65229Y36227
X60236Y38878
X59803Y38887
X59353Y38884
X57767Y39314
X56973Y39905
X56890Y37402
X57382
X57874
X58366
X48622Y36645
X47786Y36696
X46850Y36673
X46850Y35039
X46850Y34341
X45584Y34139
X45227Y33772
X45138Y35039
X45079Y36673
X47786Y39216
X49437Y35016
X49409Y34547
X47441Y33268
X47434Y32744
X48222Y32087
X48227Y31301
X44176Y35043
X35818Y37956
X35188
X34558
X33298
X32038
X30149
X32038Y34806
X33910Y32456
X31496Y31102
X29200Y30000
X35185Y40774
X36237Y40785
X28259Y37956
X25629Y38424
X25739Y36696
X26369
X23849Y35436
Y34806
Y34176
X24479Y32916
Y32287
X23219Y31657
X22590Y32287
X21330Y31657
Y30397
X19440
Y31027
Y31657
X16920
Y31027
Y32916
X15748Y32996
X15354Y32512
X15748Y32087
X15030Y30510
X16920Y34176
Y34806
Y35436
Y36066
X19440Y36696
Y35436
X20070
X21330Y36696
X23219Y36066
Y35436
X25520Y33521
X26280Y32776
X28537Y33138
X28889Y34806
X28259Y30397
X12087Y34417
X11436
X12992Y35820
X5582Y35436
X4952
X4322
Y36066
X3692
Y36696
X4322Y37326
X4952Y37956
X5582
Y38586
X7649Y39117
X3692Y35436
X3062
Y36066
X2432Y35436
Y34176
X3062
X3692
Y33546
Y32916
Y32287
Y31657
Y31027
X3062
Y31657
Y32287
Y32916
Y33546
X2432
Y32916
Y32287
X1802
Y32916
Y33546
Y34806
X1172Y34176
Y32916
Y32287
Y30397
X3062
X2432Y29767
X4952Y32287
X542Y33546
T03
X63655Y33666
X63740Y36030
T04
X64173Y32351
X5828Y32278
T05
X63386Y9688
Y10475
Y11263
X64173
X64961
Y10475
X64173
Y9688
X64961
X65748
Y10475
Y11263
X65748Y14961
Y15748
Y16535
Y17323
Y18110
X64961
Y17323
X64173
Y18110
X63386
Y17323
Y16535
X64173
X64961
Y15748
Y14961
X64173
Y15748
X63386
Y14961
T06
X48589Y9843
X55043Y13040
X56979Y13516
X39141Y9836
X29698Y9844
X20252Y9839
X10789Y9871
X1260Y9846
X6773Y19803
X11739Y18818
X15270Y14567
X17726Y14567
X20089
X21457Y14567
Y17648
X19941Y17648
X25810Y19593
X13583Y24803
X32677Y24092
X30416Y19060
X34047Y14538
X36364Y14544
X38803
X40015Y14538
X40133Y17621
X38691Y17621
X44882Y19783
X49290Y19040
X54595Y18038
X57087Y18344
X56658Y17142
X57610Y17131
X56435Y23369
X53937Y24213
X53346Y26220
X53386Y27559
X53386Y28346
X54732Y29196
X59488Y27835
X51386Y24345
X60591Y24252
X61614Y27205
X60512Y32874
X63249Y33071
X64764Y33071
X60826Y35942
X56022Y33392
X54608
X55315Y32685
X56022Y39049
X54608
X53740Y39567
X52657
X55315Y39756
X49425Y33899
X46382Y33874
X44351Y33874
X35827Y30315
X28346Y29534
X15787Y35984
T07
X1826Y23083
Y24083
X1826Y25587
Y26587
Y27587
X1826Y29135
X41012Y19390
X42012
X43012
X52487Y34099
X58143
X32701Y40968
X31701
X30701
X29701
X28701
X25882
X24882Y40968
X23882
X22882
X21882Y40968
X1826Y31135
Y30135
T08
X17528Y21996
X18528
Y22996
X17528
Y23996
Y24996
X18528
Y25996
X17528
Y26996
Y27996
X18528
Y28996
X17528
X18528Y26996
Y23996
X41528
Y24996
X42528
Y25996
X41528
Y26996
Y27996
X42528
Y28996
X41528
X42528Y26996
Y23996
Y22996
Y21996
X41528
Y22996
Y29996
Y30996
Y31996
Y32996
X42528
Y33996
Y34996
X41528
Y35996
Y36996
X42528
Y37996
Y38996
X41528
Y39996
X42528
Y40996
X41528
Y37996
X42528Y35996
X41528Y33996
X42528Y31996
Y30996
Y29996
X18528
Y30996
Y31996
Y32996
X17528
Y33996
Y34996
X18528
Y35996
Y36996
X17528
Y37996
Y38996
X18528
Y39996
X17528
Y40996
X18528
Y37996
X17528Y35996
X18528Y33996
X17528Y31996
Y30996
Y29996
T09
X48032Y984
Y6890
X46685Y9843
X45685
X49606
X50606
X51606
X54134
X55134
X56134
X55413Y3543
X52461
X43602Y3368
X40650
X36516
X33563
X32709Y9843
X31709
X30709
X35236
X36236
X37236
X40157
X41157
X42157
X44685
X27787
X26787
X25787
X23260
X22260
X21260
X18339
X17339
X16339
X13811
X14665Y3543
X17618
X21752Y3430
X24705
X29134Y984
Y6890
X10236
X8890Y9843
X7890
X6890
X4362
X3362
X2362
X3445Y3937
X6398
X10236Y984
X11811Y9843
X12811
X20528Y22996
Y23996
Y24996
Y25996
Y26996
Y27996
X39528
Y26996
Y25996
Y24996
Y23996
Y22996
Y28996
Y29996
Y31596
Y32596
Y33596
Y34596
Y35596
Y36596
Y37596
Y38596
Y39596
Y40596
X24622Y36507
X23622
X22622
X20528Y36996
Y35996
Y34996
Y33996
Y32996
Y31996
Y30996
Y29996
X12205Y39173
X11205
T10
X51779Y36220
X58850
T11
X45213Y38268
X46772
X48331
X49890
T12
X60827Y26000
X65551
T13
X65748Y1181
X1102Y1102
X65157Y38780
X5118Y36811
T14
X10236Y15748
X29134
X48032
M30
