<svg width="114.3mm" height="66.04mm" viewBox="0 0 45000000 26000000"  version="1.1" xmlns="http://www.w3.org/2000/svg" xmlns:xlink="http://www.w3.org/1999/xlink">
<desc>
Origin 74640005 44270005 Bound 74640005 44270005 45000000 26000000
</desc>
<g fill-rule="evenodd" fill="rgb(255, 0, 255)" stroke="black" stroke-width="1" transform="translate(0, 26000000) scale(1, -1) translate(-74640005, -44270005)">
<path id="N" d="M 119640005.00 44270005.00 L 74640005.00 44270005.00 L 74640005.00 70270005.00 L 119640005.00 70270005.00 L 119640005.00 44270005.00  zM 84876226.10 60411734.76 m -353022.24 0 a 353022.24 353022.24 0 1 1 706044.47 0a 353022.24 353022.24 0 1 1 -706044.47 0M 84876226.10 61199136.76 m -353022.24 0 a 353022.24 353022.24 0 1 1 706044.47 0a 353022.24 353022.24 0 1 1 -706044.47 0M 84876226.10 61986537.76 m -353022.24 0 a 353022.24 353022.24 0 1 1 706044.47 0a 353022.24 353022.24 0 1 1 -706044.47 0M 85663628.10 61986537.76 m -353022.24 0 a 353022.24 353022.24 0 1 1 706044.47 0a 353022.24 353022.24 0 1 1 -706044.47 0M 85663628.10 60411734.76 m -353022.24 0 a 353022.24 353022.24 0 1 1 706044.47 0a 353022.24 353022.24 0 1 1 -706044.47 0M 85663628.10 61199136.76 m -353022.24 0 a 353022.24 353022.24 0 1 1 706044.47 0a 353022.24 353022.24 0 1 1 -706044.47 0M 86451030.10 61199136.76 m -353022.24 0 a 353022.24 353022.24 0 1 1 706044.47 0a 353022.24 353022.24 0 1 1 -706044.47 0M 84876226.10 62773939.76 m -353022.24 0 a 353022.24 353022.24 0 1 1 706044.47 0a 353022.24 353022.24 0 1 1 -706044.47 0M 84876226.10 63561341.76 m -353022.24 0 a 353022.24 353022.24 0 1 1 706044.47 0a 353022.24 353022.24 0 1 1 -706044.47 0M 85663628.10 63561341.76 m -353022.24 0 a 353022.24 353022.24 0 1 1 706044.47 0a 353022.24 353022.24 0 1 1 -706044.47 0M 85663628.10 62773939.76 m -353022.24 0 a 353022.24 353022.24 0 1 1 706044.47 0a 353022.24 353022.24 0 1 1 -706044.47 0M 86451030.10 61986537.76 m -353022.24 0 a 353022.24 353022.24 0 1 1 706044.47 0a 353022.24 353022.24 0 1 1 -706044.47 0M 86451030.10 62773939.76 m -353022.24 0 a 353022.24 353022.24 0 1 1 706044.47 0a 353022.24 353022.24 0 1 1 -706044.47 0M 86451030.10 60411734.76 m -353022.24 0 a 353022.24 353022.24 0 1 1 706044.47 0a 353022.24 353022.24 0 1 1 -706044.47 0M 87238431.10 61199136.76 m -353022.24 0 a 353022.24 353022.24 0 1 1 706044.47 0a 353022.24 353022.24 0 1 1 -706044.47 0M 87238431.10 61986537.76 m -353022.24 0 a 353022.24 353022.24 0 1 1 706044.47 0a 353022.24 353022.24 0 1 1 -706044.47 0M 87238431.10 60411734.76 m -353022.24 0 a 353022.24 353022.24 0 1 1 706044.47 0a 353022.24 353022.24 0 1 1 -706044.47 0M 88025833.10 60411734.76 m -353022.24 0 a 353022.24 353022.24 0 1 1 706044.47 0a 353022.24 353022.24 0 1 1 -706044.47 0M 88025833.10 61199136.76 m -353022.24 0 a 353022.24 353022.24 0 1 1 706044.47 0a 353022.24 353022.24 0 1 1 -706044.47 0M 87238431.10 62773939.76 m -353022.24 0 a 353022.24 353022.24 0 1 1 706044.47 0a 353022.24 353022.24 0 1 1 -706044.47 0M 88025833.10 62773939.76 m -353022.24 0 a 353022.24 353022.24 0 1 1 706044.47 0a 353022.24 353022.24 0 1 1 -706044.47 0M 88025833.10 61986537.76 m -353022.24 0 a 353022.24 353022.24 0 1 1 706044.47 0a 353022.24 353022.24 0 1 1 -706044.47 0M 86451030.10 63561341.76 m -353022.24 0 a 353022.24 353022.24 0 1 1 706044.47 0a 353022.24 353022.24 0 1 1 -706044.47 0M 87238431.10 63561341.76 m -353022.24 0 a 353022.24 353022.24 0 1 1 706044.47 0a 353022.24 353022.24 0 1 1 -706044.47 0M 88025833.10 63561341.76 m -353022.24 0 a 353022.24 353022.24 0 1 1 706044.47 0a 353022.24 353022.24 0 1 1 -706044.47 0"/>
</g>
</svg>
